<svg width="48" height="54" viewBox="0 0 48 54" fill="none" xmlns="http://www.w3.org/2000/svg">
<path d="M0.567993 13.415C0.738282 15.4913 1.39242 17.4989 2.47803 19.277C3.56363 21.055 5.05053 22.5542 6.81963 23.6543C8.58874 24.7545 10.5909 25.4251 12.6657 25.6124C14.7406 25.7997 16.8305 25.4985 18.768 24.733C18.5977 22.6567 17.9436 20.6491 16.858 18.871C15.7724 17.093 14.2855 15.5938 12.5163 14.4937C10.7472 13.3935 8.74509 12.7229 6.67025 12.5356C4.59541 12.3483 2.50553 12.6495 0.567993 13.415" fill="#ED5932"/>
<path d="M47.361 13.415C47.1907 15.4913 46.5366 17.4989 45.451 19.277C44.3654 21.055 42.8785 22.5542 41.1094 23.6543C39.3403 24.7545 37.3381 25.4251 35.2633 25.6124C33.1884 25.7997 31.0985 25.4985 29.161 24.733C29.3313 22.6567 29.9854 20.6491 31.071 18.871C32.1566 17.093 33.6435 15.5938 35.4127 14.4937C37.1818 13.3935 39.1839 12.7229 41.2588 12.5356C43.3336 12.3483 45.4235 12.6495 47.361 13.415" fill="#ED5932"/>
<path d="M17.889 10.907C17.8889 13.0805 18.4361 15.2191 19.4801 17.1255C20.5242 19.0318 22.0315 20.6446 23.863 21.815C25.6943 20.6445 27.2013 19.0317 28.2452 17.1254C29.2891 15.2191 29.8363 13.0806 29.8362 10.9072C29.8361 8.73382 29.2887 6.59542 28.2447 4.68922C27.2006 2.78301 25.6934 1.17037 23.862 0C22.0306 1.17024 20.5233 2.78282 19.4792 4.68901C18.4352 6.5952 17.8879 8.73361 17.888 10.907" fill="#EE5A32"/>
<path d="M0.510989 34.265V38.856C0.510325 39.3801 0.647565 39.8951 0.908926 40.3494C1.17029 40.8037 1.54657 41.1812 1.99999 41.444L22.442 53.25C22.896 53.5123 23.4111 53.6503 23.9355 53.6503C24.4598 53.6503 24.9749 53.5123 25.429 53.25L27.46 52.076C19.9864 44.1216 10.7583 38.0226 0.510989 34.265" fill="#185586"/>
<path d="M0.510986 24.259V30.57C11.9604 34.5363 22.186 41.403 30.19 50.5L35.657 47.342C26.5813 36.2308 14.3133 28.1735 0.510986 24.259" fill="#195588"/>
<path d="M31.79 38.334C36.6381 35.1219 41.869 32.5291 47.361 30.616V24.3C39.9353 26.4185 32.9135 29.757 26.583 34.179C28.383 35.4843 30.119 36.871 31.791 38.339" fill="#185586"/>
<path d="M38.848 45.5L45.867 41.445C46.3211 41.1827 46.6982 40.8054 46.9603 40.3511C47.2224 39.8968 47.3602 39.3815 47.36 38.857V34.314C42.8159 35.9895 38.459 38.1345 34.36 40.714C35.928 42.238 37.424 43.8333 38.848 45.5Z" fill="#185586"/>
</svg>
