<?xml version="1.0" encoding="utf-8"?>
<!-- Generator: Adobe Illustrator 26.0.0, SVG Export Plug-In . SVG Version: 6.00 Build 0)  -->
<svg version="1.1" id="Capa_1" xmlns="http://www.w3.org/2000/svg" xmlns:xlink="http://www.w3.org/1999/xlink" x="0px" y="0px"
	 viewBox="0 0 512 512" style="enable-background:new 0 0 512 512;" xml:space="preserve">
<style type="text/css">
	.st0{fill:#58815B;}
</style>
<g>
	<g>
		<g>
			<g>
				<path class="st0" d="M72.3,490.1c-4.4,0-8-3.6-8-8V227c0-4.4,3.6-8,8-8c4.4,0,8,3.6,8,8v255.1C80.3,486.5,76.7,490.1,72.3,490.1
					L72.3,490.1z"/>
			</g>
			<g>
				<path class="st0" d="M439.8,490.1c-4.4,0-8-3.6-8-8V227c0-4.4,3.6-8,8-8s8,3.6,8,8v255.1C447.8,486.5,444.2,490.1,439.8,490.1
					L439.8,490.1z"/>
			</g>
			<g>
				<path class="st0" d="M456,227.4L253,33.7L50,227.4l-12.4-13L241.2,20c3.1-3.1,7.3-4.8,11.8-4.8c4.4,0,8.5,1.7,11.7,4.7
					l203.7,194.4L456,227.4z"/>
			</g>
		</g>
		<g>
			<g>
				<path class="st0" d="M155.8,328c-2.1,0-4.2-0.8-5.8-2.4c-12.9-13.2-20-30.7-20-49.1c0-38.8,31.6-70.5,70.5-70.5
					c26.4,0,50.4,14.6,62.6,38.1c2,3.9,0.5,8.8-3.4,10.8c-3.9,2-8.8,0.5-10.8-3.4c-9.4-18.2-27.9-29.5-48.4-29.5
					c-30,0-54.4,24.4-54.4,54.4c0,14.3,5.5,27.7,15.4,38c3.1,3.2,3,8.2-0.2,11.3C159.8,327.2,157.8,328,155.8,328L155.8,328z"/>
			</g>
			<g>
				<path class="st0" d="M356.2,328c-2,0-4-0.7-5.6-2.3c-3.2-3.1-3.2-8.2-0.2-11.3c9.9-10.2,15.4-23.7,15.4-38
					c0-30-24.4-54.4-54.4-54.4c-20.4,0-39,11.3-48.4,29.4c-2,3.9-6.9,5.5-10.8,3.4c-3.9-2-5.5-6.9-3.4-10.8
					C261,220.6,285,206,311.4,206c38.8,0,70.5,31.6,70.5,70.5c0,18.5-7.1,35.9-20,49.1C360.4,327.2,358.3,328,356.2,328z"/>
			</g>
			<g>
				<path class="st0" d="M256,416.1c-1.9,0-3.8-0.7-5.3-2L150.5,326c-3.3-2.9-3.7-8-0.7-11.3c2.9-3.3,8-3.7,11.3-0.7l94.9,83.5
					l94.9-83.5c3.3-2.9,8.4-2.6,11.3,0.7c2.9,3.3,2.6,8.4-0.7,11.3l-100.2,88.2C259.8,415.5,257.9,416.1,256,416.1L256,416.1z"/>
			</g>
		</g>
		<g>
			<path class="st0" d="M86.7,491c-9.4,0-14.9-0.9-15.8-1c-4.4-0.7-7.3-4.9-6.6-9.2c0.7-4.4,4.9-7.3,9.2-6.6
				c0.8,0.1,81.4,12.2,177.1-72.1c3.3-2.9,8.4-2.6,11.3,0.7c2.9,3.3,2.6,8.4-0.7,11.3C183.9,482.3,116.3,491,86.7,491L86.7,491z"/>
		</g>
		<g>
			<path class="st0" d="M425.3,491c-29.6,0-97.2-8.7-174.6-76.9c-3.3-2.9-3.7-8-0.7-11.3c2.9-3.3,8-3.7,11.3-0.7
				c96.2,84.7,176.3,72.2,177.1,72.1c4.4-0.7,8.5,2.2,9.2,6.6c0.7,4.4-2.2,8.5-6.6,9.2C440.3,490.1,434.7,491,425.3,491L425.3,491z"
				/>
		</g>
	</g>
</g>
</svg>
