<svg width="104" height="82" viewBox="0 0 104 82" fill="none" xmlns="http://www.w3.org/2000/svg">
<path d="M28.568 13.415C28.7383 15.4913 29.3924 17.4989 30.478 19.277C31.5636 21.055 33.0505 22.5542 34.8196 23.6543C36.5887 24.7545 38.5909 25.4251 40.6657 25.6124C42.7406 25.7997 44.8305 25.4985 46.768 24.733C46.5977 22.6567 45.9436 20.6491 44.858 18.8711C43.7724 17.093 42.2855 15.5938 40.5163 14.4937C38.7472 13.3935 36.7451 12.723 34.6702 12.5356C32.5954 12.3483 30.5055 12.6495 28.568 13.415" fill="#ED5932"/>
<path d="M75.361 13.415C75.1907 15.4913 74.5366 17.4989 73.451 19.277C72.3654 21.055 70.8785 22.5542 69.1094 23.6543C67.3403 24.7545 65.3381 25.4251 63.2633 25.6124C61.1884 25.7997 59.0985 25.4985 57.161 24.733C57.3313 22.6567 57.9854 20.6491 59.071 18.8711C60.1566 17.093 61.6435 15.5938 63.4127 14.4937C65.1818 13.3935 67.1839 12.723 69.2588 12.5356C71.3336 12.3483 73.4235 12.6495 75.361 13.415" fill="#ED5932"/>
<path d="M45.889 10.907C45.8889 13.0805 46.4361 15.2191 47.4801 17.1255C48.5242 19.0318 50.0315 20.6446 51.863 21.815C53.6943 20.6445 55.2013 19.0317 56.2452 17.1254C57.2891 15.2191 57.8363 13.0806 57.8362 10.9072C57.8361 8.73382 57.2887 6.59542 56.2447 4.68922C55.2006 2.78301 53.6934 1.17037 51.862 0C50.0306 1.17024 48.5233 2.78282 47.4792 4.68901C46.4352 6.5952 45.8879 8.73361 45.888 10.907" fill="#EE5A32"/>
<path d="M28.511 34.265V38.856C28.5103 39.3801 28.6476 39.8951 28.9089 40.3494C29.1703 40.8037 29.5466 41.1812 30 41.444L50.442 53.25C50.896 53.5123 51.4111 53.6504 51.9355 53.6504C52.4598 53.6504 52.9749 53.5123 53.429 53.25L55.46 52.076C47.9864 44.1216 38.7583 38.0226 28.511 34.265" fill="#185586"/>
<path d="M28.511 24.259V30.57C39.9604 34.5363 50.186 41.403 58.19 50.5L63.657 47.342C54.5813 36.2308 42.3133 28.1735 28.511 24.259" fill="#195588"/>
<path d="M59.79 38.334C64.6381 35.1219 69.869 32.5291 75.361 30.616V24.3C67.9353 26.4185 60.9135 29.757 54.583 34.179C56.383 35.4843 58.119 36.871 59.791 38.339" fill="#185586"/>
<path d="M66.848 45.5L73.867 41.445C74.3211 41.1827 74.6982 40.8054 74.9603 40.3511C75.2224 39.8968 75.3602 39.3815 75.36 38.857V34.314C70.8159 35.9895 66.459 38.1345 62.36 40.714C63.928 42.238 65.424 43.8333 66.848 45.5Z" fill="#185586"/>
<path d="M0 81.256V64.478H1.892L12.265 77.517V64.478H14.349V81.256H12.457L2.084 68.217V81.256H0Z" fill="#185586"/>
<path d="M30.161 64.478V66.491H20.244V71.764H28.944V73.778H20.244V79.242H30.281V81.255H18.088V64.478H30.161Z" fill="#185586"/>
<path d="M74.054 66.684C75.0369 65.757 76.2147 65.0614 77.5011 64.6483C78.7875 64.2352 80.15 64.115 81.4889 64.2965C82.8278 64.478 84.1091 64.9565 85.2392 65.6972C86.3692 66.4378 87.3193 67.4218 88.02 68.577L85.912 69.368C85.3796 68.5353 84.6683 67.8316 83.8299 67.3083C82.9914 66.7849 82.0469 66.455 81.0649 66.3424C80.0829 66.2299 79.0883 66.3376 78.1531 66.6577C77.218 66.9778 76.366 67.5023 75.659 68.193C75.0373 68.7987 74.5482 69.5269 74.2225 70.3315C73.8968 71.136 73.7417 71.9994 73.767 72.867C73.7419 73.7322 73.89 74.5938 74.2027 75.4009C74.5155 76.2081 74.9865 76.9446 75.588 77.567C76.1639 78.1725 76.8595 78.6515 77.6307 78.9735C78.4018 79.2954 79.2315 79.4533 80.067 79.437C81.5404 79.4529 82.9729 78.9527 84.116 78.023C85.2634 77.1093 86.0315 75.8029 86.272 74.356H79.612V72.34H88.691C88.715 72.628 88.739 72.867 88.739 73.059C88.6898 74.4591 88.2993 75.8261 87.6014 77.0409C86.9035 78.2557 85.9194 79.2816 84.7346 80.0294C83.5499 80.7772 82.2004 81.2242 80.8035 81.3316C79.4066 81.439 78.0046 81.2035 76.7195 80.6456C75.4344 80.0876 74.305 79.2242 73.4296 78.1303C72.5543 77.0364 71.9594 75.7453 71.6968 74.3691C71.4341 72.9929 71.5117 71.5734 71.9227 70.234C72.3337 68.8947 73.0657 67.676 74.055 66.684" fill="#ED5932"/>
<path d="M103.88 64.478V66.491H93.962V71.764H102.662V73.778H93.962V79.242H104V81.255H91.806V64.478H103.88Z" fill="#ED5932"/>
<path d="M58.264 71.585L55.379 78.167L49.437 64.478H47.161L41.2 78.164L35.255 64.478H32.979L40.334 81.256H42.083L48.3 67.075L54.27 80.7L54.516 81.259H56.3L57.929 77.496L58.816 75.483L59.392 74.161L58.264 71.585Z" fill="#185586"/>
<path d="M63.374 65.038L63.129 64.479H61.379L58.6 70.826L59.721 73.41L62.268 67.57L68.209 81.256H70.485L63.374 65.038Z" fill="#ED5932"/>
<path d="M64.39 76.961L63.516 74.947H61.008L60.13 76.961H64.39Z" fill="#ED5932"/>
</svg>
