<?xml version="1.0" encoding="utf-8"?>
<!-- Generator: Adobe Illustrator 26.0.0, SVG Export Plug-In . SVG Version: 6.00 Build 0)  -->
<svg version="1.1" id="svg2499" xmlns:svg="http://www.w3.org/2000/svg"
	 xmlns="http://www.w3.org/2000/svg" xmlns:xlink="http://www.w3.org/1999/xlink" x="0px" y="0px" viewBox="0 0 682.7 682.7"
	 style="enable-background:new 0 0 682.7 682.7;" xml:space="preserve">
<style type="text/css">
	.st0{fill:#C8966D;}
	.st1{fill:#58815B;}
</style>
<g>
	<path class="st0" d="M343,31.2c41.9,0,82.5,8.2,120.8,24.4c36.9,15.6,70.1,38,98.6,66.5c28.5,28.5,50.9,61.7,66.5,98.6
		c16.2,38.2,24.4,78.9,24.4,120.8S645,424,628.9,462.3c-15.6,36.9-38,70.1-66.5,98.6c-28.5,28.5-61.7,50.9-98.6,66.5
		c-38.2,16.2-78.9,24.4-120.8,24.4s-82.5-8.2-120.8-24.4c-36.9-15.6-70.1-38-98.6-66.5c-28.5-28.5-50.9-61.7-66.5-98.6
		C41,424,32.8,383.4,32.8,341.5S41,259,57.1,220.7c15.6-36.9,38-70.1,66.5-98.6c28.5-28.5,61.7-50.9,98.6-66.5
		C260.5,39.5,301.1,31.2,343,31.2 M343,13.2c-181.3,0-328.2,147-328.2,328.2s147,328.2,328.2,328.2s328.2-147,328.2-328.2
		S524.3,13.2,343,13.2L343,13.2z"/>
</g>
<g>
	<g>
		<g>
			<path class="st1" d="M443.3,249.6H239.4c-11.2,0-20.4,9.1-20.4,20.4v142.7c0,11.2,9.1,20.4,20.4,20.4h203.9
				c11.2,0,20.4-9.1,20.4-20.4V270C463.7,258.7,454.5,249.6,443.3,249.6z M239.4,259.8h203.9c0.8,0,1.4,0.3,2.1,0.4
				c-17.7,16.2-76.2,69.7-96.7,88.2c-1.6,1.4-4.2,3.2-7.4,3.2c-3.2,0-5.8-1.7-7.4-3.2c-20.5-18.5-79-72-96.7-88.1
				C238,260.1,238.6,259.8,239.4,259.8z M229.2,412.7V270c0-1,0.3-1.9,0.6-2.8c13.5,12.4,54.4,49.7,80.8,73.8
				c-26.4,22.7-67.2,61.4-80.9,74.4C229.5,414.5,229.2,413.6,229.2,412.7z M443.3,422.9H239.4c-0.8,0-1.5-0.3-2.3-0.5
				c14.1-13.4,55.2-52.4,81.1-74.6c3.4,3.1,6.5,5.9,8.9,8.1c4.2,3.8,9.1,5.8,14.2,5.8s10-2,14.2-5.8c2.4-2.2,5.5-5,8.9-8.1
				c25.9,22.2,67,61.1,81.1,74.6C444.8,422.6,444.1,422.9,443.3,422.9z M453.5,412.7c0,0.9-0.3,1.8-0.5,2.7
				c-13.6-13-54.5-51.7-80.9-74.4c26.5-24.1,67.3-61.4,80.8-73.8c0.3,0.9,0.6,1.8,0.6,2.8V412.7z"/>
		</g>
	</g>
</g>
</svg>
