<?xml version="1.0" encoding="utf-8"?>
<!-- Generator: Adobe Illustrator 26.0.0, SVG Export Plug-In . SVG Version: 6.00 Build 0)  -->
<svg version="1.1" id="svg2499" xmlns:svg="http://www.w3.org/2000/svg"
	 xmlns="http://www.w3.org/2000/svg" xmlns:xlink="http://www.w3.org/1999/xlink" x="0px" y="0px" viewBox="0 0 682.7 682.7"
	 style="enable-background:new 0 0 682.7 682.7;" xml:space="preserve">
<style type="text/css">
	.st0{fill:#C8966D;}
	.st1{fill:#58815B;}
</style>
<g>
	<path class="st0" d="M343,31.2c41.9,0,82.5,8.2,120.8,24.4c36.9,15.6,70.1,38,98.6,66.5c28.5,28.5,50.9,61.7,66.5,98.6
		c16.2,38.2,24.4,78.9,24.4,120.8S645,424,628.9,462.3c-15.6,36.9-38,70.1-66.5,98.6c-28.5,28.5-61.7,50.9-98.6,66.5
		c-38.2,16.2-78.9,24.4-120.8,24.4s-82.5-8.2-120.8-24.4c-36.9-15.6-70.1-38-98.6-66.5c-28.5-28.5-50.9-61.7-66.5-98.6
		C41,424,32.8,383.4,32.8,341.5S41,259,57.1,220.7c15.6-36.9,38-70.1,66.5-98.6c28.5-28.5,61.7-50.9,98.6-66.5
		C260.5,39.5,301.1,31.2,343,31.2 M343,13.2c-181.3,0-328.2,147-328.2,328.2s147,328.2,328.2,328.2s328.2-147,328.2-328.2
		S524.3,13.2,343,13.2L343,13.2z"/>
</g>
<g id="g2505" transform="matrix(1.3333333,0,0,-1.3333333,0,682.66667)">
	<g id="g2507">
		<g>
			<g id="g2509">
				<g id="g2515" transform="translate(256,15)">
					<g>
						<path class="st1" d="M1.3,133c-2.1,0-4.1,1.1-5.3,2.8c-4.8,7.2-10.3,14.9-16.2,23.1c-12.1,16.9-25.7,36.1-36.2,55.2
							c-12.3,22.5-18.2,41.8-18.2,58.8c0,41.8,34,75.8,75.8,75.8s75.8-34,75.8-75.8c0-17-6-36.2-18.2-58.8
							c-10.4-19.2-24.1-38.3-36.2-55.2c-5.8-8.2-11.3-15.9-16.2-23.1C5.3,134.1,3.4,133,1.3,133z M1.3,336.1
							c-34.9,0-63.2-28.4-63.2-63.2c0-14.8,5.5-32.1,16.7-52.7c10.1-18.5,23.5-37.3,35.4-53.9c3.9-5.4,7.6-10.7,11.1-15.7
							c3.5,5.1,7.2,10.3,11.1,15.7c11.9,16.6,25.3,35.4,35.4,53.9c11.2,20.6,16.7,37.9,16.7,52.7C64.5,307.8,36.1,336.1,1.3,336.1z"
							/>
					</g>
				</g>
				<g id="g2519" transform="translate(256,257)">
					<g>
						<path class="st1" d="M1.3-7c-20.9,0-37.9,17-37.9,37.9s17,37.9,37.9,37.9s37.9-17,37.9-37.9S22.2-7,1.3-7z M1.3,56.2
							C-12.7,56.2-24,44.8-24,30.9S-12.7,5.6,1.3,5.6S26.5,17,26.5,30.9S15.2,56.2,1.3,56.2z"/>
					</g>
				</g>
			</g>
		</g>
	</g>
</g>
</svg>
