<?xml version="1.0" encoding="utf-8"?>
<!-- Generator: Adobe Illustrator 26.0.0, SVG Export Plug-In . SVG Version: 6.00 Build 0)  -->
<svg version="1.1" id="Layer_1" xmlns="http://www.w3.org/2000/svg" xmlns:xlink="http://www.w3.org/1999/xlink" x="0px" y="0px"
	 viewBox="0 0 512 512" style="enable-background:new 0 0 512 512;" xml:space="preserve">
<style type="text/css">
	.st0{fill:#58815B;}
</style>
<g>
	<path class="st0" d="M372.3,341.5h-68.6v-0.8l59.3-16.3c19.8-5.5,33.5-23.3,33.8-43.8c1.5-79.3-18.2-138.4-58.4-175.9l9.9-30.8
		c2.5-7.9-1.4-16.4-9-19.6l-77.1-32.3c-3.9-1.6-8.4-1.6-12.3,0l-77.1,32.2c-7.6,3.2-11.5,11.7-9,19.6l10,30.8
		c-40.2,37.5-59.9,96.6-58.4,175.9c0.3,20.5,14.1,38.4,33.8,43.8l59.3,16.3v0.7h-68.7c-27,0-48.9,21.9-48.9,48.9v80.2
		c0,11.3,9.2,20.5,20.5,20.5h289.3c11.3,0,20.5-9.2,20.5-20.5v-80.2C421.2,363.4,399.3,341.5,372.3,341.5L372.3,341.5z M292.7,299.9
		c-0.4,0.3-0.8,0.6-1.1,1c-8.9,7.1-19,12.7-29.8,16.5c-3.8,1.4-7.9,1.4-11.6,0c-10.8-3.8-20.8-9.4-29.8-16.5c-0.3-0.4-0.7-0.7-1.1-1
		c-40.5-33.6-39.5-90.1-37.6-110.5c18.5,3.7,64.2,8.1,93.1-28.7c6.6,11.9,21.6,26.5,55.6,27.1C332.2,206.7,334.3,265.4,292.7,299.9
		L292.7,299.9z M222.4,319.3c7.3,4.5,15,8.3,23,11.2c6.8,2.5,14.3,2.5,21.2,0c8.1-2.9,15.8-6.6,23.1-11.2v26.5l-25.6,28.8
		c-4.1,4.4-11.1,4.7-15.5,0.5c-0.2-0.2-0.4-0.3-0.5-0.5l-25.6-28.8L222.4,319.3z M178.1,67.2L255.2,35c0.5-0.2,1-0.2,1.5,0
		l77.1,32.2c0.9,0.4,1.4,1.4,1.1,2.4l-11.3,34.9v0l-3,9.2c-0.3,0.8-1,1.4-1.9,1.3H193.1c-0.8,0-1.6-0.5-1.9-1.3l-2.9-8.9
		c-0.1-0.2-0.1-0.4-0.2-0.6L177,69.6C176.7,68.7,177.2,67.6,178.1,67.2L178.1,67.2z M152.8,310.9c-13.8-3.8-23.4-16.3-23.6-30.6
		c-1.4-72,15.2-126,49.3-160.9c2.5,5.9,8.2,9.7,14.6,9.7h125.7c6.4,0,12.1-3.8,14.6-9.7c34.1,34.9,50.7,88.9,49.3,160.9
		c-0.2,14.3-9.8,26.8-23.6,30.6l-55.6,15.3v-17.3c52.8-46.4,39.9-128.4,39.7-129.3c-0.6-3.5-3.6-5.9-7.1-5.8
		c-49,1.6-52.5-27.7-52.6-29.1c-0.3-3.9-3.7-6.7-7.6-6.4c-2.3,0.2-4.4,1.5-5.5,3.6c-28.9,51.8-90.1,33.1-92.7,32.3
		c-3.7-1.2-7.6,0.8-8.8,4.5c-0.1,0.3-0.2,0.7-0.2,1c-0.2,1-13.1,83,39.7,129.4v17.2L152.8,310.9z M407.2,470.6
		c0,3.6-2.9,6.5-6.5,6.5h-47V432c0-3.9-3.1-7-7-7s-7,3.1-7,7v45.1H172.3V432c0-3.9-3.1-7-7-7s-7,3.1-7,7v45.1h-47
		c-3.6,0-6.5-2.9-6.5-6.5v-80.2c0-19.3,15.7-34.9,34.9-34.9h72.5l25.3,28.4c9.1,10.2,24.7,11.1,34.9,2c0.7-0.6,1.4-1.3,2-2
		l25.3-28.4h72.5c19.3,0,34.9,15.7,34.9,34.9L407.2,470.6z"/>
	<path class="st0" d="M235.4,84.1H249v13.6c0,3.9,3.1,7,7,7c3.9,0,7-3.1,7-7V84.1h13.6c3.9,0,7-3.1,7-7s-3.1-7-7-7H263V56.5
		c0-3.9-3.1-7-7-7s-7,3.1-7,7v13.6h-13.6c-3.9,0-7,3.1-7,7S231.5,84.1,235.4,84.1L235.4,84.1z"/>
</g>
</svg>
