<?xml version="1.0" encoding="utf-8"?>
<!-- Generator: Adobe Illustrator 26.0.0, SVG Export Plug-In . SVG Version: 6.00 Build 0)  -->
<svg version="1.1" id="svg2499" xmlns:svg="http://www.w3.org/2000/svg"
	 xmlns="http://www.w3.org/2000/svg" xmlns:xlink="http://www.w3.org/1999/xlink" x="0px" y="0px" viewBox="0 0 682.7 682.7"
	 style="enable-background:new 0 0 682.7 682.7;" xml:space="preserve">
<style type="text/css">
	.st0{fill:#C8966D;}
	.st1{fill:#58815B;}
</style>
<g>
	<path class="st0" d="M343,31.2c41.9,0,82.5,8.2,120.8,24.4c36.9,15.6,70.1,38,98.6,66.5c28.5,28.5,50.9,61.7,66.5,98.6
		c16.2,38.2,24.4,78.9,24.4,120.8S645,424,628.9,462.3c-15.6,36.9-38,70.1-66.5,98.6c-28.5,28.5-61.7,50.9-98.6,66.5
		c-38.2,16.2-78.9,24.4-120.8,24.4s-82.5-8.2-120.8-24.4c-36.9-15.6-70.1-38-98.6-66.5c-28.5-28.5-50.9-61.7-66.5-98.6
		C41,424,32.8,383.4,32.8,341.5S41,259,57.1,220.7c15.6-36.9,38-70.1,66.5-98.6c28.5-28.5,61.7-50.9,98.6-66.5
		C260.5,39.5,301.1,31.2,343,31.2 M343,13.2c-181.3,0-328.2,147-328.2,328.2s147,328.2,328.2,328.2s328.2-147,328.2-328.2
		S524.3,13.2,343,13.2L343,13.2z"/>
</g>
<g>
	<path class="st1" d="M401.1,203.3H270.5c-11.1,0-20.2,9-20.2,20.2v257.3c0,11.1,9,20.2,20.2,20.2h130.6c11.1,0,20.2-9,20.2-20.2
		V223.5C421.3,212.4,412.2,203.3,401.1,203.3z M412,480.8c0,6-4.9,10.9-10.9,10.9H270.5c-6,0-10.9-4.9-10.9-10.9V223.5
		c0-6,4.9-10.9,10.9-10.9h130.6c6,0,10.9,4.9,10.9,10.9L412,480.8L412,480.8z M355.7,228.3c0,2.6-2.1,4.7-4.7,4.7h-30.4
		c-2.6,0-4.7-2.1-4.7-4.7s2.1-4.7,4.7-4.7H351C353.6,223.7,355.7,225.8,355.7,228.3z M335.8,454.6c-8.6,0-15.6,7-15.6,15.6
		c0,8.6,7,15.6,15.6,15.6c8.6,0,15.6-7,15.6-15.6C351.4,461.7,344.4,454.6,335.8,454.6z M335.8,476.6c-3.5,0-6.3-2.8-6.3-6.3
		c0-3.5,2.8-6.3,6.3-6.3c3.5,0,6.3,2.8,6.3,6.3S339.3,476.6,335.8,476.6L335.8,476.6z"/>
</g>
</svg>
