<svg width="41" height="34" viewBox="0 0 41 34" fill="none" xmlns="http://www.w3.org/2000/svg">
<g clip-path="url(#clip0_236_84)">
<path d="M28.2676 23.4733C28.1159 23.3267 27.9115 23.2455 27.6991 23.2476C27.4868 23.2497 27.284 23.3348 27.1353 23.4844L27.1129 23.5073C27.0375 23.581 26.9777 23.6687 26.937 23.7653C26.8963 23.862 26.8755 23.9657 26.8758 24.0703C26.8761 24.175 26.8975 24.2786 26.9387 24.375C26.98 24.4714 27.0402 24.5588 27.116 24.6321C27.1918 24.7054 27.2816 24.7631 27.3802 24.8018C27.4787 24.8406 27.5842 24.8596 27.6903 24.8578C27.7964 24.856 27.9011 24.8335 27.9982 24.7914C28.0954 24.7494 28.1832 24.6887 28.2564 24.6129L28.2796 24.59C28.4281 24.4404 28.5103 24.2386 28.5081 24.0292C28.5058 23.8198 28.4193 23.6198 28.2676 23.4733Z" fill="#58815B"/>
<path d="M36.8816 15.1934H34.7539V13.0942C34.7539 12.8847 34.6696 12.6839 34.5194 12.5358C34.3692 12.3876 34.1655 12.3044 33.9531 12.3044C33.7408 12.3044 33.5371 12.3876 33.3869 12.5358C33.2367 12.6839 33.1524 12.8847 33.1524 13.0942V15.1934H31.0247C30.8123 15.1934 30.6086 15.2766 30.4584 15.4247C30.3083 15.5728 30.2239 15.7737 30.2239 15.9831C30.2239 16.1926 30.3083 16.3935 30.4584 16.5416C30.6086 16.6897 30.8123 16.7729 31.0247 16.7729H33.1524V18.8752C33.1524 19.0847 33.2367 19.2856 33.3869 19.4337C33.5371 19.5818 33.7408 19.665 33.9531 19.665C34.1655 19.665 34.3692 19.5818 34.5194 19.4337C34.6696 19.2856 34.7539 19.0847 34.7539 18.8752V16.7729H36.8816C37.094 16.7729 37.2977 16.6897 37.4478 16.5416C37.598 16.3935 37.6824 16.1926 37.6824 15.9831C37.6824 15.7737 37.598 15.5728 37.4478 15.4247C37.2977 15.2766 37.094 15.1934 36.8816 15.1934Z" fill="#58815B"/>
<path d="M36.5709 9.53073C35.823 4.07902 31.2025 -8.71572e-05 25.7171 -8.71572e-05C22.9736 -0.00704133 20.3321 1.02512 18.3379 2.88333C16.3437 1.02512 13.7022 -0.00704133 10.9587 -8.71572e-05C4.916 -8.71572e-05 0 4.96355 0 11.0652C0 12.2704 0.35528 13.6198 1.06584 15.1135H0.800782C0.588401 15.1135 0.384719 15.1968 0.234544 15.3449C0.0843678 15.493 0 15.6938 0 15.9033C0 16.1128 0.0843678 16.3136 0.234544 16.4618C0.384719 16.6099 0.588401 16.6931 0.800782 16.6931H1.92188C3.41667 19.1903 5.77764 22.0237 9.00479 25.1932C11.8034 27.9149 14.7572 30.4769 17.8518 32.8666C17.9914 32.9717 18.1622 33.0287 18.3379 33.0287C18.5136 33.0287 18.6844 32.9717 18.824 32.8666C18.8584 32.8405 22.2473 30.2769 26.0038 26.7854C26.1585 26.6416 26.249 26.4431 26.2553 26.2335C26.2616 26.0239 26.1832 25.8205 26.0374 25.6679C25.8916 25.5153 25.6903 25.4261 25.4778 25.4199C25.2653 25.4136 25.059 25.4909 24.9043 25.6347C22.0399 28.2986 19.3949 30.4104 18.3379 31.2357C17.0807 30.2548 13.5813 27.4543 10.1227 24.0615C7.35358 21.3447 5.23791 18.8689 3.80051 16.6931H10.9707C11.1447 16.6932 11.3139 16.6375 11.4529 16.5343C11.5919 16.4312 11.6931 16.2862 11.7411 16.1213L13.14 11.3109L17.0142 23.5521C17.0651 23.7128 17.1667 23.8532 17.3042 23.9529C17.4417 24.0526 17.6079 24.1064 17.7786 24.1064C17.9492 24.1064 18.1154 24.0526 18.2529 23.9529C18.3904 23.8532 18.492 23.7128 18.5429 23.5521L20.689 16.7705H24.2637C24.4761 16.7705 24.6798 16.6873 24.8299 16.5391C24.9801 16.391 25.0645 16.1902 25.0645 15.9807C25.0645 15.7712 24.9801 15.5704 24.8299 15.4223C24.6798 15.2741 24.4761 15.1909 24.2637 15.1909H20.0996C19.9292 15.1909 19.7632 15.2445 19.6258 15.344C19.4885 15.4434 19.3868 15.5834 19.3357 15.7438L17.7774 20.6679L13.8703 8.32319C13.8191 8.16093 13.7161 8.01931 13.5767 7.91938C13.4373 7.81944 13.269 7.76652 13.0966 7.76847C12.9243 7.77042 12.7572 7.82714 12.6202 7.93021C12.4832 8.03328 12.3835 8.17719 12.336 8.34057L10.3661 15.1135H2.85239C2.02518 13.5719 1.60156 12.2135 1.60156 11.0652C1.60156 5.83466 5.79926 1.57943 10.9587 1.57943C13.5524 1.57943 15.9636 2.6306 17.7493 4.53945C17.8243 4.61962 17.9153 4.68359 18.0166 4.72735C18.1179 4.77111 18.2273 4.7937 18.3379 4.7937C18.4485 4.7937 18.5579 4.77111 18.6592 4.72735C18.7605 4.68359 18.8515 4.61962 18.9265 4.53945C20.7122 2.6306 23.1242 1.57943 25.7171 1.57943C30.1783 1.57943 33.9708 4.7519 34.8717 9.09242C34.5672 9.05267 34.2603 9.03289 33.9532 9.03319C32.2001 9.03304 30.51 9.67732 29.2127 10.8402C27.9155 12.0031 27.1043 13.6011 26.9376 15.3222C26.7709 17.0433 27.2607 18.7639 28.3112 20.1479C29.3618 21.532 30.8977 22.4802 32.619 22.8074C34.3404 23.1346 36.1236 22.8172 37.6205 21.9173C39.1173 21.0174 40.2203 19.5996 40.7141 17.9407C41.2079 16.2818 41.057 14.5009 40.2909 12.9458C39.5248 11.3907 38.1985 10.1731 36.5709 9.53073ZM33.9532 21.3534C32.8762 21.3534 31.8234 21.0385 30.9279 20.4484C30.0324 19.8583 29.3345 19.0195 28.9223 18.0382C28.5102 17.0569 28.4024 15.9771 28.6125 14.9354C28.8226 13.8936 29.3412 12.9367 30.1027 12.1856C30.8643 11.4346 31.8345 10.9231 32.8908 10.7159C33.9471 10.5087 35.042 10.615 36.037 11.0215C37.032 11.428 37.8824 12.1163 38.4808 12.9995C39.0791 13.8826 39.3985 14.9209 39.3985 15.9831C39.3968 17.4069 38.8225 18.7719 37.8017 19.7786C36.7809 20.7854 35.3968 21.3518 33.9532 21.3534Z" fill="#58815B"/>
</g>
<defs>
<clipPath id="clip0_236_84">
<rect width="41" height="33.0278" fill="white"/>
</clipPath>
</defs>
</svg>
