<?xml version="1.0" encoding="utf-8"?>
<!-- Generator: Adobe Illustrator 26.0.0, SVG Export Plug-In . SVG Version: 6.00 Build 0)  -->
<svg version="1.1" id="Layer_1" xmlns="http://www.w3.org/2000/svg" xmlns:xlink="http://www.w3.org/1999/xlink" x="0px" y="0px"
	 viewBox="0 0 41 43.8" style="enable-background:new 0 0 41 43.8;" xml:space="preserve">
<style type="text/css">
	.st0{fill:#568259;}
</style>
<g id="Outline">
	<path class="st0" d="M26.5,20.7c4,0,7.2-3.2,7.2-7.2s-3.2-7.2-7.2-7.2s-7.2,3.2-7.2,7.2C19.3,17.5,22.5,20.7,26.5,20.7z M32.5,13.5
		c0,3.3-2.7,6-6,6c-1.4,0-2.7-0.5-3.8-1.4l2.2-2.2c0.1,0.1,0.2,0.1,0.3,0.2L25,16.9c-0.3,0-0.5,0.2-0.6,0.4
		c-0.1,0.3,0.1,0.6,0.4,0.7c0,0,0,0,0,0l0.9,0.2c0.3,0.1,0.6-0.1,0.7-0.4c0.1-0.3-0.1-0.5-0.3-0.7l0.2-0.7c0.1,0,0.1,0,0.2,0
		c0.6,0,1.2-0.2,1.6-0.5l0.5,0.5c-0.2,0.3-0.1,0.6,0.2,0.8c0.2,0.1,0.5,0.1,0.7-0.1l0.7-0.7c0.2-0.2,0.2-0.6,0-0.8
		c-0.2-0.2-0.5-0.2-0.7-0.1L29,15.2c0.3-0.5,0.5-1.1,0.5-1.6c0-0.1,0-0.1,0-0.2l0.7-0.2c0.1,0.2,0.3,0.3,0.5,0.3c0.1,0,0.1,0,0.2,0
		c0.3-0.1,0.5-0.4,0.4-0.7L31,11.8c-0.1-0.3-0.4-0.5-0.7-0.4c-0.3,0.1-0.4,0.3-0.4,0.6l-0.7,0.2C29.1,12.1,29,12,29,11.9l2.2-2.2
		C32,10.8,32.5,12.1,32.5,13.5z M24.9,14.3c-0.1-0.2-0.2-0.5-0.2-0.8c0-1,0.8-1.8,1.8-1.8c0.3,0,0.5,0.1,0.8,0.2L24.9,14.3z
		 M28.1,12.7c0.1,0.2,0.2,0.5,0.2,0.8c0,1-0.8,1.8-1.8,1.8c-0.3,0-0.5-0.1-0.8-0.2L28.1,12.7z M26.5,7.5c1.4,0,2.7,0.5,3.8,1.4
		L28.1,11c-0.1-0.1-0.2-0.1-0.3-0.2l0.2-0.7c0,0,0,0,0,0c0.3,0,0.6-0.3,0.6-0.6c0-0.3-0.2-0.5-0.4-0.6l-0.9-0.2
		c-0.3-0.1-0.6,0.1-0.7,0.4c-0.1,0.3,0.1,0.5,0.3,0.7l-0.2,0.7c-0.1,0-0.1,0-0.2,0c-0.6,0-1.2,0.2-1.6,0.5l-0.5-0.5
		c0.1-0.2,0.1-0.5-0.1-0.7c-0.2-0.2-0.6-0.2-0.8,0l-0.7,0.7c-0.2,0.2-0.3,0.6,0,0.8c0.2,0.2,0.5,0.3,0.8,0.1l0.5,0.5
		c-0.3,0.5-0.5,1.1-0.5,1.7c0,0.1,0,0.1,0,0.2l-0.7,0.2c-0.1-0.2-0.4-0.4-0.7-0.3c-0.3,0.1-0.5,0.4-0.4,0.7l0.2,0.9
		c0.1,0.3,0.3,0.4,0.6,0.4c0.1,0,0.1,0,0.2,0c0.3-0.1,0.4-0.3,0.4-0.6l0.7-0.2c0.1,0.1,0.1,0.2,0.2,0.3l-2.2,2.2
		c-2.1-2.6-1.7-6.3,0.8-8.4C23.8,8,25.1,7.5,26.5,7.5z"/>
	<path class="st0" d="M38.2,38.8L35,36.9c0.7-0.4,1.4-0.9,2.1-1.4c0.3-0.2,0.3-0.6,0.1-0.8c-0.2-0.3-0.6-0.3-0.8-0.1l0,0
		c-7.5,6.3-26.9,2.2-27,2.2c-4.7-1.1-5.5-2.6-5.5-5.4V9.1l10.5-3.9l2.6,5.2l-3.1,4.2L8,13.5c-0.3-0.1-0.6,0.1-0.7,0.5
		c-0.1,0.3,0.1,0.6,0.5,0.7l1,0.2c1.7,4.1,2.9,8.3,3.6,12.6c-0.4,0.3-0.6,0.6-0.7,0.6c-0.2,0.2-0.2,0.6,0,0.8c0.2,0.2,0.6,0.2,0.8,0
		c0,0,0,0,0,0c0-0.1,5.1-5.2,11.6-5.3h0.2c3.6,0,7.1,1.6,10.2,4.7c0.2,0.2,0.6,0.2,0.8,0c0.2-0.2,0.2-0.6,0-0.8
		c-0.6-0.6-1.1-1.1-1.8-1.6c1.2-1.1,2.7-1.7,4.3-1.6c0.3,0,0.6-0.3,0.6-0.6c0-0.3-0.3-0.6-0.6-0.6c-2-0.1-3.9,0.7-5.3,2.1
		c-2.5-1.8-5.4-2.8-8.5-2.8c-4.7,0.1-8.6,2.5-10.7,4.2c-0.7-3.9-1.7-7.7-3.2-11.4l3.6,0.8c0.2,0,0.5,0,0.6-0.2l3.6-4.8
		c0.1-0.2,0.2-0.4,0.1-0.6l-3-6C14.9,4,14.6,3.9,14.3,4L2.9,8.2C2.7,8.2,2.5,8.5,2.5,8.7v22.7c0,3.8,1.6,5.4,6.5,6.6
		c3.6,0.7,7.3,1.2,11,1.3c0.8,0,1.6,0.1,2.4,0.1c4.6,0,8.4-0.6,11.3-1.8l3.9,2.2c0.1,0.1,0.2,0.1,0.3,0.1c0.3,0,0.6-0.3,0.6-0.6
		C38.5,39.1,38.4,38.9,38.2,38.8z"/>
	<path class="st0" d="M30.5,32.1c-7.4,2.5-11.4,0.1-11.5,0.1c-0.3-0.2-0.6-0.1-0.8,0.2c-0.2,0.3-0.1,0.6,0.2,0.8
		c0.1,0.1,2.1,1.3,5.7,1.3c2.3,0,4.6-0.4,6.8-1.2c0.3-0.1,0.5-0.5,0.4-0.8C31.1,32.2,30.8,32,30.5,32.1L30.5,32.1z"/>
</g>
</svg>
