<svg width="19" height="26" viewBox="0 0 19 26" fill="none" xmlns="http://www.w3.org/2000/svg">
<g clip-path="url(#clip0_246_883)">
<path d="M9.5 0C4.25521 0.00692709 0.00692708 4.25521 0 9.5C0 16.3202 8.85083 24.8623 9.22688 25.2225C9.29993 25.293 9.39749 25.3324 9.49901 25.3324C9.60053 25.3324 9.6981 25.293 9.77115 25.2225C10.1492 24.8623 19 16.3202 19 9.5C18.9931 4.25521 14.7448 0.00692709 9.5 0ZM9.5 13.8542C8.63883 13.8542 7.79699 13.5988 7.08095 13.1204C6.36492 12.6419 5.80683 11.9619 5.47727 11.1663C5.14772 10.3707 5.06149 9.49517 5.2295 8.65055C5.3975 7.80592 5.8122 7.03008 6.42114 6.42114C7.03008 5.8122 7.80592 5.39751 8.65054 5.2295C9.49517 5.06149 10.3706 5.14772 11.1663 5.47728C11.9619 5.80683 12.6419 6.36492 13.1204 7.08096C13.5988 7.797 13.8542 8.63883 13.8542 9.5C13.8542 10.6548 13.3954 11.7623 12.5789 12.5789C11.7623 13.3954 10.6548 13.8542 9.5 13.8542Z" fill="white"/>
</g>
<defs>
<clipPath id="clip0_246_883">
<rect width="19" height="25.3333" fill="white"/>
</clipPath>
</defs>
</svg>
