<svg width="42" height="64" viewBox="0 0 42 64" fill="none" xmlns="http://www.w3.org/2000/svg">
<g clip-path="url(#clip0_246_797)">
<path d="M21 16.4844C18.2254 16.4844 15.6331 16.2295 13.7022 15.7605C11.3355 15.1895 10.1081 14.3343 10.0508 13.2115L7.85223 5.8436C7.838 5.79604 7.8307 5.74668 7.83057 5.69703C7.83057 3.86175 9.31409 2.35018 12.1218 1.32803C14.472 0.471566 17.6251 0 21 0C24.3749 0 27.5293 0.471566 29.8782 1.32803C32.6821 2.34764 34.1695 3.86175 34.1695 5.69703C34.1693 5.74668 34.162 5.79604 34.1478 5.8436L31.948 13.2179C31.8919 14.3343 30.6646 15.1895 28.2978 15.7669C26.3657 16.2283 23.7746 16.4844 21 16.4844ZM8.85144 5.62693L11.0474 12.991C11.0616 13.0381 11.0689 13.0871 11.0691 13.1363C11.0691 14.2566 14.8658 15.4648 21 15.4648C27.1342 15.4648 30.9309 14.2566 30.9309 13.1363C30.9307 13.0871 30.9376 13.0382 30.9513 12.991L33.1486 5.62693C33.0951 3.93822 31.1578 2.8791 29.529 2.28519C27.2871 1.4695 24.2576 1.0196 21 1.0196C17.7424 1.0196 14.7129 1.4695 12.471 2.28519C10.8422 2.8791 8.9037 3.93822 8.85144 5.62693Z" fill="#58815B"/>
<path d="M21 11.8197C20.8648 11.8197 20.7351 11.766 20.6395 11.6704C20.5439 11.5748 20.4902 11.4452 20.4902 11.3099V5.17576C20.4902 5.04055 20.5439 4.91088 20.6395 4.81527C20.7351 4.71967 20.8648 4.66595 21 4.66595C21.1352 4.66595 21.2649 4.71967 21.3605 4.81527C21.4561 4.91088 21.5098 5.04055 21.5098 5.17576V11.3099C21.5098 11.4452 21.4561 11.5748 21.3605 11.6704C21.2649 11.766 21.1352 11.8197 21 11.8197Z" fill="#58815B"/>
<path d="M24.0015 8.68702H17.9985C17.8633 8.68702 17.7337 8.63331 17.6381 8.5377C17.5424 8.4421 17.4887 8.31243 17.4887 8.17722C17.4887 8.04201 17.5424 7.91234 17.6381 7.81674C17.7337 7.72113 17.8633 7.66742 17.9985 7.66742H24.0015C24.1367 7.66742 24.2663 7.72113 24.3619 7.81674C24.4575 7.91234 24.5113 8.04201 24.5113 8.17722C24.5113 8.31243 24.4575 8.4421 24.3619 8.5377C24.2663 8.63331 24.1367 8.68702 24.0015 8.68702Z" fill="#58815B"/>
<path d="M21 42.8807C18.3236 42.8807 15.7146 41.0811 13.6665 37.812C11.8108 34.8487 10.7058 31.0392 10.7058 27.6236C10.7058 22.5957 13.0101 19.0844 17.1931 17.7411C17.2922 17.7092 17.3988 17.7085 17.4983 17.7391C17.5979 17.7696 17.6858 17.8299 17.75 17.9119C19.1137 19.6465 21.2893 21.4575 23.8766 23.0099C26.4256 24.4857 28.8471 25.4582 30.88 25.8138C30.9981 25.8345 31.1052 25.8962 31.1824 25.988C31.2595 26.0799 31.3018 26.196 31.3018 26.3159V27.621C31.3018 31.0367 30.193 34.8462 28.3361 37.8094C26.2854 41.0811 23.6816 42.8807 21 42.8807ZM17.1765 18.8244C13.6079 20.1104 11.7254 23.145 11.7254 27.6185C11.7254 30.8506 12.7756 34.4575 14.5294 37.2665C16.357 40.1825 18.7148 41.8547 20.9987 41.8547C23.2827 41.8547 25.6405 40.1813 27.4668 37.2665C29.2269 34.4626 30.2708 30.8506 30.2708 27.6185V26.7391C28.1984 26.307 25.8712 25.3499 23.3464 23.888C20.7566 22.3293 18.6294 20.5858 17.1727 18.8244H17.1765Z" fill="#58815B"/>
<path d="M32.2233 47.1872C32.1651 47.1874 32.1073 47.1775 32.0525 47.1579C30.2648 46.5419 28.4029 46.1669 26.5161 46.0427C26.4747 46.1061 26.4197 46.1594 26.3551 46.1989C26.2905 46.2383 26.2179 46.2629 26.1426 46.2708C26.0173 46.284 25.8915 46.2502 25.7896 46.1761C25.6877 46.1019 25.6169 45.9927 25.5908 45.8694L24.6897 41.5883C23.3808 42.2727 22.0974 42.6194 20.8662 42.6194C19.5267 42.629 18.2082 42.2867 17.0427 41.6266L16.1505 45.8694C16.1302 45.9655 16.0825 46.0537 16.0132 46.1234C15.944 46.193 15.856 46.2412 15.76 46.2621C15.664 46.2829 15.5641 46.2756 15.4721 46.241C15.3802 46.2064 15.3002 46.1459 15.2418 46.0669C13.3555 46.2927 11.489 46.6608 9.6582 47.1681C9.53559 47.2034 9.40422 47.1914 9.29001 47.1345C9.17581 47.0777 9.08708 46.98 9.04134 46.8609C6.44517 40.1061 4.70038 32.0117 4.70038 26.7098C4.70038 20.9452 6.51527 16.4258 10.0941 13.2765C10.1526 13.2249 10.2222 13.1875 10.2975 13.1671C10.3728 13.1466 10.4518 13.1438 10.5284 13.1587C10.605 13.1736 10.6771 13.2058 10.7392 13.253C10.8014 13.3002 10.8519 13.361 10.8868 13.4307C11.4769 14.6096 15.7121 15.498 20.7413 15.498C25.7705 15.498 30.0056 14.6058 30.5957 13.4307C30.6306 13.3611 30.681 13.3004 30.743 13.2532C30.8049 13.2061 30.8769 13.1737 30.9533 13.1587C31.0297 13.1437 31.1086 13.1464 31.1838 13.1666C31.259 13.1868 31.3286 13.224 31.3872 13.2752C34.8628 16.3162 36.7784 21.0828 36.7822 26.697C37.0371 31.8422 35.435 39.7543 32.7038 46.8609C32.6664 46.9578 32.6004 47.0409 32.5145 47.0992C32.4287 47.1575 32.3271 47.1882 32.2233 47.1872ZM10.3617 14.4108C7.27997 17.3422 5.71743 21.4741 5.71743 26.7098C5.71743 31.7861 7.36154 39.5071 9.82643 46.0618C11.6189 45.5938 13.4415 45.2502 15.2813 45.0333L16.1939 40.7C16.2111 40.6174 16.2485 40.5404 16.3029 40.4758C16.3572 40.4112 16.4267 40.3612 16.5052 40.3301C16.5836 40.299 16.6685 40.2879 16.7523 40.2978C16.8361 40.3076 16.9162 40.3381 16.9853 40.3865C18.1209 41.1874 19.4792 41.6118 20.8687 41.5998C22.1037 41.5998 23.4177 41.1856 24.7827 40.3674C24.8526 40.3248 24.9316 40.2997 25.0132 40.2941C25.0947 40.2884 25.1765 40.3026 25.2514 40.3352C25.3264 40.3678 25.3924 40.418 25.444 40.4815C25.4955 40.5449 25.531 40.6199 25.5474 40.7L26.4562 45.0155C28.3139 45.1312 30.1504 45.4736 31.9251 46.0351C34.5059 39.1668 36.0035 31.6332 35.7626 26.734V26.7085C35.7626 21.6105 34.1172 17.267 31.1183 14.4083C30.4696 15.0455 29.255 15.5553 27.4923 15.9185C25.6367 16.3009 23.2393 16.5163 20.7375 16.5163C19.2782 16.5176 12.3793 16.4092 10.3617 14.4108Z" fill="#58815B"/>
<path d="M41.2289 63.6309H0.771075C0.644253 63.6315 0.521748 63.5849 0.427481 63.5C0.333214 63.4152 0.273954 63.2983 0.261273 63.1721L0.225587 62.8165C0.09436 61.7045 0.0190694 60.5866 0 59.4671C0 54.8343 1.5294 51.244 4.56145 48.7931C7.19457 46.6621 10.8894 45.3724 15.8574 44.8625C15.9286 44.8552 16.0005 44.863 16.0685 44.8853C16.1366 44.9076 16.1991 44.944 16.2521 44.9921C16.3052 45.0401 16.3475 45.0989 16.3763 45.1644C16.4051 45.2299 16.4198 45.3008 16.4194 45.3724V45.6336C16.4194 48.2425 18.8282 49.4304 21.065 49.4304C23.3018 49.4304 25.7106 48.2425 25.7106 45.6336V45.3724C25.7102 45.3008 25.7249 45.2299 25.7537 45.1644C25.7825 45.0989 25.8248 45.0401 25.8779 44.9921C25.9309 44.944 25.9934 44.9076 26.0614 44.8853C26.1295 44.863 26.2014 44.8552 26.2726 44.8625C31.1807 45.3724 34.8386 46.6609 37.4564 48.7918C40.4706 51.2465 42 54.8381 42 59.4645C41.9801 60.585 41.9039 61.7037 41.7719 62.8165L41.7362 63.1695C41.7241 63.2957 41.6655 63.4129 41.5717 63.4982C41.4779 63.5835 41.3557 63.6308 41.2289 63.6309ZM1.23245 62.6113H40.7676C40.8784 61.5152 40.9804 60.4765 40.9804 59.4671C40.9804 51.5167 36.3144 47.0878 26.7212 45.9408C26.5415 48.9027 23.7899 50.45 21.065 50.45C19.6057 50.45 18.2394 50.0319 17.2173 49.2723C16.6838 48.8897 16.2439 48.3911 15.9306 47.8141C15.6174 47.2371 15.439 46.5966 15.4088 45.9408C10.9238 46.4659 7.58075 47.6601 5.20252 49.5859C2.38842 51.8647 1.0196 55.0968 1.0196 59.4671C1.0196 60.4765 1.12156 61.5152 1.23245 62.6113Z" fill="#58815B"/>
<path d="M20.935 50.5799C19.4757 50.5799 18.1082 50.1619 17.086 49.4036C16.5111 48.9893 16.0454 48.4416 15.729 47.8076C15.4127 47.1735 15.2551 46.4721 15.2698 45.7636C15.27 45.7285 15.2734 45.6935 15.28 45.6591L16.3251 40.7C16.3416 40.6199 16.3771 40.5449 16.4286 40.4814C16.4801 40.418 16.5462 40.3678 16.6211 40.3352C16.6961 40.3025 16.7778 40.2884 16.8594 40.294C16.941 40.2996 17.02 40.3248 17.0898 40.3673C18.4523 41.1856 19.7663 41.5998 21.0038 41.5998C22.2414 41.5998 23.5528 41.1856 24.9178 40.3673C24.9885 40.3247 25.0685 40.2999 25.1509 40.2951C25.2333 40.2902 25.3156 40.3054 25.3908 40.3394C25.466 40.3734 25.5319 40.4251 25.5827 40.4901C25.6335 40.5551 25.6678 40.6315 25.6825 40.7127L26.5964 45.6718C26.6014 45.7022 26.604 45.7328 26.604 45.7636C26.6188 46.4721 26.4612 47.1735 26.1448 47.8076C25.8284 48.4416 25.3628 48.9893 24.7878 49.4036C23.7606 50.1619 22.3943 50.5799 20.935 50.5799ZM16.2894 45.8158C16.3213 48.3891 18.711 49.5603 20.935 49.5603C23.159 49.5603 25.5513 48.3865 25.5793 45.8095L24.8031 41.5972C23.5006 42.2766 22.2235 42.6168 21 42.6168C19.7765 42.6168 18.4892 42.2702 17.1765 41.5858L16.2894 45.8158Z" fill="#58815B"/>
</g>
<defs>
<clipPath id="clip0_246_797">
<rect width="42" height="63.6309" fill="white"/>
</clipPath>
</defs>
</svg>
