<svg width="50" height="50" viewBox="0 0 50 50" fill="none" xmlns="http://www.w3.org/2000/svg">
<g clip-path="url(#clip0_246_896)">
<path d="M35.2258 39.384C35.2988 39.384 35.371 39.3696 35.4384 39.3417C35.5058 39.3138 35.5671 39.2729 35.6187 39.2213C35.6702 39.1697 35.7112 39.1085 35.7391 39.0411C35.767 38.9737 35.7814 38.9014 35.7814 38.8285V28.2517C35.7835 27.2235 35.4586 26.2213 34.8537 25.39C34.2488 24.5586 33.3951 23.9411 32.4162 23.6269L29.4739 22.6746C30.064 21.6972 30.3742 20.5764 30.3706 19.4346C30.3706 16.3012 28.0617 13.9383 25.0002 13.9383C21.9387 13.9383 19.6298 16.3012 19.6298 19.4346C19.6298 20.5457 19.9605 21.7068 20.535 22.6717L17.5835 23.6269C16.6047 23.9414 15.7512 24.5589 15.1464 25.3902C14.5415 26.2215 14.2166 27.2236 14.2186 28.2517V36.6462C14.2186 36.7936 14.2772 36.9349 14.3813 37.0391C14.4855 37.1433 14.6268 37.2018 14.7742 37.2018C14.9215 37.2018 15.0628 37.1433 15.167 37.0391C15.2712 36.9349 15.3297 36.7936 15.3297 36.6462V28.2517C15.3283 27.4585 15.579 26.6854 16.0457 26.044C16.5124 25.4026 17.1709 24.9262 17.9261 24.6835L21.232 23.6135C22.1816 24.6698 23.3402 25.2472 24.5283 25.2472C24.6757 25.2472 24.817 25.1887 24.9212 25.0845C25.0254 24.9803 25.0839 24.839 25.0839 24.6917C25.0839 24.5443 25.0254 24.403 24.9212 24.2988C24.817 24.1947 24.6757 24.1361 24.5283 24.1361C23.3098 24.1361 22.3983 23.3143 21.8483 22.6243C21.3127 21.9531 20.7409 20.7624 20.7409 19.4346C20.7409 16.8935 22.5324 15.0486 25.0002 15.0486C27.468 15.0486 29.2595 16.8935 29.2595 19.4346C29.2595 20.6146 28.8672 21.7461 28.1546 22.6198C28.1502 22.625 28.1469 22.6306 28.1428 22.6361C28.1387 22.6417 28.1321 22.6498 28.1272 22.6572C28.1224 22.6646 28.115 22.6761 28.1091 22.6857C28.1032 22.6954 28.1024 22.6969 28.0995 22.7024C28.0928 22.7146 28.0865 22.7269 28.0809 22.7394C28.0791 22.7431 28.0772 22.7465 28.0758 22.7502C28.0695 22.765 28.0639 22.7798 28.0587 22.795C28.0583 22.7967 28.0577 22.7983 28.0569 22.7998C28.0569 22.7998 28.0569 22.7998 28.0569 22.802C28.0521 22.8172 28.048 22.8324 28.0443 22.8476L28.0421 22.8576C28.0395 22.8706 28.0372 22.8839 28.0358 22.8972C28.0358 22.9028 28.0339 22.9083 28.0332 22.9139C28.0324 22.9194 28.0332 22.9346 28.0332 22.9454C28.0332 22.9561 28.0332 22.9617 28.0332 22.9694C28.0332 22.9772 28.0332 22.9857 28.0332 22.9939C28.0332 23.002 28.0332 23.0139 28.0332 23.0239C28.0332 23.0339 28.0332 23.038 28.0361 23.0446C28.0391 23.0513 28.0387 23.0661 28.0409 23.0769C28.0432 23.0876 28.0443 23.0913 28.0461 23.0987C28.048 23.1061 28.0506 23.1183 28.0535 23.1283C28.0565 23.1383 28.0591 23.1454 28.0621 23.1539C28.065 23.1624 28.0676 23.1698 28.0709 23.178C28.0743 23.1861 28.0791 23.1965 28.0832 23.2057C28.0872 23.215 28.0895 23.2194 28.0932 23.2265C28.0969 23.2335 28.1028 23.2435 28.1076 23.252C28.1124 23.2606 28.1158 23.2661 28.1202 23.2732L28.135 23.2939C28.1409 23.302 28.1465 23.3102 28.1528 23.318C28.1591 23.3257 28.1613 23.328 28.1654 23.3328C28.1695 23.3376 28.1817 23.3513 28.1902 23.3602L28.2006 23.3702C28.2109 23.3798 28.2213 23.3895 28.2324 23.3987L28.2354 23.4013L28.2428 23.4069C28.2537 23.4155 28.2648 23.4236 28.2761 23.4313C28.2813 23.435 28.2872 23.4383 28.2928 23.4417C28.2984 23.445 28.3117 23.4535 28.3213 23.4587C28.3309 23.4639 28.338 23.4672 28.3461 23.4709L28.3695 23.482L28.4009 23.4939L28.415 23.4991L32.0747 24.6843C32.8298 24.9269 33.4883 25.4034 33.955 26.0448C34.4217 26.6861 34.6724 27.4593 34.671 28.2525V38.8296C34.6713 38.9766 34.7298 39.1175 34.8338 39.2214C34.9378 39.3254 35.0788 39.3838 35.2258 39.384Z" fill="#58815B"/>
<path d="M24.9969 28.0391C24.9162 28.0391 24.8365 28.0566 24.7634 28.0905C24.6902 28.1244 24.6253 28.1739 24.5731 28.2354C23.4031 29.6157 19.585 34.3669 19.585 37.5384C19.585 40.5251 22.015 42.9544 25.002 42.9544C27.9891 42.9544 30.418 40.5251 30.418 37.5384C30.418 34.435 26.5943 29.635 25.4224 28.2376C25.3703 28.1754 25.3052 28.1254 25.2316 28.0912C25.1581 28.0569 25.078 28.0391 24.9969 28.0391ZM25.0006 41.844C23.8589 41.8428 22.7643 41.3888 21.957 40.5817C21.1496 39.7745 20.6953 38.6801 20.6939 37.5384C20.6939 35.4562 22.842 32.0976 24.9935 29.4643C27.1509 32.1284 29.3058 35.5013 29.3058 37.5384C29.3045 38.6799 28.8505 39.7743 28.0433 40.5815C27.2361 41.3887 26.1417 41.8427 25.0002 41.844H25.0006Z" fill="#58815B"/>
<path d="M39.6563 19.4253C39.6563 17.679 37.6896 15.1449 36.844 14.1368C36.792 14.0748 36.7272 14.025 36.6539 13.9907C36.5807 13.9564 36.5008 13.9385 36.4199 13.9383C36.3393 13.9383 36.2596 13.9558 36.1865 13.9897C36.1133 14.0236 36.0484 14.0731 35.9962 14.1346C35.1485 15.1312 33.1855 17.6424 33.1855 19.4253C33.1855 20.2835 33.5264 21.1065 34.1332 21.7132C34.7399 22.32 35.5629 22.6609 36.4211 22.6609C37.2792 22.6609 38.1022 22.32 38.709 21.7132C39.3157 21.1065 39.6566 20.2835 39.6566 19.4253H39.6563ZM34.2955 19.4253C34.2955 18.4057 35.3599 16.7098 36.4166 15.3727C37.4766 16.7246 38.5459 18.429 38.5459 19.4253C38.5459 19.989 38.322 20.5295 37.9234 20.9281C37.5249 21.3266 36.9843 21.5505 36.4207 21.5505C35.857 21.5505 35.3165 21.3266 34.9179 20.9281C34.5194 20.5295 34.2955 19.989 34.2955 19.4253Z" fill="#58815B"/>
<path d="M18.0675 18.3283C18.0675 16.1294 15.5579 12.9001 14.479 11.6134C14.427 11.5515 14.3622 11.5016 14.2889 11.4673C14.2157 11.433 14.1358 11.4151 14.0549 11.4149C13.9743 11.4164 13.8949 11.4346 13.8217 11.4684C13.7485 11.5022 13.6831 11.5508 13.6297 11.6112C12.552 12.8827 10.0456 16.0831 10.0456 18.3283C10.0558 19.3854 10.4829 20.3957 11.234 21.1397C11.9851 21.8836 12.9995 22.3009 14.0566 22.3009C15.1137 22.3009 16.1281 21.8836 16.8792 21.1397C17.6303 20.3957 18.0574 19.3854 18.0675 18.3283ZM14.0572 21.2283C13.2881 21.2276 12.5508 20.9219 12.0069 20.3782C11.463 19.8346 11.157 19.0973 11.156 18.3283C11.156 16.9298 12.5823 14.669 14.0509 12.8468C15.4746 14.6335 16.9568 16.9631 16.9568 18.3283C16.956 19.0971 16.6503 19.8342 16.1067 20.3779C15.5631 20.9216 14.826 21.2274 14.0572 21.2283Z" fill="#58815B"/>
<path d="M48.1515 15.5893C48.1255 15.5197 48.0859 15.4559 48.0349 15.4018C47.9839 15.3477 47.9225 15.3044 47.8544 15.2745C47.7864 15.2445 47.713 15.2286 47.6386 15.2275C47.5643 15.2264 47.4905 15.2403 47.4216 15.2683C47.3527 15.2963 47.2901 15.3379 47.2376 15.3905C47.1851 15.4431 47.1436 15.5057 47.1157 15.5747C47.0879 15.6436 47.0741 15.7174 47.0753 15.7918C47.0764 15.8661 47.0925 15.9395 47.1226 16.0075C48.8917 20.3581 49.3385 25.1339 48.4072 29.7372C47.476 34.3405 45.2079 38.567 41.8868 41.8879C38.5657 45.2087 34.339 47.4765 29.7356 48.4075C25.1323 49.3384 20.3566 48.8912 16.006 47.1218C15.2001 46.7965 14.4129 46.4264 13.6482 46.0133C12.4593 45.3724 11.3274 44.6309 10.2649 43.797C10.1578 43.7131 10.0236 43.6714 9.88782 43.6799C9.75204 43.6884 9.62408 43.7464 9.52821 43.8429L8.49783 44.8799L7.51116 39.6577L12.9501 40.3958L11.9938 41.3555C11.9379 41.4117 11.8946 41.4792 11.867 41.5535C11.8393 41.6277 11.8279 41.7071 11.8334 41.7862C11.839 41.8652 11.8614 41.9422 11.8991 42.0119C11.9369 42.0816 11.9891 42.1424 12.0523 42.1903C15.4343 44.7491 19.4968 46.2519 23.7298 46.51C25.141 46.5977 26.5575 46.5481 27.9591 46.3618C32.6999 45.7322 37.0014 43.6084 40.3944 40.2136C43.7874 36.8188 45.9129 32.5206 46.5407 27.7787C46.7098 26.507 46.7663 25.2229 46.7096 23.9413C46.7076 23.868 46.6909 23.7959 46.6604 23.7292C46.6299 23.6625 46.5864 23.6027 46.5323 23.5532C46.4782 23.5038 46.4147 23.4657 46.3456 23.4413C46.2765 23.4169 46.2031 23.4067 46.13 23.4113C45.9829 23.418 45.8445 23.4828 45.7452 23.5915C45.6459 23.7002 45.5938 23.8438 45.6003 23.9909C45.6539 25.2072 45.6001 26.4259 45.4396 27.6328C44.844 32.1306 42.8277 36.2095 39.6092 39.4284C36.3906 42.6473 32.311 44.6644 27.8124 45.2596C26.4821 45.4365 25.1378 45.484 23.7983 45.4014C20.0001 45.1697 16.3422 43.8814 13.2371 41.6818L14.5268 40.3884C14.5996 40.3151 14.6506 40.223 14.674 40.1223C14.6974 40.0217 14.6922 39.9165 14.6591 39.8186C14.626 39.7207 14.5662 39.634 14.4865 39.5682C14.4068 39.5024 14.3103 39.4602 14.2079 39.4462L6.89745 38.4536C6.81025 38.4417 6.72148 38.4508 6.63845 38.48C6.55543 38.5091 6.48052 38.5576 6.41991 38.6214C6.35929 38.6852 6.3147 38.7625 6.2898 38.8469C6.2649 38.9313 6.26042 39.0204 6.27671 39.1069L7.60264 46.1244C7.62152 46.2237 7.66715 46.3161 7.73463 46.3914C7.80211 46.4667 7.88887 46.5222 7.98556 46.5518C8.08225 46.5815 8.18519 46.5842 8.2833 46.5596C8.38141 46.5351 8.47095 46.4842 8.54228 46.4125L9.97155 44.9722C14.3404 48.2596 19.6668 50.0237 25.1342 49.994C30.6017 49.9644 35.9086 48.1427 40.2416 44.8081C44.5745 41.4735 47.6945 36.81 49.1232 31.5324C50.5519 26.2548 50.2105 20.6544 48.1515 15.5893Z" fill="#58815B"/>
<path d="M10.5701 10.388C13.7875 7.17054 17.8679 5.15312 22.3702 4.55274C27.5042 3.87256 32.7061 5.15043 36.9406 8.13202L35.471 9.61351C35.3983 9.68689 35.3475 9.77908 35.3243 9.87972C35.3011 9.98037 35.3065 10.0855 35.3397 10.1833C35.3729 10.2811 35.4328 10.3676 35.5125 10.4333C35.5922 10.499 35.6887 10.5411 35.791 10.555L43.0981 11.5446C43.1852 11.5564 43.2739 11.5472 43.3568 11.518C43.4398 11.4887 43.5146 11.4402 43.5751 11.3765C43.6356 11.3127 43.6801 11.2354 43.705 11.1511C43.7299 11.0668 43.7344 10.9777 43.7181 10.8913L42.3962 3.87718C42.3773 3.77774 42.3316 3.68535 42.2641 3.60998C42.1965 3.53462 42.1096 3.47915 42.0128 3.44957C41.916 3.41998 41.813 3.4174 41.7148 3.44211C41.6167 3.46682 41.5271 3.51788 41.4559 3.58977L40.0266 5.02904C38.955 4.21697 37.8174 3.49582 36.6258 2.8731C35.951 2.51495 35.2284 2.17828 34.4147 1.84346C29.8615 -0.0129161 24.8614 -0.482793 20.042 0.492826C15.2227 1.46844 10.799 3.84608 7.32638 7.3272C0.207071 14.4465 -1.94442 25.0781 1.84597 34.4118C1.87166 34.4818 1.91116 34.5459 1.96214 34.6003C2.01311 34.6547 2.07451 34.6982 2.14267 34.7284C2.21084 34.7586 2.28438 34.7747 2.35891 34.7759C2.43344 34.777 2.50744 34.7632 2.57651 34.7351C2.64558 34.7071 2.70829 34.6654 2.76092 34.6126C2.81355 34.5598 2.85502 34.497 2.88286 34.4279C2.9107 34.3587 2.92434 34.2847 2.92296 34.2101C2.92159 34.1356 2.90523 34.0621 2.87487 33.994C-0.747009 25.0747 1.30856 14.9154 8.11082 8.11239C11.429 4.78619 15.6558 2.51428 20.2606 1.58183C24.8655 0.649387 29.6432 1.09796 33.994 2.87125C34.7614 3.18718 35.4717 3.51755 36.1095 3.85607C37.3874 4.52422 38.6001 5.31023 39.7318 6.20386C39.8389 6.28814 39.9732 6.3301 40.1093 6.32177C40.2453 6.31344 40.3735 6.25539 40.4696 6.15868L41.4999 5.12163L42.4836 10.3417L37.0451 9.60463L38.1829 8.45832C38.2386 8.40209 38.2817 8.33458 38.3092 8.26034C38.3367 8.18609 38.3481 8.10682 38.3425 8.02784C38.3369 7.94885 38.3144 7.87198 38.2767 7.80237C38.2389 7.73277 38.1867 7.67203 38.1236 7.62424C33.5747 4.20341 27.8643 2.70567 22.222 3.45347C17.4764 4.08496 13.1753 6.21127 9.7838 9.60166C6.3923 12.9921 4.26191 17.2984 3.63561 22.0414C3.45166 23.4422 3.40279 24.8575 3.48968 26.2677C3.49225 26.3419 3.50967 26.4149 3.54091 26.4822C3.57215 26.5496 3.61658 26.61 3.67157 26.6599C3.72656 26.7098 3.791 26.7482 3.86107 26.7728C3.93115 26.7973 4.00544 26.8076 4.07956 26.803C4.15367 26.7984 4.2261 26.7789 4.29258 26.7458C4.35905 26.7127 4.41821 26.6666 4.46656 26.6103C4.51492 26.5539 4.55148 26.4884 4.57409 26.4177C4.5967 26.3469 4.6049 26.2724 4.59821 26.1984C4.51582 24.8601 4.56208 23.5168 4.73636 22.1873C5.33303 17.6895 7.34934 13.6095 10.5701 10.388Z" fill="#58815B"/>
</g>
<defs>
<clipPath id="clip0_246_896">
<rect width="50" height="50.0004" fill="white"/>
</clipPath>
</defs>
</svg>
