<?xml version="1.0" encoding="utf-8"?>
<!-- Generator: Adobe Illustrator 26.0.0, SVG Export Plug-In . SVG Version: 6.00 Build 0)  -->
<svg version="1.1" id="Layer_1" xmlns="http://www.w3.org/2000/svg" xmlns:xlink="http://www.w3.org/1999/xlink" x="0px" y="0px"
	 viewBox="0 0 41 43.8" style="enable-background:new 0 0 41 43.8;" xml:space="preserve">
<style type="text/css">
	.st0{fill:#568259;}
</style>
<g>
	<path class="st0" d="M6.5,27.3c0.2,0.6,0.4,1,0.5,1.4c0,1.3,1.1,2.2,1,3.6c-0.1,1.9,1.3,2.9,3.2,2.7c0.6-0.1,1.1-0.2,1.7-0.2
		c1.7-0.1,2.9,0.9,3.1,2.6c0.1,1.2,0.1,2.5,0.3,3.7c0,0.2,0.3,0.4,0.4,0.7c0.1-0.2,0.4-0.5,0.4-0.7c-0.1-1.4-0.1-2.8-0.4-4.1
		c-0.4-2.1-2.1-3.2-4.2-3c-0.7,0.1-1.4,0.2-2.1,0.2c-1,0-1.6-0.5-1.7-1.5c-0.1-0.5,0-1.1,0-1.6c0-0.4,0-0.9-0.3-1
		c-0.8-0.6-0.5-1.6-0.8-2.4c-0.2-0.4-0.4-0.9-0.8-1.1c-1.4-0.6-1.5-0.6-0.5-1.8c1.8-2.2,2.5-4.6,2.1-7.6c-0.5-4.4,1.2-7.9,5.1-10.2
		c4-2.4,8.1-2.3,12.4-1.1c3.2,1,5.9,2.8,7.5,5.8c2.6,4.6,2.3,9.3-0.6,13.7c-1.3,1.9-2.5,3.9-2.6,6.2c-0.1,3.1-0.1,6.3-0.1,9.4
		c0,0.3,0.2,0.6,0.4,0.9c0.1,0,0.2,0,0.3-0.1c0-0.4,0.1-0.8,0.1-1.2c0-1.9,0.1-3.7,0-5.6c-0.2-3.6,0.7-6.7,2.9-9.8
		c3.1-4.4,3.5-12.6-2.5-17.4C28.2,5,24.3,4,20.1,4.1C11.7,4.1,6.4,10.4,7.7,18.6c0.2,1.3,0,2.5-0.8,3.6c-0.4,0.7-0.9,1.3-1.4,2
		C4.4,25.9,4.7,26.6,6.5,27.3z M29.8,24.7c0.1-0.1,0.3-0.2,0.3-0.3c0-0.2-0.1-0.5-0.3-0.7c-1.2-1-2.5-1.9-3.8-2.9
		c-0.2-0.1-0.5-0.1-0.8-0.1c0.1,0.3,0.1,0.6,0.3,0.8c1.2,1,2.4,1.9,3.7,2.8C29.4,24.5,29.6,24.6,29.8,24.7z M19.7,18.1
		c-0.1-1.5-0.9-1.7-1.8-1.9c-0.3-0.1-0.7,0.1-1,0.2c0.2,0.2,0.5,0.4,0.8,0.6c0.3,0.2,0.7,0.4,1,0.6c-0.2,0.3-0.5,0.7-0.7,1
		c-0.1,0.1-0.3,0.2-0.4,0.4c-0.1,0.2-0.1,0.4-0.1,0.6c0,0.1,0.4,0.2,0.5,0.1C18.7,19.1,19.3,18.5,19.7,18.1z M23,21.8
		c0.1-0.3,0.3-0.5,0.2-0.6c-0.3-0.7-0.6-1.5-1.1-2c-0.2-0.2-1.1-0.3-1.3-0.1c-0.5,0.5-0.8,1.2-1.2,1.9c0,0.1,0.2,0.4,0.3,0.4
		c0.2-0.1,0.4-0.2,0.5-0.3c0.3-0.5,0.6-0.9,1-1.6C21.9,20.3,22.3,20.9,23,21.8z M22.1,13.4c-0.3-0.4-0.5-0.6-0.6-0.8
		c-0.2,0.2-0.4,0.4-0.5,0.6c-0.1,0.2-0.1,0.4-0.1,0.7c-0.1,0.8-0.5,0.9-1.1,0.4c-0.2-0.1-0.3-0.4-0.5-0.4c-0.2-0.1-0.5-0.1-0.7-0.2
		c0.1,0.3,0,0.7,0.2,0.8c0.7,0.4,1.5,1,2.2,0.9C21.4,15.2,21.7,14.1,22.1,13.4z M24.6,13.7c-0.3,0-0.5-0.2-0.7-0.1
		c-0.7,0.3-1.3,1.8-0.9,2.5c0.3,0.6,2,1,2.6,0.6c0.1-0.1,0.2-0.3,0.3-0.4c-0.2-0.1-0.4-0.3-0.6-0.3c-0.5-0.1-1-0.1-1.8-0.2
		C23.9,14.9,24.2,14.4,24.6,13.7z M12.2,11.2c-0.2,0.1-0.4,0.2-0.5,0.3c0,0.1,0,0.4,0.1,0.5c1,0.6,2,1.2,3.1,1.8
		c0.1,0.1,0.4,0,0.5-0.1c0.1-0.1,0.1-0.4,0-0.5C14.5,12.5,13.4,11.9,12.2,11.2z M30.2,20.2c-0.2-0.2-0.3-0.4-0.4-0.4
		c-1-0.3-2-0.5-3-0.8c-0.1,0-0.3,0.2-0.4,0.3c0.1,0.2,0.2,0.5,0.3,0.5c0.9,0.3,1.8,0.5,2.8,0.7C29.7,20.5,29.9,20.3,30.2,20.2z
		 M25.3,27.8c0.6-0.8,0-3.6-0.5-3.9c-0.1-0.1-0.6,0.3-0.6,0.3C24.5,25.4,24.9,26.5,25.3,27.8z M21.3,8.8C21.3,8.8,21.3,8.8,21.3,8.8
		c0,0.4-0.1,0.8,0,1.1c0,0.2,0.2,0.3,0.3,0.5c0.2-0.1,0.5-0.2,0.5-0.4c0-0.9,0-1.8,0-2.6c0-0.1-0.3-0.3-0.4-0.3
		c-0.2,0.1-0.4,0.2-0.4,0.4C21.2,8,21.3,8.4,21.3,8.8z M30.1,12.1c-0.5,0-0.8-0.1-0.9,0c-0.7,0.4-1.4,0.9-2.1,1.4
		c-0.1,0.1-0.1,0.4-0.2,0.6c0.2,0,0.5,0.1,0.7,0c0.7-0.4,1.4-0.9,2-1.3C29.7,12.6,29.8,12.5,30.1,12.1z M18.1,11.5
		c-0.6-0.8-1.2-1.6-1.8-2.4c-0.1-0.1-0.4,0-0.4,0c-0.1,0.2-0.2,0.5-0.1,0.6c0.5,0.7,0.9,1.4,1.5,2.1c0.1,0.1,0.4,0.1,0.6,0.1
		C17.9,11.9,18,11.7,18.1,11.5z M26.9,16.4c0,0.1,0,0.3,0,0.4c0.5,0.4,2.7,0.6,3,0.3c0.1-0.1-0.1-0.7-0.1-0.7
		C28.8,16.3,27.9,16.4,26.9,16.4z M20.8,23.9c0.2,0.6,0.4,1.2,0.6,1.8c0.9-0.4,0.4-1.2,0.5-1.8c0-0.4-0.3-0.9-0.5-1.4
		C21.2,23,21,23.4,20.8,23.9z M27.5,9.8c-0.5-0.1-0.9-0.2-1-0.1c-0.5,0.6-0.9,1.3-1.3,2c0,0.1,0.3,0.3,0.5,0.5
		C26.2,11.5,26.8,10.8,27.5,9.8z M17.6,20.7c-0.5-0.2-0.8-0.4-1-0.3c-0.6,0.5-1.2,1-1.7,1.5c0,0,0.2,0.4,0.4,0.6
		C16,22,16.7,21.5,17.6,20.7z M15.6,17.1c0-0.2,0-0.5,0-0.7c-0.7,0-1.4,0-2.1,0c0,0,0,0.5,0,0.7C14.2,17.1,14.9,17.1,15.6,17.1z"/>
	<path class="st0" d="M6.5,27.3c-1.9-0.7-2.1-1.3-0.9-3c0.5-0.7,0.9-1.3,1.4-2c0.7-1.1,1-2.3,0.8-3.6c-1.4-8.2,4-14.5,12.3-14.5
		c4.2,0,8.1,0.9,11.4,3.7c5.9,4.9,5.5,13,2.5,17.4c-2.1,3-3.1,6.2-2.9,9.8c0.1,1.8,0,3.7,0,5.6c0,0.4-0.1,0.8-0.1,1.2
		c-0.1,0-0.2,0-0.3,0.1c-0.1-0.3-0.4-0.6-0.4-0.9c0-3.1-0.1-6.3,0.1-9.4c0.1-2.3,1.3-4.3,2.6-6.2c2.9-4.4,3.2-9.1,0.6-13.7
		c-1.6-3-4.3-4.8-7.5-5.8c-4.3-1.3-8.4-1.3-12.4,1.1c-3.9,2.3-5.7,5.9-5.1,10.2c0.4,3-0.3,5.4-2.1,7.6c-0.9,1.2-0.9,1.2,0.5,1.8
		c0.3,0.1,0.6,0.7,0.8,1.1c0.3,0.8,0,1.8,0.8,2.4c0.2,0.2,0.2,0.7,0.3,1c0,0.5,0,1.1,0,1.6c0.1,1,0.7,1.5,1.7,1.5
		c0.7,0,1.4-0.1,2.1-0.2c2.1-0.2,3.8,0.9,4.2,3c0.3,1.4,0.3,2.8,0.4,4.1c0,0.2-0.3,0.5-0.4,0.7c-0.2-0.2-0.4-0.4-0.4-0.7
		c-0.1-1.2-0.1-2.5-0.3-3.7c-0.2-1.7-1.3-2.7-3.1-2.6c-0.6,0-1.1,0.1-1.7,0.2c-1.9,0.2-3.3-0.8-3.2-2.7C8,30.8,7,29.9,7,28.7
		C6.9,28.2,6.7,27.8,6.5,27.3z"/>
	<path class="st0" d="M29.8,24.7c-0.2-0.1-0.4-0.2-0.5-0.3c-1.2-0.9-2.5-1.8-3.7-2.8c-0.2-0.2-0.2-0.5-0.3-0.8c0.3,0,0.6,0,0.8,0.1
		c1.3,0.9,2.5,1.9,3.8,2.9c0.2,0.1,0.2,0.4,0.3,0.7C30.1,24.5,29.9,24.6,29.8,24.7z"/>
	<path class="st0" d="M19.7,18.1c-0.5,0.4-1.1,1-1.7,1.5c-0.1,0.1-0.4,0-0.5-0.1c-0.1-0.2,0-0.4,0.1-0.6c0.1-0.2,0.3-0.2,0.4-0.4
		c0.3-0.3,0.5-0.6,0.7-1c-0.3-0.2-0.7-0.4-1-0.6c-0.3-0.2-0.5-0.4-0.8-0.6c0.3-0.1,0.7-0.2,1-0.2C18.8,16.3,19.6,16.6,19.7,18.1z"/>
	<path class="st0" d="M23,21.8c-0.6-0.9-1-1.5-1.6-2.4c-0.4,0.7-0.7,1.2-1,1.6c-0.1,0.2-0.3,0.3-0.5,0.3c-0.1,0-0.3-0.3-0.3-0.4
		c0.4-0.7,0.7-1.4,1.2-1.9c0.2-0.2,1.1-0.2,1.3,0.1c0.5,0.6,0.7,1.3,1.1,2C23.2,21.3,23.1,21.5,23,21.8z"/>
	<path class="st0" d="M22.1,13.4c-0.4,0.7-0.7,1.8-1.3,1.9c-0.6,0.1-1.5-0.5-2.2-0.9c-0.1-0.1-0.1-0.5-0.2-0.8
		c0.2,0,0.5,0.1,0.7,0.2c0.2,0.1,0.3,0.3,0.5,0.4c0.6,0.5,1,0.4,1.1-0.4c0-0.2,0-0.5,0.1-0.7c0.1-0.2,0.3-0.4,0.5-0.6
		C21.6,12.8,21.8,13,22.1,13.4z"/>
	<path class="st0" d="M24.6,13.7c-0.4,0.7-0.7,1.2-1.1,2c0.7,0.1,1.2,0.1,1.8,0.2c0.2,0,0.4,0.2,0.6,0.3c-0.1,0.2-0.2,0.4-0.3,0.4
		c-0.7,0.4-2.3,0-2.6-0.6c-0.3-0.7,0.2-2.2,0.9-2.5C24,13.6,24.3,13.7,24.6,13.7z"/>
	<path class="st0" d="M12.2,11.2c1.1,0.7,2.2,1.3,3.3,2c0.1,0,0.1,0.4,0,0.5c-0.1,0.1-0.4,0.2-0.5,0.1c-1-0.6-2.1-1.1-3.1-1.8
		c-0.1-0.1-0.2-0.4-0.1-0.5C11.8,11.4,12.1,11.3,12.2,11.2z"/>
	<path class="st0" d="M30.2,20.2c-0.3,0.1-0.5,0.3-0.7,0.3c-0.9-0.2-1.9-0.4-2.8-0.7c-0.2,0-0.2-0.3-0.3-0.5
		c0.1-0.1,0.3-0.3,0.4-0.3c1,0.2,2,0.5,3,0.8C30,19.8,30,19.9,30.2,20.2z"/>
	<path class="st0" d="M25.3,27.8c-0.4-1.3-0.8-2.4-1.1-3.5c0-0.1,0.5-0.4,0.6-0.3C25.3,24.2,25.9,27,25.3,27.8z"/>
	<path class="st0" d="M21.3,8.8c0-0.4,0-0.8,0-1.3c0-0.2,0.3-0.3,0.4-0.4c0.1,0,0.4,0.2,0.4,0.3c0,0.9,0,1.8,0,2.6
		c0,0.1-0.3,0.3-0.5,0.4c-0.1-0.2-0.3-0.3-0.3-0.5C21.2,9.6,21.3,9.2,21.3,8.8C21.3,8.8,21.3,8.8,21.3,8.8z"/>
	<path class="st0" d="M30.1,12.1c-0.3,0.4-0.4,0.6-0.5,0.7c-0.7,0.5-1.3,0.9-2,1.3c-0.2,0.1-0.5,0-0.7,0c0.1-0.2,0-0.5,0.2-0.6
		c0.7-0.5,1.4-1,2.1-1.4C29.3,11.9,29.6,12,30.1,12.1z"/>
	<path class="st0" d="M18.1,11.5c-0.1,0.2-0.2,0.4-0.2,0.4c-0.2,0-0.5,0-0.6-0.1c-0.5-0.7-1-1.3-1.5-2.1c-0.1-0.1,0-0.4,0.1-0.6
		c0-0.1,0.3-0.1,0.4,0C16.9,9.9,17.5,10.7,18.1,11.5z"/>
	<path class="st0" d="M26.9,16.4c1,0,1.9,0,2.9,0c0.1,0,0.2,0.6,0.1,0.7c-0.3,0.4-2.5,0.1-3-0.3C26.9,16.6,26.9,16.5,26.9,16.4z"/>
	<path class="st0" d="M20.8,23.9c0.2-0.5,0.4-0.9,0.6-1.4c0.2,0.5,0.5,0.9,0.5,1.4c0,0.6,0.5,1.4-0.5,1.8
		C21.2,25.1,21,24.6,20.8,23.9z"/>
	<path class="st0" d="M27.5,9.8c-0.7,1-1.3,1.7-1.8,2.4c-0.2-0.2-0.5-0.4-0.5-0.5c0.4-0.7,0.8-1.4,1.3-2C26.6,9.6,27,9.8,27.5,9.8z"
		/>
	<path class="st0" d="M17.6,20.7c-0.9,0.8-1.6,1.3-2.3,1.8c-0.1-0.2-0.4-0.5-0.4-0.6c0.5-0.5,1.1-1.1,1.7-1.5
		C16.7,20.4,17.1,20.6,17.6,20.7z"/>
	<path class="st0" d="M15.6,17.1c-0.7,0-1.4,0-2.1,0c0-0.2,0-0.7,0-0.7c0.7,0,1.4,0,2.1,0C15.6,16.6,15.6,16.9,15.6,17.1z"/>
</g>
</svg>
