<svg width="29" height="40" viewBox="0 0 29 40" fill="none" xmlns="http://www.w3.org/2000/svg">
<g clip-path="url(#clip0_236_76)">
<path d="M15.6919 4.97567H15.1564V5.48599C15.1564 5.6439 15.0906 5.79534 14.9734 5.90699C14.8563 6.01865 14.6974 6.08137 14.5317 6.08137C14.366 6.08137 14.2071 6.01865 14.0899 5.90699C13.9728 5.79534 13.907 5.6439 13.907 5.48599V4.97567H13.3715C13.2058 4.97567 13.0469 4.91294 12.9298 4.80128C12.8126 4.68963 12.7468 4.53819 12.7468 4.38029C12.7468 4.22238 12.8126 4.07094 12.9298 3.95929C13.0469 3.84763 13.2058 3.78491 13.3715 3.78491H13.907V3.27458C13.907 3.11668 13.9728 2.96524 14.0899 2.85358C14.2071 2.74193 14.366 2.6792 14.5317 2.6792C14.6974 2.6792 14.8563 2.74193 14.9734 2.85358C15.0906 2.96524 15.1564 3.11668 15.1564 3.27458V3.78491H15.6919C15.8575 3.78491 16.0164 3.84763 16.1336 3.95929C16.2508 4.07094 16.3166 4.22238 16.3166 4.38029C16.3166 4.53819 16.2508 4.68963 16.1336 4.80128C16.0164 4.91294 15.8575 4.97567 15.6919 4.97567Z" fill="#58815B"/>
<path d="M0.549917 35.4149C0.814064 33.6226 1.64375 31.9492 2.92891 30.6167C4.21407 29.2842 5.89395 28.3555 7.7457 27.954C3.95013 26.6782 1.39417 24.2277 0.412479 20.8094C-1.09397 15.5752 1.61193 9.14845 6.99872 5.04883L6.40168 2.87399C6.30914 2.53457 6.2994 2.17946 6.3732 1.83589C6.44699 1.49233 6.60237 1.16943 6.82742 0.891977C7.05246 0.614519 7.34119 0.389867 7.67146 0.23525C8.00173 0.0806334 8.36478 0.00015945 8.73274 0L20.3345 0C20.7027 0.000413818 21.0658 0.0812104 21.3961 0.236188C21.7263 0.391165 22.0149 0.616202 22.2398 0.894026C22.4646 1.17185 22.6196 1.49507 22.693 1.83888C22.7663 2.1827 22.756 2.53795 22.6629 2.87739L22.0561 5.09476C27.4107 9.20288 30.0881 15.6228 28.578 20.8358C27.5919 24.2379 25.0377 26.685 21.2493 27.954C23.1013 28.3553 24.7815 29.2839 26.067 30.6164C27.3525 31.9489 28.1825 33.6224 28.4468 35.4149L28.6967 37.1637C28.7833 37.7671 28.6149 38.3786 28.2285 38.8636C27.842 39.3487 27.2692 39.6676 26.6361 39.7502C26.5284 39.7644 26.4199 39.7715 26.3112 39.7714H2.68643C2.04737 39.7714 1.43447 39.5295 0.982584 39.0988C0.530697 38.6681 0.276829 38.084 0.276829 37.475C0.276676 37.3714 0.284132 37.2679 0.299141 37.1654L0.549917 35.4149ZM14.4988 31.1197L16.6657 28.1428V26.6756C15.2405 26.9946 13.7572 26.9946 12.332 26.6756V28.1428L14.4988 31.1197ZM3.45393 16.9769C3.4544 17.4171 3.60674 17.8451 3.88751 18.1947C4.16827 18.5444 4.56187 18.7964 5.00768 18.9118C4.95831 18.542 4.93297 18.1696 4.93182 17.7968V15.064C4.50373 15.1911 4.12944 15.4452 3.86358 15.7893C3.59772 16.1334 3.45419 16.5495 3.45393 16.9769ZM6.18124 14.9696V17.7934C6.15839 18.8341 6.35085 19.869 6.74765 20.8389C7.14444 21.8088 7.73779 22.6947 8.49383 23.446C9.24986 24.1974 10.1538 24.7994 11.1539 25.2178C12.1541 25.6363 13.231 25.8628 14.323 25.8846C15.4151 25.9064 16.5009 25.7229 17.5186 25.3448C18.5362 24.9666 19.4658 24.4011 20.2541 23.6806C21.0425 22.9601 21.6742 22.0986 22.1132 21.1454C22.5523 20.1922 22.79 19.1659 22.8128 18.1251C22.8128 18.0162 22.8128 17.9065 22.8128 17.7968V14.9696H21.5134C20.1109 14.9641 18.7317 14.6272 17.4994 13.9889C16.267 13.3506 15.2201 12.4309 14.4524 11.3122C13.6882 12.4352 12.6413 13.3582 11.407 13.997C10.1728 14.6358 8.79052 14.9701 7.38604 14.9696H6.18124ZM21.2537 1.62199C21.1459 1.48747 21.007 1.37855 20.8476 1.30374C20.6883 1.22893 20.513 1.19026 20.3354 1.19076H8.73363C8.42594 1.19076 8.13084 1.30725 7.91327 1.51462C7.69569 1.72198 7.57346 2.00322 7.57346 2.29647C7.5733 2.39151 7.5862 2.48615 7.61183 2.578L8.75416 6.74566C8.8194 6.98182 8.96484 7.19075 9.16778 7.33984C9.37071 7.48894 9.61973 7.56981 9.87596 7.56984H19.1931C19.4496 7.56995 19.6989 7.48904 19.902 7.33977C20.1052 7.19049 20.2507 6.98127 20.3158 6.74481L21.4581 2.57715C21.5034 2.41368 21.5086 2.24246 21.4731 2.07679C21.4377 1.91112 21.3626 1.75548 21.2537 1.62199ZM27.3768 20.5185C28.7155 15.8924 26.3951 10.1895 21.7098 6.36717L21.5233 7.04761C21.388 7.5385 21.0858 7.97284 20.6641 8.28276C20.2423 8.59268 19.7247 8.76071 19.1922 8.7606H9.87507C9.34228 8.76061 8.82451 8.59234 8.40274 8.28209C7.98097 7.97184 7.67898 7.53711 7.54401 7.0459L7.34588 6.32464C2.62485 10.1385 0.279509 15.8507 1.61639 20.4998C2.71053 24.3026 6.06255 26.7734 11.0826 27.5151V26.3124C9.67266 25.7951 8.41066 24.9682 7.39902 23.8988C6.38738 22.8295 5.65462 21.5478 5.26024 20.1579C4.39872 20.0868 3.59932 19.7013 3.02901 19.0818C2.4587 18.4623 2.16158 17.6567 2.1997 16.8334C2.23783 16.0101 2.60826 15.2326 3.23361 14.6634C3.85897 14.0942 4.6909 13.7773 5.55564 13.7788H7.38515C8.75064 13.7782 10.0875 13.4059 11.2385 12.7057C12.3895 12.0054 13.3067 11.0065 13.8821 9.82633C13.9329 9.72433 14.0131 9.63819 14.1132 9.57795C14.2134 9.51772 14.3295 9.48586 14.448 9.48611C14.5674 9.48662 14.6841 9.51974 14.7844 9.58154C14.8847 9.64334 14.9643 9.73125 15.0138 9.83484L15.0646 9.9403C15.656 11.0901 16.573 12.0594 17.7119 12.7387C18.8508 13.418 20.1663 13.7804 21.5099 13.7848H23.4411C24.3058 13.7834 25.1376 14.1005 25.7627 14.6698C26.3879 15.2391 26.7582 16.0165 26.7962 16.8398C26.8342 17.6631 26.537 18.4685 25.9667 19.0879C25.3964 19.7073 24.5971 20.0928 23.7356 20.1638C23.3404 21.5523 22.6075 22.8325 21.5962 23.9006C20.585 24.9687 19.3239 25.7947 17.9151 26.3116V27.5142C22.9271 26.7743 26.2791 24.3094 27.375 20.5194L27.3768 20.5185ZM23.9855 18.9127C24.4252 18.7993 24.8144 18.553 25.0946 18.2107C25.3748 17.8685 25.5309 17.4488 25.5393 17.0147C25.5478 16.5807 25.4082 16.1558 25.1415 15.8038C24.8748 15.4519 24.4955 15.192 24.0605 15.0631V17.7968C24.0608 18.1698 24.037 18.5425 23.9891 18.9127H23.9855ZM27.1831 38.203C27.2924 38.0839 27.3735 37.9438 27.4211 37.7922C27.4687 37.6407 27.4816 37.4811 27.4589 37.3244L27.209 35.5765C26.9384 33.7358 25.9802 32.0497 24.5104 30.828C23.0406 29.6062 21.1577 28.9306 19.2074 28.9253H17.617L15.1182 32.3513V38.5807H23.3046V35.6701C23.3046 35.5122 23.3704 35.3608 23.4876 35.2491C23.6047 35.1374 23.7636 35.0747 23.9293 35.0747C24.095 35.0747 24.2539 35.1374 24.371 35.2491C24.4882 35.3608 24.554 35.5122 24.554 35.6701V38.5807H26.3112C26.4766 38.5818 26.6403 38.5486 26.7908 38.4834C26.9414 38.4182 27.0753 38.3225 27.1831 38.203ZM1.81362 38.203C1.92171 38.3225 2.05572 38.4183 2.20641 38.4836C2.3571 38.549 2.52088 38.5824 2.68643 38.5815H4.44276V35.6701C4.44276 35.5122 4.50858 35.3608 4.62574 35.2491C4.74289 35.1374 4.90179 35.0747 5.06747 35.0747C5.23316 35.0747 5.39205 35.1374 5.50921 35.2491C5.62637 35.3608 5.69218 35.5122 5.69218 35.6701V38.5815H13.8741V32.3504L11.3753 28.9253H9.78583C7.83553 28.9306 5.95265 29.606 4.48269 30.8276C3.01273 32.0492 2.05431 33.735 1.78328 35.5757L1.53339 37.3244C1.51073 37.4811 1.52362 37.6407 1.57119 37.7922C1.61876 37.9438 1.69991 38.0839 1.80916 38.203H1.81362Z" fill="#58815B"/>
<path d="M21.3946 36.9987H17.2893C17.1237 36.9987 16.9648 36.9359 16.8476 36.8243C16.7304 36.7126 16.6646 36.5612 16.6646 36.4033V34.0218C16.6646 33.8639 16.7304 33.7124 16.8476 33.6008C16.9648 33.4891 17.1237 33.4264 17.2893 33.4264H21.3946C21.5603 33.4264 21.7192 33.4891 21.8363 33.6008C21.9535 33.7124 22.0193 33.8639 22.0193 34.0218V36.4033C22.0193 36.5612 21.9535 36.7126 21.8363 36.8243C21.7192 36.9359 21.5603 36.9987 21.3946 36.9987ZM20.7699 34.6172H17.914V35.8079H20.7699V34.6172Z" fill="#58815B"/>
</g>
<defs>
<clipPath id="clip0_236_76">
<rect width="29" height="39.7714" fill="white" transform="matrix(-1 0 0 1 29 0)"/>
</clipPath>
</defs>
</svg>
