<svg width="50" height="50" viewBox="0 0 50 50" fill="none" xmlns="http://www.w3.org/2000/svg">
<g clip-path="url(#clip0_246_805)">
<path fill-rule="evenodd" clip-rule="evenodd" d="M25.0057 50.0115C20.0621 50.0113 15.2296 48.5449 11.1195 45.7979C7.00931 43.0509 3.80619 39.1466 1.91526 34.5789C0.0243361 30.0112 -0.46945 24.9853 0.496365 20.1369C1.46218 15.2886 3.8442 10.8355 7.34114 7.34114C10.8355 3.8442 15.2886 1.46218 20.1369 0.496365C24.9853 -0.46945 30.0112 0.0243361 34.5789 1.91526C39.1466 3.80619 43.0509 7.00931 45.7979 11.1195C48.5449 15.2296 50.0113 20.0621 50.0115 25.0057C50.0142 28.2903 49.3693 31.5432 48.1136 34.5782C46.8579 37.6133 45.0161 40.371 42.6935 42.6935C40.371 45.0161 37.6133 46.8579 34.5782 48.1136C31.5432 49.3693 28.2903 50.0142 25.0057 50.0115ZM25.0057 2.65428C20.5831 2.65292 16.2594 3.96323 12.5815 6.41947C8.90366 8.87572 6.03687 12.3675 4.34376 16.4533C2.65066 20.539 2.20731 25.0351 3.06979 29.3728C3.93228 33.7106 6.06184 37.6951 9.18913 40.8224C12.3164 43.9496 16.3009 46.0792 20.6387 46.9417C24.9764 47.8042 29.4725 47.3608 33.5582 45.6677C37.6439 43.9746 41.1358 41.1078 43.592 37.43C46.0483 33.7521 47.3586 29.4284 47.3572 25.0057C47.3517 19.0784 44.9955 13.3952 40.8053 9.20285C36.6151 5.0105 30.9331 2.65131 25.0057 2.64281V2.65428Z" fill="#58815B"/>
<path fill-rule="evenodd" clip-rule="evenodd" d="M20.9108 35.4462C20.5605 35.4459 20.2246 35.3064 19.9771 35.0585L11.7963 26.88C11.6733 26.7573 11.5756 26.6115 11.5089 26.451C11.4421 26.2904 11.4077 26.1184 11.4075 25.9445C11.407 25.5935 11.5461 25.2566 11.794 25.0081C12.042 24.7595 12.3785 24.6196 12.7295 24.6192C13.0806 24.6188 13.4175 24.7578 13.666 25.0058L20.9108 32.2551L36.3341 16.8319C36.5829 16.5899 36.917 16.4555 37.2641 16.4579C37.6112 16.4602 37.9435 16.599 38.1891 16.8443C38.4347 17.0896 38.5739 17.4217 38.5766 17.7688C38.5794 18.1159 38.4454 18.4501 38.2038 18.6993L21.8445 35.0585C21.597 35.3064 21.2611 35.4459 20.9108 35.4462Z" fill="#58815B"/>
</g>
<defs>
<clipPath id="clip0_246_805">
<rect width="50" height="50" fill="white"/>
</clipPath>
</defs>
</svg>
