<svg width="476" height="512" viewBox="0 0 476 512" fill="none" xmlns="http://www.w3.org/2000/svg">
<g clip-path="url(#clip0_211_239)">
<mask id="mask0_211_239" style="mask-type:luminance" maskUnits="userSpaceOnUse" x="0" y="0" width="476" height="512">
<path d="M475.8 0H0V512H475.8V0Z" fill="white"/>
</mask>
<g mask="url(#mask0_211_239)">
<path d="M17.3 20.3C7.8 20.3 0 28 0 37.6V494.7C0 504.2 7.8 512 17.3 512H378.2C387.7 512 395.5 504.2 395.5 494.7V298L446.3 246.9L469.7 223.4C477.7 215.3 477.8 202.1 469.8 194L454 178C450 174 444.7 171.8 439.1 171.8C433.5 171.8 428.2 174 424.3 178L400.3 202.2L395.5 207V37.6C395.5 28.1 387.7 20.3 378.2 20.3H235.7L211.2 1.1C210.3 0.4 209.1 0 207.9 0H187.5C186.3 0 185.2 0.4 184.2 1.1L159.7 20.2H17.3V20.3ZM386.5 292.1L282.6 396.5L258.2 370.5L253.1 365L404.1 213.3L435.1 243.3L386.5 292.1ZM272.6 401.2L238.1 410L248.2 375.2L255.1 382.5L272.6 401.2ZM106.8 30.8H161.7C162.9 30.8 164 30.4 165 29.7L189.5 10.6H206.2L230.7 29.7C231.6 30.4 232.8 30.8 234 30.8H288.9V44.3H106.8V30.8ZM286.3 407.8L385 308.6V494.7C385 498.4 382 501.5 378.2 501.5H17.3C13.6 501.5 10.5 498.5 10.5 494.7V37.6C10.5 33.9 13.5 30.8 17.3 30.8H96.2V49.6C96.2 52.5 98.6 54.9 101.5 54.9H294C296.9 54.9 299.3 52.5 299.3 49.6V30.8H378.2C381.9 30.8 385 33.8 385 37.6V217.6L242 361.2C241.8 361.5 241.5 361.8 241.2 362.2C240.9 362.6 240.8 363.1 240.7 363.4L225.4 416C224.9 417.8 225.4 419.8 226.7 421.1C227.7 422.1 229.1 422.7 230.5 422.7C230.9 422.7 231.4 422.6 231.8 422.5L283.9 409.1C284.3 409 284.7 408.8 285.2 408.6C285.6 408.4 286 408.1 286.3 407.8ZM462.3 216L442.6 235.8L411.6 205.8L431.9 185.4C435.8 181.4 442.7 181.5 446.6 185.4L462.4 201.4C466.2 205.5 466.2 212 462.3 216Z" fill="#568259"/>
</g>
<mask id="mask1_211_239" style="mask-type:luminance" maskUnits="userSpaceOnUse" x="0" y="0" width="476" height="512">
<path d="M475.8 0H0V512H475.8V0Z" fill="white"/>
</mask>
<g mask="url(#mask1_211_239)">
<path d="M196.3 160.2H341.6C344.5 160.2 346.9 157.8 346.9 154.9C346.9 152 344.5 149.6 341.6 149.6H196.3C193.4 149.6 191 152 191 154.9C191 157.8 193.4 160.2 196.3 160.2Z" fill="#568259"/>
</g>
<mask id="mask2_211_239" style="mask-type:luminance" maskUnits="userSpaceOnUse" x="0" y="0" width="476" height="512">
<path d="M475.8 0H0V512H475.8V0Z" fill="white"/>
</mask>
<g mask="url(#mask2_211_239)">
<path d="M54 221.3H341.6C344.5 221.3 346.9 218.9 346.9 216C346.9 213.1 344.5 210.7 341.6 210.7H54C51.1 210.7 48.7 213.1 48.7 216C48.7 218.9 51.1 221.3 54 221.3Z" fill="#568259"/>
</g>
<mask id="mask3_211_239" style="mask-type:luminance" maskUnits="userSpaceOnUse" x="0" y="0" width="476" height="512">
<path d="M475.8 0H0V512H475.8V0Z" fill="white"/>
</mask>
<g mask="url(#mask3_211_239)">
<path d="M54 282.4H301.6C304.5 282.4 306.9 280 306.9 277.1C306.9 274.2 304.5 271.8 301.6 271.8H54C51.1 271.8 48.7 274.2 48.7 277.1C48.7 280.1 51.1 282.4 54 282.4Z" fill="#568259"/>
</g>
<mask id="mask4_211_239" style="mask-type:luminance" maskUnits="userSpaceOnUse" x="0" y="0" width="476" height="512">
<path d="M475.8 0H0V512H475.8V0Z" fill="white"/>
</mask>
<g mask="url(#mask4_211_239)">
<path d="M54 343.6H241.4C244.3 343.6 246.7 341.2 246.7 338.3C246.7 335.4 244.3 333 241.4 333H54C51.1 333 48.7 335.4 48.7 338.3C48.7 341.2 51.1 343.6 54 343.6Z" fill="#568259"/>
</g>
<mask id="mask5_211_239" style="mask-type:luminance" maskUnits="userSpaceOnUse" x="0" y="0" width="476" height="512">
<path d="M475.8 0H0V512H475.8V0Z" fill="white"/>
</mask>
<g mask="url(#mask5_211_239)">
<path d="M54 404.7H188.4C191.3 404.7 193.7 402.3 193.7 399.4C193.7 396.5 191.3 394.1 188.4 394.1H54C51.1 394.1 48.7 396.5 48.7 399.4C48.7 402.3 51.1 404.7 54 404.7Z" fill="#568259"/>
</g>
<mask id="mask6_211_239" style="mask-type:luminance" maskUnits="userSpaceOnUse" x="0" y="0" width="476" height="512">
<path d="M475.8 0H0V512H475.8V0Z" fill="white"/>
</mask>
<g mask="url(#mask6_211_239)">
<path d="M48.7 460.6C48.7 463.5 51.1 465.9 54 465.9H341.6C344.5 465.9 346.9 463.5 346.9 460.6C346.9 457.7 344.5 455.3 341.6 455.3H54C51.1 455.3 48.7 457.6 48.7 460.6Z" fill="#568259"/>
</g>
<mask id="mask7_211_239" style="mask-type:luminance" maskUnits="userSpaceOnUse" x="0" y="0" width="476" height="512">
<path d="M475.8 0H0V512H475.8V0Z" fill="white"/>
</mask>
<g mask="url(#mask7_211_239)">
<path d="M196.3 98.9999H341.6C344.5 98.9999 346.9 96.5999 346.9 93.6999C346.9 90.7999 344.5 88.3999 341.6 88.3999H196.3C193.4 88.3999 191 90.7999 191 93.6999C191 96.6999 193.4 98.9999 196.3 98.9999Z" fill="#568259"/>
</g>
<mask id="mask8_211_239" style="mask-type:luminance" maskUnits="userSpaceOnUse" x="0" y="0" width="476" height="512">
<path d="M475.8 0H0V512H475.8V0Z" fill="white"/>
</mask>
<g mask="url(#mask8_211_239)">
<path d="M63 143.1H89.9V170C89.9 172.9 92.3 175.3 95.2 175.3H119.9C122.8 175.3 125.2 172.9 125.2 170V143.2H152C154.9 143.2 157.3 140.8 157.3 137.9V113.2C157.3 110.3 154.9 107.9 152 107.9H125.2V81C125.2 78.1 122.8 75.7 119.9 75.7H95.2C92.3 75.7 89.9 78.1 89.9 81V107.8H63C60.1 107.8 57.7 110.2 57.7 113.1V137.8C57.7 140.8 60.1 143.1 63 143.1ZM68.3 118.4H95.2C98.1 118.4 100.5 116 100.5 113.1V86.3H114.6V113.1C114.6 116 117 118.4 119.9 118.4H146.7V132.6H119.9C117 132.6 114.6 135 114.6 137.9V164.7H100.5V137.9C100.5 135 98.1 132.6 95.2 132.6H68.3V118.4Z" fill="#568259"/>
</g>
</g>
<defs>
<clipPath id="clip0_211_239">
<rect width="475.8" height="512" fill="white"/>
</clipPath>
</defs>
</svg>
