<svg width="61" height="61" viewBox="0 0 61 61" fill="none" xmlns="http://www.w3.org/2000/svg">
<g clip-path="url(#clip0_205_2)">
<mask id="mask0_205_2" style="mask-type:luminance" maskUnits="userSpaceOnUse" x="0" y="0" width="61" height="61">
<path d="M61 0H0V61H61V0Z" fill="white"/>
</mask>
<g mask="url(#mask0_205_2)">
<path d="M42.944 48.068C43.066 48.068 43.066 48.068 43.188 48.068C43.31 48.068 43.31 47.946 43.432 47.946C43.554 47.824 43.554 47.824 43.554 47.702C43.554 47.58 43.554 47.58 43.554 47.458V34.526C43.554 33.306 43.188 32.086 42.456 30.988C41.724 30.012 40.626 29.28 39.528 28.792L35.99 27.572C36.722 26.352 37.088 25.01 37.088 23.668C37.088 19.886 34.282 16.958 30.5 16.958C26.718 16.958 23.912 19.886 23.912 23.668C23.912 25.01 24.278 26.474 25.01 27.572L21.35 28.792C20.13 29.158 19.154 29.89 18.422 30.988C17.69 31.964 17.324 33.184 17.324 34.526V44.774C17.324 44.896 17.446 45.14 17.568 45.262C17.69 45.384 17.812 45.506 18.056 45.506C18.178 45.506 18.422 45.384 18.544 45.262C18.666 45.14 18.788 45.018 18.788 44.774V34.526C18.788 33.55 19.032 32.574 19.642 31.842C20.252 31.11 20.984 30.5 21.96 30.134L25.986 28.792C27.206 30.134 28.548 30.744 30.012 30.744C30.134 30.744 30.378 30.622 30.5 30.5C30.622 30.378 30.744 30.256 30.744 30.012C30.744 29.89 30.622 29.646 30.5 29.524C30.378 29.402 30.256 29.28 30.012 29.28C28.548 29.28 27.45 28.304 26.718 27.45C26.108 26.596 25.376 25.132 25.376 23.546C25.376 20.496 27.572 18.178 30.622 18.178C33.672 18.178 35.868 20.374 35.868 23.546C35.868 25.01 35.38 26.352 34.526 27.45L39.04 28.914C40.016 29.158 40.748 29.768 41.358 30.622C41.968 31.354 42.212 32.33 42.212 33.306V46.238C42.212 46.36 42.334 46.604 42.456 46.726C42.578 47.946 42.822 48.068 42.944 48.068Z" fill="#568259"/>
</g>
<mask id="mask1_205_2" style="mask-type:luminance" maskUnits="userSpaceOnUse" x="0" y="0" width="61" height="61">
<path d="M61 0H0V61H61V0Z" fill="white"/>
</mask>
<g mask="url(#mask1_205_2)">
<path d="M30.5 34.1599C30.378 34.1599 30.256 34.1599 30.256 34.2819C30.134 34.2819 30.134 34.4039 30.012 34.4039C28.548 36.1119 23.912 41.8459 23.912 45.7499C23.912 49.4099 26.84 52.3379 30.5 52.3379C34.16 52.3379 37.088 49.4099 37.088 45.7499C37.088 41.9679 32.452 36.1119 30.988 34.4039C30.866 34.2819 30.866 34.2819 30.744 34.2819C30.744 34.2819 30.622 34.1599 30.5 34.1599ZM30.5 50.9959C29.158 50.9959 27.816 50.3859 26.84 49.4099C25.864 48.4339 25.254 47.0919 25.254 45.7499C25.254 43.1879 27.816 39.1619 30.5 35.8679C33.184 39.1619 35.746 43.1879 35.746 45.7499C35.746 47.0919 35.136 48.4339 34.16 49.4099C33.184 50.5079 31.842 50.9959 30.5 50.9959Z" fill="#568259"/>
</g>
<mask id="mask2_205_2" style="mask-type:luminance" maskUnits="userSpaceOnUse" x="0" y="0" width="61" height="61">
<path d="M61 0H0V61H61V0Z" fill="white"/>
</mask>
<g mask="url(#mask2_205_2)">
<path d="M48.434 23.668C48.434 21.594 45.994 18.422 45.018 17.202C44.896 17.08 44.896 17.08 44.774 17.08C44.652 17.08 44.53 16.958 44.53 16.958C44.408 16.958 44.286 16.958 44.286 17.08C44.164 17.08 44.164 17.202 44.042 17.202C43.066 18.422 40.626 21.472 40.626 23.668C40.626 24.766 40.992 25.742 41.724 26.474C42.456 27.206 43.432 27.572 44.53 27.572C45.628 27.572 46.604 27.206 47.336 26.474C47.946 25.742 48.434 24.766 48.434 23.668ZM41.846 23.668C41.846 22.448 43.188 20.374 44.408 18.666C45.75 20.374 46.97 22.448 46.97 23.668C46.97 24.4 46.726 25.01 46.238 25.498C45.75 25.986 45.14 26.23 44.408 26.23C43.676 26.23 43.066 25.986 42.578 25.498C42.09 25.01 41.846 24.4 41.846 23.668Z" fill="#568259"/>
</g>
<mask id="mask3_205_2" style="mask-type:luminance" maskUnits="userSpaceOnUse" x="0" y="0" width="61" height="61">
<path d="M61 0H0V61H61V0Z" fill="white"/>
</mask>
<g mask="url(#mask3_205_2)">
<path d="M22.082 22.326C22.082 19.642 19.032 15.738 17.69 14.152C17.568 14.03 17.568 14.03 17.446 14.03C17.324 14.03 17.202 13.908 17.202 13.908C17.08 13.908 16.958 13.908 16.958 14.03C16.836 14.03 16.836 14.152 16.714 14.152C15.372 15.738 12.322 19.642 12.322 22.326C12.322 23.668 12.81 24.888 13.786 25.742C14.762 26.596 15.982 27.206 17.202 27.206C18.544 27.206 19.764 26.718 20.618 25.742C21.472 24.888 22.082 23.668 22.082 22.326ZM17.202 25.864C16.226 25.864 15.372 25.498 14.64 24.888C14.03 24.278 13.542 23.302 13.542 22.326C13.542 20.618 15.25 17.812 17.08 15.616C18.788 17.812 20.618 20.618 20.618 22.326C20.618 23.302 20.252 24.156 19.52 24.888C19.032 25.498 18.056 25.864 17.202 25.864Z" fill="#568259"/>
</g>
<mask id="mask4_205_2" style="mask-type:luminance" maskUnits="userSpaceOnUse" x="0" y="0" width="61" height="61">
<path d="M61 0H0V61H61V0Z" fill="white"/>
</mask>
<g mask="url(#mask4_205_2)">
<path d="M58.804 19.032C58.804 18.91 58.682 18.91 58.682 18.788C58.56 18.666 58.56 18.666 58.438 18.666C58.316 18.666 58.316 18.666 58.194 18.666C58.072 18.666 58.072 18.666 57.95 18.666C57.828 18.666 57.828 18.788 57.706 18.788C57.584 18.91 57.584 18.91 57.584 19.032C57.584 19.154 57.584 19.154 57.584 19.276C57.584 19.398 57.584 19.398 57.584 19.52C59.78 24.888 60.268 30.622 59.17 36.234C58.072 41.846 55.266 46.97 51.24 51.118C47.214 55.144 42.09 57.95 36.356 59.048C30.744 60.146 24.888 59.658 19.642 57.462C18.666 57.096 17.69 56.608 16.714 56.12C15.25 55.388 13.908 54.412 12.566 53.436C12.444 53.314 12.322 53.314 12.078 53.314C11.956 53.314 11.712 53.436 11.59 53.558L10.37 54.778L9.14997 48.434L15.738 49.288L14.518 50.508C14.396 50.63 14.396 50.63 14.396 50.752C14.396 50.874 14.396 50.996 14.396 50.996C14.396 51.118 14.396 51.24 14.518 51.24C14.518 51.362 14.64 51.362 14.762 51.484C18.91 54.656 23.79 56.486 29.036 56.73C30.744 56.852 32.452 56.73 34.16 56.608C39.894 55.876 45.14 53.192 49.288 49.166C53.436 45.018 55.998 39.772 56.73 34.038C56.974 32.452 56.974 30.866 56.974 29.402C56.974 29.28 56.974 29.28 56.974 29.158C56.974 29.036 56.852 29.036 56.852 28.914C56.73 28.914 56.73 28.792 56.608 28.792C56.486 28.792 56.486 28.792 56.364 28.792C56.242 28.792 55.998 28.914 55.876 29.036C55.754 29.158 55.632 29.402 55.754 29.524C55.876 30.988 55.754 32.452 55.51 33.916C54.778 39.406 52.338 44.408 48.434 48.312C44.53 52.216 39.528 54.656 34.038 55.388C32.452 55.632 30.744 55.632 29.158 55.51C24.522 55.266 20.008 53.68 16.226 50.996L17.812 49.41C17.934 49.288 17.934 49.166 17.934 49.044C17.934 48.922 17.934 48.8 17.934 48.678C17.934 48.556 17.812 48.434 17.69 48.312C17.568 48.19 17.446 48.19 17.324 48.19L8.41797 46.97C8.29597 46.97 8.17397 46.97 8.05197 46.97C7.92997 46.97 7.80797 47.092 7.80797 47.092C7.68597 47.214 7.68597 47.214 7.68597 47.336C7.68597 47.458 7.68597 47.58 7.68597 47.702L9.27197 56.242C9.27197 56.364 9.39397 56.486 9.39397 56.608C9.51597 56.73 9.63797 56.73 9.75997 56.852C9.88197 56.852 10.004 56.852 10.126 56.852C10.248 56.852 10.37 56.73 10.492 56.73L12.2 54.9C17.568 58.926 24.034 61.122 30.744 61C37.454 61 43.92 58.682 49.166 54.656C54.412 50.63 58.316 44.896 60.024 38.43C61.732 32.086 61.244 25.254 58.804 19.032Z" fill="#568259"/>
</g>
<mask id="mask5_205_2" style="mask-type:luminance" maskUnits="userSpaceOnUse" x="0" y="0" width="61" height="61">
<path d="M61 0H0V61H61V0Z" fill="white"/>
</mask>
<g mask="url(#mask5_205_2)">
<path d="M12.932 12.6881C16.836 8.78407 21.838 6.34408 27.328 5.61208C33.55 4.75808 39.894 6.34407 45.14 10.0041L43.31 11.8341C43.188 11.9561 43.188 12.0781 43.188 12.2001C43.188 12.3221 43.188 12.4441 43.188 12.5661C43.188 12.6881 43.31 12.8101 43.432 12.9321C43.554 13.0541 43.676 13.0541 43.798 13.0541L52.704 14.2741C52.826 14.2741 52.948 14.2741 53.07 14.2741C53.192 14.2741 53.314 14.1521 53.314 14.1521C53.436 14.0301 53.436 14.0301 53.436 13.9081C53.436 13.7861 53.436 13.6641 53.436 13.5421L51.85 5.00208C51.85 4.88008 51.728 4.75808 51.728 4.63608C51.606 4.51408 51.484 4.51408 51.362 4.39208C51.24 4.39208 51.118 4.39208 50.996 4.39208C50.874 4.39208 50.752 4.51408 50.63 4.51408L48.8 6.10008C47.458 5.12408 46.116 4.27008 44.652 3.41608C43.798 2.92808 42.944 2.56208 41.968 2.19608C36.478 7.5021e-05 30.378 -0.609925 24.4 0.610075C18.544 1.83008 13.176 4.75808 8.90603 8.90608C0.244027 17.5681 -2.43997 30.6221 2.19603 41.9681C2.19603 42.0901 2.31803 42.0901 2.31803 42.2121C2.44003 42.3341 2.44003 42.3341 2.56203 42.3341C2.68403 42.3341 2.68403 42.3341 2.80603 42.3341C2.92803 42.3341 2.92803 42.3341 3.05003 42.3341C3.17203 42.3341 3.17203 42.2121 3.29403 42.2121C3.41603 42.0901 3.41603 42.0901 3.41603 41.9681C3.41603 41.8461 3.41603 41.8461 3.41603 41.7241C3.41603 41.6021 3.41603 41.6021 3.41603 41.4801C-0.975973 30.6221 1.46403 18.1781 9.76003 9.88208C13.786 5.85608 18.91 3.05008 24.522 1.95208C30.134 0.854075 35.99 1.34208 41.236 3.53808C42.212 3.90408 43.066 4.27008 43.798 4.75808C45.384 5.61208 46.848 6.58808 48.19 7.56408C48.312 7.68608 48.434 7.68608 48.678 7.68608C48.8 7.68608 49.044 7.56408 49.166 7.44208L50.386 6.22208L51.606 12.5661L45.14 11.7121L46.482 10.3701C46.604 10.2481 46.604 10.2481 46.604 10.1261C46.604 10.0041 46.604 9.88208 46.604 9.88208C46.604 9.76008 46.604 9.63808 46.482 9.63808C46.482 9.51608 46.36 9.51608 46.238 9.39408C40.748 5.24608 33.672 3.41608 26.84 4.27008C21.106 5.00208 15.86 7.68608 11.712 11.7121C7.80803 15.8601 5.24603 21.1061 4.39203 26.8401C4.14803 28.5481 4.14803 30.2561 4.27003 31.9641C4.27003 32.0861 4.27003 32.0861 4.39203 32.2081C4.39203 32.3301 4.51403 32.3301 4.51403 32.4521C4.63603 32.5741 4.63603 32.5741 4.75803 32.5741C4.88003 32.5741 4.88003 32.5741 5.00203 32.5741C5.12403 32.5741 5.12403 32.5741 5.24603 32.4521C5.36803 32.4521 5.36803 32.3301 5.49003 32.3301C5.49003 32.2081 5.61203 32.2081 5.61203 32.0861C5.61203 31.9641 5.61203 31.9641 5.61203 31.8421C5.49003 30.2561 5.61203 28.5481 5.73403 26.9621C6.46603 21.5941 8.90603 16.5921 12.932 12.6881Z" fill="#568259"/>
</g>
</g>
<defs>
<clipPath id="clip0_205_2">
<rect width="61" height="61" fill="white"/>
</clipPath>
</defs>
</svg>
