<svg width="50" height="50" viewBox="0 0 50 50" fill="none" xmlns="http://www.w3.org/2000/svg">
<g clip-path="url(#clip0_205_124)">
<mask id="mask0_205_124" style="mask-type:luminance" maskUnits="userSpaceOnUse" x="0" y="0" width="50" height="50">
<path d="M50 0H0V50H50V0Z" fill="white"/>
</mask>
<g mask="url(#mask0_205_124)">
<path d="M49.5833 48.4679L45.1389 45.8217C46.1111 45.2646 47.0833 44.5682 48.0556 43.8718C48.4722 43.5933 48.4722 43.0362 48.1944 42.7576C47.9167 42.3398 47.3611 42.3398 47.0833 42.6183C36.6667 51.3927 9.72222 45.6824 9.58333 45.6824C3.05556 44.1504 1.94444 42.0612 1.94444 38.1615V7.103L16.5278 1.67125L20.1389 8.91359L15.8333 14.7632L7.63889 13.2311C7.22222 13.0919 6.80556 13.3704 6.66667 13.9275C6.52778 14.3453 6.80556 14.7632 7.36111 14.9024L8.75 15.181C11.1111 20.8913 12.7778 26.7409 13.75 32.7297C13.1944 33.1476 12.9167 33.5654 12.7778 33.5654C12.5 33.844 12.5 34.4011 12.7778 34.6796C13.0556 34.9582 13.6111 34.9582 13.8889 34.6796C13.8889 34.5403 20.9722 27.4373 30 27.298H30.2778C35.2778 27.298 40.1389 29.5264 44.4444 33.844C44.7222 34.1225 45.2778 34.1225 45.5556 33.844C45.8333 33.5654 45.8333 33.0083 45.5556 32.7297C44.7222 31.8941 44.0278 31.1977 43.0556 30.5013C44.7222 28.9693 46.8056 28.1336 49.0278 28.2729C49.4444 28.2729 49.8611 27.8551 49.8611 27.4373C49.8611 27.0194 49.4444 26.6016 49.0278 26.6016C46.25 26.4623 43.6111 27.5765 41.6667 29.5264C38.1944 27.0194 34.1667 25.6267 29.8611 25.6267C23.3333 25.766 17.9167 29.1086 15 31.4763C14.0278 26.0445 12.6389 20.752 10.5556 15.5988L15.5556 16.713C15.8333 16.713 16.25 16.713 16.3889 16.4345L21.3889 9.74924C21.5278 9.47069 21.6667 9.19214 21.5278 8.91359L17.3611 0.557044C17.2222 -5.89962e-05 16.8056 -0.139335 16.3889 -5.90169e-05L0.555556 5.84952C0.277778 5.84952 0 6.26735 0 6.5459V38.1615C0 43.454 2.22222 45.6824 9.02778 47.3537C14.0278 48.3286 19.1667 49.025 24.3056 49.1643C25.4167 49.1643 26.5278 49.3036 27.6389 49.3036C34.0278 49.3036 39.3056 48.4679 43.3333 46.7966L48.75 49.8607C48.8889 49.9999 49.0278 49.9999 49.1667 49.9999C49.5833 49.9999 50 49.5821 50 49.1643C50 48.8857 49.8611 48.6072 49.5833 48.4679Z" fill="#568259"/>
</g>
<mask id="mask1_205_124" style="mask-type:luminance" maskUnits="userSpaceOnUse" x="0" y="0" width="50" height="50">
<path d="M50 0H0V50H50V0Z" fill="white"/>
</mask>
<g mask="url(#mask1_205_124)">
<path d="M38.8889 39.1366C28.6111 42.6185 23.0555 39.2758 22.9166 39.2758C22.5 38.9973 22.0833 39.1366 21.8055 39.5544C21.5277 39.9722 21.6666 40.3901 22.0833 40.6686C22.2222 40.8079 25 42.4792 30 42.4792C33.1944 42.4792 36.3889 41.9221 39.4444 40.8079C39.8611 40.6686 40.1389 40.1115 40 39.6937C39.7222 39.2758 39.3055 38.9973 38.8889 39.1366Z" fill="#568259"/>
</g>
</g>
<defs>
<clipPath id="clip0_205_124">
<rect width="50" height="50" fill="white"/>
</clipPath>
</defs>
</svg>
