<svg width="448" height="491" viewBox="0 0 448 491" fill="none" xmlns="http://www.w3.org/2000/svg">
<g clip-path="url(#clip0_202_92)">
<mask id="mask0_202_92" style="mask-type:luminance" maskUnits="userSpaceOnUse" x="0" y="0" width="448" height="491">
<path d="M448 0H0V490.7H448V0Z" fill="white"/>
</mask>
<g mask="url(#mask0_202_92)">
<path d="M224 490.7C278.8 475.8 328.2 445.6 366.5 403.6C475.5 282.7 445.1 113.6 441.4 95C409.7 82.9 377.3 69.7 344 55.4C301.9 37.3 261.9 18.8 224 0C186.1 18.8 146.1 37.2 104.1 55.4C70.7999 69.7 38.3999 82.9 6.59991 94.9C2.99991 113.6 -27.4001 282.8 81.5999 403.6C119.8 445.6 169.2 475.8 224 490.7Z" fill="#568259"/>
</g>
<mask id="mask1_202_92" style="mask-type:luminance" maskUnits="userSpaceOnUse" x="0" y="0" width="448" height="491">
<path d="M448 0H0V490.7H448V0Z" fill="white"/>
</mask>
<g mask="url(#mask1_202_92)">
<path d="M224 352C165.1 352 117.3 304.2 117.3 245.3C117.3 186.4 165.1 138.6 224 138.6C229.9 138.6 234.7 143.4 234.7 149.3C234.7 155.2 229.9 160 224 160C176.9 160 138.7 198.2 138.7 245.3C138.7 292.4 176.9 330.6 224 330.6C271.1 330.6 309.3 292.4 309.3 245.3C309.3 239.4 314.1 234.6 320 234.6C325.9 234.6 330.7 239.4 330.7 245.3C330.6 304.2 282.9 351.9 224 352Z" fill="#E6E9ED"/>
</g>
<mask id="mask2_202_92" style="mask-type:luminance" maskUnits="userSpaceOnUse" x="0" y="0" width="448" height="491">
<path d="M448 0H0V490.7H448V0Z" fill="white"/>
</mask>
<g mask="url(#mask2_202_92)">
<path d="M234.7 277.3C231.9 277.3 229.2 276.2 227.2 274.2L184.5 231.5C180.4 227.3 180.5 220.5 184.8 216.4C188.9 212.4 195.5 212.4 199.6 216.4L233.8 250.6L311.7 153.2C315.4 148.6 322.1 147.9 326.7 151.5C331.3 155.2 332 161.9 328.4 166.5L243 273.3C241.1 275.7 238.3 277.1 235.3 277.3H234.7Z" fill="#E6E9ED"/>
</g>
</g>
<defs>
<clipPath id="clip0_202_92">
<rect width="448" height="490.7" fill="white"/>
</clipPath>
</defs>
</svg>
