<svg width="447" height="512" viewBox="0 0 447 512" fill="none" xmlns="http://www.w3.org/2000/svg">
<g clip-path="url(#clip0_211_193)">
<mask id="mask0_211_193" style="mask-type:luminance" maskUnits="userSpaceOnUse" x="0" y="0" width="447" height="512">
<path d="M446.7 0H0V511.9H446.7V0Z" fill="white"/>
</mask>
<g mask="url(#mask0_211_193)">
<path fill-rule="evenodd" clip-rule="evenodd" d="M256.9 303.7C253.6 303.7 250.9 301 250.9 297.7V115.1C250.9 103.5 241.4 94 229.8 94C218.2 94 208.7 103.5 208.7 115.1V297.7C208.7 301 206 303.7 202.7 303.7C199.4 303.7 196.7 301 196.7 297.7V115.1C196.7 96.8 211.5 82 229.8 82C248.1 82 262.9 96.9 262.9 115.1V297.7C262.9 301 260.2 303.7 256.9 303.7Z" fill="#568259"/>
</g>
<mask id="mask1_211_193" style="mask-type:luminance" maskUnits="userSpaceOnUse" x="0" y="0" width="447" height="512">
<path d="M446.7 0H0V511.9H446.7V0Z" fill="white"/>
</mask>
<g mask="url(#mask1_211_193)">
<path fill-rule="evenodd" clip-rule="evenodd" d="M311.1 303.7C307.8 303.7 305.1 301 305.1 297.7V206.4C305.1 194.8 295.6 185.3 284 185.3C272.4 185.3 262.9 194.8 262.9 206.4V297.7C262.9 301 260.2 303.7 256.9 303.7C253.6 303.7 250.9 301 250.9 297.7V206.4C250.9 188.1 265.7 173.3 284 173.3C302.3 173.3 317.1 188.2 317.1 206.4V297.7C317.1 301 314.4 303.7 311.1 303.7Z" fill="#568259"/>
</g>
<mask id="mask2_211_193" style="mask-type:luminance" maskUnits="userSpaceOnUse" x="0" y="0" width="447" height="512">
<path d="M446.7 0H0V511.9H446.7V0Z" fill="white"/>
</mask>
<g mask="url(#mask2_211_193)">
<path fill-rule="evenodd" clip-rule="evenodd" d="M365.3 303.7C362 303.7 359.3 301 359.3 297.7V236.7C359.3 225.1 349.8 215.6 338.2 215.6C326.6 215.6 317.1 225.1 317.1 236.7V297.7C317.1 301 314.4 303.7 311.1 303.7C307.8 303.7 305.1 301 305.1 297.7V236.7C305.1 218.4 320 203.6 338.2 203.6C356.4 203.6 371.3 218.5 371.3 236.7V297.7C371.3 301 368.6 303.7 365.3 303.7Z" fill="#568259"/>
</g>
<mask id="mask3_211_193" style="mask-type:luminance" maskUnits="userSpaceOnUse" x="0" y="0" width="447" height="512">
<path d="M446.7 0H0V511.9H446.7V0Z" fill="white"/>
</mask>
<g mask="url(#mask3_211_193)">
<path fill-rule="evenodd" clip-rule="evenodd" d="M376.5 511.9C373.2 511.9 370.5 509.2 370.5 505.9V463.6C370.5 452.5 379.2 440.6 389.4 426.8C400.8 411.3 413.6 393.8 413.6 377.2V254.9C413.6 243.3 404.1 233.8 392.5 233.8C380.9 233.8 371.4 243.3 371.4 254.9V297.7C371.4 301 368.7 303.7 365.4 303.7C362.1 303.7 359.4 301 359.4 297.7V254.9C359.4 236.6 374.3 221.8 392.5 221.8C410.7 221.8 425.6 236.7 425.6 254.9V377.2C425.6 397.8 411.5 417 399.1 433.9C390.6 445.5 382.6 456.4 382.6 463.6V505.9C382.5 509.2 379.8 511.9 376.5 511.9Z" fill="#568259"/>
</g>
<mask id="mask4_211_193" style="mask-type:luminance" maskUnits="userSpaceOnUse" x="0" y="0" width="447" height="512">
<path d="M446.7 0H0V511.9H446.7V0Z" fill="white"/>
</mask>
<g mask="url(#mask4_211_193)">
<path fill-rule="evenodd" clip-rule="evenodd" d="M216.4 511.9C213.1 511.9 210.4 509.2 210.4 505.9V459.3C210.4 451.2 200.5 436.1 190.9 421.4C178.1 401.9 164.8 381.6 164.8 365V287.5C164.8 266.6 181.8 249.6 202.7 249.6C206 249.6 208.7 252.3 208.7 255.6C208.7 258.9 206 261.6 202.7 261.6C188.4 261.6 176.8 273.2 176.8 287.5V365C176.8 378 189.6 397.5 200.9 414.8C212.4 432.4 222.4 447.6 222.4 459.2V505.8C222.4 509.2 219.7 511.9 216.4 511.9Z" fill="#568259"/>
</g>
<mask id="mask5_211_193" style="mask-type:luminance" maskUnits="userSpaceOnUse" x="0" y="0" width="447" height="512">
<path d="M446.7 0H0V511.9H446.7V0Z" fill="white"/>
</mask>
<g mask="url(#mask5_211_193)">
<path fill-rule="evenodd" clip-rule="evenodd" d="M376.5 511.9H216.4C213.1 511.9 210.4 509.2 210.4 505.9C210.4 502.6 213.1 499.9 216.4 499.9H376.5C379.8 499.9 382.5 502.6 382.5 505.9C382.5 509.2 379.8 511.9 376.5 511.9Z" fill="#568259"/>
</g>
<mask id="mask6_211_193" style="mask-type:luminance" maskUnits="userSpaceOnUse" x="0" y="0" width="447" height="512">
<path d="M446.7 0H0V511.9H446.7V0Z" fill="white"/>
</mask>
<g mask="url(#mask6_211_193)">
<path fill-rule="evenodd" clip-rule="evenodd" d="M61.9 123.9C27.8 123.9 0 96.1 0 61.9C0 27.8 27.8 0 61.9 0C96 0 123.8 27.8 123.8 61.9C123.9 96.1 96.1 123.9 61.9 123.9ZM61.9 12C34.4 12 12 34.4 12 61.9C12 89.4 34.4 111.8 61.9 111.8C89.4 111.8 111.8 89.4 111.8 61.9C111.8 34.4 89.5 12 61.9 12Z" fill="#568259"/>
</g>
<mask id="mask7_211_193" style="mask-type:luminance" maskUnits="userSpaceOnUse" x="0" y="0" width="447" height="512">
<path d="M446.7 0H0V511.9H446.7V0Z" fill="white"/>
</mask>
<g mask="url(#mask7_211_193)">
<path fill-rule="evenodd" clip-rule="evenodd" d="M440.7 118.9H256.8C253.5 118.9 250.8 116.2 250.8 112.9C250.8 109.6 253.5 106.9 256.8 106.9H434.7V19.3999H156.7V106.9H202.8C206.1 106.9 208.8 109.6 208.8 112.9C208.8 116.2 206.1 118.9 202.8 118.9H150.7C147.4 118.9 144.7 116.2 144.7 112.9V13.3999C144.7 10.0999 147.4 7.3999 150.7 7.3999H440.7C444 7.3999 446.7 10.0999 446.7 13.3999V112.8C446.7 116.2 444 118.9 440.7 118.9Z" fill="#568259"/>
</g>
<mask id="mask8_211_193" style="mask-type:luminance" maskUnits="userSpaceOnUse" x="0" y="0" width="447" height="512">
<path d="M446.7 0H0V511.9H446.7V0Z" fill="white"/>
</mask>
<g mask="url(#mask8_211_193)">
<path fill-rule="evenodd" clip-rule="evenodd" d="M61.9 281.3C27.8 281.3 0 253.6 0 219.4C0 185.2 27.8 157.5 61.9 157.5C96 157.5 123.8 185.3 123.8 219.4C123.8 253.5 96.1 281.3 61.9 281.3ZM61.9 169.5C34.4 169.5 12 191.9 12 219.4C12 246.9 34.4 269.3 61.9 269.3C89.4 269.3 111.8 246.9 111.8 219.4C111.8 191.9 89.5 169.5 61.9 169.5Z" fill="#568259"/>
</g>
<mask id="mask9_211_193" style="mask-type:luminance" maskUnits="userSpaceOnUse" x="0" y="0" width="447" height="512">
<path d="M446.7 0H0V511.9H446.7V0Z" fill="white"/>
</mask>
<g mask="url(#mask9_211_193)">
<path fill-rule="evenodd" clip-rule="evenodd" d="M61.9 438.8C27.8 438.8 0 411 0 376.9C0 342.8 27.8 315 61.9 315C96 315 123.8 342.8 123.8 376.9C123.9 411 96.1 438.8 61.9 438.8ZM61.9 326.9C34.4 326.9 12 349.3 12 376.8C12 404.3 34.4 426.7 61.9 426.7C89.4 426.7 111.8 404.3 111.8 376.8C111.8 349.3 89.5 326.9 61.9 326.9Z" fill="#568259"/>
</g>
<mask id="mask10_211_193" style="mask-type:luminance" maskUnits="userSpaceOnUse" x="0" y="0" width="447" height="512">
<path d="M446.7 0H0V511.9H446.7V0Z" fill="white"/>
</mask>
<g mask="url(#mask10_211_193)">
<path fill-rule="evenodd" clip-rule="evenodd" d="M53 84.4001C51.5 84.4001 49.9 83.8001 48.8 82.6001L33.6 67.5001C31.3 65.2001 31.3 61.4001 33.6 59.0001C35.9 56.7001 39.7 56.7001 42.1 59.0001L53 69.9001L81.7 41.2001C84 38.9001 87.8 38.9001 90.2 41.2001C92.5 43.5001 92.5 47.3001 90.2 49.7001L57.2 82.7001C56.1 83.8001 54.5 84.4001 53 84.4001Z" fill="#568259"/>
</g>
</g>
<defs>
<clipPath id="clip0_211_193">
<rect width="446.7" height="511.9" fill="white"/>
</clipPath>
</defs>
</svg>
