<?xml version="1.0" encoding="utf-8"?>
<!-- Generator: Adobe Illustrator 26.0.0, SVG Export Plug-In . SVG Version: 6.00 Build 0)  -->
<svg version="1.1" id="Capa_1" xmlns="http://www.w3.org/2000/svg" xmlns:xlink="http://www.w3.org/1999/xlink" x="0px" y="0px"
	 viewBox="0 0 512 512" style="enable-background:new 0 0 512 512;" xml:space="preserve">
<style type="text/css">
	.st0{fill:#58815B;}
</style>
<g>
	<g>
		<path class="st0" d="M35.4,20.3c-9.5,0-17.3,7.8-17.3,17.3v457.1c0,9.5,7.8,17.3,17.3,17.3h360.9c9.5,0,17.3-7.8,17.3-17.3V298
			l50.8-51.1l23.4-23.5l0,0c8-8.1,8.1-21.3,0.1-29.4l-15.8-16c-4-4-9.3-6.2-14.9-6.2c-5.6,0-10.9,2.2-14.8,6.2l-24,24.2l-4.8,4.8
			V37.6c0-9.5-7.8-17.3-17.3-17.3H253.8L229.3,1.1C228.4,0.4,227.2,0,226,0h-20.4c-1.2,0-2.3,0.4-3.3,1.1L178,20.3H35.4z
			 M404.6,292.1L404.6,292.1L300.7,396.5l-24.4-26l-5.1-5.5l151-151.7l31,30L404.6,292.1z M290.7,401.2l-34.5,8.8l10.1-34.8l6.9,7.3
			L290.7,401.2z M124.9,30.8h54.9c1.2,0,2.3-0.4,3.3-1.1l24.5-19.1h16.7l24.5,19.1c0.9,0.7,2.1,1.1,3.3,1.1h54.9v13.5H124.9V30.8z
			 M304.4,407.8l98.7-99.2v186.1h0c0,3.7-3,6.8-6.8,6.8H35.4c-3.7,0-6.8-3-6.8-6.8V37.6c0-3.7,3-6.8,6.8-6.8h78.9v18.8
			c0,2.9,2.4,5.3,5.3,5.3h192.5c2.9,0,5.3-2.4,5.3-5.3V30.8h78.9c3.7,0,6.8,3,6.8,6.8v180L260.1,361.2c-0.2,0.3-0.5,0.6-0.8,1
			c-0.3,0.4-0.4,0.9-0.5,1.2L243.5,416c-0.5,1.8,0,3.8,1.3,5.1c1,1,2.4,1.6,3.8,1.6c0.4,0,0.9-0.1,1.3-0.2l52.1-13.4
			c0.4-0.1,0.8-0.3,1.3-0.5C303.7,408.4,304.1,408.1,304.4,407.8L304.4,407.8z M480.4,216l-19.7,19.8l-31-30l20.3-20.4
			c3.9-4,10.8-3.9,14.7,0l15.8,16C484.3,205.5,484.3,212,480.4,216L480.4,216z"/>
		<path class="st0" d="M214.4,160.2h145.3c2.9,0,5.3-2.4,5.3-5.3c0-2.9-2.4-5.3-5.3-5.3H214.4c-2.9,0-5.3,2.4-5.3,5.3
			C209.1,157.8,211.5,160.2,214.4,160.2z"/>
		<path class="st0" d="M72.1,221.3h287.6c2.9,0,5.3-2.4,5.3-5.3c0-2.9-2.4-5.3-5.3-5.3H72.1c-2.9,0-5.3,2.4-5.3,5.3
			C66.8,218.9,69.2,221.3,72.1,221.3L72.1,221.3z"/>
		<path class="st0" d="M72.1,282.4h247.6c2.9,0,5.3-2.4,5.3-5.3s-2.4-5.3-5.3-5.3H72.1c-2.9,0-5.3,2.4-5.3,5.3
			S69.2,282.4,72.1,282.4z"/>
		<path class="st0" d="M72.1,343.6h187.4c2.9,0,5.3-2.4,5.3-5.3c0-2.9-2.4-5.3-5.3-5.3H72.1c-2.9,0-5.3,2.4-5.3,5.3
			C66.8,341.2,69.2,343.6,72.1,343.6L72.1,343.6z"/>
		<path class="st0" d="M72.1,404.7h134.4c2.9,0,5.3-2.4,5.3-5.3c0-2.9-2.4-5.3-5.3-5.3H72.1c-2.9,0-5.3,2.4-5.3,5.3
			C66.8,402.3,69.2,404.7,72.1,404.7z"/>
		<path class="st0" d="M66.8,460.6c0,2.9,2.4,5.3,5.3,5.3h287.6c2.9,0,5.3-2.4,5.3-5.3s-2.4-5.3-5.3-5.3H72.1
			C69.2,455.3,66.8,457.6,66.8,460.6z"/>
		<path class="st0" d="M214.4,99h145.3c2.9,0,5.3-2.4,5.3-5.3s-2.4-5.3-5.3-5.3H214.4c-2.9,0-5.3,2.4-5.3,5.3S211.5,99,214.4,99z"/>
		<path class="st0" d="M81.1,143.1H108V170c0,2.9,2.4,5.3,5.3,5.3H138c2.9,0,5.3-2.4,5.3-5.3v-26.8h26.8c2.9,0,5.3-2.4,5.3-5.3
			v-24.7c0-2.9-2.4-5.3-5.3-5.3h-26.8V81c0-2.9-2.4-5.3-5.3-5.3h-24.7c-2.9,0-5.3,2.4-5.3,5.3v26.8H81.1c-2.9,0-5.3,2.4-5.3,5.3
			v24.7C75.8,140.8,78.2,143.1,81.1,143.1z M86.4,118.4h26.9c2.9,0,5.3-2.4,5.3-5.3V86.3h14.1v26.8c0,2.9,2.4,5.3,5.3,5.3h26.8v14.2
			H138c-2.9,0-5.3,2.4-5.3,5.3v26.8h-14.1v-26.8c0-2.9-2.4-5.3-5.3-5.3H86.4V118.4z"/>
	</g>
</g>
</svg>
