<?xml version="1.0" encoding="utf-8"?>
<!-- Generator: Adobe Illustrator 26.0.0, SVG Export Plug-In . SVG Version: 6.00 Build 0)  -->
<svg version="1.1" id="Layer_1" xmlns="http://www.w3.org/2000/svg" xmlns:xlink="http://www.w3.org/1999/xlink" x="0px" y="0px"
	 viewBox="0 0 41 43.8" style="enable-background:new 0 0 41 43.8;" xml:space="preserve">
<style type="text/css">
	.st0{fill:#568259;}
</style>
<path class="st0" d="M31.5,15.2c2.3,0,4.3-1.9,4.3-4.3c0-2.3-1.9-4.3-4.3-4.3c-2.3,0-4.3,1.9-4.3,4.3C27.3,13.3,29.2,15.2,31.5,15.2
	z M31.5,7.8c1.8,0,3.2,1.4,3.2,3.2c0,1.8-1.4,3.2-3.2,3.2c-1.8,0-3.2-1.4-3.2-3.2C28.3,9.2,29.8,7.8,31.5,7.8z"/>
<path class="st0" d="M13.4,19.1c0.6,0,1.2-0.2,1.7-0.7l4.8-4.8l3.2,3.2c0.9,0.9,2.4,0.9,3.3,0l0,0c0.9-0.9,0.9-2.4,0-3.3l-4.6-4.6
	c-1-1-2.7-1-3.8,0l-6.2,6.2c-0.7,0.7-0.9,1.7-0.5,2.6C11.6,18.6,12.4,19.1,13.4,19.1z M12.5,15.9l6.2-6.2C19.3,9,20.3,9,21,9.7
	l4.6,4.6c0.5,0.5,0.5,1.3,0,1.8l0,0c-0.5,0.5-1.3,0.5-1.8,0l-3.6-3.6c-0.2-0.2-0.5-0.2-0.8,0l-5.2,5.2c-0.5,0.5-1.3,0.5-1.8,0
	C12,17.2,12,16.4,12.5,15.9z"/>
<path class="st0" d="M33.6,20.5h-5.3v-2.7c0-0.2-0.1-0.4-0.3-0.5c-0.2-0.1-0.4,0-0.6,0.1l-3.2,3.2c-0.1,0.1-0.2,0.2-0.2,0.4v2.1
	c0,0.9,0.7,1.6,1.6,1.6h8c1.2,0,2.1-1,2.1-2.1C35.8,21.5,34.8,20.5,33.6,20.5z M33.6,23.7h-8c-0.3,0-0.5-0.2-0.5-0.5v-1.9l2.1-2.1
	v1.9c0,0.3,0.2,0.5,0.5,0.5h5.8c0.6,0,1.1,0.5,1.1,1.1C34.7,23.2,34.2,23.7,33.6,23.7z"/>
<path class="st0" d="M17.6,27.5L15,24.9c-0.2-0.2-0.5-0.2-0.8,0l-9.5,9.5c-0.9,0.9-0.9,2.4,0,3.3v0c0.9,0.9,2.4,0.9,3.3,0l9.5-9.5
	C17.8,28,17.8,27.7,17.6,27.5z M7.3,37c-0.5,0.5-1.3,0.5-1.8,0h0c-0.5-0.5-0.5-1.3,0-1.8l9.1-9.1l1.8,1.8L7.3,37z"/>
<path class="st0" d="M20.3,21.9c-0.6-0.6-1.5-0.9-2.3-0.6c-0.8,0.2-1.5,0.9-1.7,1.7c-0.2,0.8,0,1.7,0.6,2.3l4.2,4.2l-5,2.7
	c-1.1,0.6-1.5,2.1-0.9,3.2l0.1,0.1c0.4,0.7,1.2,1.2,2,1.2c0.4,0,0.8-0.1,1.1-0.3l6.6-3.5l0.9-0.5c0.7-0.4,1.2-1.1,1.3-2
	c0.1-0.8-0.2-1.6-0.8-2.2L20.3,21.9z M26.2,30.2c-0.1,0.5-0.4,0.9-0.8,1.2l-7.4,4c-0.6,0.3-1.4,0.1-1.7-0.5l-0.1-0.1
	c-0.3-0.6-0.1-1.4,0.5-1.7l5.7-3c0.1-0.1,0.3-0.2,0.3-0.4s0-0.3-0.2-0.5l-4.7-4.7c-0.5-0.5-0.5-1.3,0-1.8s1.3-0.5,1.8,0l6.2,6.2
	C26.1,29.2,26.2,29.7,26.2,30.2z"/>
</svg>
