<svg width="8" height="14" viewBox="0 0 8 14" fill="none" xmlns="http://www.w3.org/2000/svg">
<g clip-path="url(#clip0_238_722)">
<path d="M8 7C8.00014 6.91642 7.98295 6.83364 7.94941 6.75644C7.91587 6.67923 7.86665 6.60913 7.80458 6.55017L1.13792 0.186534C1.01187 0.0722306 0.844041 0.00944805 0.6702 0.0115726C0.496359 0.0136971 0.330265 0.0805607 0.20733 0.197907C0.0843962 0.315253 0.0143486 0.473798 0.0121229 0.639737C0.00989715 0.805676 0.0756693 0.965881 0.195416 1.08619L6.39083 7L0.195416 12.9138C0.0756693 13.0341 0.00989715 13.1943 0.0121229 13.3603C0.0143486 13.5262 0.0843962 13.6847 0.20733 13.8021C0.330265 13.9194 0.496359 13.9863 0.6702 13.9884C0.844041 13.9906 1.01187 13.9278 1.13792 13.8135L7.80458 7.44983C7.86665 7.39087 7.91587 7.32077 7.94941 7.24356C7.98295 7.16636 8.00014 7.08358 8 7Z" fill="black"/>
</g>
<defs>
<clipPath id="clip0_238_722">
<rect width="8" height="14" fill="white" transform="matrix(-1 0 0 1 8 0)"/>
</clipPath>
</defs>
</svg>
