<?xml version="1.0" encoding="utf-8"?>
<!-- Generator: Adobe Illustrator 26.0.0, SVG Export Plug-In . SVG Version: 6.00 Build 0)  -->
<svg version="1.1" id="Layer_1" xmlns="http://www.w3.org/2000/svg" xmlns:xlink="http://www.w3.org/1999/xlink" x="0px" y="0px"
	 viewBox="0 0 41 43.8" style="enable-background:new 0 0 41 43.8;" xml:space="preserve">
<style type="text/css">
	.st0{fill:#568259;}
</style>
<g id="Corona_Virus_Symptoms_Fever">
	<g id="Outline_00000129166066646156686040000006835978856279652484_">
		<path class="st0" d="M35.6,16.6c0.6-2.4,0.5-4.5-0.2-6.1c-0.5-1.2-1.4-1.9-2.5-2c-1.1-2-3.4-2-5.6-1.6C26.7,7,26.8,8,27.4,7.9
			c4.9-0.9,4.3,1.5,5.1,1.6c1.1,0,1.7,0.8,2,1.5c0.6,1.3,0.7,3.3,0.2,5.4c-0.6,2.4-1.8,5-3.6,7.3c-0.8-0.4-1.5-0.9-2-1.5
			c-0.4-0.5-1.1,0.1-0.8,0.6c0.6,0.8,1.4,1.4,2.4,1.9c0,2.2-0.1,2.2,0.1,2.4c4.9,6.5,2.3,10.2,3.7,10.2c0.3,0,0.5-0.2,0.5-0.5
			c0-3.5-0.6-6.4-3.3-10.2v-2.2C33.6,21.9,35,19.2,35.6,16.6L35.6,16.6z"/>
		<path class="st0" d="M27.9,20c-0.6,0-0.6,1,0,1c3.1,0,3-5.2,0.6-5.2c-1.6,0-2.1,2.3-1.1,2.3c0.3,0,0.5-0.2,0.5-0.5
			c0-1.3,1.4-1.2,1.4,0.5C29.3,18.7,29.1,20,27.9,20L27.9,20z"/>
		<path class="st0" d="M28.8,29.6c-1.8,0-3.3,1.5-3.3,3.3v3.8c0,0.6,1,0.6,1,0V33c0-1.3,1.1-2.4,2.4-2.4s2.4,1.1,2.4,2.4v3.8
			c0,0.6,1,0.6,1,0V33C32.1,31.1,30.7,29.6,28.8,29.6z"/>
		<path class="st0" d="M29.1,27.2c-1.3,0.6-3.2,1.2-5,1.4c1.3-1.8,0.9-0.4,0.9-3.8c0-0.3-0.2-0.5-0.5-0.5h-3.6
			c-0.7,0-1.2-0.5-1.2-1.2V21c0-0.4-0.4-0.5-1.3-1.1c1.2-1.6,1.3-1.6,1.3-1.9v-2.6c0.3,0.1,0.6,0.2,0.9,0.2c0.6,0.1,0.8-0.8,0.2-0.9
			c-2.4-0.4-3.3-2.7-3.4-5.2c1.3,0.7,3.3,0.1,6.4-0.8c0.6-0.2,0.3-1.1-0.3-0.9c-2.6,0.8-5.5,1.7-6.2,0.4c-0.2-0.4-0.9-0.3-0.9,0.2
			c-0.2,2.2,0.5,5.1,2.4,6.5v3l-1.5,1.9c-0.2,0.2-0.1,0.5,0.1,0.7c0,0,0,0,0,0l1.3,0.8v1.9c0,1.2,1,2.1,2.1,2.1H24v1.7
			c-0.4,0.5-0.8,1.1-1.2,1.7c-0.1,0.1-0.2,0.2-0.2,0.3c-1.4,2.3-2.4,5-2.4,7.7c0,0.3,0.2,0.5,0.5,0.5c0.3,0,0.5-0.2,0.5-0.5
			c0-2.9,1.2-5.5,2.2-7.2c2.2-0.1,4.5-0.9,6.1-1.5C30.1,27.9,29.7,27,29.1,27.2L29.1,27.2z"/>
		<path class="st0" d="M23.1,13.2c-0.2,0.4-1.5,2.7-1.5,3.6c0,1.1,0.9,1.9,1.9,1.9c1.1,0,1.9-0.9,1.9-1.9c0-0.9-1.2-3.1-1.5-3.6
			c-0.1-0.2-0.4-0.3-0.7-0.2C23.2,13,23.2,13.1,23.1,13.2L23.1,13.2z M23.6,17.7c-0.5,0-1-0.4-1-1c0-0.3,0.4-1.3,1-2.3
			c0.5,1,1,2,1,2.3C24.5,17.3,24.1,17.7,23.6,17.7z"/>
		<path class="st0" d="M14,24.1V11c0-0.8-0.6-1.4-1.4-1.4H8.8C8,9.6,7.3,10.2,7.3,11v13.1c-3.8,3.1-1.6,9.3,3.3,9.3
			C15.5,33.5,17.8,27.3,14,24.1z M10.6,32.5c-4-0.1-5.8-5.3-2.5-7.7c0.4-0.3,0.1-0.3,0.2-8.5h1.4c0.6,0,0.6-1,0-1H8.3v-1h2.4
			c0.6,0,0.6-1,0-1H8.3v-1h1.4c0.6,0,0.6-1,0-1H8.3c0-0.1-0.2-1,0.5-1h3.8c0.3,0,0.5,0.2,0.5,0.5c0.1,13.9-0.2,13.5,0.2,13.8
			C16.6,27.3,14.7,32.6,10.6,32.5z"/>
		<path class="st0" d="M12.1,25.2v-7.5c0-0.3-0.2-0.5-0.5-0.5H9.7c-0.3,0-0.5,0.2-0.5,0.5v7.5c-3.2,1.5-2.1,6.4,1.4,6.4
			C14.2,31.5,15.3,26.7,12.1,25.2L12.1,25.2z M10.7,30.6c-2.7,0-3.3-3.7-0.8-4.6c0.6-0.2,0.2-0.6,0.3-7.8h1c0.1,7.3-0.3,7.6,0.3,7.8
			C14,26.8,13.3,30.6,10.7,30.6z"/>
		<path class="st0" d="M5.9,33.5c0,0.6,1,0.6,1,0C6.8,32.8,5.9,32.8,5.9,33.5z"/>
		<path class="st0" d="M8.3,33.9c-0.6,0-0.6,1,0,1C8.9,34.9,8.9,33.9,8.3,33.9z"/>
		<path class="st0" d="M12.6,34.4c0,0.6,1,0.6,1,0C13.5,33.8,12.6,33.8,12.6,34.4z"/>
		<path class="st0" d="M10.2,34.9c0,0.6,1,0.6,1,0C11.1,34.3,10.2,34.3,10.2,34.9z"/>
		<path class="st0" d="M15,33c-0.6,0-0.6,1,0,1C15.6,33.9,15.6,33,15,33z"/>
		<path class="st0" d="M25.5,8.1c0.6,0,0.6-1,0-1S24.8,8.1,25.5,8.1z"/>
	</g>
</g>
</svg>
