<?xml version="1.0" encoding="utf-8"?>
<!-- Generator: Adobe Illustrator 26.0.0, SVG Export Plug-In . SVG Version: 6.00 Build 0)  -->
<svg version="1.1" id="Layer_1" xmlns="http://www.w3.org/2000/svg" xmlns:xlink="http://www.w3.org/1999/xlink" x="0px" y="0px"
	 viewBox="0 0 41 43.8" style="enable-background:new 0 0 41 43.8;" xml:space="preserve">
<style type="text/css">
	.st0{fill:#568259;}
</style>
<path class="st0" d="M31.2,30.3h-14c-1.4,0-2.6-1.2-2.6-2.6v-20c0-1.4,1.2-2.6,2.6-2.6h3.3c0.2-2,2-3.5,4.1-3.3
	c1.7,0.2,3.1,1.6,3.3,3.3h3.3c1.4,0,2.6,1.2,2.6,2.6v20C33.7,29.2,32.6,30.3,31.2,30.3z M17.2,6.4c-0.8,0-1.4,0.6-1.4,1.4v20
	c0,0.8,0.6,1.4,1.4,1.4h14c0.8,0,1.4-0.6,1.4-1.4v-20c0-0.8-0.6-1.4-1.4-1.4h-3.9c-0.3,0-0.6-0.3-0.6-0.6V5.6c0-1.4-1.1-2.5-2.5-2.5
	s-2.5,1.1-2.5,2.5l0,0v0.2c0,0.3-0.3,0.6-0.6,0.6H17.2z"/>
<path class="st0" d="M27,32.8h-5.6c-0.3,0-0.6-0.3-0.6-0.6v-2.5c0-0.3,0.3-0.6,0.6-0.6H27c0.3,0,0.6,0.3,0.6,0.6v2.5
	C27.5,32.6,27.3,32.8,27,32.8L27,32.8z M22,31.7h4.4v-1.4H22V31.7z"/>
<path class="st0" d="M24.2,4.6c-0.7,0-1.3,0.6-1.3,1.3s0.6,1.3,1.3,1.3c0.7,0,1.3-0.6,1.3-1.3S24.9,4.6,24.2,4.6L24.2,4.6z"/>
<path class="st0" d="M24.2,7.4c-0.9,0-1.6-0.7-1.6-1.6s0.7-1.6,1.6-1.6c0.9,0,1.6,0.7,1.6,1.6C25.7,6.7,25,7.4,24.2,7.4z M24.2,4.9
	c-0.5,0-1,0.4-1,1s0.4,1,1,1c0.5,0,1-0.4,1-1C25.2,5.3,24.7,4.9,24.2,4.9z"/>
<path class="st0" d="M17,17.9h-1.8c-0.3,0-0.6-0.3-0.6-0.6c0-0.3,0.3-0.6,0.6-0.6H17c0.3,0,0.6,0.3,0.6,0.6
	C17.5,17.7,17.3,17.9,17,17.9z"/>
<path class="st0" d="M18,22.1h-2.8c-0.3,0-0.6-0.3-0.6-0.6c0-0.3,0.3-0.6,0.6-0.6H18c0.3,0,0.6,0.3,0.6,0.6
	C18.5,21.8,18.3,22.1,18,22.1z"/>
<path class="st0" d="M17,26.2h-1.8c-0.3,0-0.6-0.3-0.6-0.6c0-0.3,0.3-0.6,0.6-0.6H17c0.3,0,0.6,0.3,0.6,0.6
	C17.5,25.9,17.3,26.2,17,26.2z"/>
<path class="st0" d="M33.2,14.5h-18c-0.3,0-0.6-0.3-0.6-0.6s0.3-0.6,0.6-0.6h18c0.3,0,0.6,0.3,0.6,0.6S33.5,14.5,33.2,14.5z"/>
<path class="st0" d="M27.2,25.4c-1.5,0-2.7-1.2-2.7-2.7c0-1.3,1.9-4.1,2.2-4.6c0.2-0.3,0.6-0.3,0.8-0.1c0,0,0.1,0.1,0.1,0.1
	c0.4,0.5,2.2,3.4,2.2,4.6C29.9,24.2,28.7,25.4,27.2,25.4z M27.2,19.4c-0.8,1.2-1.6,2.7-1.6,3.3c0,0.9,0.7,1.6,1.6,1.6
	c0.9,0,1.6-0.7,1.6-1.6C28.7,22.1,27.9,20.6,27.2,19.4L27.2,19.4z"/>
<path class="st0" d="M15.5,42c-5.1,0-9.2-4.1-9.2-9.3V10.4c0-0.3,0.3-0.6,0.6-0.6s0.6,0.3,0.6,0.6v22.3c0,4.5,3.6,8.1,8.1,8.1
	c4.5,0,8.1-3.6,8.1-8.1v-0.5c0-0.3,0.3-0.6,0.6-0.6c0.3,0,0.6,0.3,0.6,0.6v0.5C24.8,37.9,20.6,42,15.5,42L15.5,42z"/>
</svg>
