<?xml version="1.0" encoding="utf-8"?>
<!-- Generator: Adobe Illustrator 26.0.0, SVG Export Plug-In . SVG Version: 6.00 Build 0)  -->
<svg version="1.1" id="Layer_1" xmlns="http://www.w3.org/2000/svg" xmlns:xlink="http://www.w3.org/1999/xlink" x="0px" y="0px"
	 viewBox="0 0 426 422" style="enable-background:new 0 0 426 422;" xml:space="preserve">
<style type="text/css">
	.st0{fill:#57825A;}
</style>
<g id="_x31_0.Linkedin">
	<path class="st0" d="M415.8,414.8v-150c0-73.7-15.9-130-101.9-130c-41.5,0-69.1,22.5-80.4,44h-1v-37.4h-81.4v273.4h85V279.1
		c0-35.8,6.7-70.1,50.7-70.1c43.5,0,44,40.4,44,72.2v133.1h85L415.8,414.8z"/>
	<path class="st0" d="M12.9,141.4h85v273.4h-85L12.9,141.4z"/>
	<path class="st0" d="M55.4,5.2c-27.1,0-49.2,22-49.2,49.2s22,49.7,49.2,49.7s49.2-22.5,49.2-49.7S82.5,5.2,55.4,5.2z"/>
</g>
</svg>
