<svg width="18" height="18" viewBox="0 0 18 18" fill="none" xmlns="http://www.w3.org/2000/svg">
<g clip-path="url(#clip0_236_93)">
<path d="M17.421 12.96C17.3719 12.9225 13.8 10.3462 12.8197 10.5311C12.3518 10.614 12.084 10.9331 11.547 11.5721C11.4608 11.6753 11.253 11.9228 11.0918 12.0971C10.7523 11.9865 10.4212 11.8518 10.101 11.694C8.44847 10.8898 7.11313 9.55496 6.30825 7.90275C6.15044 7.58253 6.01572 7.25143 5.90513 6.912C6.08175 6.75 6.32888 6.54225 6.43425 6.45375C7.07175 5.91975 7.39013 5.652 7.473 5.18288C7.64288 4.21088 5.07 0.61425 5.043 0.582C4.9263 0.415216 4.77396 0.276472 4.59703 0.175813C4.4201 0.0751544 4.223 0.0151005 4.02 0C2.97712 0 0 3.8625 0 4.51275C0 4.55025 0.05475 8.39288 4.79288 13.2128C9.60787 17.9452 13.4498 18 13.4873 18C14.1375 18 18 15.0229 18 13.98C17.985 13.7777 17.9252 13.5813 17.8251 13.4049C17.725 13.2286 17.587 13.0766 17.421 12.96Z" fill="white"/>
</g>
<defs>
<clipPath id="clip0_236_93">
<rect width="18" height="18" fill="white"/>
</clipPath>
</defs>
</svg>
