<?xml version="1.0" encoding="utf-8"?>
<!-- Generator: Adobe Illustrator 26.0.0, SVG Export Plug-In . SVG Version: 6.00 Build 0)  -->
<svg version="1.1" id="Layer_1" xmlns="http://www.w3.org/2000/svg" xmlns:xlink="http://www.w3.org/1999/xlink" x="0px" y="0px"
	 viewBox="0 0 41 43.8" style="enable-background:new 0 0 41 43.8;" xml:space="preserve">
<style type="text/css">
	.st0{fill:#568259;}
</style>
<g>
	<path class="st0" d="M34.4,27.1c0.7-0.9,1-1.8,0.9-2.7c0-1-0.5-1.9-0.9-2.3c0.4-1.1,0.6-2.8-0.9-4.2c-1.1-1-2.9-1.4-5.5-1.3
		c-1.8,0.1-3.3,0.4-3.4,0.4h0c-0.3,0.1-0.7,0.1-1.1,0.2c0-0.4,0-1.5,0.9-4c1-2.9,0.9-5.1-0.2-6.6c-1.1-1.6-2.9-1.7-3.5-1.7
		c-0.5,0-1,0.2-1.3,0.6C18.8,6.4,18.9,8,19,8.8c-0.9,2.4-3.4,8.3-5.6,10c0,0-0.1,0.1-0.1,0.1c-0.6,0.7-1.1,1.4-1.3,2
		c-0.4-0.2-0.9-0.3-1.4-0.3H6.5c-1.6,0-2.8,1.3-2.8,2.8v11.1c0,1.6,1.3,2.8,2.8,2.8h4.2c0.6,0,1.2-0.2,1.6-0.5l1.6,0.2
		c0.2,0,4.6,0.6,9.1,0.5c0.8,0.1,1.6,0.1,2.3,0.1c1.2,0,2.3-0.1,3.2-0.3c2.1-0.4,3.5-1.3,4.2-2.6c0.6-1,0.6-2,0.5-2.6
		c1.4-1.2,1.6-2.6,1.5-3.5C34.7,27.9,34.5,27.5,34.4,27.1z M6.5,35.5c-0.6,0-1-0.5-1-1V23.4c0-0.6,0.5-1,1-1h4.2c0.6,0,1,0.5,1,1
		v11.1c0,0.6-0.5,1-1,1L6.5,35.5L6.5,35.5z M32.7,26.3c-0.3,0.3-0.3,0.8-0.1,1.1c0,0,0.3,0.5,0.3,1.1c0,0.9-0.4,1.7-1.3,2.4
		c-0.3,0.2-0.5,0.7-0.3,1.1c0,0,0.3,0.9-0.2,1.8c-0.5,0.8-1.5,1.4-3,1.7c-1.2,0.3-2.9,0.3-5,0.2c0,0-0.1,0-0.1,0
		c-4.4,0.1-8.8-0.5-8.9-0.5h0l-0.7-0.1c0-0.2,0.1-0.4,0.1-0.6V23.4c0-0.3,0-0.6-0.1-0.8c0.1-0.5,0.5-1.5,1.3-2.3
		c3.1-2.4,6.1-10.6,6.2-11c0.1-0.1,0.1-0.3,0-0.5c-0.1-0.8-0.1-1.7,0.1-2c0.4,0,1.3,0.1,1.9,0.9c0.7,1,0.7,2.7-0.1,5
		c-1.1,3.5-1.2,5.3-0.3,6.1c0.5,0.4,1.1,0.4,1.5,0.3c0.4-0.1,0.8-0.2,1.2-0.2c0,0,0.1,0,0.1,0c2.1-0.5,5.9-0.7,7.2,0.5
		c1.1,1,0.3,2.3,0.2,2.5c-0.3,0.4-0.2,0.9,0.2,1.2c0,0,0.7,0.7,0.8,1.6C33.5,25.1,33.3,25.7,32.7,26.3z"/>
</g>
</svg>
