<?xml version="1.0" encoding="utf-8"?>
<!-- Generator: Adobe Illustrator 26.0.0, SVG Export Plug-In . SVG Version: 6.00 Build 0)  -->
<svg version="1.1" id="Layer_1" xmlns="http://www.w3.org/2000/svg" xmlns:xlink="http://www.w3.org/1999/xlink" x="0px" y="0px"
	 viewBox="0 0 41 43.8" style="enable-background:new 0 0 41 43.8;" xml:space="preserve">
<style type="text/css">
	.st0{fill:#568259;}
</style>
<g id="_9-Home">
	<path class="st0" d="M27,36.9H14C11,37,8.4,34.6,8.2,31.6v-7c0-0.6,0.5-1.1,1.1-1.1s1.1,0.5,1.1,1.1v7c0.1,1.8,1.7,3.2,3.5,3.1h13
		c1.8,0.1,3.4-1.3,3.5-3.1v-7c0-0.6,0.5-1.1,1.1-1.1c0.6,0,1.1,0.5,1.1,1.1v7C32.6,34.6,30,37,27,36.9z M35.8,22.1
		c0.4-0.4,0.4-1.1,0-1.6c0,0,0,0,0,0L21.3,6c-0.4-0.4-1.1-0.4-1.6,0c0,0,0,0,0,0L5.2,20.5c-0.4,0.4-0.4,1.1,0,1.6
		c0.4,0.4,1.1,0.4,1.6,0L20.5,8.4l13.7,13.7C34.6,22.5,35.3,22.5,35.8,22.1C35.8,22.1,35.8,22.1,35.8,22.1z"/>
</g>
</svg>
