<svg width="22" height="22" viewBox="0 0 22 22" fill="none" xmlns="http://www.w3.org/2000/svg">
<path d="M6.11111 0C2.74144 0 0 2.74144 0 6.11111V15.8889C0 19.2586 2.74144 22 6.11111 22H15.8889C19.2586 22 22 19.2586 22 15.8889V6.11111C22 2.74144 19.2586 0 15.8889 0H6.11111ZM6.11111 2.44444H15.8889C17.9104 2.44444 19.5556 4.08956 19.5556 6.11111V15.8889C19.5556 17.9104 17.9104 19.5556 15.8889 19.5556H6.11111C4.08956 19.5556 2.44444 17.9104 2.44444 15.8889V6.11111C2.44444 4.08956 4.08956 2.44444 6.11111 2.44444ZM17.1111 3.66667C16.787 3.66667 16.4761 3.79544 16.2469 4.02465C16.0177 4.25386 15.8889 4.56474 15.8889 4.88889C15.8889 5.21304 16.0177 5.52392 16.2469 5.75313C16.4761 5.98234 16.787 6.11111 17.1111 6.11111C17.4353 6.11111 17.7461 5.98234 17.9754 5.75313C18.2046 5.52392 18.3333 5.21304 18.3333 4.88889C18.3333 4.56474 18.2046 4.25386 17.9754 4.02465C17.7461 3.79544 17.4353 3.66667 17.1111 3.66667ZM11 4.88889C7.63033 4.88889 4.88889 7.63033 4.88889 11C4.88889 14.3697 7.63033 17.1111 11 17.1111C14.3697 17.1111 17.1111 14.3697 17.1111 11C17.1111 7.63033 14.3697 4.88889 11 4.88889ZM11 7.33333C13.0216 7.33333 14.6667 8.97844 14.6667 11C14.6667 13.0216 13.0216 14.6667 11 14.6667C8.97844 14.6667 7.33333 13.0216 7.33333 11C7.33333 8.97844 8.97844 7.33333 11 7.33333Z" fill="#57825A"/>
</svg>
