<svg width="17" height="14" viewBox="0 0 17 14" fill="none" xmlns="http://www.w3.org/2000/svg">
<g clip-path="url(#clip0_236_95)">
<path d="M1.63178 4.11717C1.84665 4.26891 2.4948 4.71947 3.57624 5.46885C4.65767 6.21824 5.48624 6.79528 6.06196 7.19999C6.12509 7.24429 6.25944 7.34076 6.46501 7.4894C6.67057 7.63803 6.84147 7.7582 6.9777 7.84991C7.11393 7.94162 7.27841 8.0444 7.47112 8.15826C7.64347 8.26251 7.82635 8.34827 8.01671 8.41411C8.16924 8.46794 8.32947 8.49677 8.4912 8.4995H8.51014C8.67186 8.49677 8.83209 8.46794 8.98462 8.41411C9.1749 8.34832 9.35767 8.26256 9.52988 8.15826C9.72282 8.04418 9.88729 7.9414 10.0233 7.84991C10.1593 7.75843 10.3301 7.63825 10.5357 7.4894C10.741 7.34076 10.8754 7.24429 10.9387 7.19999C11.5204 6.79528 13.0003 5.76757 15.3785 4.11684C15.8324 3.80218 16.2246 3.40674 16.5355 2.95024C16.8456 2.49503 17.0007 2.01755 17.0007 1.51782C17.0033 1.31774 16.9646 1.11927 16.887 0.934823C16.8095 0.750381 16.6946 0.583937 16.5498 0.445908C16.249 0.148636 15.893 0 15.4819 0H1.51782C1.03048 0 0.655793 0.164364 0.393742 0.493091C0.13169 0.821818 0.000443029 1.23339 0 1.72781C0 2.12654 0.173889 2.55849 0.521666 3.02367C0.869444 3.48885 1.23948 3.85335 1.63178 4.11717Z" fill="white"/>
<path d="M16.0511 5.13191C13.977 6.53609 12.4023 7.6276 11.3268 8.40645C10.9666 8.67227 10.6742 8.87938 10.4496 9.0278C10.225 9.17621 9.92597 9.32795 9.5525 9.48301C9.17925 9.63807 8.83136 9.7156 8.50883 9.7156H8.4899C8.16715 9.7156 7.81926 9.63807 7.44623 9.48301C7.0732 9.32795 6.77416 9.17621 6.5491 9.0278C6.32537 8.87938 6.0333 8.67227 5.6729 8.40645C4.8194 7.77934 3.24787 6.68783 0.958298 5.13191C0.605426 4.89833 0.283456 4.62113 2.7443e-05 4.30688V11.8388C-0.00282874 12.0385 0.035264 12.2367 0.111956 12.4211C0.188647 12.6055 0.302311 12.7723 0.445936 12.9111C0.584658 13.0547 0.751336 13.1684 0.935691 13.2451C1.12005 13.3219 1.31817 13.3601 1.51784 13.3573H15.4839C15.8861 13.3561 16.2715 13.1957 16.5559 12.9113C16.8403 12.6268 17.0006 12.2414 17.0017 11.8391V4.30688C16.7192 4.61915 16.4 4.89617 16.0511 5.13191Z" fill="white"/>
</g>
<defs>
<clipPath id="clip0_236_95">
<rect width="17" height="13.357" fill="white"/>
</clipPath>
</defs>
</svg>
