<?xml version="1.0" encoding="utf-8"?>
<!-- Generator: Adobe Illustrator 26.0.0, SVG Export Plug-In . SVG Version: 6.00 Build 0)  -->
<svg version="1.1" id="Layer_1" xmlns="http://www.w3.org/2000/svg" xmlns:xlink="http://www.w3.org/1999/xlink" x="0px" y="0px"
	 viewBox="0 0 41 43.8" style="enable-background:new 0 0 41 43.8;" xml:space="preserve">
<style type="text/css">
	.st0{fill:#568259;}
</style>
<g id="Corona_Virus_Symptoms_Fever">
	<g id="Outline_00000129166066646156686040000006835978856279652484_">
		<path class="st0" d="M-113.5-69.5c0.6-2.4,0.5-4.5-0.2-6.1c-0.5-1.2-1.4-1.9-2.5-2c-1.1-2-3.4-2-5.6-1.6c-0.6,0.1-0.4,1.1,0.2,0.9
			c4.9-0.9,4.3,1.5,5.1,1.6c1.1,0,1.7,0.8,2,1.5c0.6,1.3,0.7,3.3,0.2,5.4c-0.6,2.4-1.8,5-3.6,7.3c-0.8-0.4-1.5-0.9-2-1.5
			c-0.4-0.5-1.1,0.1-0.8,0.6c0.6,0.8,1.4,1.4,2.4,1.9c0,2.2-0.1,2.2,0.1,2.4c4.9,6.5,2.3,10.2,3.7,10.2c0.3,0,0.5-0.2,0.5-0.5
			c0-3.5-0.6-6.4-3.3-10.2v-2.2C-115.4-64.2-114.1-66.9-113.5-69.5L-113.5-69.5z"/>
		<path class="st0" d="M-121.2-66.1c-0.6,0-0.6,1,0,1c3.1,0,3-5.2,0.6-5.2c-1.6,0-2.1,2.3-1.1,2.3c0.3,0,0.5-0.2,0.5-0.5
			c0-1.3,1.4-1.2,1.4,0.5C-119.8-67.4-119.9-66.1-121.2-66.1L-121.2-66.1z"/>
		<path class="st0" d="M-120.3-56.5c-1.8,0-3.3,1.5-3.3,3.3v3.8c0,0.6,1,0.6,1,0v-3.8c0-1.3,1.1-2.4,2.4-2.4c1.3,0,2.4,1.1,2.4,2.4
			v3.8c0,0.6,1,0.6,1,0v-3.8C-116.9-55-118.4-56.5-120.3-56.5z"/>
		<path class="st0" d="M-120-58.9c-1.3,0.6-3.2,1.2-5,1.4c1.3-1.8,0.9-0.4,0.9-3.8c0-0.3-0.2-0.5-0.5-0.5h-3.6
			c-0.7,0-1.2-0.5-1.2-1.2v-2.1c0-0.4-0.4-0.5-1.3-1.1c1.2-1.6,1.3-1.6,1.3-1.9v-2.6c0.3,0.1,0.6,0.2,0.9,0.2
			c0.6,0.1,0.8-0.8,0.2-0.9c-2.4-0.4-3.3-2.7-3.4-5.2c1.3,0.7,3.3,0.1,6.4-0.8c0.6-0.2,0.3-1.1-0.3-0.9c-2.6,0.8-5.5,1.7-6.2,0.4
			c-0.2-0.4-0.9-0.3-0.9,0.2c-0.2,2.2,0.5,5.1,2.4,6.5v3l-1.5,1.9c-0.2,0.2-0.1,0.5,0.1,0.7c0,0,0,0,0,0l1.3,0.8v1.9
			c0,1.2,1,2.1,2.1,2.1h3.1v1.7c-0.4,0.5-0.8,1.1-1.2,1.7c-0.1,0.1-0.2,0.2-0.2,0.3c-1.4,2.3-2.4,5-2.4,7.7c0,0.3,0.2,0.5,0.5,0.5
			s0.5-0.2,0.5-0.5c0-2.9,1.2-5.5,2.2-7.2c2.2-0.1,4.5-0.9,6.1-1.5C-119-58.2-119.4-59.1-120-58.9L-120-58.9z"/>
		<path class="st0" d="M-125.9-72.9c-0.2,0.4-1.5,2.7-1.5,3.6c0,1.1,0.9,1.9,1.9,1.9c1.1,0,1.9-0.9,1.9-1.9c0-0.9-1.2-3.1-1.5-3.6
			c-0.1-0.2-0.4-0.3-0.7-0.2C-125.8-73.1-125.9-73-125.9-72.9L-125.9-72.9z M-125.5-68.4c-0.5,0-1-0.4-1-1c0-0.3,0.4-1.3,1-2.3
			c0.5,1,1,2,1,2.3C-124.6-68.8-125-68.4-125.5-68.4z"/>
		<path class="st0" d="M-135.1-61.9v-13.1c0-0.8-0.6-1.4-1.4-1.4h-3.8c-0.8,0-1.4,0.6-1.4,1.4v13.1c-3.8,3.1-1.6,9.3,3.3,9.3
			C-133.6-52.6-131.2-58.8-135.1-61.9z M-138.5-53.6c-4-0.1-5.8-5.3-2.5-7.7c0.4-0.3,0.1-0.3,0.2-8.5h1.4c0.6,0,0.6-1,0-1h-1.4v-1
			h2.4c0.6,0,0.6-1,0-1h-2.4v-1h1.4c0.6,0,0.6-1,0-1h-1.4c0-0.1-0.2-1,0.5-1h3.8c0.3,0,0.5,0.2,0.5,0.5c0.1,13.9-0.2,13.5,0.2,13.8
			C-132.5-58.8-134.4-53.5-138.5-53.6z"/>
		<path class="st0" d="M-137-60.9v-7.5c0-0.3-0.2-0.5-0.5-0.5h-1.9c-0.3,0-0.5,0.2-0.5,0.5v7.5c-3.2,1.5-2.1,6.4,1.4,6.4
			C-134.9-54.6-133.8-59.4-137-60.9L-137-60.9z M-138.4-55.5c-2.7,0-3.3-3.7-0.8-4.6c0.6-0.2,0.2-0.6,0.3-7.8h1
			c0.1,7.3-0.3,7.6,0.3,7.8C-135.1-59.3-135.7-55.5-138.4-55.5z"/>
		<path class="st0" d="M-143.2-52.6c0,0.6,1,0.6,1,0C-142.2-53.3-143.2-53.3-143.2-52.6z"/>
		<path class="st0" d="M-140.8-52.2c-0.6,0-0.6,1,0,1C-140.2-51.2-140.2-52.2-140.8-52.2z"/>
		<path class="st0" d="M-136.5-51.7c0,0.6,1,0.6,1,0C-135.5-52.3-136.5-52.3-136.5-51.7z"/>
		<path class="st0" d="M-138.9-51.2c0,0.6,1,0.6,1,0S-138.9-51.8-138.9-51.2z"/>
		<path class="st0" d="M-134.1-53.1c-0.6,0-0.6,1,0,1C-133.5-52.2-133.5-53.1-134.1-53.1z"/>
		<path class="st0" d="M-123.6-77.9c0.6,0,0.6-1,0-1S-124.2-77.9-123.6-77.9z"/>
	</g>
</g>
<path class="st0" d="M6.4,40c-0.3,0-0.5-0.2-0.6-0.4c0,0-0.8-3-3.1-3.7c-0.3-0.1-0.5-0.4-0.4-0.7c0.1-0.2,0.2-0.3,0.4-0.4
	C5,34,5.8,31,5.8,31c0.1-0.3,0.3-0.4,0.6-0.4l0,0c0.3,0,0.5,0.2,0.6,0.4c0,0,0.8,3,3.1,3.7c0.3,0.1,0.5,0.4,0.4,0.7
	c-0.1,0.2-0.2,0.3-0.4,0.4C7.8,36.6,7,39.5,7,39.6C6.9,39.8,6.7,40,6.4,40z M4.2,35.3c0.9,0.7,1.7,1.5,2.2,2.6
	c0.5-1,1.2-1.9,2.2-2.6c-0.9-0.7-1.7-1.5-2.2-2.6C5.9,33.7,5.2,34.6,4.2,35.3z"/>
<path class="st0" d="M35.9,35.3L35.9,35.3c-0.3,0-0.5-0.2-0.6-0.4c0,0-0.5-2.1-2-2.5c-0.3-0.1-0.5-0.4-0.4-0.7
	c0.1-0.2,0.2-0.3,0.4-0.4c1.4-0.5,2-2.5,2-2.5c0.1-0.3,0.3-0.4,0.6-0.4c0.3,0,0.5,0.2,0.6,0.4l0,0c0,0,0.5,2.1,2,2.5
	c0.3,0.1,0.5,0.4,0.4,0.7c-0.1,0.2-0.2,0.3-0.4,0.4c-1.4,0.5-2,2.5-2,2.5C36.4,35.1,36.2,35.3,35.9,35.3z M34.8,31.7
	c0.5,0.4,0.9,0.9,1.2,1.4c0.3-0.5,0.7-1,1.2-1.4c-0.5-0.4-0.9-0.9-1.2-1.4C35.6,30.9,35.2,31.3,34.8,31.7z"/>
<path class="st0" d="M8.8,12.8L8.8,12.8c-0.3,0-0.5-0.2-0.6-0.4c0,0-0.5-2.1-2-2.5C5.9,9.7,5.7,9.4,5.8,9.1C5.9,8.9,6,8.8,6.2,8.7
	c1.4-0.5,2-2.5,2-2.5c0.1-0.3,0.3-0.4,0.6-0.4c0.3,0,0.5,0.2,0.6,0.4l0,0c0,0,0.5,2.1,2,2.5c0.3,0.1,0.5,0.4,0.4,0.7
	c-0.1,0.2-0.2,0.3-0.4,0.4c-1.4,0.5-2,2.5-2,2.5C9.3,12.6,9,12.8,8.8,12.8z M7.6,9.3c0.5,0.4,0.9,0.9,1.2,1.4c0.3-0.5,0.7-1,1.2-1.4
	C9.4,8.9,9,8.4,8.8,7.9C8.5,8.4,8.1,8.9,7.6,9.3z"/>
<path class="st0" d="M35.9,11.1L35.9,11.1c-0.3,0-0.5-0.2-0.6-0.5C35.3,10.2,34.8,9,34,8.7c-0.3-0.1-0.5-0.4-0.4-0.8
	c0.1-0.2,0.2-0.3,0.4-0.4c0.8-0.3,1.3-1.5,1.4-1.9c0.1-0.3,0.3-0.5,0.6-0.5l0,0c0.3,0,0.5,0.2,0.6,0.5l0,0c0.1,0.4,0.6,1.6,1.4,1.9
	c0.3,0.1,0.5,0.4,0.4,0.8c-0.1,0.2-0.2,0.3-0.4,0.4c-0.8,0.3-1.3,1.5-1.4,1.9C36.4,10.9,36.2,11.1,35.9,11.1z M35.3,8.1
	c0.3,0.2,0.5,0.5,0.7,0.8c0.2-0.3,0.4-0.6,0.7-0.8c-0.3-0.2-0.5-0.5-0.7-0.8C35.7,7.6,35.5,7.9,35.3,8.1z"/>
<path class="st0" d="M20.6,40.6c-5.4,0-10.1-5.1-11.3-12.1c-0.5-0.2-1-0.6-1.4-1c-0.9-0.8-1.4-1.9-1.4-3.1c0-0.8,0.3-1.6,0.9-2.2
	c0.1-0.1,0.2-0.2,0.3-0.2c0.5-0.3,1-0.6,1.6-0.6C10,13.5,13.7,9.6,20.6,9.6S31.2,13.5,32,21.4c0.6,0.1,1.1,0.3,1.6,0.6
	c0.1,0.1,0.2,0.1,0.3,0.2c0.6,0.6,0.9,1.4,0.9,2.2c0,1.2-0.6,2.3-1.4,3.1l0,0c-0.4,0.4-0.9,0.7-1.4,1C30.7,35.5,26,40.6,20.6,40.6z
	 M9.6,22.5c-0.5,0-0.9,0.1-1.3,0.4c-0.1,0-0.1,0.1-0.2,0.1c-0.4,0.4-0.6,0.9-0.5,1.4c0,0.9,0.4,1.7,1.1,2.3c0.4,0.4,0.8,0.7,1.3,0.8
	c0.2,0.1,0.4,0.3,0.4,0.5c1,6.6,5.3,11.4,10.2,11.4s9.2-4.8,10.2-11.4c0-0.2,0.2-0.4,0.4-0.5c0.5-0.2,1-0.5,1.4-0.8l0,0
	c0.6-0.6,1-1.4,1.1-2.3c0-0.5-0.2-1-0.5-1.4c0,0-0.1-0.1-0.1-0.1c-0.4-0.3-0.9-0.4-1.5-0.4c-0.3,0-0.6-0.2-0.6-0.5
	c-0.6-7.6-3.9-11.1-10.3-11.1S10.9,14.4,10.3,22c0,0.3-0.3,0.6-0.6,0.5C9.6,22.5,9.6,22.5,9.6,22.5z"/>
<path class="st0" d="M33.2,23c-0.1,0-0.1,0-0.2,0c-0.3-0.1-0.5-0.4-0.4-0.7c0,0,0,0,0,0c0.3-1.1,0.5-2.3,0.5-3.5
	c0-8-5.2-13.6-12.6-13.6c-2.9-0.1-5.7,0.9-7.9,2.7c-0.3,0.2-0.6,0.2-0.8-0.1c-0.2-0.3-0.2-0.6,0.1-0.8c2.4-2,5.5-3,8.6-3
	c8,0,13.8,6.2,13.8,14.8c0,1.3-0.2,2.6-0.6,3.9C33.7,22.8,33.5,23,33.2,23z"/>
<path class="st0" d="M7.9,23c-0.3,0-0.5-0.2-0.6-0.4C7,21.3,6.8,20,6.8,18.7c0-1.7,0.2-3.3,0.7-4.9c0.1-0.3,0.4-0.5,0.7-0.4
	c0.3,0.1,0.5,0.4,0.4,0.7c0,0,0,0,0,0c-0.4,1.5-0.6,3-0.6,4.6c0,1.2,0.2,2.4,0.5,3.5c0.1,0.3-0.1,0.6-0.4,0.7c0,0,0,0,0,0
	C8,23,8,23,7.9,23z"/>
<path class="st0" d="M16.2,25.7c-0.9,0-1.9-0.3-2.6-0.9c-0.2-0.2-0.2-0.6,0-0.8c0.2-0.2,0.6-0.2,0.8,0c0.5,0.4,1.1,0.6,1.8,0.5
	c0.6,0,1.3-0.2,1.8-0.5c0.2-0.2,0.6-0.2,0.8,0c0.2,0.2,0.2,0.6,0,0.8C18.1,25.4,17.1,25.7,16.2,25.7z"/>
<path class="st0" d="M25,25.7c-0.9,0-1.9-0.3-2.6-0.9c-0.2-0.2-0.2-0.6,0-0.8c0.2-0.2,0.6-0.2,0.8,0c0,0,0,0,0,0
	c0.5,0.4,1.1,0.6,1.8,0.5c0.6,0,1.3-0.2,1.8-0.5c0.2-0.2,0.6-0.2,0.8,0c0.2,0.2,0.2,0.6,0,0.8C26.8,25.4,25.9,25.7,25,25.7z"/>
<path class="st0" d="M18.4,21.6c-0.2,0-0.4-0.1-0.5-0.3c-0.4-0.6-1-1-1.7-1c-0.7,0-1.3,0.4-1.7,1c-0.2,0.3-0.5,0.4-0.8,0.2
	c-0.3-0.2-0.4-0.5-0.2-0.8c0.6-1,1.6-1.6,2.7-1.6c1.1,0,2.1,0.6,2.7,1.6c0.2,0.3,0.1,0.6-0.2,0.8C18.6,21.5,18.5,21.6,18.4,21.6
	L18.4,21.6z"/>
<path class="st0" d="M27.2,21.6c-0.2,0-0.4-0.1-0.5-0.3l0,0c-0.5-0.9-1.7-1.3-2.6-0.8c-0.3,0.2-0.6,0.4-0.8,0.8
	c-0.2,0.3-0.5,0.4-0.8,0.2c-0.3-0.2-0.4-0.5-0.2-0.8c0,0,0,0,0,0c0.8-1.5,2.7-2,4.2-1.2c0.5,0.3,0.9,0.7,1.2,1.2
	c0.2,0.3,0.1,0.6-0.2,0.8C27.4,21.5,27.3,21.6,27.2,21.6L27.2,21.6z"/>
<path class="st0" d="M20.6,33.7c-1.6,0-3.1-0.7-4.1-1.9c-0.2-0.3-0.1-0.6,0.1-0.8c0.3-0.2,0.6-0.1,0.8,0.1c1.6,1.8,4.3,1.9,6.1,0.3
	c0.1-0.1,0.2-0.2,0.3-0.3c0.2-0.3,0.6-0.3,0.8-0.1c0.3,0.2,0.3,0.6,0.1,0.8c0,0,0,0,0,0C23.7,33.1,22.2,33.8,20.6,33.7z"/>
<path class="st0" d="M18.2,10.7l-1.1-0.5c2.5-5,10.9-3.9,11.2-3.9l-0.2,1.2C28.1,7.5,20.3,6.4,18.2,10.7z"/>
<path class="st0" d="M30,16.4c-0.1,0-0.2,0-0.3-0.1c0,0-3.5-2.3-9.7-2.3c-5.6,0-8.5,2.2-8.5,2.2c-0.3,0.2-0.6,0.2-0.8-0.1
	c-0.2-0.3-0.2-0.6,0.1-0.8l0,0c0.1-0.1,3.2-2.5,9.2-2.5c6.6,0,10.2,2.4,10.4,2.5c0.3,0.2,0.3,0.5,0.2,0.8
	C30.4,16.3,30.2,16.4,30,16.4z"/>
</svg>
