<?xml version="1.0" encoding="utf-8"?>
<!-- Generator: Adobe Illustrator 26.0.0, SVG Export Plug-In . SVG Version: 6.00 Build 0)  -->
<svg version="1.1" id="svg2499" xmlns:svg="http://www.w3.org/2000/svg"
	 xmlns="http://www.w3.org/2000/svg" xmlns:xlink="http://www.w3.org/1999/xlink" x="0px" y="0px" viewBox="0 0 682.7 682.7"
	 style="enable-background:new 0 0 682.7 682.7;" xml:space="preserve">
<style type="text/css">
	.st0{fill:#C8966D;}
	.st1{fill:#58815B;}
</style>
<g>
	<path class="st0" d="M343,31.2c41.9,0,82.5,8.2,120.8,24.4c36.9,15.6,70.1,38,98.6,66.5c28.5,28.5,50.9,61.7,66.5,98.6
		c16.2,38.2,24.4,78.9,24.4,120.8S645,424,628.9,462.3c-15.6,36.9-38,70.1-66.5,98.6c-28.5,28.5-61.7,50.9-98.6,66.5
		c-38.2,16.2-78.9,24.4-120.8,24.4s-82.5-8.2-120.8-24.4c-36.9-15.6-70.1-38-98.6-66.5c-28.5-28.5-50.9-61.7-66.5-98.6
		C41,424,32.8,383.4,32.8,341.5S41,259,57.1,220.7c15.6-36.9,38-70.1,66.5-98.6c28.5-28.5,61.7-50.9,98.6-66.5
		C260.5,39.5,301.1,31.2,343,31.2 M343,13.2c-181.3,0-328.2,147-328.2,328.2s147,328.2,328.2,328.2s328.2-147,328.2-328.2
		S524.3,13.2,343,13.2L343,13.2z"/>
</g>
<g>
	<g>
		<g>
			<path class="st1" d="M399.5,371.3c-5.1-5.3-11.3-8.2-17.8-8.2c-6.5,0-12.7,2.8-18,8.1l-16.6,16.6c-1.4-0.7-2.7-1.4-4-2.1
				c-1.9-0.9-3.7-1.8-5.2-2.8c-15.6-9.9-29.7-22.8-43.3-39.4c-6.6-8.3-11-15.3-14.2-22.4c4.3-3.9,8.3-8,12.2-12
				c1.5-1.5,2.9-3,4.4-4.5c11-11,11-25.4,0-36.4l-14.4-14.4c-1.6-1.6-3.3-3.3-4.9-5c-3.2-3.3-6.5-6.6-9.9-9.8
				c-5.1-5-11.2-7.7-17.6-7.7c-6.4,0-12.6,2.7-17.9,7.7c-0.1,0.1-0.1,0.1-0.1,0.1l-17.9,18c-6.7,6.7-10.6,14.9-11.4,24.5
				c-1.3,15.4,3.3,29.7,6.7,39c8.5,23,21.2,44.3,40.2,67.1c23,27.5,50.8,49.2,82.4,64.5c12.1,5.7,28.2,12.5,46.3,13.7
				c1.1,0.1,2.3,0.1,3.3,0.1c12.1,0,22.4-4.4,30.3-13c0.1-0.1,0.2-0.2,0.2-0.3c2.7-3.3,5.9-6.3,9.2-9.5c2.3-2.2,4.6-4.4,6.8-6.8
				c5.2-5.4,7.9-11.7,7.9-18.2c0-6.5-2.8-12.8-8.1-18L399.5,371.3z M418.4,426.7C418.3,426.7,418.3,426.7,418.4,426.7
				c-2.1,2.2-4.2,4.2-6.4,6.4c-3.4,3.3-6.9,6.7-10.2,10.5c-5.3,5.7-11.6,8.4-19.8,8.4c-0.8,0-1.6,0-2.4-0.1
				c-15.6-1-30.1-7.1-41-12.3c-29.8-14.4-55.9-34.9-77.6-60.8c-17.9-21.6-29.9-41.6-37.9-63.1c-4.9-13.1-6.7-23.3-5.9-32.9
				c0.5-6.2,2.9-11.3,7.3-15.6l17.9-17.9c2.6-2.4,5.3-3.7,8-3.7c3.3,0,6,2,7.7,3.7c0.1,0.1,0.1,0.1,0.2,0.2c3.2,3,6.3,6.1,9.5,9.4
				c1.6,1.7,3.3,3.4,5,5.1l14.4,14.4c5.6,5.6,5.6,10.7,0,16.3c-1.5,1.5-3,3.1-4.5,4.5c-4.4,4.5-8.6,8.7-13.2,12.8
				c-0.1,0.1-0.2,0.2-0.3,0.3c-4.5,4.5-3.7,8.9-2.7,11.9c0.1,0.2,0.1,0.3,0.2,0.5c3.7,9,9,17.6,17,27.7l0.1,0.1
				c14.5,17.9,29.8,31.8,46.7,42.5c2.2,1.4,4.4,2.5,6.5,3.5c1.9,0.9,3.7,1.8,5.2,2.8c0.2,0.1,0.4,0.3,0.6,0.4
				c1.8,0.9,3.5,1.3,5.2,1.3c4.4,0,7.1-2.7,8-3.6l18-18c1.8-1.8,4.6-3.9,7.9-3.9c3.3,0,5.9,2.1,7.6,3.8c0.1,0.1,0.1,0.1,0.1,0.1
				l29,29C423.7,415.6,423.7,421.1,418.4,426.7z"/>
		</g>
		<g>
			<path class="st1" d="M337.3,276.2c13.8,2.3,26.3,8.8,36.3,18.8s16.5,22.5,18.8,36.3c0.6,3.5,3.6,5.9,7,5.9c0.4,0,0.8-0.1,1.2-0.1
				c3.9-0.6,6.5-4.3,5.8-8.2c-2.8-16.7-10.7-31.9-22.8-43.9c-12-12-27.2-19.9-43.9-22.8c-3.9-0.6-7.5,1.9-8.2,5.8
				C330.9,271.8,333.4,275.5,337.3,276.2z"/>
		</g>
		<g>
			<path class="st1" d="M451.5,326.8c-4.7-27.5-17.6-52.4-37.5-72.3c-19.9-19.9-44.9-32.8-72.3-37.5c-3.8-0.7-7.5,1.9-8.2,5.8
				c-0.6,3.9,1.9,7.5,5.8,8.2c24.5,4.2,46.9,15.8,64.6,33.5c17.8,17.8,29.3,40.1,33.5,64.6c0.6,3.5,3.6,5.9,7,5.9
				c0.4,0,0.8-0.1,1.2-0.1C449.6,334.3,452.2,330.7,451.5,326.8z"/>
		</g>
	</g>
</g>
</svg>
