<svg width="133" height="254" viewBox="0 0 133 254" fill="none" xmlns="http://www.w3.org/2000/svg">
<g clip-path="url(#clip0_17_41)">
<path d="M4.29028 254C-0.910106 251.148 -1.36514 247.519 2.92518 243.176C41.0831 205.196 79.1759 167.216 117.269 129.236C117.984 128.523 118.764 128.005 120.259 126.838C118.894 125.931 117.984 125.477 117.269 124.764C79.2409 86.8487 41.1481 48.9334 3.1852 10.8885C1.8851 9.59226 0.845026 7.90713 0.324987 6.1572C-0.325062 4.01839 0.780021 2.13883 2.73017 0.907388C4.68031 -0.324048 6.63046 -0.388861 8.58061 0.907388C9.42567 1.4907 10.1407 2.07401 10.8558 2.78695C50.6388 42.3874 90.3568 82.0526 130.14 121.718C134.04 125.607 134.04 128.329 130.14 132.217C90.3568 171.818 50.6388 211.418 10.9208 250.954C9.68569 252.12 8.12557 252.963 6.76047 254H4.29028Z" fill="#A76537"/>
</g>
<defs>
<clipPath id="clip0_17_41">
<rect width="133" height="254" fill="white"/>
</clipPath>
</defs>
</svg>