<svg xmlns="http://www.w3.org/2000/svg" xmlns:xlink="http://www.w3.org/1999/xlink" width="1366" zoomAndPan="magnify" viewBox="0 0 1024.5 576" height="768" preserveAspectRatio="xMidYMid meet" version="1.2"><defs><clipPath id="4146033f09"><path d="M 455.214844 231.214844 L 568.785156 231.214844 L 568.785156 344.785156 L 455.214844 344.785156 Z M 455.214844 231.214844 "/></clipPath><clipPath id="b87ace3a2f"><path d="M 512 231.214844 C 480.640625 231.214844 455.214844 256.640625 455.214844 288 C 455.214844 319.359375 480.640625 344.785156 512 344.785156 C 543.359375 344.785156 568.785156 319.359375 568.785156 288 C 568.785156 256.640625 543.359375 231.214844 512 231.214844 Z M 512 231.214844 "/></clipPath><clipPath id="a1d5f15437"><path d="M 491 245.375 L 533 245.375 L 533 330.648438 L 491 330.648438 Z M 491 245.375 "/></clipPath></defs><g id="791ac9ef8e"><g clip-rule="nonzero" clip-path="url(#4146033f09)"><g clip-rule="nonzero" clip-path="url(#b87ace3a2f)"><path style=" stroke:none;fill-rule:nonzero;fill:#57815a;fill-opacity:1;" d="M 455.214844 231.214844 L 568.785156 231.214844 L 568.785156 344.785156 L 455.214844 344.785156 Z M 455.214844 231.214844 "/></g></g><g clip-rule="nonzero" clip-path="url(#a1d5f15437)"><path style=" stroke:none;fill-rule:nonzero;fill:#ffffff;fill-opacity:1;" d="M 527.929688 297.519531 C 530.769531 293.394531 534.144531 284.089844 531.816406 281.785156 C 531.109375 281.078125 529.683594 280.957031 527.941406 281.183594 C 529.691406 278.746094 530.910156 275.363281 531.414062 273.839844 C 533.566406 267.222656 532.316406 265.984375 531.78125 265.460938 C 529.507812 263.210938 520.019531 266.757812 515.992188 269.585938 C 518.300781 267.582031 520.324219 264.296875 520.300781 260.890625 C 520.28125 256.722656 515.425781 245.375 511.75 245.375 C 510.964844 245.375 509.324219 245.386719 506.199219 251.609375 C 505.328125 253.339844 503.328125 257.703125 503.335938 260.976562 C 503.359375 264.394531 505.296875 267.539062 507.539062 269.5 C 503.425781 266.703125 494.121094 263.308594 491.878906 265.539062 C 489.574219 267.84375 492.976562 277.136719 495.828125 281.25 C 494.078125 281.023438 492.628906 281.140625 491.910156 281.859375 C 489.605469 284.167969 493.011719 293.460938 495.863281 297.574219 C 494.109375 297.34375 492.664062 297.464844 491.945312 298.183594 C 489.34375 300.773438 493.992188 312.242188 496.929688 315.191406 C 499.3125 317.574219 502.511719 318.140625 504.21875 318.269531 C 504.449219 318.292969 504.796875 318.300781 505.210938 318.300781 C 506.503906 318.300781 508.496094 318.128906 509.878906 317.183594 L 509.878906 328.335938 C 509.898438 329.53125 510.867188 330.511719 512.066406 330.511719 C 513.261719 330.511719 514.242188 329.53125 514.242188 328.335938 L 514.242188 317.324219 C 515.308594 317.933594 516.863281 318.269531 518.59375 318.269531 C 521.457031 318.269531 524.753906 317.335938 526.929688 315.136719 C 529.855469 312.175781 534.460938 300.695312 531.847656 298.105469 C 531.128906 297.398438 529.683594 297.28125 527.929688 297.519531 Z M 523.804688 295.757812 C 521.640625 297.941406 517.503906 297.824219 516.460938 297.300781 C 515.917969 296.277344 515.753906 292.144531 517.929688 289.945312 C 519.867188 287.988281 525.382812 286.058594 528.179688 285.503906 C 527.65625 288.269531 525.785156 293.753906 523.796875 295.765625 Z M 517.898438 273.621094 C 519.835938 271.664062 525.351562 269.738281 528.148438 269.183594 C 527.625 271.9375 525.753906 277.429688 523.761719 279.445312 C 521.597656 281.632812 517.460938 281.511719 516.417969 280.988281 C 515.875 279.957031 515.710938 275.832031 517.886719 273.632812 Z M 511.804688 250.566406 C 513.390625 252.882812 515.9375 258.09375 515.960938 260.914062 C 515.972656 263.980469 512.96875 266.832031 511.859375 267.191406 C 510.75 266.855469 507.710938 264.046875 507.703125 260.957031 C 507.691406 258.203125 510.226562 252.9375 511.816406 250.566406 Z M 511.867188 271.566406 L 511.878906 271.566406 C 512.835938 271.566406 513.980469 271.085938 515.113281 270.28125 C 515.015625 270.371094 514.894531 270.46875 514.808594 270.554688 C 513.085938 272.296875 512.164062 274.632812 511.847656 276.910156 C 511.597656 275.136719 510.878906 272.566406 508.886719 270.566406 C 508.820312 270.5 508.722656 270.421875 508.648438 270.359375 C 509.78125 271.121094 510.921875 271.566406 511.867188 271.566406 Z M 505.808594 273.644531 C 507.996094 275.832031 507.855469 279.964844 507.308594 280.988281 C 506.265625 281.523438 502.128906 281.652344 499.964844 279.476562 C 497.972656 277.476562 496.070312 271.992188 495.546875 269.238281 C 498.355469 269.792969 503.871094 271.695312 505.820312 273.644531 Z M 510.390625 284.089844 C 511.292969 283.199219 511.695312 281.847656 511.867188 280.597656 C 512.109375 282.097656 512.628906 283.351562 513.359375 284.078125 C 514.054688 284.777344 515.253906 285.253906 516.679688 285.484375 C 515.917969 285.972656 515.265625 286.453125 514.839844 286.886719 C 513.121094 288.628906 512.195312 290.96875 511.878906 293.242188 C 511.628906 291.46875 510.910156 288.902344 508.921875 286.898438 C 508.484375 286.464844 507.84375 285.996094 507.070312 285.503906 C 508.496094 285.277344 509.691406 284.789062 510.390625 284.089844 Z M 505.839844 289.96875 C 508.027344 292.152344 507.886719 296.289062 507.34375 297.3125 C 506.296875 297.84375 502.164062 297.976562 499.996094 295.800781 C 498.003906 293.796875 496.101562 288.3125 495.578125 285.558594 C 498.386719 286.113281 503.902344 288.019531 505.851562 289.96875 Z M 507.375 313.632812 C 506.339844 314.167969 502.195312 314.296875 500.03125 312.121094 C 498.039062 310.121094 496.132812 304.636719 495.613281 301.882812 C 498.417969 302.4375 503.9375 304.339844 505.882812 306.289062 C 508.070312 308.476562 507.929688 312.613281 507.386719 313.632812 Z M 514.882812 303.199219 C 513.164062 304.941406 512.238281 307.28125 511.921875 309.554688 C 511.671875 307.78125 510.953125 305.210938 508.964844 303.210938 C 508.527344 302.773438 507.886719 302.308594 507.113281 301.816406 C 508.539062 301.589844 509.734375 301.097656 510.433594 300.402344 C 511.335938 299.511719 511.738281 298.160156 511.914062 296.910156 C 512.152344 298.410156 512.675781 299.664062 513.402344 300.390625 C 514.253906 301.230469 515.503906 301.632812 516.691406 301.816406 C 515.9375 302.296875 515.308594 302.765625 514.882812 303.199219 Z M 523.847656 312.078125 C 521.683594 314.265625 517.550781 314.144531 516.503906 313.625 C 515.960938 312.589844 515.796875 308.464844 517.972656 306.265625 C 519.910156 304.308594 525.425781 302.382812 528.222656 301.828125 C 527.703125 304.582031 525.828125 310.074219 523.839844 312.089844 Z M 523.847656 312.078125 "/></g><path style="fill:none;stroke-width:10;stroke-linecap:butt;stroke-linejoin:miter;stroke:#ffffff;stroke-opacity:1;stroke-miterlimit:4;" d="M 0.000625527 4.998728 L 46.081635 4.998772 " transform="matrix(0.387225,-0.303644,0.303644,0.387225,464.669426,319.337993)"/><path style="fill:none;stroke-width:10;stroke-linecap:butt;stroke-linejoin:miter;stroke:#ffffff;stroke-opacity:1;stroke-miterlimit:4;" d="M 0.00404503 4.999397 L 46.085055 4.999441 " transform="matrix(0.387225,-0.303644,0.303644,0.387225,538.413992,266.162991)"/></g></svg>