<?xml version="1.0" encoding="utf-8"?>
<!-- Generator: Adobe Illustrator 26.0.0, SVG Export Plug-In . SVG Version: 6.00 Build 0)  -->
<svg version="1.1" id="Layer_1" xmlns="http://www.w3.org/2000/svg" xmlns:xlink="http://www.w3.org/1999/xlink" x="0px" y="0px"
	 viewBox="0 0 512 189.9" style="enable-background:new 0 0 512 189.9;" xml:space="preserve">
<style type="text/css">
	.st0{fill:#568259;}
</style>
<g>
	<g>
		<g>
			<g>
				<path class="st0" d="M500.2,105.4c4.2,0,8-2.5,9.7-6.4c1.6-4,0.7-8.5-2.3-11.5L426,5.8c-4.1-4.1-10.8-4.1-14.9,0
					c-4.1,4.1-4.1,10.8,0,14.9l63.7,63.7h-463C6,84.4,1.3,89.1,1.3,94.9s4.7,10.5,10.5,10.5H500.2L500.2,105.4z"/>
			</g>
			<g>
				<path class="st0" d="M418.4,187.2c2.7,0,5.4-1,7.4-3l81.8-81.8c4.1-4.1,4.1-10.8,0-14.9s-10.8-4.1-14.9,0L411,169.2
					c-4.1,4.1-4.1,10.8,0,14.9C413,186.2,415.7,187.2,418.4,187.2L418.4,187.2z"/>
			</g>
		</g>
	</g>
</g>
</svg>
