<?xml version="1.0" encoding="utf-8"?>
<!-- Generator: Adobe Illustrator 26.0.0, SVG Export Plug-In . SVG Version: 6.00 Build 0)  -->
<svg version="1.1" id="Layer_1" xmlns="http://www.w3.org/2000/svg" xmlns:xlink="http://www.w3.org/1999/xlink" x="0px" y="0px"
	 viewBox="0 0 512 189.9" style="enable-background:new 0 0 512 189.9;" xml:space="preserve">
<style type="text/css">
	.st0{fill:#FFFFFF;}
</style>
<g>
	<g>
		<g>
			<g>
				<path class="st0" d="M11.8,105.4h488.4c5.8,0,10.5-4.7,10.5-10.5s-4.7-10.5-10.5-10.5h-463l63.7-63.7c4.1-4.1,4.1-10.8,0-14.9
					S90.1,1.7,86,5.8L4.4,87.5c-3,3-3.9,7.5-2.3,11.5C3.8,102.9,7.6,105.4,11.8,105.4L11.8,105.4z"/>
			</g>
			<g>
				<path class="st0" d="M93.6,187.2c2.7,0,5.4-1,7.4-3.1c4.1-4.1,4.1-10.8,0-14.9L19.3,87.5c-4.1-4.1-10.8-4.1-14.9,0
					s-4.1,10.8,0,14.9l81.8,81.8C88.2,186.2,90.9,187.2,93.6,187.2L93.6,187.2z"/>
			</g>
		</g>
	</g>
</g>
</svg>
