<?xml version="1.0" encoding="utf-8"?>
<!-- Generator: Adobe Illustrator 26.0.0, SVG Export Plug-In . SVG Version: 6.00 Build 0)  -->
<svg version="1.1" id="Layer_1" xmlns="http://www.w3.org/2000/svg" xmlns:xlink="http://www.w3.org/1999/xlink" x="0px" y="0px"
	 viewBox="0 0 46 55" style="enable-background:new 0 0 46 55;" xml:space="preserve">
<style type="text/css">
	.st0{fill:#568259;}
</style>
<g>
	<g>
		<g>
			<path class="st0" d="M21.9,43.4c0-0.4-0.3-0.6-0.6-0.7c0,0,0,0,0,0C13,42.4,6.4,35.8,6.1,27.5h2.5c0.4,0,0.6-0.3,0.6-0.6
				c0-0.4-0.3-0.6-0.6-0.6H6.1c0.3-8.3,7-14.9,15.2-15.2v1.9c0,0.4,0.3,0.6,0.6,0.6c0.4,0,0.6-0.3,0.6-0.6V11
				c8.2,0.3,14.7,6.8,15.2,14.9l-2.5-2.5c-0.3-0.2-0.7-0.2-0.9,0c-0.2,0.2-0.2,0.6,0,0.9l3.5,3.5c0.1,0.1,0.2,0.1,0.3,0.2
				c0,0,0.1,0,0.1,0c0,0,0.1,0,0.1,0c0,0,0,0,0,0s0,0,0,0c0,0,0.1,0,0.1,0c0,0,0.1,0,0.1,0c0.1,0,0.2-0.1,0.2-0.1l3.6-3.6
				c0.2-0.3,0.2-0.7,0-0.9c-0.2-0.2-0.6-0.2-0.9,0L39.1,26c-0.5-9.1-8-16.3-17.1-16.3c0,0,0,0,0,0s0,0,0,0
				c-9.4,0-17.1,7.7-17.1,17.1c0,0,0,0,0,0s0,0,0,0c0,9.2,7.3,16.8,16.5,17.1h0C21.6,44,21.9,43.7,21.9,43.4z"/>
			<path class="st0" d="M30.5,18.3c-0.2-0.2-0.7-0.2-0.9,0l-6.8,6.8c-0.5-0.2-1.1-0.2-1.6,0l-3.2-3.2c-0.3-0.2-0.7-0.2-0.9,0
				c-0.2,0.2-0.2,0.6,0,0.9l3.2,3.2c-0.5,0.9-0.1,2.1,0.9,2.5c0.7,0.3,1.6,0.2,2.2-0.4c0.6-0.6,0.7-1.4,0.4-2.2l6.8-6.8
				C30.7,18.9,30.7,18.5,30.5,18.3z M22.4,27.3C22.4,27.3,22.4,27.3,22.4,27.3c-0.3,0.2-0.6,0.2-0.9,0c-0.2-0.2-0.2-0.7,0-0.9
				c0.2-0.2,0.7-0.2,0.9,0C22.6,26.6,22.6,27,22.4,27.3z"/>
		</g>
	</g>
</g>
<g>
	<path class="st0" d="M36.2,28.1v1.7l-8.3,17.3h-2.7l8.2-16.8v-0.1h-9.3v-2.1H36.2z"/>
</g>
</svg>
