<?xml version="1.0" encoding="utf-8"?>
<!-- Generator: Adobe Illustrator 26.0.0, SVG Export Plug-In . SVG Version: 6.00 Build 0)  -->
<svg version="1.1" id="Layer_1" xmlns="http://www.w3.org/2000/svg" xmlns:xlink="http://www.w3.org/1999/xlink" x="0px" y="0px"
	 viewBox="0 0 512 512" style="enable-background:new 0 0 512 512;" xml:space="preserve">
<style type="text/css">
	.st0{fill:#568259;}
</style>
<g>
	<g>
		<path class="st0" d="M315.3,18.7H196.7c-16.4,0-29.7,13.3-29.7,29.7c0,12.9,8.3,23.9,19.8,28v347.8c0,38.2,31,69.2,69.2,69.2
			s69.2-31,69.2-69.2V76.3c11.5-4.1,19.8-15.1,19.8-28C345,31.9,331.7,18.7,315.3,18.7z M305.4,424.1c0,27.3-22.2,49.4-49.4,49.4
			s-49.4-22.2-49.4-49.4v-89h29.7c5.5,0,9.9-4.4,9.9-9.9c0-5.5-4.4-9.9-9.9-9.9h-29.7v-39.6h29.7c5.5,0,9.9-4.4,9.9-9.9
			c0-5.5-4.4-9.9-9.9-9.9h-29.7v-39.6h98.9V424.1z M305.4,196.7h-98.9V78h98.9V196.7z M315.3,58.2H196.7c-5.4,0-9.9-4.4-9.9-9.9
			c0-5.5,4.4-9.9,9.9-9.9h118.7c5.4,0,9.9,4.4,9.9,9.9C325.2,53.8,320.8,58.2,315.3,58.2z"/>
	</g>
</g>
</svg>
