<?xml version="1.0" encoding="utf-8"?>
<!-- Generator: Adobe Illustrator 26.0.0, SVG Export Plug-In . SVG Version: 6.00 Build 0)  -->
<svg version="1.1" id="Layer_1" xmlns="http://www.w3.org/2000/svg" xmlns:xlink="http://www.w3.org/1999/xlink" x="0px" y="0px"
	 viewBox="0 0 46 35.7" style="enable-background:new 0 0 46 35.7;" xml:space="preserve">
<style type="text/css">
	.st0{clip-path:url(#SVGID_00000000197732709836061120000017772353780288501942_);}
	.st1{fill:#568259;}
	.st2{fill:#A9CCAC;}
</style>
<g>
	<defs>
		<rect id="SVGID_1_" x="5" y="4.1" width="36" height="31.6"/>
	</defs>
	<clipPath id="SVGID_00000114034348203771159040000015465289480334548362_">
		<use xlink:href="#SVGID_1_"  style="overflow:visible;"/>
	</clipPath>
	<g style="clip-path:url(#SVGID_00000114034348203771159040000015465289480334548362_);">
		<path class="st1" d="M9.5,4.2c-1.2,0-2.3,0.5-3.2,1.3C5.5,6.4,5,7.5,5,8.7v18c0,1.2,0.5,2.3,1.3,3.2c0.8,0.8,2,1.3,3.2,1.3h12.4
			c0.3,0,0.6-0.1,0.8-0.3c0.2-0.2,0.3-0.5,0.3-0.8c0-0.3-0.1-0.6-0.3-0.8c-0.2-0.2-0.5-0.3-0.8-0.3H9.5c-0.5,0-1-0.2-1.4-0.5
			c-0.4-0.3-0.7-0.7-0.8-1.2L20,19.5l3,1.8l15.7-9.4v7c0,0.3,0.1,0.6,0.3,0.8c0.2,0.2,0.5,0.3,0.8,0.3c0.3,0,0.6-0.1,0.8-0.3
			c0.2-0.2,0.3-0.5,0.3-0.8V8.7c0-1.2-0.5-2.3-1.3-3.2c-0.8-0.8-2-1.3-3.2-1.3H9.5z M17.8,18.2L7.3,24.7V11.8L17.8,18.2z M7.3,9.2
			V8.7c0-0.6,0.2-1.2,0.7-1.6c0.4-0.4,1-0.7,1.6-0.7h27c0.6,0,1.2,0.2,1.6,0.7c0.4,0.4,0.7,1,0.7,1.6v0.5L23,18.6L7.3,9.2z"/>
		<path class="st2" d="M37.1,31.8c2.3,0,3.6-1.9,3.6-4.6v-0.5c0-3.6-2.7-6.8-7.5-6.8h-0.1c-4.6,0-7.8,3.1-7.8,7.7v0.5
			c0,4.9,3.2,7.5,7.6,7.5h0.1c1.3,0,2.3-0.2,2.8-0.4v-1.6c-0.6,0.2-1.5,0.4-2.7,0.4h-0.1c-3,0-5.8-1.8-5.8-6v-0.4
			c0-3.7,2.4-6.1,5.9-6.1h0.1c3.5,0,5.6,2.4,5.6,5.2v0.3c0,2.2-0.7,3.1-1.4,3.1c-0.5,0-0.9-0.3-0.9-0.9v-4.9h-2v1.3h-0.1
			c-0.2-0.7-0.8-1.4-2.1-1.4c-1.7,0-2.8,1.2-2.8,3.1v1.2c0,2,1.1,3.2,2.8,3.2c1.1,0,2-0.5,2.3-1.4h0.1
			C34.8,31.3,35.9,31.8,37.1,31.8z M31.5,28.2v-0.5c0-1.2,0.5-1.8,1.3-1.8c0.7,0,1.3,0.4,1.3,1.6v0.8c0,1.3-0.6,1.7-1.3,1.7
			C32,30,31.5,29.5,31.5,28.2L31.5,28.2z"/>
	</g>
</g>
</svg>
