<?xml version="1.0" encoding="utf-8"?>
<!-- Generator: Adobe Illustrator 26.0.0, SVG Export Plug-In . SVG Version: 6.00 Build 0)  -->
<svg version="1.1" id="Layer_1" xmlns="http://www.w3.org/2000/svg" xmlns:xlink="http://www.w3.org/1999/xlink" x="0px" y="0px"
	 viewBox="0 0 46 35.7" style="enable-background:new 0 0 46 35.7;" xml:space="preserve">
<style type="text/css">
	.st0{clip-path:url(#SVGID_00000140693387710413654720000017451844782198934181_);}
	.st1{fill:#FFFFFF;filter:url(#Adobe_OpacityMaskFilter);}
	.st2{mask:url(#mask0_276_2_00000093861516097496052510000015814716498798481804_);}
	.st3{fill:#568259;}
	.st4{fill-rule:evenodd;clip-rule:evenodd;fill:#A9CCAC;}
</style>
<g>
	<defs>
		<rect id="SVGID_1_" x="5.2" y="2" width="31.7" height="31.7"/>
	</defs>
	<clipPath id="SVGID_00000166660997487646191200000017573032518361515686_">
		<use xlink:href="#SVGID_1_"  style="overflow:visible;"/>
	</clipPath>
	<g style="clip-path:url(#SVGID_00000166660997487646191200000017573032518361515686_);">
		<defs>
			<filter id="Adobe_OpacityMaskFilter" filterUnits="userSpaceOnUse" x="5.2" y="2" width="31.7" height="31.7">
				<feColorMatrix  type="matrix" values="1 0 0 0 0  0 1 0 0 0  0 0 1 0 0  0 0 0 1 0"/>
			</filter>
		</defs>
		
			<mask maskUnits="userSpaceOnUse" x="5.2" y="2" width="31.7" height="31.7" id="mask0_276_2_00000093861516097496052510000015814716498798481804_">
			<path class="st1" d="M36.8,2H5.2v31.7h31.7V2z"/>
		</mask>
		<g class="st2">
			<path class="st3" d="M12.4,4.6c-0.1-0.2-0.3-0.3-0.4-0.4c-0.2-0.1-0.4-0.1-0.5-0.2c-0.2,0-0.4,0-0.6,0.1
				c-0.2,0.1-0.3,0.2-0.5,0.3l-2,2c-1,1-1.3,2.3-0.9,3.5c1.7,4.9,4.6,9.4,8.2,13.1c3.7,3.7,8.2,6.5,13.1,8.2
				c1.2,0.4,2.5,0.1,3.5-0.9l2-2c0.1-0.1,0.2-0.3,0.3-0.5c0.1-0.2,0.1-0.4,0.1-0.6c0-0.2-0.1-0.4-0.2-0.5c-0.1-0.2-0.2-0.3-0.4-0.4
				l-4.6-3.6c-0.2-0.1-0.3-0.2-0.5-0.3c-0.2,0-0.4,0-0.6,0l-4.3,1.1c-0.6,0.1-1.2,0.1-1.8,0c-0.6-0.2-1.1-0.5-1.5-0.9L16,18
				c-0.4-0.4-0.7-0.9-0.9-1.5c-0.2-0.6-0.2-1.2,0-1.8l1.1-4.3c0-0.2,0.1-0.4,0-0.6c0-0.2-0.1-0.4-0.3-0.5L12.4,4.6z M8.9,3
				c0.3-0.3,0.8-0.6,1.2-0.8C10.6,2,11.1,2,11.6,2c0.5,0,1,0.2,1.4,0.4s0.8,0.5,1.1,0.9l3.6,4.6c0.7,0.8,0.9,1.9,0.6,3l-1.1,4.3
				c-0.1,0.2-0.1,0.5,0,0.7c0.1,0.2,0.2,0.4,0.3,0.6l4.9,4.9c0.2,0.2,0.4,0.3,0.6,0.3c0.2,0.1,0.5,0.1,0.7,0l4.3-1.1
				c0.5-0.1,1-0.1,1.6,0c0.5,0.1,1,0.3,1.4,0.7l4.6,3.6c1.6,1.3,1.8,3.7,0.3,5.2l-2,2c-1.5,1.5-3.7,2.1-5.7,1.4
				c-5.2-1.8-10-4.8-13.9-8.7c-3.9-3.9-6.9-8.7-8.7-13.9c-0.7-2-0.1-4.2,1.4-5.7L8.9,3L8.9,3z"/>
			<path class="st4" d="M29.9,4c0.3,0,0.5,0.1,0.7,0.3c0.2,0.2,0.3,0.4,0.3,0.7v3h3c0.3,0,0.5,0.1,0.7,0.3c0.2,0.2,0.3,0.4,0.3,0.7
				c0,0.3-0.1,0.5-0.3,0.7c-0.2,0.2-0.4,0.3-0.7,0.3h-3v3c0,0.3-0.1,0.5-0.3,0.7c-0.2,0.2-0.4,0.3-0.7,0.3c-0.3,0-0.5-0.1-0.7-0.3
				c-0.2-0.2-0.3-0.4-0.3-0.7v-3h-3c-0.3,0-0.5-0.1-0.7-0.3C25.1,9.4,25,9.2,25,8.9c0-0.3,0.1-0.5,0.3-0.7c0.2-0.2,0.4-0.3,0.7-0.3
				h3V5c0-0.3,0.1-0.5,0.3-0.7C29.4,4.1,29.6,4,29.9,4z"/>
		</g>
	</g>
</g>
</svg>
