<?xml version="1.0" encoding="utf-8"?>
<!-- Generator: Adobe Illustrator 26.0.0, SVG Export Plug-In . SVG Version: 6.00 Build 0)  -->
<svg version="1.1" id="Layer_1" xmlns="http://www.w3.org/2000/svg" xmlns:xlink="http://www.w3.org/1999/xlink" x="0px" y="0px"
	 viewBox="0 0 46 55" style="enable-background:new 0 0 46 55;" xml:space="preserve">
<style type="text/css">
	.st0{fill:#568259;}
</style>
<g>
	<path class="st0" d="M19.4,26.9c0.2,0,0.3-0.1,0.4-0.2l0.8-1.4l1.1,1.7c0.1,0.1,0.2,0.2,0.4,0.2c0.2,0,0.3-0.1,0.4-0.2l1.8-3.1
		l2.4,4.3c0.1,0.1,0.2,0.2,0.4,0.2c0,0,0,0,0,0c0.2,0,0.3-0.1,0.4-0.2l1.5-2.5h3.5c0.3,0,0.5-0.2,0.5-0.5s-0.2-0.5-0.5-0.5h-3.8
		c-0.2,0-0.3,0.1-0.4,0.2l-1.2,2l-2.4-4.3c-0.1-0.1-0.2-0.2-0.4-0.2c0,0,0,0,0,0c-0.2,0-0.3,0.1-0.4,0.2L22,25.9l-1.1-1.7
		c-0.1-0.1-0.2-0.2-0.4-0.2c0,0,0,0,0,0c-0.2,0-0.3,0.1-0.4,0.2l-1.1,1.8h-2.6c-0.3,0-0.5,0.2-0.5,0.5s0.2,0.5,0.5,0.5L19.4,26.9z"
		/>
	<path class="st0" d="M33.2,14.2c-0.3,0-0.5,0.2-0.5,0.5V16h-1.3c-0.3,0-0.5,0.2-0.5,0.5s0.2,0.5,0.5,0.5h1.3v1.3
		c0,0.3,0.2,0.5,0.5,0.5c0.3,0,0.5-0.2,0.5-0.5v-1.3H35c0.3,0,0.5-0.2,0.5-0.5S35.2,16,35,16h-1.3v-1.3
		C33.6,14.4,33.4,14.2,33.2,14.2z"/>
	<path class="st0" d="M34.8,29.8c2.2-2.4,2.9-6,1.6-9c1.3-1,2.2-2.6,2.2-4.3c0-3-2.4-5.4-5.4-5.4c-1.2,0-2.4,0.4-3.4,1.2
		c-0.2,0.2-0.2,0.4-0.1,0.6c0.2,0.2,0.4,0.2,0.6,0.1c0.8-0.6,1.8-1,2.8-1c2.5,0,4.5,2,4.5,4.5c0,2.5-2,4.5-4.5,4.5
		c-2.3,0-4.2-1.7-4.5-4c0,0,0,0,0,0c0-0.2,0-0.3,0-0.5c0-0.7,0.2-1.4,0.5-2c0.1-0.2,0-0.5-0.2-0.6c-0.2-0.1-0.5,0-0.6,0.2
		c-0.4,0.8-0.6,1.6-0.6,2.4c0,0.1,0,0.2,0,0.2c-1.2,0.4-2.2,1.1-3.1,2l-0.5,0.5c0,0,0,0,0,0l-0.5-0.5c-1.6-1.6-3.7-2.5-5.8-2.4
		c-1.7,0-3.2,0.7-4.4,1.9c-0.2,0.2-0.2,0.5,0,0.6c0.2,0.2,0.5,0.2,0.6,0c1-1,2.3-1.6,3.7-1.6c1.8,0,3.7,0.7,5.1,2.2l0.5,0.5
		c0.2,0.2,0.4,0.4,0.6,0.4c0.2,0,0.4-0.1,0.6-0.3l0.5-0.5c0.8-0.7,1.6-1.3,2.6-1.7c0.5,2.4,2.7,4.2,5.3,4.2c0.9,0,1.7-0.2,2.5-0.6
		c1,2.7,0.4,5.8-1.5,7.9l-6.5,6.7L27,36c-0.1,0-0.2,0-0.4,0.1c-0.7,0.1-0.9,0.2-1.7,0l-3.9-0.7c-0.5-0.2-0.5-0.6-0.4-0.7
		c0-0.2,0.2-0.5,0.6-0.5c0,0,0,0,0,0c0.2,0,0.4,0,0.6,0.1c0.7,0.1,1.6,0.2,2.3,0.3c1.5,0.2,2.4-0.6,2.6-1.5c0.2-0.9-0.3-2-1.8-2.5
		c0,0,0,0-0.1,0l-2.5-0.5c-1.4-0.2-2.4-0.1-4,0.2c-0.4,0.1-0.9,0.2-1.4,0.3l-1.2,0.2l-0.4-0.4l-1.1-1.2c-2.1-2.3-2.6-5.9-1.2-8.7
		c0.1-0.2,0-0.5-0.2-0.6c-0.2-0.1-0.5,0-0.6,0.2c-1.6,3.2-1.1,7.2,1.3,9.8c0,0,0,0,0,0l1.1,1.1l-2,0.3v-0.1c0-0.4-0.3-0.6-0.7-0.6
		H8.1c-0.4,0-0.7,0.3-0.7,0.6v8c0,0.4,0.3,0.6,0.7,0.6h3.7c0.4,0,0.7-0.3,0.7-0.6v-0.1l4.1,1.1l3.8,1c0.9,0.3,1.6,0.4,2.2,0.4
		c1,0,1.9-0.3,3-0.6c0.1,0,0.2-0.1,0.3-0.1l7.5-2.4c0.9-0.3,1.5-0.9,1.6-1.7c0.1-0.6-0.1-1.2-0.5-1.6c-0.3-0.3-1.2-0.8-2.7-0.3
		l-2.7,0.5L34.8,29.8C34.8,29.8,34.8,29.8,34.8,29.8L34.8,29.8z M8.4,38.9v-7.5h3.3v0.3c0,0,0,0,0,0v6.8c0,0,0,0,0,0v0.4L8.4,38.9z
		 M32.1,35.9c0.8-0.3,1.5-0.2,1.9,0.1c0.2,0.2,0.3,0.4,0.2,0.7c-0.1,0.4-0.5,0.8-1,1l-7.5,2.4c-0.1,0-0.2,0.1-0.3,0.1
		c-1.8,0.6-2.7,0.9-4.6,0.3c0,0,0,0,0,0l-8.1-2.2v-6l4.4-0.7c0.5-0.1,1-0.2,1.5-0.3c1.6-0.3,2.5-0.5,3.7-0.2l2.5,0.5
		c1,0.3,1.3,1,1.2,1.5c-0.1,0.6-0.7,0.9-1.6,0.8c-0.7-0.1-1.6-0.2-2.3-0.3c-0.2,0-0.4,0-0.6-0.1c-0.9-0.1-1.5,0.5-1.6,1.2
		c0,0.1,0,0.3,0,0.4c0,0.6,0.4,1.1,1.1,1.4c0,0,0.3,0.1,0.3,0.1l3.7,0.7c0,0,0,0,0,0c0.8,0.1,1.1,0.1,1.6,0c0.1,0,0.6-0.1,0.8-0.1
		l0.8-0.2C28,36.7,32.1,35.9,32.1,35.9L32.1,35.9z"/>
</g>
</svg>
