<?xml version="1.0" encoding="utf-8"?>
<!-- Generator: Adobe Illustrator 26.0.0, SVG Export Plug-In . SVG Version: 6.00 Build 0)  -->
<svg version="1.1" id="Layer_1" xmlns="http://www.w3.org/2000/svg" xmlns:xlink="http://www.w3.org/1999/xlink" x="0px" y="0px"
	 viewBox="0 0 46 55" style="enable-background:new 0 0 46 55;" xml:space="preserve">
<style type="text/css">
	.st0{fill:#568259;}
</style>
<g>
	<g>
		<path class="st0" d="M37.1,28.5c1.1-0.8,1.8-2,1.8-3.4c0-2.3-1.9-4.2-4.2-4.2c-2.3,0-4.2,1.9-4.2,4.2c0,1.4,0.7,2.7,1.8,3.4
			c-0.9,0.3-1.8,0.8-2.5,1.5c-1-0.8-2.1-1.5-3.4-1.9c1.5-0.9,2.6-2.6,2.6-4.6c0-2.9-2.4-5.3-5.3-5.3s-5.3,2.4-5.3,5.3
			c0,1.9,1,3.6,2.6,4.6c-1.3,0.4-2.4,1-3.4,1.8c-0.7-0.6-1.5-1.1-2.5-1.4c1.1-0.8,1.8-2,1.8-3.4c0-2.3-1.9-4.2-4.2-4.2
			s-4.2,1.9-4.2,4.2c0,1.4,0.7,2.7,1.8,3.4c-2.9,1-5,3.8-5,7V36c0,0,0,0,0,0h8.9c-0.1,0.4-0.1,0.8-0.1,1.2v0.5
			c0,2.1,1.7,3.9,3.9,3.9h11.3c2.1,0,3.9-1.7,3.9-3.9v-0.5c0-0.4,0-0.8-0.1-1.2h9c0,0,0,0,0,0v-0.5C42.1,32.3,40,29.5,37.1,28.5z
			 M31.6,25.1c0-1.7,1.4-3,3-3c1.7,0,3,1.4,3,3c0,1.7-1.3,3-3,3c0,0,0,0-0.1,0s0,0-0.1,0C33,28.1,31.6,26.7,31.6,25.1z M19.4,23.6
			c0-2.3,1.9-4.2,4.2-4.2s4.2,1.9,4.2,4.2c0,2.2-1.7,4-3.9,4.2c-0.1,0-0.2,0-0.2,0c-0.1,0-0.2,0-0.2,0
			C21.2,27.6,19.4,25.8,19.4,23.6z M9.5,25.1c0-1.7,1.4-3,3-3s3,1.4,3,3c0,1.7-1.3,3-3,3c0,0,0,0-0.1,0s0,0-0.1,0
			C10.9,28.1,9.5,26.7,9.5,25.1z M14.3,34.9h-8c0.3-3.1,3-5.5,6.1-5.6c0,0,0,0,0,0s0,0,0,0c1.5,0,2.9,0.6,4,1.5
			C15.5,31.9,14.7,33.3,14.3,34.9z M32,37.8c0,1.5-1.2,2.7-2.7,2.7H17.9c-1.5,0-2.7-1.2-2.7-2.7v-0.5c0-4.5,3.6-8.2,8.1-8.4
			c0.1,0,0.2,0,0.2,0s0.2,0,0.2,0c4.5,0.1,8.1,3.8,8.1,8.4V37.8z M32.8,34.9c-0.4-1.5-1.2-2.9-2.2-4.1c1.1-0.9,2.5-1.5,4-1.5
			c0,0,0,0,0,0s0,0,0,0c3.2,0,5.8,2.5,6.1,5.6H32.8z"/>
	</g>
</g>
</svg>
