<?xml version="1.0" encoding="utf-8"?>
<!-- Generator: Adobe Illustrator 26.0.0, SVG Export Plug-In . SVG Version: 6.00 Build 0)  -->
<svg version="1.1" id="Layer_1" xmlns="http://www.w3.org/2000/svg" xmlns:xlink="http://www.w3.org/1999/xlink" x="0px" y="0px"
	 viewBox="0 0 70.4 64.7" style="enable-background:new 0 0 70.4 64.7;" xml:space="preserve">
<style type="text/css">
	.st0{fill:#568259;}
</style>
<path class="st0" d="M18.1,51c0.6,0.5,1.1,1,1.6,1.4c-0.1,0.6-0.1,1.2-0.1,1.8h1.5c0-1.9,0.3-3.7,1-5.5l2.8-7.5
	c0.4-1.2,0.5-2.5,0.1-3.7l-3.2-10.3c-0.1-0.4-0.5-0.6-0.8-0.5c-0.4,0.1-0.6,0.4-0.6,0.7V41c0,1.5,0.6,2.9,1.6,4l-1.2,3.3
	c-0.3,0.8-0.5,1.6-0.7,2.5c-0.3-0.3-0.6-0.5-0.9-0.8c-1.7-1.4-3.5-3-4.3-4.8c-0.6-1.4-0.5-3.2-0.4-5c0-0.6,0.1-1.2,0.1-1.8V23.6
	c0-2.6,1.8-5,4.3-5.7l5-1.7c2.8-0.9,4.7-3.6,4.7-6.6h-1.5c0,2.3-1.5,4.4-3.7,5.2l-5,1.7c-3.2,0.9-5.4,3.8-5.4,7.1v14.7
	c0,0.5,0,1.1-0.1,1.7c-0.1,1.9-0.2,3.9,0.6,5.6C14.3,47.7,16.4,49.4,18.1,51L18.1,51z M21.9,41v-8.6l1.8,5.6
	c0.3,0.9,0.2,1.8-0.1,2.7l-1,2.6C22.1,42.6,21.9,41.8,21.9,41z"/>
<path class="st0" d="M55.3,35.6v-12c0-3.3-2.2-6.2-5.4-7.1l-5-1.7c-2.2-0.7-3.7-2.8-3.7-5.2h-1.5c0,3,1.9,5.6,4.7,6.6l5.1,1.7
	c2.5,0.7,4.3,3.1,4.3,5.7v12H55.3z"/>
<path class="st0" d="M34.9,33c-0.8-3.2-1-6.6-0.7-9.9l0.3-3.8L33,19.2L32.7,23c-0.3,3.5,0,6.9,0.8,10.3c1.1,4.9,1.1,10-0.1,14.9
	l-0.3,1.3l1.4,0.4l0.3-1.3C36.1,43.5,36.1,38.1,34.9,33L34.9,33z"/>
<path class="st0" d="M55.7,50.5h-0.4v-7.4c0-4.1-2.8-7.6-6.7-8.6v-2.5c0-0.4-0.3-0.7-0.7-0.7h-0.7v-1.5h-1.5v1.5h-0.7
	c-0.4,0-0.7,0.3-0.7,0.7v2.5c-3.8,1-6.7,4.5-6.7,8.6v7.4h-0.4c-1,0-1.9,0.8-1.9,1.9c0,1,0.8,1.9,1.9,1.9h18.6c1,0,1.9-0.8,1.9-1.9
	C57.6,51.3,56.7,50.5,55.7,50.5z M45.7,32.7h1.5v1.5c-0.2,0-0.5,0-0.7,0c-0.3,0-0.5,0-0.7,0V32.7z M45.7,35.7c0.2,0,0.5,0,0.7,0
	c0.3,0,0.5,0,0.7,0v1.4h-1.5V35.7z M39,43.1c0-3.3,2.2-6.1,5.2-7.1v1.1c0,0.8,0.7,1.5,1.5,1.5h1.5c0.8,0,1.5-0.7,1.5-1.5V36
	c3,0.9,5.2,3.8,5.2,7.1v7.4H39V43.1z M55.7,52.7H37.1c-0.2,0-0.4-0.2-0.4-0.4c0-0.2,0.2-0.4,0.4-0.4h1.1h16.3h1.1
	c0.2,0,0.4,0.2,0.4,0.4C56.1,52.6,55.9,52.7,55.7,52.7z"/>
<path class="st0" d="M30.1,21.8l-0.6,1.4c0.3,0.2,0.6,0.4,0.9,0.7l1.2-0.9C31.2,22.5,30.7,22.1,30.1,21.8z"/>
<path class="st0" d="M30.8,24.9c0,0.1,0,0.2,0,0.3c0,0.3,0,0.5-0.1,0.8l1.4,0.5c0.2-0.4,0.2-0.9,0.2-1.3c0-0.2,0-0.4,0-0.5
	L30.8,24.9z"/>
<path class="st0" d="M29.4,28.9c0.6-0.1,1.2-0.4,1.6-0.8l-1-1.1c-0.3,0.2-0.6,0.4-1,0.5L29.4,28.9z"/>
<path class="st0" d="M28.3,21.5c-0.6,0-1.2,0.2-1.7,0.6l0.8,1.3c0.3-0.2,0.7-0.3,1-0.3L28.3,21.5z"/>
<path class="st0" d="M24.9,25.2c0,0.4,0,0.7,0.1,1l1.4-0.4c-0.1-0.2-0.1-0.4-0.1-0.6c0-0.4,0.1-0.7,0.3-1.1l-1.3-0.7
	C25,24,24.9,24.6,24.9,25.2L24.9,25.2z"/>
<path class="st0" d="M25.9,27.9c0.4,0.4,1,0.8,1.6,0.9l0.4-1.4c-0.4-0.1-0.7-0.3-0.9-0.6L25.9,27.9z"/>
<path class="st0" d="M27.7,37.9L26.7,39c0.4,0.4,1,0.8,1.6,0.9l0.4-1.4C28.3,38.4,28,38.2,27.7,37.9L27.7,37.9z"/>
<path class="st0" d="M33,36.4c0-0.2,0-0.4,0-0.5l-1.5,0.2c0,0.1,0,0.2,0,0.3c0,0.3,0,0.5-0.1,0.8l1.4,0.5C33,37.3,33,36.8,33,36.4
	L33,36.4z"/>
<path class="st0" d="M30.8,38.1c-0.3,0.2-0.6,0.4-1,0.5l0.3,1.5c0.6-0.1,1.2-0.4,1.6-0.8L30.8,38.1z"/>
<path class="st0" d="M29,32.7c-0.6,0-1.2,0.2-1.7,0.6l0.8,1.3c0.3-0.2,0.7-0.3,1-0.3L29,32.7z"/>
<path class="st0" d="M27.2,37c-0.1-0.2-0.1-0.4-0.1-0.6c0-0.4,0.1-0.7,0.3-1.1l-1.3-0.7c-0.3,0.5-0.5,1.2-0.5,1.8c0,0.4,0,0.7,0.1,1
	L27.2,37z"/>
<path class="st0" d="M30.9,33l-0.6,1.4c0.3,0.2,0.6,0.4,0.9,0.7l1.2-0.9C31.9,33.6,31.4,33.2,30.9,33z"/>
<path class="st0" d="M28.3,43.8c-0.6,0-1.2,0.2-1.7,0.6l0.8,1.3c0.3-0.2,0.7-0.3,1-0.3L28.3,43.8z"/>
<path class="st0" d="M27.9,49.7c-0.4-0.1-0.7-0.3-0.9-0.6l-1.1,1.1c0.4,0.4,1,0.8,1.6,0.9L27.9,49.7z"/>
<path class="st0" d="M24.9,47.5c0,0.4,0,0.7,0.1,1l1.4-0.4c-0.1-0.2-0.1-0.4-0.1-0.6c0-0.4,0.1-0.7,0.3-1.1l-1.3-0.7
	C25,46.3,24.9,46.9,24.9,47.5z"/>
<path class="st0" d="M31,50.3l-1-1.1c-0.3,0.2-0.6,0.4-1,0.5l0.3,1.5C30,51,30.5,50.7,31,50.3z"/>
<path class="st0" d="M32.1,48.8c0.2-0.4,0.2-0.9,0.2-1.3c0-0.2,0-0.4,0-0.5l-1.5,0.2c0,0.1,0,0.2,0,0.3c0,0.3,0,0.5-0.1,0.8
	L32.1,48.8z"/>
<path class="st0" d="M30.4,46.2l1.2-0.9c-0.4-0.5-0.9-0.9-1.4-1.2l-0.6,1.4C29.8,45.6,30.1,45.9,30.4,46.2z"/>
</svg>
