<?xml version="1.0" encoding="utf-8"?>
<!-- Generator: Adobe Illustrator 26.0.0, SVG Export Plug-In . SVG Version: 6.00 Build 0)  -->
<svg version="1.1" id="Layer_1" xmlns="http://www.w3.org/2000/svg" xmlns:xlink="http://www.w3.org/1999/xlink" x="0px" y="0px"
	 viewBox="0 0 67 67" style="enable-background:new 0 0 67 67;" xml:space="preserve">
<style type="text/css">
	.st0{fill:#568259;}
</style>
<g>
	<path class="st0" d="M34.6,1.7c-0.2,0.7,0.2,1.2,0.3,1.6c4.6,14.8,14.5,24.4,29.5,28.5c0.3,0.2,0.8,0.3,1.2,0.2c0,0.2,0,0.3,0,0.5
		c-6.8,0-13.4,0-20.1,0c-5.4,0-10.1-3.8-11.2-9.2c-0.2-1-0.2-1.8-0.2-2.8c0-5.8,0-11.7,0-17.5c0-0.3,0.2-0.8-0.2-1.2
		C34.3,1.7,34.4,1.7,34.6,1.7z"/>
	<path class="st0" d="M0.6,31.9c1.3,0,2.5-0.3,3.6-0.8c14.2-4.8,23.4-14.3,27.4-28.9c0-0.2,0.2-0.5,0.2-0.7c0.2,0,0.3,0,0.5,0
		c0,6.3,0,12.5,0,18.8c0,6.9-4.9,11.9-11.9,11.9c-6.6,0-13,0-19.6,0C0.6,32.2,0.6,32.1,0.6,31.9z"/>
	<path class="st0" d="M65.6,34.5c-0.7-0.2-1.3,0.2-2,0.3c-15,4.5-24.7,14.2-29,29.4c0,0.2-0.2,0.5-0.2,0.7c-0.2,0-0.3,0-0.5,0
		c0-6.3,0-12.5,0-18.8c0-6.9,4.9-11.9,11.9-11.9c6.6,0,13,0,19.6,0C65.6,34.2,65.6,34.4,65.6,34.5z"/>
</g>
</svg>
