<?xml version="1.0" encoding="utf-8"?>
<!-- Generator: Adobe Illustrator 26.0.0, SVG Export Plug-In . SVG Version: 6.00 Build 0)  -->
<svg version="1.1" id="Layer_1" xmlns="http://www.w3.org/2000/svg" xmlns:xlink="http://www.w3.org/1999/xlink" x="0px" y="0px"
	 viewBox="0 0 67 67" style="enable-background:new 0 0 67 67;" xml:space="preserve">
<style type="text/css">
	.st0{clip-path:url(#SVGID_00000026158610636014703950000001372285503804867515_);}
	.st1{fill:#568259;}
</style>
<g>
	<g>
		<g>
			<defs>
				<rect id="SVGID_1_" x="7.5" y="2.4" width="52.1" height="62.1"/>
			</defs>
			<clipPath id="SVGID_00000086693556295358947650000014672699180598490001_">
				<use xlink:href="#SVGID_1_"  style="overflow:visible;"/>
			</clipPath>
			<g style="clip-path:url(#SVGID_00000086693556295358947650000014672699180598490001_);">
				<path class="st1" d="M49.5,64.4h-32c-5.7-0.1-10-4.5-10-10c0-4,1.6-8.1,4.5-10.9c3-3,6.9-4.5,10.9-4.5h4.6c0.1,0,0.3,0,0.3,0.1
					c0.1,0.1,0.1,0.3,0.1,0.3c0,0.1,0,0.3-0.1,0.3s-0.3,0.1-0.3,0.1H23c-3.9,0-7.6,1.6-10.3,4.3c-2.7,2.7-4.3,6.4-4.3,10.3
					c0,4.9,3.9,9.1,9.1,9.1h32c2.4,0,4.6-0.9,6.3-2.5c1.6-1.6,2.5-3.9,2.5-6.3c0-3.9-1.6-7.6-4.3-10.3c-2.7-2.7-6.4-4.3-10.3-4.3
					h-4.5c-0.1,0-0.3,0-0.3-0.1c-0.1-0.1-0.1-0.3-0.1-0.3s0-0.3,0.1-0.3c0.1-0.1,0.3-0.1,0.3-0.1h4.5c4,0,8.1,1.6,10.9,4.5
					c3,3,4.5,6.9,4.5,10.9c0,2.5-1,5.2-3,7.2C54.8,63.4,52.2,64.4,49.5,64.4z"/>
				<path class="st1" d="M33.5,46c-0.9,0-1.6-0.1-2.5-0.4s-1.5-0.7-2.1-1.3s-1.2-1.3-1.3-2.1c-0.3-0.7-0.4-1.6-0.4-2.5v-3.4
					c0-0.1,0-0.3,0.1-0.3c0.1-0.1,0.3-0.1,0.3-0.1c0.1,0,0.3,0,0.3,0.1C28,36,28,36.1,28,36.1v3.4c0,1.5,0.6,2.8,1.6,3.9
					c1,1,2.4,1.6,3.9,1.6s2.8-0.6,3.9-1.6c1-1,1.6-2.4,1.6-3.9v-3.4c0-0.1,0-0.3,0.1-0.3c0.1-0.1,0.3-0.1,0.3-0.1
					c0.1,0,0.3,0,0.3,0.1c0.1,0.1,0.1,0.3,0.1,0.3v3.4c0,1.6-0.7,3.4-1.9,4.5C36.9,45.2,35.1,46,33.5,46z"/>
				<path class="st1" d="M45.9,53.2c-0.1,0-0.3,0-0.3-0.1c0-0.1-0.1-0.1-0.1-0.3V42.1c0-3-1.9-5.5-4.8-6.4c-0.1,0-0.3-0.1-0.3-0.3
					s-0.1-0.3,0-0.3c0-0.1,0.1-0.3,0.3-0.3c0.1-0.1,0.3-0.1,0.3,0c3.3,1.2,5.4,4,5.4,7.5v10.6c0,0.1,0,0.3-0.1,0.3
					C46.2,53.2,46.1,53.2,45.9,53.2z"/>
				<path class="st1" d="M21.2,46.3c-0.1,0-0.3,0-0.3-0.1c-0.1-0.1-0.1-0.3-0.1-0.3v-3.6c0-3.3,2.1-6.3,5.2-7.5c0.1,0,0.3,0,0.3,0
					c0.1,0,0.3,0.1,0.3,0.3c0,0.1,0,0.3,0,0.3c0,0.1-0.1,0.3-0.3,0.3c-2.8,1-4.6,3.6-4.6,6.6v3.6c0,0.1,0,0.3-0.1,0.3
					C21.5,46.3,21.4,46.3,21.2,46.3z"/>
				<path class="st1" d="M26.5,58.7h-0.7c-0.1,0-0.3,0-0.3-0.1c-0.1-0.1-0.1-0.3-0.1-0.3s0-0.3,0.1-0.3c0.1-0.1,0.3-0.1,0.3-0.1h0.7
					c0.3,0,0.4-0.1,0.6-0.3c0.1-0.1,0.3-0.3,0.3-0.6v-4.6c0-1.6-0.7-3.1-1.8-4.3c-1-1.2-2.8-1.6-4.3-1.6s-3.1,0.7-4.3,1.8
					c-1.2,1-1.8,2.7-1.8,4.2v4.8c0,0.3,0.1,0.4,0.3,0.6c0.1,0.1,0.3,0.3,0.6,0.3h0.9c0.1,0,0.3,0,0.3,0.1c0.1,0.1,0.1,0.3,0.1,0.3
					s0,0.3-0.1,0.3c-0.1,0.1-0.3,0.1-0.3,0.1h-0.7c-0.4,0-0.9-0.3-1.2-0.6s-0.6-0.7-0.6-1.2v-4.8c0-1.9,0.7-3.6,2.1-4.9
					c1.3-1.3,3.1-2.1,4.9-2.1c1.9,0,3.6,0.7,4.9,2.1c1.3,1.3,2.1,3.1,2.1,4.9v4.8c0,0.4-0.3,0.9-0.6,1.2
					C27.4,58.6,27.1,58.7,26.5,58.7z"/>
				<path class="st1" d="M45.9,60.2c-0.7,0-1.6-0.3-2.2-0.7c-0.7-0.4-1.2-1-1.5-1.8c-0.3-0.7-0.3-1.6-0.3-2.4
					c0.1-0.7,0.6-1.5,1.2-2.1s1.2-0.9,2.1-1.2c0.7-0.1,1.6-0.1,2.4,0.3c0.7,0.3,1.3,0.7,1.8,1.5c0.4,0.7,0.7,1.5,0.7,2.2
					c0,1-0.4,2.1-1.2,2.8C48.2,59.8,47.1,60.2,45.9,60.2z M45.9,53.2c-0.6,0-1.2,0.3-1.6,0.6c-0.4,0.3-0.9,0.7-1.2,1.3
					s-0.3,1.2-0.3,1.8c0.1,0.6,0.4,1.2,0.7,1.6c0.4,0.4,1,0.7,1.6,0.7c0.6,0,1.2,0.1,1.8-0.3c0.6-0.3,1-0.6,1.3-1.2
					c0.3-0.4,0.6-1.2,0.6-1.6c0-0.7-0.3-1.6-0.9-2.1C47.4,53.6,46.8,53.2,45.9,53.2z"/>
				<path class="st1" d="M33.6,38.5c-2.2,0-4.5-0.7-6.3-1.8c-0.6-0.3-1-0.7-1.5-1.2c-2.1-1.8-3.4-4.2-3.7-6.7c0,0,0,0,0-0.1v-0.3
					C22,28,22,27.7,22,27.4v-4.8c0-0.1,0-0.3,0.1-0.3c0.1-0.1,0.3-0.1,0.3-0.1s0.3,0,0.3,0.1c0.1,0.1,0.1,0.3,0.1,0.3v4.8
					c0,0.3,0,0.4,0.1,0.7v0.1v0.3c0.3,2.2,1.6,4.5,3.4,6.1l0,0c0.3,0.3,0.7,0.7,1.2,1c1.8,1.2,3.9,1.8,6.3,1.6
					c1.6-0.1,3.4-0.7,5.2-1.6c0.3-0.3,0.6-0.4,0.9-0.7c0.1-0.1,0.3-0.3,0.4-0.3c1.2-1,2.1-2.2,2.5-3.7c0.6-1.3,0.9-3,0.9-4.5v-3.4
					c0-0.1,0-0.3,0.1-0.3s0.3-0.1,0.3-0.1c0.1,0,0.3,0,0.3,0.1c0.1,0.1,0.1,0.3,0.1,0.3v3.4c0,1.6-0.3,3.3-1,4.9c-0.7,1.6-1.6,3-3,4
					l0,0c-0.1,0.1-0.3,0.3-0.4,0.3c-0.3,0.3-0.7,0.6-1,0.7c-1.8,1.2-3.7,1.6-5.7,1.8C33.9,38.5,33.8,38.5,33.6,38.5z"/>
				<path class="st1" d="M44.4,28.9c-0.1,0-0.3,0-0.3-0.1S44,28.6,44,28.5s0-0.3,0.1-0.3s0.3-0.1,0.3-0.1c1.3,0,2.5-1,2.5-2.2
					s-1-2.1-2.2-2.2c-0.1,0-0.3-0.1-0.3-0.1c-0.1,0-0.1-0.3-0.1-0.3l0.1-0.3c0.1-0.1,0.3-0.1,0.3-0.1c1.8,0.1,3.1,1.5,3.1,3.3
					C48,27.6,46.4,28.9,44.4,28.9z"/>
				<path class="st1" d="M22.7,28.9c-1.9,0-3.4-1.5-3.4-3.3c0-1.6,1.3-3.1,3.1-3.3c0.1,0,0.1,0,0.3,0c0.1,0,0.1,0,0.1,0.1
					s0.1,0.1,0.1,0.1c0,0.1,0,0.1,0,0.3s0,0.1,0,0.3s0,0.1-0.1,0.1l-0.1,0.1c-0.1,0-0.1,0-0.3,0c-1.3,0.1-2.2,1-2.2,2.2
					c0,1.2,1.2,2.2,2.5,2.2c0.1,0,0.3,0,0.3,0.1c0.1,0.1,0.1,0.3,0.1,0.3c0,0.1,0,0.3-0.1,0.3C23,28.8,22.9,28.9,22.7,28.9z"/>
				<path class="st1" d="M22.9,23.5c-0.4,0-1-0.4-1.2-0.9c-0.7-1.6-1.9-4.8-2.1-7.6c-0.3-3.4,0.6-5.7,2.7-6.6c1-0.4,1.9-1,2.8-1.8
					l0,0c2.4-1.9,6-4.2,10.3-4.2c1.6,0,3.4,0.4,5.4,1.2l0,0c2.8,1.3,4.9,3.9,6,6.7c1.2,3,1.2,6.1,0.3,9.1c-0.3,1.2-0.7,2.1-1.3,3.3
					l0,0c-0.3,0.4-0.7,0.7-1.2,0.7h-0.3c-0.7,0-1.2-0.6-1.3-1.2l0,0L42.5,20c-0.1-0.3-0.3-0.4-0.4-0.7c-0.1-0.1-0.3-0.1-0.3-0.1
					h-0.3l0,0c-1.6,0.3-3.3,0.4-4.9,0.4c-4.5,0-7.6-1.2-9.4-2.1c-0.1-0.1-0.3-0.1-0.4-0.1c-0.1,0-0.3,0-0.4,0.1
					c-0.1,0.1-0.3,0.1-0.3,0.3c-0.1,0.1-0.1,0.3-0.3,0.3l0,0l-1.2,4.3C24.2,23.1,23.5,23.5,22.9,23.5z M25.7,7.2
					c-0.9,0.7-1.9,1.5-3,1.9c-1.6,0.7-2.5,2.5-2.1,5.5c0.3,2.8,1.5,5.8,2.1,7.5l0,0c0.1,0.1,0.3,0.3,0.3,0.3c0.3,0,0.4-0.1,0.4-0.3
					l1-4.3c0.1-0.3,0.3-0.6,0.3-0.7c0.3-0.3,0.4-0.4,0.7-0.6s0.6-0.3,0.7-0.3c0.3,0,0.6,0.1,0.7,0.3c2.2,1.2,6.9,2.8,13.8,1.6
					c0.3-0.1,0.6-0.1,0.7,0c0.3,0,0.4,0.1,0.7,0.3c0.4,0.3,0.7,0.7,0.9,1.2l0,0l0.3,2.4c0.1,0.3,0.3,0.4,0.4,0.4h0.3
					c0.1,0,0.1,0,0.3-0.1c0.1,0,0.1-0.1,0.1-0.1c0.6-1,1-1.9,1.3-3c1.8-5.8-0.7-12.1-5.8-14.7c-1.6-0.7-3.3-1.2-4.9-1.2
					C31.4,3.3,27.8,5.4,25.7,7.2z"/>
			</g>
		</g>
	</g>
</g>
</svg>
