<?xml version="1.0" encoding="utf-8"?>
<!-- Generator: Adobe Illustrator 26.0.0, SVG Export Plug-In . SVG Version: 6.00 Build 0)  -->
<svg version="1.1" id="Layer_1" xmlns="http://www.w3.org/2000/svg" xmlns:xlink="http://www.w3.org/1999/xlink" x="0px" y="0px"
	 viewBox="0 0 512 512" style="enable-background:new 0 0 512 512;" xml:space="preserve">
<style type="text/css">
	.st0{fill:#F5F5F5;}
	.st1{fill:#5D618E;}
	.st2{fill:#EAB77E;}
	.st3{fill:#D6D6D8;}
	.st4{fill:#D64E3C;}
	.st5{fill:#F0582F;}
	.st6{fill:#FFFFFF;}
	.st7{fill:#FCFCFD;}
	.st8{fill:#F1F3F7;}
	.st9{fill:#DEDEDF;}
	.st10{fill:#FFD6AE;}
	.st11{fill:#362219;}
	.st12{fill:#180F0A;}
	.st13{fill:#202125;}
	.st14{fill:#949695;}
	.st15{fill:#565656;}
	.st16{fill:#494E77;}
	.st17{fill:#646B79;}
</style>
<g>
	<circle class="st0" cx="256" cy="256" r="254.6"/>
	<g>
		<path class="st1" d="M212.3,240.1v-8.5c-1,0-24.8,0.3-41.7,29.2c4.1,2.7,7.1,4.4,7.1,4.4C192.3,240.7,211.6,240.1,212.3,240.1z"/>
		<path class="st1" d="M321.1,247.9l-3.4-6.1l-19.3-3.1l13.2,13.2L321.1,247.9z"/>
		<path class="st1" d="M342.5,262.4c-10.2-17.3-23.7-20.3-24.8-20.7l-1.7,8.5c0.3,0,8.1,1.7,15.9,11.9c0.7,1,1.4,1.7,2,2.7
			L342.5,262.4z"/>
	</g>
	
		<ellipse transform="matrix(0.1299 -0.9915 0.9915 0.1299 106.8153 483.5377)" class="st2" cx="328.9" cy="180.9" rx="28.8" ry="9.8"/>
	
		<ellipse transform="matrix(0.9915 -0.1299 0.1299 0.9915 -22.0126 25.1705)" class="st2" cx="181.9" cy="181.3" rx="9.8" ry="28.8"/>
	<path class="st2" d="M217,221.1h78v80.4h-78V221.1z"/>
	<path class="st3" d="M186.8,291.9h138v188.9h-138L186.8,291.9z"/>
	<path class="st4" d="M274,290.9l-18.3,1l-18.3-1l-9.5,11.2c0,0,14.9,19,17.3,27.8h10.5h10.5c2.4-9.2,17.3-27.8,17.3-27.8L274,290.9
		z"/>
	<path class="st5" d="M210.9,506.6c14.6,2.7,29.5,4.1,45.1,4.1c15.3,0,30.2-1.4,44.8-4.1l-34.2-176.7h-21.4L210.9,506.6z"/>
	<path class="st6" d="M439.8,330.3c-4.1-15.3-14.9-27.8-29.5-33.9l-85.8-34.9l-4.1,24.8v37.6l-37,113.6l-68.2,69.8
		c13.2,2,26.8,3.4,40.7,3.4c83.4,0,157.7-40.3,204.1-102.4L439.8,330.3z"/>
	<path class="st7" d="M295.3,243.5v21.7c0,0-22.4,20-39.3,26.8c0,0,41,32.6,42.4,51.5c0,0,21.7-57,8.8-93.6L295.3,243.5z"/>
	<path class="st8" d="M295.3,243.5l11.5,6.4c0,0,14.2,83.8-51.2,206.5L234.3,493c0,0,76.3-52.6,101-86.1L324.2,375l31.2,3.1
		c0,0-4.1-95.6-25.4-118.7S295,235.7,295,235.7L295.3,243.5z"/>
	<path class="st8" d="M228.5,437.4l-37-113.6v-37.6l-4.1-24.8l-85.8,34.9C87.1,302.5,76,315,72.2,330.3l-20.3,78
		C98.3,470.3,172.6,510.6,256,510.6c12.2,0,24.1-1,35.9-2.7L228.5,437.4z"/>
	<path class="st8" d="M216.7,243.5v21.7c0,0,22.4,20,39.3,26.8c0,0-41,32.6-42.4,51.5c0,0-21.7-57-8.8-93.6L216.7,243.5z"/>
	<path class="st9" d="M216.7,243.5l-11.5,6.4c0,0-14.2,83.8,51.2,206.5l21.4,36.6c0,0-76.3-52.6-101-86.1l11.2-31.9l-31.2,3.1
		c0,0,4.1-95.6,25.4-118.7s34.9-23.7,34.9-23.7L216.7,243.5z"/>
	<path class="st10" d="M328.2,159.7c0,55.9-32.6,101.7-72.9,101.7s-72.9-45.4-72.9-101.7c0-25.4-2-74.6,9.2-92.6
		C204.8,46.1,328.2,37.3,328.2,159.7z"/>
	<g>
		<path class="st11" d="M167.2,155.3c0,4.4,2,12.2,3.1,16.6l13.6-3.7c0.7-26.4,9.5-52.9,25.1-74.3c1.4-2,2.7-4.1,2.4-6.4l20.3-42.4
			c-1.4-8.1-8.1-14.9-15.9-15.9c-8.1-1.4-54.6,0-49.8,85.8c0,3.1-2,11.5-2.4,12.9c-1.7,5.4,1.7,11.2,3.1,17
			C167.2,147.8,166.8,151.6,167.2,155.3L167.2,155.3z"/>
		<path class="st12" d="M340.4,170.2c0.7-7.1,0.3-14.6,1.7-21.7C356.4,64.1,318.4,30.9,292.6,21c-19.3-6.8-42.4-4.1-56.3,11.2
			l-9.5,9.5c-5.8,13.2-10.9,26.4-15.3,40c-1.4,4.4-2.7,9.2-0.3,13.2c2,3.4,6.1,4.4,9.8,4.4S275.7,80,316,143.4
			c6.1,9.5,7.1,21.4,6.1,32.6c-0.3,3.1-0.7,6.4,0.7,9.5c1.4,2.7,6.1,4.1,7.5,1c-1-4.1-2-8.8-0.7-12.5c1.7-4.1,6.8-6.8,10.2-4.1
			C340.1,170.2,340.4,170.2,340.4,170.2L340.4,170.2z"/>
		<path class="st11" d="M189.9,43.4c-3.7,6.4-29.8,114.6-17,141.1c1.7-4.7-0.3-11.2,2.7-14.6c2.4-2.7,6.4,0,7.5,4.1
			s0.3,8.5-0.3,12.5c1,2.7,4.4,1.7,5.4-1c1-2.7,0.7-6.1,0.3-9.5c-0.7-11.2,0.7-29.2,3.1-39.7c1-4.4,3.7-21.7,5.1-25.8V43.4
			L189.9,43.4z"/>
	</g>
	<path class="st13" d="M415,417.4c3.4,4.1,2.7,9.8-1,13.2c-4.1,3.1-16.3,7.5-19.7,3.4s3.7-15.3,7.8-18.3
		C406.2,412.7,411.6,413.3,415,417.4z"/>
	<path class="st13" d="M300.8,426.6c-2.7,4.4-1,10.2,3.1,12.9c4.4,2.4,17.3,4.7,20,0.3s-6.1-14.6-10.5-17
		C308.9,420.1,303.5,421.8,300.8,426.6L300.8,426.6z"/>
	<path class="st14" d="M394.3,429.9c-10.5,8.5-19.7,11.5-26.4,8.8c-1.7-0.7-3.4-1.7-4.7-3.1c7.1-12.9,7.5-31.9,7.5-39.3
		c0-9.5,3.4-18.6,6.8-26.8l-6.4-2c-3.4,8.5-6.8,18.3-6.8,28.8c0,6.4-0.3,22.7-5.4,33.9c-6.8-10.2-9.5-26.4-10.9-32.6
		c-1.7-10.2-6.8-19.3-11.5-27.1l-6.1,3.1c4.4,7.5,9.2,16.3,10.9,25.4c1.4,7.5,4.4,26.1,13.6,37.6c-1.4,1.4-2.7,2.7-4.4,3.7
		c-6.4,3.7-15.6,2.4-27.5-4.4l-3.4,5.8c9.5,5.4,18,7.8,24.8,7.1c3.4-0.3,6.4-1.4,9.2-2.7c2-1.4,4.1-2.7,5.4-4.7
		c2,1.7,4.1,2.7,6.1,3.7c3.1,1,6.1,1.7,9.5,1.4c7.1-0.7,14.9-4.4,23.4-11.2L394.3,429.9z"/>
	<path class="st15" d="M363.1,435.7l-3.7,5.4l2,1.4L363.1,435.7z"/>
	<path class="st1" d="M353.7,311.9c-0.3-23.4-5.1-39.3-11.2-49.8l-8.5,2.7c5.4,8.5,10.9,23.1,11.2,47.1L353.7,311.9z"/>
	<path class="st16" d="M344.8,301.4c0.3,3.4,0.3,6.8,0.3,10.9h8.5c0-3.7-0.3-7.5-0.3-10.9H344.8z"/>
	
		<ellipse transform="matrix(0.9985 -5.497181e-02 5.497181e-02 0.9985 -23.4817 9.2032)" class="st9" cx="155.5" cy="431.4" rx="28.5" ry="26.1"/>
	
		<ellipse transform="matrix(0.9985 -5.497181e-02 5.497181e-02 0.9985 -23.0625 9.1808)" class="st17" cx="155.4" cy="423.8" rx="26.8" ry="24.8"/>
	
		<ellipse transform="matrix(0.9985 -5.497181e-02 5.497181e-02 0.9985 -23.0301 9.2161)" class="st8" cx="156" cy="423.2" rx="23.1" ry="21.4"/>
	<path class="st1" d="M170.9,260.7c-1,1.7-2,3.4-2.7,5.1c-12.9,26.1-18,72.9-15.3,144.1l8.5-0.3c-2.7-68.5,2.4-115.6,14.2-139.7
		c0.7-1.7,1.7-3.1,2.4-4.4C178,265.2,175,263.1,170.9,260.7L170.9,260.7z"/>
	
		<ellipse transform="matrix(0.9985 -5.497181e-02 5.497181e-02 0.9985 -22.6214 9.288)" class="st17" cx="157.5" cy="415.8" rx="15.3" ry="13.6"/>
	
		<ellipse transform="matrix(0.9985 -5.497181e-02 5.497181e-02 0.9985 -22.6214 9.2882)" class="st8" cx="157.5" cy="415.8" rx="12.2" ry="10.9"/>
	<path class="st1" d="M372.6,317c-6.8-7.5-15.3-11.5-22.7-11.2l-2,0.3c-7.5,1-15.3,6.4-20.7,14.6c-7.5,11.2-9.2,25.4-4.7,38.3
		c1.4,4.4,4.4,9.2,7.1,14.2c0.7,1,1.7,1.4,2.4,0.7l4.1-2c1-0.3,1.4-1.7,0.7-2.7v-0.3c-2.7-4.7-5.1-8.8-6.4-12.5
		c-3.4-10.5-2-21.7,3.7-30.9c4.1-6.4,10.2-10.5,15.3-10.9c5.4-0.3,11.9,2.7,17,8.5c7.5,8.1,10.5,19,8.8,29.8
		c-0.7,3.7-2.4,8.5-4.4,13.6v0.3c-0.3,1,0,2.4,1.4,2.4l4.4,1.4c1,0.3,2-0.3,2.4-1c2-5.4,4.1-10.5,4.7-15.3
		C385.5,340.4,381.8,327.2,372.6,317L372.6,317z"/>
</g>
</svg>
