<?xml version="1.0" encoding="utf-8"?>
<!-- Generator: Adobe Illustrator 26.0.0, SVG Export Plug-In . SVG Version: 6.00 Build 0)  -->
<svg version="1.1" id="Layer_1" xmlns="http://www.w3.org/2000/svg" xmlns:xlink="http://www.w3.org/1999/xlink" x="0px" y="0px"
	 viewBox="0 0 447 316" style="enable-background:new 0 0 447 316;" xml:space="preserve">
<style type="text/css">
	.st0{fill:#FFFFFF;}
</style>
<path class="st0" d="M363.5,281.1h-281c-19,0-34.4-15.4-34.5-34.5V73.1c0-19,15.4-34.5,34.5-34.5h281.1c19,0,34.4,15.4,34.5,34.5
	v173.5C398,265.7,382.6,281,363.5,281.1L363.5,281.1z M82.5,51.8c-11.7,0-21.3,9.6-21.3,21.3v173.5c0,11.7,9.6,21.3,21.3,21.3h281.1
	c11.7,0,21.3-9.6,21.3-21.3V73.1c0-11.7-9.6-21.3-21.3-21.3L82.5,51.8z"/>
<path class="st0" d="M223,198.6c-1.6,0-3.1-0.6-4.3-1.6L59.9,56.8l8.8-9.9L223,183.2L377.3,47l8.7,9.9L227.4,196.9
	C226.1,198,224.6,198.6,223,198.6z"/>
<path class="st0" d="M56.4,260.4L163,138.9l9.9,8.7L66.3,269.1L56.4,260.4z"/>
<path class="st0" d="M273.5,147.5l9.9-8.7L390,260.3l-9.9,8.7L273.5,147.5z"/>
</svg>
