<?xml version="1.0" encoding="utf-8"?>
<!-- Generator: Adobe Illustrator 26.0.0, SVG Export Plug-In . SVG Version: 6.00 Build 0)  -->
<svg version="1.1" id="Layer_1" xmlns="http://www.w3.org/2000/svg" xmlns:xlink="http://www.w3.org/1999/xlink" x="0px" y="0px"
	 viewBox="0 0 70.4 64.7" style="enable-background:new 0 0 70.4 64.7;" xml:space="preserve">
<style type="text/css">
	.st0{fill:#568259;}
</style>
<path class="st0" d="M54.7,50.8C49,51.5,44.5,49,44.5,48.9c-0.2-0.1-0.3-0.1-0.5-0.1c-0.1,0-7.2,1.9-12.9,0.7
	c-3.6-0.8-6.9-3.3-9.4-5.1c-0.3-0.2-0.6-0.5-0.9-0.7c-0.4-0.3-1-0.5-1.6-0.8c-0.3-0.1-0.6-0.2-0.7-0.3c-0.1-0.1-0.1-0.1-0.1-0.2
	v-1.5c0-1.2,5.1-19.9,5.9-22.3c0,0,0.1-0.1,0.2-0.1l10.1-4.6l3.3,4.2c0.2,0.2,0.1,0.5,0,0.7l-3.2,3.6c-0.2,0.2-0.6,0.3-0.8,0.1
	l-1.3-1.2c-0.2-0.1-0.4-0.2-0.6-0.1c-0.2,0-0.4,0.2-0.5,0.4c-0.1,0.2-1.1,0.5-2.1,0.5l-0.3,0c-0.3,0-0.5,0.1-0.6,0.3
	c-0.1,0.2-0.1,0.5,0.1,0.7c0.3,0.4,0.5,0.7,0.6,0.8l0.6,10.9c-0.4,1.6-0.8,2-0.9,2.1c-0.3,0.1-0.5,0.3-0.5,0.6
	c0,0.4,0.3,0.7,0.7,0.7c0.8,0,1.4-1,1.9-2.9c5.3-3.9,9.9-0.2,10.2,0.1c1.7,1.7,1.8,2.8,1.8,2.8c0,0.4,0.3,0.6,0.7,0.6
	c0.4,0,0.7-0.3,0.7-0.7c0-0.2-0.1-1.5-1.8-3.3c1.6-2,3.5-3.1,5.5-3.4c3.5-0.4,6.4,1.9,6.5,1.9c0.3,0.2,0.7,0.2,0.9-0.1
	c0.2-0.3,0.2-0.7-0.1-0.9c-0.1-0.1-3.4-2.7-7.4-2.2c-2.4,0.3-4.5,1.6-6.3,3.8c-1.5-1-5.8-3.3-10.5-0.3l-0.6-10.1
	c0-0.1,0-0.2-0.1-0.3c0.6-0.1,1.3-0.2,1.8-0.6l0.9,0.8c0.8,0.7,2,0.6,2.6-0.2l3.2-3.6c0.6-0.7,0.6-1.7,0.1-2.4l-3.6-4.7
	c-0.2-0.2-0.5-0.3-0.8-0.2l-10.5,4.8c-0.1,0-0.7,0.3-0.9,0.9c-0.4,1.1-6,21.1-6,22.7v1.5c0,0.5,0.2,0.9,0.6,1.3
	c0.2,0.2,0.5,0.3,1,0.5c0.4,0.2,1,0.4,1.3,0.6c0.3,0.2,0.6,0.4,0.9,0.7c2.6,1.9,6.1,4.5,9.9,5.4c5.5,1.2,11.9-0.3,13.3-0.6
	c0.9,0.5,4.3,2,8.7,2c0.7,0,1.3,0,2-0.1c0.4,0,0.6-0.4,0.6-0.7C55.3,51,55,50.8,54.7,50.8z"/>
<path class="st0" d="M51.4,42.8c0-0.3-0.3-0.6-0.7-0.6c-0.4,0-0.7,0.3-0.7,0.7c0,0.4,0.3,1.9,4.5,2.6c0,0,0.1,0,0.1,0
	c0.3,0,0.6-0.2,0.7-0.6c0.1-0.4-0.2-0.7-0.5-0.8C51.9,43.7,51.5,42.9,51.4,42.8z"/>
<path class="st0" d="M38.7,46.2c-8.7,1.9-12.4-4.1-12.5-4.3c-0.2-0.3-0.6-0.4-0.9-0.2c-0.3,0.2-0.4,0.6-0.2,0.9
	c0,0.1,1.1,1.8,3.3,3.3c1.6,1,3.9,2,7.1,2c1.1,0,2.2-0.1,3.5-0.4c0.4-0.1,0.6-0.4,0.5-0.8C39.4,46.4,39.1,46.1,38.7,46.2z"/>
</svg>
