<?xml version="1.0" encoding="utf-8"?>
<!-- Generator: Adobe Illustrator 26.0.0, SVG Export Plug-In . SVG Version: 6.00 Build 0)  -->
<svg version="1.1" id="Layer_1" xmlns="http://www.w3.org/2000/svg" xmlns:xlink="http://www.w3.org/1999/xlink" x="0px" y="0px"
	 viewBox="0 0 46 55" style="enable-background:new 0 0 46 55;" xml:space="preserve">
<style type="text/css">
	.st0{clip-path:url(#SVGID_00000176740550026634044920000008586141417773542300_);}
	.st1{fill-rule:evenodd;clip-rule:evenodd;fill:#568259;}
	.st2{fill:#568259;}
</style>
<g>
	<defs>
		<rect id="SVGID_1_" x="6.8" y="5.2" width="30.4" height="36.3"/>
	</defs>
	<clipPath id="SVGID_00000160909683456792027930000016745514262175710633_">
		<use xlink:href="#SVGID_1_"  style="overflow:visible;"/>
	</clipPath>
	<g style="clip-path:url(#SVGID_00000160909683456792027930000016745514262175710633_);">
		<path class="st1" d="M36.5,30c-1-1.4-3.6-1.8-5.2-2.2c-0.8-5,1.8-11.6,0.1-16.7c-2.7-7.9-16-7.9-18.7,0c-1.7,5.1,0.9,11.6,0,16.7
			c-1.8,0.5-4.3,1-5.2,2.2c-0.8,1.1-0.7,2.7-0.7,5.9c0,1.1,0,2.4,0,4c0,0.4,0.2,0.8,0.5,1.1c0.3,0.3,0.7,0.5,1.1,0.5h27.1
			c0.4,0,0.8-0.2,1.1-0.5c0.3-0.3,0.5-0.7,0.5-1.1c0-1.6,0-2.9,0.1-4C37.3,32.7,37.3,31.1,36.5,30z M13.7,11.5
			c2.3-6.8,14.2-6.8,16.5,0c1.5,4.5-0.7,11.1-0.2,16c-1.2-0.3-2-0.6-3.8-1v-3.2c1.3-1,2.2-2.2,2.5-3.9c0.2-1.4,0.1-4.6-0.3-5.9
			c0-0.1-0.1-0.2-0.2-0.3C28.2,13,28,13,27.9,13c-1.3,0.1-3.1-0.2-3.5-4.2c-0.1-0.6-1-0.7-1.1-0.1c-0.5,2.2-5.5,5.7-7.7,6.2
			c-0.1,0-0.2,0.1-0.3,0.2c-0.1,0.1-0.1,0.2-0.1,0.3c-0.1,2.8-0.2,5.7,2.5,7.7v3.2c-1.1,0.3-2.8,0.8-3.8,1
			C14.4,22.6,12.2,15.9,13.7,11.5L13.7,11.5z M18.6,22.4c-2.4-1.6-2.4-3.9-2.3-6.5c2.4-0.7,5.8-3.2,7.3-5.3c0.5,2,1.7,3.4,3.9,3.5
			c0.2,1.3,0.3,3.9,0.2,5c-0.2,1.5-1.2,2.6-2.4,3.4C23.2,23.8,20.6,23.7,18.6,22.4z M18.8,23.9c1,0.5,2.1,0.7,3.2,0.7
			c1.1,0,2.2-0.3,3.2-0.7v4.3c0,4.2-6.4,4.2-6.4,0V23.9z M36,35.9c0,1.1-0.1,2.4-0.1,4c0,0.1,0,0.1,0,0.2c0,0.1-0.1,0.1-0.1,0.2
			c0,0-0.1,0.1-0.2,0.1c-0.1,0-0.1,0-0.2,0h-4.2v-3c0-0.7-1.1-0.7-1.1,0v3H13.8v-3c0-0.7-1.1-0.7-1.1,0v3H8.5c-0.1,0-0.1,0-0.2,0
			c-0.1,0-0.1-0.1-0.2-0.1c0,0-0.1-0.1-0.1-0.2C8,40,8,40,8,39.9c0-1.6,0-2.9,0-4c-0.1-3-0.1-4.4,0.5-5.2c0.5-0.8,1.9-1.1,4.5-1.8
			c1.3-0.3,2.9-0.7,4.8-1.3v0.6c0,5.7,8.6,5.7,8.6,0v-0.6c2.2,0.6,3.5,1,4.8,1.3c1.2,0.3,3.8,0.8,4.5,1.8
			C36.1,31.4,36.1,32.9,36,35.9L36,35.9z"/>
		<path class="st2" d="M31.3,33.6H30c-0.1,0-0.2,0-0.3,0.1c-0.1,0.1-0.1,0.2-0.1,0.3v1.3h-0.9v-1.3c0-0.1,0-0.2-0.1-0.3
			c-0.1-0.1-0.2-0.1-0.3-0.1h-1.3v-0.9h1.3c0.1,0,0.2,0,0.3-0.1c0.1-0.1,0.1-0.2,0.1-0.3v-1.3h0.9v1.3c0,0.1,0,0.2,0.1,0.3
			c0.1,0.1,0.2,0.1,0.3,0.1h1.3V33.6z"/>
	</g>
</g>
</svg>
