<svg width="232" height="232" viewBox="0 0 232 232" fill="none" xmlns="http://www.w3.org/2000/svg">
<g clip-path="url(#clip0_201_60)">
<path d="M122.938 9.56655e-05C130.814 1.96513 139.674 2.94765 147.55 4.91268C198.744 19.6504 233.201 67.7938 231.232 119.867C229.263 173.906 189.884 219.101 137.705 228.927C130.814 229.909 123.922 230.892 118.015 231.874H115.062C113.093 231.874 111.124 230.892 109.155 230.892C58.9456 227.944 18.5813 193.556 4.79834 145.413C2.82934 138.535 1.84485 130.675 0.860352 123.797C0.860352 117.902 0.860352 112.007 0.860352 106.112C0.860352 105.129 1.84485 104.147 1.84485 102.182C6.76733 56.0036 40.2402 16.7029 85.527 3.93017C93.403 1.96513 101.279 0.982613 110.139 -0.982422H122.938V9.56655e-05ZM130.814 41.2658C129.829 43.2309 129.829 46.1784 129.829 48.1434C127.86 71.7239 129.829 94.3218 134.752 116.92C140.659 140.5 132.783 159.168 117.031 175.871C102.263 190.608 85.527 201.416 66.8216 211.241C64.8526 212.224 63.8681 213.206 60.9146 214.189C66.8216 217.136 70.7596 219.101 75.6821 220.084C76.6666 220.084 79.62 220.084 80.6045 219.101C86.5115 211.241 94.3875 207.311 103.248 205.346C112.108 203.381 117.031 197.486 119.984 189.626C124.907 174.888 134.752 164.081 146.566 154.255C155.426 147.378 161.333 139.518 164.287 128.71C170.194 107.095 164.287 88.4267 150.504 71.7239C140.659 63.8637 132.783 54.0386 130.814 41.2658ZM125.891 74.6714C124.907 76.6365 124.907 77.619 124.907 78.6015C121.953 108.077 112.108 133.622 90.4495 154.255C76.6666 167.028 67.8061 183.731 61.8991 201.416C60.9146 204.364 59.9301 208.294 58.9456 211.241C59.9301 211.241 59.9301 212.224 60.9146 212.224C73.7131 203.381 87.496 195.521 100.294 186.678C109.155 179.801 118.015 170.958 124.907 161.133C131.798 152.29 135.736 142.465 133.767 130.675C131.798 112.99 128.845 93.3392 125.891 74.6714ZM134.752 5.8952C84.5425 -5.89501 26.4573 25.5456 9.72082 76.6365C10.7053 75.6539 10.7053 74.6714 11.6898 74.6714C20.5503 62.8812 31.3797 55.0211 45.1627 51.091C54.0231 49.126 63.8681 48.1434 72.7286 46.1784C94.3875 42.2483 113.093 34.3882 127.86 16.7029C130.814 13.7553 132.783 9.82527 134.752 5.8952ZM138.69 5.8952C138.69 20.633 141.643 33.4057 152.473 43.2309C162.318 52.0735 173.147 58.9511 182.992 66.8113C193.822 74.6714 204.651 82.5316 214.496 91.3742C219.418 95.3043 222.372 101.199 227.294 107.094C225.325 59.9337 185.946 13.7553 138.69 5.8952ZM2.82934 114.955C22.5193 90.3917 49.1007 77.619 78.6355 70.7413C105.217 64.8462 119 45.1959 129.829 20.633C128.845 20.633 127.86 20.633 127.86 21.6155C111.124 39.3008 89.465 47.1609 64.8526 50.1085C55.0076 51.091 45.1627 54.0386 35.3177 57.9686C13.6588 67.7938 -0.124145 91.3742 2.82934 114.955ZM120.969 50.1085C119 54.0386 117.031 56.9861 114.077 60.9162C102.263 78.6015 85.527 90.3917 67.8061 101.199C65.8371 102.182 63.8681 103.164 62.8836 105.129C56.9766 117.902 47.1317 127.727 36.3022 135.588C25.4728 143.448 17.5968 154.255 18.5813 168.993C18.5813 173.906 22.5193 178.818 25.4728 182.748C26.4573 183.731 33.3487 181.766 36.3022 178.818C40.2402 175.871 44.1782 172.923 46.1472 168.993C50.0852 163.098 54.0231 156.22 55.9921 149.343C59.9301 136.57 66.8216 123.797 75.6821 113.972C82.5735 106.112 90.4495 98.2518 98.3255 90.3917C109.155 78.6015 117.031 64.8462 120.969 50.1085ZM119.984 47.1609L119 46.1784C118.015 46.1784 118.015 47.1609 117.031 47.1609C106.201 60.9162 92.4185 69.7588 75.6821 73.6889C47.1317 79.584 23.5038 93.3393 4.79834 115.937C3.81384 117.902 1.84485 120.85 1.84485 121.832C1.84485 128.71 2.82934 135.588 3.81384 142.465L5.78283 143.448C17.5968 121.832 38.2712 112.99 57.9611 103.164C76.6665 94.3218 93.403 82.5316 106.201 66.8113C111.124 59.9337 115.062 54.0386 119.984 47.1609ZM163.302 89.4092C165.271 94.3218 167.24 99.2344 169.209 105.129C176.101 125.762 178.07 146.395 166.256 165.063C158.38 176.853 159.364 188.643 163.302 200.434C164.287 204.364 167.24 208.294 170.194 211.241C171.178 212.224 173.147 212.224 174.132 212.224C179.054 209.276 182.992 207.311 184.961 201.416C192.837 180.783 194.806 160.15 189.884 139.518C185.946 119.867 177.085 104.147 163.302 89.4092ZM135.736 15.7204C130.814 38.3183 133.767 51.091 150.504 63.8637C163.302 73.6889 176.101 81.549 189.884 90.3917C206.62 100.217 216.465 114.955 219.418 133.622C220.403 138.535 220.403 143.448 221.387 150.325C229.263 128.71 230.248 110.042 212.527 94.3218C201.698 83.5141 189.884 75.6539 177.085 67.7938C158.38 55.0211 139.674 41.2658 135.736 15.7204ZM55.0076 211.241C55.9921 202.399 55.9921 194.539 57.9611 185.696C60.9146 166.046 67.8061 147.378 82.5735 133.622C102.263 115.937 113.093 94.3218 119.984 69.7588C120.969 64.8462 121.953 60.9162 122.938 56.0036C120.969 56.9861 119.984 58.9511 119.984 59.9337C115.062 72.7064 107.186 84.4966 96.3565 94.3218C92.4185 98.2518 87.496 102.182 84.5425 106.112C69.7751 121.832 58.9456 139.518 55.0076 160.15C53.0386 170.958 50.0852 182.748 47.1317 193.556C44.1782 204.364 44.1782 204.364 54.0231 210.259C54.0231 211.241 55.0076 211.241 55.0076 211.241ZM187.915 200.434C187.915 200.434 188.899 200.434 188.899 201.416C193.822 196.504 198.744 191.591 202.682 185.696C203.667 184.713 203.667 181.766 203.667 179.801C203.667 168.011 201.698 155.238 203.667 143.448C205.636 127.727 201.698 113.972 192.837 102.182C180.039 85.4791 161.333 76.6365 145.581 64.8462C163.302 83.5141 180.039 101.199 188.899 125.762C197.76 151.308 197.76 175.871 187.915 200.434ZM152.473 222.049C152.473 221.067 152.473 221.067 152.473 220.084C146.566 199.451 151.488 180.783 163.302 164.081C171.178 153.273 173.147 140.5 172.163 126.745C172.163 121.832 170.194 116.92 169.209 111.025C168.225 112.99 168.225 112.99 168.225 112.99C168.225 113.972 168.225 114.955 168.225 115.937C168.225 132.64 161.333 146.395 147.55 156.22C136.721 164.081 131.798 171.941 137.705 189.626C141.643 201.416 144.597 212.224 139.674 224.997C145.581 224.997 149.519 223.032 152.473 222.049ZM122.938 75.6539C121.953 76.6365 121.953 76.6365 121.953 76.6365C121.953 77.619 120.969 78.6015 120.969 79.584C114.077 101.199 103.248 119.867 85.527 135.588C80.6045 140.5 76.6665 146.395 72.7286 152.29C64.8526 166.046 60.9146 180.783 59.9301 198.469C59.9301 196.504 60.9146 195.521 60.9146 195.521C66.8216 176.853 77.6511 162.115 91.434 148.36C112.108 128.71 119.984 103.164 122.938 75.6539ZM13.6588 165.063H14.6433C16.6123 149.343 25.4728 138.535 37.2867 130.675C43.1937 126.745 48.1162 119.867 54.0231 114.955C55.9921 112.99 56.9766 110.042 58.9456 107.094C50.0852 110.042 42.2092 113.972 35.3177 117.902C24.4883 124.78 14.6433 132.64 8.73632 144.43C7.75183 146.395 6.76733 149.343 7.75182 150.325C8.73632 155.238 11.6898 160.15 13.6588 165.063ZM131.798 172.923C119 185.696 116.046 207.311 124.907 224.014C126.876 226.962 127.86 227.944 131.798 227.944C134.752 227.944 137.705 225.979 138.69 223.032C141.643 214.189 140.659 205.346 137.705 196.504C134.752 188.643 133.767 180.783 131.798 172.923ZM192.837 96.2868C207.605 112.007 209.574 129.692 205.636 150.325C203.667 160.15 204.651 169.976 207.605 179.801C231.232 156.22 215.481 107.095 192.837 96.2868ZM80.6045 224.014C95.372 228.927 109.155 229.909 122.938 228.927C119.984 220.084 118.015 211.241 116.046 203.381C111.124 205.346 106.201 208.294 100.294 210.259C92.4185 212.224 86.5115 216.154 80.6045 224.014ZM51.0697 168.011L50.0852 167.028C44.1782 175.871 37.2867 182.748 25.4728 185.696C31.3797 191.591 36.3022 196.504 42.2092 202.399C46.1472 190.608 48.1162 179.801 51.0697 168.011ZM169.209 215.171C159.364 206.329 158.38 195.521 156.411 184.713C151.488 196.504 151.488 208.294 155.426 221.067C160.349 219.101 164.287 217.136 169.209 215.171Z" fill="#568259"/>
</g>
<defs>
<clipPath id="clip0_201_60">
<rect width="232" height="232" fill="white"/>
</clipPath>
</defs>
</svg>
