<svg xmlns="http://www.w3.org/2000/svg" xmlns:xlink="http://www.w3.org/1999/xlink" width="1080" zoomAndPan="magnify" viewBox="0 0 810 1012.49997" height="1350" preserveAspectRatio="xMidYMid meet" version="1.0"><path fill="#5f8a68" d="M 117.132812 385.816406 C 117.65625 385.792969 118.179688 385.777344 118.703125 385.78125 L 119.742188 385.777344 L 120.902344 385.78125 L 122.128906 385.777344 C 123.261719 385.777344 124.390625 385.777344 125.523438 385.777344 C 126.75 385.777344 127.980469 385.777344 129.207031 385.777344 C 131.363281 385.777344 133.515625 385.773438 135.671875 385.777344 C 138.878906 385.777344 142.082031 385.773438 145.289062 385.773438 C 151.347656 385.769531 157.40625 385.769531 163.464844 385.769531 C 169.832031 385.765625 176.199219 385.765625 182.566406 385.765625 C 194.152344 385.761719 205.738281 385.761719 217.324219 385.765625 L 220.582031 385.765625 C 231.828125 385.765625 243.078125 385.761719 254.328125 385.757812 C 268.3125 385.757812 282.300781 385.757812 296.28125 385.75 L 297.289062 385.75 C 302.625 385.75 307.960938 385.75 313.296875 385.746094 C 318.667969 385.746094 324.039062 385.746094 329.410156 385.746094 C 332.59375 385.746094 335.78125 385.746094 338.96875 385.742188 C 341.101562 385.742188 343.238281 385.742188 345.371094 385.746094 C 346.585938 385.746094 347.796875 385.746094 349.011719 385.742188 C 371.609375 385.703125 393 390.308594 412.828125 401.472656 C 420.367188 405.878906 427.257812 411.253906 433.699219 417.125 L 434.652344 417.976562 C 434.976562 418.265625 435.296875 418.558594 435.621094 418.847656 L 436.089844 419.261719 C 436.464844 419.601562 436.824219 419.957031 437.179688 420.316406 L 437.179688 420.894531 L 437.757812 420.894531 C 438.148438 421.28125 438.148438 421.28125 438.609375 421.835938 C 439.484375 422.867188 440.386719 423.859375 441.308594 424.84375 C 443.046875 426.726562 444.621094 428.710938 446.164062 430.75 L 446.644531 431.378906 C 457.15625 445.214844 463.980469 461.058594 467.617188 478.003906 C 468.789062 476.648438 469.671875 475.132812 470.589844 473.601562 C 470.953125 472.996094 471.320312 472.394531 471.683594 471.789062 L 472.257812 470.839844 C 473.195312 469.292969 474.148438 467.75 475.101562 466.210938 C 476.722656 463.578125 478.335938 460.9375 479.9375 458.292969 C 481.734375 455.332031 483.539062 452.378906 485.355469 449.433594 C 486.601562 447.414062 487.839844 445.390625 489.070312 443.363281 C 490.492188 441.019531 491.925781 438.683594 493.363281 436.351562 C 495.113281 433.515625 496.84375 430.671875 498.570312 427.820312 C 500.035156 425.40625 501.511719 423.003906 503 420.605469 C 504.296875 418.519531 505.570312 416.417969 506.84375 414.316406 C 508.65625 411.328125 510.480469 408.34375 512.316406 405.367188 C 513.726562 403.082031 515.125 400.789062 516.519531 398.492188 C 518.0625 395.957031 519.617188 393.421875 521.179688 390.894531 L 521.742188 389.984375 L 522.238281 389.175781 C 522.71875 388.449219 522.71875 388.449219 522.976562 387.664062 L 523.566406 386.976562 C 524.542969 386.753906 525.515625 386.792969 526.511719 386.8125 L 527.429688 386.8125 C 528.433594 386.8125 529.433594 386.824219 530.4375 386.835938 C 531.132812 386.839844 531.828125 386.839844 532.519531 386.84375 C 534.347656 386.847656 536.175781 386.863281 538.007812 386.878906 C 539.871094 386.890625 541.738281 386.898438 543.601562 386.90625 C 547.265625 386.921875 550.925781 386.945312 554.585938 386.976562 C 554.15625 388.332031 553.605469 389.4375 552.828125 390.621094 C 551.414062 392.824219 550.085938 395.078125 548.769531 397.339844 C 547.113281 400.183594 545.429688 403.011719 543.714844 405.820312 C 542.042969 408.558594 540.402344 411.3125 538.785156 414.082031 C 537.070312 417.023438 535.328125 419.945312 533.550781 422.847656 C 531.984375 425.417969 530.445312 428.003906 528.929688 430.605469 C 527.328125 433.359375 525.695312 436.09375 524.039062 438.816406 C 522.164062 441.890625 520.308594 444.976562 518.476562 448.074219 C 517.894531 449.054688 517.316406 450.03125 516.738281 451.011719 C 515.542969 453.027344 514.347656 455.042969 513.148438 457.058594 L 512.796875 457.652344 C 510.886719 460.867188 508.96875 464.074219 507.042969 467.277344 C 504.523438 471.464844 502.019531 475.660156 499.527344 479.863281 C 498.042969 482.367188 496.550781 484.867188 495.050781 487.363281 C 493.695312 489.617188 492.351562 491.882812 491.007812 494.148438 C 489.183594 497.226562 487.347656 500.300781 485.503906 503.367188 C 484.15625 505.613281 482.820312 507.863281 481.488281 510.113281 C 479.601562 513.300781 477.695312 516.476562 475.769531 519.640625 C 474.046875 522.46875 472.347656 525.308594 470.667969 528.164062 C 469.511719 530.128906 468.347656 532.089844 467.183594 534.050781 L 466.132812 535.816406 C 464.265625 538.960938 462.386719 542.101562 460.496094 545.234375 C 458.621094 548.347656 456.765625 551.46875 454.929688 554.605469 C 454.609375 555.152344 454.289062 555.695312 453.972656 556.242188 C 453.140625 557.660156 452.308594 559.078125 451.484375 560.5 C 447.574219 567.195312 442.621094 573.257812 437.359375 578.933594 C 436.648438 579.707031 435.941406 580.492188 435.238281 581.28125 C 433.585938 583.121094 431.859375 584.84375 429.980469 586.457031 C 429.261719 587.082031 428.566406 587.734375 427.867188 588.382812 C 426.179688 589.917969 424.40625 591.320312 422.597656 592.710938 C 422.148438 593.0625 421.699219 593.417969 421.253906 593.777344 C 416.277344 597.726562 410.855469 601.070312 405.289062 604.109375 L 404.570312 604.511719 C 393.871094 610.46875 382.0625 614.21875 370.011719 616.230469 L 369.003906 616.402344 C 362.484375 617.425781 355.910156 617.53125 349.324219 617.511719 C 348.175781 617.507812 347.027344 617.511719 345.875 617.511719 C 343.65625 617.511719 341.441406 617.507812 339.222656 617.503906 C 336.648438 617.5 334.078125 617.5 331.503906 617.5 C 324.730469 617.496094 317.957031 617.488281 311.183594 617.480469 L 265.269531 617.445312 L 265.269531 480.902344 L 293.101562 480.902344 L 293.101562 590.195312 C 308.113281 590.203125 308.113281 590.203125 323.429688 590.210938 L 332.976562 590.21875 L 338.667969 590.222656 C 339.925781 590.222656 341.183594 590.222656 342.445312 590.226562 C 344.058594 590.226562 345.671875 590.226562 347.285156 590.226562 C 347.871094 590.226562 348.457031 590.226562 349.046875 590.230469 C 354.121094 590.238281 359.25 590.222656 364.289062 589.558594 L 365.140625 589.449219 C 380.585938 587.316406 395.246094 581.492188 407.609375 571.929688 L 408.417969 571.308594 C 409.90625 570.140625 411.324219 568.898438 412.722656 567.625 C 413.316406 567.085938 413.917969 566.558594 414.53125 566.042969 C 416.933594 563.945312 419.203125 561.636719 421.234375 559.175781 L 421.589844 558.746094 C 431.558594 546.75 438.371094 532.527344 441.152344 517.160156 C 441.996094 512.042969 442.464844 506.960938 442.46875 501.777344 L 442.46875 501.128906 C 442.457031 491.742188 440.941406 482.582031 438.046875 473.65625 L 437.796875 472.871094 C 433.476562 459.601562 425.613281 447.878906 415.835938 438.035156 L 415.082031 437.273438 C 413.355469 435.558594 411.546875 434 409.636719 432.492188 L 409.105469 432.0625 C 397.132812 422.5 382.71875 416.191406 367.59375 413.796875 C 361.535156 412.898438 355.578125 412.734375 349.460938 412.742188 C 348.363281 412.742188 347.265625 412.742188 346.167969 412.742188 C 344.246094 412.742188 342.328125 412.742188 340.40625 412.742188 C 337.550781 412.746094 334.695312 412.746094 331.839844 412.746094 C 327.039062 412.746094 322.234375 412.746094 317.429688 412.746094 C 312.675781 412.75 307.921875 412.75 303.164062 412.75 L 297.761719 412.75 C 287.121094 412.75 276.484375 412.753906 265.847656 412.757812 C 249.585938 412.757812 233.320312 412.761719 217.050781 412.765625 C 192.636719 412.765625 168.21875 412.773438 143.804688 412.777344 L 143.515625 617.734375 L 116.84375 617.734375 L 116.839844 603.039062 L 116.839844 602.261719 C 116.835938 585.34375 116.832031 568.421875 116.832031 551.5 L 116.832031 550.507812 L 116.828125 517.738281 C 116.824219 506.507812 116.824219 495.273438 116.820312 484.042969 C 116.816406 470.882812 116.8125 457.71875 116.816406 444.546875 L 116.816406 443.578125 C 116.816406 438.410156 116.8125 433.242188 116.8125 428.074219 C 116.8125 422.882812 116.808594 417.695312 116.808594 412.507812 C 116.8125 409.417969 116.808594 406.332031 116.808594 403.246094 C 116.808594 401.1875 116.808594 399.128906 116.808594 397.070312 C 116.808594 395.894531 116.808594 394.722656 116.808594 393.546875 C 116.804688 392.480469 116.804688 391.410156 116.808594 390.34375 C 116.808594 389.777344 116.808594 389.207031 116.804688 388.636719 L 116.808594 387.628906 L 116.808594 386.753906 L 116.84375 386.109375 Z M 117.132812 385.816406 " fill-opacity="1" fill-rule="nonzero"/><path fill="#5f8a68" d="M 355.285156 422.917969 L 356.015625 422.917969 C 356.445312 422.914062 356.875 422.914062 357.300781 422.910156 C 359.074219 422.90625 360.8125 423.050781 362.566406 423.269531 L 363.53125 423.386719 C 371.699219 424.4375 379.566406 426.671875 387.027344 430.171875 L 387.761719 430.515625 C 393.371094 433.144531 398.441406 436.429688 403.261719 440.316406 L 403.78125 440.734375 C 408.046875 444.183594 412.128906 448.109375 415.4375 452.492188 C 415.699219 452.832031 415.964844 453.167969 416.230469 453.503906 C 424.511719 464.132812 429.871094 476.8125 431.777344 490.144531 C 433.730469 504.183594 432.035156 518.179688 426.765625 531.34375 C 423.273438 539.839844 418.378906 547.417969 412.246094 554.246094 L 411.816406 554.734375 C 402.707031 564.960938 390.765625 572.179688 377.851562 576.550781 C 373.734375 577.894531 369.554688 578.761719 365.285156 579.46875 L 364.613281 579.578125 C 346.039062 582.570312 317.757812 580.125 304.40625 580.046875 L 304.40625 480.902344 L 331.945312 480.902344 L 331.945312 553.085938 C 348.304688 553.53125 348.304688 553.53125 365.011719 551.566406 L 365.824219 551.375 C 373.398438 549.53125 380.539062 546.03125 386.445312 540.910156 L 387.152344 540.300781 C 394.222656 534.0625 399.277344 526.542969 402.335938 517.613281 C 405.285156 508.652344 405.464844 499.085938 403.550781 489.890625 C 402.664062 486.03125 401.226562 482.425781 399.492188 478.875 L 399.207031 478.292969 C 397.828125 475.484375 396.171875 472.953125 394.273438 470.46875 L 393.664062 469.65625 C 388.230469 462.742188 381.089844 457.546875 372.992188 454.167969 C 369.65625 452.84375 366.214844 451.929688 362.691406 451.242188 L 361.976562 451.101562 C 357.648438 450.316406 353.269531 450.421875 348.886719 450.417969 L 346.703125 450.414062 C 345.121094 450.410156 343.542969 450.410156 341.964844 450.40625 C 339.617188 450.40625 337.269531 450.402344 334.921875 450.398438 C 330.972656 450.390625 327.023438 450.386719 323.074219 450.378906 C 317.683594 450.371094 312.292969 450.363281 306.902344 450.355469 C 298.15625 450.34375 289.410156 450.332031 280.664062 450.320312 C 272.171875 450.308594 263.675781 450.296875 255.179688 450.28125 L 254.386719 450.28125 L 230.417969 450.246094 L 229.667969 450.246094 C 213.222656 450.21875 196.777344 450.195312 180.332031 450.175781 L 180.621094 480.613281 L 254.253906 480.902344 L 254.253906 508.445312 L 153.660156 508.445312 L 153.660156 423.214844 L 184.023438 423.171875 L 184.800781 423.167969 L 210.648438 423.132812 L 211.5 423.128906 L 238.835938 423.089844 L 239.738281 423.089844 L 346.644531 422.933594 C 348.394531 422.929688 350.144531 422.929688 351.894531 422.925781 C 353.027344 422.925781 354.15625 422.921875 355.285156 422.917969 M 554.585938 411.039062 C 555.585938 411.941406 556.1875 412.886719 556.835938 414.0625 C 557.039062 414.425781 557.242188 414.792969 557.445312 415.15625 L 557.757812 415.714844 C 558.589844 417.1875 559.484375 418.621094 560.367188 420.0625 L 561.007812 421.113281 C 561.449219 421.839844 561.890625 422.566406 562.332031 423.289062 C 563.386719 425.019531 564.441406 426.753906 565.492188 428.488281 L 565.804688 428.996094 C 567.417969 431.660156 569.027344 434.328125 570.625 437 C 572.113281 439.476562 573.605469 441.945312 575.105469 444.410156 C 576.527344 446.746094 577.941406 449.085938 579.34375 451.433594 C 580.601562 453.53125 581.867188 455.625 583.140625 457.710938 C 584.6875 460.253906 586.222656 462.796875 587.75 465.347656 C 589.011719 467.445312 590.277344 469.539062 591.546875 471.625 C 593.09375 474.167969 594.628906 476.710938 596.15625 479.265625 C 597.417969 481.359375 598.683594 483.453125 599.953125 485.542969 C 601.5 488.082031 603.035156 490.625 604.5625 493.175781 C 605.945312 495.484375 607.34375 497.785156 608.742188 500.085938 C 609.878906 501.949219 611.007812 503.816406 612.128906 505.691406 C 613.332031 507.691406 614.539062 509.691406 615.753906 511.6875 L 616.074219 512.214844 C 617.144531 513.972656 618.210938 515.734375 619.28125 517.488281 C 619.785156 518.316406 620.289062 519.140625 620.792969 519.96875 L 621.09375 520.464844 C 622.929688 523.484375 624.734375 526.519531 626.53125 529.5625 C 627.847656 531.785156 629.171875 534.003906 630.5625 536.183594 C 631.90625 538.3125 633.171875 540.484375 634.453125 542.652344 C 636.527344 546.171875 636.527344 546.171875 638.675781 549.644531 C 640.015625 551.761719 641.300781 553.910156 642.589844 556.058594 C 644.347656 559 646.117188 561.9375 647.894531 564.863281 C 649.445312 567.40625 650.984375 569.957031 652.511719 572.511719 C 653.21875 573.691406 653.929688 574.867188 654.652344 576.035156 L 655.105469 576.769531 C 655.390625 577.226562 655.675781 577.6875 655.964844 578.148438 C 656.289062 578.679688 656.609375 579.214844 656.917969 579.757812 L 656.917969 580.335938 L 516.03125 580.335938 L 516.03125 553.957031 L 607.347656 553.957031 C 605.796875 551.203125 604.253906 548.472656 602.601562 545.78125 C 602.066406 544.90625 601.53125 544.03125 600.996094 543.15625 L 600.683594 542.640625 C 599.617188 540.886719 598.578125 539.121094 597.542969 537.351562 C 596.597656 535.734375 595.628906 534.128906 594.660156 532.523438 C 593.980469 531.386719 593.296875 530.253906 592.617188 529.117188 L 591.71875 527.621094 L 589.980469 524.722656 L 588.707031 522.597656 C 587.921875 521.292969 587.136719 519.984375 586.351562 518.679688 C 584.433594 515.488281 582.527344 512.292969 580.628906 509.089844 C 578.679688 505.796875 576.710938 502.519531 574.722656 499.25 C 572.945312 496.332031 571.195312 493.398438 569.457031 490.457031 C 567.851562 487.746094 566.226562 485.042969 564.585938 482.351562 C 562.191406 478.425781 559.84375 474.472656 557.5 470.511719 C 556.632812 469.042969 555.757812 467.578125 554.875 466.117188 C 554.078125 467.066406 553.382812 468.085938 552.792969 469.175781 C 552.625 469.492188 552.453125 469.804688 552.273438 470.125 L 551.722656 471.136719 C 551.332031 471.847656 550.941406 472.558594 550.550781 473.269531 L 550.25 473.8125 C 549.300781 475.527344 548.316406 477.222656 547.320312 478.910156 C 545.757812 481.570312 544.234375 484.25 542.734375 486.945312 C 541.238281 489.628906 539.71875 492.292969 538.191406 494.953125 C 537.496094 496.171875 536.800781 497.386719 536.105469 498.605469 L 535.234375 500.128906 L 534.777344 500.929688 L 532.632812 504.683594 L 531.453125 506.742188 C 530.558594 508.3125 529.664062 509.878906 528.765625 511.445312 C 528.277344 512.300781 527.789062 513.152344 527.300781 514.007812 L 527.007812 514.515625 C 525.445312 517.25 523.902344 519.996094 522.371094 522.746094 C 521.328125 524.613281 520.257812 526.460938 519.164062 528.296875 C 518.113281 530.074219 517.109375 531.878906 516.101562 533.683594 C 514.761719 536.097656 513.390625 538.492188 511.988281 540.875 C 510.519531 543.375 509.097656 545.894531 507.695312 548.429688 C 506.421875 550.734375 505.136719 553.027344 503.789062 555.289062 C 502.738281 557.054688 501.738281 558.847656 500.738281 560.644531 C 499.386719 563.070312 498.011719 565.476562 496.605469 567.871094 C 495.039062 570.546875 493.507812 573.242188 492 575.949219 C 490.523438 578.597656 489.023438 581.226562 487.515625 583.855469 C 486.707031 585.269531 485.898438 586.6875 485.089844 588.101562 L 483.605469 590.695312 L 483.304688 591.222656 L 481.503906 594.371094 C 479.597656 597.703125 477.695312 601.039062 475.808594 604.382812 C 468.734375 616.910156 468.734375 616.910156 467.90625 617.734375 C 467.425781 617.761719 466.945312 617.769531 466.464844 617.769531 L 465.515625 617.769531 L 464.46875 617.765625 L 463.371094 617.765625 C 462.375 617.765625 461.378906 617.765625 460.386719 617.765625 C 459.347656 617.761719 458.304688 617.761719 457.265625 617.761719 C 455.296875 617.761719 453.328125 617.757812 451.359375 617.753906 C 449.117188 617.753906 446.878906 617.75 444.636719 617.75 C 440.023438 617.746094 435.414062 617.742188 430.800781 617.734375 C 431.195312 616.503906 431.640625 615.476562 432.320312 614.375 L 432.902344 613.425781 L 433.214844 612.925781 C 433.777344 612.023438 434.332031 611.113281 434.886719 610.207031 L 435.238281 609.632812 C 436.535156 607.515625 437.800781 605.378906 439.0625 603.238281 C 440.882812 600.164062 442.722656 597.097656 444.582031 594.046875 C 446.242188 591.324219 447.875 588.589844 449.5 585.847656 C 451.320312 582.769531 453.160156 579.707031 455.019531 576.652344 C 456.679688 573.929688 458.3125 571.195312 459.933594 568.453125 C 461.753906 565.375 463.59375 562.3125 465.457031 559.257812 C 467.113281 556.539062 468.746094 553.800781 470.371094 551.058594 C 472.191406 547.980469 474.03125 544.917969 475.890625 541.867188 C 477.550781 539.144531 479.183594 536.40625 480.808594 533.664062 C 482.753906 530.375 484.722656 527.097656 486.710938 523.832031 C 488.21875 521.359375 489.710938 518.878906 491.199219 516.394531 C 492.136719 514.824219 493.082031 513.261719 494.03125 511.699219 L 494.335938 511.199219 L 494.644531 510.695312 C 496.539062 507.59375 498.398438 504.476562 500.230469 501.339844 C 502.039062 498.242188 503.882812 495.160156 505.75 492.09375 L 506.675781 490.582031 C 507.902344 488.570312 509.113281 486.546875 510.324219 484.527344 L 510.65625 483.96875 C 511.1875 483.082031 511.722656 482.191406 512.253906 481.300781 C 513.359375 479.457031 514.464844 477.613281 515.574219 475.773438 L 519.964844 468.449219 L 520.527344 467.511719 L 521.683594 465.589844 C 522.824219 463.6875 522.824219 463.6875 523.964844 461.78125 C 524.957031 460.121094 525.957031 458.464844 526.96875 456.808594 L 528.207031 454.777344 L 528.523438 454.253906 C 530.289062 451.355469 532.011719 448.433594 533.722656 445.503906 C 535 443.308594 536.296875 441.132812 537.65625 438.988281 C 538.886719 437.042969 540.039062 435.054688 541.199219 433.070312 C 543.019531 429.972656 544.898438 426.910156 546.765625 423.839844 C 548.03125 421.757812 549.292969 419.667969 550.546875 417.578125 L 550.910156 416.96875 C 551.496094 415.992188 552.082031 415.011719 552.664062 414.035156 L 553.300781 412.972656 L 553.863281 412.03125 C 554.296875 411.328125 554.296875 411.328125 554.585938 411.039062 M 554.875 386.976562 C 558.875 386.882812 562.875 386.8125 566.875 386.765625 C 568.730469 386.746094 570.589844 386.714844 572.445312 386.671875 C 574.238281 386.625 576.03125 386.601562 577.824219 386.59375 C 578.507812 386.585938 579.191406 386.570312 579.875 386.546875 C 584.226562 386.414062 584.226562 386.414062 585.894531 386.976562 C 586.8125 387.648438 587.34375 388.460938 587.847656 389.46875 C 588.074219 389.988281 588.292969 390.511719 588.503906 391.035156 C 588.828125 391.582031 589.160156 392.125 589.503906 392.65625 C 589.816406 393.171875 590.128906 393.691406 590.441406 394.207031 L 591.5 395.949219 L 592.035156 396.832031 C 592.875 398.214844 593.714844 399.601562 594.554688 400.984375 L 595.058594 401.808594 C 596.347656 403.921875 597.640625 406.03125 598.941406 408.140625 C 601.25 411.890625 603.542969 415.648438 605.828125 419.414062 C 607.609375 422.347656 609.394531 425.28125 611.207031 428.195312 C 612.777344 430.726562 614.328125 433.273438 615.871094 435.820312 C 617.367188 438.292969 618.875 440.757812 620.394531 443.21875 C 622.015625 445.851562 623.628906 448.488281 625.230469 451.136719 C 626.648438 453.480469 628.078125 455.816406 629.523438 458.148438 C 630.972656 460.476562 632.398438 462.8125 633.820312 465.160156 C 635.632812 468.148438 637.457031 471.132812 639.292969 474.109375 C 640.703125 476.402344 642.105469 478.699219 643.503906 481 C 644.761719 483.066406 646.027344 485.128906 647.296875 487.191406 C 649.023438 489.992188 650.742188 492.804688 652.445312 495.621094 C 654.136719 498.410156 655.839844 501.191406 657.554688 503.96875 C 658.96875 506.261719 660.367188 508.558594 661.765625 510.859375 C 663.023438 512.925781 664.292969 514.988281 665.5625 517.050781 C 667.289062 519.855469 669.003906 522.664062 670.710938 525.480469 C 672.191406 527.925781 673.683594 530.363281 675.183594 532.796875 C 676.789062 535.398438 678.382812 538.007812 679.964844 540.621094 C 681.757812 543.578125 683.5625 546.53125 685.378906 549.472656 C 686.84375 551.847656 688.296875 554.230469 689.742188 556.617188 L 690.203125 557.378906 C 690.351562 557.625 690.5 557.871094 690.652344 558.125 C 690.992188 558.667969 691.347656 559.207031 691.714844 559.734375 L 692.292969 560.582031 L 692.835938 561.34375 L 693.15625 562.074219 C 692.886719 563.140625 692.308594 564.03125 691.742188 564.964844 L 691.230469 565.816406 L 690.675781 566.730469 L 690.089844 567.699219 C 689.472656 568.722656 688.851562 569.746094 688.226562 570.769531 L 687.925781 571.269531 C 687.019531 572.761719 686.113281 574.253906 685.207031 575.746094 C 684.097656 577.570312 682.996094 579.394531 681.898438 581.222656 L 681.546875 581.8125 C 680.984375 582.75 680.425781 583.6875 679.863281 584.625 C 679.273438 585.613281 678.679688 586.601562 678.082031 587.585938 L 677.5 588.546875 L 676.953125 589.433594 L 676.46875 590.21875 L 676.050781 590.773438 L 675.472656 590.773438 L 675.207031 590.308594 C 673.472656 587.246094 671.714844 584.199219 669.898438 581.183594 C 668.699219 579.191406 667.507812 577.195312 666.324219 575.191406 L 664.832031 572.675781 C 663.699219 570.757812 662.5625 568.84375 661.425781 566.929688 C 659.773438 564.15625 658.125 561.375 656.484375 558.59375 L 654.601562 555.40625 L 654.300781 554.902344 C 653.390625 553.359375 652.480469 551.820312 651.566406 550.28125 C 649.773438 547.261719 647.960938 544.261719 646.132812 541.265625 C 644.875 539.199219 643.640625 537.125 642.472656 535.007812 C 641.53125 533.3125 640.527344 531.648438 639.523438 529.988281 C 638.335938 528.019531 637.171875 526.039062 636.015625 524.054688 C 634.269531 521.054688 632.492188 518.074219 630.683594 515.109375 C 628.816406 512.050781 626.988281 508.972656 625.179688 505.875 C 623.636719 503.234375 622.082031 500.601562 620.519531 497.972656 L 620.167969 497.378906 L 618.78125 495.042969 C 617.671875 493.183594 616.566406 491.320312 615.464844 489.457031 C 613.773438 486.605469 612.082031 483.753906 610.390625 480.902344 C 608.511719 477.738281 606.632812 474.570312 604.753906 471.402344 C 603.253906 468.867188 601.75 466.332031 600.246094 463.800781 C 597.589844 459.332031 594.941406 454.859375 592.289062 450.386719 C 589.898438 446.347656 587.503906 442.308594 585.105469 438.273438 C 583.53125 435.621094 581.957031 432.96875 580.386719 430.316406 C 578.714844 427.496094 577.042969 424.675781 575.367188 421.855469 L 575.019531 421.269531 L 569.75 412.398438 L 569.402344 411.8125 C 567.660156 408.875 565.917969 405.933594 564.175781 402.996094 C 562.984375 400.984375 561.792969 398.976562 560.601562 396.96875 L 558.804688 393.953125 C 558.171875 392.882812 557.539062 391.816406 556.90625 390.746094 L 556.597656 390.222656 C 556.304688 389.734375 556.015625 389.242188 555.730469 388.75 L 555.230469 387.902344 C 554.875 387.265625 554.875 387.265625 554.875 386.976562 " fill-opacity="1" fill-rule="nonzero"/><path fill="#5f8a68" d="M 153.660156 519.460938 L 254.253906 519.460938 L 254.253906 547 L 180.332031 547.289062 C 180.34375 570.363281 180.34375 570.363281 180.355469 593.441406 C 180.359375 597.890625 180.359375 597.890625 180.359375 599.972656 C 180.359375 601.433594 180.359375 602.894531 180.359375 604.355469 C 180.363281 606.214844 180.363281 608.074219 180.363281 609.929688 C 180.363281 610.617188 180.363281 611.300781 180.363281 611.984375 C 180.367188 612.90625 180.367188 613.824219 180.367188 614.746094 L 180.367188 615.570312 C 180.367188 616.195312 180.351562 616.820312 180.332031 617.445312 L 180.039062 617.734375 L 153.660156 617.734375 Z M 516.03125 591.0625 L 675.761719 591.0625 C 674.464844 593.445312 673.132812 595.808594 671.757812 598.148438 L 671.4375 598.695312 C 669.636719 601.765625 667.800781 604.8125 665.945312 607.851562 C 664.449219 610.300781 662.980469 612.769531 661.539062 615.25 L 661.105469 615.988281 L 660.730469 616.632812 C 660.398438 617.15625 660.398438 617.15625 659.820312 617.734375 C 659.046875 617.789062 658.273438 617.8125 657.5 617.804688 L 656.765625 617.808594 C 655.9375 617.808594 655.113281 617.804688 654.289062 617.804688 C 653.695312 617.804688 653.101562 617.804688 652.507812 617.804688 C 650.871094 617.808594 649.234375 617.804688 647.59375 617.800781 C 645.832031 617.800781 644.066406 617.800781 642.304688 617.800781 C 639.246094 617.800781 636.1875 617.800781 633.128906 617.796875 C 629.917969 617.792969 626.710938 617.789062 623.503906 617.789062 L 619.863281 617.789062 C 612.6875 617.789062 605.515625 617.785156 598.339844 617.777344 C 589 617.769531 579.65625 617.765625 570.3125 617.761719 L 557.128906 617.757812 L 556.519531 617.757812 C 543.023438 617.753906 529.527344 617.742188 516.03125 617.734375 Z M 516.03125 591.0625 " fill-opacity="1" fill-rule="nonzero"/></svg>