<svg width="67" height="67" viewBox="0 0 67 67" fill="none" xmlns="http://www.w3.org/2000/svg">
<g clip-path="url(#clip0_463_301)">
<path d="M33.5 67C15.0284 67 0 51.9716 0 33.5C0 15.0284 15.0284 0 33.5 0C51.9716 0 67 15.0284 67 33.5C67 51.9716 51.9716 67 33.5 67ZM33.5 1.33113C15.7627 1.33113 1.33113 15.7627 1.33113 33.5C1.33113 51.2373 15.7627 65.6689 33.5 65.6689C51.2373 65.6689 65.6689 51.2483 65.6689 33.5C65.6689 15.7517 51.2483 1.33113 33.5 1.33113Z" fill="#568259"/>
<path d="M22.7778 29.7285C24.7382 29.7285 26.3275 28.1392 26.3275 26.1788C26.3275 24.2184 24.7382 22.6292 22.7778 22.6292C20.8174 22.6292 19.2281 24.2184 19.2281 26.1788C19.2281 28.1392 20.8174 29.7285 22.7778 29.7285Z" fill="#568259"/>
<path d="M44.7413 29.7285C46.7017 29.7285 48.291 28.1392 48.291 26.1788C48.291 24.2184 46.7017 22.6292 44.7413 22.6292C42.7809 22.6292 41.1917 24.2184 41.1917 26.1788C41.1917 28.1392 42.7809 29.7285 44.7413 29.7285Z" fill="#568259"/>
<path d="M17.2758 42.5406C18.8825 44.8339 20.9541 46.7632 23.3557 48.2031C25.7572 49.643 28.435 50.5612 31.2149 50.8979C31.9513 50.9829 32.692 51.0258 33.4334 51.0266C36.6284 51.0135 39.7739 50.2364 42.6074 48.7602C45.441 47.284 47.8803 45.1515 49.7219 42.5406L47.8561 41.3337C46.2402 43.6428 44.0913 45.5282 41.5915 46.8299C39.0918 48.1316 36.315 48.8112 33.4966 48.8112C30.6783 48.8112 27.9015 48.1316 25.4017 46.8299C22.902 45.5282 20.753 43.6428 19.1371 41.3337L17.2758 42.5406Z" fill="#568259"/>
</g>
<defs>
<clipPath id="clip0_463_301">
<rect width="67" height="67" fill="white"/>
</clipPath>
</defs>
</svg>
