<?xml version="1.0" encoding="utf-8"?>
<!-- Generator: Adobe Illustrator 26.0.0, SVG Export Plug-In . SVG Version: 6.00 Build 0)  -->
<svg version="1.1" id="Layer_1" xmlns="http://www.w3.org/2000/svg" xmlns:xlink="http://www.w3.org/1999/xlink" x="0px" y="0px"
	 viewBox="0 0 46 55" style="enable-background:new 0 0 46 55;" xml:space="preserve">
<style type="text/css">
	.st0{fill:#568259;}
</style>
<g id="Page-1">
	<g id="_x30_37---Heart-Pressure">
		<path id="Shape" class="st0" d="M22.1,34.4c-0.5,0.3-1,0.6-1.5,0.9c-8.4-4.7-12.5-9.1-12.5-13.6c0-3.7,2.6-6.4,6-6.4
			c2.4,0,4.6,1.1,6.1,2.9c0.1,0.1,0.3,0.2,0.4,0.2s0.3-0.1,0.4-0.2c1.5-1.9,3.7-3,6.1-2.9c2,0,3.8,1,4.9,2.6
			c0.1,0.2,0.3,0.3,0.5,0.2c0.2,0,0.4-0.1,0.5-0.3c0.1-0.2,0.1-0.4,0-0.5c-1.3-2-3.5-3.1-5.8-3.1c-2.5,0-4.9,1-6.5,2.9
			c-1.7-1.8-4.1-2.9-6.5-2.9c-4,0-7.1,3.3-7.1,7.5c0,4.9,4.3,9.7,13.1,14.6c0.2,0.1,0.3,0.1,0.5,0.1c0.2,0,0.4,0,0.5-0.1
			c0.5-0.3,1-0.6,1.5-0.9c0.3-0.2,0.3-0.5,0.2-0.7C22.7,34.3,22.3,34.2,22.1,34.4L22.1,34.4z"/>
		<path id="Shape_00000165945086814654758580000009079150952904310709_" class="st0" d="M9.1,21.6c0,0.3,0.2,0.5,0.5,0.5
			c0.3,0,0.5-0.2,0.5-0.5c0-2.1,1.4-4.3,3.9-4.3c0.3,0,0.5-0.2,0.5-0.5c0-0.3-0.2-0.5-0.5-0.5C10.9,16.3,9.1,19,9.1,21.6z"/>
		<path id="Shape_00000000914143264365449640000012733341245116777134_" class="st0" d="M30.5,18.9c-4.2,0-7.8,3-8.4,7.2
			s1.8,8.2,5.8,9.5v2c0,0.8,0.4,1.5,1.1,1.8v3c0,0.9,0.7,1.6,1.6,1.6s1.6-0.7,1.6-1.6v-3c0.7-0.4,1.1-1.1,1.1-1.8v-2
			c4-1.3,6.4-5.3,5.8-9.5S34.7,18.9,30.5,18.9L30.5,18.9z M31,42.4c0,0.3-0.2,0.5-0.5,0.5s-0.5-0.2-0.5-0.5v-2.7H31V42.4z
			 M32.1,37.6c0,0.6-0.5,1.1-1.1,1.1h-1.1c-0.6,0-1.1-0.5-1.1-1.1v-1.8c1.1,0.2,2.1,0.2,3.2,0V37.6z M31,34.9v-1
			c0-0.3-0.2-0.5-0.5-0.5s-0.5,0.2-0.5,0.5v1c-3.7-0.3-6.6-3.2-6.9-6.9h1c0.3,0,0.5-0.2,0.5-0.5s-0.2-0.5-0.5-0.5h-1
			c0.3-3.7,3.2-6.6,6.9-6.9v1c0,0.3,0.2,0.5,0.5,0.5s0.5-0.2,0.5-0.5v-1c3.7,0.3,6.6,3.2,6.9,6.9h-1c-0.3,0-0.5,0.2-0.5,0.5
			s0.2,0.5,0.5,0.5h1C37.6,31.7,34.7,34.6,31,34.9z"/>
		<path id="Shape_00000029767563094109817370000017788853800999902858_" class="st0" d="M34.4,22.8l-2.8,2.8
			c-0.3-0.2-0.7-0.3-1.1-0.3c-1.2,0-2.1,1-2.1,2.1s1,2.1,2.1,2.1s2.1-1,2.1-2.1c0-0.4-0.1-0.8-0.3-1.1l2.8-2.8
			c0.2-0.2,0.2-0.5,0-0.7C34.9,22.6,34.6,22.6,34.4,22.8L34.4,22.8z M30.5,28.5c-0.5,0-0.9-0.3-1-0.8c-0.1-0.5,0.1-1,0.5-1.2
			c0.4-0.2,0.9-0.2,1.3,0.2c0.3,0.3,0.4,0.8,0.2,1.2C31.3,28.3,30.9,28.5,30.5,28.5L30.5,28.5z"/>
	</g>
</g>
</svg>
