<?xml version="1.0" encoding="utf-8"?>
<!-- Generator: Adobe Illustrator 26.0.0, SVG Export Plug-In . SVG Version: 6.00 Build 0)  -->
<svg version="1.1" id="Layer_1" xmlns="http://www.w3.org/2000/svg" xmlns:xlink="http://www.w3.org/1999/xlink" x="0px" y="0px"
	 viewBox="0 0 46 36" style="enable-background:new 0 0 46 36;" xml:space="preserve">
<style type="text/css">
	.st0{clip-path:url(#SVGID_00000176007723763370823890000016961337118478869906_);}
	.st1{fill:#568259;}
</style>
<g>
	<g>
		<defs>
			<rect id="SVGID_1_" x="2.9" y="3.9" width="40.3" height="29.5"/>
		</defs>
		<clipPath id="SVGID_00000094605537528484504540000016085998027104409999_">
			<use xlink:href="#SVGID_1_"  style="overflow:visible;"/>
		</clipPath>
		<g style="clip-path:url(#SVGID_00000094605537528484504540000016085998027104409999_);">
			<path class="st1" d="M42.5,18.1H39c1.4-3.2,1.3-5.8,0.7-7.6c-0.9-3.1-4-6.6-8.6-6.6c-1.3,0-2.5,0.2-3.7,0.7
				c-2.2,0.8-3.6,1.7-4.3,2.1c-0.7-0.5-2.1-1.3-4.3-2.1c-1.2-0.4-2.4-0.7-3.7-0.7c-4.6,0-7.7,3.4-8.6,6.6c-0.5,1.9-0.7,4.7,1.1,8.3
				H3.5c-0.2,0-0.3,0.1-0.4,0.2c-0.1,0.1-0.2,0.3-0.2,0.4s0.1,0.3,0.2,0.4c0,0.1,0.2,0.2,0.4,0.2h4.9c0.2,0.4,0.4,0.7,0.7,1
				c4,5.7,12.6,12,14.2,12.4l0,0h0.1h0.1l0,0c1.3-0.7,9.7-6,14-12.4c0.4-0.5,0.8-1.1,1.1-1.7h4c0.1,0,0.2,0,0.2,0
				c0.1,0,0.1-0.1,0.2-0.1c0.1-0.1,0.1-0.1,0.1-0.2s0-0.2,0-0.2C43.1,18.3,42.8,18.1,42.5,18.1z M36.3,20.3
				c-4,6-11.5,10.7-13.1,11.8c-1.6-1-9.1-5.9-13.2-11.8L9.8,20h5.6c0.1,0,0.2,0,0.3-0.1s0.2-0.1,0.2-0.3l2.6-5.1l4,10.3
				c0,0.1,0.1,0.2,0.2,0.3c0.1,0.1,0.2,0.1,0.3,0.1l0,0c0.1,0,0.3-0.1,0.4-0.1c0.1-0.1,0.2-0.2,0.2-0.3l3.5-12.1l1.9,6.1
				c0,0.1,0.1,0.2,0.2,0.3c0.1,0.1,0.2,0.1,0.3,0.1c0.1,0,0.2,0,0.3-0.1c0.1,0,0.2-0.1,0.3-0.2l1.5-2.2l1.3,2.1
				C33,18.9,33,19,33.1,19c0.1,0.1,0.2,0.1,0.3,0.1H37C36.8,19.6,36.6,20,36.3,20.3z M37.7,18.1H34l-1.6-2.7
				c-0.1-0.1-0.1-0.2-0.2-0.2c-0.1-0.1-0.2-0.1-0.3-0.1c-0.1,0-0.2,0-0.3,0.1c-0.1,0-0.2,0.1-0.2,0.2L30,17.3l-2.1-6.9
				c-0.1-0.3-0.3-0.4-0.6-0.5c-0.1,0-0.3,0-0.4,0.1s-0.2,0.2-0.2,0.3l-3.6,12.3l-3.9-9.9c0-0.1-0.1-0.2-0.2-0.3s-0.2-0.1-0.3-0.1
				c-0.1,0-0.2,0-0.3,0.1c-0.1,0.1-0.2,0.2-0.2,0.3l-3,5.9H9c-1.5-2.8-2-5.5-1.3-7.9c0.8-2.7,3.4-5.6,7.4-5.6c1.1,0,2.2,0.2,3.3,0.6
				c2.8,1,4.3,2.2,4.3,2.2C22.8,8,22.9,8,23.1,8c0.1,0,0.3-0.1,0.4-0.1c0,0,1.5-1.2,4.3-2.2c1.1-0.4,2.2-0.6,3.3-0.6
				c3.9,0,6.6,2.9,7.4,5.6C39.3,13,38.9,15.5,37.7,18.1z"/>
		</g>
	</g>
</g>
</svg>
