<?xml version="1.0" encoding="utf-8"?>
<!-- Generator: Adobe Illustrator 26.0.0, SVG Export Plug-In . SVG Version: 6.00 Build 0)  -->
<svg version="1.1" id="Layer_1" xmlns="http://www.w3.org/2000/svg" xmlns:xlink="http://www.w3.org/1999/xlink" x="0px" y="0px"
	 viewBox="0 0 46 43.8" style="enable-background:new 0 0 46 43.8;" xml:space="preserve">
<style type="text/css">
	.st0{clip-path:url(#SVGID_00000092458097001539404170000010998068970190357172_);}
	.st1{fill:#568259;}
</style>
<g>
	<g>
		<defs>
			<rect id="SVGID_1_" x="3.7" y="1.8" width="38.6" height="39.5"/>
		</defs>
		<clipPath id="SVGID_00000128461225172910302190000004902022215297347237_">
			<use xlink:href="#SVGID_1_"  style="overflow:visible;"/>
		</clipPath>
		<g style="clip-path:url(#SVGID_00000128461225172910302190000004902022215297347237_);">
			<path class="st1" d="M8.8,41.3c-0.2,0-0.3-0.1-0.4-0.2c-0.1-0.1-0.2-0.3-0.2-0.4V20.9c0-0.2,0.1-0.3,0.2-0.4
				c0.1-0.1,0.3-0.2,0.4-0.2c0.2,0,0.3,0.1,0.4,0.2c0.1,0.1,0.2,0.3,0.2,0.4v19.7c0,0.2-0.1,0.3-0.2,0.4C9.1,41.2,9,41.3,8.8,41.3z"
				/>
			<path class="st1" d="M37.2,41.3c-0.2,0-0.3-0.1-0.4-0.2c-0.1-0.1-0.2-0.3-0.2-0.4V20.9c0-0.2,0.1-0.3,0.2-0.4
				c0.1-0.1,0.3-0.2,0.4-0.2c0.2,0,0.3,0.1,0.4,0.2c0.1,0.1,0.2,0.3,0.2,0.4v19.7c0,0.2-0.1,0.3-0.2,0.4
				C37.5,41.2,37.4,41.3,37.2,41.3z"/>
			<path class="st1" d="M39.2,23.4c-0.2,0-0.3-0.1-0.4-0.2L23,8.2l-15.8,15c-0.1,0.1-0.1,0.1-0.2,0.1s-0.2,0-0.2,0
				c-0.1,0-0.2,0-0.2-0.1s-0.1-0.1-0.2-0.1l-2.5-2.6c-0.1-0.1-0.2-0.3-0.2-0.4c0-0.2,0.1-0.3,0.2-0.4l4.3-4.1V6.2
				c0-0.2,0.1-0.3,0.2-0.4c0.1-0.1,0.3-0.2,0.4-0.2h5.1c0.2,0,0.3,0.1,0.4,0.2c0.1,0.1,0.2,0.3,0.2,0.4v3.4l8-7.7
				c0.1-0.1,0.3-0.2,0.4-0.2c0.2,0,0.3,0.1,0.4,0.2L42,19.7c0.1,0.1,0.1,0.1,0.1,0.2s0.1,0.2,0.1,0.2c0,0.1,0,0.2,0,0.2
				s-0.1,0.1-0.1,0.2l-2.5,2.6c-0.1,0.1-0.1,0.1-0.2,0.1C39.4,23.4,39.3,23.4,39.2,23.4L39.2,23.4z M23,6.8c0.2,0,0.3,0.1,0.4,0.2
				l15.7,15l1.6-1.7L23,3.3l-8.7,8.3c-0.1,0.1-0.2,0.1-0.3,0.2c-0.1,0-0.2,0-0.4,0c-0.1,0-0.2-0.1-0.3-0.2c-0.1-0.1-0.1-0.2-0.1-0.3
				V6.8H9.4v9.1c0,0.1,0,0.2,0,0.2c0,0.1-0.1,0.1-0.1,0.2l-4,3.8L6.8,22L22.5,7c0.1-0.1,0.1-0.1,0.2-0.1C22.8,6.8,22.9,6.8,23,6.8
				L23,6.8z"/>
			<path class="st1" d="M15.3,28.7c-0.1,0-0.2,0-0.2,0c-0.1,0-0.1-0.1-0.2-0.1c-0.5-0.6-1-1.2-1.2-2c-0.3-0.7-0.4-1.5-0.3-2.3
				c0.1-0.8,0.3-1.5,0.7-2.2s0.9-1.3,1.5-1.7c0.6-0.5,1.4-0.8,2.1-0.9c0.8-0.2,1.6-0.1,2.3,0c0.8,0.2,1.5,0.5,2.1,1s1.1,1.1,1.5,1.8
				c0,0.1,0.1,0.2,0.1,0.2c0,0.1,0,0.2,0,0.2c0,0.1-0.1,0.1-0.1,0.2c-0.1,0.1-0.1,0.1-0.2,0.2c-0.1,0-0.2,0.1-0.2,0.1
				c-0.1,0-0.2,0-0.2,0c-0.1,0-0.1-0.1-0.2-0.1c-0.1-0.1-0.1-0.1-0.2-0.2c-0.3-0.5-0.7-1-1.1-1.4c-0.5-0.4-1-0.6-1.6-0.8
				c-0.6-0.1-1.2-0.2-1.8,0s-1.2,0.4-1.6,0.7c-0.5,0.4-0.9,0.8-1.2,1.3s-0.5,1.1-0.5,1.7c-0.1,0.6,0,1.2,0.2,1.8
				c0.2,0.6,0.5,1.1,0.9,1.5c0.1,0.1,0.1,0.1,0.1,0.2s0,0.2,0,0.2c0,0.1,0,0.2-0.1,0.2c0,0.1-0.1,0.1-0.1,0.2
				c-0.1,0.1-0.1,0.1-0.2,0.1C15.4,28.7,15.3,28.7,15.3,28.7z"/>
			<path class="st1" d="M30.7,28.7c-0.1,0-0.2,0-0.3-0.1c-0.1-0.1-0.2-0.2-0.2-0.3c0-0.1-0.1-0.2,0-0.4c0-0.1,0.1-0.2,0.2-0.3
				c0.4-0.4,0.7-1,0.9-1.5c0.2-0.6,0.3-1.2,0.2-1.8c-0.1-0.6-0.2-1.2-0.5-1.7s-0.7-1-1.2-1.3s-1.1-0.6-1.6-0.7
				c-0.6-0.1-1.2-0.1-1.8,0c-0.6,0.1-1.1,0.4-1.6,0.8s-0.9,0.8-1.1,1.4c0,0.1-0.1,0.1-0.2,0.2s-0.1,0.1-0.2,0.1s-0.2,0-0.2,0
				c-0.1,0-0.2,0-0.2-0.1c-0.1,0-0.1-0.1-0.2-0.2s-0.1-0.1-0.1-0.2s0-0.2,0-0.2c0-0.1,0-0.2,0.1-0.2c0.4-0.7,0.9-1.3,1.5-1.8
				s1.3-0.8,2.1-1c0.8-0.2,1.6-0.2,2.3,0c0.8,0.2,1.5,0.5,2.1,0.9c0.6,0.5,1.2,1,1.6,1.7s0.6,1.4,0.7,2.2c0.1,0.8,0,1.6-0.3,2.3
				c-0.3,0.7-0.7,1.4-1.2,2c-0.1,0.1-0.1,0.1-0.2,0.1S30.8,28.7,30.7,28.7z"/>
			<path class="st1" d="M23,35.5c-0.2,0-0.3-0.1-0.4-0.2l-7.7-6.8c-0.1-0.1-0.2-0.3-0.2-0.4c0-0.2,0-0.3,0.2-0.4
				c0.1-0.1,0.3-0.2,0.4-0.2c0.2,0,0.3,0,0.4,0.2l7.3,6.5l7.3-6.4c0.1-0.1,0.1-0.1,0.2-0.1s0.2,0,0.2,0c0.1,0,0.2,0,0.2,0.1
				c0.1,0,0.1,0.1,0.2,0.1c0.1,0.1,0.1,0.1,0.1,0.2s0,0.2,0,0.2c0,0.1,0,0.2-0.1,0.2c0,0.1-0.1,0.1-0.2,0.2l-7.7,6.8
				C23.3,35.5,23.1,35.5,23,35.5L23,35.5z"/>
			<path class="st1" d="M9.9,41.3c-0.4,0-0.8,0-1.2-0.1c-0.2,0-0.3-0.1-0.4-0.3c-0.1-0.1-0.1-0.3-0.1-0.5s0.1-0.3,0.3-0.4
				c0.1,0,0.2,0,0.4,0c0.1,0,6.3,0.9,13.7-5.6c0.1-0.1,0.1-0.1,0.2-0.1s0.2,0,0.2,0c0.1,0,0.2,0,0.2,0.1c0.1,0,0.1,0.1,0.2,0.1
				c0.1,0.1,0.1,0.1,0.1,0.2c0,0.1,0,0.2,0,0.2s0,0.2-0.1,0.2c0,0.1-0.1,0.1-0.2,0.2C17.4,40.6,12.2,41.3,9.9,41.3z"/>
			<path class="st1" d="M36.1,41.3c-2.3,0-7.5-0.7-13.5-5.9c-0.1-0.1-0.1-0.1-0.2-0.2c0-0.1-0.1-0.2-0.1-0.2c0-0.1,0-0.2,0-0.2
				c0-0.1,0.1-0.1,0.1-0.2c0.1-0.1,0.1-0.1,0.2-0.1s0.2-0.1,0.2-0.1c0.1,0,0.2,0,0.2,0c0.1,0,0.1,0.1,0.2,0.1C30.8,41,37,40,37.1,40
				s0.2,0,0.2,0c0.1,0,0.2,0.1,0.2,0.1c0.1,0,0.1,0.1,0.2,0.2c0,0.1,0.1,0.1,0.1,0.2c0,0.1,0,0.2,0,0.2c0,0.1-0.1,0.2-0.1,0.2
				c0,0.1-0.1,0.1-0.2,0.2c-0.1,0-0.1,0.1-0.2,0.1C36.9,41.3,36.5,41.3,36.1,41.3z"/>
		</g>
	</g>
</g>
</svg>
