<?xml version="1.0" encoding="utf-8"?>
<!-- Generator: Adobe Illustrator 26.0.0, SVG Export Plug-In . SVG Version: 6.00 Build 0)  -->
<svg version="1.1" id="svg1269" xmlns="http://www.w3.org/2000/svg" xmlns:xlink="http://www.w3.org/1999/xlink" x="0px" y="0px"
	 viewBox="0 0 682.7 682.7" style="enable-background:new 0 0 682.7 682.7;" xml:space="preserve">
<style type="text/css">
	.st0{fill:#568259;}
</style>
<g id="g1275" transform="matrix(1.3333333,0,0,-1.3333333,0,682.66667)">
	<g id="g1277" transform="translate(384.2583,109.4075)">
		<path class="st0" d="M-5.5-0.9c-1.2,0-2.5,0.3-3.6,1c-3.4,2-4.6,6.4-2.6,9.8l45.2,78.3c2,3.4,6.4,4.6,9.8,2.6
			c3.4-2,4.6-6.4,2.6-9.8L0.7,2.7C-0.6,0.4-3-0.9-5.5-0.9z"/>
	</g>
	<g id="g1281" transform="translate(191.8711,71.6289)">
		<path class="st0" d="M94.8,0.7H2.8c-4,0-7.2,3.2-7.2,7.2s3.2,7.2,7.2,7.2h92.1c4,0,7.2-3.2,7.2-7.2S98.8,0.7,94.8,0.7z"/>
	</g>
	<g id="g1285" transform="translate(65.5425,217.1396)">
		<path class="st0" d="M53.9-84.7c-2.5,0-4.9,1.3-6.2,3.6L2-1.9C0,1.5,1.2,5.9,4.6,7.9c3.4,2,7.8,0.8,9.8-2.6l45.7-79.2
			c2-3.4,0.8-7.8-2.6-9.8C56.3-84.3,55.1-84.7,53.9-84.7z"/>
	</g>
	<g id="g1289" transform="translate(129.8174,406.1868)">
		<path class="st0" d="M-41.7-95.3c-1.2,0-2.5,0.3-3.6,1c-3.4,2-4.6,6.4-2.6,9.8L-0.8-2.9c2,3.4,6.4,4.6,9.8,2.6
			c3.4-2,4.6-6.4,2.6-9.8l-47.2-81.7C-36.9-94-39.3-95.3-41.7-95.3z"/>
	</g>
	<g id="g1293" transform="translate(320.1289,440.3708)">
		<path class="st0" d="M-2.8-15.1h-92.1c-4,0-7.2,3.2-7.2,7.2s3.2,7.2,7.2,7.2h92.1c4,0,7.2-3.2,7.2-7.2S1.2-15.1-2.8-15.1z"/>
	</g>
	<g id="g1297" transform="translate(446.8018,294.2634)">
		<path class="st0" d="M-8.2-8.8c-2.5,0-4.9,1.3-6.2,3.6l-45.9,79.4c-2,3.4-0.8,7.8,2.6,9.8c3.4,2,7.8,0.8,9.8-2.6L-2,1.9
			c2-3.4,0.8-7.8-2.6-9.8C-5.7-8.5-7-8.8-8.2-8.8z"/>
	</g>
	<g id="g1301">
		<g>
			<g id="g1303">
				<g id="g1309" transform="translate(87.6611,256)">
					<path class="st0" d="M-31.1-45.5c-25.1,0-45.5,20.4-45.5,45.5c0,25.1,20.4,45.5,45.5,45.5C-6,45.5,14.4,25.1,14.4,0
						C14.4-25.1-6-45.5-31.1-45.5z M-31.1,31.2c-17.2,0-31.2-14-31.2-31.2c0-17.2,14-31.2,31.2-31.2c17.2,0,31.2,14,31.2,31.2
						C0.1,17.2-13.9,31.2-31.1,31.2z"/>
				</g>
				<g id="g1313" transform="translate(504.5,256)">
					<path class="st0" d="M-49-45.5c-25.1,0-45.5,20.4-45.5,45.5c0,25.1,20.4,45.5,45.5,45.5S-3.5,25.1-3.5,0
						C-3.5-25.1-23.9-45.5-49-45.5z M-49,31.2c-17.2,0-31.2-14-31.2-31.2c0-17.2,14-31.2,31.2-31.2c17.2,0,31.2,14,31.2,31.2
						C-17.9,17.2-31.8,31.2-49,31.2z"/>
				</g>
				<g id="g1317" transform="translate(400.2905,440.3708)">
					<path class="st0" d="M-44.6-53.5c-25.1,0-45.5,20.4-45.5,45.5s20.4,45.5,45.5,45.5S1,17.2,1-7.9S-19.5-53.5-44.6-53.5z
						 M-44.6,23.3c-17.2,0-31.2-14-31.2-31.2s14-31.2,31.2-31.2s31.2,14,31.2,31.2S-27.4,23.3-44.6,23.3z"/>
				</g>
				<g id="g1321" transform="translate(191.8711,440.3708)">
					<path class="st0" d="M-35.6-53.5c-25.1,0-45.5,20.4-45.5,45.5s20.4,45.5,45.5,45.5S9.9,17.2,9.9-7.9S-10.5-53.5-35.6-53.5z
						 M-35.6,23.3c-17.2,0-31.2-14-31.2-31.2s14-31.2,31.2-31.2s31.2,14,31.2,31.2S-18.4,23.3-35.6,23.3z"/>
				</g>
				<g id="g1325" transform="translate(400.2905,71.6289)">
					<path class="st0" d="M-44.6-37.6c-25.1,0-45.5,20.4-45.5,45.5s20.4,45.5,45.5,45.5S1,33,1,7.9S-19.5-37.6-44.6-37.6z
						 M-44.6,39.1c-17.2,0-31.2-14-31.2-31.2s14-31.2,31.2-31.2s31.2,14,31.2,31.2S-27.4,39.1-44.6,39.1z"/>
				</g>
				<g id="g1329" transform="translate(191.8711,71.6289)">
					<path class="st0" d="M-35.6-37.6c-25.1,0-45.5,20.4-45.5,45.5s20.4,45.5,45.5,45.5S9.9,33,9.9,7.9S-10.5-37.6-35.6-37.6z
						 M-35.6,39.1c-17.2,0-31.2-14-31.2-31.2s14-31.2,31.2-31.2S-4.4-9.3-4.4,7.9S-18.4,39.1-35.6,39.1z"/>
				</g>
			</g>
		</g>
	</g>
</g>
</svg>
