<svg xmlns="http://www.w3.org/2000/svg" xmlns:xlink="http://www.w3.org/1999/xlink" width="1366" zoomAndPan="magnify" viewBox="0 0 1024.5 576" height="768" preserveAspectRatio="xMidYMid meet" version="1.2"><defs><clipPath id="ba18ccf304"><path d="M 455.214844 231.214844 L 568.785156 231.214844 L 568.785156 344.785156 L 455.214844 344.785156 Z M 455.214844 231.214844 "/></clipPath><clipPath id="b7fc38806d"><path d="M 512 231.214844 C 480.640625 231.214844 455.214844 256.640625 455.214844 288 C 455.214844 319.359375 480.640625 344.785156 512 344.785156 C 543.359375 344.785156 568.785156 319.359375 568.785156 288 C 568.785156 256.640625 543.359375 231.214844 512 231.214844 Z M 512 231.214844 "/></clipPath><clipPath id="4a20cde0e0"><path d="M 469.011719 250.09375 L 555 250.09375 L 555 325.804688 L 469.011719 325.804688 Z M 469.011719 250.09375 "/></clipPath><clipPath id="c6dee94bf2"><path d="M 469.011719 250.09375 L 555 250.09375 L 555 325.804688 L 469.011719 325.804688 Z M 469.011719 250.09375 "/></clipPath></defs><g id="820517c9de"><g clip-rule="nonzero" clip-path="url(#ba18ccf304)"><g clip-rule="nonzero" clip-path="url(#b7fc38806d)"><path style=" stroke:none;fill-rule:nonzero;fill:#57815a;fill-opacity:1;" d="M 455.214844 231.214844 L 568.785156 231.214844 L 568.785156 344.785156 L 455.214844 344.785156 Z M 455.214844 231.214844 "/></g></g><g clip-rule="nonzero" clip-path="url(#4a20cde0e0)"><path style=" stroke:none;fill-rule:nonzero;fill:#ffffff;fill-opacity:1;" d="M 554.65625 301.660156 L 554.59375 303.117188 L 554.109375 305.136719 L 553.765625 306.1875 L 552.449219 308.070312 L 550.773438 309.585938 L 549.601562 310.335938 L 547.960938 310.820312 L 545.230469 311.125 L 543.898438 311.425781 L 543.9375 313.46875 L 544.363281 316.117188 L 544.179688 318.039062 L 543.675781 319.960938 L 542.378906 321.882812 L 541.308594 323.074219 L 539.449219 324.289062 L 537.667969 324.996094 L 536.050781 325.359375 L 534.007812 325.359375 L 532.148438 324.933594 L 530.832031 324.289062 L 529.84375 323.660156 L 528.769531 322.648438 L 527.820312 321.457031 L 527.113281 320.144531 L 526.222656 317.535156 L 525.3125 314.199219 L 525.210938 312.761719 L 525.128906 309.503906 L 525.515625 307.929688 L 525.515625 306.632812 L 523.753906 309.304688 L 522.078125 311.285156 L 520.136719 313.003906 L 519.285156 313.671875 L 517.890625 314.964844 L 516.453125 315.632812 L 514.574219 316.542969 L 512.632812 317.027344 L 510.507812 317.027344 L 508.953125 316.542969 L 507.253906 315.714844 L 505.796875 314.640625 L 504.605469 313.265625 C 504.605469 313.265625 504.140625 312.15625 504.097656 312.113281 L 503.613281 311.40625 L 503.1875 309.992188 L 502.964844 308.816406 L 502.964844 307.160156 L 503.1875 305.542969 L 503.898438 303.824219 L 504.867188 302.0625 L 506.0625 301.050781 L 507.234375 300.464844 L 507.980469 299.777344 L 508.730469 299.089844 L 508.304688 298.28125 L 507.09375 297.109375 L 506.140625 296.21875 L 504.765625 294.460938 L 504.464844 294.054688 L 504.140625 291.992188 L 503.957031 290.859375 L 504.339844 288.25 L 504.503906 287.199219 L 500.945312 284.148438 L 498.761719 281.234375 L 499.246094 283.296875 L 499.367188 284.410156 L 499.832031 288.109375 L 499.871094 290.839844 L 499.570312 293.042969 L 499.003906 295.207031 L 498.496094 296.582031 L 497.890625 297.695312 L 496.636719 299.210938 L 495.121094 300.265625 L 492.226562 301.457031 L 489.679688 301.457031 L 486.34375 300.546875 L 484.363281 299.414062 L 482.945312 298.058594 L 482.179688 296.441406 L 481.652344 294.015625 L 481.511719 292.863281 L 481.753906 290.253906 L 481.914062 288.757812 L 481.207031 288.65625 L 479.769531 288.878906 L 478.152344 288.878906 L 475.421875 288.617188 L 473.945312 287.886719 L 471.621094 286.046875 L 470.652344 284.550781 L 469.699219 282.46875 L 469.296875 280.082031 L 469.4375 277.796875 L 470.164062 275.652344 L 471.175781 274.175781 L 472.652344 272.699219 L 474.878906 271.609375 L 480.335938 270.515625 L 483.816406 270.335938 L 484.988281 270.316406 L 482.097656 267.523438 L 479.003906 263.238281 L 477.972656 259.476562 L 478.09375 257.796875 L 478.558594 255.695312 L 479.246094 254.722656 L 481.367188 252.335938 L 483.007812 251.265625 L 484.484375 250.679688 L 486.261719 250.292969 L 488 250.292969 L 490.285156 250.757812 L 491.863281 251.566406 L 493.523438 252.902344 L 495.222656 255.308594 L 496.234375 257.9375 L 497.34375 261.839844 L 497.546875 263.5 L 498.132812 262.570312 L 499.8125 260.164062 L 501.410156 258.34375 L 503.25 256.625 L 505.980469 255.027344 L 507.757812 254.5625 L 510.066406 254.417969 L 511.664062 255.007812 L 512.652344 255.308594 L 513.96875 256.039062 L 515.546875 257.414062 L 515.890625 257.980469 L 517.101562 259.757812 L 517.789062 261.863281 L 518.132812 263.78125 L 517.890625 264.875 L 517.34375 267.160156 L 516.453125 268.675781 L 514.332031 270.679688 L 513.199219 271.730469 L 514.351562 272.132812 L 516.152344 272.679688 L 516.941406 272.84375 L 516.738281 273.085938 L 517.304688 273.46875 L 519.183594 274.945312 L 520.925781 277.390625 L 521.269531 280.164062 L 520.925781 283.335938 L 520.703125 284.652344 L 521.875 286.230469 L 523.734375 288.375 L 524.484375 288.59375 L 524.484375 287 L 524.300781 286.089844 L 524.96875 283.257812 L 525.695312 280.40625 L 526.726562 277.714844 L 529.277344 275.714844 L 530.207031 274.664062 L 531.863281 274.480469 L 533.683594 274.074219 L 536.515625 274.480469 L 537.628906 274.84375 L 539.285156 275.773438 L 540.4375 276.542969 L 541.328125 277.535156 L 541.957031 278.464844 L 542.703125 279.820312 L 542.964844 280.75 L 543.128906 281.578125 L 543.167969 282.75 L 543.210938 284.226562 L 542.683594 285.804688 L 541.875 287.847656 L 540.882812 290.09375 L 540.09375 291.507812 L 539.953125 293.246094 L 541.449219 293.042969 L 542.683594 293.023438 L 546.40625 293.023438 L 547.78125 293.164062 L 549.902344 294.136719 L 552.1875 295.492188 L 553.179688 296.886719 L 553.96875 298.484375 L 554.515625 300.40625 Z M 554.65625 301.660156 "/></g><path style=" stroke:none;fill-rule:nonzero;fill:#ffffff;fill-opacity:1;" d="M 499.125 273.996094 L 499.328125 274.761719 L 499.328125 275.917969 L 498.941406 276.746094 L 498.03125 277.714844 L 496.757812 278.445312 L 496.050781 278.6875 L 495.078125 278.605469 L 494.007812 278.445312 L 493.421875 277.917969 L 492.632812 277.269531 L 492.085938 276.421875 L 491.460938 274.722656 L 492.027344 272.578125 L 492.167969 272.601562 L 493.257812 271.851562 L 494.332031 271.144531 L 496.699219 271.144531 L 498.171875 272.074219 L 499.003906 273.308594 Z M 532.085938 299.171875 L 531.925781 298.261719 L 531.601562 297.59375 L 530.730469 296.683594 L 528.648438 295.792969 L 526.929688 296.097656 L 525.71875 296.746094 L 525.070312 297.472656 L 524.683594 298.242188 L 524.402344 299.050781 L 524.363281 300 L 524.585938 301.011719 L 525.007812 302.105469 L 526.019531 303.015625 L 527.214844 303.398438 L 528.082031 303.621094 L 528.972656 303.621094 L 529.820312 303.296875 L 530.550781 302.832031 L 530.792969 302.628906 L 531.175781 302.183594 L 531.5625 301.71875 L 531.742188 301.335938 L 531.964844 300.730469 L 532.105469 300 Z M 532.085938 299.171875 "/><g clip-rule="nonzero" clip-path="url(#c6dee94bf2)"><path style=" stroke:none;fill-rule:nonzero;fill:#57815a;fill-opacity:1;" d="M 554.675781 300.769531 C 554.574219 299.65625 554.269531 298.546875 553.785156 297.535156 C 553.542969 297.027344 553.238281 296.523438 552.894531 296.078125 C 552.1875 295.148438 551.296875 294.398438 550.265625 293.875 C 549.761719 293.609375 549.214844 293.386719 548.667969 293.226562 C 548.125 293.066406 547.558594 292.964844 546.992188 292.882812 C 546.445312 292.800781 545.878906 292.761719 545.3125 292.742188 C 544.199219 292.679688 543.066406 292.722656 541.976562 292.863281 C 541.511719 292.921875 541.046875 292.984375 540.582031 293.085938 C 540.296875 292.296875 540.398438 291.425781 540.84375 290.699219 C 541.511719 289.628906 542.058594 288.515625 542.5 287.34375 C 542.601562 287.039062 542.722656 286.734375 542.824219 286.433594 C 542.867188 286.269531 542.925781 286.128906 542.964844 285.964844 L 543.089844 285.480469 C 543.25 284.835938 543.351562 284.1875 543.371094 283.539062 C 543.410156 282.894531 543.371094 282.226562 543.25 281.578125 C 543.027344 280.285156 542.523438 279.070312 541.753906 278.019531 C 541.367188 277.492188 540.945312 277.007812 540.460938 276.5625 C 539.488281 275.671875 538.375 274.984375 537.164062 274.519531 C 536.554688 274.277344 535.910156 274.117188 535.261719 273.996094 L 535.140625 273.976562 L 535.019531 273.953125 L 534.777344 273.914062 C 534.613281 273.894531 534.453125 273.875 534.292969 273.851562 C 533.96875 273.832031 533.625 273.8125 533.300781 273.832031 C 532.632812 273.851562 531.964844 273.953125 531.320312 274.117188 C 530.671875 274.296875 530.042969 274.542969 529.457031 274.863281 C 528.871094 275.1875 528.304688 275.574219 527.820312 276.039062 C 527.335938 276.503906 526.890625 277.007812 526.503906 277.554688 C 526.121094 278.101562 525.796875 278.6875 525.535156 279.3125 C 525.472656 279.476562 525.414062 279.617188 525.351562 279.777344 L 525.191406 280.242188 L 524.886719 281.175781 C 524.503906 282.429688 524.242188 283.703125 524.097656 284.996094 L 524.039062 285.480469 C 524.019531 285.644531 524.019531 285.804688 523.996094 285.964844 L 523.976562 286.453125 L 523.976562 287.421875 C 523.976562 287.503906 523.976562 287.585938 523.976562 287.664062 L 523.976562 287.90625 L 523.996094 288.332031 L 523.9375 288.210938 C 523.875 288.089844 523.835938 287.988281 523.753906 287.867188 C 523.734375 287.808594 523.695312 287.765625 523.652344 287.707031 C 523.613281 287.644531 523.59375 287.605469 523.554688 287.542969 C 523.289062 287.121094 522.988281 286.734375 522.644531 286.371094 C 522.300781 286.007812 521.914062 285.664062 521.511719 285.378906 L 521.347656 285.277344 C 520.945312 284.996094 521.125 283.945312 521.125 283.945312 C 521.167969 283.824219 521.207031 283.722656 521.246094 283.601562 C 521.410156 283.117188 521.53125 282.609375 521.613281 282.105469 C 521.792969 281.074219 521.792969 280.042969 521.613281 279.011719 C 521.347656 277.472656 520.660156 276.015625 519.609375 274.863281 C 519.265625 274.480469 518.882812 274.136719 518.476562 273.8125 C 517.667969 273.207031 516.757812 272.722656 515.789062 272.398438 C 515.324219 272.234375 514.835938 272.09375 514.351562 271.972656 C 514.148438 271.910156 513.925781 271.871094 513.726562 271.832031 C 514.191406 271.507812 514.636719 271.144531 515.078125 270.78125 L 515.242188 270.636719 L 515.402344 270.496094 L 515.566406 270.335938 L 515.644531 270.253906 L 515.726562 270.171875 C 515.828125 270.070312 515.929688 269.949219 516.011719 269.847656 C 516.089844 269.75 516.191406 269.625 516.292969 269.503906 C 516.636719 269.039062 516.941406 268.535156 517.203125 268.007812 L 517.304688 267.808594 C 517.34375 267.746094 517.363281 267.6875 517.40625 267.605469 C 517.464844 267.464844 517.527344 267.34375 517.566406 267.199219 L 517.730469 266.796875 L 517.871094 266.390625 C 518.03125 265.84375 518.152344 265.277344 518.195312 264.710938 C 518.296875 263.582031 518.152344 262.429688 517.808594 261.335938 C 517.464844 260.265625 516.960938 259.253906 516.292969 258.34375 C 515.625 257.433594 514.835938 256.644531 513.949219 255.976562 C 513.039062 255.308594 512.027344 254.785156 510.953125 254.460938 C 510.410156 254.296875 509.84375 254.175781 509.277344 254.136719 C 508.125 254.035156 506.96875 254.195312 505.878906 254.582031 C 505.332031 254.785156 504.828125 255.027344 504.320312 255.328125 C 503.835938 255.632812 503.371094 255.976562 502.945312 256.339844 C 502.523438 256.703125 502.097656 257.089844 501.710938 257.472656 C 500.925781 258.261719 500.195312 259.109375 499.550781 260.019531 C 498.902344 260.910156 498.355469 261.863281 497.871094 262.851562 C 497.75 261.738281 497.527344 260.628906 497.222656 259.535156 C 496.878906 258.28125 496.394531 257.070312 495.808594 255.894531 C 495.644531 255.613281 495.503906 255.328125 495.34375 255.046875 C 495.261719 254.90625 495.179688 254.761719 495.101562 254.621094 L 494.835938 254.21875 C 494.472656 253.671875 494.046875 253.164062 493.582031 252.699219 C 493.117188 252.234375 492.613281 251.832031 492.046875 251.46875 C 490.953125 250.757812 489.699219 250.316406 488.40625 250.171875 C 487.757812 250.09375 487.113281 250.09375 486.464844 250.152344 C 485.171875 250.273438 483.898438 250.636719 482.742188 251.246094 C 482.15625 251.546875 481.613281 251.890625 481.085938 252.296875 C 480.558594 252.699219 480.074219 253.144531 479.648438 253.652344 C 479.207031 254.15625 478.839844 254.703125 478.515625 255.289062 C 478.195312 255.875 477.953125 256.503906 477.769531 257.148438 C 477.585938 257.796875 477.484375 258.484375 477.464844 259.152344 C 477.445312 259.839844 477.484375 260.527344 477.628906 261.195312 C 477.75 261.863281 477.953125 262.527344 478.214844 263.15625 C 478.273438 263.316406 478.355469 263.480469 478.417969 263.621094 C 478.476562 263.761719 478.558594 263.925781 478.640625 264.066406 C 478.800781 264.347656 478.941406 264.652344 479.105469 264.933594 C 479.75 266.089844 480.519531 267.179688 481.410156 268.171875 C 481.410156 268.171875 482.277344 269.910156 481.066406 270.152344 L 480.824219 270.152344 L 480.398438 270.171875 C 480.113281 270.191406 479.832031 270.191406 479.550781 270.234375 C 479.265625 270.273438 478.984375 270.292969 478.699219 270.316406 C 478.417969 270.335938 478.132812 270.394531 477.851562 270.4375 C 477.285156 270.535156 476.71875 270.660156 476.171875 270.800781 C 476.03125 270.839844 475.886719 270.859375 475.746094 270.921875 C 475.605469 270.980469 475.464844 271.003906 475.324219 271.042969 C 475.179688 271.082031 475.039062 271.125 474.898438 271.183594 L 474.492188 271.347656 C 473.945312 271.566406 473.421875 271.832031 472.914062 272.15625 C 472.410156 272.476562 471.945312 272.84375 471.519531 273.265625 C 471.097656 273.691406 470.730469 274.15625 470.429688 274.664062 C 470.125 275.167969 469.863281 275.695312 469.660156 276.238281 C 469.277344 277.332031 469.09375 278.484375 469.113281 279.636719 C 469.132812 280.789062 469.335938 281.921875 469.699219 283.015625 C 469.742188 283.15625 469.800781 283.277344 469.84375 283.417969 C 469.882812 283.558594 469.941406 283.679688 470.003906 283.824219 C 470.125 284.085938 470.246094 284.347656 470.386719 284.613281 C 470.652344 285.117188 470.972656 285.601562 471.339844 286.066406 C 472.066406 287 472.957031 287.765625 473.988281 288.332031 C 475.039062 288.898438 476.191406 289.242188 477.386719 289.324219 C 477.972656 289.363281 478.578125 289.363281 479.164062 289.304688 C 479.46875 289.285156 479.75 289.222656 480.054688 289.183594 L 480.5 289.101562 C 480.640625 289.082031 480.78125 289.039062 480.925781 289 C 481.066406 288.960938 481.207031 288.917969 481.347656 288.898438 C 481.347656 288.898438 481.753906 289.484375 481.347656 291.101562 L 481.347656 291.125 C 481.347656 291.125 481.347656 291.125 481.347656 291.144531 C 481.144531 292.011719 481.085938 292.902344 481.125 293.792969 C 481.167969 294.320312 481.246094 294.824219 481.367188 295.328125 C 481.492188 295.835938 481.671875 296.320312 481.894531 296.804688 C 482.117188 297.269531 482.398438 297.734375 482.703125 298.140625 C 483.007812 298.566406 483.351562 298.949219 483.734375 299.3125 C 484.503906 300.019531 485.371094 300.609375 486.324219 301.03125 C 486.789062 301.234375 487.292969 301.417969 487.78125 301.558594 C 488.285156 301.699219 488.789062 301.800781 489.296875 301.863281 C 490.328125 301.984375 491.359375 301.941406 492.371094 301.742188 L 492.753906 301.660156 C 492.875 301.640625 492.996094 301.597656 493.117188 301.558594 C 493.179688 301.539062 493.238281 301.519531 493.300781 301.496094 L 493.480469 301.4375 C 493.605469 301.398438 493.726562 301.355469 493.847656 301.296875 C 494.3125 301.09375 494.777344 300.871094 495.222656 300.585938 C 495.324219 300.507812 495.445312 300.445312 495.542969 300.386719 L 495.847656 300.164062 L 496.152344 299.921875 C 496.191406 299.878906 496.253906 299.839844 496.292969 299.800781 L 496.433594 299.675781 C 496.535156 299.597656 496.617188 299.496094 496.71875 299.414062 L 496.859375 299.273438 L 496.980469 299.132812 C 497.164062 298.949219 497.304688 298.746094 497.464844 298.546875 C 498.074219 297.734375 498.558594 296.847656 498.902344 295.894531 L 499.144531 295.167969 C 499.183594 295.046875 499.226562 294.925781 499.246094 294.804688 C 499.265625 294.683594 499.328125 294.5625 499.347656 294.441406 L 499.527344 293.710938 L 499.570312 293.53125 C 499.589844 293.46875 499.589844 293.410156 499.609375 293.347656 L 499.691406 292.984375 L 499.769531 292.621094 L 499.8125 292.4375 L 499.851562 292.257812 L 499.972656 291.507812 C 499.992188 291.445312 499.992188 291.386719 499.992188 291.324219 L 500.015625 291.144531 L 500.054688 290.757812 C 500.074219 290.515625 500.113281 290.253906 500.113281 290.011719 C 500.113281 289.769531 500.136719 289.503906 500.15625 289.261719 C 500.175781 289.019531 500.15625 288.757812 500.15625 288.496094 C 500.15625 288.375 500.15625 288.25 500.15625 288.109375 L 500.136719 287.726562 L 500.113281 287.34375 L 500.09375 287.160156 C 500.09375 287.097656 500.09375 287.039062 500.074219 286.976562 C 499.953125 285.964844 499.769531 284.976562 499.527344 284.003906 C 499.425781 283.640625 499.328125 283.296875 499.207031 282.933594 C 499.488281 283.335938 499.8125 283.722656 500.136719 284.105469 C 500.800781 284.875 501.53125 285.582031 502.320312 286.230469 C 502.722656 286.53125 503.109375 286.855469 503.53125 287.140625 C 503.796875 287.320312 504.078125 287.503906 504.363281 287.664062 C 504.160156 288.050781 504.019531 288.453125 503.875 288.878906 C 503.695312 289.503906 503.59375 290.132812 503.554688 290.78125 C 503.53125 291.425781 503.574219 292.074219 503.714844 292.722656 C 503.835938 293.347656 504.058594 293.976562 504.382812 294.542969 C 504.683594 295.105469 505.070312 295.632812 505.515625 296.097656 C 505.960938 296.5625 506.425781 296.988281 506.910156 297.371094 C 506.910156 297.371094 508.488281 298.789062 507.394531 300.0625 L 507.414062 300.0625 C 507.3125 300.121094 507.191406 300.164062 507.09375 300.222656 C 506.160156 300.6875 505.332031 301.296875 504.605469 302.042969 C 504.242188 302.40625 503.917969 302.832031 503.632812 303.257812 C 503.351562 303.703125 503.109375 304.148438 502.90625 304.632812 C 502.703125 305.117188 502.5625 305.621094 502.460938 306.128906 C 502.359375 306.632812 502.300781 307.160156 502.300781 307.6875 C 502.277344 308.738281 502.441406 309.769531 502.785156 310.757812 C 502.945312 311.246094 503.148438 311.730469 503.390625 312.195312 C 503.632812 312.660156 503.898438 313.105469 504.199219 313.511719 C 504.808594 314.359375 505.535156 315.085938 506.363281 315.714844 L 506.6875 315.9375 C 506.789062 316.015625 506.910156 316.078125 507.011719 316.140625 C 507.070312 316.179688 507.113281 316.199219 507.171875 316.238281 L 507.335938 316.339844 C 507.457031 316.402344 507.558594 316.460938 507.679688 316.523438 C 508.144531 316.746094 508.628906 316.925781 509.113281 317.046875 C 509.234375 317.070312 509.355469 317.109375 509.476562 317.148438 L 509.863281 317.230469 C 509.984375 317.25 510.105469 317.269531 510.246094 317.292969 C 510.308594 317.292969 510.367188 317.3125 510.429688 317.3125 L 510.609375 317.332031 C 510.730469 317.351562 510.875 317.351562 510.996094 317.351562 L 511.359375 317.351562 C 511.601562 317.351562 511.863281 317.332031 512.128906 317.332031 C 513.136719 317.230469 514.109375 316.988281 515.058594 316.605469 L 515.402344 316.460938 L 515.746094 316.300781 C 515.867188 316.261719 515.96875 316.199219 516.089844 316.140625 C 516.210938 316.078125 516.3125 316.039062 516.433594 315.976562 L 517.101562 315.632812 L 517.265625 315.550781 C 517.324219 315.53125 517.363281 315.492188 517.425781 315.449219 L 517.75 315.269531 L 518.074219 315.085938 L 518.234375 314.984375 L 518.394531 314.886719 L 519.023438 314.480469 C 519.082031 314.441406 519.125 314.417969 519.183594 314.378906 L 519.347656 314.277344 L 519.648438 314.054688 C 519.851562 313.914062 520.054688 313.753906 520.257812 313.589844 C 520.460938 313.429688 520.640625 313.265625 520.84375 313.105469 C 521.046875 312.945312 521.207031 312.761719 521.390625 312.601562 L 521.671875 312.335938 L 521.933594 312.054688 L 522.199219 311.769531 L 522.320312 311.628906 C 522.359375 311.589844 522.398438 311.527344 522.441406 311.488281 C 523.109375 310.71875 523.714844 309.929688 524.261719 309.082031 C 524.585938 308.574219 524.867188 308.050781 525.152344 307.523438 C 525.152344 307.542969 525.152344 307.542969 525.152344 307.5625 L 525.109375 307.746094 L 525.027344 308.109375 L 524.96875 308.472656 C 524.949219 308.597656 524.929688 308.71875 524.90625 308.839844 L 524.867188 309.203125 L 524.847656 309.382812 C 524.847656 309.445312 524.828125 309.503906 524.828125 309.566406 C 524.726562 310.558594 524.707031 311.570312 524.746094 312.578125 C 524.785156 313.085938 524.808594 313.589844 524.886719 314.074219 L 524.949219 314.441406 L 524.96875 314.621094 L 525.007812 314.804688 C 525.050781 315.046875 525.109375 315.289062 525.152344 315.53125 C 525.171875 315.652344 525.210938 315.773438 525.25 315.894531 L 525.351562 316.261719 L 525.453125 316.625 C 525.496094 316.746094 525.535156 316.867188 525.574219 316.988281 L 525.816406 317.695312 L 526.082031 318.402344 C 526.121094 318.523438 526.160156 318.625 526.222656 318.746094 L 526.363281 319.089844 C 526.464844 319.3125 526.566406 319.554688 526.667969 319.777344 L 526.828125 320.121094 C 526.890625 320.242188 526.929688 320.34375 526.992188 320.464844 L 527.070312 320.628906 C 527.09375 320.6875 527.132812 320.730469 527.152344 320.789062 L 527.335938 321.113281 C 527.597656 321.539062 527.859375 321.960938 528.164062 322.347656 C 528.46875 322.730469 528.8125 323.117188 529.175781 323.460938 C 529.921875 324.148438 530.773438 324.714844 531.703125 325.097656 C 532.167969 325.300781 532.652344 325.460938 533.160156 325.5625 C 533.28125 325.601562 533.402344 325.601562 533.542969 325.644531 C 533.683594 325.683594 533.785156 325.683594 533.925781 325.703125 L 534.128906 325.722656 L 534.3125 325.746094 C 534.433594 325.746094 534.574219 325.765625 534.695312 325.765625 C 535.726562 325.804688 536.738281 325.683594 537.730469 325.402344 C 538.214844 325.257812 538.699219 325.078125 539.183594 324.875 C 539.648438 324.671875 540.117188 324.410156 540.539062 324.148438 C 541.410156 323.582031 542.179688 322.894531 542.824219 322.0625 C 543.472656 321.234375 543.9375 320.304688 544.242188 319.3125 C 544.382812 318.808594 544.484375 318.300781 544.542969 317.796875 C 544.585938 317.292969 544.585938 316.765625 544.542969 316.261719 C 544.523438 315.957031 544.464844 315.632812 544.402344 315.328125 C 543.855469 312.601562 545.3125 311.546875 545.3125 311.546875 C 545.617188 311.570312 545.9375 311.570312 546.242188 311.546875 C 546.808594 311.527344 547.394531 311.445312 547.960938 311.324219 C 548.527344 311.203125 549.074219 311.023438 549.601562 310.78125 C 550.125 310.535156 550.632812 310.253906 551.074219 309.890625 C 551.195312 309.808594 551.296875 309.707031 551.417969 309.628906 C 551.539062 309.546875 551.640625 309.445312 551.742188 309.34375 C 551.84375 309.242188 551.945312 309.140625 552.046875 309.039062 C 552.148438 308.941406 552.25 308.839844 552.328125 308.71875 C 552.695312 308.292969 553.039062 307.828125 553.320312 307.320312 C 553.605469 306.835938 553.847656 306.332031 554.027344 305.785156 C 554.070312 305.664062 554.128906 305.523438 554.167969 305.378906 C 554.210938 305.238281 554.25 305.117188 554.292969 304.976562 C 554.332031 304.835938 554.371094 304.714844 554.390625 304.570312 C 554.414062 304.429688 554.453125 304.289062 554.492188 304.167969 C 554.734375 303.015625 554.796875 301.882812 554.675781 300.769531 Z M 522.078125 286.9375 C 522.398438 287.28125 522.746094 287.625 523.089844 287.96875 C 523.167969 288.050781 523.269531 288.128906 523.351562 288.210938 C 523.433594 288.292969 523.53125 288.375 523.632812 288.453125 C 523.734375 288.535156 523.816406 288.617188 523.917969 288.695312 L 524.039062 288.796875 L 524.039062 288.878906 L 524.078125 289.363281 C 524.097656 289.527344 524.097656 289.6875 524.140625 289.847656 L 524.199219 290.335938 L 524.242188 290.578125 L 524.28125 290.820312 L 524.382812 291.304688 L 524.421875 291.546875 C 524.441406 291.628906 524.441406 291.710938 524.464844 291.789062 C 524.542969 292.113281 524.625 292.417969 524.707031 292.722656 C 525.03125 293.914062 525.496094 295.066406 526.0625 296.160156 C 525.71875 296.382812 525.414062 296.644531 525.152344 296.949219 C 524.808594 297.371094 524.542969 297.859375 524.402344 298.382812 C 524.382812 298.421875 524.382812 298.484375 524.363281 298.523438 C 523.308594 297.957031 522.277344 297.390625 521.269531 296.785156 C 521.003906 296.625 520.742188 296.460938 520.480469 296.300781 L 520.09375 296.058594 L 519.710938 295.792969 C 519.449219 295.632812 519.207031 295.429688 518.941406 295.269531 L 518.578125 294.984375 L 518.394531 294.84375 L 518.234375 294.703125 C 518.113281 294.601562 517.992188 294.519531 517.871094 294.417969 L 517.507812 294.117188 C 517.386719 294.015625 517.265625 293.914062 517.164062 293.8125 C 517.101562 293.753906 517.042969 293.710938 516.980469 293.652344 L 516.796875 293.488281 C 516.332031 293.066406 515.910156 292.640625 515.484375 292.175781 C 515.058594 291.710938 514.675781 291.222656 514.3125 290.738281 C 514.128906 290.496094 513.96875 290.253906 513.824219 289.992188 C 514.734375 289.890625 515.625 289.648438 516.453125 289.261719 C 516.921875 289.0625 517.363281 288.796875 517.789062 288.515625 C 517.890625 288.453125 517.992188 288.375 518.09375 288.292969 C 518.195312 288.210938 518.296875 288.128906 518.394531 288.050781 L 518.539062 287.929688 L 518.679688 287.808594 C 518.78125 287.726562 518.863281 287.625 518.960938 287.542969 C 519.144531 287.363281 519.328125 287.179688 519.488281 286.976562 L 519.730469 286.675781 L 519.953125 286.371094 C 520.195312 286.007812 520.4375 285.644531 520.640625 285.257812 L 520.679688 285.320312 C 520.761719 285.421875 520.824219 285.523438 520.902344 285.601562 C 520.984375 285.683594 521.046875 285.804688 521.125 285.886719 C 521.429688 286.230469 521.753906 286.574219 522.078125 286.9375 Z M 526.75 296.542969 C 527.171875 296.359375 527.617188 296.261719 528.082031 296.238281 C 529.011719 296.21875 529.902344 296.523438 530.609375 297.109375 C 530.976562 297.414062 531.277344 297.757812 531.519531 298.160156 C 531.785156 298.585938 531.945312 299.050781 532.007812 299.535156 C 532.148438 300.546875 531.785156 301.558594 531.035156 302.265625 C 530.671875 302.609375 530.246094 302.851562 529.800781 303.015625 C 528.910156 303.335938 527.941406 303.359375 527.050781 303.09375 C 526.585938 302.953125 526.160156 302.75 525.796875 302.46875 C 525.414062 302.164062 525.089844 301.800781 524.867188 301.355469 C 524.644531 300.910156 524.523438 300.425781 524.503906 299.941406 C 524.503906 299.457031 524.585938 298.96875 524.785156 298.523438 C 524.886719 298.300781 525.007812 298.101562 525.128906 297.898438 L 525.230469 297.757812 C 525.273438 297.714844 525.3125 297.65625 525.332031 297.613281 C 525.351562 297.574219 525.414062 297.535156 525.453125 297.472656 C 525.496094 297.414062 525.535156 297.390625 525.574219 297.351562 C 525.9375 296.988281 526.324219 296.726562 526.75 296.542969 Z M 499.914062 260.285156 C 500.621094 259.453125 501.367188 258.667969 502.179688 257.9375 C 502.378906 257.757812 502.582031 257.574219 502.785156 257.390625 L 503.109375 257.128906 C 503.210938 257.046875 503.308594 256.96875 503.433594 256.867188 C 503.855469 256.542969 504.28125 256.238281 504.746094 255.957031 C 505.65625 255.429688 506.648438 255.046875 507.699219 254.84375 C 508.222656 254.742188 508.75 254.703125 509.277344 254.703125 C 509.800781 254.703125 510.347656 254.761719 510.875 254.882812 C 511.925781 255.105469 512.9375 255.550781 513.824219 256.179688 C 515.625 257.433594 516.921875 259.292969 517.464844 261.417969 C 517.730469 262.449219 517.769531 263.539062 517.609375 264.589844 C 517.527344 265.117188 517.386719 265.621094 517.203125 266.128906 L 517.042969 266.492188 C 516.980469 266.613281 516.921875 266.734375 516.859375 266.855469 C 516.738281 267.078125 516.597656 267.320312 516.453125 267.523438 C 516.152344 267.949219 515.808594 268.351562 515.445312 268.71875 C 515.34375 268.796875 515.261719 268.898438 515.160156 269 C 515.058594 269.101562 514.980469 269.183594 514.878906 269.261719 C 514.777344 269.34375 514.675781 269.425781 514.59375 269.527344 L 514.453125 269.667969 L 514.292969 269.808594 C 514.089844 269.992188 513.886719 270.152344 513.664062 270.335938 L 513.339844 270.597656 C 513.238281 270.679688 513.136719 270.757812 513.015625 270.839844 L 512.390625 271.347656 C 512.167969 271.507812 511.964844 271.667969 511.742188 271.832031 L 511.582031 271.953125 L 511.417969 272.074219 L 510.730469 272.519531 L 510.386719 272.722656 L 510.042969 272.921875 L 509.863281 273.023438 C 509.800781 273.066406 509.742188 273.085938 509.679688 273.125 L 508.953125 273.507812 C 507.980469 273.996094 506.949219 274.398438 505.917969 274.722656 C 505.351562 274.90625 504.785156 275.046875 504.199219 275.167969 C 502.078125 275.511719 499.328125 274.441406 499.328125 274.441406 C 499.304688 274.175781 499.265625 273.914062 499.183594 273.671875 C 499.125 273.410156 499.023438 273.164062 498.902344 272.921875 C 498.660156 272.4375 498.335938 272.011719 497.929688 271.648438 C 497.730469 271.46875 497.507812 271.304688 497.285156 271.164062 C 497.183594 271.101562 497.0625 271.023438 496.941406 270.960938 C 497.363281 269.769531 497.648438 268.535156 497.789062 267.28125 C 497.828125 266.957031 497.851562 266.632812 497.871094 266.308594 C 497.871094 266.230469 497.871094 266.148438 497.890625 266.066406 L 497.890625 265.824219 L 497.910156 265.339844 C 497.910156 265.257812 497.910156 265.179688 497.910156 265.097656 L 497.910156 264.367188 C 497.910156 264.207031 497.890625 264.046875 497.890625 263.882812 C 497.871094 263.074219 498.394531 262.207031 498.558594 261.960938 C 499.042969 261.355469 499.46875 260.808594 499.914062 260.285156 Z M 499.105469 275.148438 C 499.082031 275.390625 499.023438 275.632812 498.921875 275.855469 C 498.738281 276.300781 498.457031 276.683594 498.132812 277.027344 C 497.972656 277.210938 497.808594 277.371094 497.648438 277.515625 C 497.464844 277.675781 497.285156 277.816406 497.082031 277.9375 C 496.878906 278.058594 496.675781 278.179688 496.453125 278.261719 C 496.234375 278.34375 495.988281 278.402344 495.765625 278.421875 C 495.28125 278.464844 494.816406 278.402344 494.371094 278.242188 C 493.925781 278.078125 493.523438 277.835938 493.179688 277.535156 C 492.148438 276.605469 491.761719 275.148438 492.207031 273.832031 C 492.351562 273.429688 492.570312 273.042969 492.875 272.699219 C 493.300781 272.214844 493.867188 271.851562 494.472656 271.648438 C 494.675781 271.589844 494.878906 271.527344 495.101562 271.507812 C 495.324219 271.46875 495.523438 271.445312 495.746094 271.425781 C 495.96875 271.40625 496.210938 271.40625 496.433594 271.445312 C 496.65625 271.488281 496.898438 271.546875 497.101562 271.648438 C 497.324219 271.75 497.527344 271.851562 497.707031 271.992188 C 498.496094 272.578125 499.003906 273.46875 499.125 274.441406 C 499.144531 274.683594 499.144531 274.925781 499.105469 275.148438 Z M 480.480469 264.125 C 480.316406 263.863281 480.15625 263.601562 479.992188 263.335938 L 479.769531 262.933594 C 479.710938 262.792969 479.628906 262.671875 479.570312 262.527344 C 479.304688 262.003906 479.0625 261.457031 478.902344 260.890625 C 478.71875 260.324219 478.617188 259.738281 478.578125 259.132812 C 478.539062 258.523438 478.578125 257.917969 478.679688 257.332031 C 478.800781 256.726562 478.984375 256.160156 479.246094 255.59375 C 479.507812 255.027344 479.832031 254.5 480.195312 254.015625 C 480.582031 253.53125 481.003906 253.066406 481.46875 252.660156 C 481.933594 252.253906 482.460938 251.871094 482.988281 251.566406 C 483.53125 251.265625 484.097656 251.003906 484.707031 250.800781 C 485.007812 250.699219 485.3125 250.617188 485.617188 250.558594 C 485.777344 250.515625 485.917969 250.496094 486.082031 250.476562 L 486.324219 250.4375 C 486.40625 250.414062 486.484375 250.414062 486.566406 250.414062 C 487.191406 250.355469 487.820312 250.355469 488.445312 250.414062 C 488.527344 250.414062 488.609375 250.4375 488.6875 250.457031 L 488.933594 250.496094 L 489.15625 250.535156 C 489.234375 250.558594 489.316406 250.558594 489.378906 250.597656 C 489.539062 250.636719 489.679688 250.679688 489.820312 250.71875 L 490.042969 250.800781 C 490.125 250.820312 490.1875 250.859375 490.265625 250.878906 C 490.851562 251.101562 491.398438 251.40625 491.925781 251.769531 C 492.429688 252.132812 492.894531 252.558594 493.300781 253.023438 C 493.703125 253.488281 494.070312 254.015625 494.371094 254.539062 L 494.59375 254.945312 C 494.675781 255.085938 494.734375 255.230469 494.816406 255.371094 C 494.957031 255.652344 495.078125 255.9375 495.222656 256.21875 C 495.746094 257.371094 496.171875 258.546875 496.535156 259.738281 C 496.878906 260.953125 497.140625 262.183594 497.304688 263.417969 L 497.34375 263.882812 C 497.363281 264.046875 497.386719 264.1875 497.386719 264.347656 L 497.40625 264.8125 L 497.425781 265.058594 C 497.425781 265.136719 497.445312 265.21875 497.445312 265.300781 C 497.445312 265.621094 497.464844 265.925781 497.464844 266.25 C 497.464844 266.574219 497.445312 266.875 497.445312 267.199219 C 497.386719 268.433594 497.222656 269.667969 496.960938 270.878906 C 496.859375 270.820312 496.757812 270.78125 496.65625 270.738281 C 496.394531 270.617188 496.132812 270.535156 495.847656 270.457031 C 495.746094 270.4375 495.625 270.414062 495.523438 270.394531 C 495.542969 270.316406 495.566406 270.253906 495.605469 270.171875 C 495.6875 269.929688 495.746094 269.667969 495.808594 269.40625 C 495.867188 269.140625 495.910156 268.898438 495.949219 268.636719 C 495.988281 268.375 496.011719 268.109375 496.03125 267.847656 C 496.070312 267.320312 496.089844 266.796875 496.050781 266.269531 C 496.03125 265.746094 495.96875 265.21875 495.867188 264.691406 C 495.765625 264.167969 495.625 263.640625 495.445312 263.15625 C 495.261719 262.648438 495.039062 262.164062 494.757812 261.699219 C 494.675781 261.578125 494.613281 261.476562 494.535156 261.355469 C 494.453125 261.234375 494.371094 261.132812 494.292969 261.03125 C 494.128906 260.808594 493.949219 260.609375 493.765625 260.425781 C 493.582031 260.242188 493.382812 260.0625 493.160156 259.898438 C 492.957031 259.738281 492.714844 259.597656 492.472656 259.496094 C 492.773438 259.898438 493.015625 260.34375 493.238281 260.808594 C 493.300781 260.929688 493.339844 261.03125 493.402344 261.152344 C 493.460938 261.273438 493.503906 261.375 493.542969 261.496094 C 493.582031 261.617188 493.625 261.71875 493.683594 261.839844 L 493.804688 262.183594 C 494.128906 263.09375 494.371094 264.046875 494.554688 264.996094 C 494.734375 265.945312 494.855469 266.917969 494.980469 267.90625 C 495 268.152344 495.019531 268.414062 495.058594 268.65625 C 495.078125 268.777344 495.078125 268.898438 495.101562 269.039062 L 495.140625 269.425781 C 495.160156 269.6875 495.199219 269.929688 495.222656 270.191406 C 495.222656 270.273438 495.242188 270.355469 495.242188 270.414062 C 495.160156 270.414062 495.058594 270.414062 494.980469 270.414062 C 494.695312 270.4375 494.390625 270.476562 494.109375 270.558594 C 493.824219 270.636719 493.5625 270.738281 493.300781 270.878906 C 492.773438 271.164062 492.328125 271.546875 491.964844 272.011719 C 491.621094 272.476562 491.359375 273.003906 491.195312 273.550781 C 491.175781 273.652344 491.15625 273.730469 491.136719 273.832031 C 490.105469 273.328125 489.09375 272.761719 488.125 272.132812 C 487.09375 271.445312 486.101562 270.679688 485.171875 269.847656 C 484.261719 269.019531 483.410156 268.128906 482.621094 267.179688 C 481.855469 266.167969 481.125 265.179688 480.480469 264.125 Z M 480.660156 287.886719 C 480.519531 287.929688 480.398438 287.96875 480.257812 288.007812 L 479.871094 288.109375 C 479.609375 288.171875 479.347656 288.230469 479.082031 288.273438 C 478.558594 288.375 478.011719 288.414062 477.464844 288.394531 C 476.921875 288.375 476.394531 288.3125 475.867188 288.191406 C 475.34375 288.070312 474.835938 287.886719 474.351562 287.664062 C 473.867188 287.421875 473.382812 287.160156 472.957031 286.816406 C 472.511719 286.492188 472.105469 286.109375 471.742188 285.703125 C 470.226562 284.023438 469.417969 281.839844 469.4375 279.597656 C 469.457031 278.484375 469.679688 277.371094 470.144531 276.359375 C 470.589844 275.371094 471.238281 274.460938 472.066406 273.730469 C 472.875 273.003906 473.804688 272.417969 474.816406 272.011719 L 475.199219 271.871094 L 475.585938 271.730469 C 475.707031 271.691406 475.847656 271.648438 475.988281 271.609375 C 476.132812 271.566406 476.253906 271.527344 476.394531 271.488281 C 476.65625 271.40625 476.941406 271.347656 477.203125 271.265625 L 477.609375 271.164062 C 477.75 271.125 477.871094 271.101562 478.011719 271.0625 C 478.273438 271.003906 478.558594 270.960938 478.839844 270.902344 C 479.125 270.839844 479.386719 270.800781 479.671875 270.757812 C 480.214844 270.679688 480.78125 270.617188 481.347656 270.578125 C 482.21875 270.515625 483.085938 270.496094 483.957031 270.515625 C 484.097656 270.636719 484.242188 270.738281 484.382812 270.839844 C 485.433594 271.628906 486.566406 272.316406 487.757812 272.863281 C 488.851562 273.367188 489.984375 273.730469 491.15625 273.976562 C 490.996094 274.945312 491.175781 275.957031 491.683594 276.804688 L 491.742188 276.90625 C 490.691406 277.292969 489.640625 277.636719 488.566406 277.957031 C 488.265625 278.039062 487.960938 278.140625 487.679688 278.203125 L 487.234375 278.324219 L 486.789062 278.421875 C 486.484375 278.503906 486.183594 278.566406 485.878906 278.625 L 485.414062 278.707031 L 485.191406 278.746094 L 484.96875 278.789062 C 484.808594 278.808594 484.664062 278.847656 484.503906 278.867188 L 484.039062 278.929688 C 483.875 278.949219 483.734375 278.96875 483.574219 278.988281 L 483.351562 279.011719 L 483.128906 279.03125 C 482.523438 279.089844 481.894531 279.109375 481.269531 279.109375 C 480.640625 279.109375 480.035156 279.070312 479.40625 279.011719 C 479.105469 278.96875 478.800781 278.929688 478.476562 278.867188 C 478.316406 278.847656 478.171875 278.808594 478.011719 278.765625 C 477.851562 278.726562 477.707031 278.6875 477.566406 278.644531 C 477.851562 278.789062 478.132812 278.929688 478.4375 279.03125 C 478.738281 279.132812 479.042969 279.210938 479.347656 279.292969 C 479.972656 279.433594 480.601562 279.515625 481.226562 279.578125 C 481.855469 279.617188 482.5 279.617188 483.128906 279.578125 L 483.371094 279.554688 C 483.453125 279.554688 483.53125 279.535156 483.613281 279.535156 C 483.773438 279.515625 483.9375 279.515625 484.078125 279.496094 L 484.542969 279.433594 C 484.707031 279.414062 484.867188 279.394531 485.007812 279.355469 L 485.25 279.3125 L 485.472656 279.273438 C 485.636719 279.234375 485.777344 279.210938 485.9375 279.171875 L 486.40625 279.070312 L 486.648438 279.011719 L 486.871094 278.949219 L 487.335938 278.828125 L 487.78125 278.6875 C 488.082031 278.605469 488.386719 278.484375 488.667969 278.382812 C 489.722656 278 490.753906 277.515625 491.742188 276.96875 C 491.90625 277.210938 492.085938 277.433594 492.289062 277.636719 C 491.359375 278.402344 490.429688 279.132812 489.457031 279.820312 L 489.253906 279.960938 L 489.054688 280.101562 L 488.648438 280.386719 L 488.246094 280.667969 C 488.101562 280.769531 487.980469 280.851562 487.839844 280.929688 L 487.4375 281.195312 L 487.011719 281.457031 L 486.605469 281.699219 C 486.464844 281.78125 486.324219 281.863281 486.183594 281.941406 C 485.050781 282.589844 483.855469 283.175781 482.664062 283.703125 C 482.054688 283.964844 481.449219 284.207031 480.824219 284.429688 C 480.195312 284.652344 479.570312 284.855469 478.921875 285.015625 C 479.082031 285.015625 479.265625 285.015625 479.425781 284.996094 C 479.589844 284.976562 479.769531 284.976562 479.933594 284.957031 C 480.277344 284.914062 480.601562 284.855469 480.925781 284.792969 C 481.589844 284.652344 482.238281 284.492188 482.867188 284.269531 C 484.140625 283.84375 485.371094 283.277344 486.546875 282.609375 C 487.132812 282.265625 487.699219 281.921875 488.246094 281.519531 C 488.386719 281.417969 488.507812 281.316406 488.648438 281.214844 C 488.789062 281.113281 488.910156 281.011719 489.054688 280.910156 C 489.316406 280.707031 489.578125 280.507812 489.820312 280.265625 C 490.730469 279.476562 491.582031 278.625 492.351562 277.675781 C 492.472656 277.796875 492.613281 277.917969 492.753906 278.019531 C 493.015625 278.222656 493.300781 278.382812 493.605469 278.523438 C 493.015625 279.332031 492.410156 280.101562 491.742188 280.832031 C 491.378906 281.253906 490.972656 281.640625 490.589844 282.042969 L 489.984375 282.609375 C 489.882812 282.710938 489.78125 282.792969 489.660156 282.894531 L 489.335938 283.15625 C 489.132812 283.335938 488.910156 283.5 488.691406 283.679688 L 488.367188 283.945312 C 488.304688 283.984375 488.246094 284.023438 488.203125 284.066406 L 488.042969 284.1875 L 487.699219 284.410156 C 487.578125 284.492188 487.476562 284.570312 487.355469 284.652344 C 487.113281 284.792969 486.890625 284.957031 486.667969 285.097656 C 485.738281 285.664062 484.746094 286.1875 483.753906 286.652344 C 482.742188 287.140625 481.710938 287.542969 480.660156 287.886719 Z M 499.265625 286.046875 L 499.285156 286.230469 L 499.367188 286.957031 C 499.386719 287.199219 499.386719 287.441406 499.40625 287.6875 L 499.425781 288.050781 L 499.425781 288.414062 L 499.449219 288.777344 C 499.449219 288.898438 499.46875 289.019531 499.46875 289.140625 C 499.46875 289.382812 499.46875 289.628906 499.46875 289.871094 C 499.46875 290.859375 499.386719 291.832031 499.265625 292.800781 L 499.226562 293.164062 C 499.226562 293.226562 499.207031 293.289062 499.207031 293.347656 L 499.164062 293.53125 L 499.023438 294.257812 C 499.003906 294.378906 498.984375 294.5 498.941406 294.621094 C 498.902344 294.742188 498.882812 294.863281 498.863281 294.984375 L 498.761719 295.351562 C 498.71875 295.472656 498.679688 295.574219 498.640625 295.695312 C 498.476562 296.160156 498.296875 296.605469 498.050781 297.027344 C 498.03125 297.089844 497.992188 297.128906 497.972656 297.191406 L 497.871094 297.351562 C 497.808594 297.453125 497.75 297.554688 497.667969 297.65625 C 497.585938 297.757812 497.527344 297.859375 497.464844 297.957031 L 497.242188 298.242188 C 497.082031 298.421875 496.921875 298.605469 496.757812 298.789062 L 496.636719 298.910156 L 496.496094 299.03125 C 496.414062 299.113281 496.3125 299.191406 496.210938 299.273438 C 495.828125 299.578125 495.421875 299.859375 495 300.082031 C 494.574219 300.304688 494.128906 300.488281 493.664062 300.648438 C 493.542969 300.6875 493.441406 300.730469 493.320312 300.75 C 493.199219 300.769531 493.097656 300.808594 492.976562 300.832031 C 492.855469 300.851562 492.734375 300.890625 492.632812 300.910156 L 492.269531 300.972656 C 490.367188 301.253906 488.425781 300.953125 486.707031 300.144531 C 485.859375 299.738281 485.070312 299.210938 484.363281 298.566406 C 483.675781 297.917969 483.085938 297.171875 482.644531 296.339844 C 482.441406 295.917969 482.257812 295.492188 482.136719 295.046875 C 481.996094 294.601562 481.894531 294.136719 481.835938 293.652344 C 481.8125 293.53125 481.8125 293.410156 481.792969 293.289062 C 481.773438 293.164062 481.773438 293.042969 481.773438 292.921875 C 481.773438 292.800781 481.753906 292.679688 481.753906 292.558594 L 481.753906 292.195312 C 481.753906 292.132812 481.753906 292.074219 481.753906 292.011719 L 481.773438 291.832031 L 481.773438 291.648438 C 481.773438 291.589844 481.792969 291.527344 481.792969 291.46875 L 481.835938 291.101562 L 481.894531 290.738281 C 482.015625 289.992188 482.179688 289.242188 482.359375 288.515625 L 482.621094 288.433594 L 483.027344 288.292969 L 483.230469 288.210938 L 483.429688 288.128906 L 484.242188 287.808594 C 485.3125 287.34375 486.363281 286.777344 487.335938 286.109375 C 488.304688 285.441406 489.195312 284.714844 490.023438 283.882812 L 490.328125 283.582031 C 490.429688 283.480469 490.53125 283.378906 490.628906 283.257812 L 491.195312 282.609375 C 491.378906 282.386719 491.5625 282.164062 491.742188 281.921875 L 491.882812 281.738281 L 492.007812 281.558594 L 492.25 281.195312 C 492.835938 280.363281 493.320312 279.457031 493.726562 278.523438 C 493.867188 278.585938 494.027344 278.625 494.167969 278.667969 C 494.695312 278.789062 495.242188 278.828125 495.765625 278.789062 C 496.171875 278.746094 496.597656 278.644531 496.980469 278.503906 C 497.101562 278.746094 497.203125 278.988281 497.324219 279.253906 C 497.464844 279.617188 497.609375 279.980469 497.769531 280.324219 C 497.890625 280.609375 497.992188 280.871094 498.09375 281.152344 C 498.417969 282.085938 498.679688 283.035156 498.902344 283.984375 C 498.984375 284.46875 499.105469 284.933594 499.164062 285.421875 L 499.226562 285.785156 C 499.246094 285.925781 499.265625 285.988281 499.265625 286.046875 Z M 504.300781 285.988281 C 503.898438 285.722656 503.53125 285.421875 503.148438 285.136719 C 502.964844 284.996094 502.785156 284.835938 502.601562 284.691406 C 502.5 284.613281 502.421875 284.550781 502.320312 284.46875 L 502.054688 284.226562 C 501.976562 284.148438 501.875 284.066406 501.792969 283.984375 L 501.652344 283.863281 L 501.53125 283.742188 C 501.347656 283.582031 501.1875 283.417969 501.003906 283.257812 C 500.316406 282.570312 499.671875 281.882812 499.042969 281.132812 C 498.457031 280.425781 497.910156 279.699219 497.363281 278.929688 C 497.285156 278.808594 497.203125 278.6875 497.121094 278.566406 C 497.203125 278.546875 497.285156 278.503906 497.363281 278.464844 C 497.609375 278.34375 497.851562 278.203125 498.074219 278.039062 C 498.296875 277.878906 498.476562 277.675781 498.660156 277.453125 C 498.761719 277.332031 498.839844 277.191406 498.921875 277.046875 C 499.40625 276.28125 501.246094 275.894531 502.621094 275.714844 C 502.703125 275.714844 502.765625 275.714844 502.84375 275.714844 C 503.289062 275.695312 503.734375 275.632812 504.179688 275.574219 L 504.21875 275.574219 C 504.867188 275.492188 505.515625 275.371094 506.140625 275.230469 C 507.234375 274.964844 508.304688 274.640625 509.355469 274.21875 L 510.125 273.894531 C 510.1875 273.875 510.246094 273.832031 510.328125 273.8125 L 510.507812 273.730469 L 510.894531 273.550781 L 511.277344 273.367188 L 511.640625 273.164062 L 512.027344 272.964844 L 512.207031 272.863281 L 512.390625 272.761719 C 512.816406 272.519531 513.21875 272.277344 513.605469 271.992188 C 514.3125 272.234375 515.019531 272.519531 515.707031 272.84375 L 516.355469 273.164062 C 516.414062 273.1875 516.453125 273.226562 516.515625 273.246094 L 516.675781 273.328125 C 516.777344 273.386719 516.878906 273.449219 516.980469 273.507812 L 517.285156 273.710938 C 517.386719 273.773438 517.484375 273.851562 517.566406 273.914062 L 517.707031 274.015625 L 517.851562 274.136719 C 517.953125 274.21875 518.03125 274.277344 518.132812 274.359375 C 518.496094 274.664062 518.820312 275.007812 519.125 275.371094 C 519.425781 275.734375 519.691406 276.117188 519.914062 276.523438 C 520.136719 276.925781 520.316406 277.371094 520.480469 277.796875 C 520.621094 278.242188 520.742188 278.6875 520.824219 279.152344 C 521.105469 281.03125 520.84375 282.933594 520.054688 284.652344 C 519.648438 285.523438 519.144531 286.308594 518.519531 287.039062 C 518.4375 287.121094 518.355469 287.21875 518.273438 287.300781 L 518.03125 287.542969 C 517.953125 287.625 517.871094 287.707031 517.769531 287.785156 C 517.667969 287.867188 517.585938 287.949219 517.507812 288.03125 C 517.140625 288.332031 516.738281 288.59375 516.332031 288.839844 C 515.542969 289.285156 514.65625 289.585938 513.746094 289.707031 L 513.625 289.726562 L 513.582031 289.726562 C 513.460938 289.75 513.339844 289.75 513.21875 289.75 L 512.671875 289.75 C 512.613281 289.75 512.550781 289.75 512.492188 289.75 L 512.128906 289.726562 C 511.882812 289.707031 511.640625 289.6875 511.398438 289.628906 C 511.15625 289.566406 510.914062 289.527344 510.691406 289.464844 C 510.226562 289.324219 509.761719 289.160156 509.316406 288.960938 C 509.09375 288.859375 508.871094 288.757812 508.648438 288.636719 L 508.324219 288.472656 C 508.222656 288.414062 508.101562 288.351562 508 288.292969 L 507.355469 287.949219 L 506.75 287.5625 L 506.585938 287.464844 C 506.527344 287.421875 506.484375 287.402344 506.425781 287.363281 L 506.121094 287.160156 C 505.917969 287.039062 505.714844 286.898438 505.515625 286.777344 C 505.3125 286.65625 505.128906 286.492188 504.929688 286.371094 L 504.785156 286.269531 L 504.644531 286.167969 Z M 507.132812 297.046875 C 506.667969 296.644531 506.261719 296.199219 505.917969 295.695312 C 505.574219 295.1875 505.292969 294.664062 505.070312 294.117188 C 505.027344 294.054688 505.007812 293.976562 504.988281 293.914062 L 504.90625 293.710938 L 504.828125 293.507812 C 504.808594 293.449219 504.765625 293.367188 504.746094 293.308594 C 504.707031 293.164062 504.644531 293.023438 504.625 292.882812 C 504.605469 292.800781 504.585938 292.742188 504.5625 292.660156 L 504.503906 292.4375 L 504.464844 292.234375 L 504.421875 292.011719 L 504.382812 291.789062 C 504.363281 291.710938 504.363281 291.648438 504.339844 291.566406 L 504.320312 291.347656 C 504.300781 291.265625 504.300781 291.203125 504.300781 291.125 C 504.28125 290.980469 504.28125 290.820312 504.28125 290.679688 C 504.261719 290.070312 504.300781 289.464844 504.382812 288.878906 C 504.441406 288.472656 504.523438 288.089844 504.605469 287.6875 L 504.886719 287.847656 C 504.988281 287.90625 505.109375 287.96875 505.230469 288.03125 L 505.917969 288.351562 C 506.039062 288.414062 506.140625 288.453125 506.261719 288.496094 L 506.96875 288.777344 L 507.679688 289.019531 C 507.800781 289.0625 507.921875 289.101562 508.042969 289.140625 L 508.40625 289.242188 L 509.132812 289.464844 L 509.5 289.566406 C 509.621094 289.605469 509.742188 289.628906 509.863281 289.667969 L 510.042969 289.707031 C 510.105469 289.726562 510.164062 289.726562 510.226562 289.75 L 510.589844 289.828125 C 511.074219 289.929688 511.582031 289.992188 512.085938 290.03125 C 512.59375 290.050781 513.097656 290.050781 513.582031 290.011719 L 513.703125 290.011719 L 513.703125 290.03125 C 513.824219 290.316406 513.96875 290.597656 514.128906 290.878906 C 514.453125 291.425781 514.796875 291.953125 515.199219 292.457031 C 515.605469 292.964844 516.03125 293.429688 516.476562 293.875 L 516.65625 294.035156 L 516.839844 294.199219 C 516.960938 294.296875 517.082031 294.417969 517.203125 294.519531 L 517.566406 294.824219 C 517.6875 294.925781 517.808594 295.027344 517.929688 295.128906 L 518.296875 295.410156 C 518.417969 295.511719 518.558594 295.59375 518.679688 295.695312 L 519.0625 295.957031 L 519.265625 296.097656 L 519.46875 296.21875 L 519.871094 296.460938 L 520.277344 296.703125 C 520.539062 296.867188 520.824219 297.007812 521.105469 297.171875 C 522.15625 297.714844 523.269531 298.203125 524.402344 298.566406 C 524.363281 298.765625 524.320312 298.96875 524.300781 299.152344 C 524.300781 299.234375 524.28125 299.292969 524.28125 299.375 C 523.027344 299.191406 521.773438 298.988281 520.539062 298.726562 L 520.296875 298.6875 L 520.054688 298.625 L 519.570312 298.523438 L 519.082031 298.402344 C 518.921875 298.363281 518.761719 298.324219 518.597656 298.28125 L 518.113281 298.160156 L 517.648438 298.019531 L 517.40625 297.957031 L 517.164062 297.878906 C 517 297.835938 516.839844 297.777344 516.699219 297.734375 C 515.445312 297.332031 514.230469 296.867188 513.039062 296.320312 C 512.429688 296.058594 511.84375 295.753906 511.277344 295.449219 C 510.710938 295.148438 510.125 294.804688 509.578125 294.441406 C 509.699219 294.5625 509.800781 294.683594 509.921875 294.804688 C 510.042969 294.925781 510.164062 295.027344 510.308594 295.148438 C 510.570312 295.371094 510.832031 295.574219 511.097656 295.773438 C 511.640625 296.179688 512.207031 296.542969 512.792969 296.867188 C 513.96875 297.515625 515.222656 298.058594 516.496094 298.464844 C 517.140625 298.667969 517.789062 298.847656 518.4375 298.988281 C 518.597656 299.03125 518.761719 299.070312 518.921875 299.089844 L 519.40625 299.191406 C 519.730469 299.234375 520.074219 299.292969 520.398438 299.332031 C 521.671875 299.496094 522.945312 299.535156 524.21875 299.457031 C 524.21875 299.636719 524.21875 299.800781 524.21875 299.980469 C 524.242188 300.304688 524.300781 300.628906 524.402344 300.929688 C 524.160156 300.953125 523.9375 300.992188 523.695312 301.011719 C 523.53125 301.03125 523.390625 301.03125 523.230469 301.050781 C 523.066406 301.074219 522.925781 301.074219 522.765625 301.09375 C 522.601562 301.113281 522.460938 301.113281 522.300781 301.113281 L 521.835938 301.132812 L 520.945312 301.132812 C 519.730469 301.132812 518.519531 301.050781 517.304688 300.890625 C 516.089844 300.730469 514.898438 300.464844 513.726562 300.144531 C 513.644531 300.121094 513.582031 300.101562 513.503906 300.082031 L 513.28125 300.019531 L 512.835938 299.878906 L 512.613281 299.820312 L 512.511719 299.777344 L 512.410156 299.738281 L 511.984375 299.578125 L 511.5625 299.433594 C 511.417969 299.375 511.277344 299.332031 511.136719 299.273438 L 510.710938 299.113281 L 510.488281 299.03125 L 510.285156 298.929688 L 509.863281 298.746094 C 509.722656 298.6875 509.578125 298.625 509.4375 298.546875 L 509.035156 298.324219 C 508.890625 298.242188 508.75 298.179688 508.628906 298.101562 C 508.125 297.796875 507.597656 297.453125 507.132812 297.046875 Z M 525.332031 306.066406 C 524.867188 306.917969 524.339844 307.765625 523.777344 308.554688 C 523.472656 308.941406 523.210938 309.34375 522.886719 309.726562 L 522.664062 310.03125 C 522.621094 310.070312 522.582031 310.132812 522.542969 310.171875 L 522.421875 310.316406 L 521.933594 310.859375 C 521.773438 311.042969 521.589844 311.203125 521.429688 311.386719 L 521.1875 311.648438 L 520.925781 311.914062 L 520.660156 312.175781 C 520.582031 312.257812 520.480469 312.355469 520.398438 312.4375 C 520.214844 312.601562 520.035156 312.761719 519.851562 312.921875 C 519.125 313.570312 518.355469 314.199219 517.546875 314.761719 L 517.242188 314.964844 C 517.203125 315.007812 517.140625 315.046875 517.082031 315.066406 L 516.921875 315.167969 L 516.292969 315.550781 C 516.191406 315.613281 516.089844 315.671875 515.96875 315.734375 C 515.847656 315.792969 515.746094 315.855469 515.644531 315.917969 L 515.324219 316.078125 C 515.199219 316.140625 515.101562 316.179688 514.980469 316.238281 C 514.535156 316.441406 514.070312 316.582031 513.582031 316.703125 L 513.402344 316.746094 L 513.21875 316.785156 C 513.097656 316.804688 512.976562 316.828125 512.855469 316.847656 L 512.492188 316.886719 L 512.128906 316.90625 C 511.882812 316.90625 511.640625 316.925781 511.398438 316.90625 L 511.21875 316.90625 L 511.035156 316.886719 C 510.914062 316.867188 510.792969 316.867188 510.671875 316.847656 C 510.1875 316.785156 509.722656 316.664062 509.253906 316.503906 C 508.8125 316.339844 508.367188 316.140625 507.941406 315.894531 C 507.839844 315.835938 507.738281 315.773438 507.636719 315.714844 C 507.535156 315.652344 507.4375 315.59375 507.335938 315.511719 C 507.234375 315.429688 507.132812 315.371094 507.050781 315.308594 C 506.96875 315.25 506.871094 315.167969 506.769531 315.085938 C 505.292969 313.875 504.199219 312.234375 503.632812 310.414062 C 503.351562 309.503906 503.210938 308.574219 503.210938 307.625 C 503.210938 306.675781 503.371094 305.746094 503.695312 304.855469 C 503.855469 304.410156 504.058594 303.984375 504.300781 303.582031 C 504.542969 303.175781 504.808594 302.773438 505.128906 302.429688 C 505.210938 302.328125 505.292969 302.246094 505.371094 302.164062 C 505.453125 302.085938 505.535156 301.984375 505.617188 301.902344 C 505.695312 301.820312 505.777344 301.742188 505.878906 301.660156 L 506.140625 301.417969 C 506.183594 301.375 506.222656 301.335938 506.28125 301.296875 L 506.425781 301.175781 L 506.566406 301.050781 C 506.605469 301.011719 506.667969 300.972656 506.707031 300.953125 L 507.011719 300.730469 L 507.3125 300.527344 C 508.082031 300.019531 508.890625 299.578125 509.699219 299.152344 L 510.042969 299.375 L 510.449219 299.617188 L 510.875 299.839844 C 511.015625 299.921875 511.15625 300 511.296875 300.0625 L 511.722656 300.265625 C 512.007812 300.386719 512.289062 300.527344 512.59375 300.628906 L 513.039062 300.789062 L 513.261719 300.871094 C 513.339844 300.890625 513.421875 300.910156 513.480469 300.953125 C 514.675781 301.375 515.929688 301.660156 517.183594 301.800781 C 518.4375 301.941406 519.710938 301.941406 520.984375 301.820312 C 521.613281 301.761719 522.238281 301.660156 522.84375 301.519531 C 523.148438 301.4375 523.453125 301.355469 523.753906 301.273438 L 524.441406 301.050781 C 524.441406 301.09375 524.464844 301.113281 524.484375 301.152344 C 524.058594 301.742188 523.59375 302.285156 523.089844 302.832031 L 522.886719 303.054688 C 522.824219 303.136719 522.746094 303.195312 522.683594 303.257812 C 522.542969 303.398438 522.398438 303.539062 522.257812 303.660156 C 521.957031 303.925781 521.671875 304.1875 521.347656 304.429688 C 520.113281 305.402344 518.738281 306.1875 517.265625 306.753906 C 515.789062 307.34375 514.25 307.746094 512.695312 308.007812 C 511.90625 308.152344 511.117188 308.25 510.308594 308.332031 C 509.5 308.414062 508.691406 308.472656 507.859375 308.496094 C 508.265625 308.617188 508.667969 308.695312 509.074219 308.757812 C 509.476562 308.816406 509.902344 308.878906 510.308594 308.898438 C 511.136719 308.960938 511.964844 308.960938 512.792969 308.917969 C 514.472656 308.816406 516.132812 308.433594 517.6875 307.828125 C 519.265625 307.199219 520.722656 306.289062 521.933594 305.097656 C 522.84375 304.207031 523.59375 303.175781 524.160156 302.042969 C 524.160156 302.042969 525.9375 302.992188 526.140625 304.269531 C 525.9375 304.855469 525.636719 305.460938 525.332031 306.066406 Z M 552.957031 307 C 552.652344 307.441406 552.328125 307.847656 551.945312 308.230469 C 551.84375 308.332031 551.761719 308.414062 551.664062 308.515625 C 551.5625 308.617188 551.460938 308.695312 551.359375 308.777344 C 551.257812 308.859375 551.15625 308.941406 551.054688 309.019531 C 550.953125 309.101562 550.851562 309.183594 550.730469 309.242188 C 549.863281 309.828125 548.871094 310.234375 547.839844 310.4375 C 547.316406 310.535156 546.789062 310.597656 546.261719 310.597656 L 545.859375 310.597656 L 545.453125 310.578125 L 545.25 310.578125 L 545.050781 310.558594 L 544.847656 310.535156 L 544.644531 310.515625 C 544.382812 310.496094 544.121094 310.4375 543.835938 310.394531 C 543.554688 310.355469 543.308594 310.316406 543.027344 310.253906 L 542.238281 310.09375 C 541.976562 310.03125 541.710938 309.949219 541.449219 309.890625 C 540.398438 309.605469 539.386719 309.261719 538.375 308.859375 L 537.628906 308.535156 L 537.445312 308.453125 L 537.265625 308.375 L 536.898438 308.191406 L 536.535156 308.007812 L 536.171875 307.808594 L 535.808594 307.605469 C 535.746094 307.5625 535.6875 307.542969 535.625 307.503906 L 535.445312 307.402344 C 535.222656 307.261719 534.980469 307.121094 534.757812 306.976562 L 534.070312 306.53125 L 533.988281 306.472656 L 533.90625 306.410156 L 533.746094 306.289062 L 533.421875 306.046875 C 533.199219 305.886719 532.996094 305.703125 532.773438 305.542969 C 531.925781 304.855469 531.136719 304.085938 530.386719 303.277344 L 530.328125 303.335938 C 530.976562 304.246094 531.683594 305.097656 532.492188 305.867188 C 532.894531 306.269531 533.300781 306.632812 533.746094 306.976562 L 534.414062 307.484375 C 534.511719 307.5625 534.636719 307.644531 534.757812 307.726562 L 535.101562 307.96875 L 535.28125 308.089844 C 535.34375 308.128906 535.402344 308.171875 535.464844 308.210938 L 536.191406 308.65625 L 536.554688 308.859375 L 536.921875 309.0625 C 536.980469 309.101562 537.042969 309.121094 537.101562 309.160156 L 537.285156 309.261719 L 538.03125 309.628906 L 538.800781 309.949219 L 539.207031 310.113281 L 539.609375 310.253906 L 540.015625 310.394531 L 540.417969 310.515625 L 540.824219 310.636719 L 541.023438 310.699219 L 541.226562 310.757812 L 542.035156 310.960938 L 542.5 311.0625 C 542.824219 311.8125 543.109375 312.578125 543.371094 313.347656 L 543.472656 313.691406 L 543.554688 314.035156 C 543.574219 314.097656 543.59375 314.15625 543.59375 314.21875 L 543.632812 314.398438 C 543.652344 314.519531 543.695312 314.640625 543.714844 314.742188 L 543.777344 315.105469 C 543.796875 315.230469 543.796875 315.351562 543.816406 315.472656 C 543.816406 315.53125 543.835938 315.59375 543.835938 315.652344 L 543.835938 315.835938 C 543.835938 315.957031 543.855469 316.078125 543.855469 316.199219 C 543.875 316.664062 543.835938 317.148438 543.753906 317.613281 C 543.695312 318.078125 543.574219 318.546875 543.433594 318.988281 C 543.269531 319.433594 543.089844 319.859375 542.867188 320.265625 C 542.644531 320.667969 542.378906 321.054688 542.078125 321.4375 C 540.277344 323.660156 537.566406 324.976562 534.675781 325.015625 C 533.726562 325.035156 532.773438 324.914062 531.863281 324.613281 C 531.398438 324.449219 530.976562 324.269531 530.550781 324.027344 C 530.347656 323.902344 530.144531 323.78125 529.945312 323.640625 L 529.660156 323.417969 C 529.558594 323.335938 529.476562 323.257812 529.378906 323.195312 C 529.277344 323.136719 529.195312 323.035156 529.113281 322.953125 L 528.871094 322.710938 L 528.75 322.570312 C 528.710938 322.527344 528.667969 322.488281 528.628906 322.429688 L 528.40625 322.144531 C 528.101562 321.761719 527.839844 321.355469 527.597656 320.929688 C 527.375 320.507812 527.171875 320.0625 527.011719 319.597656 C 526.929688 319.375 526.847656 319.132812 526.769531 318.910156 L 526.648438 318.566406 C 526.605469 318.445312 526.585938 318.324219 526.546875 318.222656 L 526.34375 317.515625 L 526.183594 316.804688 L 526.140625 316.625 C 526.121094 316.5625 526.121094 316.503906 526.101562 316.441406 L 526.039062 316.078125 C 526 315.835938 525.9375 315.59375 525.898438 315.371094 C 525.859375 315.148438 525.816406 314.886719 525.796875 314.664062 L 525.757812 314.296875 L 525.71875 313.933594 C 525.636719 313.449219 525.617188 312.964844 525.574219 312.5 L 525.535156 311.769531 C 525.535156 311.648438 525.515625 311.527344 525.515625 311.40625 L 525.515625 310.316406 C 525.515625 310.070312 525.535156 309.828125 525.535156 309.585938 C 525.59375 308.617188 525.695312 307.644531 525.859375 306.695312 C 525.980469 306.066406 526.121094 305.460938 526.261719 304.855469 C 526.382812 304.449219 526.503906 304.046875 526.585938 303.621094 C 526.667969 303.660156 526.75 303.703125 526.828125 303.722656 C 527.335938 303.925781 527.902344 304.027344 528.445312 303.984375 C 528.992188 303.945312 529.519531 303.78125 529.984375 303.5 C 530.207031 303.359375 530.429688 303.195312 530.632812 303.035156 C 530.832031 302.851562 530.996094 302.671875 531.15625 302.449219 C 531.480469 302.042969 531.722656 301.578125 531.90625 301.09375 C 532.085938 300.609375 532.167969 300.101562 532.1875 299.578125 C 532.207031 299.050781 532.128906 298.503906 531.945312 298.019531 C 531.804688 297.636719 531.601562 297.269531 531.339844 296.949219 L 531.703125 296.746094 C 531.925781 296.625 532.148438 296.480469 532.371094 296.339844 C 532.59375 296.199219 532.792969 296.058594 532.996094 295.894531 C 533.097656 295.816406 533.199219 295.734375 533.300781 295.652344 C 533.402344 295.574219 533.503906 295.492188 533.605469 295.410156 C 534.414062 294.742188 535.140625 293.996094 535.765625 293.164062 C 536.414062 292.335938 536.921875 291.386719 537.265625 290.394531 C 537.425781 289.890625 537.546875 289.382812 537.609375 288.859375 C 537.628906 288.59375 537.648438 288.332031 537.648438 288.070312 C 537.648438 287.808594 537.609375 287.542969 537.546875 287.300781 C 537.488281 287.808594 537.386719 288.292969 537.222656 288.777344 C 537.0625 289.242188 536.878906 289.707031 536.65625 290.152344 C 536.210938 291.042969 535.707031 291.871094 535.101562 292.660156 C 534.492188 293.449219 533.847656 294.21875 533.160156 294.925781 C 532.550781 295.574219 531.90625 296.199219 531.257812 296.867188 C 531.195312 296.785156 531.117188 296.703125 531.054688 296.644531 C 530.652344 296.261719 530.164062 295.957031 529.640625 295.753906 L 529.539062 295.714844 C 529.640625 294.519531 529.761719 293.347656 529.921875 292.175781 C 530.105469 290.902344 530.347656 289.628906 530.691406 288.394531 C 531.015625 287.160156 531.5 285.988281 532.128906 284.875 C 532.289062 284.589844 532.449219 284.328125 532.632812 284.066406 C 532.816406 283.804688 533.015625 283.558594 533.21875 283.296875 C 533.421875 283.035156 533.644531 282.8125 533.886719 282.589844 C 534.128906 282.367188 534.371094 282.144531 534.636719 281.921875 C 534.3125 282.023438 534.007812 282.164062 533.703125 282.328125 C 533.402344 282.488281 533.117188 282.671875 532.835938 282.871094 C 532.550781 283.074219 532.308594 283.316406 532.046875 283.558594 C 531.984375 283.621094 531.925781 283.679688 531.863281 283.742188 C 531.804688 283.804688 531.742188 283.863281 531.683594 283.945312 C 531.621094 284.023438 531.5625 284.066406 531.519531 284.148438 C 531.480469 284.226562 531.417969 284.289062 531.359375 284.347656 C 531.136719 284.632812 530.953125 284.914062 530.773438 285.199219 C 530.589844 285.5 530.429688 285.804688 530.289062 286.109375 C 530.144531 286.410156 530.003906 286.734375 529.882812 287.058594 C 529.761719 287.382812 529.660156 287.707031 529.558594 288.050781 C 529.195312 289.363281 529.011719 290.71875 528.992188 292.09375 C 528.992188 292.761719 529.011719 293.449219 529.09375 294.117188 C 529.132812 294.441406 529.175781 294.785156 529.234375 295.105469 C 529.277344 295.289062 529.316406 295.472656 529.335938 295.632812 C 528.890625 295.492188 528.40625 295.449219 527.941406 295.472656 C 527.394531 295.511719 526.847656 295.652344 526.34375 295.917969 C 526.242188 295.976562 526.140625 296.015625 526.0625 296.078125 C 525.636719 294.945312 525.292969 293.773438 525.050781 292.578125 C 524.988281 292.277344 524.949219 291.953125 524.886719 291.648438 C 524.828125 291.347656 524.808594 291.023438 524.765625 290.71875 L 524.746094 290.597656 L 524.746094 290.476562 L 524.726562 290.234375 L 524.683594 289.769531 C 524.664062 289.605469 524.664062 289.445312 524.664062 289.304688 L 524.644531 288.839844 C 524.644531 288.757812 524.644531 288.675781 524.644531 288.59375 L 524.644531 287.664062 C 524.644531 287.585938 524.644531 287.503906 524.664062 287.421875 L 524.683594 286.957031 L 524.707031 286.714844 L 524.707031 286.59375 L 524.726562 286.472656 L 524.765625 286.007812 C 524.785156 285.84375 524.785156 285.683594 524.808594 285.542969 L 524.867188 285.078125 C 525.050781 283.84375 525.332031 282.609375 525.695312 281.417969 L 526 280.527344 L 526.160156 280.082031 L 526.34375 279.65625 C 526.585938 279.089844 526.871094 278.546875 527.214844 278.039062 C 527.878906 277.027344 528.769531 276.179688 529.820312 275.550781 C 530.347656 275.25 530.894531 275.007812 531.480469 274.824219 C 532.066406 274.664062 532.671875 274.539062 533.28125 274.5 C 534.511719 274.398438 535.765625 274.5625 536.960938 274.925781 C 537.566406 275.105469 538.132812 275.371094 538.679688 275.671875 C 538.960938 275.816406 539.226562 275.996094 539.488281 276.160156 C 539.609375 276.238281 539.730469 276.339844 539.871094 276.441406 L 540.054688 276.582031 C 540.117188 276.625 540.175781 276.683594 540.238281 276.746094 C 540.722656 277.148438 541.148438 277.636719 541.511719 278.140625 C 541.550781 278.203125 541.589844 278.261719 541.652344 278.34375 C 541.710938 278.421875 541.753906 278.464844 541.773438 278.546875 L 541.894531 278.746094 C 541.933594 278.808594 541.976562 278.890625 542.015625 278.949219 C 542.097656 279.089844 542.15625 279.234375 542.21875 279.375 L 542.320312 279.597656 C 542.339844 279.675781 542.378906 279.738281 542.402344 279.820312 C 542.621094 280.40625 542.785156 281.011719 542.867188 281.640625 C 542.945312 282.265625 542.945312 282.894531 542.867188 283.5 C 542.785156 284.125 542.664062 284.734375 542.460938 285.320312 C 542.421875 285.460938 542.359375 285.621094 542.320312 285.765625 C 542.277344 285.90625 542.21875 286.066406 542.15625 286.210938 C 542.035156 286.492188 541.914062 286.796875 541.792969 287.078125 C 541.289062 288.230469 540.722656 289.34375 540.074219 290.414062 C 539.425781 291.488281 538.679688 292.519531 537.871094 293.46875 L 537.566406 293.8125 C 537.464844 293.933594 537.363281 294.054688 537.242188 294.15625 L 536.921875 294.5 L 536.757812 294.683594 C 536.699219 294.742188 536.65625 294.804688 536.597656 294.84375 C 536.375 295.066406 536.132812 295.269531 535.910156 295.492188 C 535.6875 295.714844 535.421875 295.917969 535.203125 296.117188 C 534.210938 296.925781 533.160156 297.675781 532.046875 298.300781 L 532.085938 298.445312 C 533.28125 297.917969 534.433594 297.269531 535.484375 296.480469 C 535.746094 296.300781 535.988281 296.097656 536.253906 295.894531 C 536.3125 295.855469 536.375 295.792969 536.433594 295.734375 L 536.617188 295.574219 L 536.980469 295.25 C 537.042969 295.207031 537.101562 295.148438 537.164062 295.085938 L 537.34375 294.925781 L 537.507812 294.785156 C 537.507812 294.785156 539.105469 293.53125 540.558594 293.386719 C 541.046875 293.347656 541.511719 293.308594 541.996094 293.289062 C 543.089844 293.246094 544.179688 293.289062 545.25 293.386719 C 545.515625 293.410156 545.796875 293.449219 546.0625 293.46875 L 546.464844 293.53125 L 546.871094 293.589844 C 547.394531 293.671875 547.921875 293.792969 548.425781 293.953125 C 549.4375 294.257812 550.386719 294.742188 551.238281 295.390625 C 552.085938 296.039062 552.792969 296.847656 553.339844 297.757812 C 553.886719 298.6875 554.230469 299.738281 554.371094 300.808594 C 554.695312 302.972656 554.167969 305.179688 552.957031 307 Z M 537.972656 277.65625 C 537.851562 277.636719 537.707031 277.59375 537.585938 277.554688 C 537.464844 277.515625 537.324219 277.472656 537.203125 277.453125 L 536.820312 277.371094 L 536.617188 277.332031 L 536.210938 277.292969 L 536.109375 277.269531 L 536.011719 277.269531 L 535.625 277.25 C 535.566406 277.25 535.503906 277.25 535.445312 277.25 L 535.078125 277.25 C 535.019531 277.25 534.957031 277.25 534.878906 277.25 C 534.371094 277.269531 533.867188 277.351562 533.382812 277.472656 L 533.199219 277.515625 L 533.097656 277.535156 L 533.015625 277.554688 L 532.652344 277.675781 L 532.308594 277.816406 L 532.226562 277.859375 L 531.984375 277.980469 C 531.925781 278 531.863281 278.019531 531.804688 278.058594 L 531.640625 278.140625 L 531.480469 278.222656 C 531.417969 278.242188 531.378906 278.28125 531.320312 278.324219 L 531.15625 278.421875 L 531.074219 278.464844 L 530.996094 278.503906 L 530.671875 278.707031 C 530.246094 278.988281 529.84375 279.3125 529.457031 279.636719 C 529.074219 279.980469 528.691406 280.324219 528.324219 280.707031 C 527.960938 281.09375 527.617188 281.476562 527.273438 281.882812 C 527.476562 281.375 527.738281 280.910156 528.042969 280.464844 C 528.347656 280.019531 528.691406 279.597656 529.054688 279.210938 C 529.15625 279.109375 529.234375 279.011719 529.335938 278.929688 C 529.4375 278.847656 529.539062 278.746094 529.640625 278.644531 C 529.742188 278.546875 529.84375 278.464844 529.945312 278.382812 L 530.265625 278.140625 C 530.488281 277.980469 530.710938 277.816406 530.953125 277.675781 C 531.074219 277.59375 531.195312 277.535156 531.320312 277.472656 L 531.5 277.371094 C 531.5625 277.332031 531.621094 277.3125 531.683594 277.292969 L 531.863281 277.210938 L 531.964844 277.171875 L 532.066406 277.128906 L 532.449219 276.988281 L 532.855469 276.867188 L 532.957031 276.847656 L 533.058594 276.824219 L 533.261719 276.785156 L 533.460938 276.746094 L 533.664062 276.726562 L 533.867188 276.703125 L 533.96875 276.683594 L 534.070312 276.683594 L 534.472656 276.664062 C 534.613281 276.664062 534.757812 276.683594 534.878906 276.683594 C 534.957031 276.683594 535.019531 276.683594 535.078125 276.703125 L 535.28125 276.726562 L 535.484375 276.746094 C 535.546875 276.746094 535.625 276.765625 535.6875 276.785156 L 536.089844 276.867188 L 536.292969 276.90625 L 536.496094 276.96875 L 536.699219 277.027344 L 536.796875 277.070312 L 536.898438 277.109375 C 537.019531 277.171875 537.140625 277.210938 537.265625 277.269531 C 537.386719 277.332031 537.507812 277.390625 537.628906 277.453125 C 537.730469 277.515625 537.851562 277.574219 537.972656 277.65625 Z M 547.78125 308.25 C 547.960938 308.25 548.144531 308.25 548.324219 308.25 C 548.144531 308.292969 547.980469 308.351562 547.800781 308.394531 L 547.535156 308.453125 C 547.457031 308.472656 547.355469 308.496094 547.273438 308.515625 L 546.75 308.59375 C 546.566406 308.617188 546.382812 308.636719 546.203125 308.65625 L 545.9375 308.675781 L 545.65625 308.695312 L 545.109375 308.71875 L 544.5625 308.71875 C 544.464844 308.71875 544.382812 308.71875 544.28125 308.71875 L 543.996094 308.695312 C 543.269531 308.65625 542.542969 308.574219 541.8125 308.433594 C 541.632812 308.394531 541.449219 308.351562 541.269531 308.3125 L 540.742188 308.171875 C 540.660156 308.152344 540.558594 308.128906 540.480469 308.089844 L 540.214844 308.007812 L 539.953125 307.929688 L 539.691406 307.847656 C 539.507812 307.785156 539.347656 307.726562 539.164062 307.664062 L 538.660156 307.464844 C 538.316406 307.320312 537.992188 307.179688 537.648438 307.019531 C 536.980469 306.714844 536.355469 306.351562 535.726562 305.964844 C 535.101562 305.582031 534.511719 305.15625 533.949219 304.714844 C 533.664062 304.492188 533.382812 304.246094 533.117188 304.003906 C 532.855469 303.761719 532.59375 303.5 532.351562 303.238281 C 532.957031 303.621094 533.5625 304.003906 534.191406 304.347656 C 534.816406 304.691406 535.445312 305.035156 536.070312 305.339844 C 536.699219 305.644531 537.34375 305.945312 537.992188 306.230469 C 538.640625 306.511719 539.304688 306.753906 539.972656 306.976562 L 540.214844 307.058594 L 540.460938 307.140625 C 540.621094 307.179688 540.804688 307.242188 540.964844 307.28125 L 541.46875 307.421875 L 541.976562 307.542969 C 542.058594 307.5625 542.136719 307.585938 542.238281 307.605469 L 542.5 307.664062 L 542.765625 307.726562 L 542.886719 307.746094 C 542.925781 307.746094 542.964844 307.765625 543.007812 307.765625 L 543.53125 307.867188 C 543.613281 307.886719 543.714844 307.886719 543.796875 307.90625 L 544.058594 307.949219 C 544.402344 308.007812 544.765625 308.03125 545.109375 308.070312 L 545.636719 308.109375 L 545.898438 308.128906 L 546.160156 308.128906 L 546.6875 308.152344 L 547.476562 308.152344 Z M 521.410156 307.363281 C 520.78125 308.65625 519.953125 309.871094 518.941406 310.902344 L 518.761719 311.101562 C 518.699219 311.164062 518.640625 311.246094 518.558594 311.304688 L 518.152344 311.667969 C 518.011719 311.789062 517.871094 311.914062 517.730469 312.011719 L 517.507812 312.175781 C 517.425781 312.234375 517.363281 312.296875 517.285156 312.335938 C 516.675781 312.761719 516.050781 313.125 515.382812 313.429688 C 513.359375 314.339844 511.074219 314.5625 508.910156 314.054688 C 508.566406 313.976562 508.203125 313.875 507.878906 313.753906 C 507.535156 313.632812 507.214844 313.488281 506.890625 313.308594 C 507.578125 313.511719 508.265625 313.632812 508.972656 313.691406 C 509.660156 313.773438 510.367188 313.773438 511.074219 313.730469 C 512.449219 313.652344 513.824219 313.308594 515.078125 312.742188 L 515.199219 312.699219 L 515.324219 312.640625 L 515.546875 312.519531 L 515.765625 312.398438 L 516.210938 312.15625 C 516.292969 312.113281 516.375 312.074219 516.433594 312.035156 C 516.578125 311.933594 516.71875 311.851562 516.878906 311.75 C 517.464844 311.367188 518.011719 310.941406 518.519531 310.457031 C 519.589844 309.546875 520.558594 308.496094 521.410156 307.363281 Z M 530.308594 306.492188 C 530.609375 306.632812 530.914062 306.816406 531.195312 307 C 531.480469 307.179688 531.761719 307.382812 532.027344 307.585938 C 533.664062 308.859375 534.957031 310.515625 535.828125 312.398438 C 536.109375 313.023438 536.332031 313.691406 536.515625 314.359375 L 536.636719 314.863281 C 536.675781 315.027344 536.699219 315.207031 536.738281 315.371094 L 536.777344 315.632812 L 536.796875 315.894531 L 536.859375 316.402344 C 536.960938 317.757812 536.820312 319.132812 536.453125 320.464844 C 536.535156 319.132812 536.476562 317.796875 536.273438 316.484375 L 536.171875 315.996094 L 536.132812 315.753906 L 536.070312 315.511719 C 536.03125 315.351562 535.988281 315.1875 535.949219 315.027344 L 535.808594 314.5625 L 535.765625 314.441406 L 535.726562 314.320312 L 535.644531 314.097656 L 535.566406 313.875 C 535.546875 313.792969 535.503906 313.710938 535.484375 313.652344 C 535.421875 313.488281 535.363281 313.347656 535.300781 313.1875 L 535.101562 312.742188 C 534.554688 311.546875 533.867188 310.414062 533.039062 309.382812 C 532.632812 308.859375 532.1875 308.375 531.722656 307.886719 C 531.320312 307.382812 530.832031 306.917969 530.308594 306.492188 Z M 477.527344 272.820312 C 477.464844 272.863281 477.40625 272.882812 477.34375 272.921875 C 477.101562 273.066406 476.859375 273.1875 476.636719 273.347656 C 476.515625 273.429688 476.394531 273.488281 476.292969 273.570312 C 476.191406 273.652344 476.070312 273.730469 475.949219 273.792969 L 475.789062 273.914062 L 475.625 274.035156 L 475.300781 274.277344 L 475 274.539062 C 474.957031 274.582031 474.898438 274.621094 474.835938 274.664062 L 474.695312 274.804688 C 474.292969 275.167969 473.925781 275.550781 473.582031 275.957031 C 472.894531 276.785156 472.328125 277.695312 471.882812 278.667969 C 471.660156 279.152344 471.480469 279.675781 471.316406 280.183594 C 471.15625 280.707031 471.035156 281.253906 470.933594 281.78125 C 470.894531 281.496094 470.894531 281.214844 470.894531 280.953125 C 470.894531 280.667969 470.933594 280.386719 470.953125 280.101562 C 471.035156 279.535156 471.15625 278.988281 471.339844 278.445312 C 471.703125 277.351562 472.269531 276.339844 473.015625 275.472656 L 473.160156 275.308594 C 473.199219 275.25 473.257812 275.207031 473.300781 275.148438 C 473.402344 275.046875 473.503906 274.945312 473.601562 274.84375 L 473.90625 274.539062 C 473.945312 274.5 474.007812 274.441406 474.070312 274.398438 L 474.390625 274.117188 C 474.453125 274.074219 474.511719 274.035156 474.554688 273.996094 L 474.898438 273.753906 L 475.261719 273.53125 L 475.445312 273.410156 L 475.625 273.308594 C 476.617188 272.761719 477.6875 272.378906 478.78125 272.175781 L 478.417969 272.355469 C 478.296875 272.417969 478.171875 272.476562 478.050781 272.539062 L 477.6875 272.742188 Z M 483.25 254.761719 C 482.925781 255.148438 482.644531 255.574219 482.398438 256.015625 L 482.320312 256.179688 L 482.277344 256.261719 L 482.238281 256.339844 L 482.078125 256.683594 L 481.933594 257.027344 C 481.933594 257.070312 481.914062 257.089844 481.894531 257.109375 L 481.875 257.191406 L 481.8125 257.371094 C 481.792969 257.433594 481.773438 257.492188 481.753906 257.554688 L 481.710938 257.734375 L 481.671875 257.917969 C 481.652344 257.980469 481.652344 258.039062 481.632812 258.101562 L 481.589844 258.28125 L 481.550781 258.484375 L 481.492188 258.867188 C 481.410156 259.375 481.367188 259.878906 481.367188 260.40625 C 481.347656 260.929688 481.367188 261.4375 481.390625 261.960938 C 481.410156 262.488281 481.46875 263.015625 481.550781 263.539062 C 481.328125 263.054688 481.144531 262.550781 481.023438 262.023438 C 480.902344 261.496094 480.824219 260.972656 480.78125 260.425781 C 480.78125 260.285156 480.761719 260.164062 480.761719 260.019531 C 480.761719 259.878906 480.761719 259.757812 480.761719 259.617188 C 480.761719 259.476562 480.761719 259.355469 480.761719 259.210938 L 480.800781 258.808594 C 480.824219 258.546875 480.863281 258.261719 480.925781 258 C 480.945312 257.859375 480.984375 257.734375 481.003906 257.59375 L 481.046875 257.390625 C 481.066406 257.332031 481.085938 257.25 481.105469 257.191406 L 481.167969 256.988281 L 481.207031 256.886719 C 481.226562 256.847656 481.226562 256.824219 481.246094 256.785156 L 481.410156 256.402344 L 481.589844 256.039062 C 481.613281 255.996094 481.632812 255.976562 481.632812 255.9375 L 481.691406 255.835938 L 481.792969 255.652344 C 481.835938 255.59375 481.855469 255.53125 481.894531 255.472656 L 482.015625 255.308594 L 482.136719 255.148438 L 482.199219 255.066406 L 482.257812 254.984375 L 482.523438 254.664062 C 482.621094 254.5625 482.722656 254.460938 482.804688 254.359375 C 482.84375 254.320312 482.90625 254.257812 482.945312 254.21875 L 483.109375 254.074219 L 483.269531 253.933594 C 483.332031 253.894531 483.371094 253.851562 483.429688 253.8125 L 483.753906 253.589844 L 483.835938 253.53125 L 483.917969 253.488281 L 484.097656 253.386719 L 484.28125 253.289062 L 484.363281 253.246094 L 484.464844 253.207031 L 484.828125 253.042969 C 484.949219 252.984375 485.070312 252.945312 485.210938 252.902344 C 485.332031 252.863281 485.453125 252.820312 485.59375 252.78125 C 485.472656 252.863281 485.371094 252.921875 485.25 253.003906 C 485.128906 253.085938 485.027344 253.144531 484.929688 253.226562 L 484.625 253.449219 L 484.542969 253.507812 L 484.464844 253.570312 L 484.320312 253.691406 L 484.160156 253.8125 L 484.039062 253.933594 L 483.753906 254.195312 C 483.714844 254.238281 483.652344 254.277344 483.613281 254.339844 L 483.472656 254.480469 L 483.351562 254.621094 C 483.308594 254.664062 483.289062 254.703125 483.25 254.761719 Z M 501.894531 274.117188 C 501.53125 274.15625 501.167969 274.175781 500.800781 274.195312 C 501.511719 274.035156 502.199219 273.832031 502.867188 273.632812 C 503.53125 273.429688 504.21875 273.1875 504.886719 272.945312 C 505.554688 272.699219 506.203125 272.417969 506.847656 272.113281 C 507.496094 271.8125 508.125 271.507812 508.730469 271.164062 L 508.953125 271.042969 L 509.175781 270.902344 C 509.335938 270.820312 509.476562 270.71875 509.621094 270.636719 L 510.066406 270.355469 L 510.507812 270.050781 C 510.589844 270.011719 510.652344 269.949219 510.730469 269.910156 L 510.933594 269.75 L 511.15625 269.585938 L 511.257812 269.503906 L 511.359375 269.425781 L 511.785156 269.101562 C 511.863281 269.039062 511.925781 268.980469 511.984375 268.9375 L 512.1875 268.777344 C 512.472656 268.554688 512.714844 268.3125 512.976562 268.089844 L 513.359375 267.726562 L 513.5625 267.542969 L 513.746094 267.34375 C 514.25 266.835938 514.695312 266.289062 515.179688 265.746094 C 515.101562 265.90625 515 266.066406 514.917969 266.210938 L 514.777344 266.453125 C 514.734375 266.53125 514.675781 266.613281 514.636719 266.675781 C 514.535156 266.835938 514.433594 266.976562 514.332031 267.140625 C 514.230469 267.300781 514.109375 267.421875 514.007812 267.585938 L 513.847656 267.808594 L 513.664062 268.007812 L 513.300781 268.433594 L 512.9375 268.839844 C 512.875 268.898438 512.816406 268.980469 512.753906 269.039062 L 512.550781 269.222656 C 512.027344 269.726562 511.480469 270.214844 510.894531 270.636719 C 510.308594 271.0625 509.699219 271.46875 509.054688 271.8125 C 508.890625 271.890625 508.730469 271.992188 508.566406 272.074219 L 508.082031 272.316406 C 507.757812 272.476562 507.414062 272.621094 507.09375 272.761719 C 506.425781 273.042969 505.738281 273.289062 505.050781 273.488281 C 504.363281 273.691406 503.652344 273.851562 502.925781 273.996094 C 502.601562 274.015625 502.257812 274.074219 501.894531 274.117188 Z M 506.484375 256.503906 C 506.726562 256.402344 506.96875 256.320312 507.214844 256.261719 C 507.457031 256.199219 507.71875 256.160156 507.980469 256.117188 C 509.035156 255.996094 510.105469 256.136719 511.097656 256.523438 C 511.21875 256.5625 511.339844 256.625 511.460938 256.683594 L 511.640625 256.765625 L 511.824219 256.867188 C 512.066406 256.988281 512.289062 257.128906 512.511719 257.269531 L 512.835938 257.511719 C 512.894531 257.554688 512.9375 257.59375 512.996094 257.636719 L 513.160156 257.757812 L 513.320312 257.878906 L 513.460938 258.019531 C 513.5625 258.121094 513.644531 258.203125 513.746094 258.300781 C 513.925781 258.503906 514.109375 258.6875 514.25 258.910156 C 514.332031 259.011719 514.414062 259.109375 514.492188 259.210938 L 514.714844 259.535156 C 515.28125 260.40625 515.707031 261.355469 515.96875 262.367188 C 515.828125 262.144531 515.6875 261.941406 515.566406 261.71875 C 515.445312 261.496094 515.28125 261.296875 515.160156 261.09375 L 514.9375 260.789062 L 514.835938 260.628906 L 514.777344 260.546875 L 514.714844 260.464844 L 514.492188 260.164062 C 514.453125 260.121094 514.414062 260.0625 514.371094 260.019531 L 514.25 259.878906 L 513.988281 259.597656 C 513.90625 259.496094 513.824219 259.414062 513.746094 259.332031 C 513.582031 259.152344 513.402344 258.96875 513.238281 258.808594 C 513.160156 258.726562 513.058594 258.644531 512.976562 258.566406 L 512.695312 258.324219 L 512.550781 258.203125 C 512.511719 258.160156 512.449219 258.121094 512.410156 258.101562 L 512.105469 257.898438 C 511.320312 257.351562 510.410156 256.949219 509.476562 256.726562 C 508.488281 256.460938 507.476562 256.402344 506.484375 256.503906 Z M 497.425781 289.484375 C 497.425781 289.566406 497.445312 289.667969 497.445312 289.769531 L 497.445312 290.316406 C 497.445312 290.496094 497.425781 290.679688 497.425781 290.859375 L 497.40625 291.144531 C 497.40625 291.222656 497.386719 291.324219 497.386719 291.425781 C 497.304688 292.15625 497.140625 292.882812 496.921875 293.570312 C 496.234375 295.671875 494.855469 297.515625 493.039062 298.765625 C 492.734375 298.96875 492.429688 299.152344 492.105469 299.332031 C 491.785156 299.515625 491.460938 299.65625 491.117188 299.777344 C 491.722656 299.394531 492.289062 298.96875 492.816406 298.503906 C 493.339844 298.039062 493.824219 297.535156 494.25 296.988281 C 495.121094 295.917969 495.789062 294.683594 496.234375 293.367188 C 496.253906 293.328125 496.253906 293.289062 496.273438 293.246094 L 496.3125 293.125 L 496.476562 292.640625 L 496.535156 292.398438 L 496.597656 292.15625 C 496.617188 292.074219 496.636719 291.992188 496.65625 291.890625 C 496.675781 291.730469 496.71875 291.546875 496.738281 291.386719 C 496.839844 290.699219 496.898438 289.992188 496.898438 289.304688 C 496.898438 287.886719 496.777344 286.472656 496.515625 285.078125 C 497.0625 286.410156 497.386719 287.847656 497.484375 289.285156 Z M 505.796875 277.695312 C 505.128906 277.65625 504.464844 277.636719 503.816406 277.65625 C 503.148438 277.675781 502.480469 277.734375 501.8125 277.835938 C 502.136719 277.714844 502.460938 277.613281 502.785156 277.515625 C 503.109375 277.433594 503.453125 277.351562 503.777344 277.292969 C 505.816406 276.949219 507.921875 277.089844 509.882812 277.714844 C 510.550781 277.9375 511.175781 278.203125 511.785156 278.523438 L 512.226562 278.765625 C 512.371094 278.847656 512.511719 278.949219 512.671875 279.050781 L 512.894531 279.191406 L 513.097656 279.332031 L 513.523438 279.636719 C 514.59375 280.488281 515.523438 281.496094 516.253906 282.648438 C 515.324219 281.699219 514.292969 280.851562 513.179688 280.101562 L 512.753906 279.839844 L 512.550781 279.71875 L 512.328125 279.597656 C 512.1875 279.515625 512.046875 279.433594 511.90625 279.355469 L 511.460938 279.132812 L 511.359375 279.070312 L 511.238281 279.03125 L 510.792969 278.828125 C 510.710938 278.789062 510.628906 278.765625 510.570312 278.746094 C 510.410156 278.6875 510.265625 278.625 510.105469 278.566406 L 509.640625 278.402344 C 508.40625 278.019531 507.09375 277.777344 505.796875 277.695312 Z M 505.796875 277.695312 "/></g></g></svg>