<svg xmlns="http://www.w3.org/2000/svg" xmlns:xlink="http://www.w3.org/1999/xlink" width="1080" zoomAndPan="magnify" viewBox="0 0 810 1012.49997" height="1350" preserveAspectRatio="xMidYMid meet" version="1.0"><path fill="#ffffff" d="M 527.371094 423.765625 C 535.558594 427.59375 542.164062 432.605469 547.570312 439.902344 C 553.113281 448.425781 554.945312 459.199219 555.496094 469.199219 C 556.082031 480.425781 554.203125 492.171875 549.144531 502.28125 C 547.621094 505.136719 546.078125 507.84375 544 510.335938 L 542.792969 510.335938 L 542.398438 511.363281 C 540.320312 514.90625 536.035156 517.414062 532.546875 519.507812 C 520.574219 526.164062 507.265625 527.582031 493.796875 527.441406 C 482.195312 527.128906 471.019531 523.644531 461.128906 517.59375 C 454.660156 513.402344 449.492188 508.277344 445.816406 501.449219 C 440.296875 489.578125 439.96875 477.21875 440.5625 464.363281 C 441.425781 455.226562 443.902344 446.390625 449.066406 438.730469 C 454.449219 431.441406 460.824219 426.789062 469.066406 423.105469 C 487.300781 415.359375 509.28125 415.847656 527.371094 423.765625 M 486.308594 447.347656 C 484.65625 448.6875 483.527344 449.921875 482.300781 451.660156 C 478.390625 462.910156 479.214844 477.007812 480.941406 488.671875 C 481.570312 491.683594 482.78125 494.039062 484.71875 496.421875 C 486.671875 498.429688 488.773438 499.523438 491.425781 500.328125 C 496.425781 501.257812 502.074219 501.414062 506.914062 499.710938 C 509.277344 498.574219 510.902344 497.132812 512.476562 495.046875 C 514.175781 492.417969 514.664062 489.816406 514.964844 486.742188 C 515.054688 484.550781 515.066406 482.363281 515.066406 480.171875 L 515.074219 478.273438 C 515.078125 476.957031 515.078125 475.636719 515.078125 474.320312 C 515.078125 472.3125 515.089844 470.308594 515.101562 468.300781 C 515.105469 467.015625 515.105469 465.730469 515.105469 464.441406 L 515.117188 462.644531 C 515.105469 458.269531 514.746094 454.25 512.773438 450.296875 C 510.351562 447.496094 507.703125 446.03125 504.230469 444.816406 C 497.953125 443.535156 491.90625 444.238281 486.308594 447.347656 M 407.972656 425.269531 C 408.960938 425.789062 409.945312 426.316406 410.921875 426.855469 L 410.898438 425.6875 C 410.894531 425.1875 410.890625 424.6875 410.882812 424.171875 L 410.863281 422.664062 L 410.921875 421.414062 L 411.527344 420.808594 C 413.183594 420.753906 414.824219 420.738281 416.480469 420.75 L 417.8125 420.75 C 419.460938 420.753906 421.109375 420.761719 422.753906 420.769531 L 433.90625 420.808594 L 433.90625 457.101562 L 423.058594 457.480469 L 419.667969 457.648438 C 414.160156 457.804688 414.160156 457.804688 411.527344 457.101562 C 409.121094 455.402344 407.734375 453.449219 406.082031 451.054688 C 400.996094 446.753906 394.335938 444.269531 387.882812 442.886719 C 384.769531 442.488281 381.695312 442.410156 378.558594 442.394531 L 376.804688 442.386719 C 374.019531 442.414062 371.703125 442.453125 369.183594 443.792969 C 368.878906 445.808594 368.878906 445.808594 369.183594 448.027344 C 371.554688 449.9375 373.820312 450.902344 376.734375 451.703125 L 379.0625 452.351562 L 380.292969 452.683594 C 381.585938 453.035156 382.871094 453.394531 384.160156 453.757812 C 387.820312 454.78125 391.480469 455.796875 395.148438 456.800781 C 420.0625 463.648438 420.0625 463.648438 428.167969 471.824219 C 432.269531 476.210938 435.074219 480.855469 437.121094 486.515625 C 438.300781 492.113281 438.0625 498.558594 436.304688 503.976562 C 433.800781 510.503906 430.078125 515.269531 424.796875 519.863281 C 418.949219 524.164062 410.945312 526.277344 403.832031 527.144531 C 391.027344 528.328125 378.578125 526.492188 366.789062 521.308594 C 364.730469 520.339844 362.703125 519.304688 360.714844 518.199219 L 360.109375 524.851562 L 336.519531 524.851562 L 336.519531 486.136719 L 346.800781 485.761719 L 350.015625 485.59375 C 355.21875 485.4375 355.21875 485.4375 357.6875 486.136719 C 359.902344 487.847656 361.132812 489.796875 362.527344 492.1875 C 366.226562 495.839844 370.371094 498.265625 375.230469 500.050781 L 376.777344 500.636719 C 380.996094 501.957031 385.175781 502.035156 389.5625 502.054688 L 391.347656 502.066406 C 394.9375 502.03125 398.417969 501.800781 401.847656 500.65625 L 403.664062 499.445312 C 403.8125 497.882812 403.8125 497.882812 403.664062 496.421875 C 399.304688 494.3125 394.828125 492.867188 390.203125 491.46875 L 386.71875 490.402344 C 385.109375 489.910156 383.5 489.417969 381.890625 488.925781 C 379.113281 488.082031 376.339844 487.234375 373.5625 486.382812 C 372.101562 485.929688 370.636719 485.484375 369.171875 485.039062 C 358.9375 481.890625 349.480469 478.332031 341.960938 470.410156 C 339.179688 467.164062 337.480469 463.585938 336.332031 459.476562 C 335.207031 453.121094 335.152344 446.253906 336.894531 440.015625 C 338.128906 436.675781 339.71875 433.847656 341.960938 431.089844 L 342.929688 429.855469 C 347.03125 425.195312 352.84375 422.839844 358.515625 420.613281 C 374.753906 415.152344 392.839844 417.78125 407.972656 425.269531 M 262.113281 418.992188 C 262.988281 418.941406 263.859375 418.917969 264.734375 418.921875 L 266.449219 418.917969 L 268.347656 418.925781 L 270.332031 418.925781 C 272.507812 418.925781 274.683594 418.929688 276.859375 418.933594 L 281.375 418.9375 C 284.9375 418.9375 288.5 418.945312 292.0625 418.949219 C 296.515625 418.957031 300.96875 418.960938 305.421875 418.964844 C 313.367188 418.96875 321.3125 418.980469 329.257812 418.992188 C 330.089844 420.886719 330.621094 422.402344 330.605469 424.472656 L 330.605469 425.867188 L 330.585938 427.339844 L 330.582031 428.875 C 330.574219 430.484375 330.558594 432.089844 330.542969 433.699219 C 330.539062 434.792969 330.53125 435.886719 330.527344 436.980469 C 330.511719 439.65625 330.492188 442.332031 330.46875 445.003906 C 325.175781 445.621094 320.121094 445.609375 314.742188 445.609375 L 314.742188 498.839844 L 329.257812 499.445312 L 330.46875 500.050781 L 330.46875 524.851562 L 261.507812 524.851562 L 261.507812 500.050781 C 266.652344 499.023438 271.988281 499.445312 277.238281 499.445312 L 277.238281 445.609375 L 261.507812 445.003906 C 261.496094 441.398438 261.484375 437.789062 261.476562 434.183594 C 261.472656 432.953125 261.46875 431.726562 261.464844 430.5 C 261.457031 428.738281 261.453125 426.976562 261.449219 425.214844 L 261.441406 423.539062 C 261.441406 422.226562 261.472656 420.914062 261.507812 419.597656 Z M 302.039062 536.347656 C 304.117188 535.890625 304.117188 535.890625 305.460938 535.886719 C 306.878906 536.347656 306.878906 536.347656 308.21875 537.75 C 309.382812 539.355469 310.515625 540.980469 311.625 542.621094 C 313.996094 545.964844 316.984375 548.917969 319.921875 551.769531 L 321.394531 553.285156 L 321.394531 554.492188 L 322.414062 554.925781 C 324.738281 556.214844 326.519531 558.125 328.449219 559.941406 C 329.8125 561.257812 329.8125 561.257812 331.679688 561.753906 C 332.9375 561.277344 332.9375 561.277344 334.238281 560.488281 L 335.707031 559.65625 L 337.234375 558.765625 L 338.785156 557.882812 C 340.046875 557.160156 341.308594 556.433594 342.566406 555.703125 L 342.566406 553.886719 C 341.496094 552.46875 340.390625 551.082031 339.238281 549.730469 C 335.902344 545.683594 333 541.550781 330.46875 536.949219 L 330.46875 536.347656 C 332.246094 536.160156 333.578125 536.03125 335.308594 536.347656 C 336.578125 537.625 337.324219 538.578125 338.21875 540.089844 C 341.0625 544.648438 344.5 548.625 348.011719 552.679688 L 349.824219 552.066406 C 352.039062 551.320312 354.257812 550.578125 356.472656 549.835938 L 359.351562 548.867188 C 360.730469 548.402344 362.109375 547.941406 363.488281 547.480469 L 364.792969 547.039062 C 367.835938 546.023438 367.835938 546.023438 369.183594 546.023438 L 365.554688 536.347656 L 369.789062 536.347656 C 370.820312 537.320312 370.820312 537.320312 371.488281 538.613281 L 372.179688 539.890625 L 372.8125 541.183594 C 373.214844 541.992188 373.617188 542.796875 374.023438 543.605469 C 379.058594 543.132812 384.070312 542.507812 389.085938 541.855469 C 393.332031 541.3125 397.578125 540.902344 401.847656 540.582031 L 402.453125 536.347656 L 406.6875 536.347656 L 406.6875 540.582031 L 407.78125 540.664062 C 414.699219 541.195312 421.554688 541.8125 428.390625 543.019531 C 430.925781 543.460938 433.113281 543.605469 435.722656 543.605469 L 439.351562 536.347656 L 443.585938 536.347656 C 443.21875 539.835938 441.90625 542.824219 440.5625 546.023438 L 441.65625 546.199219 C 446.324219 547.03125 450.46875 548.648438 454.828125 550.464844 L 456.453125 551.117188 L 457.902344 551.71875 C 459.332031 552.164062 459.332031 552.164062 460.914062 551.917969 C 462.472656 551.542969 462.472656 551.542969 463.765625 550.097656 C 464.242188 549.503906 464.71875 548.90625 465.210938 548.292969 L 466 547.328125 C 467.375 545.621094 468.648438 543.835938 469.820312 541.980469 C 471.0625 540.007812 472.28125 538.101562 473.832031 536.347656 C 475.246094 535.851562 475.246094 535.851562 476.59375 535.855469 L 478.671875 536.347656 C 477.757812 539.015625 476.3125 541.15625 474.664062 543.417969 C 474.398438 543.785156 474.132812 544.15625 473.859375 544.535156 C 471.8125 547.359375 469.640625 550.050781 467.359375 552.6875 L 466.574219 553.886719 L 467.179688 555.703125 C 468.625 556.839844 470.261719 557.679688 471.867188 558.578125 L 473.179688 559.355469 C 475.6875 560.769531 475.6875 560.769531 478.492188 561.164062 C 480.285156 560.363281 481.476562 559.320312 482.90625 557.972656 L 484.417969 556.5625 C 485.941406 555.078125 487.453125 553.582031 488.953125 552.074219 L 490.359375 550.730469 C 494.890625 546.359375 498.773438 541.582031 502.261719 536.347656 C 503.4375 536.167969 503.4375 536.167969 504.757812 536.234375 L 507.101562 536.347656 C 504.875 542.886719 498.78125 548.644531 494.070312 553.570312 C 493.476562 554.191406 492.882812 554.820312 492.292969 555.449219 C 478.734375 569.875 460.925781 580.425781 442.09375 586.425781 C 432.128906 589.382812 421.667969 591.453125 411.253906 591.515625 L 409.832031 591.527344 C 408.332031 591.539062 406.828125 591.542969 405.324219 591.542969 L 403.765625 591.546875 C 395.921875 591.535156 388.375 591.179688 380.675781 589.578125 C 380.191406 589.488281 379.703125 589.394531 379.203125 589.300781 C 361.539062 585.980469 344.6875 578.125 330.46875 567.195312 L 328.820312 565.933594 C 319.804688 558.875 311.882812 550.96875 305.0625 541.789062 L 304.199219 540.636719 C 303.453125 539.625 302.742188 538.59375 302.039062 537.554688 Z M 399.84375 545.441406 L 398.09375 545.582031 L 396.15625 545.734375 L 394.097656 545.910156 L 392.019531 546.085938 C 385.0625 546.519531 385.0625 546.519531 378.257812 547.839844 C 377.632812 548.425781 377.027344 549.027344 376.441406 549.652344 C 379.765625 555.496094 383.152344 561.222656 387.199219 566.597656 C 388.539062 568.40625 388.539062 568.40625 389.40625 569.890625 C 390.121094 571.085938 390.121094 571.085938 390.976562 572.035156 C 392.519531 572.816406 393.890625 572.792969 395.597656 572.734375 C 399.132812 572.527344 399.132812 572.527344 402.453125 571.429688 L 402.453125 546.023438 C 401.257812 545.3125 401.257812 545.3125 399.84375 545.441406 M 407.292969 546.023438 C 406.75 548.335938 406.609375 550.484375 406.605469 552.859375 L 406.605469 555.070312 L 406.613281 557.367188 L 406.605469 559.636719 C 406.609375 563.617188 406.753906 567.480469 407.292969 571.429688 C 408.199219 571.640625 409.105469 571.839844 410.015625 572.035156 L 411.546875 572.375 C 414.875 572.96875 414.875 572.96875 418.179688 572.640625 C 419.789062 571.316406 420.832031 569.691406 421.960938 567.953125 L 422.957031 566.496094 C 424.007812 564.925781 425.035156 563.347656 426.042969 561.753906 L 427.117188 560.070312 C 428.15625 558.417969 429.1875 556.761719 430.203125 555.097656 L 431.175781 553.511719 L 432.050781 552.035156 L 432.828125 550.730469 L 433.304688 549.652344 L 432.699219 548.445312 C 431.183594 548.074219 429.660156 547.757812 428.125 547.5 L 426.855469 547.269531 C 422.011719 546.40625 417.351562 545.933594 412.433594 545.988281 L 410.925781 545.996094 C 409.714844 546.003906 408.503906 546.011719 407.292969 546.023438 M 364.957031 551.429688 L 362.941406 552.164062 L 360.863281 552.945312 L 358.761719 553.714844 C 355.453125 554.890625 355.453125 554.890625 352.246094 556.308594 C 354.015625 560.605469 358.640625 563.648438 362.226562 566.457031 C 371.046875 573.429688 371.046875 573.429688 381.28125 577.480469 C 382.878906 576.898438 382.878906 576.898438 384.457031 576.003906 L 386.089844 575.136719 L 387.328125 574.457031 C 385.875 571.734375 384.234375 569.226562 382.453125 566.707031 C 378.765625 561.472656 375.074219 555.988281 372.207031 550.257812 C 369.5 550.132812 367.496094 550.492188 364.957031 551.429688 M 437.539062 550.257812 C 436.261719 551.660156 435.457031 553.273438 434.589844 554.945312 C 434.066406 555.898438 433.539062 556.847656 433.011719 557.792969 L 432.234375 559.214844 C 429.359375 564.324219 425.796875 569.070312 422.414062 573.851562 C 423.734375 575.320312 424.910156 576.128906 426.75 576.847656 C 428.191406 577.335938 428.191406 577.335938 429.671875 577.480469 C 431.59375 576.976562 433.070312 576.015625 434.703125 574.910156 L 436.050781 574.050781 C 437.367188 573.199219 438.667969 572.324219 439.957031 571.429688 L 441.015625 570.710938 C 446.8125 566.707031 452.609375 561.925781 456.894531 556.308594 C 451.203125 553.511719 445.566406 551.097656 439.308594 549.90625 Z M 460.523438 559.332031 L 460.523438 560.542969 L 459.496094 560.980469 C 457.796875 561.921875 456.597656 563.089844 455.195312 564.4375 C 449.320312 569.855469 442.855469 574.351562 435.914062 578.292969 L 434.511719 579.292969 L 434.511719 581.109375 L 436.328125 582.320312 C 446.652344 582.121094 458.1875 575.714844 466.8125 570.566406 C 469.023438 569.140625 471.160156 567.617188 473.226562 565.988281 C 472.925781 564.832031 472.925781 564.832031 472.015625 563.566406 C 470.582031 562.558594 469.042969 561.785156 467.480469 560.996094 L 466.214844 560.328125 C 463.433594 558.703125 463.433594 558.703125 460.523438 559.332031 M 346.800781 558.726562 C 345.324219 559.507812 343.851562 560.289062 342.378906 561.070312 L 341.113281 561.738281 L 339.890625 562.390625 L 338.765625 562.984375 C 337.785156 563.535156 336.847656 564.152344 335.914062 564.777344 L 335.914062 565.988281 C 337.050781 566.84375 338.222656 567.652344 339.429688 568.40625 L 340.566406 569.125 C 349.8125 574.867188 360.761719 581.277344 371.753906 582.546875 L 373.417969 582.320312 C 374.433594 581.128906 374.433594 581.128906 375.230469 579.898438 L 374.355469 579.328125 C 366.421875 574.140625 358.75 568.882812 351.832031 562.359375 C 350.246094 560.988281 348.566406 559.859375 346.800781 558.726562 M 379.464844 582.925781 L 378.859375 584.738281 C 380.261719 585.03125 381.660156 585.320312 383.058594 585.609375 L 385.417969 586.097656 C 391.691406 587.277344 397.945312 587.324219 404.304688 587.347656 L 405.84375 587.355469 C 414.398438 587.375 422.515625 586.660156 430.882812 584.738281 L 430.277344 582.925781 C 424.472656 579.167969 417.074219 576.613281 410.160156 576.183594 C 399.214844 575.761719 388.835938 576.765625 379.464844 582.925781 M 456.289062 363.945312 L 457.519531 364.5 C 467.648438 369.058594 476.917969 375.472656 485.324219 382.699219 L 486.703125 383.675781 L 487.746094 384.515625 L 487.746094 385.722656 L 488.816406 386.199219 C 493.613281 388.8125 497.132812 394.226562 500.449219 398.425781 L 501.277344 399.472656 C 502.125 400.546875 502.972656 401.621094 503.8125 402.699219 L 504.621094 403.726562 C 505.269531 404.5625 505.886719 405.425781 506.496094 406.289062 L 506.496094 407.5 C 504.71875 407.691406 503.390625 407.816406 501.65625 407.5 C 500.300781 406.222656 499.453125 405.230469 498.445312 403.71875 C 497.875 402.933594 497.300781 402.152344 496.726562 401.371094 L 495.859375 400.175781 C 491.484375 394.328125 485.960938 389.3125 480.484375 384.515625 L 479.234375 383.363281 L 478.066406 382.699219 C 475.082031 382.734375 472.523438 384.601562 470.015625 386.0625 L 468.65625 386.84375 C 467.554688 387.476562 466.457031 388.109375 465.363281 388.75 C 466.167969 390.519531 467.058594 391.796875 468.386719 393.210938 C 471.539062 396.714844 474.164062 400.617188 476.855469 404.476562 C 476.101562 405.6875 476.101562 405.6875 475.042969 406.894531 L 472.621094 406.894531 C 471.613281 405.679688 470.679688 404.40625 469.824219 403.078125 C 467.039062 398.960938 463.964844 395.359375 460.523438 391.773438 C 455.925781 393.117188 451.378906 394.59375 446.835938 396.121094 L 444.824219 396.796875 C 443.199219 397.339844 441.578125 397.882812 439.957031 398.425781 L 440.617188 400.105469 L 441.46875 402.28125 L 442.320312 404.453125 C 442.980469 406.289062 442.980469 406.289062 442.980469 407.5 L 441.167969 408.105469 C 439.667969 407.75 439.667969 407.75 438.140625 406.894531 C 437.054688 405.320312 437.054688 405.320312 436.140625 403.492188 L 435.199219 401.652344 L 434.511719 400.242188 L 432.265625 400.597656 C 423.761719 401.894531 415.265625 402.671875 406.6875 403.265625 L 406.082031 407.5 L 401.847656 407.5 L 401.242188 403.265625 L 400.039062 403.183594 C 379.058594 401.71875 379.058594 401.71875 372.8125 399.636719 L 372.359375 401.1875 C 371.484375 403.59375 370.664062 405.398438 369.183594 407.5 C 367.214844 408.066406 367.214844 408.066406 365.554688 408.105469 L 364.949219 406.289062 C 365.550781 404.523438 365.550781 404.523438 366.421875 402.546875 L 367.289062 400.554688 L 367.972656 399.03125 L 365.976562 398.285156 C 364.492188 397.730469 363.011719 397.171875 361.535156 396.601562 C 359.816406 395.945312 358.089844 395.292969 356.367188 394.644531 L 354.585938 393.957031 L 352.863281 393.3125 L 351.3125 392.722656 C 349.816406 392.289062 349.816406 392.289062 348.214844 392.542969 C 346.6875 392.914062 346.6875 392.914062 345.375 394.222656 C 342.058594 397.96875 339.152344 401.78125 336.40625 405.953125 C 335.308594 407.5 335.308594 407.5 334.097656 408.105469 C 332.886719 408.128906 331.679688 408.132812 330.46875 408.105469 C 330.84375 405.648438 332.121094 403.988281 333.53125 401.980469 L 334.261719 400.933594 C 336.171875 398.238281 338.199219 395.652344 340.3125 393.113281 C 341.398438 391.71875 342.292969 390.28125 343.171875 388.75 L 341.90625 388.28125 C 339.203125 387.140625 336.726562 385.605469 334.191406 384.128906 C 332.382812 383.179688 332.382812 383.179688 330.667969 383.382812 C 324.289062 385.757812 318.585938 392.84375 314.136719 397.820312 C 312.402344 399.984375 310.75 402.210938 309.179688 404.496094 C 308.457031 405.53125 307.671875 406.519531 306.878906 407.5 C 305.660156 407.933594 305.660156 407.933594 304.457031 408.105469 C 303.097656 407.839844 303.097656 407.839844 302.039062 407.5 C 304.375 400.660156 310.769531 394.792969 315.699219 389.644531 C 316.472656 388.832031 317.238281 388.011719 318 387.1875 C 331.523438 372.972656 350.351562 362.960938 369.003906 357.460938 C 398.015625 349.308594 428.867188 351.269531 456.289062 363.945312 M 378.257812 359.710938 L 378.859375 361.527344 C 380.109375 362.304688 381.394531 363.007812 382.71875 363.644531 L 383.871094 364.210938 C 391.945312 368.046875 400.296875 368.675781 409.105469 368.179688 C 416.542969 367.425781 423.335938 364.8125 429.671875 360.921875 L 429.671875 359.710938 C 428.175781 359.421875 426.675781 359.128906 425.175781 358.84375 L 423.914062 358.597656 C 417.527344 357.378906 411.246094 357.148438 404.757812 357.140625 L 403.386719 357.136719 C 394.925781 357.132812 386.488281 357.582031 378.257812 359.710938 M 435.722656 361.527344 C 434.386719 362.316406 434.386719 362.316406 433.304688 363.34375 L 433.304688 364.550781 C 434.734375 365.507812 436.171875 366.398438 437.652344 367.273438 C 445.851562 372.269531 453.71875 378.3125 460.523438 385.117188 C 463.371094 384.960938 465.582031 383.480469 467.972656 382.058594 L 469.15625 381.363281 C 470.109375 380.804688 471.0625 380.238281 472.015625 379.675781 L 472.015625 377.859375 C 470.75 376.875 469.425781 375.964844 468.046875 375.136719 L 466.753906 374.34375 C 457.625 368.890625 447.820312 364.308594 437.539062 361.527344 Z M 346.445312 371.476562 C 342.65625 373.691406 338.957031 376.03125 335.308594 378.464844 L 335.308594 379.675781 C 336.625 380.476562 337.949219 381.269531 339.277344 382.058594 L 340.394531 382.738281 C 342.242188 383.824219 343.890625 384.546875 345.960938 385.160156 L 348.011719 385.117188 C 349.390625 384.140625 350.324219 383.308594 351.453125 382.09375 C 358.273438 375.28125 366.324219 369.445312 374.625 364.550781 C 373.644531 363.519531 372.636719 362.511719 371.601562 361.527344 C 363.789062 361.527344 353.117188 367.75 346.445312 371.476562 M 424.117188 368.484375 L 422.464844 369.335938 L 421.203125 369.996094 C 423.277344 373.34375 425.390625 376.628906 427.746094 379.789062 C 430.125 382.996094 432.214844 386.347656 434.261719 389.773438 C 435.433594 391.699219 436.238281 392.925781 438.140625 394.191406 C 439.8125 393.855469 441.332031 393.460938 442.945312 392.945312 L 444.324219 392.523438 C 448.21875 391.300781 451.964844 389.828125 455.683594 388.144531 L 455.683594 386.328125 C 451.257812 380.535156 444.25 376.226562 438.257812 372.1875 L 437.160156 371.445312 C 434.59375 369.746094 431.9375 368.113281 429.070312 366.972656 C 426.957031 366.972656 425.972656 367.519531 424.117188 368.484375 M 367.316406 374.140625 C 361.726562 378.210938 356.503906 382.613281 351.640625 387.539062 C 353.890625 389.554688 356.457031 390.292969 359.277344 391.207031 L 360.664062 391.675781 C 364.0625 392.792969 367.476562 393.558594 370.996094 394.191406 L 371.800781 392.863281 C 372.808594 391.199219 373.820312 389.535156 374.832031 387.871094 C 375.265625 387.160156 375.699219 386.445312 376.128906 385.730469 C 378.886719 381.164062 381.792969 376.859375 385.109375 372.679688 L 386.121094 371.207031 L 386.121094 369.390625 L 384.230469 368.484375 L 383.167969 367.972656 C 377.300781 366.15625 371.882812 370.902344 367.316406 374.140625 M 389.925781 372.289062 C 388.757812 373.710938 387.707031 375.210938 386.765625 376.789062 C 386.085938 377.917969 385.351562 378.992188 384.597656 380.070312 C 381.453125 384.605469 378.363281 389.28125 375.835938 394.191406 L 375.835938 395.402344 C 384.464844 397.894531 392.898438 398.519531 401.847656 398.425781 C 401.863281 394.820312 401.875 391.210938 401.882812 387.605469 C 401.882812 386.375 401.886719 385.148438 401.894531 383.921875 C 401.902344 382.160156 401.902344 380.398438 401.90625 378.636719 L 401.917969 376.960938 C 401.917969 375.648438 401.886719 374.335938 401.847656 373.019531 C 401.136719 372.210938 401.136719 372.210938 399.257812 371.859375 C 394.410156 370.742188 394.410156 370.742188 389.925781 372.289062 M 406.6875 373.019531 C 406.132812 377.710938 406.015625 382.367188 406.007812 387.085938 L 405.996094 388.796875 C 406.003906 392.0625 406.210938 395.195312 406.6875 398.425781 C 411.457031 398.699219 416.027344 398.238281 420.75 397.59375 L 422.464844 397.363281 C 425.742188 396.898438 428.898438 396.265625 432.09375 395.402344 C 428.203125 386.929688 423.003906 378.449219 416.367188 371.8125 C 412.96875 371.597656 409.972656 372.1875 406.6875 373.019531 M 360.140625 614.195312 C 363.796875 615.398438 367.082031 617.054688 369.789062 619.824219 C 371.957031 622.707031 373.785156 625.820312 374.476562 629.394531 C 375.042969 634.34375 374.839844 638.777344 373.085938 643.476562 C 371.515625 646.613281 369.425781 649.015625 366.761719 651.277344 C 363.339844 653.484375 360.085938 654.730469 356.019531 655.03125 C 351.863281 655.097656 348.203125 654.8125 344.382812 653.09375 C 341.199219 651.195312 338.660156 648.867188 336.519531 645.835938 C 334.191406 641.40625 333.296875 637.46875 333.367188 632.46875 C 333.605469 629.148438 334.394531 626.214844 336.089844 623.335938 C 338.414062 620.058594 341.042969 617.308594 344.621094 615.433594 C 349.648438 613.324219 354.828125 612.984375 360.140625 614.195312 M 347.40625 622.242188 C 345.546875 623.90625 344.1875 625.738281 342.984375 627.914062 C 341.945312 631.882812 341.726562 635.503906 342.652344 639.523438 C 343.746094 642.621094 345.703125 644.886719 348.160156 647.007812 C 350.714844 647.992188 353.140625 648.3125 355.875 648.253906 C 357.703125 647.949219 359.144531 647.429688 360.714844 646.4375 C 363.058594 644.324219 364.53125 642.175781 365.554688 639.179688 C 366.253906 635.753906 366.367188 632.652344 365.402344 629.273438 C 364.308594 626.179688 364.308594 626.179688 362.527344 623.453125 C 360.632812 622.125 358.679688 621.160156 356.480469 620.429688 C 353.117188 620.164062 350.328125 620.554688 347.40625 622.242188 M 458.402344 614.148438 C 462.058594 615.578125 464.742188 617.992188 467.179688 621.03125 C 468.839844 623.6875 470.035156 626.371094 470.308594 629.515625 C 470.621094 640.4375 470.621094 640.4375 468.582031 645.050781 C 466.382812 648.867188 463.613281 651.496094 459.855469 653.753906 C 457.242188 655.007812 454.707031 655.078125 451.847656 655.035156 C 448.804688 654.792969 446.191406 653.996094 443.621094 652.335938 C 440.378906 649.765625 438.332031 646.578125 436.78125 642.773438 C 435.292969 636.941406 435.328125 631.621094 436.910156 625.832031 C 438.082031 622.515625 439.773438 619.90625 442.351562 617.515625 C 447.121094 613.730469 452.433594 612.671875 458.40625 614.148438 M 449.183594 621.636719 C 447.265625 623.34375 446.292969 625.300781 445.402344 627.6875 C 444.296875 632.167969 444.390625 637.074219 445.5 641.554688 C 446.390625 643.765625 447.886719 645.449219 449.636719 647.042969 C 451.214844 647.832031 452.667969 647.882812 454.414062 647.851562 C 455.886719 647.699219 455.886719 647.699219 457.6875 646.4375 C 459.273438 644.90625 460.027344 643.242188 460.761719 641.160156 C 461.394531 638.789062 461.414062 636.480469 461.394531 634.039062 L 461.429688 632.566406 C 461.425781 629.4375 460.855469 627.207031 459.363281 624.457031 C 458.3125 622.84375 457.378906 621.957031 455.683594 621.03125 C 453.328125 620.617188 451.425781 620.824219 449.183594 621.636719 M 321.097656 614.078125 C 323.871094 615.035156 326.558594 616.546875 328.652344 618.613281 C 329.691406 620.152344 330.507812 621.683594 331.074219 623.453125 L 331.074219 625.871094 C 328.421875 626.078125 325.855469 626.199219 323.210938 625.871094 C 321.621094 624.132812 321.621094 624.132812 320.789062 622.242188 C 319.082031 620.894531 319.082031 620.894531 317.140625 620.871094 L 315.042969 620.882812 L 312.945312 620.871094 C 311.003906 620.894531 311.003906 620.894531 309.296875 622.242188 C 309.144531 624.410156 309.144531 624.410156 309.296875 626.476562 C 312.679688 628.109375 316.027344 629.3125 319.617188 630.371094 C 326.554688 632.472656 326.554688 632.472656 329.257812 634.945312 C 330.472656 636.269531 331.160156 637.460938 331.679688 639.179688 C 332.074219 641.953125 332.035156 644.519531 331.300781 647.230469 C 330.53125 649.046875 329.683594 650.304688 328.191406 651.601562 C 324.984375 653.769531 321.722656 654.738281 317.894531 655.039062 C 313.632812 655.171875 309.59375 654.855469 305.667969 653.09375 C 303.203125 651.4375 301.078125 649.609375 299.484375 647.082031 C 298.585938 645.144531 298.410156 643.75 298.410156 641.601562 L 306.273438 641.601562 L 307.253906 643.605469 C 308.144531 645.117188 308.761719 645.890625 310.167969 647.007812 C 313.460938 647.988281 316.773438 647.988281 320.183594 647.648438 C 321.582031 647.191406 321.582031 647.191406 322.605469 646.4375 C 323.269531 645.039062 323.269531 645.039062 323.210938 643.414062 C 322.632812 641.8125 322.632812 641.8125 321.394531 640.390625 C 319.933594 639.773438 318.433594 639.269531 316.894531 638.878906 C 316.019531 638.625 315.148438 638.375 314.273438 638.117188 L 312.964844 637.738281 C 305.964844 635.648438 305.964844 635.648438 303.226562 633.273438 C 301.769531 631.632812 300.921875 630.386719 300.222656 628.292969 C 299.945312 625.96875 299.949219 623.777344 300.613281 621.523438 C 301.605469 619.289062 302.730469 617.75 304.683594 616.269531 C 309.429688 613.054688 315.625 612.984375 321.097656 614.078125 M 505.890625 614.378906 L 528.878906 614.378906 L 528.878906 621.03125 L 513.757812 621.03125 L 513.152344 628.898438 L 516.175781 627.6875 C 518.894531 627.3125 521.53125 627.515625 524.152344 628.332031 C 526.457031 629.300781 527.859375 630.710938 529.371094 632.675781 C 531.09375 635.222656 531.605469 637.730469 531.882812 640.753906 C 531.929688 644.039062 531.164062 646.761719 529.636719 649.652344 C 527.628906 652.046875 525.613281 653.320312 522.714844 654.453125 C 518.691406 655.246094 514.804688 655.367188 510.84375 654.191406 C 508.347656 653.226562 506.550781 652.023438 504.683594 650.070312 C 503.691406 648.519531 502.851562 646.976562 502.261719 645.230469 L 502.261719 642.808594 C 504.925781 642.5625 507.472656 642.425781 510.125 642.808594 C 511.21875 643.8125 511.714844 644.75 512.40625 646.050781 L 513.152344 647.042969 C 514.589844 647.632812 515.738281 647.796875 517.289062 647.835938 C 518.75 647.707031 518.75 647.707031 520.449219 646.628906 C 521.710938 644.46875 521.847656 643.414062 521.921875 640.957031 C 521.902344 638.941406 521.824219 637.722656 520.820312 635.96875 C 519.789062 634.769531 519.789062 634.769531 517.800781 634.339844 L 515.570312 634.339844 L 513.984375 635.511719 C 511.941406 636.761719 511.941406 636.761719 509.964844 636.925781 C 508 636.917969 506.039062 636.863281 504.078125 636.761719 C 504.445312 629.269531 505.109375 621.839844 505.890625 614.378906 M 492.507812 614.289062 C 494.597656 615.203125 496.242188 616.210938 497.839844 617.84375 C 499.421875 620.03125 500.089844 622.195312 500.484375 624.851562 C 500.617188 627.933594 500.109375 630.464844 498.933594 633.3125 C 497.28125 636.296875 494.992188 638.609375 492.585938 640.996094 L 491.375 642.25 C 489.625 644.046875 487.957031 645.523438 485.929688 647.042969 L 501.054688 647.648438 L 501.054688 654.304688 L 472.015625 654.304688 L 472.015625 647.042969 C 473.128906 645.46875 473.128906 645.46875 474.664062 644.511719 L 476.335938 643.367188 L 478.066406 642.203125 C 485.214844 636.378906 485.214844 636.378906 490.203125 628.785156 C 490.863281 626.546875 490.863281 626.546875 490.695312 624.472656 C 490.242188 622.882812 490.242188 622.882812 489.484375 621.714844 C 488.273438 620.871094 488.273438 620.871094 486.269531 620.882812 L 484.117188 621.03125 L 482.71875 621.109375 L 481.695312 621.636719 C 480.945312 623.429688 480.945312 623.429688 480.484375 625.265625 L 479.882812 625.871094 C 478.457031 625.917969 477.03125 625.921875 475.609375 625.910156 L 473.242188 625.894531 L 471.414062 625.871094 C 471.890625 622.898438 472.542969 620.832031 474.4375 618.460938 C 476.460938 616.347656 478.4375 615.09375 481.207031 614.15625 C 485.039062 613.296875 488.722656 613.171875 492.507812 614.289062 M 406.082031 614.378906 L 435.722656 614.378906 L 435.722656 621.03125 C 434.789062 622.464844 433.839844 623.890625 432.78125 625.238281 C 426.785156 633.785156 423.761719 644.078125 422.414062 654.304688 L 413.339844 654.304688 C 412.746094 647.023438 415.714844 639.699219 418.734375 633.191406 C 420.820312 628.9375 423.4375 624.980469 426.042969 621.03125 L 424.277344 621.042969 C 422.121094 621.054688 419.964844 621.0625 417.808594 621.066406 C 416.871094 621.070312 415.9375 621.074219 415.003906 621.078125 C 413.664062 621.085938 412.320312 621.089844 410.980469 621.09375 L 409.707031 621.101562 C 408.699219 621.101562 407.691406 621.070312 406.6875 621.035156 L 406.082031 620.429688 Z M 395.796875 614.378906 L 403.058594 614.378906 L 403.058594 654.304688 L 395.195312 654.304688 L 395.195312 624.664062 L 390.355469 628.292969 C 388.492188 629.203125 387.585938 629.5 385.515625 629.5 L 385.515625 621.03125 L 388.3125 620.011719 C 391.117188 618.894531 393.039062 617.691406 395.195312 615.589844 Z M 286.914062 614.378906 L 295.382812 614.378906 L 295.382812 654.304688 L 286.914062 654.304688 L 286.308594 653.699219 C 286.253906 652.496094 286.226562 651.289062 286.230469 650.085938 L 286.226562 647.742188 L 286.230469 645.191406 C 286.230469 644.324219 286.230469 643.460938 286.226562 642.59375 C 286.226562 640.777344 286.230469 638.960938 286.230469 637.144531 C 286.234375 634.8125 286.234375 632.476562 286.230469 630.144531 C 286.226562 628.355469 286.226562 626.570312 286.230469 624.78125 C 286.230469 623.921875 286.230469 623.058594 286.226562 622.199219 C 286.226562 621 286.226562 619.796875 286.230469 618.597656 L 286.234375 616.523438 L 286.308594 614.984375 Z M 286.914062 614.378906 " fill-opacity="1" fill-rule="nonzero"/></svg>