<?xml version="1.0" encoding="utf-8"?>
<!-- Generator: Adobe Illustrator 26.0.0, SVG Export Plug-In . SVG Version: 6.00 Build 0)  -->
<svg version="1.1" id="Layer_1" xmlns="http://www.w3.org/2000/svg" xmlns:xlink="http://www.w3.org/1999/xlink" x="0px" y="0px"
	 viewBox="0 0 46 55" style="enable-background:new 0 0 46 55;" xml:space="preserve">
<style type="text/css">
	.st0{clip-path:url(#SVGID_00000129915450224239886410000007054016251546277015_);}
	.st1{fill:#568259;}
</style>
<g>
	<defs>
		<rect id="SVGID_1_" x="8.6" y="6.5" width="28.8" height="42"/>
	</defs>
	<clipPath id="SVGID_00000049185625119837613210000011570488097311379101_">
		<use xlink:href="#SVGID_1_"  style="overflow:visible;"/>
	</clipPath>
	<g style="clip-path:url(#SVGID_00000049185625119837613210000011570488097311379101_);">
		<path class="st1" d="M34.7,36.3H20.1c-0.7,0-1.4-0.3-1.9-0.8c-0.5-0.5-0.8-1.2-0.8-1.9V12.7c0-0.7,0.3-1.4,0.8-1.9
			c0.5-0.5,1.2-0.8,1.9-0.8h3.5c0.1-0.9,0.6-1.8,1.3-2.5c0.7-0.6,1.6-1,2.6-1s1.9,0.4,2.6,1c0.7,0.6,1.2,1.5,1.3,2.5h3.5
			c0.7,0,1.4,0.3,1.9,0.8c0.5,0.5,0.8,1.2,0.8,1.9v20.9c0,0.7-0.3,1.4-0.8,1.9C36.1,36,35.4,36.3,34.7,36.3z M20.1,11.2
			c-0.4,0-0.8,0.2-1.1,0.4c-0.3,0.3-0.4,0.7-0.4,1.1v20.9c0,0.4,0.2,0.8,0.4,1.1c0.3,0.3,0.7,0.4,1.1,0.4h14.6
			c0.4,0,0.8-0.2,1.1-0.4c0.3-0.3,0.4-0.7,0.4-1.1V12.7c0-0.4-0.2-0.8-0.4-1.1c-0.3-0.3-0.7-0.4-1.1-0.4h-4.1c-0.1,0-0.2,0-0.2,0
			c-0.1,0-0.1-0.1-0.2-0.1s-0.1-0.1-0.1-0.2c0-0.1,0-0.2,0-0.2v-0.2c0-0.4-0.1-0.7-0.2-1c-0.1-0.3-0.3-0.6-0.6-0.9
			C29,8.2,28.7,8,28.4,7.9c-0.3-0.1-0.7-0.2-1-0.2c-0.4,0-0.7,0.1-1,0.2C26,8,25.7,8.2,25.5,8.5C25.2,8.7,25,9,24.9,9.3
			s-0.2,0.7-0.2,1v0.2c0,0.2-0.1,0.3-0.2,0.4c-0.1,0.1-0.3,0.2-0.4,0.2H20.1z"/>
		<path class="st1" d="M30.3,38.9h-5.8c-0.2,0-0.3-0.1-0.4-0.2c-0.1-0.1-0.2-0.3-0.2-0.4v-2.6c0-0.1,0-0.2,0-0.2
			c0-0.1,0.1-0.1,0.1-0.2c0.1-0.1,0.1-0.1,0.2-0.1c0.1,0,0.2,0,0.2,0h5.8c0.1,0,0.2,0,0.2,0c0.1,0,0.1,0.1,0.2,0.1
			c0.1,0.1,0.1,0.1,0.1,0.2c0,0.1,0,0.2,0,0.2v2.6c0,0.1,0,0.2,0,0.2c0,0.1-0.1,0.1-0.1,0.2c-0.1,0.1-0.1,0.1-0.2,0.1
			C30.5,38.9,30.4,38.9,30.3,38.9z M25.1,37.7h4.6v-1.4h-4.6V37.7z"/>
		<path class="st1" d="M27.4,12.3c-0.3,0-0.6-0.1-0.9-0.3c-0.3-0.2-0.5-0.4-0.6-0.7c-0.1-0.3-0.2-0.6-0.1-0.9
			c0.1-0.3,0.2-0.6,0.4-0.8c0.2-0.2,0.5-0.4,0.8-0.4C27.4,9,27.7,9,28,9.1s0.6,0.3,0.7,0.6c0.2,0.3,0.3,0.6,0.3,0.9
			c0,0.2,0,0.4-0.1,0.6c-0.1,0.2-0.2,0.4-0.4,0.5c-0.2,0.2-0.3,0.3-0.5,0.4C27.8,12.2,27.6,12.3,27.4,12.3z M27.4,9.6
			c-0.2,0-0.4,0.1-0.6,0.2c-0.2,0.1-0.3,0.3-0.4,0.5c-0.1,0.2-0.1,0.4-0.1,0.6c0,0.2,0.1,0.4,0.3,0.5c0.1,0.1,0.3,0.2,0.5,0.3
			c0.2,0,0.4,0,0.6-0.1c0.2-0.1,0.4-0.2,0.5-0.4c0.1-0.2,0.2-0.4,0.2-0.6c0-0.3-0.1-0.5-0.3-0.7C27.9,9.7,27.7,9.6,27.4,9.6z"/>
		<path class="st1" d="M19.8,23.3H18c-0.2,0-0.3-0.1-0.4-0.2c-0.1-0.1-0.2-0.3-0.2-0.4c0-0.2,0.1-0.3,0.2-0.4
			c0.1-0.1,0.3-0.2,0.4-0.2h1.9c0.2,0,0.3,0.1,0.4,0.2c0.1,0.1,0.2,0.3,0.2,0.4c0,0.2-0.1,0.3-0.2,0.4C20.1,23.2,20,23.3,19.8,23.3z
			"/>
		<path class="st1" d="M20.9,27.6H18c-0.2,0-0.3-0.1-0.4-0.2c-0.1-0.1-0.2-0.3-0.2-0.4c0-0.2,0.1-0.3,0.2-0.4
			c0.1-0.1,0.3-0.2,0.4-0.2h2.9c0.2,0,0.3,0.1,0.4,0.2c0.1,0.1,0.2,0.3,0.2,0.4c0,0.2-0.1,0.3-0.2,0.4C21.2,27.5,21,27.6,20.9,27.6z
			"/>
		<path class="st1" d="M19.8,31.9H18c-0.2,0-0.3-0.1-0.4-0.2c-0.1-0.1-0.2-0.3-0.2-0.4c0-0.2,0.1-0.3,0.2-0.4
			c0.1-0.1,0.3-0.2,0.4-0.2h1.9c0.2,0,0.3,0.1,0.4,0.2c0.1,0.1,0.2,0.3,0.2,0.4c0,0.2-0.1,0.3-0.2,0.4C20.1,31.8,20,31.9,19.8,31.9z
			"/>
		<path class="st1" d="M36.8,19.7H18c-0.2,0-0.3-0.1-0.4-0.2c-0.1-0.1-0.2-0.3-0.2-0.4c0-0.2,0.1-0.3,0.2-0.4
			c0.1-0.1,0.3-0.2,0.4-0.2h18.8c0.2,0,0.3,0.1,0.4,0.2c0.1,0.1,0.2,0.3,0.2,0.4c0,0.2-0.1,0.3-0.2,0.4
			C37.1,19.6,36.9,19.7,36.8,19.7z"/>
		<path class="st1" d="M30.5,31.1c-0.7,0-1.5-0.3-2-0.8c-0.5-0.5-0.8-1.2-0.8-2c0-1.3,1.9-4.3,2.3-4.9c0.1-0.1,0.2-0.2,0.4-0.2
			c0.2,0,0.3,0,0.5,0.1c0,0,0.1,0.1,0.1,0.1c0.4,0.6,2.3,3.5,2.3,4.9c0,0.7-0.3,1.5-0.8,2C32,30.8,31.2,31.1,30.5,31.1z M30.5,24.8
			c-0.8,1.3-1.6,2.8-1.6,3.4c0,0.4,0.2,0.8,0.5,1.2c0.3,0.3,0.7,0.5,1.2,0.5c0.4,0,0.8-0.2,1.2-0.5c0.3-0.3,0.5-0.7,0.5-1.2
			C32.1,27.7,31.3,26.1,30.5,24.8z"/>
		<path class="st1" d="M18.3,48.5c-2.6,0-5-1-6.8-2.8c-1.8-1.8-2.8-4.3-2.8-6.8V15.4c0-0.2,0.1-0.3,0.2-0.4c0.1-0.1,0.3-0.2,0.4-0.2
			c0.2,0,0.3,0.1,0.4,0.2c0.1,0.1,0.2,0.3,0.2,0.4v23.4c0.1,2.2,1,4.3,2.6,5.9c1.6,1.5,3.7,2.4,5.9,2.4c2.2,0,4.3-0.9,5.9-2.4
			c1.6-1.5,2.5-3.6,2.6-5.9v-0.5c0-0.2,0.1-0.3,0.2-0.4c0.1-0.1,0.3-0.2,0.4-0.2c0.2,0,0.3,0.1,0.4,0.2c0.1,0.1,0.2,0.3,0.2,0.4v0.5
			c0,2.6-1,5-2.8,6.8C23.3,47.5,20.9,48.5,18.3,48.5z"/>
	</g>
</g>
</svg>
