<?xml version="1.0" encoding="UTF-8"?>
<svg id="Layer_2" data-name="Layer 2" xmlns="http://www.w3.org/2000/svg" xmlns:xlink="http://www.w3.org/1999/xlink" viewBox="0 0 300.85 526.45">
  <defs>
    <style>
      .cls-1 {
        clip-path: url(#clippath-2);
      }

      .cls-2 {
        fill: none;
      }

      .cls-2, .cls-3 {
        stroke-width: 0px;
      }

      .cls-4 {
        clip-path: url(#clippath-1);
      }

      .cls-5 {
        clip-path: url(#clippath);
      }

      .cls-3 {
        fill: #374329;
      }
    </style>
    <clipPath id="clippath">
      <rect class="cls-2" y="371.78" width="143.54" height="154.67"/>
    </clipPath>
    <clipPath id="clippath-1">
      <rect class="cls-2" x="156.87" y="371.78" width="143.98" height="154.67"/>
    </clipPath>
    <clipPath id="clippath-2">
      <rect class="cls-2" x="205.07" y="181.95" width="16.63" height="16.63"/>
    </clipPath>
  </defs>
  <g id="Layer_1-2" data-name="Layer 1">
    <g id="_5dfdadc07f" data-name="5dfdadc07f">
      <path class="cls-3" d="M143.91,165.98c1.32,1.26,3.03,1.89,4.73,1.89,1.61,0,3.21-.56,4.51-1.68,1.69-1.45,41.29-36.15,42.3-81.24.99-45.08-36.99-81.52-38.61-83.05-2.58-2.44-6.56-2.53-9.26-.21-1.68,1.46-41.27,36.16-42.28,81.24-1.01,45.09,36.98,81.53,38.6,83.06Z"/>
      <g class="cls-5">
        <path class="cls-3" d="M7.53,372.38c-1.73-.11-3.49.5-4.79,1.68-1.3,1.19-2.06,2.85-2.13,4.6-.07,2.7-.58,65.62,36.19,105.52,45.3,49.17,89.68,41.55,99.35,39.91,3-.51,6.74-2.91,6.9-5.95.06-1.22,4.88-136.81-135.52-145.76Z"/>
      </g>
      <g class="cls-4">
        <path class="cls-3" d="M293.22,372.38c1.74-.11,3.5.5,4.79,1.68,1.31,1.19,2.07,2.85,2.13,4.6.08,2.7.59,65.62-36.19,105.52-45.3,49.17-89.67,41.55-99.35,39.91-3.01-.51-6.74-2.91-6.9-5.95-.07-1.22-4.88-136.81,135.52-145.76Z"/>
      </g>
      <path class="cls-3" d="M27.3,252.81c-1.74-.16-3.49.39-4.83,1.54-1.33,1.15-2.15,2.78-2.26,4.54-.15,2.4-2.13,58.34,29.79,94.53,27.89,31.61,66.86,39.45,66.86,39.45,6.48,0,12.3.46,19.38-.52,3.02-.41,6.9-3.19,7.15-6.22.08-1.07,6.86-121.64-116.1-133.32Z"/>
      <path class="cls-3" d="M273.45,252.81c1.74-.16,3.49.39,4.83,1.54s2.15,2.78,2.27,4.54c.14,2.4,2.13,58.34-29.8,94.53-27.9,31.61-66.87,39.45-66.87,39.45-6.49,0-12.29.46-19.37-.52-3.03-.41-6.91-3.19-7.15-6.22-.08-1.07-6.88-121.64,116.09-133.32Z"/>
      <path class="cls-3" d="M131.75,269.5h.02c1.3,0,2.6-.01,3.93-.05,3.04-.08,5.64-2.26,6.22-5.25.2-.99,18.2-113.14-95.4-136.93-1.72-.36-3.52-.01-4.97.99-1.45.98-2.45,2.52-2.74,4.25-.43,2.37-9.84,58.55,20.64,94.82,16.25,19.35,40.59,42.17,72.32,42.17Z"/>
      <path class="cls-3" d="M169.01,269.5h0c-1.31,0-2.6-.01-3.94-.05-3.04-.08-5.63-2.26-6.21-5.25-.2-.99-18.2-113.14,95.41-136.93,1.72-.36,3.52-.01,4.97.99,1.45.98,2.45,2.52,2.75,4.25.42,2.37,9.83,58.55-20.64,94.82-16.26,19.35-40.59,42.17-72.33,42.17Z"/>
      <g class="cls-1">
        <path class="cls-3" d="M205.07,181.95h16.63v16.63h-16.63v-16.63Z"/>
      </g>
    </g>
  </g>
</svg>