<?xml version="1.0" encoding="utf-8"?>
<!-- Generator: Adobe Illustrator 26.0.0, SVG Export Plug-In . SVG Version: 6.00 Build 0)  -->
<svg version="1.1" id="Layer_1" xmlns="http://www.w3.org/2000/svg" xmlns:xlink="http://www.w3.org/1999/xlink" x="0px" y="0px"
	 viewBox="0 0 46 55" style="enable-background:new 0 0 46 55;" xml:space="preserve">
<style type="text/css">
	.st0{clip-path:url(#SVGID_00000129182240629344407340000004455312643188056194_);}
	.st1{fill:#568259;}
</style>
<g>
	<defs>
		<rect id="SVGID_1_" x="6.3" y="9" width="33.3" height="31.8"/>
	</defs>
	<clipPath id="SVGID_00000069389440828299513200000009489635724631097500_">
		<use xlink:href="#SVGID_1_"  style="overflow:visible;"/>
	</clipPath>
	<g style="clip-path:url(#SVGID_00000069389440828299513200000009489635724631097500_);">
		<path class="st1" d="M39.7,28.8c0-1.2-0.6-2.5-1.8-2.8c0.6-0.7,0.8-1.6,0.7-2.4c-0.1-1-0.6-2.6-3.4-2.6h-5.1
			c0.1-0.7,0.2-1.4,0.4-2.1c0.3-1.3,0.6-2.6,0.5-4.2c-0.1-1.1-0.6-2.5-1.3-3.5c-0.5-0.8-1.1-1.4-1.8-1.7C26.8,8.8,26,9,25.5,9.2
			c-0.7,0.4-1.2,1.1-1.4,2.2C24.1,12,24,12.6,24,13.2c0,0.3,0,0.7,0,1c-0.4,5-1.1,8.5-6.5,8.5h-3.7c-0.1-0.3-0.3-0.6-0.6-0.9
			c-0.3-0.2-0.6-0.3-1-0.3h-4c-0.2,0-0.5,0-0.7,0.1C7.2,21.7,7,21.9,6.8,22c-0.2,0.2-0.3,0.4-0.4,0.6c-0.1,0.2-0.1,0.4-0.1,0.7v15.3
			c0,0.5,0.2,0.9,0.5,1.2c0.3,0.3,0.8,0.5,1.2,0.5h4c0.4,0,0.7-0.1,1-0.3c0.3-0.2,0.5-0.5,0.6-0.9h1.3c1.3,0,2.6,0.3,3.8,0.8
			c1.6,0.8,3.4,0.8,5.2,0.8c0.3,0,0.6,0,0.9,0h0.6h7.2h0.4c1.4,0,3.1,0,4.3-1.1c0.4-0.4,0.7-1,0.8-1.5c0.1-0.6-0.1-1.2-0.4-1.7
			c1-0.5,1.5-1.6,1.5-2.7c0-0.8-0.3-1.7-0.8-2.3C39.2,31,39.7,29.9,39.7,28.8L39.7,28.8z M12.1,39.4h-4c-0.2,0-0.4-0.1-0.6-0.2
			c-0.1-0.1-0.2-0.3-0.2-0.6V23.3c0-0.2,0.1-0.4,0.2-0.6c0.1-0.1,0.3-0.2,0.6-0.2h4c0.2,0,0.4,0.1,0.6,0.2c0.1,0.1,0.2,0.3,0.2,0.6
			v15.3c0,0.2-0.1,0.4-0.2,0.6C12.5,39.3,12.3,39.4,12.1,39.4L12.1,39.4z M36.7,35.7C36.6,35.7,36.6,35.7,36.7,35.7
			C36.6,35.7,36.6,35.7,36.7,35.7l-0.1,0l0,0l0,0c0,0,0,0,0,0l0,0c0,0,0,0,0,0l0,0c0,0,0,0,0,0c0,0,0,0,0,0c0,0,0,0,0,0c0,0,0,0,0,0
			c0,0,0,0,0,0c0,0,0,0,0,0c0,0,0,0,0,0c0,0,0,0,0,0.1c0,0,0,0,0,0c0,0,0,0,0,0c0,0,0,0,0,0.1c0,0,0,0,0,0c0,0,0,0,0,0c0,0,0,0,0,0
			c0,0,0,0,0,0c0,0,0,0,0,0c0,0,0,0,0,0c0,0,0,0,0,0l0,0c0,0,0,0,0,0c0,0,0,0,0,0c0.3,0.2,0.6,0.6,0.7,1c0,0.2,0,0.5-0.1,0.7
			c-0.1,0.2-0.2,0.4-0.4,0.6c-0.9,0.9-2.3,0.9-3.6,0.9h-0.4h-7.2h-0.6c-2,0-3.9,0-5.6-0.7c-1.3-0.6-2.7-0.9-4.2-0.9h-1.2V23.6h3.6
			c6.7,0,7.1-5.2,7.4-9.4c0-0.3,0-0.7,0.1-1c0-0.6,0-1.1,0.1-1.7c0.1-0.7,0.4-1.2,0.8-1.5c0.5-0.3,1.1,0,1.5,0.2
			c0.5,0.3,1,0.8,1.4,1.4c0.6,0.9,1,2.1,1.1,3.1c0.1,1.4-0.2,2.7-0.5,3.9c-0.2,0.9-0.4,1.8-0.5,2.8c0,0.1,0,0.1,0,0.2
			c0,0.1,0.1,0.1,0.1,0.2s0.1,0.1,0.2,0.1c0.1,0,0.1,0,0.2,0h5.6c2.3,0,2.4,1.3,2.5,1.7c0.1,0.9-0.3,2-1.3,2.2c0,0,0,0,0,0l0,0l0,0
			c0,0,0,0,0,0c0,0,0,0-0.1,0.1c0,0,0,0,0,0c0,0,0,0,0,0c0,0,0,0,0,0c0,0,0,0,0,0c0,0,0,0,0,0c0,0,0,0,0,0c0,0,0,0,0,0.1
			c0,0,0,0,0,0s0,0,0,0c0,0,0,0,0,0c0,0,0,0,0,0c0,0,0,0,0,0c0,0,0,0,0,0c0,0,0,0,0,0c0,0,0,0,0,0.1c0,0,0,0,0,0c0,0,0,0,0.1,0.1
			l0,0c0,0,0,0,0,0c0,0,0,0,0,0c0,0,0,0,0,0l0,0c0,0,0,0,0.1,0l0,0c0,0,0.1,0,0.1,0h0.7c1,0,1.5,1,1.5,2c0,1-0.5,2-1.5,2h-0.5
			c-0.1,0-0.2,0.1-0.3,0.1c-0.1,0.1-0.1,0.2-0.1,0.3c0,0,0,0,0,0.1c0,0,0,0,0,0c0,0,0,0.1,0,0.1c0,0,0,0,0,0c0,0,0,0,0,0
			c0,0.1,0.1,0.1,0.2,0.2c0.1,0,0.2,0.1,0.3,0.1c1,0,1.5,1,1.5,2C38.2,34.7,37.7,35.7,36.7,35.7L36.7,35.7z"/>
	</g>
</g>
</svg>
