<svg xmlns="http://www.w3.org/2000/svg" xmlns:xlink="http://www.w3.org/1999/xlink" width="1080" zoomAndPan="magnify" viewBox="0 0 810 1012.49997" height="1350" preserveAspectRatio="xMidYMid meet" version="1.0"><defs><clipPath id="fe24a5aa0b"><path d="M 109.601562 819 L 700 819 L 700 899.058594 L 109.601562 899.058594 Z M 109.601562 819 " clip-rule="nonzero"/></clipPath></defs><g clip-path="url(#fe24a5aa0b)"><path fill="#ffffff" d="M 165.796875 822.011719 C 171.632812 824.527344 177.148438 828.792969 181.195312 833.699219 C 185.984375 840.195312 188.964844 847.277344 189.972656 855.304688 C 190.550781 861.980469 189.429688 868.421875 186.972656 874.648438 C 184.453125 880.035156 181.402344 884.246094 177.144531 888.382812 L 175.867188 889.703125 C 171.199219 894.214844 165.171875 896.648438 159 898.425781 C 152.132812 899.949219 145.214844 899.71875 138.464844 897.773438 C 133.277344 896.03125 128.917969 893.609375 124.484375 890.410156 L 122.417969 888.933594 C 117.398438 884.566406 113.878906 878.375 111.660156 872.179688 C 109.410156 864.921875 108.808594 857.988281 110.398438 850.542969 C 112.019531 843.730469 114.675781 838.214844 119.253906 832.898438 C 124.589844 827.285156 129.878906 823.253906 137.3125 820.871094 C 147.453125 818.113281 155.828125 818.441406 165.796875 822.011719 M 131.238281 824.921875 C 125.203125 828.25 120.289062 832.875 116.636719 838.722656 C 115.640625 840.324219 115.640625 840.324219 115.035156 841.800781 L 115.710938 843.152344 L 117.609375 841.292969 C 120.730469 838.664062 123.925781 837.402344 127.863281 836.398438 C 129.839844 836.0625 131.824219 835.792969 133.8125 835.515625 C 139.722656 834.644531 144.429688 832.9375 149.464844 829.648438 C 152.121094 827.519531 154.296875 825.542969 155.679688 822.394531 L 156.214844 820.871094 C 147.015625 819.773438 139.566406 820.757812 131.238281 824.921875 M 158.242188 821.546875 C 158.066406 824.011719 157.925781 826.042969 158.75 828.390625 C 160.453125 831.890625 162.429688 834.785156 165.542969 837.195312 L 167.695312 838.636719 L 168.855469 839.425781 C 170.746094 840.703125 172.65625 841.953125 174.582031 843.179688 C 179.152344 846.117188 182.90625 849.289062 186.597656 853.277344 L 187.945312 854.628906 C 187.648438 848.6875 185.847656 843.738281 182.8125 838.621094 C 178.46875 832.152344 173.5 827.664062 166.636719 824 C 163.804688 822.652344 161.335938 821.972656 158.242188 821.546875 M 156.214844 826.949219 C 155.957031 829.78125 155.757812 832.488281 156.777344 835.183594 C 160.503906 841.523438 166.644531 844.976562 172.800781 848.613281 C 177.492188 851.390625 180.878906 853.894531 183.652344 858.667969 C 185.304688 862.328125 185.949219 866.210938 186.597656 870.15625 L 187.273438 870.15625 C 188.726562 863.71875 188.726562 863.71875 187.945312 857.328125 C 184.28125 850.808594 179.019531 846.554688 172.664062 842.761719 L 170.984375 841.800781 C 166.597656 839.230469 162.480469 836.175781 159.769531 831.808594 C 158.964844 830.207031 158.226562 828.613281 157.566406 826.949219 Z M 152.839844 827.625 L 150.941406 829.4375 C 147.21875 832.601562 143.054688 834.425781 138.289062 835.402344 C 135.71875 835.863281 133.152344 836.304688 130.566406 836.664062 C 126.175781 837.339844 122.777344 838.640625 119.085938 841.125 C 115.816406 843.875 113.28125 847.332031 111.796875 851.355469 C 111.269531 853.257812 110.890625 854.855469 111.292969 856.8125 L 111.660156 858.003906 L 112.578125 856.988281 C 119.179688 850.015625 126.308594 847.046875 135.269531 844.253906 C 140.035156 842.761719 143.882812 841.210938 147.558594 837.75 C 149.941406 835.136719 152.289062 832.226562 153.285156 828.792969 L 153.515625 827.625 Z M 154.867188 834.375 C 154.640625 842.429688 154.738281 850.199219 156.171875 858.148438 C 156.902344 862.261719 157.488281 866.40625 156.46875 870.515625 C 153.089844 877.636719 148.253906 882.386719 141.890625 886.886719 C 138.648438 889.101562 135.296875 891.125 131.914062 893.109375 C 133.222656 894.113281 134.453125 895.050781 135.921875 895.808594 L 137.3125 895.808594 C 138.0625 895.046875 138.792969 894.261719 139.503906 893.460938 C 141.109375 892.070312 142.851562 891.335938 144.78125 890.453125 C 147.261719 889.257812 148.65625 888.539062 150.476562 886.441406 L 151.492188 884.332031 C 151.953125 883.390625 152.417969 882.449219 152.882812 881.507812 L 153.496094 880.167969 C 154.191406 878.933594 154.191406 878.933594 155.285156 877.84375 L 156.214844 876.90625 L 156.214844 875.554688 L 157.355469 875.050781 C 159.890625 873.679688 161.726562 872.328125 163.386719 869.921875 C 165.664062 866.214844 167.09375 863.355469 167.230469 858.972656 C 167.15625 854.902344 166.21875 851.480469 164.316406 847.875 C 162.847656 845.925781 161.285156 844.085938 159.679688 842.246094 C 157.738281 839.820312 156.570312 837.289062 155.542969 834.375 Z M 148.113281 838.425781 L 147.210938 839.21875 C 143.355469 842.375 139.519531 843.734375 134.78125 845.132812 C 125.964844 847.925781 119.597656 851.074219 112.917969 857.648438 C 111.53125 859.300781 111.53125 859.300781 111.121094 861.445312 C 110.972656 863.566406 111.214844 865.378906 111.660156 867.457031 L 113.007812 867.457031 C 113.726562 866.664062 114.417969 865.847656 115.078125 865.007812 C 118.710938 860.78125 123.023438 858.390625 127.921875 855.867188 C 136.089844 851.652344 142.953125 847.035156 148.789062 839.773438 Z M 149.464844 839.773438 L 148.738281 840.867188 C 146.292969 844.292969 143.628906 846.9375 140.308594 849.480469 L 139.203125 850.332031 C 137.441406 851.640625 135.757812 852.699219 133.765625 853.628906 C 131.871094 854.46875 131.871094 854.46875 130.96875 855.988281 L 130.308594 857.496094 C 128.34375 861.394531 125.445312 863.722656 121.984375 866.28125 C 119.515625 868.164062 118.105469 870.03125 116.851562 872.820312 C 116.125 874.972656 116.089844 876.695312 116.382812 878.933594 C 117.308594 880.871094 117.308594 880.871094 118.410156 882.308594 C 120.652344 881.734375 122.289062 881.085938 124.148438 879.691406 C 127.324219 876.222656 129.039062 871.375 130.933594 867.136719 C 134.125 860.261719 138.222656 855.632812 143.621094 850.390625 C 146.390625 847.695312 148.539062 845.351562 150.140625 841.800781 Z M 151.492188 840.449219 L 152.164062 841.800781 Z M 150.816406 841.800781 L 150.285156 842.921875 C 148.027344 847.171875 145.175781 850.269531 141.742188 853.574219 C 136.621094 858.546875 132.726562 863.222656 130.476562 870.113281 C 130.039062 871.699219 129.617188 873.289062 129.210938 874.882812 L 128.273438 878.371094 C 127.953125 879.597656 127.632812 880.824219 127.3125 882.054688 L 126.839844 883.851562 L 126.414062 885.539062 L 126.027344 887.054688 C 125.714844 888.523438 125.714844 888.523438 126.511719 890.410156 C 127.863281 891.226562 127.863281 891.226562 129.210938 891.757812 L 129.535156 889.261719 C 131.632812 874.0625 131.632812 874.0625 136.039062 868.285156 C 137.539062 866.609375 139.089844 864.984375 140.6875 863.40625 C 145.402344 858.660156 148.527344 852.546875 151.015625 846.382812 C 151.605469 844.558594 151.605469 844.558594 151.238281 842.898438 Z M 163.644531 844.5 L 164.363281 845.445312 C 165.484375 846.925781 166.585938 848.414062 167.695312 849.902344 L 168.894531 851.480469 C 173.148438 857.242188 175.894531 863.335938 176.957031 870.445312 C 177.59375 876.332031 176.722656 881.882812 175.792969 887.707031 L 177.398438 886.105469 L 180.519531 882.984375 C 180.808594 880.085938 180.773438 877.179688 180.769531 874.273438 C 180.773438 872.835938 180.796875 871.398438 180.824219 869.960938 C 180.863281 865.367188 180.789062 861.292969 178.585938 857.167969 C 175.179688 851.859375 170.460938 847.625 164.992188 844.5 Z M 152.839844 847.875 L 152.390625 849.953125 C 150.828125 856.882812 149.0625 863.304688 144.34375 868.820312 C 143.386719 869.851562 142.417969 870.875 141.441406 871.886719 C 137.011719 876.515625 134.007812 881.675781 131.59375 887.578125 C 131.132812 889.0625 131.132812 889.0625 131.511719 890.601562 L 131.914062 891.757812 C 140.882812 886.640625 149.523438 881.414062 154.925781 872.289062 C 156.371094 869.355469 156.386719 866.589844 156.214844 863.40625 C 155.976562 861.070312 155.644531 858.757812 155.289062 856.441406 L 155.03125 854.617188 L 154.765625 852.863281 L 154.53125 851.285156 C 154.226562 849.707031 154.226562 849.707031 152.839844 847.875 M 150.816406 848.550781 L 149.894531 850.628906 C 147.183594 856.511719 144.222656 861.03125 139.710938 865.660156 C 135.652344 869.890625 133.488281 874.195312 131.683594 879.746094 C 131.25 881.578125 131.148438 883.132812 131.238281 885.007812 C 131.992188 883.878906 132.726562 882.730469 133.390625 881.546875 C 135.601562 877.621094 138.148438 874.460938 141.203125 871.164062 C 145.613281 866.25 148.800781 860.933594 150.816406 854.628906 C 151.210938 852.566406 151.386719 850.65625 151.492188 848.550781 Z M 167.695312 851.925781 L 168.136719 853.34375 C 169.738281 858.96875 170.3125 864.320312 169.71875 870.15625 C 168.832031 873.429688 167.542969 876.121094 165.667969 878.933594 C 165.261719 882.597656 165.296875 886.003906 166.554688 889.480469 C 167.65625 891.234375 167.65625 891.234375 169.71875 892.433594 C 171.390625 891.652344 171.390625 891.652344 173.09375 890.410156 C 175.6875 885.621094 176.734375 879.941406 176.605469 874.527344 C 175.925781 866.222656 173.527344 859.550781 169.042969 852.601562 Z M 177.820312 853.277344 C 178.542969 855.109375 179.265625 856.824219 180.226562 858.550781 C 181.882812 862.410156 181.40625 866.671875 181.320312 870.789062 L 181.296875 873.359375 C 181.269531 875.441406 181.238281 877.523438 181.195312 879.605469 L 182.546875 880.28125 C 184.203125 877.691406 185.144531 875.726562 185.519531 872.65625 C 185.640625 868.15625 185.3125 864.316406 183.414062 860.207031 C 182.003906 857.726562 180.417969 855.394531 178.496094 853.277344 Z M 128.535156 856.652344 C 122.703125 858.746094 118.339844 862.09375 114.359375 866.78125 L 113.007812 868.804688 C 112.941406 870.15625 112.941406 870.15625 113.175781 871.546875 L 113.355469 872.964844 L 113.683594 874.207031 L 115.035156 875.554688 L 115.660156 873.996094 C 117.902344 868.933594 120.355469 866.023438 124.777344 862.714844 C 126.863281 861.109375 128.324219 859.429688 129.886719 857.328125 Z M 168.367188 860.027344 L 167.945312 861.609375 C 166.46875 866.605469 164.714844 869.945312 160.941406 873.53125 L 159 875.21875 C 157.386719 876.878906 157.386719 876.878906 156.890625 879.398438 C 156.683594 882.261719 157.523438 884.570312 158.441406 887.253906 C 159.246094 890.308594 159.078125 893.351562 158.917969 896.484375 L 162.292969 895.808594 L 162.199219 894.027344 C 162.023438 888.21875 162.640625 883.578125 164.992188 878.257812 C 165.71875 876.945312 166.453125 875.636719 167.1875 874.332031 C 168.964844 870.972656 169.367188 868.308594 169.296875 864.585938 C 169.234375 863.066406 169.15625 861.546875 169.042969 860.027344 Z M 126.511719 878.257812 L 125.527344 879.121094 L 124.234375 880.238281 L 122.953125 881.355469 C 121.785156 882.308594 121.785156 882.308594 120.433594 882.984375 C 120.578125 884.238281 120.578125 884.238281 121.109375 885.683594 C 122.363281 887.214844 122.363281 887.214844 123.8125 888.382812 L 125.160156 888.382812 C 125.519531 887.078125 125.871094 885.769531 126.214844 884.460938 L 126.808594 882.253906 C 127.359375 880.25 127.359375 880.25 126.511719 878.257812 M 154.867188 879.605469 C 153.066406 882.28125 151.96875 884.453125 151.53125 887.667969 C 151.386719 890 151.550781 891.929688 152.25 894.164062 L 153.515625 896.484375 C 155.25 897.25 155.25 897.25 156.890625 897.160156 C 158.398438 895.230469 158.398438 895.230469 158.496094 892.941406 C 158.410156 888.402344 156.804688 883.9375 155.542969 879.605469 Z M 163.644531 883.65625 C 162.941406 889.414062 162.941406 889.414062 163.644531 895.136719 L 167.695312 893.785156 L 167.144531 892.519531 C 166.039062 889.613281 165.1875 886.640625 164.316406 883.65625 Z M 142.109375 892.46875 C 140.894531 893.210938 140.894531 893.210938 139.339844 894.460938 L 138.664062 896.484375 C 143.515625 897.78125 147.816406 897.949219 152.839844 897.835938 L 150.140625 889.058594 C 147.558594 889.058594 144.324219 891.242188 142.109375 892.46875 M 219.675781 836.398438 L 236.554688 836.398438 L 233.855469 839.101562 C 233.421875 841.316406 233.421875 841.316406 233.445312 843.792969 L 233.410156 845.144531 C 233.378906 846.5625 233.363281 847.980469 233.347656 849.394531 C 233.328125 850.359375 233.308594 851.324219 233.289062 852.285156 C 233.234375 854.640625 233.207031 856.996094 233.179688 859.355469 L 248.03125 859.355469 C 248 856.519531 247.957031 853.683594 247.890625 850.847656 C 247.875 849.886719 247.859375 848.921875 247.851562 847.957031 C 247.835938 846.570312 247.804688 845.183594 247.769531 843.792969 L 247.726562 841.265625 L 247.359375 839.101562 L 244.65625 836.398438 L 260.859375 836.398438 L 260.859375 837.75 L 258.160156 838.425781 C 258.128906 843.925781 258.105469 849.421875 258.089844 854.921875 C 258.082031 857.476562 258.074219 860.027344 258.058594 862.582031 C 258.042969 865.046875 258.035156 867.511719 258.03125 869.976562 C 258.03125 870.914062 258.023438 871.855469 258.015625 872.796875 C 258.007812 874.113281 258.007812 875.429688 258.007812 876.746094 L 257.996094 879.019531 C 258.160156 880.949219 258.445312 882.054688 259.507812 883.65625 L 260.859375 884.332031 L 260.859375 885.683594 L 244.65625 885.683594 L 244.65625 884.332031 L 247.359375 883.65625 L 248.03125 861.378906 L 233.179688 861.378906 C 233.230469 864.324219 233.285156 867.265625 233.355469 870.210938 C 233.378906 871.210938 233.398438 872.210938 233.414062 873.214844 C 233.4375 874.652344 233.472656 876.09375 233.507812 877.53125 L 233.5625 880.15625 L 233.855469 882.308594 C 234.816406 883.527344 234.816406 883.527344 235.878906 884.332031 L 235.878906 885.683594 L 220.351562 885.683594 L 221.027344 883.65625 L 222.378906 882.984375 C 222.441406 877.308594 222.488281 871.632812 222.519531 865.957031 C 222.53125 863.324219 222.554688 860.6875 222.582031 858.050781 C 222.609375 855.507812 222.628906 852.964844 222.632812 850.421875 C 222.640625 849.453125 222.648438 848.480469 222.664062 847.511719 C 222.683594 846.152344 222.683594 844.792969 222.683594 843.433594 L 222.703125 841.089844 L 222.378906 839.101562 Z M 408.710938 836.398438 L 424.914062 836.398438 L 422.214844 839.773438 C 421.785156 841.988281 421.785156 841.988281 421.800781 844.386719 L 421.734375 847.03125 C 421.726562 847.945312 421.714844 848.859375 421.707031 849.777344 C 421.6875 850.703125 421.667969 851.632812 421.648438 852.558594 C 421.597656 854.824219 421.566406 857.089844 421.539062 859.355469 L 436.390625 859.355469 L 436.390625 838.425781 L 433.691406 837.75 L 433.691406 836.398438 L 449.894531 836.398438 L 447.191406 839.101562 C 446.804688 841.167969 446.804688 841.167969 446.886719 843.496094 L 446.886719 844.816406 C 446.886719 846.246094 446.90625 847.679688 446.929688 849.109375 C 446.933594 850.105469 446.9375 851.101562 446.941406 852.097656 C 446.953125 854.710938 446.976562 857.328125 447.007812 859.941406 C 447.035156 862.609375 447.046875 865.28125 447.0625 867.949219 C 447.089844 873.1875 447.132812 878.421875 447.191406 883.65625 L 449.894531 884.332031 L 449.894531 885.683594 L 433.691406 885.683594 L 433.691406 884.332031 L 435.714844 882.984375 C 435.945312 881.3125 436.046875 879.800781 436.0625 878.125 L 436.097656 876.679688 C 436.132812 875.152344 436.15625 873.625 436.179688 872.097656 C 436.203125 871.0625 436.226562 870.027344 436.25 868.992188 C 436.308594 866.453125 436.351562 863.917969 436.390625 861.378906 L 421.539062 861.378906 C 421.574219 864.214844 421.617188 867.046875 421.679688 869.882812 C 421.699219 870.847656 421.710938 871.8125 421.722656 872.777344 C 421.734375 874.164062 421.765625 875.550781 421.800781 876.9375 L 421.84375 879.46875 L 422.214844 881.632812 C 423.519531 883.183594 423.519531 883.183594 424.914062 884.332031 L 424.914062 885.683594 L 408.710938 885.683594 L 408.710938 884.332031 L 410.042969 883.492188 L 411.410156 882.308594 C 411.808594 880.398438 411.808594 880.398438 411.730469 878.195312 L 411.734375 875.628906 L 411.699219 872.851562 C 411.695312 871.90625 411.695312 870.957031 411.691406 870.011719 C 411.6875 868.027344 411.671875 866.042969 411.652344 864.058594 C 411.625 861.511719 411.613281 858.964844 411.605469 856.417969 C 411.601562 853.992188 411.585938 851.566406 411.574219 849.140625 L 411.566406 847.734375 C 411.554688 846.421875 411.546875 845.113281 411.53125 843.800781 L 411.511719 841.539062 C 411.527344 839.789062 411.527344 839.789062 410.738281 838.425781 L 408.710938 837.75 Z M 530.234375 836.398438 C 533.472656 836.316406 536.714844 836.253906 539.957031 836.214844 C 541.058594 836.199219 542.15625 836.175781 543.257812 836.144531 C 553.550781 835.875 553.550781 835.875 557.894531 837.988281 C 559.742188 839.066406 560.839844 840.015625 562.34375 841.589844 C 563.648438 844.597656 564.125 847.300781 563.988281 850.578125 C 562.980469 853.8125 561.550781 856.1875 559.261719 858.679688 C 558.144531 859.589844 557.019531 860.488281 555.886719 861.378906 C 557.09375 864.230469 558.304688 867.078125 559.527344 869.921875 C 559.9375 870.890625 560.351562 871.855469 560.761719 872.828125 C 561.351562 874.222656 561.949219 875.613281 562.546875 877.003906 C 562.726562 877.4375 562.910156 877.871094 563.097656 878.316406 C 564.023438 880.457031 564.839844 882.191406 566.6875 883.65625 L 568.039062 884.332031 L 568.039062 885.683594 L 556.5625 885.683594 C 554.78125 881.882812 553.089844 878.109375 551.671875 874.160156 L 550.929688 872.117188 C 550.429688 870.730469 549.941406 869.339844 549.460938 867.945312 L 548.71875 865.929688 L 548.074219 864.113281 L 547.109375 862.730469 L 543.058594 862.054688 L 543.734375 882.984375 L 546.4375 884.332031 L 546.4375 885.683594 L 530.234375 885.683594 L 530.234375 884.332031 L 531.5625 883.164062 L 532.933594 881.632812 C 533.324219 879.621094 533.324219 879.621094 533.238281 877.359375 L 533.238281 874.738281 L 533.195312 871.917969 C 533.191406 870.953125 533.1875 869.988281 533.183594 869.023438 C 533.175781 866.488281 533.148438 863.953125 533.117188 861.417969 C 533.089844 858.828125 533.078125 856.242188 533.066406 853.652344 C 533.035156 848.578125 532.992188 843.5 532.933594 838.425781 L 530.234375 837.75 Z M 543.058594 837.75 L 543.058594 860.027344 L 549.8125 860.027344 C 551.9375 858.75 551.9375 858.75 553.1875 856.652344 C 554.632812 853.074219 554.859375 849.65625 554.535156 845.851562 C 554.023438 843.242188 553.566406 841.605469 551.921875 839.523438 C 550.589844 838.40625 550.589844 838.40625 549.261719 837.917969 C 547.207031 837.683594 545.128906 837.75 543.058594 837.75 M 605.171875 836.398438 C 608.4375 836.332031 611.703125 836.28125 614.96875 836.25 C 616.078125 836.238281 617.1875 836.21875 618.296875 836.195312 C 619.898438 836.164062 621.5 836.148438 623.105469 836.136719 L 624.585938 836.09375 C 627.863281 836.09375 630.171875 836.824219 633.0625 838.363281 C 634.800781 839.488281 635.816406 840.722656 636.902344 842.476562 C 637.992188 844.8125 638.367188 846.6875 638.167969 849.226562 C 637.84375 851.125 637.390625 852.304688 636.523438 854.078125 C 634.464844 856.449219 632.207031 857.855469 629.476562 859.355469 L 631.964844 860.15625 C 633.96875 860.910156 635.078125 861.546875 636.773438 862.941406 C 638.367188 864.898438 639.410156 866.429688 640.277344 868.804688 C 640.679688 871.457031 640.625 873.816406 639.785156 876.375 C 638.777344 878.574219 637.734375 880.125 636.015625 881.84375 C 632.882812 883.8125 629.753906 885.117188 626.101562 885.683594 C 624.464844 885.738281 622.828125 885.757812 621.191406 885.75 L 619.796875 885.746094 C 618.339844 885.742188 616.882812 885.734375 615.425781 885.726562 C 614.429688 885.722656 613.4375 885.71875 612.445312 885.714844 C 610.019531 885.707031 607.597656 885.699219 605.171875 885.683594 L 605.171875 884.332031 L 606.503906 883.164062 L 607.871094 881.632812 C 608.261719 879.621094 608.261719 879.621094 608.179688 877.359375 L 608.179688 874.738281 L 608.136719 871.917969 C 608.128906 870.953125 608.125 869.988281 608.125 869.023438 C 608.113281 866.488281 608.085938 863.953125 608.058594 861.417969 C 608.03125 858.828125 608.015625 856.242188 608.003906 853.652344 C 607.972656 848.578125 607.929688 843.5 607.871094 838.425781 L 605.171875 837.75 Z M 618 837.75 L 618 859.355469 L 624.75 858.679688 C 626.511719 857.539062 626.511719 857.539062 627.449219 855.976562 C 628.269531 853.519531 628.273438 851.238281 628.292969 848.679688 L 628.335938 847.246094 C 628.355469 844.835938 628.097656 843.085938 627.195312 840.835938 C 626.234375 839.027344 626.234375 839.027344 624.582031 838.171875 C 622.273438 837.574219 622.273438 837.574219 618 837.75 M 618 860.703125 L 618 883.65625 L 624.75 883.65625 C 627.175781 882.347656 627.175781 882.347656 628.800781 880.28125 C 630.539062 876.035156 630.5 871.980469 630.152344 867.457031 C 629.761719 865.378906 629.347656 864.542969 628.125 862.730469 C 625.996094 861.304688 625.996094 861.304688 623.398438 860.703125 Z M 570.066406 836.398438 L 600.445312 836.398438 L 601.121094 847.875 L 599.769531 847.875 L 598.90625 845.980469 L 597.789062 843.53125 L 596.671875 841.085938 C 595.910156 839.214844 595.910156 839.214844 595.042969 838.425781 C 594.136719 838.324219 593.230469 838.253906 592.320312 838.210938 L 590.832031 838.132812 L 588.925781 838.046875 L 582.890625 837.75 L 582.890625 859.355469 L 591.667969 858.679688 L 593.019531 854.628906 L 594.367188 853.277344 L 595.042969 853.953125 C 595.097656 854.910156 595.121094 855.867188 595.109375 856.824219 L 595.105469 858.570312 L 595.085938 860.410156 L 595.078125 862.253906 C 595.070312 863.761719 595.058594 865.269531 595.042969 866.78125 L 593.019531 866.105469 C 592.21875 863.699219 592.21875 863.699219 591.667969 861.378906 L 582.890625 860.703125 L 582.890625 883.65625 L 597.070312 882.984375 L 598.671875 879.015625 C 600.277344 875.050781 600.277344 875.050781 601.796875 873.53125 L 601.796875 885.683594 L 570.066406 885.683594 L 570.066406 884.332031 L 572.089844 882.984375 C 572.414062 881.046875 572.414062 881.046875 572.382812 878.738281 L 572.402344 877.421875 C 572.421875 875.984375 572.429688 874.542969 572.4375 873.105469 C 572.449219 872.105469 572.460938 871.109375 572.472656 870.113281 C 572.503906 867.488281 572.523438 864.859375 572.542969 862.234375 C 572.5625 859.554688 572.59375 856.875 572.625 854.199219 C 572.679688 848.941406 572.726562 843.683594 572.765625 838.425781 L 570.066406 837.75 Z M 263.558594 836.398438 L 294.617188 836.398438 L 294.617188 847.875 C 292.648438 845.910156 292.089844 844.914062 291.15625 842.390625 C 290.464844 840.238281 290.464844 840.238281 289.214844 838.425781 C 288.308594 838.324219 287.402344 838.253906 286.492188 838.210938 L 285 838.132812 L 283.097656 838.046875 L 277.0625 837.75 L 277.0625 859.355469 L 284.488281 858.679688 C 285.996094 856.71875 286.867188 855.402344 287.863281 853.277344 L 288.539062 853.277344 L 288.539062 866.78125 L 287.191406 866.78125 L 286.859375 865.621094 C 286.261719 863.832031 286.261719 863.832031 284.488281 861.378906 L 277.0625 860.703125 L 277.0625 883.65625 L 291.242188 882.984375 L 294.617188 874.207031 L 295.964844 874.207031 C 295.984375 875.738281 295.996094 877.273438 296.007812 878.804688 L 296.03125 881.394531 C 295.964844 883.65625 295.964844 883.65625 295.292969 885.683594 L 263.558594 885.683594 L 263.558594 884.332031 L 266.261719 883.65625 C 266.324219 877.894531 266.371094 872.132812 266.402344 866.367188 C 266.414062 863.691406 266.4375 861.015625 266.464844 858.339844 C 266.492188 855.757812 266.511719 853.175781 266.515625 850.59375 C 266.523438 849.609375 266.53125 848.621094 266.546875 847.636719 C 266.566406 846.257812 266.570312 844.878906 266.566406 843.496094 L 266.585938 841.117188 L 266.261719 839.101562 Z M 368.878906 836.398438 L 406.011719 836.398438 L 406.011719 848.550781 C 404.148438 846.691406 403.304688 845.417969 402.171875 843.109375 L 401.277344 841.3125 C 400.609375 839.773438 400.609375 839.773438 400.609375 838.425781 L 392.507812 837.75 L 393.183594 882.308594 L 397.234375 884.332031 L 397.234375 885.683594 L 377.65625 885.683594 L 377.65625 884.332031 L 381.707031 882.308594 L 382.382812 837.75 L 374.28125 838.425781 L 372.929688 841.800781 C 372.351562 843.003906 371.761719 844.199219 371.15625 845.386719 L 370.246094 847.195312 L 369.554688 848.550781 L 368.878906 848.550781 Z M 678.082031 835.722656 L 682.808594 835.722656 C 684.867188 840.113281 686.140625 844.679688 687.472656 849.335938 L 688.605469 853.242188 C 689.398438 855.980469 690.183594 858.714844 690.96875 861.453125 C 691.621094 863.710938 692.273438 865.972656 692.925781 868.230469 C 693.417969 869.917969 693.902344 871.609375 694.382812 873.300781 L 695.058594 875.628906 L 695.644531 877.664062 C 696.359375 879.746094 697.257812 881.742188 698.335938 883.65625 L 699.6875 884.332031 L 699.6875 885.683594 L 683.484375 885.683594 L 683.484375 884.332031 L 686.183594 883.65625 L 685.765625 881.757812 L 685.214844 879.226562 L 684.667969 876.734375 C 684.1875 874.332031 683.832031 871.90625 683.484375 869.480469 L 669.308594 869.480469 L 667.957031 874.710938 L 667.53125 876.347656 C 666.945312 878.65625 666.605469 880.589844 666.605469 882.984375 L 668.632812 884.332031 L 668.632812 885.683594 L 659.855469 885.683594 L 659.855469 884.332031 L 661.421875 883.558594 L 663.230469 882.308594 C 664.007812 880.632812 664.648438 878.90625 665.160156 877.132812 L 665.664062 875.527344 C 666.21875 873.742188 666.75 871.949219 667.28125 870.15625 L 668.46875 866.230469 C 669.9375 861.332031 671.378906 856.425781 672.816406 851.519531 C 673.433594 849.414062 674.054688 847.308594 674.675781 845.203125 L 675.242188 843.257812 L 675.777344 841.453125 L 676.238281 839.871094 C 676.738281 838.410156 677.359375 837.089844 678.082031 835.722656 M 676.058594 845.851562 C 675.191406 848.710938 674.324219 851.570312 673.460938 854.429688 C 673.167969 855.402344 672.875 856.375 672.578125 857.351562 C 672.15625 858.746094 671.734375 860.144531 671.3125 861.542969 L 670.539062 864.09375 C 669.921875 865.972656 669.921875 865.972656 669.980469 867.457031 L 682.808594 867.457031 C 682.070312 864.59375 681.324219 861.734375 680.578125 858.875 C 680.320312 857.902344 680.070312 856.929688 679.816406 855.957031 C 679.457031 854.558594 679.089844 853.160156 678.722656 851.765625 L 678.058594 849.214844 C 677.558594 847.148438 677.558594 847.148438 676.058594 845.851562 M 505.929688 835.722656 L 511.328125 835.722656 C 513.226562 840.472656 514.585938 845.320312 515.945312 850.246094 C 516.316406 851.574219 516.6875 852.902344 517.0625 854.226562 C 517.976562 857.476562 518.886719 860.726562 519.785156 863.980469 C 520.414062 866.257812 521.050781 868.53125 521.695312 870.800781 C 522.054688 872.082031 522.40625 873.359375 522.75 874.640625 C 523.960938 879.289062 523.960938 879.289062 526.691406 883.113281 L 528.207031 884.332031 L 528.207031 885.683594 L 512.003906 885.683594 L 512.003906 884.332031 L 514.03125 882.984375 C 513.609375 878.527344 512.566406 874.460938 511.328125 870.15625 L 497.828125 870.15625 L 496.476562 874.289062 L 495.71875 876.617188 C 495.136719 878.886719 494.855469 880.65625 495.125 882.984375 L 497.152344 884.332031 L 497.152344 885.683594 L 488.375 885.683594 L 488.375 884.332031 L 489.921875 883.640625 C 491.773438 882.503906 491.773438 882.503906 492.386719 881.03125 C 492.980469 879.324219 493.492188 877.605469 493.980469 875.863281 L 494.570312 873.894531 C 495.1875 871.808594 495.792969 869.714844 496.390625 867.625 C 496.789062 866.269531 497.191406 864.914062 497.59375 863.558594 C 498.394531 860.84375 499.191406 858.128906 499.980469 855.414062 C 501.90625 848.832031 503.917969 842.277344 505.929688 835.722656 M 504.578125 845.851562 C 503.6875 848.5625 502.800781 851.277344 501.921875 853.996094 L 501.15625 856.3125 L 500.425781 858.574219 L 499.75 860.644531 C 499.019531 863.140625 499.019531 863.140625 498.503906 867.457031 L 510.652344 867.457031 C 509.550781 860.066406 507.367188 853 505.253906 845.851562 Z M 316.21875 835.722656 C 318.667969 835.597656 318.667969 835.597656 320.945312 835.722656 C 322.710938 840.15625 324.046875 844.671875 325.351562 849.261719 C 325.871094 851.082031 326.398438 852.902344 326.925781 854.722656 C 327.902344 858.097656 328.878906 861.476562 329.839844 864.855469 C 330.511719 867.21875 331.191406 869.582031 331.882812 871.941406 C 332.140625 872.835938 332.394531 873.734375 332.648438 874.632812 C 333.003906 875.882812 333.363281 877.132812 333.734375 878.382812 L 334.351562 880.535156 C 334.996094 882.386719 334.996094 882.386719 336.558594 883.480469 L 337.824219 884.332031 L 337.824219 885.683594 L 321.621094 885.683594 L 321.621094 884.332031 L 323.644531 882.984375 C 323.320312 879.21875 322.691406 875.820312 321.621094 872.179688 L 321.621094 869.480469 L 307.441406 870.15625 L 306.09375 874.671875 L 305.332031 877.210938 C 304.820312 879.289062 304.4375 880.867188 304.742188 882.984375 L 306.769531 884.332031 L 306.769531 885.683594 L 297.992188 885.683594 L 297.992188 884.332031 L 299.554688 883.59375 L 301.367188 882.308594 C 302.214844 880.378906 302.824219 878.625 303.390625 876.613281 L 303.953125 874.753906 C 304.53125 872.816406 305.101562 870.882812 305.660156 868.941406 C 306.730469 865.265625 307.8125 861.59375 308.894531 857.921875 C 309.890625 854.53125 310.886719 851.136719 311.871094 847.742188 L 312.984375 843.925781 L 313.5 842.128906 L 313.984375 840.472656 L 314.40625 839.019531 C 314.871094 837.75 314.871094 837.75 316.21875 835.722656 M 314.195312 845.851562 C 313.324219 848.601562 312.460938 851.351562 311.597656 854.105469 C 311.304688 855.039062 311.011719 855.976562 310.714844 856.914062 C 310.289062 858.257812 309.867188 859.601562 309.449219 860.949219 L 308.675781 863.402344 C 308.027344 865.40625 308.027344 865.40625 308.117188 867.457031 L 320.269531 867.457031 C 319.835938 863.96875 319.46875 861.238281 318.496094 857.984375 L 317.855469 855.820312 L 317.191406 853.613281 L 316.515625 851.347656 C 315.972656 849.515625 315.421875 847.683594 314.871094 845.851562 Z M 480.308594 835.609375 C 482.6875 836.53125 484.535156 837.285156 486.351562 839.101562 C 486.480469 841.152344 486.480469 841.152344 486.433594 843.574219 L 486.398438 846.003906 L 486.351562 847.875 L 485 847.875 L 484.109375 846.027344 C 483.703125 845.222656 483.296875 844.417969 482.890625 843.613281 L 481.703125 841.21875 C 480.40625 839 480.40625 839 478.253906 837.800781 C 476.410156 837.140625 475.421875 836.835938 473.523438 837.117188 C 471.640625 837.460938 470.394531 837.953125 468.628906 838.804688 C 466.261719 840.902344 465.191406 842.925781 464.070312 845.851562 C 461.460938 853.683594 461.53125 862.730469 462.722656 870.832031 C 463.867188 876.085938 463.867188 876.085938 466.253906 880.859375 C 467.769531 882.453125 469.484375 883.492188 471.496094 884.332031 C 473.152344 884.546875 473.152344 884.546875 474.871094 884.5 L 476.601562 884.511719 C 478.410156 884.316406 479.410156 883.933594 480.949219 882.984375 C 481.734375 881.84375 481.734375 881.84375 482.246094 880.488281 L 482.867188 879.023438 L 483.480469 877.496094 L 484.125 875.953125 C 484.648438 874.699219 485.164062 873.441406 485.675781 872.179688 L 487.023438 872.855469 L 486.351562 883.65625 C 480.660156 885.976562 476.339844 887.53125 470.148438 887.035156 C 466.078125 886.222656 462.578125 884.96875 459.34375 882.308594 C 455.597656 878.757812 453.417969 875.089844 451.917969 870.15625 C 450.472656 864.519531 450.617188 857.898438 451.707031 852.21875 C 453.375 846.792969 456.136719 842.765625 460.230469 838.890625 C 465.832031 834.421875 473.503906 833.757812 480.308594 835.609375 M 339.847656 836.398438 L 356.050781 836.398438 L 356.050781 837.75 L 353.351562 838.425781 L 352.675781 883.65625 L 364.828125 882.984375 C 366.941406 880.792969 367.410156 880.246094 368.203125 877.582031 L 369.429688 874.542969 L 370.230469 872.179688 L 371.578125 872.855469 L 370.90625 885.683594 L 339.847656 885.683594 L 339.847656 884.332031 L 342.550781 883.65625 C 342.613281 877.996094 342.660156 872.332031 342.6875 866.667969 C 342.703125 864.039062 342.722656 861.410156 342.753906 858.777344 C 342.78125 856.238281 342.800781 853.699219 342.804688 851.160156 C 342.808594 850.195312 342.820312 849.226562 342.835938 848.257812 C 342.855469 846.902344 342.855469 845.542969 342.855469 844.1875 L 342.875 841.847656 C 342.65625 839.335938 342.65625 839.335938 339.847656 836.398438 M 641.628906 836.398438 L 658.503906 836.398438 L 655.804688 839.101562 C 655.402344 841.128906 655.402344 841.128906 655.464844 843.414062 L 655.445312 846.0625 C 655.453125 847.011719 655.460938 847.964844 655.46875 848.914062 C 655.46875 849.890625 655.46875 850.867188 655.464844 851.847656 C 655.464844 853.890625 655.472656 855.933594 655.488281 857.976562 C 655.507812 860.601562 655.507812 863.222656 655.5 865.847656 C 655.492188 867.863281 655.5 869.878906 655.507812 871.894531 C 655.511719 872.859375 655.511719 873.828125 655.507812 874.796875 C 655.507812 876.144531 655.515625 877.496094 655.53125 878.84375 L 655.542969 881.171875 L 655.804688 882.984375 L 657.832031 884.332031 L 657.832031 885.683594 L 641.628906 885.683594 L 641.628906 884.332031 L 644.328125 883.65625 C 644.390625 877.894531 644.4375 872.132812 644.46875 866.367188 C 644.480469 863.691406 644.503906 861.015625 644.53125 858.339844 C 644.558594 855.757812 644.578125 853.175781 644.585938 850.59375 C 644.589844 849.609375 644.597656 848.621094 644.613281 847.636719 C 644.632812 846.257812 644.636719 844.878906 644.632812 843.496094 L 644.652344 841.117188 L 644.328125 839.101562 Z M 641.628906 836.398438 " fill-opacity="1" fill-rule="nonzero"/></g></svg>