<?xml version="1.0" encoding="utf-8"?>
<!-- Generator: Adobe Illustrator 26.0.0, SVG Export Plug-In . SVG Version: 6.00 Build 0)  -->
<svg version="1.1" id="Layer_1" xmlns="http://www.w3.org/2000/svg" xmlns:xlink="http://www.w3.org/1999/xlink" x="0px" y="0px"
	 viewBox="0 0 46 55" style="enable-background:new 0 0 46 55;" xml:space="preserve">
<style type="text/css">
	.st0{clip-path:url(#SVGID_00000095305650608257806470000008737570618691254177_);}
	.st1{fill:#568259;}
</style>
<g>
	<g>
		<g>
			<defs>
				<rect id="SVGID_1_" x="9.7" y="14.4" width="26.7" height="36.1"/>
			</defs>
			<clipPath id="SVGID_00000142895873087241538350000013521249485305705368_">
				<use xlink:href="#SVGID_1_"  style="overflow:visible;"/>
			</clipPath>
			<g style="clip-path:url(#SVGID_00000142895873087241538350000013521249485305705368_);">
				<path class="st1" d="M23,14.4c-7.3,0-13.3,6-13.3,13.3c0,2.4,1.1,5,1.2,5.2c0.4,1,0.9,2,1.5,2.9l9.2,13.8
					c0.3,0.6,0.9,0.9,1.5,0.9s1.2-0.3,1.5-0.9l9.2-13.8c0.6-0.9,1.1-1.9,1.5-2.9c0.1-0.1,1.2-2.7,1.2-5.2
					C36.3,20.4,30.3,14.4,23,14.4z M33.8,32.3c-0.4,0.9-0.8,1.8-1.4,2.7l-9.2,13.8C23,49,23,49,22.8,48.8L13.6,35
					c-0.5-0.8-1-1.8-1.4-2.7c0,0-1-2.4-1-4.5c0-3.1,1.2-6.1,3.4-8.3s5.2-3.4,8.3-3.4s6.1,1.2,8.3,3.4s3.4,5.2,3.4,8.3
					C34.8,29.9,33.8,32.2,33.8,32.3z"/>
				<path class="st1" d="M23,20.7c-1.4,0-2.8,0.4-3.9,1.2c-1.2,0.8-2.1,1.9-2.6,3.2c-0.5,1.2-0.7,2.8-0.4,4.1
					c0.2,1.3,0.9,2.7,1.9,3.6c1,1,2.3,1.7,3.6,1.9c1.3,0.2,2.8,0.2,4.1-0.4s2.4-1.4,3.2-2.6c0.8-1.2,1.2-2.5,1.2-3.9
					c0-1.8-0.8-3.7-2.1-5C26.7,21.5,24.8,20.7,23,20.7z M23,33.2c-1.1,0-2.2-0.3-3.1-0.9c-0.9-0.6-1.6-1.5-2-2.5s-0.5-2.1-0.3-3.2
					s0.7-2.1,1.5-2.8s1.8-1.2,2.8-1.5c1.1-0.2,2.2-0.1,3.2,0.3s1.8,1.1,2.5,2c0.6,0.9,0.9,2,0.9,3.1c0,1.4-0.6,2.8-1.6,3.9
					C25.8,32.7,24.4,33.2,23,33.2z"/>
			</g>
		</g>
	</g>
</g>
</svg>
