<svg xmlns="http://www.w3.org/2000/svg" xmlns:xlink="http://www.w3.org/1999/xlink" width="1366" zoomAndPan="magnify" viewBox="0 0 1024.5 576" height="768" preserveAspectRatio="xMidYMid meet" version="1.2"><defs><clipPath id="9a72b32ed6"><path d="M 455.214844 231.214844 L 568.785156 231.214844 L 568.785156 344.785156 L 455.214844 344.785156 Z M 455.214844 231.214844 "/></clipPath><clipPath id="be4c0260c6"><path d="M 512 231.214844 C 480.640625 231.214844 455.214844 256.640625 455.214844 288 C 455.214844 319.359375 480.640625 344.785156 512 344.785156 C 543.359375 344.785156 568.785156 319.359375 568.785156 288 C 568.785156 256.640625 543.359375 231.214844 512 231.214844 Z M 512 231.214844 "/></clipPath><clipPath id="7c0867fa8f"><path d="M 476.160156 252.5625 L 548 252.5625 L 548 323.78125 L 476.160156 323.78125 Z M 476.160156 252.5625 "/></clipPath></defs><g id="24286bef03"><g clip-rule="nonzero" clip-path="url(#9a72b32ed6)"><g clip-rule="nonzero" clip-path="url(#be4c0260c6)"><path style=" stroke:none;fill-rule:nonzero;fill:#57815a;fill-opacity:1;" d="M 455.214844 231.214844 L 568.785156 231.214844 L 568.785156 344.785156 L 455.214844 344.785156 Z M 455.214844 231.214844 "/></g></g><g clip-rule="nonzero" clip-path="url(#7c0867fa8f)"><path style=" stroke:none;fill-rule:nonzero;fill:#ffffff;fill-opacity:1;" d="M 504.484375 313.113281 C 494.546875 313.113281 486.460938 305.03125 486.460938 295.089844 C 486.460938 285.152344 494.546875 277.070312 504.484375 277.070312 C 514.421875 277.070312 522.503906 285.152344 522.503906 295.089844 C 522.503906 305.03125 514.421875 313.113281 504.484375 313.113281 Z M 545.332031 252.578125 L 517.476562 252.578125 C 517.195312 252.578125 516.96875 252.808594 516.96875 253.085938 L 516.96875 261.589844 C 516.96875 261.871094 517.195312 262.101562 517.476562 262.101562 L 531.582031 262.101562 L 521.347656 272.332031 C 519.546875 270.996094 517.59375 269.878906 515.507812 268.996094 C 512.011719 267.519531 508.304688 266.769531 504.484375 266.769531 C 500.660156 266.769531 496.953125 267.519531 493.457031 268.996094 C 490.085938 270.425781 487.054688 272.464844 484.457031 275.066406 C 481.855469 277.664062 479.816406 280.691406 478.390625 284.066406 C 476.910156 287.5625 476.160156 291.269531 476.160156 295.089844 C 476.160156 298.914062 476.910156 302.621094 478.390625 306.117188 C 479.816406 309.492188 481.855469 312.519531 484.457031 315.117188 C 487.054688 317.71875 490.085938 319.757812 493.457031 321.183594 C 496.953125 322.664062 500.660156 323.414062 504.484375 323.414062 C 508.304688 323.414062 512.011719 322.664062 515.507812 321.183594 C 518.882812 319.757812 521.910156 317.71875 524.507812 315.117188 C 527.109375 312.519531 529.148438 309.492188 530.578125 306.117188 C 532.054688 302.621094 532.804688 298.914062 532.804688 295.089844 C 532.804688 291.269531 532.054688 287.5625 530.578125 284.066406 C 529.851562 282.355469 528.96875 280.730469 527.9375 279.207031 L 538.3125 268.832031 L 538.3125 282.9375 C 538.3125 283.21875 538.539062 283.445312 538.820312 283.445312 L 547.324219 283.445312 C 547.605469 283.445312 547.832031 283.21875 547.832031 282.9375 L 547.832031 255.082031 C 547.832031 253.699219 546.714844 252.578125 545.332031 252.578125 "/></g></g></svg>