<?xml version="1.0" encoding="utf-8"?>
<!-- Generator: Adobe Illustrator 26.0.0, SVG Export Plug-In . SVG Version: 6.00 Build 0)  -->
<svg version="1.1" id="Line" xmlns="http://www.w3.org/2000/svg" xmlns:xlink="http://www.w3.org/1999/xlink" x="0px" y="0px"
	 viewBox="0 0 512 512" style="enable-background:new 0 0 512 512;" xml:space="preserve">
<style type="text/css">
	.st0{fill:#57845A;}
</style>
<path class="st0" d="M256,480c123.7,0,224-100.3,224-224c0-36.4-8.9-72.2-25.8-104.4c-2.1-3.9-7-5.3-10.8-3.2
	c-3.8,2.1-5.3,6.9-3.3,10.7c15.7,29.9,24,63.1,23.9,96.9c-11.4,275.9-404.6,275.9-416,0C46.1,101.7,217.6-1.6,352.9,71.9
	c3.9,2.1,8.7,0.6,10.8-3.3s0.6-8.7-3.3-10.8C328.2,40.8,292.4,32,256,32C-41.1,44.3-41.1,467.7,256,480z"/>
<path class="st0" d="M256,192c6.9,0,13.8,1.1,20.4,3.4c4.2,1.4,8.7-0.8,10.2-5c3.5-14.2-21.4-13.6-30.5-14.4
	c-106.1,4.4-106.1,155.6,0,160c44.2,0,80-35.8,80-80c-0.8-9.3-0.3-33.9-14.4-30.4c-4.2,1.4-6.4,6-5,10.2c0,0,0,0,0,0
	c2.2,6.5,3.3,13.4,3.3,20.3c-3.2,84.8-124.8,84.8-128,0C192,220.7,220.7,192,256,192z"/>
<path class="st0" d="M332.6,133.9c2.1-3.9,0.7-8.7-3.1-10.9c0,0,0,0,0,0c-22.5-12.4-47.8-19-73.5-19c-201.6,8.3-201.6,295.7,0,304
	c83.9,0,151.9-67.9,152-151.8c0-25.8-6.5-51.1-19-73.7c-2.1-3.9-7-5.3-10.9-3.2c-3.9,2.1-5.3,7-3.2,10.9c0,0,0,0,0,0.1
	c50.7,87.9-17.4,203.5-119,201.7c-75.1-0.1-135.9-60.9-136-136c-1.7-101.6,113.8-169.7,201.7-119
	C325.6,139.1,330.4,137.8,332.6,133.9C332.6,133.9,332.6,133.9,332.6,133.9z"/>
<path class="st0" d="M348.2,111.2l2.9,38.4L250.3,250.3c-3.1,3.2-3,8.3,0.2,11.3c3.1,3,8,3,11.1,0l100.8-100.8l38.4,2.9
	c2.3,0.2,4.6-0.7,6.3-2.3l58.2-58.2c3.1-3.2,3-8.3-0.2-11.4c-1.3-1.3-3-2.1-4.9-2.2l-35.2-2.7l-2.7-35.2c-0.4-4.4-4.3-7.7-8.8-7.3
	c-1.8,0.2-3.6,1-4.9,2.2l-58.2,58.2C348.9,106.6,348,108.9,348.2,111.2z M407.7,70.3c3.2,37.3-3.1,30.7,33.9,33.9l-43.3,43.3
	l-31.5-2.4l-2.4-31.5L407.7,70.3z"/>
</svg>
