<?xml version="1.0" encoding="utf-8"?>
<!-- Generator: Adobe Illustrator 26.0.0, SVG Export Plug-In . SVG Version: 6.00 Build 0)  -->
<svg version="1.1" id="Layer_1" xmlns="http://www.w3.org/2000/svg" xmlns:xlink="http://www.w3.org/1999/xlink" x="0px" y="0px"
	 viewBox="0 0 70.4 64.7" style="enable-background:new 0 0 70.4 64.7;" xml:space="preserve">
<style type="text/css">
	.st0{clip-path:url(#SVGID_00000033350371475971437590000000710499132788736941_);}
	.st1{fill:#568259;}
</style>
<g>
	<defs>
		<rect id="SVGID_1_" x="12.7" y="6.7" width="44" height="50.5"/>
	</defs>
	<clipPath id="SVGID_00000160157667049809635430000003514144830727610794_">
		<use xlink:href="#SVGID_1_"  style="overflow:visible;"/>
	</clipPath>
	<g style="clip-path:url(#SVGID_00000160157667049809635430000003514144830727610794_);">
		<path class="st1" d="M56.7,35.8c-0.4-1.1-3.6-10.7-6-12.6c-1.6-1.3-6.5-4-11-4.8c0.2-1.1,0.8-5,0.8-6c0-2.7-1.1-4.5-3.1-4.8
			C32.6,5.8,30.1,7,28,9c-1.9,1.9-1.9,0.5-2.7,1.1c-1.2,0.8,0.5,4.6,2,5.9c-0.1,1.3,0.1,2.6,0.7,3.7c-3.2,1.1-6,2.5-7.3,3.9
			c-2.4,2.5-6.9,9.3-7.1,9.5c-0.4,0.6,0.1,1.1,0.6,1.6c-1.1,1.8-1.6,4.3-1.6,6.2c0,4.1,8.4,8.1,11,11.4c0.4,0.5,0.8,1,1.3,1.4v2.7
			c0,0.2,0.1,0.4,0.2,0.6c0.2,0.2,0.4,0.2,0.6,0.2c0.2,0,0.4-0.1,0.6-0.2c0.2-0.2,0.2-0.4,0.2-0.6v-1.7c0.3,0.1,0.5,0.1,0.8,0.1
			c1.2,0,3.3-0.5,3.3-4.1c0-2-6.5-8.1-10.3-10.2l0.2-0.5c0.9,0.4,1.2-0.7,3.5-2.2c0.5,1.8,0.9,3.6,0.9,4.8c0,0.2,0.1,0.4,0.2,0.6
			c0.2,0.2,0.4,0.2,0.6,0.2c0.2,0,0.4-0.1,0.6-0.2c0.2-0.2,0.2-0.4,0.2-0.6c0-1.6-0.6-4-1.3-6.3c0,0,0,0,0-0.1
			c-0.7-2.3-1.5-4.4-2-5.4c-0.1-0.2-0.3-0.3-0.5-0.4c-0.2-0.1-0.4,0-0.6,0.1c-0.2,0.1-0.3,0.3-0.4,0.5s0,0.4,0.1,0.6
			c0.5,0.9,1.1,2.7,1.8,4.6l-2.7,2.2c-2.5-1.7-4.6-3.8-5.4-4.8c1.1-1.7,4.6-6.8,6.6-8.8c2.2-2.3,9.5-5,15.2-5
			c4.6,0,10.8,3.4,12.5,4.7c1.4,1.1,3.9,7.3,5.3,11.3c-0.7,0.4-2.3,1.2-5.7,1.9c0.2-2.2,0.2-4.7,0.2-7.3c0-0.1,0-0.2-0.1-0.3
			c0-0.1-0.1-0.2-0.2-0.3c-0.1-0.1-0.2-0.1-0.3-0.2c-0.1,0-0.2-0.1-0.3-0.1c-0.1,0-0.2,0-0.3,0.1c-0.1,0-0.2,0.1-0.3,0.2
			c-0.1,0.1-0.1,0.2-0.2,0.3c0,0.1-0.1,0.2-0.1,0.3c0.1,4.4-0.3,8.6-0.5,11.7c-0.5,5.3-0.2,2.2-0.3,14.4c0,0.2,0.1,0.4,0.2,0.6
			c0.2,0.2,0.4,0.2,0.6,0.2c0.2,0,0.4-0.1,0.6-0.2c0.2-0.2,0.2-0.4,0.2-0.6V50c6.2-4.9,6.5-5.5,6.5-10.7c0-1.1-1.6-1.1-1.6,0
			c0,4.3,0,4.7-4.9,8.6v-2.1c0-1.2,0.3-3.5,0.5-6.5C50.9,38.9,57.3,37.5,56.7,35.8z M19.2,39.1c-0.1,0.5-1.4,2-0.3,2.5
			c3.8,1.6,9.9,7.9,10.1,9c0,2.4-1.1,2.4-1.6,2.4c-1.5,0-2.2-2-3.8-3.4c-1.5-1.4-9.3-6.2-9.3-8.8c0-1.5,0.4-3.5,1.1-4.9
			C16.6,37.1,17.9,38.2,19.2,39.1L19.2,39.1z M26.7,11.7c3-0.3,3.1-5.3,10.2-2.6c0.3,0.1,1.9,0,1.9,3.3c0,2.3-0.4,2.6-0.4,2.6
			c-1.9,1.2-5.1,0.9-6.3,0.8c-0.3-0.8-1-1.7-2.3-1.7c-0.6,0-1.2,0.3-1.6,0.6C27.6,13.9,26.9,12.7,26.7,11.7z M29.7,19.2
			c-0.6-0.9-0.8-2-0.7-3.1c1.9-1.4,1.2,1,2.4,1.2c2,0.4,4.9,0.3,6.9-0.5c-0.1,0.4-0.1,0.9-0.2,1.3C35.5,18,32.2,18.5,29.7,19.2z"/>
		<path class="st1" d="M49.3,18.6c0.8-1.6,2.5-2.9,1.4-3.6c-1.1-0.7-1.6,1.2-2.8,2.7C47.3,18.6,48.7,19.4,49.3,18.6z"/>
		<path class="st1" d="M20.2,18.6c0.1,0.2,0.3,0.3,0.5,0.3c0.2,0,0.4,0,0.6-0.1c0.2-0.1,0.3-0.3,0.3-0.5c0-0.2,0-0.4-0.1-0.6
			l-1.6-2.4c-0.1-0.1-0.1-0.2-0.2-0.2c-0.1-0.1-0.2-0.1-0.3-0.1c-0.1,0-0.2,0-0.3,0c-0.1,0-0.2,0.1-0.3,0.1
			c-0.2,0.1-0.3,0.3-0.3,0.5c0,0.1,0,0.2,0,0.3c0,0.1,0.1,0.2,0.1,0.3L20.2,18.6z"/>
		<path class="st1" d="M53.2,21.1c1.5-1.7,3.4-2.6,2.4-3.6c-1-0.9-1.9,1-3.6,2.4C51.3,20.7,52.5,21.9,53.2,21.1z"/>
		<path class="st1" d="M16.2,21.9c0.8,0.8,1.9-0.4,1.2-1.2l-2.4-2.4c-0.1-0.1-0.2-0.1-0.3-0.2c-0.1,0-0.2-0.1-0.3-0.1
			c-0.1,0-0.2,0-0.3,0.1c-0.1,0-0.2,0.1-0.3,0.2c-0.1,0.1-0.1,0.2-0.2,0.3s-0.1,0.2-0.1,0.3c0,0.1,0,0.2,0.1,0.3
			c0,0.1,0.1,0.2,0.2,0.3L16.2,21.9z"/>
		<path class="st1" d="M33.7,40.3c-0.1-0.1-0.2-0.1-0.3-0.2c-0.1,0-0.2-0.1-0.3-0.1c-0.1,0-0.2,0-0.3,0.1c-0.1,0-0.2,0.1-0.3,0.2
			l-2.4,2.4c-0.1,0.1-0.1,0.2-0.2,0.3s-0.1,0.2-0.1,0.3c0,0.1,0,0.2,0.1,0.3c0,0.1,0.1,0.2,0.2,0.3c0.1,0.1,0.2,0.1,0.3,0.2
			c0.1,0,0.2,0.1,0.3,0.1c0.1,0,0.2,0,0.3-0.1s0.2-0.1,0.3-0.2l2.4-2.4c0.2-0.2,0.2-0.4,0.2-0.6S33.8,40.5,33.7,40.3z"/>
		<path class="st1" d="M36.8,45.1l-3.3,1.6c-0.2,0.1-0.3,0.2-0.4,0.4c-0.1,0.2-0.1,0.4-0.1,0.5c0,0.2,0.1,0.3,0.3,0.5
			c0.1,0.1,0.3,0.2,0.5,0.2c0.1,0,0.3,0,0.4-0.1l3.3-1.6c0.2-0.1,0.3-0.3,0.4-0.5c0.1-0.2,0.1-0.4,0-0.6s-0.3-0.3-0.5-0.4
			C37.2,45,37,45,36.8,45.1z"/>
		<path class="st1" d="M37.4,52.4l-3.3-0.8c-0.2-0.1-0.4,0-0.6,0.1c-0.2,0.1-0.3,0.3-0.4,0.5c-0.1,0.2,0,0.4,0.1,0.6
			c0.1,0.2,0.3,0.3,0.5,0.4l3.3,0.8c0.1,0,0.1,0,0.2,0c0.2,0,0.4-0.1,0.5-0.2c0.1-0.1,0.2-0.3,0.3-0.5c0-0.2,0-0.4-0.1-0.6
			C37.7,52.5,37.6,52.4,37.4,52.4L37.4,52.4z"/>
	</g>
</g>
</svg>
