<?xml version="1.0" encoding="utf-8"?>
<!-- Generator: Adobe Illustrator 26.0.0, SVG Export Plug-In . SVG Version: 6.00 Build 0)  -->
<svg version="1.1" id="Layer_1" xmlns="http://www.w3.org/2000/svg" xmlns:xlink="http://www.w3.org/1999/xlink" x="0px" y="0px"
	 viewBox="0 0 70.4 64.7" style="enable-background:new 0 0 70.4 64.7;" xml:space="preserve">
<style type="text/css">
	.st0{clip-path:url(#SVGID_00000088092356210239685300000017952787117362973344_);}
	.st1{fill:#568259;}
</style>
<g>
	<defs>
		<rect id="SVGID_1_" x="13" y="8.9" width="44.4" height="46.9"/>
	</defs>
	<clipPath id="SVGID_00000148623923765220969750000005987208854800152249_">
		<use xlink:href="#SVGID_1_"  style="overflow:visible;"/>
	</clipPath>
	<g style="clip-path:url(#SVGID_00000148623923765220969750000005987208854800152249_);">
		<path class="st1" d="M51,55.8c-0.9,0-1.8-0.3-2.5-0.7c-0.3-0.2-0.4-0.2-0.7,0c-1.5,0.9-3.6,0.6-4.7-0.8c-0.6-0.8-0.9-1.9-0.8-2.9
			c0-0.4,0.2-0.7,0.4-1c0.2-0.3,0.4-0.6,0.8-0.8c0.2-0.2,0.3-0.3-0.5-1.5c-0.2-0.4-0.5-0.8-0.6-1.1c0-0.1-0.1-0.2-0.1-0.3
			c0-0.1,0-0.2,0.1-0.3c0-0.1,0.1-0.2,0.2-0.3c0.1-0.1,0.2-0.1,0.3-0.2c0.1,0,0.2-0.1,0.3-0.1c0.1,0,0.2,0,0.3,0.1
			c0.1,0,0.2,0.1,0.2,0.2c0.1,0.1,0.1,0.2,0.2,0.3c0.1,0.3,0.3,0.6,0.5,0.9c0.3,0.5,0.7,1,0.8,1.6c0.2,0.8-0.1,1.5-0.7,2
			c-0.1,0.1-0.2,0.2-0.3,0.4c-0.1,0.1-0.1,0.3-0.2,0.5c-0.1,0.6,0.1,1.3,0.5,1.8c0.6,0.8,1.9,1,2.7,0.5c0.8-0.5,1.5-0.5,2.3,0
			c1.2,0.7,2.5,0.7,3.7-0.1c1.1-0.7,1.5-1.9,1.3-3.4c-0.2-1,0.3-1.5,0.8-2c1-0.8,1.1-2,0.4-2.9c-0.3-0.5-0.9-0.8-1.4-0.9
			c-0.3,0-0.5,0-0.8,0.1c-0.2,0.1-0.5,0.2-0.7,0.3c-1.4,1.1-3.2,1.4-5.3,0.9c-1.2-0.3-2.4-0.9-3.4-1.6c-0.2-0.1-0.3-0.3-0.3-0.5
			c0-0.2,0-0.4,0.1-0.6c0.1-0.2,0.3-0.3,0.5-0.3c0.2,0,0.4,0,0.6,0.1c0,0,4,2.9,6.8,0.7c0.4-0.3,0.8-0.5,1.2-0.6
			c0.4-0.1,0.9-0.2,1.4-0.1c0.5,0.1,1,0.2,1.4,0.5c0.4,0.3,0.8,0.6,1.1,1c1.2,1.6,0.9,3.6-0.6,5c-0.3,0.3-0.3,0.3-0.2,0.6
			c0.3,2.1-0.4,3.8-1.9,4.9C52.9,55.5,51.9,55.8,51,55.8z"/>
		<path class="st1" d="M28.5,48.5c-0.1,0-0.3,0-0.4-0.1c-0.1-0.1-0.2-0.2-0.3-0.3c-0.1-0.1-0.1-0.3-0.1-0.4c0-0.1,0-0.3,0.1-0.4
			c1.9-2.8,3.6-4.2,5.2-4.2c0.1,0,0.3,0,0.4,0.1c0.1,0,1.3,0.8,3.8,2.6c0.7,0.5,1.2,0.6,1.6,0.4c0.6-0.3,1-1.3,1.1-2.1
			c0.1-1.5,0.5-2.2,1.5-2.4l0.1,0c0-0.1,0-0.3,0-0.4c0-0.2-0.1-0.3,0-0.5c0-0.2,0.1-0.3,0.2-0.5c0.4-0.5,1.1-0.6,1.6-0.7
			c0.1-0.1,0.1-0.4-0.1-0.9c0-0.1-0.1-0.2-0.1-0.3c0-0.2,0-0.3,0.1-0.4c0.1-0.1,0.2-0.3,0.3-0.4c0.4-0.4,1.1-0.5,2.1-0.4
			c0.8,0.1,0.9,0,0.9-0.1c0,0,0.2-0.3-0.1-1.9c-0.1-0.5-0.2-0.9-0.4-1.3c-0.5-1.7-0.9-3,0.5-5.3c0.8-1.4,1.9-4.7,0.9-8.3
			c-1-3.3-3.5-6.1-7.7-8.3c-4.8-2.5-9.7-2.5-13.5,0.1c-4.1,2.8-6.2,8.2-5.5,14.4c1.1,9.7-3.2,12.8-5.5,14.4
			c-0.3,0.2-0.6,0.5-0.8,0.6c-0.2,0.1-0.4,0.2-0.6,0.2c-0.2,0-0.4-0.1-0.5-0.3c-0.1-0.2-0.2-0.4-0.2-0.6s0.1-0.4,0.3-0.5
			c0.3-0.2,0.6-0.5,1-0.7c2.2-1.6,5.8-4.2,4.9-13c-0.7-6.8,1.6-12.7,6.2-15.8C29.5,8.3,35,8.2,40.3,11c4.5,2.3,7.3,5.4,8.4,9.2
			c1.2,4.1-0.1,7.9-1,9.5c-1,1.7-0.8,2.6-0.3,4.2c0.1,0.4,0.2,0.8,0.4,1.3c0.3,1.2,0.5,2.5-0.2,3.2C47,39,46.1,39,45.3,38.9
			c-0.2,0-0.4,0-0.7,0c0.2,0.8,0,1.3-0.1,1.6c-0.2,0.4-0.6,0.7-0.9,0.7c-0.1,0-0.2,0-0.3,0c-0.1,0-0.2,0-0.3,0
			c0.1,0.4,0,0.9-0.2,1.3c-0.1,0.2-0.2,0.3-0.4,0.4c-0.1,0.1-0.3,0.2-0.5,0.3c-0.1,0-0.1,0-0.2,0.1c0,0-0.1,0-0.1,0
			c0,0.1-0.1,0.3-0.2,1c-0.1,1.3-0.7,2.8-1.9,3.4c-0.7,0.3-1.8,0.5-3.2-0.6c-1.9-1.4-3-2.1-3.4-2.4c-1,0.2-2.4,1.4-3.8,3.6
			c-0.1,0.1-0.2,0.2-0.3,0.2C28.7,48.5,28.6,48.5,28.5,48.5z"/>
	</g>
</g>
</svg>
