<?xml version="1.0" encoding="utf-8"?>
<!-- Generator: Adobe Illustrator 26.0.0, SVG Export Plug-In . SVG Version: 6.00 Build 0)  -->
<svg version="1.1" id="Layer_1" xmlns="http://www.w3.org/2000/svg" xmlns:xlink="http://www.w3.org/1999/xlink" x="0px" y="0px"
	 viewBox="0 0 512 512" style="enable-background:new 0 0 512 512;" xml:space="preserve">
<style type="text/css">
	.st0{fill:#F5F5F5;}
	.st1{display:none;}
	.st2{display:inline;fill:#5D618E;}
	.st3{display:none;fill:#EAB77E;}
	.st4{display:none;fill:#D6D6D8;}
	.st5{display:none;fill:#D64E3C;}
	.st6{display:none;fill:#F0582F;}
	.st7{display:none;fill:#FFFFFF;}
	.st8{display:none;fill:#FCFCFD;}
	.st9{display:none;fill:#F1F3F7;}
	.st10{display:none;fill:#DEDEDF;}
	.st11{display:inline;fill:#362219;}
	.st12{display:none;fill:#202125;}
	.st13{display:none;fill:#949695;}
	.st14{display:none;fill:#565656;}
	.st15{display:none;fill:#5D618E;}
	.st16{display:none;fill:#494E77;}
	.st17{display:none;fill:#646B79;}
	.st18{fill-rule:evenodd;clip-rule:evenodd;fill:#FED2A5;}
	.st19{fill-rule:evenodd;clip-rule:evenodd;fill:#45CFD1;}
	.st20{fill-rule:evenodd;clip-rule:evenodd;fill:#9D5944;}
	.st21{fill-rule:evenodd;clip-rule:evenodd;fill:#FEBD95;}
	.st22{fill-rule:evenodd;clip-rule:evenodd;fill:#FFFFFF;}
</style>
<g>
	<circle class="st0" cx="256" cy="256" r="254.6"/>
	<g class="st1">
		<path class="st2" d="M212.3,240.1v-8.5c-1,0-24.8,0.3-41.7,29.2c4.1,2.7,7.1,4.4,7.1,4.4C192.3,240.7,211.6,240.1,212.3,240.1z"/>
		<path class="st2" d="M321.1,247.9l-3.4-6.1l-19.3-3.1l13.2,13.2L321.1,247.9z"/>
		<path class="st2" d="M342.5,262.4c-10.2-17.3-23.7-20.3-24.8-20.7l-1.7,8.5c0.3,0,8.1,1.7,15.9,11.9c0.7,1,1.4,1.7,2,2.7
			L342.5,262.4z"/>
	</g>
	
		<ellipse transform="matrix(0.1299 -0.9915 0.9915 0.1299 106.8153 483.5377)" class="st3" cx="328.9" cy="180.9" rx="28.8" ry="9.8"/>
	
		<ellipse transform="matrix(0.9915 -0.1299 0.1299 0.9915 -22.0126 25.1705)" class="st3" cx="181.9" cy="181.3" rx="9.8" ry="28.8"/>
	<path class="st4" d="M186.8,291.9h138v188.9h-138L186.8,291.9z"/>
	<path class="st5" d="M274,290.9l-18.3,1l-18.3-1l-9.5,11.2c0,0,14.9,19,17.3,27.8h10.5h10.5c2.4-9.2,17.3-27.8,17.3-27.8L274,290.9
		z"/>
	<path class="st6" d="M210.9,506.6c14.6,2.7,29.5,4.1,45.1,4.1c15.3,0,30.2-1.4,44.8-4.1l-34.2-176.7h-21.4L210.9,506.6z"/>
	<path class="st7" d="M439.8,330.3c-4.1-15.3-14.9-27.8-29.5-33.9l-85.8-34.9l-4.1,24.8v37.6l-37,113.6l-68.2,69.8
		c13.2,2,26.8,3.4,40.7,3.4c83.4,0,157.7-40.3,204.1-102.4L439.8,330.3z"/>
	<path class="st8" d="M295.3,243.5v21.7c0,0-22.4,20-39.3,26.8c0,0,41,32.6,42.4,51.5c0,0,21.7-57,8.8-93.6L295.3,243.5z"/>
	<path class="st9" d="M295.3,243.5l11.5,6.4c0,0,14.2,83.8-51.2,206.5L234.3,493c0,0,76.3-52.6,101-86.1L324.2,375l31.2,3.1
		c0,0-4.1-95.6-25.4-118.7S295,235.7,295,235.7L295.3,243.5z"/>
	<path class="st9" d="M228.5,437.4l-37-113.6v-37.6l-4.1-24.8l-85.8,34.9C87.1,302.5,76,315,72.2,330.3l-20.3,78
		C98.3,470.3,172.6,510.6,256,510.6c12.2,0,24.1-1,35.9-2.7L228.5,437.4z"/>
	<path class="st9" d="M216.7,243.5v21.7c0,0,22.4,20,39.3,26.8c0,0-41,32.6-42.4,51.5c0,0-21.7-57-8.8-93.6L216.7,243.5z"/>
	<path class="st10" d="M216.7,243.5l-11.5,6.4c0,0-14.2,83.8,51.2,206.5l21.4,36.6c0,0-76.3-52.6-101-86.1l11.2-31.9l-31.2,3.1
		c0,0,4.1-95.6,25.4-118.7s34.9-23.7,34.9-23.7L216.7,243.5z"/>
	<g class="st1">
		<path class="st11" d="M167.2,155.3c0,4.4,2,12.2,3.1,16.6l13.6-3.7c0.7-26.4,9.5-52.9,25.1-74.3c1.4-2,2.7-4.1,2.4-6.4l20.3-42.4
			c-1.4-8.1-8.1-14.9-15.9-15.9c-8.1-1.4-54.6,0-49.8,85.8c0,3.1-2,11.5-2.4,12.9c-1.7,5.4,1.7,11.2,3.1,17
			C167.2,147.8,166.8,151.6,167.2,155.3L167.2,155.3z"/>
		<path class="st11" d="M189.9,43.4c-3.7,6.4-29.8,114.6-17,141.1c1.7-4.7-0.3-11.2,2.7-14.6c2.4-2.7,6.4,0,7.5,4.1
			s0.3,8.5-0.3,12.5c1,2.7,4.4,1.7,5.4-1c1-2.7,0.7-6.1,0.3-9.5c-0.7-11.2,0.7-29.2,3.1-39.7c1-4.4,3.7-21.7,5.1-25.8V43.4
			L189.9,43.4z"/>
	</g>
	<path class="st12" d="M415,417.4c3.4,4.1,2.7,9.8-1,13.2c-4.1,3.1-16.3,7.5-19.7,3.4s3.7-15.3,7.8-18.3
		C406.2,412.7,411.6,413.3,415,417.4z"/>
	<path class="st12" d="M300.8,426.6c-2.7,4.4-1,10.2,3.1,12.9c4.4,2.4,17.3,4.7,20,0.3s-6.1-14.6-10.5-17
		C308.9,420.1,303.5,421.8,300.8,426.6L300.8,426.6z"/>
	<path class="st13" d="M394.3,429.9c-10.5,8.5-19.7,11.5-26.4,8.8c-1.7-0.7-3.4-1.7-4.7-3.1c7.1-12.9,7.5-31.9,7.5-39.3
		c0-9.5,3.4-18.6,6.8-26.8l-6.4-2c-3.4,8.5-6.8,18.3-6.8,28.8c0,6.4-0.3,22.7-5.4,33.9c-6.8-10.2-9.5-26.4-10.9-32.6
		c-1.7-10.2-6.8-19.3-11.5-27.1l-6.1,3.1c4.4,7.5,9.2,16.3,10.9,25.4c1.4,7.5,4.4,26.1,13.6,37.6c-1.4,1.4-2.7,2.7-4.4,3.7
		c-6.4,3.7-15.6,2.4-27.5-4.4l-3.4,5.8c9.5,5.4,18,7.8,24.8,7.1c3.4-0.3,6.4-1.4,9.2-2.7c2-1.4,4.1-2.7,5.4-4.7
		c2,1.7,4.1,2.7,6.1,3.7c3.1,1,6.1,1.7,9.5,1.4c7.1-0.7,14.9-4.4,23.4-11.2L394.3,429.9z"/>
	<path class="st14" d="M363.1,435.7l-3.7,5.4l2,1.4L363.1,435.7z"/>
	<path class="st15" d="M353.7,311.9c-0.3-23.4-5.1-39.3-11.2-49.8l-8.5,2.7c5.4,8.5,10.9,23.1,11.2,47.1L353.7,311.9z"/>
	<path class="st16" d="M344.8,301.4c0.3,3.4,0.3,6.8,0.3,10.9h8.5c0-3.7-0.3-7.5-0.3-10.9H344.8z"/>
	
		<ellipse transform="matrix(0.9985 -5.497181e-02 5.497181e-02 0.9985 -23.4817 9.2032)" class="st10" cx="155.5" cy="431.4" rx="28.5" ry="26.1"/>
	
		<ellipse transform="matrix(0.9985 -5.497181e-02 5.497181e-02 0.9985 -23.0625 9.1808)" class="st17" cx="155.4" cy="423.8" rx="26.8" ry="24.8"/>
	
		<ellipse transform="matrix(0.9985 -5.497181e-02 5.497181e-02 0.9985 -23.0301 9.2161)" class="st9" cx="156" cy="423.2" rx="23.1" ry="21.4"/>
	<path class="st15" d="M170.9,260.7c-1,1.7-2,3.4-2.7,5.1c-12.9,26.1-18,72.9-15.3,144.1l8.5-0.3c-2.7-68.5,2.4-115.6,14.2-139.7
		c0.7-1.7,1.7-3.1,2.4-4.4C178,265.2,175,263.1,170.9,260.7L170.9,260.7z"/>
	
		<ellipse transform="matrix(0.9985 -5.497181e-02 5.497181e-02 0.9985 -22.6214 9.288)" class="st17" cx="157.5" cy="415.8" rx="15.3" ry="13.6"/>
	
		<ellipse transform="matrix(0.9985 -5.497181e-02 5.497181e-02 0.9985 -22.6214 9.2882)" class="st9" cx="157.5" cy="415.8" rx="12.2" ry="10.9"/>
	<path class="st15" d="M372.6,317c-6.8-7.5-15.3-11.5-22.7-11.2l-2,0.3c-7.5,1-15.3,6.4-20.7,14.6c-7.5,11.2-9.2,25.4-4.7,38.3
		c1.4,4.4,4.4,9.2,7.1,14.2c0.7,1,1.7,1.4,2.4,0.7l4.1-2c1-0.3,1.4-1.7,0.7-2.7v-0.3c-2.7-4.7-5.1-8.8-6.4-12.5
		c-3.4-10.5-2-21.7,3.7-30.9c4.1-6.4,10.2-10.5,15.3-10.9c5.4-0.3,11.9,2.7,17,8.5c7.5,8.1,10.5,19,8.8,29.8
		c-0.7,3.7-2.4,8.5-4.4,13.6v0.3c-0.3,1,0,2.4,1.4,2.4l4.4,1.4c1,0.3,2-0.3,2.4-1c2-5.4,4.1-10.5,4.7-15.3
		C385.5,340.4,381.8,327.2,372.6,317L372.6,317z"/>
</g>
<g id="Layer_x0020_1">
	<path class="st18" d="M254.7,270.3c-31.9,0-57.8-25.9-57.8-57.8v-43.7c0-2.4,1.9-4.3,4.3-4.3c0.9,0,1.7,0.2,2.4,0.9l42.2-22.9
		l0.4-0.2l0.4,0.2l58.9,33c0.9-0.6,1.7-1.1,2.8-1.1c2.4,0,4.3,1.9,4.3,4.3v33.8C312.5,244.4,286.6,270.3,254.7,270.3z"/>
	<path class="st19" d="M381.7,437.8h-254c-2.4,0-4.3-1.9-4.3-4.3v-63.6c0-46.7,28.3-56.1,53.3-64.2c12-4.1,23.3-7.9,31.7-15.2
		l0.2,0.2c0-0.2,0.2-0.6,0.4-0.9c0.4-0.4,1.1-0.9,1.7-1.1l43.9,43.9l43.9-43.9c0.6,0.2,1.1,0.6,1.7,1.1c8.4,7.7,19.9,11.6,32.3,15.8
		c25.1,8.1,53.3,17.6,53.3,64.2v63.6C386,435.8,384.1,437.8,381.7,437.8z"/>
	<path class="st20" d="M211.3,250.6c-9-10.1-14.3-23.3-14.3-38.1v-38.1c13.5-1.9,35.1-7.7,50.5-24.8c18,19.9,48.2,27.2,65.1,30v33
		c0,14.6-5.4,28.1-14.3,38.1c-0.4,0.4-5.4,5.8-10.3,9.2c22.3-1.1,59.5-4.5,70-13.5c1.7-1.5,3.9-4.3,3.4-7.5
		c-0.2-3.4-2.6-6.4-7.1-8.8c-0.9-0.4-1.5-0.6-2.4-0.4c-0.6,0-15.8,0.9-19.1-20.6c-1.7-10.3-1.9-21.4-2.1-32.3
		c-0.4-24.6-1.1-50.1-18-66.2c-1.7-1.7-4.3-1.7-6,0c-0.4,0.4-0.9,1.1-0.9,1.5H203.6c0-0.4-0.4-1.1-0.9-1.5c-1.7-1.7-4.3-1.7-6,0
		c-16.9,16.1-17.6,41.5-18,66.2c-0.2,10.9-0.4,22.1-2.1,32.3c-3,20.8-17.3,20.6-19.1,20.6c-0.9,0-1.5,0-2.4,0.4
		c-4.5,2.4-6.9,5.4-7.1,8.8c-0.4,3.2,1.7,6,3.4,7.5c10.5,9.2,47.8,12.4,70,13.5C217.3,257,215.1,254.3,211.3,250.6z M352.6,239.7
		c0-0.2,0.2-0.2,0.2-0.2L352.6,239.7z"/>
	<path class="st18" d="M254.7,332.6l43.9-43.9l-7.7-28.9c-1.1,0-2.1,0-3,0c-9.4,6.6-20.8,10.5-33.2,10.5s-23.8-3.9-33.2-10.5
		c-1.3,0-2.4,0-3.6-0.2l-7.9,29.6c0.2-0.2,0.6-0.4,0.9-0.4L254.7,332.6z"/>
	<path class="st21" d="M292,264.1l-1.1-4.3c-1.1,0-2.1,0-3,0c-9.4,6.6-20.8,10.5-33.2,10.5s-23.8-3.9-33.2-10.5
		c-1.3,0-2.4,0-3.6-0.2l-1.1,3.9c10.5,7.9,23.8,12.6,37.9,12.6C268.6,276.1,281.5,271.6,292,264.1z"/>
	<path class="st19" d="M305.1,124.5H204.4c-4.9,0-9-4.3-9-9.2V81.4c0-5.1,4.1-9.2,9-9.2h100.6c4.9,0,9,4.1,9,9.2v33.8
		C314,120.2,310,124.5,305.1,124.5z"/>
	<g>
		<path class="st22" d="M254.7,111.8c-2.4,0-4.3-1.9-4.3-4.3V89.1c0-2.4,1.9-4.3,4.3-4.3c2.4,0,4.3,1.9,4.3,4.3v18.4
			C259,109.9,257.1,111.8,254.7,111.8z"/>
		<path class="st22" d="M263.9,102.9l-18.4-0.4c-2.4,0-4.3-2.1-4.3-4.5c0-2.4,1.9-4.1,4.3-4.1l18.4,0.4c2.4,0,4.3,1.9,4.3,4.3
			S266.3,102.9,263.9,102.9z"/>
	</g>
</g>
</svg>
