<?xml version="1.0" encoding="utf-8"?>
<!-- Generator: Adobe Illustrator 26.0.0, SVG Export Plug-In . SVG Version: 6.00 Build 0)  -->
<svg version="1.1" id="Layer_1" xmlns="http://www.w3.org/2000/svg" xmlns:xlink="http://www.w3.org/1999/xlink" x="0px" y="0px"
	 viewBox="0 0 46 55" style="enable-background:new 0 0 46 55;" xml:space="preserve">
<style type="text/css">
	.st0{fill:#568259;}
</style>
<g id="_x31_7_Healthcare">
	<g>
		<path class="st0" d="M6.1,41.4h4.3c1.1,0,2-0.8,2.2-1.9c0.8,0,1.9-0.1,3.3,0.3l6.4,2.1c1.2,0.4,2.7,0.3,3.9-0.3l13-6.8
			c1.1-0.5,1.7-1.8,1.2-2.9c-0.5-1.1-1.8-1.7-2.9-1.2l-7.6,3.3c0.1-1.3-0.9-2.2-2-2.3c0,0,0,0,0,0h0c0,0,0,0,0,0c0,0,0,0,0,0h-5.3
			L18.3,30c-0.9-0.4-1.8-0.6-2.8-0.6h-3.1c-0.2-1.1-1.1-1.9-2.2-1.9H6.1c-0.3,0-0.5,0.2-0.5,0.5v12.8C5.5,41.2,5.8,41.4,6.1,41.4
			L6.1,41.4z M17.9,31c4.4,2,4.2,2,4.4,2h5.5c0.5,0,1,0.5,1,1c0,0.6-0.5,1-1,1h-6.5c-0.3,0-0.5,0.2-0.5,0.5c0,0.3,0.2,0.5,0.5,0.5
			h6.6c0.3,0,0.7-0.1,1-0.3l9.1-4c0.6-0.2,1.3,0,1.5,0.6c0.2,0.6,0,1.3-0.7,1.5l-13,6.8c-0.9,0.5-2,0.6-3,0.2l-6.4-2.1
			c-1.6-0.5-2.8-0.4-3.6-0.4v-8h3C16.3,30.5,17.1,30.6,17.9,31L17.9,31z M6.6,28.6h3.7c0.6,0,1.1,0.5,1.1,1.1v9.5
			c0,0.6-0.5,1.1-1.1,1.1H6.6V28.6z"/>
		<path class="st0" d="M25.6,29.7c0.1,0.1,0.2,0.1,0.3,0.1s0.2,0,0.3-0.1c0.4-0.3,9.6-6.7,9.6-12c0-3.1-2.6-5.7-5.7-5.7
			c-1.6,0-3.1,0.7-4.2,1.9c-1.1-1.2-2.6-1.9-4.2-1.9c-3.1,0-5.7,2.6-5.7,5.7C16.1,23,25.3,29.4,25.6,29.7L25.6,29.7z M21.8,13.2
			c1.5,0,2.9,0.7,3.8,2c0.1,0.1,0.3,0.2,0.4,0.2h0c0.2,0,0.3-0.1,0.4-0.2c0.9-1.2,2.3-2,3.8-2c2.5,0,4.6,2.1,4.6,4.6
			c0,4.1-7.2,9.7-8.8,10.8c-1.6-1.2-8.8-6.7-8.8-10.8C17.2,15.2,19.2,13.2,21.8,13.2z"/>
	</g>
</g>
</svg>
