<?xml version="1.0" encoding="utf-8"?>
<!-- Generator: Adobe Illustrator 26.0.0, SVG Export Plug-In . SVG Version: 6.00 Build 0)  -->
<svg version="1.1" id="Layer_1" xmlns="http://www.w3.org/2000/svg" xmlns:xlink="http://www.w3.org/1999/xlink" x="0px" y="0px"
	 viewBox="0 0 512 512" style="enable-background:new 0 0 512 512;" xml:space="preserve">
<style type="text/css">
	.st0{fill:#FFFFFF;}
</style>
<path class="st0" d="M424.4,346.7L369.8,298c-11.3-10.1-28.1-10.6-39.9-1.1c-5.9,4.7-13.3,10.6-22.2,17.7
	c-6.7,5.4-15.8,5.9-23.1,1.2c-20.1-12.9-36.3-25.7-49.7-39c-13.4-13.4-26.2-29.6-39-49.7c-4.7-7.2-4.2-16.3,1.2-23.1
	c7.2-8.9,13-16.3,17.7-22.2c9.4-11.8,8.9-28.6-1.1-39.9L165,87.4c-5.9-6.6-13.6-10.1-22.5-10.4c-8.7-0.1-16.7,3.2-22.8,9.5l-27,27.9
	l0,0c-20.5,21.2-20.7,55.5-0.6,99.3c17.2,37.4,48.2,79.5,87.3,118.7s81.3,70.1,118.7,87.3c21.6,9.9,41,15,57.6,15
	c16.9,0,30.9-5.2,41.6-15.5l27.9-27c6.3-6.1,9.6-14,9.4-22.8C434.5,360.4,431,352.6,424.4,346.7L424.4,346.7z M417.5,384l-27.9,27
	c-22.2,21.5-59.5,11-86.8-1.6c-36.2-16.6-77.2-46.8-115.4-85s-68.4-79.2-85-115.4c-12.6-27.4-23.1-64.6-1.6-86.8l27-27.9
	c4-4.1,8.9-6.1,14.6-6c5.7,0.1,10.6,2.3,14.4,6.6l48.7,54.5c6.5,7.2,6.7,17.9,0.7,25.5c-4.7,5.9-10.6,13.3-17.7,22.2
	c-8.4,10.6-9.2,24.7-1.9,36.1c13.3,20.8,26.6,37.7,40.5,51.6c14,14,30.9,27.2,51.6,40.5c11.3,7.3,25.5,6.5,36-1.9
	c8.9-7.2,16.3-13,22.2-17.7c7.6-6,18.3-5.7,25.5,0.7l54.5,48.7c4.3,3.8,6.5,8.7,6.6,14.4C423.7,375.2,421.6,380.1,417.5,384
	L417.5,384z M129,206.2c1.4,2.8,0.3,6.1-2.4,7.5c-0.8,0.4-1.7,0.6-2.6,0.6c-2.1,0-4-1.1-5-3c-9.4-18.6-23.6-52.7-12.7-73.2
	c1.2-2.3,2.7-4.3,4.5-6.2c2.1-2.2,5.7-2.3,7.9-0.1s2.3,5.7,0.1,7.9c-1.1,1.1-2,2.3-2.7,3.7C107.1,160.5,123.7,195.8,129,206.2z"/>
</svg>
