<?xml version="1.0" encoding="utf-8"?>
<!-- Generator: Adobe Illustrator 26.0.0, SVG Export Plug-In . SVG Version: 6.00 Build 0)  -->
<svg version="1.1" id="Layer_1" xmlns="http://www.w3.org/2000/svg" xmlns:xlink="http://www.w3.org/1999/xlink" x="0px" y="0px"
	 viewBox="0 0 46 55" style="enable-background:new 0 0 46 55;" xml:space="preserve">
<style type="text/css">
	.st0{fill:#568259;}
</style>
<g id="g1349" transform="translate(479.456,388.4375)">
	<path class="st0" d="M-444.3-349.5c-0.2,0-0.5-0.1-0.7-0.2c-0.4-0.3-0.5-0.7-0.5-1.1l0.5-2.8l-2-2c-0.3-0.3-0.4-0.8-0.3-1.2
		c0.1-0.4,0.5-0.7,0.9-0.8l2.8-0.4l1.2-2.5c0.2-0.4,0.6-0.6,1-0.6s0.8,0.2,1,0.6l1.2,2.5l2.8,0.4c0.4,0.1,0.8,0.4,0.9,0.8
		c0.1,0.4,0,0.9-0.3,1.2c0,0,0,0,0,0l-2,2l0.5,2.8c0.1,0.4-0.1,0.9-0.5,1.1c-0.4,0.3-0.8,0.3-1.2,0.1l-2.5-1.3l-2.5,1.3
		C-443.9-349.6-444.1-349.5-444.3-349.5z M-441.3-352.3c0.2,0,0.4,0,0.5,0.1l2.2,1.1l-0.4-2.4c-0.1-0.4,0.1-0.7,0.3-1l1.8-1.7
		l-2.4-0.4c-0.4-0.1-0.7-0.3-0.9-0.6l-1.1-2.2l-1.1,2.2c-0.2,0.3-0.5,0.6-0.9,0.6l-2.4,0.4l1.8,1.7c0.3,0.3,0.4,0.6,0.3,1l-0.4,2.4
		l2.2-1.1C-441.7-352.3-441.5-352.3-441.3-352.3z M-436.1-356L-436.1-356L-436.1-356z"/>
</g>
<g id="g1353" transform="translate(146.7207,388.4375)">
	<path class="st0" d="M-141.9-349.5c-0.2,0-0.5-0.1-0.7-0.2c-0.4-0.3-0.5-0.7-0.5-1.1l0.5-2.8l-2-2c-0.3-0.3-0.4-0.8-0.3-1.2
		c0.1-0.4,0.5-0.7,0.9-0.8l2.8-0.4l1.2-2.5c0.2-0.4,0.6-0.6,1-0.6c0,0,0,0,0,0c0.4,0,0.8,0.2,1,0.6l1.2,2.5l2.8,0.4
		c0.4,0.1,0.8,0.4,0.9,0.8c0.1,0.4,0,0.9-0.3,1.2l-2,2l0.5,2.8c0.1,0.4-0.1,0.9-0.5,1.1c-0.4,0.3-0.8,0.3-1.2,0.1l-2.5-1.3l-2.5,1.3
		C-141.5-349.6-141.7-349.5-141.9-349.5z M-136.1-350.6L-136.1-350.6L-136.1-350.6z M-143.2-356.2l1.8,1.7c0.3,0.3,0.4,0.6,0.3,1
		l-0.4,2.4l2.2-1.1c0.3-0.2,0.7-0.2,1.1,0l2.2,1.1l-0.4-2.4c-0.1-0.4,0.1-0.7,0.3-1l1.8-1.7l-2.4-0.4c-0.4-0.1-0.7-0.3-0.9-0.6
		l-1.1-2.2l-1.1,2.2c-0.2,0.3-0.5,0.6-0.9,0.6L-143.2-356.2z"/>
</g>
<path class="st0" d="M23,13.9c0.8,0,1.5,0.4,1.8,1.1l2.9,5.9c0,0,0,0,0.1,0l6.6,1c0.8,0.1,1.4,0.6,1.6,1.4c0.2,0.7,0,1.5-0.5,2
	L32,28.7c-0.4,0.4-1,0.4-1.4,0c-0.4-0.4-0.4-1,0-1.4l3.4-3.3c0,0,0,0,0-0.1c0,0,0,0-0.1-0.1l-6.6-1c-0.7-0.1-1.2-0.5-1.5-1.1
	l-2.9-5.9c0,0,0,0-0.1,0c0,0-0.1,0-0.1,0L20,21.8c-0.3,0.6-0.9,1-1.5,1.1l-6.6,1c0,0,0,0-0.1,0.1c0,0,0,0.1,0,0.1l4.7,4.6
	c0.5,0.5,0.7,1.1,0.6,1.8l-1.1,6.5c0,0,0,0,0,0.1c0,0,0.1,0,0.1,0l5.9-3.1c0.6-0.3,1.3-0.3,1.9,0l5.9,3.1c0,0,0,0,0.1,0
	c0,0,0-0.1,0-0.1l-0.7-4.3c-0.1-0.5,0.3-1,0.8-1.1c0.5-0.1,1,0.3,1.1,0.8l0.7,4.3c0.1,0.8-0.2,1.5-0.8,2c-0.3,0.3-0.8,0.4-1.2,0.4
	c-0.3,0-0.6-0.1-0.9-0.2L23,35.6c0,0,0,0-0.1,0l-5.9,3.1c-0.7,0.4-1.5,0.3-2.1-0.2c-0.6-0.4-0.9-1.2-0.8-2l1.1-6.5c0,0,0,0,0-0.1
	l-4.7-4.6c-0.5-0.5-0.7-1.3-0.5-2c0.2-0.7,0.9-1.2,1.6-1.4l6.6-1c0,0,0,0,0.1,0l2.9-5.9C21.5,14.3,22.2,13.9,23,13.9"/>
</svg>
