<?xml version="1.0" encoding="utf-8"?>
<!-- Generator: Adobe Illustrator 26.0.0, SVG Export Plug-In . SVG Version: 6.00 Build 0)  -->
<svg version="1.1" id="Layer_1" xmlns="http://www.w3.org/2000/svg" xmlns:xlink="http://www.w3.org/1999/xlink" x="0px" y="0px"
	 viewBox="0 0 67 67" style="enable-background:new 0 0 67 67;" xml:space="preserve">
<style type="text/css">
	.st0{clip-path:url(#SVGID_00000077299253317024976940000007149058711743952299_);}
	.st1{fill:#568259;}
</style>
<g>
	<g>
		<defs>
			<rect id="SVGID_1_" x="3.4" y="3.4" width="60.1" height="60.1"/>
		</defs>
		<clipPath id="SVGID_00000129182634496448325030000014803371421480536978_">
			<use xlink:href="#SVGID_1_"  style="overflow:visible;"/>
		</clipPath>
		<g style="clip-path:url(#SVGID_00000129182634496448325030000014803371421480536978_);">
			<path class="st1" d="M12.4,63.6H6.1c-0.8,0-1.4-0.3-1.9-0.8s-0.8-1.2-0.8-1.9V47.7c0-0.1,0-0.2,0.1-0.3c0.1-0.1,0.2-0.1,0.3-0.1
				s0.2,0,0.3,0.1s0.1,0.2,0.1,0.3v13.2c0,0.6,0.2,1,0.6,1.4c0.4,0.4,0.9,0.6,1.4,0.6h6.3c0.3,0,0.5-0.1,0.8-0.2
				c0.3-0.1,0.5-0.3,0.7-0.5c0.2-0.2,0.3-0.4,0.5-0.7c0.1-0.3,0.2-0.5,0.2-0.8V34.5c0-0.6-0.2-1-0.6-1.4c-0.4-0.4-0.9-0.6-1.4-0.6
				H6.1c-0.6,0-1,0.2-1.4,0.6c-0.4,0.4-0.6,0.9-0.6,1.4v9.1c0,0.1,0,0.2-0.1,0.3C3.9,44,3.8,44,3.7,44c-0.1,0-0.2,0-0.3-0.1
				c0-0.1,0-0.2,0-0.3v-9.1c0-0.8,0.3-1.4,0.8-1.9c0.5-0.5,1.1-0.8,1.9-0.8h6.3c0.8,0,1.4,0.3,1.9,0.8c0.5,0.5,0.8,1.2,0.8,1.9v26.3
				c0,0.8-0.3,1.4-0.8,1.9C13.8,63.3,13.1,63.6,12.4,63.6z"/>
			<path class="st1" d="M44.2,62.6H25.1c-2.8,0-4.7-1.6-5.8-2.6c-0.2-0.1-0.3-0.3-0.5-0.4c-0.6-0.5-1.2-0.7-2-0.7h-2.1
				c-0.1,0-0.2,0-0.3-0.1s-0.1-0.2-0.1-0.3v-22c0-0.1,0-0.2,0.1-0.3s0.2-0.1,0.3-0.1c0.4,0,0.9,0,1.2,0c3.1,0,5.1,0.1,7.3-2.7
				c1.1-1.4,2.5-4.1,2.5-8.9v-4c0-0.5,0.2-0.9,0.5-1.2c0.3-0.3,0.8-0.5,1.2-0.5l0,0c1,0,2,0.2,3,0.7c1,0.4,1.7,1,2.4,1.8
				c1.3,1.5,2,3.8,1.9,7c0,1.2-0.1,2.9-0.3,4.4c-0.1,0.6,0,1.1,0.3,1.7c0.1,0.2,0.3,0.7,0.4,1h9.2c0.1,0,0.2,0,0.3,0.1
				c0.1,0.1,0.1,0.2,0.1,0.3s0,0.2-0.1,0.3s-0.2,0.1-0.3,0.1h-9.4c-0.1,0-0.2,0-0.2-0.1c-0.1,0-0.1-0.1-0.1-0.2
				c-0.1-0.3-0.3-1-0.4-1.1c-0.3-0.7-0.4-1.3-0.3-2.1c0.2-1.4,0.3-3.1,0.3-4.3c0.1-3-0.5-5.1-1.7-6.5c-0.6-0.7-1.3-1.2-2.2-1.6
				s-1.7-0.6-2.7-0.6c-0.3,0-0.5,0.1-0.7,0.3c-0.2,0.2-0.3,0.5-0.3,0.8v4c0,5-1.4,7.8-2.7,9.3c-2.5,3.1-4.7,3.1-7.8,3
				c-0.3,0-0.6,0-0.9,0v21.4h1.7c0.9,0,1.7,0.3,2.4,0.9c0.1,0.1,0.3,0.3,0.5,0.4c1,1,2.9,2.5,5.3,2.5h19.1c0.1,0,0.2,0,0.3,0.1
				s0.1,0.2,0.1,0.3c0,0.1,0,0.2-0.1,0.3C44.4,62.6,44.3,62.6,44.2,62.6L44.2,62.6z"/>
			<path class="st1" d="M42.2,31c-0.4,0-0.9-0.1-1.2-0.3c-0.4-0.2-0.8-0.5-1-0.8c-0.3-0.3-0.5-0.7-0.6-1.1c-0.1-0.4-0.1-0.9-0.1-1.2
				l0.9-5.2c0.1-0.4,0-0.7-0.1-1c-0.1-0.4-0.3-0.7-0.6-0.9l-3.8-3.7c-0.4-0.4-0.7-0.9-0.8-1.3c-0.1-0.6-0.1-1,0.1-1.6s0.5-1,0.9-1.3
				s1-0.6,1.4-0.7l5.2-0.8c0.4-0.1,0.7-0.2,1-0.4c0.3-0.2,0.5-0.5,0.7-0.8l2.4-4.8c0.2-0.5,0.6-0.9,1-1.1c0.6-0.3,1.1-0.5,1.6-0.5
				c0.6,0,1,0.2,1.5,0.5c0.5,0.3,0.9,0.7,1,1.1l2.4,4.8c0.2,0.3,0.4,0.6,0.7,0.8s0.6,0.4,1,0.4l5.2,0.8c0.6,0.1,1,0.3,1.4,0.7
				c0.4,0.4,0.8,0.8,0.9,1.3c0.2,0.5,0.2,1,0.1,1.6c-0.1,0.6-0.4,1-0.8,1.3l-3.8,3.7c-0.3,0.3-0.5,0.6-0.6,0.9
				c-0.1,0.4-0.1,0.7-0.1,1v0.2v0.1c0,0,0,0.1-0.1,0.1L58,22.8c0,0-0.1,0-0.1,0.1c-0.1,0-0.2,0-0.3-0.1s-0.1-0.1-0.2-0.2v-0.2
				c-0.1-0.5,0-1,0.1-1.4c0.2-0.5,0.4-0.9,0.8-1.1l3.8-3.7c0.3-0.3,0.5-0.7,0.6-1c0.1-0.4,0.1-0.8,0-1.2c-0.1-0.4-0.4-0.8-0.7-1
				c-0.3-0.3-0.7-0.5-1-0.5l-5.2-0.8c-0.5-0.1-0.9-0.3-1.2-0.5c-0.4-0.3-0.7-0.7-0.9-1l-2.4-4.8c-0.2-0.4-0.5-0.7-0.8-0.9
				c-0.4-0.2-0.8-0.3-1.1-0.3s-0.8,0.1-1.1,0.3c-0.4,0.2-0.7,0.5-0.9,0.9l-2.4,4.8c-0.2,0.4-0.5,0.8-0.9,1s-0.9,0.5-1.2,0.5
				l-5.2,0.8c-0.4,0.1-0.8,0.2-1,0.5c-0.3,0.3-0.6,0.6-0.7,1c-0.1,0.4-0.1,0.8,0,1.2s0.3,0.8,0.6,1l3.8,3.7c0.4,0.3,0.6,0.8,0.8,1.1
				c0.2,0.5,0.2,1,0.1,1.4l-0.9,5.2c-0.1,0.4,0,0.9,0.1,1.1c0.2,0.4,0.4,0.7,0.8,1c0.3,0.3,0.8,0.4,1.1,0.4c0.4,0,0.8-0.1,1.1-0.3
				l4.7-2.5c0.4-0.2,0.9-0.3,1.3-0.3s1,0.1,1.3,0.3l4.7,2.5c0.4,0.2,0.8,0.3,1.1,0.3c0.4,0,0.8-0.2,1.1-0.4c0.3-0.3,0.6-0.6,0.8-1
				c0.2-0.4,0.2-0.8,0.1-1.1l-0.2-1c0,0,0-0.1,0-0.2c0,0,0-0.1,0.1-0.1l0.1-0.1c0,0,0.1,0,0.1-0.1s0.1,0,0.2,0c0,0,0.1,0,0.1,0.1
				l0.1,0.1v0.1l0.2,1c0.1,0.6,0,1-0.2,1.6c-0.2,0.5-0.6,1-1,1.2c-0.5,0.3-1,0.5-1.5,0.6c-0.6,0-1-0.1-1.5-0.3l-4.7-2.5
				c-0.3-0.2-0.7-0.3-1-0.3s-0.7,0.1-1,0.3l-4.8,2.5C43.1,30.9,42.7,31,42.2,31z"/>
			<path class="st1" d="M49.1,42.7h-7.6c-1,0-1.9-0.4-2.6-1.1c-0.7-0.7-1-1.6-1-2.6s0.4-1.9,1-2.6c0.7-0.7,1.6-1,2.6-1.1h7.6
				c1,0,1.9,0.4,2.6,1.1c0.7,0.7,1,1.6,1,2.6s-0.4,1.9-1,2.6C50.9,42.3,50,42.7,49.1,42.7z M41.3,36.1c-0.8,0-1.5,0.3-2.1,0.9
				s-0.9,1.3-0.9,2.1c0,0.8,0.3,1.5,0.9,2.1c0.6,0.6,1.2,0.9,2.1,0.9H49c0.8,0,1.5-0.3,2.1-0.9c0.6-0.6,0.9-1.3,0.9-2.1
				c0-0.8-0.3-1.5-0.9-2.1c-0.6-0.6-1.2-0.9-2.1-0.9H41.3z"/>
			<path class="st1" d="M49.1,56h-7.6c-1,0-1.9-0.4-2.6-1.1c-0.7-0.7-1-1.6-1-2.6s0.4-1.9,1-2.6c0.7-0.7,1.6-1,2.6-1.1h7.6
				c1,0,1.9,0.4,2.6,1.1c0.7,0.7,1,1.6,1,2.6s-0.4,1.9-1,2.6C50.9,55.5,50,56,49.1,56z M41.3,49.3c-0.8,0-1.5,0.3-2.1,0.9
				c-0.6,0.6-0.9,1.3-0.9,2.1s0.3,1.5,0.9,2.1c0.6,0.6,1.2,0.9,2.1,0.9H49c0.8,0,1.5-0.3,2.1-0.9c0.6-0.6,0.9-1.3,0.9-2.1
				s-0.3-1.5-0.9-2.1s-1.2-0.9-2.1-0.9H41.3z"/>
			<path class="st1" d="M47.1,62.6h-7.6c-1,0-1.9-0.4-2.6-1.1c-0.7-0.7-1-1.6-1-2.6s0.4-1.9,1-2.6c0.7-0.7,1.6-1,2.6-1.1h7.6
				c0.5,0,1,0.1,1.4,0.3c0.5,0.2,0.9,0.5,1.2,0.8c0.4,0.4,0.7,0.8,0.8,1.2c0.2,0.5,0.3,1,0.3,1.4s-0.1,1-0.3,1.4s-0.5,0.9-0.8,1.2
				c-0.4,0.4-0.8,0.6-1.2,0.8C48.1,62.5,47.6,62.6,47.1,62.6z M39.5,56c-0.8,0-1.5,0.3-2.1,0.9c-0.6,0.6-0.9,1.3-0.9,2.1
				s0.3,1.5,0.9,2.1s1.2,0.9,2.1,0.9h7.6c0.4,0,0.8-0.1,1.1-0.2c0.4-0.2,0.7-0.4,1-0.7c0.3-0.3,0.5-0.6,0.7-1s0.2-0.8,0.2-1.1
				s-0.1-0.8-0.2-1.1c-0.2-0.4-0.4-0.7-0.7-1c-0.3-0.3-0.6-0.5-1-0.7S47.5,56,47.1,56H39.5z"/>
			<path class="st1" d="M50.6,49.3h-7.6c-1,0-1.9-0.4-2.6-1.1c-0.7-0.7-1-1.6-1-2.6s0.4-1.9,1-2.6c0.7-0.7,1.6-1,2.6-1.1h7.6
				c1,0,1.9,0.4,2.6,1.1c0.7,0.7,1,1.6,1,2.6s-0.4,1.9-1,2.6C52.5,49,51.5,49.3,50.6,49.3z M42.9,42.7c-0.8,0-1.5,0.3-2.1,0.9
				c-0.6,0.6-0.9,1.3-0.9,2.1s0.3,1.5,0.9,2.1c0.6,0.6,1.2,0.9,2.1,0.9h7.6c0.8,0,1.5-0.3,2.1-0.9c0.6-0.6,0.9-1.3,0.9-2.1
				s-0.3-1.5-0.9-2.1s-1.2-0.9-2.1-0.9H42.9z"/>
			<path class="st1" d="M30.6,44c-0.1,0-0.2,0-0.2-0.1c-0.1-0.1-0.1-0.1-0.1-0.2c0-0.1,0-0.2,0-0.3s0.1-0.1,0.2-0.2
				C33,42.1,34,40.1,34,40c0.5-1,0.7-2,0.6-3.1c0-0.6-0.1-1-0.3-1.5C34.2,35,34,34.6,34,34.5v-0.1v-0.1c0-0.1,0.1-0.2,0.2-0.2
				c0.1,0,0.2,0,0.3,0s0.2,0.1,0.2,0.2c0.1,0.2,0.2,0.5,0.4,1c0.2,0.6,0.3,1.1,0.4,1.7c0,1.1-0.2,2.3-0.7,3.3c0,0.1-1,2.4-3.8,3.5
				C30.7,43.9,30.7,44,30.6,44z"/>
		</g>
	</g>
</g>
</svg>
