<?xml version="1.0" encoding="utf-8"?>
<!-- Generator: Adobe Illustrator 26.0.0, SVG Export Plug-In . SVG Version: 6.00 Build 0)  -->
<svg version="1.1" id="Layer_1" xmlns="http://www.w3.org/2000/svg" xmlns:xlink="http://www.w3.org/1999/xlink" x="0px" y="0px"
	 viewBox="0 0 512 512" style="enable-background:new 0 0 512 512;" xml:space="preserve">
<style type="text/css">
	.st0{fill:#57845A;}
</style>
<path class="st0" d="M500.1,249.1c-32.8-40-70.9-71-113.5-92.2c-41-20.4-84.3-30.9-128.8-31.2c-0.6,0-1.2,0-1.9,0s-1.2,0-1.9,0
	c-44.4,0.3-87.8,10.8-128.8,31.2c-42.6,21.2-80.8,52.2-113.5,92.2C10,251,9,253.5,9,256c0,2.5,1,5,2.9,6.9
	c32.8,40,70.9,71,113.5,92.2c41,20.4,84.3,30.9,128.8,31.2c0.6,0,1.2,0,1.9,0s1.2,0,1.9,0c44.4-0.3,87.8-10.8,128.8-31.2
	c42.7-21.2,81-52.4,113.8-92.5c1.6-1.8,2.6-4.1,2.6-6.6C503,253.3,501.9,250.9,500.1,249.1z M134,337.8
	c-38.2-19-72.7-46.5-102.7-81.8c30-35.3,64.5-62.8,102.7-81.8c11.3-5.6,22.7-10.4,34.3-14.4c-26.1,23.8-42.5,58.1-42.5,96.2
	s16.4,72.4,42.5,96.2C156.7,348.2,145.2,343.4,134,337.8z M256,367c-61.2,0-111-49.8-111-111s49.8-111,111-111s111,49.8,111,111
	S317.2,367,256,367z M378,337.8c-11.3,5.6-22.7,10.4-34.3,14.4c26.1-23.8,42.5-58.1,42.5-96.2s-16.4-72.4-42.5-96.2
	c11.6,4,23,8.8,34.3,14.4c38.2,19,72.7,46.5,102.7,81.8C450.8,291.3,416.2,318.8,378,337.8z"/>
<path class="st0" d="M256,309.1c-29.3,0-53.1-23.8-53.1-53.1s23.8-53.1,53.1-53.1s53.1,23.8,53.1,53.1S285.3,309.1,256,309.1z
	 M256,222.2c-18.6,0-33.8,15.1-33.8,33.8s15.1,33.8,33.8,33.8s33.8-15.1,33.8-33.8S274.6,222.2,256,222.2z"/>
<path class="st0" d="M256,463.4c-5.3,0-9.6-4.3-9.6-9.6v-38.6c0-5.3,4.3-9.6,9.6-9.6s9.6,4.3,9.6,9.6v38.6
	C265.6,459.1,261.3,463.4,256,463.4z"/>
<path class="st0" d="M327.5,452.1c-2.5,0-4.9-0.9-6.8-2.8L293.4,422c-3.8-3.8-3.8-9.9,0-13.6c3.8-3.8,9.9-3.8,13.6,0l27.3,27.3
	c3.8,3.8,3.8,9.9,0,13.6C332.5,451.2,330,452.1,327.5,452.1z"/>
<path class="st0" d="M184.5,452.1c-2.5,0-4.9-0.9-6.8-2.8c-3.8-3.8-3.8-9.9,0-13.6l27.3-27.3c3.8-3.8,9.9-3.8,13.6,0
	c3.8,3.8,3.8,9.9,0,13.6l-27.3,27.3C189.4,451.2,186.9,452.1,184.5,452.1z"/>
<path class="st0" d="M256,106.4c-5.3,0-9.6-4.3-9.6-9.6V58.2c0-5.3,4.3-9.6,9.6-9.6s9.6,4.3,9.6,9.6v38.6
	C265.6,102.1,261.3,106.4,256,106.4z"/>
<path class="st0" d="M211.8,106.4c-2.5,0-4.9-0.9-6.8-2.8l-27.3-27.3c-3.8-3.8-3.8-9.9,0-13.6c3.8-3.8,9.9-3.8,13.6,0l27.3,27.3
	c3.8,3.8,3.8,9.9,0,13.6C216.7,105.5,214.2,106.4,211.8,106.4z"/>
<path class="st0" d="M300.2,106.4c-2.5,0-4.9-0.9-6.8-2.8c-3.8-3.8-3.8-9.9,0-13.6l27.3-27.3c3.8-3.8,9.9-3.8,13.6,0
	c3.8,3.8,3.8,9.9,0,13.6l-27.3,27.3C305.2,105.5,302.7,106.4,300.2,106.4z"/>
<path class="st0" d="M256,29.3c-5.3,0-9.7-4.3-9.7-9.6s4.3-9.6,9.6-9.6h0c5.3,0,9.6,4.3,9.6,9.6S261.3,29.3,256,29.3z"/>
<path class="st0" d="M256,502c-5.3,0-9.7-4.3-9.7-9.6s4.3-9.6,9.6-9.6h0c5.3,0,9.6,4.3,9.6,9.6S261.3,502,256,502z"/>
</svg>
