<?xml version="1.0" encoding="utf-8"?>
<!-- Generator: Adobe Illustrator 26.0.0, SVG Export Plug-In . SVG Version: 6.00 Build 0)  -->
<svg version="1.1" id="Layer_1" xmlns="http://www.w3.org/2000/svg" xmlns:xlink="http://www.w3.org/1999/xlink" x="0px" y="0px"
	 viewBox="0 0 70.4 64.7" style="enable-background:new 0 0 70.4 64.7;" xml:space="preserve">
<style type="text/css">
	.st0{fill:#568259;}
</style>
<path class="st0" d="M45.4,31.7c-2-0.3-4.2-0.9-5.8-2.2c2.7-1.3,4.4-4,4.4-7v-4c0,0,0,0,0,0v-0.7c0-4.3-3.5-7.9-7.9-7.9
	c-4.3,0-7.9,3.5-7.9,7.9v4.7c0,3,1.7,5.7,4.4,7c-1.6,1.3-3.7,1.9-5.8,2.2c-2.8,0.4-4.8,2.8-4.9,5.7v9.3c0,1.2,0.9,2.1,2.1,2.1h3.2
	c0.5,0,1-0.1,1.4-0.3l5.5,5.2c1,1,2.7,1,3.7,0l5.5-5.2c0.5,0.2,0.9,0.3,1.4,0.3h3.2c1.2,0,2.1-0.9,2.1-2.1v-9.3
	C50.3,34.5,48.2,32.1,45.4,31.7z M41.5,32c-1,0.7-2.9,1.3-5.3,1.3c-2.4,0-4.3-0.6-5.3-1.3c1.2-0.5,2.3-1.2,3.2-2
	c1.4,0.4,2.8,0.4,4.2,0C39.2,30.8,40.3,31.5,41.5,32L41.5,32z M36.2,11.1c3.6,0,6.5,2.9,6.5,6.5v0.1c-2.6,0.2-3.4-1.7-3.4-1.8
	c-0.1-0.3-0.5-0.5-0.8-0.4c-0.1,0-0.2,0.1-0.3,0.3c-1.3,1.9-6.1,2-8.5,1.8C29.7,14,32.6,11.1,36.2,11.1z M29.7,22.4v-3.5
	c1.9,0.2,6.6,0.3,8.9-1.6c0.9,1.2,2.3,1.8,3.7,1.8c0.1,0,0.3,0,0.4,0v3.3c0,3.6-2.9,6.5-6.5,6.5C32.6,28.9,29.7,26,29.7,22.4
	L29.7,22.4z M23.4,37.3c0-2.2,1.6-4,3.7-4.3c0.8-0.1,1.6-0.3,2.4-0.5c1.1,1.3,3.7,2.2,6.7,2.2c3,0,5.6-0.8,6.7-2.2
	c0.8,0.2,1.6,0.4,2.4,0.5c2.1,0.3,3.7,2.2,3.7,4.3v4.5h-2.6c-0.3-1.2-0.9-2.2-1.9-3c-2.3-1.9-5.7-1.7-7.8,0.5l-0.6,0.6l-0.7-0.7
	c-2.2-2.2-5.8-2.2-8,0c-0.7,0.7-1.3,1.7-1.5,2.7h-2.6V37.3z M24.2,47.4c-0.4,0-0.8-0.3-0.8-0.8v-3.5h4c1.2,0,2.1,1,2.1,2.2
	c0,1.2-1,2.1-2.1,2.1H24.2z M37.1,52.7c-0.5,0.5-1.3,0.5-1.9,0l-5.3-5c0.6-0.6,0.9-1.5,0.9-2.4c0-1.9-1.6-3.5-3.5-3.5c0,0,0,0,0,0h0
	c0.7-2.3,3.2-3.5,5.5-2.8c0.7,0.2,1.3,0.6,1.8,1.1l1.2,1.2c0.1,0.1,0.3,0.2,0.5,0.2l0,0c0.2,0,0.3-0.1,0.5-0.2l1-1
	c1.6-1.8,4.4-1.9,6.2-0.2c0.5,0.5,1,1.1,1.2,1.9h0c-1.9,0-3.5,1.5-3.5,3.5c0,0,0,0,0,0c0,0.9,0.3,1.7,0.9,2.4L37.1,52.7z M49,46.6
	c0,0.4-0.3,0.8-0.8,0.8H45c-1.2,0-2.1-1-2.1-2.2c0-1.2,1-2.1,2.1-2.1h4V46.6z"/>
</svg>
