<svg xmlns="http://www.w3.org/2000/svg" xmlns:xlink="http://www.w3.org/1999/xlink" width="1366" zoomAndPan="magnify" viewBox="0 0 1024.5 576" height="768" preserveAspectRatio="xMidYMid meet" version="1.2"><defs><clipPath id="028dece5bb"><path d="M 455.214844 231.214844 L 568.785156 231.214844 L 568.785156 344.785156 L 455.214844 344.785156 Z M 455.214844 231.214844 "/></clipPath><clipPath id="0b177ac1bc"><path d="M 512 231.214844 C 480.640625 231.214844 455.214844 256.640625 455.214844 288 C 455.214844 319.359375 480.640625 344.785156 512 344.785156 C 543.359375 344.785156 568.785156 319.359375 568.785156 288 C 568.785156 256.640625 543.359375 231.214844 512 231.214844 Z M 512 231.214844 "/></clipPath><clipPath id="9d0495d117"><path d="M 485.628906 248.117188 L 538.101562 248.117188 L 538.101562 327.582031 L 485.628906 327.582031 Z M 485.628906 248.117188 "/></clipPath></defs><g id="589566a3ef"><g clip-rule="nonzero" clip-path="url(#028dece5bb)"><g clip-rule="nonzero" clip-path="url(#0b177ac1bc)"><path style=" stroke:none;fill-rule:nonzero;fill:#57815a;fill-opacity:1;" d="M 455.214844 231.214844 L 568.785156 231.214844 L 568.785156 344.785156 L 455.214844 344.785156 Z M 455.214844 231.214844 "/></g></g><g clip-rule="nonzero" clip-path="url(#9d0495d117)"><path style=" stroke:none;fill-rule:nonzero;fill:#ffffff;fill-opacity:1;" d="M 538.101562 274.421875 C 538.101562 259.914062 526.355469 248.152344 511.867188 248.152344 C 497.375 248.152344 485.628906 259.914062 485.628906 274.421875 C 485.628906 287.699219 495.46875 298.675781 508.246094 300.441406 L 508.246094 309.375 L 498.609375 309.375 L 498.609375 316.621094 L 508.246094 316.621094 L 508.246094 327.550781 L 515.488281 327.550781 L 515.488281 316.621094 L 525.121094 316.621094 L 525.121094 309.375 L 515.488281 309.375 L 515.488281 300.441406 C 528.261719 298.675781 538.105469 287.699219 538.105469 274.421875 Z M 492.785156 274.421875 C 492.785156 263.871094 501.328125 255.316406 511.867188 255.316406 C 522.402344 255.316406 530.949219 263.871094 530.949219 274.421875 C 530.949219 284.972656 522.40625 293.527344 511.867188 293.527344 C 501.324219 293.527344 492.785156 284.972656 492.785156 274.421875 Z M 492.785156 274.421875 "/></g></g></svg>