<svg width="263" height="436" viewBox="0 0 263 436" fill="none" xmlns="http://www.w3.org/2000/svg">
<g clip-path="url(#clip0_202_62)">
<mask id="mask0_202_62" style="mask-type:luminance" maskUnits="userSpaceOnUse" x="0" y="0" width="263" height="436">
<path d="M262.3 0H0V435.5H262.3V0Z" fill="white"/>
</mask>
<g mask="url(#mask0_202_62)">
<path d="M33.8999 201.3V355C33.8999 357.9 36.1999 360.2 39.0999 360.2H122.9V401.7H139.4V360.2H223.2C226.1 360.2 228.4 357.9 228.4 355V201.3H33.8999Z" fill="#568259"/>
</g>
<mask id="mask1_202_62" style="mask-type:luminance" maskUnits="userSpaceOnUse" x="0" y="0" width="263" height="436">
<path d="M262.3 0H0V435.5H262.3V0Z" fill="white"/>
</mask>
<g mask="url(#mask1_202_62)">
<path d="M0 96.4999V355C0 376.5 17.5 394.1 39.1 394.1H89.1V412.1C89.1 425 99.6 435.6 112.6 435.6H149.9C162.8 435.6 173.4 425.1 173.4 412.1V394.1H223.4C244.9 394.1 262.5 376.6 262.5 355V96.4999C262.5 74.9999 245 57.3999 223.4 57.3999H161.5C165.6 51.4999 168 44.2999 168 36.5999C168 16.3999 151.6 -0.100098 131.3 -0.100098C111.1 -0.100098 94.6 16.2999 94.6 36.5999C94.6 44.2999 97 51.4999 101.1 57.3999H39.1C17.5 57.4999 0 74.9999 0 96.4999ZM131.1 15.7999C142.6 15.7999 151.9 25.0999 151.9 36.5999C151.9 48.0999 142.6 57.3999 131.1 57.3999C119.6 57.3999 110.3 48.0999 110.3 36.5999C110.3 25.1999 119.6 15.7999 131.1 15.7999ZM223.2 73.2999C236 73.2999 246.4 83.6999 246.4 96.4999V355C246.4 367.8 236 378.2 223.2 378.2H165.3C160.9 378.2 157.4 381.7 157.4 386.1V412C157.4 416.2 154 419.7 149.7 419.7H112.4C108.2 419.7 104.7 416.3 104.7 412V386.1C104.7 381.7 101.2 378.2 96.8 378.2H39.1C26.3 378.2 15.9 367.8 15.9 355V96.4999C15.9 83.6999 26.3 73.2999 39.1 73.2999H223.2Z" fill="#568259"/>
</g>
<mask id="mask2_202_62" style="mask-type:luminance" maskUnits="userSpaceOnUse" x="0" y="0" width="263" height="436">
<path d="M262.3 0H0V435.5H262.3V0Z" fill="white"/>
</mask>
<g mask="url(#mask2_202_62)">
<path d="M197.9 326.9H220.6C225 326.9 228.5 323.4 228.5 319C228.5 314.6 225 311.1 220.6 311.1H197.9C193.5 311.1 190 314.6 190 319C190 323.3 193.6 326.9 197.9 326.9Z" fill="#568259"/>
</g>
<mask id="mask3_202_62" style="mask-type:luminance" maskUnits="userSpaceOnUse" x="0" y="0" width="263" height="436">
<path d="M262.3 0H0V435.5H262.3V0Z" fill="white"/>
</mask>
<g mask="url(#mask3_202_62)">
<path d="M220.6 264.5H209.1C204.7 264.5 201.2 268 201.2 272.4C201.2 276.8 204.7 280.3 209.1 280.3H220.6C225 280.3 228.5 276.8 228.5 272.4C228.5 268 225 264.5 220.6 264.5Z" fill="#568259"/>
</g>
<mask id="mask4_202_62" style="mask-type:luminance" maskUnits="userSpaceOnUse" x="0" y="0" width="263" height="436">
<path d="M262.3 0H0V435.5H262.3V0Z" fill="white"/>
</mask>
<g mask="url(#mask4_202_62)">
<path d="M197.9 233.7H220.6C225 233.7 228.5 230.2 228.5 225.8C228.5 221.4 225 217.9 220.6 217.9H197.9C193.5 217.9 190 221.4 190 225.8C190 230.1 193.6 233.7 197.9 233.7Z" fill="#568259"/>
</g>
<mask id="mask5_202_62" style="mask-type:luminance" maskUnits="userSpaceOnUse" x="0" y="0" width="263" height="436">
<path d="M262.3 0H0V435.5H262.3V0Z" fill="white"/>
</mask>
<g mask="url(#mask5_202_62)">
<path d="M220.6 171.3H209.1C204.7 171.3 201.2 174.8 201.2 179.2C201.2 183.6 204.7 187.1 209.1 187.1H220.6C225 187.1 228.5 183.6 228.5 179.2C228.5 174.8 225 171.3 220.6 171.3Z" fill="#568259"/>
</g>
<mask id="mask6_202_62" style="mask-type:luminance" maskUnits="userSpaceOnUse" x="0" y="0" width="263" height="436">
<path d="M262.3 0H0V435.5H262.3V0Z" fill="white"/>
</mask>
<g mask="url(#mask6_202_62)">
<path d="M197.9 140.5H220.6C225 140.5 228.5 137 228.5 132.6C228.5 128.2 225 124.7 220.6 124.7H197.9C193.5 124.7 190 128.2 190 132.6C190 137 193.6 140.5 197.9 140.5Z" fill="#568259"/>
</g>
</g>
<defs>
<clipPath id="clip0_202_62">
<rect width="262.3" height="435.5" fill="white"/>
</clipPath>
</defs>
</svg>
