<svg width="432" height="513" viewBox="0 0 432 513" fill="none" xmlns="http://www.w3.org/2000/svg">
<g clip-path="url(#clip0_202_106)">
<mask id="mask0_202_106" style="mask-type:luminance" maskUnits="userSpaceOnUse" x="0" y="0" width="432" height="513">
<path d="M432 0H0V512.8H432V0Z" fill="white"/>
</mask>
<g mask="url(#mask0_202_106)">
<path d="M346.4 512.8H85.6C85.5 512.8 85.5 512.8 85.5 512.8C37.5 511.9 0 474 0 426.4C0 354.5 58.5 296 130.4 296H168C172.4 296 176 299.6 176 304C176 308.4 172.4 312 168 312H130.4C67.3 312 16 363.3 16 426.4C16 465.1 46.6 496 85.7 496.8H346.4C384.8 496.8 416 465.6 416 427.2C416 364.1 364.7 312.8 301.6 312.8H264.8C260.4 312.8 256.8 309.2 256.8 304.8C256.8 300.4 260.4 296.8 264.8 296.8H301.6C373.5 296.8 432 355.3 432 427.2C432 474.4 393.6 512.8 346.4 512.8Z" fill="white"/>
</g>
<mask id="mask1_202_106" style="mask-type:luminance" maskUnits="userSpaceOnUse" x="0" y="0" width="432" height="513">
<path d="M432 0H0V512.8H432V0Z" fill="white"/>
</mask>
<g mask="url(#mask1_202_106)">
<path d="M216 363.2C200.7 363.2 186.4 357.3 175.7 346.7C165 336 159.2 321.7 159.2 306.4V279.2C159.2 274.8 162.8 271.2 167.2 271.2C171.6 271.2 175.2 274.8 175.2 279.2V306.4C175.2 329.3 193.1 347.2 216 347.2C226.8 347.2 237 342.9 244.7 335.1C252.5 327.3 256.8 317.1 256.8 306.4V278.4C256.8 274 260.4 270.4 264.8 270.4C269.2 270.4 272.8 274 272.8 278.4V306.4C272.8 321.4 266.9 335.7 256.1 346.5C245.3 357.3 231 363.2 216 363.2Z" fill="white"/>
</g>
<mask id="mask2_202_106" style="mask-type:luminance" maskUnits="userSpaceOnUse" x="0" y="0" width="432" height="513">
<path d="M432 0H0V512.8H432V0Z" fill="white"/>
</mask>
<g mask="url(#mask2_202_106)">
<path d="M317.6 421.6C313.2 421.6 309.6 418 309.6 413.6V327.2C309.6 305 295.1 285.2 273.5 278C269.3 276.6 267 272.1 268.4 267.9C269.8 263.7 274.3 261.4 278.5 262.8C306.7 272.2 325.6 298.1 325.6 327.2V413.6C325.6 418 322 421.6 317.6 421.6Z" fill="white"/>
</g>
<mask id="mask3_202_106" style="mask-type:luminance" maskUnits="userSpaceOnUse" x="0" y="0" width="432" height="513">
<path d="M432 0H0V512.8H432V0Z" fill="white"/>
</mask>
<g mask="url(#mask3_202_106)">
<path d="M116 364.8C111.6 364.8 108 361.2 108 356.8V327.2C108 298.6 125.7 273.3 153.2 262.9C157.3 261.3 162 263.4 163.5 267.5C165.1 271.6 163 276.3 158.9 277.8C137.7 285.8 124.1 305.2 124.1 327.1V356.7C124 361.2 120.4 364.8 116 364.8Z" fill="white"/>
</g>
<mask id="mask4_202_106" style="mask-type:luminance" maskUnits="userSpaceOnUse" x="0" y="0" width="432" height="513">
<path d="M432 0H0V512.8H432V0Z" fill="white"/>
</mask>
<g mask="url(#mask4_202_106)">
<path d="M159.2 467.2H153.6C149.2 467.2 145.6 463.6 145.6 459.2C145.6 454.8 149.2 451.2 153.6 451.2H159.2C160.4 451.2 161.6 450 161.6 448.8V410.4C161.6 385.3 141.1 364.8 116 364.8C90.9 364.8 70.4 385.3 70.4 410.4V448.8C70.4 450 71.6 451.2 72.8 451.2H80C84.4 451.2 88 454.8 88 459.2C88 463.6 84.4 467.2 80 467.2H72.8C62.8 467.2 54.4 458.8 54.4 448.8V410.4C54.4 376.4 82 348.8 116 348.8C150 348.8 177.6 376.4 177.6 410.4V448.8C177.6 458.8 169.2 467.2 159.2 467.2Z" fill="white"/>
</g>
<mask id="mask5_202_106" style="mask-type:luminance" maskUnits="userSpaceOnUse" x="0" y="0" width="432" height="513">
<path d="M432 0H0V512.8H432V0Z" fill="white"/>
</mask>
<g mask="url(#mask5_202_106)">
<path d="M317.6 478.4C297.3 478.4 280.8 461.9 280.8 441.6C280.8 421.3 297.3 404.8 317.6 404.8C337.9 404.8 354.4 421.3 354.4 441.6C354.4 461.9 337.9 478.4 317.6 478.4Z" fill="#568259"/>
</g>
<mask id="mask6_202_106" style="mask-type:luminance" maskUnits="userSpaceOnUse" x="0" y="0" width="432" height="513">
<path d="M432 0H0V512.8H432V0Z" fill="white"/>
</mask>
<g mask="url(#mask6_202_106)">
<path d="M217.1 301.7C198.4 301.7 180.1 296.3 163.8 286C159.5 283.4 155 279.9 151.3 276.2C134 260.6 122.6 240.2 119.3 218.8C119.2 218.4 119.2 218 119.2 217.6V216.4C118.4 213.5 118.4 211.2 118.4 208.8V170.4C118.4 166 122 162.4 126.4 162.4C130.8 162.4 134.4 166 134.4 170.4V208.8C134.4 211 134.4 211.5 134.8 212.7C135.1 213.5 135.2 214.4 135.2 215.2V217C138.1 234.6 147.6 251.5 162.1 264.5C162.2 264.6 162.3 264.7 162.4 264.8C165.3 267.7 168.8 270.4 172.1 272.4C172.2 272.4 172.2 272.5 172.3 272.5C187.1 281.8 203.7 286.4 220.5 285.7C234 285 247.9 280.5 260.6 272.5L260.7 272.4C262.9 271.1 264.9 269.4 267.2 267.4C268.3 266.4 269.5 265.4 270.8 264.4C288.6 248 298.4 225.4 298.4 200.9V172C298.4 167.6 302 164 306.4 164C310.8 164 314.4 167.6 314.4 172V200.8C314.4 230 302.7 256.8 281.4 276.3C281.3 276.4 281.1 276.5 281 276.7C279.8 277.6 278.7 278.6 277.6 279.5C275 281.7 272.3 284.1 269 286C254 295.4 237.5 300.8 221.2 301.6C219.8 301.6 218.5 301.7 217.1 301.7Z" fill="white"/>
</g>
<mask id="mask7_202_106" style="mask-type:luminance" maskUnits="userSpaceOnUse" x="0" y="0" width="432" height="513">
<path d="M432 0H0V512.8H432V0Z" fill="white"/>
</mask>
<g mask="url(#mask7_202_106)">
<path d="M305.6 224.8C301.2 224.8 297.6 221.2 297.6 216.8C297.6 212.4 301.2 208.8 305.6 208.8C314.4 208.8 321.6 202.3 321.6 194.4C321.6 186.6 315.3 180.5 306.7 180C302.3 179.7 298.9 175.9 299.2 171.5C299.5 167.1 303.3 163.7 307.7 164C324.7 165.1 337.6 178.1 337.6 194.4C337.6 211.2 323.2 224.8 305.6 224.8Z" fill="white"/>
</g>
<mask id="mask8_202_106" style="mask-type:luminance" maskUnits="userSpaceOnUse" x="0" y="0" width="432" height="513">
<path d="M432 0H0V512.8H432V0Z" fill="white"/>
</mask>
<g mask="url(#mask8_202_106)">
<path d="M128 224.8C110.4 224.8 96 211.2 96 194.4C96 178.1 108.9 165.1 125.9 164C130.3 163.7 134.1 167.1 134.4 171.5C134.7 175.9 131.3 179.7 126.9 180C118.3 180.5 112 186.6 112 194.4C112 202.3 119.2 208.8 128 208.8C132.4 208.8 136 212.4 136 216.8C136 221.2 132.4 224.8 128 224.8Z" fill="white"/>
</g>
<mask id="mask9_202_106" style="mask-type:luminance" maskUnits="userSpaceOnUse" x="0" y="0" width="432" height="513">
<path d="M432 0H0V512.8H432V0Z" fill="white"/>
</mask>
<g mask="url(#mask9_202_106)">
<path d="M129.6 180C123.9 180 117.8 175.6 115.7 170.1C110 156.7 100.3 130.9 97.8 106.4C95.7 86 98.3 59.4 122.3 48.7C131.1 44.7 138.1 40.3 144.2 34.8C144.3 34.7 144.4 34.6 144.5 34.6C164.1 18.8 194.8 0 230.4 0C245 0 259.7 3.4 275.2 10.3C275.3 10.3 275.4 10.4 275.5 10.5C298.7 22.1 316.9 42.2 326.7 67.1C336.3 91.5 337.2 118.8 329.2 144C326.8 152 322.8 161.1 317.4 171.1C317.3 171.3 317.2 171.5 317 171.7C313.8 176.4 309 179.3 303.9 179.3H302.3C294.9 179.3 288.9 173 287.3 166.8C287.2 166.6 287.2 166.4 287.2 166.2L284.1 147.4C283.7 146.2 283 145.2 282 144.5C281.4 144.1 280.5 143.6 279.5 143.9C279.3 143.9 279.2 144 279 144C220.4 154.9 179 140.2 159.6 130.5C158.7 130.1 157.5 130.2 156.3 130.7C155.2 131.2 154.4 132.1 154.1 133.1C154.1 133.2 154.1 133.2 154.1 133.3L145.3 168.5C143.6 175.2 137.2 180 129.6 180ZM303.2 163.2H303.4C303.5 163.1 303.5 163.1 303.6 163C308.4 154.1 311.9 146.2 313.9 139.3V139.2C328.2 94.1 308.7 45 268.5 24.8C255.1 18.9 242.6 16 230.3 16C199.4 16 172.2 32.8 154.7 46.9C147.5 53.3 139 58.7 128.8 63.3C96.5 77.7 123.3 146.9 130.1 163.2L138.5 129.4C139.8 123.6 143.8 118.8 149.4 116.2C155 113.5 161.4 113.5 166.7 116.1C184.3 124.9 221.9 138.2 275.9 128.2C281.1 127 286.5 128.1 291.1 131.2C295.3 134.1 298.5 138.7 299.7 143.6C299.8 143.8 299.8 144 299.8 144.2L302.9 162.8C303 163 303.1 163.1 303.2 163.2Z" fill="white"/>
</g>
</g>
<defs>
<clipPath id="clip0_202_106">
<rect width="432" height="512.8" fill="white"/>
</clipPath>
</defs>
</svg>
