<svg width="128" height="177" viewBox="0 0 128 177" fill="none" xmlns="http://www.w3.org/2000/svg">
<mask id="mask0_211_298" style="mask-type:luminance" maskUnits="userSpaceOnUse" x="0" y="0" width="128" height="177">
<path d="M128 0H0V177H128V0Z" fill="white"/>
</mask>
<g mask="url(#mask0_211_298)">
<path d="M123.013 78.4812L19.9481 1.66984C16.6234 2.76814e-05 11.6364 2.76814e-05 6.64935 1.66984C3.32468 3.33965 0 8.34908 0 13.3585V165.311C0 170.321 3.32468 173.66 6.64935 177C8.31169 178.67 9.97403 178.67 11.6364 178.67C14.961 178.67 16.6234 178.67 18.2857 177L121.351 101.859C124.675 100.189 126.338 95.1793 126.338 91.8396C128 83.4906 126.338 80.151 123.013 78.4812Z" fill="black"/>
</g>
</svg>
