<svg xmlns="http://www.w3.org/2000/svg" xmlns:xlink="http://www.w3.org/1999/xlink" width="1080" zoomAndPan="magnify" viewBox="0 0 810 1012.49997" height="1350" preserveAspectRatio="xMidYMid meet" version="1.2"><defs><clipPath id="8d29e96efa"><path d="M 428.328125 522.613281 L 435.355469 522.613281 L 435.355469 529.640625 L 428.328125 529.640625 Z M 428.328125 522.613281 "/></clipPath><clipPath id="9d1e68f20f"><path d="M 0.328125 0.613281 L 7.355469 0.613281 L 7.355469 7.640625 L 0.328125 7.640625 Z M 0.328125 0.613281 "/></clipPath><clipPath id="e3a518acaf"><rect x="0" width="8" y="0" height="8"/></clipPath></defs><g id="7f21c29d7d"><path style=" stroke:none;fill-rule:nonzero;fill:#4c583f;fill-opacity:1;" d="M 617.289062 472.117188 C 617.226562 471.613281 617.136719 471.109375 617.023438 470.613281 C 616.90625 470.117188 616.769531 469.628906 616.605469 469.144531 C 616.441406 468.664062 616.253906 468.191406 616.042969 467.726562 C 615.832031 467.261719 615.597656 466.808594 615.34375 466.371094 C 615.085938 465.929688 614.808594 465.503906 614.511719 465.089844 C 614.210938 464.675781 613.890625 464.28125 613.554688 463.902344 C 613.214844 463.519531 612.859375 463.15625 612.484375 462.8125 C 612.109375 462.46875 611.714844 462.140625 611.308594 461.835938 C 610.902344 461.53125 610.480469 461.246094 610.042969 460.984375 C 609.605469 460.71875 609.15625 460.480469 608.699219 460.261719 C 608.238281 460.042969 607.765625 459.847656 607.285156 459.675781 C 606.808594 459.503906 606.320312 459.359375 605.824219 459.238281 C 605.332031 459.113281 604.832031 459.015625 604.328125 458.945312 C 603.824219 458.871094 603.316406 458.824219 602.804688 458.804688 C 602.296875 458.78125 601.789062 458.785156 601.28125 458.816406 C 600.769531 458.847656 600.265625 458.902344 599.761719 458.980469 C 599.257812 459.0625 598.761719 459.167969 598.269531 459.296875 C 597.777344 459.425781 597.289062 459.582031 596.8125 459.761719 C 596.335938 459.9375 595.871094 460.140625 595.414062 460.367188 C 594.957031 460.59375 594.511719 460.839844 594.078125 461.109375 C 593.648438 461.382812 593.230469 461.671875 592.828125 461.984375 C 592.425781 462.296875 592.039062 462.628906 591.667969 462.976562 C 591.300781 463.328125 590.949219 463.699219 590.617188 464.082031 C 590.28125 464.46875 589.96875 464.871094 589.679688 465.289062 C 589.386719 465.707031 589.113281 466.136719 588.867188 466.582031 C 588.617188 467.027344 588.390625 467.480469 588.1875 467.949219 C 587.984375 468.414062 587.804688 468.890625 587.648438 469.375 C 587.492188 469.863281 587.359375 470.355469 587.253906 470.851562 C 587.148438 471.351562 587.066406 471.851562 587.011719 472.359375 C 586.953125 472.867188 586.925781 473.375 586.917969 473.882812 C 586.914062 474.390625 586.933594 474.902344 586.980469 475.410156 C 587.027344 475.914062 587.097656 476.417969 587.195312 476.921875 C 588.714844 486.550781 589.476562 496.242188 589.480469 505.996094 C 589.480469 508.988281 589.40625 511.980469 589.261719 514.972656 C 589.113281 517.960938 588.894531 520.949219 588.597656 523.929688 C 588.304688 526.90625 587.9375 529.878906 587.5 532.839844 C 587.0625 535.800781 586.550781 538.75 585.964844 541.6875 C 585.378906 544.625 584.726562 547.546875 583.996094 550.449219 C 583.269531 553.355469 582.472656 556.238281 581.601562 559.105469 C 580.734375 561.96875 579.792969 564.8125 578.785156 567.632812 C 577.777344 570.449219 576.699219 573.242188 575.554688 576.007812 C 574.40625 578.777344 573.195312 581.511719 571.914062 584.21875 C 570.632812 586.925781 569.289062 589.597656 567.878906 592.238281 C 566.464844 594.878906 564.988281 597.484375 563.449219 600.054688 C 561.910156 602.621094 560.308594 605.152344 558.648438 607.640625 C 556.984375 610.128906 555.257812 612.578125 553.476562 614.980469 C 551.691406 617.386719 549.851562 619.746094 547.949219 622.0625 C 546.050781 624.375 544.097656 626.640625 542.085938 628.859375 C 540.074219 631.078125 538.011719 633.246094 535.894531 635.363281 C 533.777344 637.480469 531.609375 639.546875 529.390625 641.558594 C 527.171875 643.566406 524.90625 645.523438 522.589844 647.421875 C 520.277344 649.320312 517.914062 651.164062 515.511719 652.945312 C 513.105469 654.730469 510.660156 656.453125 508.167969 658.117188 C 505.679688 659.78125 503.152344 661.382812 500.582031 662.921875 C 498.015625 664.460938 495.410156 665.9375 492.769531 667.347656 C 490.128906 668.757812 487.453125 670.105469 484.746094 671.386719 C 482.042969 672.664062 479.304688 673.878906 476.539062 675.023438 C 473.773438 676.171875 470.980469 677.246094 468.160156 678.257812 C 465.339844 679.265625 462.5 680.203125 459.632812 681.074219 C 456.769531 681.941406 453.882812 682.742188 450.980469 683.46875 C 448.074219 684.195312 445.152344 684.851562 442.21875 685.4375 C 439.28125 686.019531 436.332031 686.53125 433.367188 686.972656 C 430.40625 687.410156 427.4375 687.777344 424.457031 688.070312 C 421.476562 688.363281 418.492188 688.585938 415.5 688.730469 C 412.511719 688.878906 409.519531 688.953125 406.523438 688.953125 C 403.53125 688.953125 400.539062 688.878906 397.546875 688.730469 C 394.554688 688.585938 391.570312 688.363281 388.589844 688.070312 C 385.609375 687.777344 382.640625 687.410156 379.679688 686.972656 C 376.714844 686.53125 373.765625 686.019531 370.832031 685.4375 C 367.894531 684.851562 364.972656 684.195312 362.070312 683.46875 C 359.164062 682.742188 356.28125 681.941406 353.414062 681.074219 C 350.550781 680.203125 347.707031 679.265625 344.886719 678.257812 C 342.070312 677.246094 339.277344 676.171875 336.507812 675.023438 C 333.742188 673.878906 331.007812 672.664062 328.300781 671.386719 C 325.59375 670.105469 322.917969 668.757812 320.277344 667.347656 C 317.636719 665.9375 315.035156 664.460938 312.464844 662.921875 C 309.898438 661.382812 307.367188 659.78125 304.878906 658.117188 C 302.390625 656.453125 299.941406 654.730469 297.535156 652.945312 C 295.132812 651.164062 292.773438 649.320312 290.457031 647.421875 C 288.144531 645.523438 285.875 643.566406 283.65625 641.558594 C 281.4375 639.546875 279.269531 637.480469 277.152344 635.363281 C 275.035156 633.246094 272.972656 631.078125 270.960938 628.859375 C 268.953125 626.640625 266.996094 624.375 265.097656 622.0625 C 263.195312 619.746094 261.355469 617.386719 259.570312 614.980469 C 257.789062 612.578125 256.066406 610.128906 254.402344 607.640625 C 252.738281 605.152344 251.136719 602.621094 249.597656 600.054688 C 248.058594 597.484375 246.582031 594.878906 245.171875 592.238281 C 243.757812 589.597656 242.414062 586.925781 241.132812 584.21875 C 239.851562 581.511719 238.640625 578.777344 237.492188 576.007812 C 236.347656 573.242188 235.269531 570.449219 234.261719 567.632812 C 233.253906 564.8125 232.316406 561.96875 231.445312 559.105469 C 230.578125 556.238281 229.777344 553.355469 229.050781 550.449219 C 228.324219 547.546875 227.667969 544.625 227.082031 541.6875 C 226.5 538.75 225.988281 535.800781 225.546875 532.839844 C 225.109375 529.878906 224.742188 526.90625 224.449219 523.929688 C 224.15625 520.949219 223.933594 517.960938 223.789062 514.972656 C 223.640625 511.980469 223.566406 508.988281 223.566406 505.996094 C 223.566406 503 223.640625 500.007812 223.789062 497.019531 C 223.933594 494.027344 224.15625 491.042969 224.449219 488.0625 C 224.742188 485.082031 225.109375 482.113281 225.546875 479.148438 C 225.988281 476.1875 226.5 473.238281 227.082031 470.300781 C 227.667969 467.363281 228.324219 464.445312 229.050781 461.539062 C 229.777344 458.636719 230.578125 455.75 231.445312 452.886719 C 232.316406 450.019531 233.253906 447.179688 234.261719 444.359375 C 235.269531 441.539062 236.347656 438.746094 237.492188 435.980469 C 238.640625 433.214844 239.851562 430.476562 241.132812 427.769531 C 242.414062 425.0625 243.757812 422.390625 245.171875 419.75 C 246.582031 417.109375 248.058594 414.503906 249.597656 411.9375 C 251.136719 409.367188 252.738281 406.839844 254.402344 404.351562 C 256.066406 401.859375 257.789062 399.414062 259.570312 397.007812 C 261.355469 394.601562 263.195312 392.242188 265.097656 389.929688 C 266.996094 387.613281 268.953125 385.347656 270.960938 383.128906 C 272.972656 380.910156 275.035156 378.742188 277.152344 376.625 C 279.269531 374.507812 281.4375 372.445312 283.65625 370.433594 C 285.875 368.421875 288.144531 366.46875 290.457031 364.566406 C 292.773438 362.667969 295.132812 360.828125 297.535156 359.042969 C 299.941406 357.257812 302.390625 355.535156 304.878906 353.871094 C 307.367188 352.207031 309.898438 350.605469 312.464844 349.066406 C 315.035156 347.527344 317.636719 346.054688 320.277344 344.640625 C 322.917969 343.230469 325.59375 341.882812 328.300781 340.605469 C 331.007812 339.324219 333.742188 338.109375 336.507812 336.964844 C 339.277344 335.820312 342.070312 334.742188 344.886719 333.734375 C 347.707031 332.722656 350.550781 331.785156 353.414062 330.917969 C 356.28125 330.046875 359.164062 329.25 362.070312 328.519531 C 364.972656 327.792969 367.894531 327.136719 370.832031 326.554688 C 373.765625 325.96875 376.714844 325.457031 379.679688 325.019531 C 382.640625 324.578125 385.609375 324.210938 388.589844 323.917969 C 391.570312 323.625 394.554688 323.40625 397.546875 323.257812 C 400.539062 323.113281 403.53125 323.039062 406.523438 323.039062 C 413.808594 323.015625 421.070312 323.429688 428.304688 324.285156 C 435.539062 325.136719 442.699219 326.421875 449.777344 328.140625 C 456.859375 329.859375 463.808594 331.996094 470.628906 334.550781 C 477.453125 337.109375 484.097656 340.066406 490.5625 343.421875 C 491.445312 343.851562 492.367188 344.191406 493.316406 344.441406 C 494.265625 344.691406 495.234375 344.851562 496.214844 344.914062 C 497.195312 344.976562 498.175781 344.949219 499.152344 344.820312 C 500.125 344.695312 501.082031 344.480469 502.015625 344.167969 C 502.949219 343.859375 503.84375 343.460938 504.699219 342.976562 C 505.554688 342.496094 506.359375 341.933594 507.105469 341.296875 C 507.855469 340.65625 508.535156 339.953125 509.144531 339.179688 C 509.757812 338.410156 510.289062 337.589844 510.742188 336.714844 C 511.195312 335.84375 511.558594 334.933594 511.835938 333.992188 C 512.113281 333.046875 512.296875 332.085938 512.386719 331.105469 C 512.476562 330.125 512.472656 329.148438 512.375 328.167969 C 512.277344 327.191406 512.085938 326.230469 511.800781 325.289062 C 511.515625 324.347656 511.144531 323.441406 510.683594 322.570312 C 510.222656 321.703125 509.683594 320.886719 509.066406 320.121094 C 508.449219 319.355469 507.761719 318.65625 507.007812 318.023438 C 506.257812 317.390625 505.449219 316.835938 504.589844 316.359375 C 501.070312 314.542969 497.5 312.824219 493.886719 311.203125 C 490.269531 309.582031 486.613281 308.066406 482.914062 306.652344 C 479.214844 305.234375 475.476562 303.921875 471.703125 302.714844 C 467.929688 301.507812 464.125 300.40625 460.292969 299.410156 C 456.457031 298.414062 452.597656 297.527344 448.714844 296.746094 C 444.832031 295.964844 440.929688 295.292969 437.007812 294.730469 C 433.085938 294.167969 429.152344 293.714844 425.203125 293.371094 C 421.257812 293.027344 417.304688 292.792969 413.34375 292.667969 C 409.386719 292.546875 405.425781 292.53125 401.464844 292.628906 C 397.503906 292.726562 393.550781 292.933594 389.601562 293.25 C 385.652344 293.570312 381.714844 293.996094 377.789062 294.535156 C 373.863281 295.070312 369.957031 295.714844 366.070312 296.46875 C 362.179688 297.226562 358.316406 298.085938 354.472656 299.058594 C 350.632812 300.027344 346.820312 301.101562 343.039062 302.285156 C 339.257812 303.46875 335.515625 304.753906 331.804688 306.144531 C 328.09375 307.535156 324.429688 309.03125 320.800781 310.625 C 317.175781 312.21875 313.597656 313.914062 310.066406 315.710938 C 306.53125 317.503906 303.054688 319.398438 299.628906 321.386719 C 296.203125 323.375 292.832031 325.457031 289.523438 327.632812 C 286.210938 329.808594 282.964844 332.078125 279.78125 334.433594 C 276.597656 336.789062 273.480469 339.234375 270.433594 341.765625 C 267.386719 344.296875 264.410156 346.910156 261.507812 349.605469 C 258.609375 352.304688 255.78125 355.078125 253.035156 357.933594 C 250.289062 360.789062 247.621094 363.714844 245.039062 366.71875 C 242.453125 369.722656 239.953125 372.792969 237.542969 375.933594 C 235.128906 379.078125 232.804688 382.285156 230.570312 385.554688 C 228.335938 388.828125 226.195312 392.15625 224.144531 395.546875 C 222.097656 398.9375 220.144531 402.382812 218.289062 405.882812 C 216.429688 409.382812 214.671875 412.933594 213.015625 416.53125 C 211.355469 420.125 209.796875 423.769531 208.339844 427.453125 C 206.886719 431.136719 205.53125 434.859375 204.285156 438.617188 C 203.035156 442.378906 201.890625 446.167969 200.855469 449.992188 C 199.816406 453.816406 198.886719 457.664062 198.0625 461.539062 C 197.242188 465.414062 196.527344 469.308594 195.921875 473.226562 C 195.3125 477.140625 194.816406 481.070312 194.429688 485.011719 C 194.042969 488.953125 193.765625 492.90625 193.601562 496.863281 C 193.433594 500.820312 193.375 504.78125 193.429688 508.742188 C 193.484375 512.703125 193.648438 516.660156 193.921875 520.613281 C 194.195312 524.5625 194.582031 528.503906 195.074219 532.4375 C 195.570312 536.367188 196.171875 540.28125 196.882812 544.175781 C 197.59375 548.074219 198.414062 551.949219 199.34375 555.800781 C 200.269531 559.652344 201.304688 563.472656 202.445312 567.269531 C 203.585938 571.0625 204.832031 574.820312 206.183594 578.546875 C 207.53125 582.269531 208.984375 585.953125 210.542969 589.597656 C 212.097656 593.242188 213.753906 596.835938 215.507812 600.390625 C 217.265625 603.941406 219.117188 607.441406 221.070312 610.886719 C 223.019531 614.335938 225.066406 617.726562 227.207031 621.058594 C 229.347656 624.394531 231.578125 627.664062 233.898438 630.875 C 236.222656 634.085938 238.632812 637.226562 241.128906 640.300781 C 243.628906 643.378906 246.207031 646.378906 248.871094 649.3125 C 251.539062 652.242188 254.28125 655.097656 257.105469 657.875 C 259.929688 660.65625 262.828125 663.351562 265.804688 665.96875 C 268.777344 668.585938 271.820312 671.121094 274.9375 673.566406 C 278.050781 676.015625 281.234375 678.371094 284.480469 680.640625 C 287.726562 682.914062 291.035156 685.089844 294.402344 687.175781 C 297.769531 689.261719 301.195312 691.253906 304.671875 693.148438 C 308.152344 695.042969 311.679688 696.839844 315.261719 698.535156 C 318.839844 700.234375 322.464844 701.832031 326.132812 703.328125 C 329.800781 704.824219 333.507812 706.21875 337.253906 707.507812 C 340.996094 708.796875 344.777344 709.984375 348.589844 711.0625 C 352.398438 712.140625 356.238281 713.113281 360.105469 713.980469 C 363.972656 714.84375 367.859375 715.601562 371.765625 716.25 C 375.675781 716.898438 379.597656 717.4375 383.535156 717.867188 C 387.472656 718.296875 391.421875 718.617188 395.375 718.828125 C 399.332031 719.039062 403.292969 719.140625 407.253906 719.128906 C 411.214844 719.117188 415.171875 718.996094 419.128906 718.765625 C 423.082031 718.535156 427.027344 718.195312 430.964844 717.742188 C 434.898438 717.292969 438.820312 716.734375 442.722656 716.0625 C 446.628906 715.394531 450.511719 714.617188 454.375 713.730469 C 458.234375 712.84375 462.070312 711.851562 465.875 710.753906 C 469.679688 709.652344 473.453125 708.449219 477.191406 707.140625 C 480.929688 705.832031 484.628906 704.417969 488.289062 702.902344 C 491.949219 701.386719 495.566406 699.769531 499.136719 698.054688 C 502.707031 696.335938 506.226562 694.519531 509.695312 692.609375 C 513.164062 690.695312 516.578125 688.6875 519.933594 686.582031 C 523.289062 684.480469 526.585938 682.285156 529.820312 679.996094 C 533.054688 677.710938 536.226562 675.335938 539.328125 672.871094 C 542.429688 670.40625 545.460938 667.859375 548.421875 665.226562 C 551.382812 662.59375 554.265625 659.882812 557.074219 657.089844 C 559.886719 654.296875 562.613281 651.425781 565.265625 648.480469 C 567.914062 645.535156 570.476562 642.519531 572.960938 639.429688 C 575.441406 636.339844 577.835938 633.1875 580.140625 629.964844 C 582.445312 626.742188 584.660156 623.460938 586.78125 620.113281 C 588.902344 616.769531 590.929688 613.367188 592.863281 609.910156 C 594.796875 606.453125 596.632812 602.941406 598.371094 599.382812 C 600.105469 595.820312 601.742188 592.214844 603.28125 588.566406 C 604.816406 584.914062 606.25 581.222656 607.582031 577.488281 C 608.910156 573.757812 610.136719 569.992188 611.257812 566.195312 C 612.378906 562.394531 613.394531 558.566406 614.300781 554.710938 C 615.210938 550.851562 616.007812 546.976562 616.699219 543.074219 C 617.390625 539.171875 617.972656 535.257812 618.445312 531.324219 C 618.921875 527.390625 619.285156 523.445312 619.535156 519.492188 C 619.789062 515.539062 619.933594 511.582031 619.964844 507.621094 C 620 503.660156 619.921875 499.699219 619.734375 495.742188 C 619.546875 491.785156 619.25 487.835938 618.839844 483.894531 C 618.433594 479.957031 617.917969 476.027344 617.289062 472.117188 Z M 617.289062 472.117188 "/><path style=" stroke:none;fill-rule:nonzero;fill:#4c583f;fill-opacity:1;" d="M 318.203125 457.101562 C 317.488281 456.410156 316.71875 455.800781 315.886719 455.261719 C 315.054688 454.722656 314.179688 454.273438 313.261719 453.90625 C 312.339844 453.539062 311.394531 453.265625 310.421875 453.082031 C 309.449219 452.898438 308.46875 452.8125 307.476562 452.820312 C 306.488281 452.828125 305.507812 452.933594 304.539062 453.132812 C 303.566406 453.332031 302.625 453.621094 301.714844 454.003906 C 300.800781 454.386719 299.933594 454.855469 299.113281 455.40625 C 298.289062 455.960938 297.527344 456.585938 296.828125 457.285156 C 296.128906 457.984375 295.503906 458.746094 294.949219 459.566406 C 294.398438 460.390625 293.933594 461.257812 293.550781 462.171875 C 293.167969 463.082031 292.875 464.023438 292.675781 464.996094 C 292.476562 465.964844 292.371094 466.945312 292.363281 467.933594 C 292.355469 468.921875 292.441406 469.90625 292.625 470.878906 C 292.808594 471.851562 293.082031 472.796875 293.449219 473.714844 C 293.816406 474.636719 294.269531 475.511719 294.804688 476.34375 C 295.34375 477.175781 295.957031 477.945312 296.644531 478.65625 L 388.121094 570.136719 C 388.828125 570.84375 389.597656 571.476562 390.433594 572.03125 C 391.265625 572.585938 392.140625 573.058594 393.066406 573.441406 C 393.992188 573.824219 394.945312 574.113281 395.925781 574.308594 C 396.910156 574.503906 397.898438 574.601562 398.902344 574.601562 C 399.902344 574.601562 400.894531 574.503906 401.875 574.308594 C 402.855469 574.113281 403.808594 573.824219 404.734375 573.441406 C 405.660156 573.058594 406.539062 572.585938 407.371094 572.03125 C 408.203125 571.476562 408.972656 570.84375 409.679688 570.136719 L 577.390625 402.425781 C 577.753906 402.074219 578.097656 401.707031 578.425781 401.324219 C 578.75 400.9375 579.058594 400.539062 579.34375 400.121094 C 579.632812 399.707031 579.898438 399.277344 580.140625 398.835938 C 580.386719 398.394531 580.609375 397.941406 580.808594 397.476562 C 581.007812 397.011719 581.183594 396.539062 581.335938 396.058594 C 581.488281 395.578125 581.613281 395.089844 581.71875 394.597656 C 581.824219 394.101562 581.902344 393.605469 581.957031 393.101562 C 582.011719 392.601562 582.039062 392.097656 582.042969 391.59375 C 582.046875 391.085938 582.027344 390.582031 581.980469 390.082031 C 581.9375 389.578125 581.867188 389.078125 581.769531 388.582031 C 581.675781 388.085938 581.554688 387.597656 581.410156 387.113281 C 581.269531 386.628906 581.101562 386.152344 580.910156 385.6875 C 580.71875 385.21875 580.503906 384.761719 580.269531 384.316406 C 580.03125 383.871094 579.773438 383.4375 579.492188 383.015625 C 579.214844 382.597656 578.914062 382.191406 578.59375 381.800781 C 578.273438 381.410156 577.9375 381.035156 577.578125 380.679688 C 577.222656 380.320312 576.847656 379.984375 576.457031 379.664062 C 576.066406 379.34375 575.660156 379.042969 575.242188 378.765625 C 574.820312 378.484375 574.386719 378.226562 573.941406 377.988281 C 573.496094 377.753906 573.039062 377.539062 572.570312 377.347656 C 572.105469 377.15625 571.628906 376.988281 571.144531 376.847656 C 570.660156 376.703125 570.171875 376.582031 569.675781 376.488281 C 569.179688 376.390625 568.679688 376.320312 568.175781 376.277344 C 567.675781 376.230469 567.171875 376.210938 566.664062 376.214844 C 566.160156 376.21875 565.65625 376.246094 565.15625 376.300781 C 564.652344 376.355469 564.15625 376.4375 563.660156 376.539062 C 563.167969 376.644531 562.679688 376.769531 562.199219 376.921875 C 561.71875 377.074219 561.246094 377.25 560.78125 377.449219 C 560.316406 377.648438 559.863281 377.871094 559.421875 378.117188 C 558.980469 378.359375 558.550781 378.625 558.136719 378.914062 C 557.71875 379.199219 557.320312 379.507812 556.933594 379.832031 C 556.550781 380.160156 556.183594 380.503906 555.832031 380.867188 L 398.902344 537.796875 Z M 318.203125 457.101562 "/><g clip-rule="nonzero" clip-path="url(#8d29e96efa)"><g transform="matrix(1,0,0,1,428,522)"><g clip-path="url(#e3a518acaf)"><g clip-rule="nonzero" clip-path="url(#9d1e68f20f)"><path style=" stroke:none;fill-rule:nonzero;fill:#4c583f;fill-opacity:1;" d="M 0.328125 0.613281 L 7.355469 0.613281 L 7.355469 7.640625 L 0.328125 7.640625 Z M 0.328125 0.613281 "/></g></g></g></g></g></svg>