<svg xmlns="http://www.w3.org/2000/svg" xmlns:xlink="http://www.w3.org/1999/xlink" width="1080" zoomAndPan="magnify" viewBox="0 0 810 1012.49997" height="1350" preserveAspectRatio="xMidYMid meet" version="1.2"><defs><clipPath id="c8e06ac193"><path d="M 212 297.929688 L 612.976562 297.929688 L 612.976562 699 L 212 699 Z M 212 297.929688 "/></clipPath><clipPath id="ea0357914f"><path d="M 247.207031 441.386719 L 252.269531 441.386719 L 252.269531 445.136719 L 247.207031 445.136719 Z M 247.207031 441.386719 "/></clipPath></defs><g id="0dc84a30f9"><g clip-rule="nonzero" clip-path="url(#c8e06ac193)"><path style=" stroke:none;fill-rule:nonzero;fill:#353f2a;fill-opacity:1;" d="M 599.078125 297.925781 L 491.78125 297.925781 C 490.871094 297.925781 489.96875 298.015625 489.074219 298.195312 C 488.179688 298.375 487.3125 298.636719 486.46875 298.988281 C 485.625 299.335938 484.824219 299.765625 484.066406 300.269531 C 483.308594 300.777344 482.609375 301.355469 481.964844 302 C 481.316406 302.644531 480.742188 303.34375 480.234375 304.101562 C 479.730469 304.859375 479.300781 305.660156 478.953125 306.503906 C 478.601562 307.347656 478.335938 308.214844 478.160156 309.109375 C 477.980469 310.003906 477.890625 310.90625 477.890625 311.820312 L 477.890625 344.019531 C 477.890625 344.933594 477.980469 345.835938 478.160156 346.730469 C 478.335938 347.625 478.601562 348.492188 478.953125 349.335938 C 479.300781 350.179688 479.730469 350.980469 480.234375 351.738281 C 480.742188 352.496094 481.316406 353.195312 481.964844 353.839844 C 482.609375 354.484375 483.308594 355.0625 484.066406 355.570312 C 484.824219 356.074219 485.625 356.503906 486.46875 356.851562 C 487.3125 357.203125 488.179688 357.464844 489.074219 357.644531 C 489.96875 357.824219 490.871094 357.914062 491.78125 357.914062 L 510.570312 357.914062 L 465.121094 403.363281 C 401.761719 360.136719 314.535156 367.84375 259.890625 422.496094 C 196.894531 485.492188 196.894531 588.011719 259.890625 651.011719 C 261.761719 652.882812 263.679688 654.703125 265.640625 656.476562 C 267.601562 658.25 269.605469 659.972656 271.648438 661.648438 C 273.695312 663.324219 275.777344 664.945312 277.902344 666.519531 C 280.027344 668.09375 282.191406 669.613281 284.390625 671.082031 C 286.589844 672.546875 288.824219 673.960938 291.09375 675.316406 C 293.359375 676.675781 295.660156 677.976562 297.992188 679.21875 C 300.324219 680.464844 302.6875 681.652344 305.078125 682.78125 C 307.46875 683.910156 309.886719 684.980469 312.328125 685.988281 C 314.769531 687 317.238281 687.949219 319.726562 688.839844 C 322.214844 689.730469 324.726562 690.558594 327.257812 691.324219 C 329.785156 692.089844 332.335938 692.792969 334.898438 693.433594 C 337.464844 694.078125 340.042969 694.65625 342.636719 695.171875 C 345.230469 695.683594 347.832031 696.136719 350.449219 696.523438 C 353.0625 696.910156 355.6875 697.234375 358.316406 697.492188 C 360.949219 697.753906 363.585938 697.945312 366.222656 698.074219 C 368.863281 698.207031 371.507812 698.269531 374.152344 698.269531 C 376.792969 698.269531 379.4375 698.207031 382.078125 698.074219 C 384.71875 697.945312 387.355469 697.753906 389.984375 697.492188 C 392.617188 697.234375 395.238281 696.910156 397.855469 696.523438 C 400.46875 696.136719 403.074219 695.683594 405.667969 695.171875 C 408.257812 694.65625 410.839844 694.078125 413.402344 693.433594 C 415.96875 692.792969 418.515625 692.089844 421.046875 691.324219 C 423.574219 690.558594 426.085938 689.730469 428.574219 688.839844 C 431.066406 687.949219 433.53125 687 435.972656 685.988281 C 438.417969 684.980469 440.832031 683.910156 443.222656 682.78125 C 445.613281 681.652344 447.976562 680.464844 450.308594 679.21875 C 452.640625 677.976562 454.941406 676.675781 457.210938 675.316406 C 459.480469 673.960938 461.710938 672.546875 463.910156 671.082031 C 466.113281 669.613281 468.273438 668.09375 470.398438 666.519531 C 472.523438 664.945312 474.609375 663.324219 476.652344 661.648438 C 478.699219 659.972656 480.703125 658.25 482.660156 656.476562 C 484.621094 654.703125 486.539062 652.882812 488.410156 651.011719 C 543.046875 596.375 550.773438 509.136719 507.542969 445.78125 L 552.988281 400.335938 L 552.988281 419.121094 C 552.988281 420.035156 553.078125 420.9375 553.253906 421.832031 C 553.433594 422.726562 553.699219 423.59375 554.046875 424.4375 C 554.394531 425.277344 554.824219 426.078125 555.332031 426.835938 C 555.835938 427.59375 556.414062 428.296875 557.058594 428.941406 C 557.703125 429.585938 558.402344 430.164062 559.160156 430.667969 C 559.917969 431.175781 560.71875 431.605469 561.5625 431.953125 C 562.402344 432.304688 563.273438 432.566406 564.167969 432.746094 C 565.0625 432.925781 565.964844 433.015625 566.875 433.015625 L 599.078125 433.015625 C 599.992188 433.015625 600.894531 432.925781 601.789062 432.746094 C 602.683594 432.566406 603.550781 432.304688 604.394531 431.953125 C 605.234375 431.605469 606.035156 431.175781 606.792969 430.671875 C 607.550781 430.164062 608.253906 429.585938 608.898438 428.941406 C 609.542969 428.296875 610.121094 427.597656 610.625 426.839844 C 611.132812 426.078125 611.5625 425.28125 611.910156 424.4375 C 612.261719 423.59375 612.523438 422.726562 612.703125 421.832031 C 612.882812 420.9375 612.972656 420.035156 612.972656 419.121094 L 612.972656 311.820312 C 612.972656 310.90625 612.882812 310.003906 612.703125 309.109375 C 612.523438 308.214844 612.261719 307.347656 611.910156 306.503906 C 611.5625 305.660156 611.132812 304.859375 610.625 304.101562 C 610.121094 303.34375 609.542969 302.644531 608.898438 302 C 608.253906 301.355469 607.550781 300.777344 606.792969 300.269531 C 606.035156 299.765625 605.234375 299.335938 604.394531 298.988281 C 603.550781 298.636719 602.683594 298.375 601.789062 298.195312 C 600.894531 298.015625 599.992188 297.925781 599.078125 297.925781 Z M 600.148438 419.121094 C 600.148438 419.265625 600.121094 419.402344 600.066406 419.53125 C 600.011719 419.664062 599.933594 419.777344 599.835938 419.878906 C 599.734375 419.976562 599.617188 420.054688 599.488281 420.109375 C 599.355469 420.164062 599.21875 420.191406 599.078125 420.191406 L 566.875 420.191406 C 566.734375 420.191406 566.597656 420.164062 566.46875 420.109375 C 566.335938 420.054688 566.222656 419.976562 566.121094 419.878906 C 566.023438 419.777344 565.945312 419.664062 565.890625 419.53125 C 565.835938 419.398438 565.8125 419.265625 565.8125 419.121094 L 565.8125 384.855469 C 565.8125 384.222656 565.71875 383.601562 565.535156 382.996094 C 565.351562 382.386719 565.085938 381.820312 564.734375 381.292969 C 564.378906 380.765625 563.960938 380.300781 563.46875 379.898438 C 562.980469 379.496094 562.441406 379.171875 561.855469 378.929688 C 561.269531 378.6875 560.660156 378.535156 560.027344 378.472656 C 559.398438 378.410156 558.769531 378.441406 558.148438 378.566406 C 557.527344 378.691406 556.9375 378.902344 556.375 379.199219 C 555.816406 379.5 555.3125 379.875 554.867188 380.324219 L 494.757812 440.429688 C 494.535156 440.710938 494.339844 441.007812 494.167969 441.320312 C 493.996094 441.546875 493.839844 441.78125 493.699219 442.023438 C 493.042969 443.234375 492.832031 444.515625 493.058594 445.875 C 493.09375 446.199219 493.15625 446.519531 493.246094 446.832031 C 493.394531 447.277344 493.589844 447.699219 493.832031 448.101562 C 493.925781 448.339844 494.03125 448.570312 494.15625 448.796875 C 537.21875 507.398438 530.847656 590.429688 479.34375 641.945312 C 421.339844 699.949219 326.960938 699.949219 268.960938 641.945312 C 210.960938 583.933594 210.960938 489.5625 268.960938 431.5625 C 320.484375 380.03125 403.53125 373.675781 462.144531 416.777344 C 462.375 416.902344 462.617188 417.011719 462.863281 417.109375 C 463.570312 417.550781 464.339844 417.804688 465.171875 417.871094 C 465.59375 417.933594 466.015625 417.949219 466.441406 417.921875 C 466.832031 417.882812 467.214844 417.808594 467.585938 417.699219 C 467.992188 417.601562 468.382812 417.460938 468.757812 417.285156 C 469.132812 417.085938 469.480469 416.851562 469.808594 416.585938 C 470.042969 416.453125 470.261719 416.304688 470.476562 416.140625 L 530.582031 356.035156 C 531.03125 355.585938 531.402344 355.082031 531.703125 354.523438 C 532.003906 353.964844 532.214844 353.375 532.335938 352.753906 C 532.460938 352.128906 532.492188 351.503906 532.429688 350.875 C 532.367188 350.242188 532.214844 349.632812 531.972656 349.046875 C 531.730469 348.460938 531.40625 347.925781 531.003906 347.433594 C 530.601562 346.945312 530.136719 346.523438 529.609375 346.171875 C 529.082031 345.816406 528.515625 345.550781 527.910156 345.367188 C 527.304688 345.183594 526.683594 345.089844 526.046875 345.089844 L 491.78125 345.089844 C 491.640625 345.089844 491.503906 345.0625 491.375 345.007812 C 491.242188 344.953125 491.128906 344.878906 491.027344 344.777344 C 490.925781 344.675781 490.851562 344.5625 490.796875 344.429688 C 490.742188 344.300781 490.714844 344.164062 490.714844 344.019531 L 490.714844 311.820312 C 490.714844 311.675781 490.742188 311.539062 490.796875 311.410156 C 490.851562 311.277344 490.925781 311.164062 491.027344 311.0625 C 491.128906 310.960938 491.242188 310.886719 491.375 310.832031 C 491.503906 310.777344 491.640625 310.75 491.78125 310.75 L 599.078125 310.75 C 599.21875 310.75 599.355469 310.777344 599.488281 310.832031 C 599.617188 310.886719 599.734375 310.960938 599.835938 311.0625 C 599.933594 311.164062 600.011719 311.277344 600.066406 311.410156 C 600.121094 311.539062 600.148438 311.675781 600.148438 311.820312 Z M 600.148438 419.121094 "/></g><path style=" stroke:none;fill-rule:nonzero;fill:#353f2a;fill-opacity:1;" d="M 374.152344 417.910156 C 372.207031 417.910156 370.261719 417.960938 368.320312 418.054688 C 366.378906 418.152344 364.4375 418.292969 362.503906 418.484375 C 360.566406 418.675781 358.636719 418.914062 356.714844 419.199219 C 354.789062 419.484375 352.875 419.816406 350.96875 420.195312 C 349.058594 420.574219 347.164062 421 345.277344 421.472656 C 343.390625 421.945312 341.515625 422.464844 339.652344 423.03125 C 337.792969 423.59375 335.945312 424.203125 334.117188 424.859375 C 332.285156 425.515625 330.46875 426.214844 328.671875 426.957031 C 326.875 427.703125 325.097656 428.492188 323.339844 429.320312 C 321.582031 430.152344 319.847656 431.027344 318.132812 431.945312 C 316.414062 432.863281 314.722656 433.820312 313.054688 434.820312 C 311.386719 435.820312 309.746094 436.859375 308.128906 437.941406 C 306.511719 439.019531 304.921875 440.140625 303.359375 441.300781 C 301.796875 442.457031 300.265625 443.652344 298.761719 444.886719 C 297.257812 446.121094 295.785156 447.390625 294.34375 448.699219 C 292.902344 450.003906 291.496094 451.34375 290.121094 452.71875 C 288.746094 454.09375 287.402344 455.503906 286.097656 456.945312 C 284.792969 458.386719 283.523438 459.855469 282.289062 461.359375 C 281.054688 462.863281 279.859375 464.398438 278.699219 465.957031 C 277.539062 467.519531 276.421875 469.109375 275.339844 470.726562 C 274.261719 472.34375 273.21875 473.988281 272.21875 475.65625 C 271.21875 477.324219 270.261719 479.015625 269.34375 480.730469 C 268.429688 482.445312 267.554688 484.183594 266.722656 485.941406 C 265.890625 487.699219 265.101562 489.476562 264.359375 491.273438 C 263.613281 493.070312 262.914062 494.882812 262.257812 496.714844 C 261.605469 498.546875 260.996094 500.390625 260.429688 502.253906 C 259.863281 504.113281 259.347656 505.988281 258.875 507.875 C 258.402344 509.761719 257.976562 511.660156 257.597656 513.566406 C 257.214844 515.472656 256.882812 517.390625 256.597656 519.3125 C 256.3125 521.238281 256.074219 523.167969 255.886719 525.101562 C 255.695312 527.039062 255.550781 528.976562 255.457031 530.917969 C 255.359375 532.863281 255.3125 534.804688 255.3125 536.75 C 255.3125 538.695312 255.359375 540.640625 255.457031 542.582031 C 255.550781 544.523438 255.695312 546.464844 255.882812 548.398438 C 256.074219 550.332031 256.3125 552.261719 256.597656 554.1875 C 256.882812 556.109375 257.214844 558.027344 257.597656 559.933594 C 257.976562 561.839844 258.402344 563.738281 258.875 565.625 C 259.347656 567.511719 259.863281 569.386719 260.429688 571.246094 C 260.992188 573.109375 261.605469 574.953125 262.257812 576.785156 C 262.914062 578.617188 263.613281 580.429688 264.359375 582.226562 C 265.101562 584.023438 265.890625 585.800781 266.722656 587.558594 C 267.554688 589.316406 268.425781 591.054688 269.34375 592.769531 C 270.261719 594.484375 271.21875 596.175781 272.21875 597.84375 C 273.21875 599.511719 274.257812 601.15625 275.339844 602.773438 C 276.421875 604.390625 277.539062 605.980469 278.699219 607.542969 C 279.855469 609.105469 281.050781 610.636719 282.285156 612.140625 C 283.519531 613.644531 284.789062 615.117188 286.097656 616.554688 C 287.402344 617.996094 288.742188 619.40625 290.117188 620.78125 C 291.492188 622.15625 292.902344 623.496094 294.34375 624.804688 C 295.785156 626.109375 297.253906 627.378906 298.757812 628.613281 C 300.261719 629.847656 301.796875 631.042969 303.355469 632.203125 C 304.917969 633.359375 306.507812 634.480469 308.125 635.558594 C 309.742188 636.640625 311.386719 637.679688 313.054688 638.679688 C 314.722656 639.679688 316.414062 640.640625 318.128906 641.554688 C 319.84375 642.472656 321.582031 643.347656 323.339844 644.179688 C 325.097656 645.011719 326.875 645.796875 328.671875 646.542969 C 330.46875 647.285156 332.28125 647.984375 334.113281 648.640625 C 335.945312 649.296875 337.789062 649.90625 339.652344 650.472656 C 341.511719 651.035156 343.386719 651.554688 345.273438 652.027344 C 347.160156 652.5 349.058594 652.925781 350.964844 653.304688 C 352.871094 653.683594 354.789062 654.015625 356.710938 654.300781 C 358.636719 654.585938 360.566406 654.824219 362.5 655.015625 C 364.4375 655.207031 366.375 655.351562 368.316406 655.445312 C 370.261719 655.542969 372.203125 655.589844 374.148438 655.589844 C 376.09375 655.589844 378.035156 655.542969 379.980469 655.445312 C 381.921875 655.351562 383.859375 655.207031 385.796875 655.015625 C 387.730469 654.828125 389.660156 654.589844 391.585938 654.304688 C 393.507812 654.019531 395.425781 653.683594 397.332031 653.304688 C 399.238281 652.925781 401.136719 652.5 403.023438 652.027344 C 404.910156 651.554688 406.785156 651.039062 408.644531 650.472656 C 410.507812 649.90625 412.351562 649.296875 414.183594 648.644531 C 416.015625 647.988281 417.828125 647.289062 419.625 646.542969 C 421.421875 645.800781 423.199219 645.011719 424.957031 644.179688 C 426.714844 643.347656 428.453125 642.476562 430.167969 641.558594 C 431.882812 640.640625 433.574219 639.683594 435.242188 638.683594 C 436.910156 637.683594 438.554688 636.644531 440.171875 635.5625 C 441.789062 634.480469 443.378906 633.363281 444.941406 632.203125 C 446.503906 631.046875 448.035156 629.851562 449.539062 628.617188 C 451.042969 627.382812 452.515625 626.113281 453.957031 624.804688 C 455.398438 623.5 456.804688 622.160156 458.179688 620.785156 C 459.554688 619.410156 460.894531 618 462.203125 616.558594 C 463.507812 615.117188 464.777344 613.648438 466.011719 612.144531 C 467.246094 610.640625 468.441406 609.105469 469.601562 607.546875 C 470.757812 605.984375 471.878906 604.394531 472.960938 602.777344 C 474.039062 601.160156 475.082031 599.515625 476.082031 597.847656 C 477.082031 596.179688 478.039062 594.488281 478.957031 592.773438 C 479.871094 591.058594 480.746094 589.320312 481.578125 587.5625 C 482.410156 585.804688 483.199219 584.027344 483.941406 582.230469 C 484.6875 580.433594 485.386719 578.621094 486.042969 576.789062 C 486.695312 574.957031 487.308594 573.113281 487.871094 571.25 C 488.4375 569.390625 488.953125 567.515625 489.425781 565.628906 C 489.898438 563.742188 490.324219 561.847656 490.707031 559.9375 C 491.085938 558.03125 491.417969 556.117188 491.703125 554.191406 C 491.988281 552.269531 492.226562 550.339844 492.417969 548.402344 C 492.609375 546.46875 492.75 544.527344 492.847656 542.585938 C 492.941406 540.644531 492.988281 538.699219 492.988281 536.753906 C 492.988281 534.808594 492.9375 532.867188 492.839844 530.925781 C 492.742188 528.984375 492.597656 527.046875 492.40625 525.109375 C 492.210938 523.175781 491.972656 521.246094 491.6875 519.324219 C 491.398438 517.402344 491.066406 515.484375 490.683594 513.578125 C 490.304688 511.671875 489.875 509.777344 489.402344 507.890625 C 488.929688 506.003906 488.410156 504.132812 487.84375 502.273438 C 487.277344 500.410156 486.664062 498.566406 486.011719 496.738281 C 485.355469 494.90625 484.652344 493.09375 483.90625 491.296875 C 483.164062 489.5 482.375 487.726562 481.542969 485.96875 C 480.710938 484.210938 479.835938 482.472656 478.917969 480.761719 C 478 479.046875 477.042969 477.355469 476.042969 475.6875 C 475.042969 474.019531 474 472.378906 472.921875 470.761719 C 471.839844 469.144531 470.71875 467.558594 469.5625 465.996094 C 468.402344 464.433594 467.207031 462.902344 465.972656 461.398438 C 464.738281 459.894531 463.46875 458.425781 462.164062 456.984375 C 460.859375 455.542969 459.519531 454.136719 458.144531 452.761719 C 456.769531 451.386719 455.359375 450.046875 453.921875 448.738281 C 452.480469 447.433594 451.007812 446.164062 449.503906 444.929688 C 448.003906 443.695312 446.472656 442.5 444.910156 441.34375 C 443.347656 440.183594 441.757812 439.0625 440.144531 437.984375 C 438.527344 436.902344 436.886719 435.863281 435.21875 434.863281 C 433.550781 433.863281 431.859375 432.902344 430.144531 431.984375 C 428.429688 431.066406 426.695312 430.191406 424.9375 429.359375 C 423.179688 428.527344 421.402344 427.742188 419.609375 426.996094 C 417.8125 426.25 416 425.550781 414.167969 424.894531 C 412.339844 424.238281 410.492188 423.625 408.632812 423.058594 C 406.773438 422.496094 404.902344 421.972656 403.015625 421.5 C 401.128906 421.027344 399.234375 420.597656 397.328125 420.21875 C 395.417969 419.835938 393.503906 419.503906 391.582031 419.214844 C 389.660156 418.929688 387.730469 418.6875 385.796875 418.496094 C 383.859375 418.304688 381.921875 418.160156 379.980469 418.0625 C 378.039062 417.964844 376.09375 417.914062 374.152344 417.910156 Z M 374.152344 642.765625 C 372.417969 642.765625 370.683594 642.722656 368.949219 642.636719 C 367.214844 642.550781 365.488281 642.425781 363.761719 642.253906 C 362.035156 642.085938 360.3125 641.871094 358.597656 641.617188 C 356.878906 641.363281 355.171875 641.066406 353.46875 640.726562 C 351.765625 640.390625 350.074219 640.007812 348.390625 639.585938 C 346.707031 639.167969 345.039062 638.703125 343.378906 638.199219 C 341.714844 637.695312 340.070312 637.152344 338.4375 636.566406 C 336.800781 635.984375 335.183594 635.359375 333.582031 634.695312 C 331.976562 634.03125 330.394531 633.328125 328.824219 632.585938 C 327.257812 631.84375 325.707031 631.066406 324.175781 630.246094 C 322.644531 629.429688 321.136719 628.574219 319.648438 627.683594 C 318.160156 626.789062 316.695312 625.863281 315.253906 624.898438 C 313.808594 623.933594 312.390625 622.9375 311 621.902344 C 309.605469 620.867188 308.238281 619.800781 306.898438 618.699219 C 305.554688 617.601562 304.242188 616.46875 302.957031 615.300781 C 301.671875 614.136719 300.414062 612.941406 299.1875 611.714844 C 297.960938 610.488281 296.765625 609.230469 295.601562 607.945312 C 294.433594 606.660156 293.300781 605.347656 292.203125 604.003906 C 291.101562 602.664062 290.035156 601.296875 289 599.902344 C 287.964844 598.511719 286.96875 597.089844 286.003906 595.648438 C 285.039062 594.207031 284.113281 592.742188 283.21875 591.253906 C 282.328125 589.765625 281.472656 588.253906 280.65625 586.726562 C 279.835938 585.195312 279.058594 583.644531 278.316406 582.078125 C 277.574219 580.507812 276.871094 578.921875 276.207031 577.320312 C 275.542969 575.71875 274.917969 574.097656 274.335938 572.464844 C 273.75 570.832031 273.207031 569.183594 272.703125 567.523438 C 272.199219 565.863281 271.734375 564.191406 271.3125 562.511719 C 270.894531 560.828125 270.511719 559.132812 270.175781 557.433594 C 269.835938 555.730469 269.539062 554.023438 269.285156 552.304688 C 269.03125 550.589844 268.816406 548.867188 268.648438 547.140625 C 268.476562 545.414062 268.351562 543.683594 268.265625 541.953125 C 268.179688 540.21875 268.136719 538.484375 268.136719 536.75 C 268.136719 535.015625 268.179688 533.28125 268.265625 531.546875 C 268.351562 529.816406 268.476562 528.085938 268.648438 526.359375 C 268.816406 524.632812 269.03125 522.910156 269.285156 521.195312 C 269.539062 519.476562 269.835938 517.769531 270.175781 516.066406 C 270.511719 514.367188 270.894531 512.671875 271.316406 510.992188 C 271.734375 509.308594 272.199219 507.636719 272.703125 505.976562 C 273.207031 504.316406 273.75 502.667969 274.335938 501.035156 C 274.917969 499.402344 275.542969 497.78125 276.207031 496.179688 C 276.871094 494.578125 277.574219 492.992188 278.316406 491.421875 C 279.058594 489.855469 279.839844 488.304688 280.65625 486.773438 C 281.472656 485.246094 282.328125 483.734375 283.222656 482.246094 C 284.113281 480.757812 285.039062 479.292969 286.003906 477.851562 C 286.96875 476.410156 287.96875 474.992188 289 473.597656 C 290.035156 472.203125 291.101562 470.835938 292.203125 469.496094 C 293.304688 468.152344 294.4375 466.839844 295.601562 465.554688 C 296.765625 464.269531 297.960938 463.011719 299.1875 461.785156 C 300.417969 460.558594 301.671875 459.363281 302.957031 458.199219 C 304.242188 457.03125 305.558594 455.898438 306.898438 454.800781 C 308.238281 453.699219 309.605469 452.632812 311 451.597656 C 312.394531 450.566406 313.8125 449.566406 315.253906 448.601562 C 316.699219 447.636719 318.164062 446.710938 319.652344 445.816406 C 321.140625 444.925781 322.648438 444.070312 324.179688 443.253906 C 325.707031 442.433594 327.257812 441.65625 328.828125 440.914062 C 330.394531 440.171875 331.980469 439.46875 333.582031 438.804688 C 335.1875 438.140625 336.804688 437.515625 338.4375 436.933594 C 340.070312 436.347656 341.71875 435.804688 343.378906 435.300781 C 345.039062 434.796875 346.710938 434.335938 348.394531 433.914062 C 350.078125 433.492188 351.769531 433.109375 353.472656 432.773438 C 355.171875 432.433594 356.882812 432.136719 358.597656 431.882812 C 360.316406 431.628906 362.035156 431.417969 363.761719 431.246094 C 365.488281 431.078125 367.21875 430.949219 368.953125 430.863281 C 370.683594 430.777344 372.417969 430.734375 374.152344 430.734375 C 375.890625 430.738281 377.621094 430.777344 379.355469 430.863281 C 381.089844 430.949219 382.820312 431.078125 384.546875 431.246094 C 386.273438 431.417969 387.992188 431.628906 389.710938 431.882812 C 391.425781 432.140625 393.132812 432.433594 394.835938 432.773438 C 396.539062 433.113281 398.230469 433.492188 399.914062 433.914062 C 401.597656 434.335938 403.269531 434.796875 404.929688 435.300781 C 406.589844 435.804688 408.234375 436.351562 409.867188 436.933594 C 411.503906 437.519531 413.121094 438.144531 414.722656 438.808594 C 416.328125 439.472656 417.914062 440.175781 419.480469 440.917969 C 421.050781 441.65625 422.597656 442.4375 424.128906 443.257812 C 425.660156 444.074219 427.167969 444.929688 428.65625 445.820312 C 430.144531 446.710938 431.609375 447.640625 433.050781 448.605469 C 434.496094 449.570312 435.914062 450.566406 437.304688 451.601562 C 438.699219 452.632812 440.066406 453.703125 441.410156 454.800781 C 442.75 455.902344 444.0625 457.035156 445.347656 458.203125 C 446.632812 459.367188 447.890625 460.5625 449.117188 461.789062 C 450.34375 463.015625 451.539062 464.273438 452.703125 465.558594 C 453.871094 466.84375 455.003906 468.15625 456.101562 469.5 C 457.203125 470.839844 458.269531 472.207031 459.304688 473.601562 C 460.339844 474.996094 461.335938 476.414062 462.300781 477.855469 C 463.265625 479.296875 464.191406 480.761719 465.085938 482.25 C 465.976562 483.738281 466.832031 485.25 467.648438 486.777344 C 468.46875 488.308594 469.246094 489.859375 469.988281 491.425781 C 470.730469 492.996094 471.433594 494.582031 472.097656 496.183594 C 472.761719 497.785156 473.386719 499.40625 473.96875 501.039062 C 474.554688 502.671875 475.097656 504.320312 475.601562 505.980469 C 476.105469 507.640625 476.566406 509.3125 476.988281 510.996094 C 477.410156 512.679688 477.789062 514.371094 478.128906 516.070312 C 478.46875 517.773438 478.765625 519.484375 479.019531 521.199219 C 479.273438 522.914062 479.484375 524.636719 479.65625 526.363281 C 479.824219 528.089844 479.953125 529.820312 480.039062 531.550781 C 480.121094 533.285156 480.164062 535.019531 480.164062 536.753906 C 480.164062 538.488281 480.117188 540.222656 480.03125 541.953125 C 479.945312 543.6875 479.816406 545.414062 479.644531 547.140625 C 479.472656 548.867188 479.257812 550.589844 479 552.304688 C 478.746094 554.019531 478.449219 555.726562 478.105469 557.429688 C 477.765625 559.128906 477.386719 560.820312 476.964844 562.503906 C 476.539062 564.183594 476.078125 565.855469 475.570312 567.515625 C 475.066406 569.171875 474.523438 570.820312 473.9375 572.453125 C 473.351562 574.085938 472.726562 575.703125 472.0625 577.304688 C 471.398438 578.90625 470.695312 580.492188 469.949219 582.058594 C 469.207031 583.625 468.429688 585.175781 467.609375 586.703125 C 466.792969 588.234375 465.9375 589.742188 465.042969 591.226562 C 464.152344 592.714844 463.222656 594.179688 462.261719 595.621094 C 461.296875 597.0625 460.296875 598.480469 459.261719 599.875 C 458.230469 601.265625 457.164062 602.632812 456.0625 603.972656 C 454.960938 605.316406 453.828125 606.628906 452.664062 607.914062 C 451.5 609.199219 450.304688 610.453125 449.078125 611.679688 C 447.851562 612.90625 446.59375 614.101562 445.308594 615.265625 C 444.023438 616.429688 442.710938 617.5625 441.371094 618.664062 C 440.03125 619.765625 438.664062 620.832031 437.269531 621.867188 C 435.878906 622.898438 434.460938 623.898438 433.019531 624.863281 C 431.578125 625.824219 430.113281 626.753906 428.625 627.644531 C 427.136719 628.539062 425.628906 629.394531 424.101562 630.210938 C 422.570312 631.03125 421.023438 631.808594 419.457031 632.550781 C 417.886719 633.292969 416.304688 633.996094 414.699219 634.664062 C 413.097656 635.328125 411.480469 635.953125 409.847656 636.539062 C 408.214844 637.121094 406.570312 637.667969 404.910156 638.171875 C 403.25 638.675781 401.582031 639.140625 399.898438 639.5625 C 398.214844 639.988281 396.523438 640.367188 394.824219 640.707031 C 393.125 641.046875 391.414062 641.34375 389.699219 641.601562 C 387.984375 641.859375 386.265625 642.070312 384.539062 642.242188 C 382.8125 642.414062 381.082031 642.542969 379.351562 642.632812 C 377.617188 642.71875 375.886719 642.761719 374.152344 642.765625 Z M 374.152344 642.765625 "/><path style=" stroke:none;fill-rule:nonzero;fill:#353f2a;fill-opacity:1;" d="M 433.695312 506.757812 L 404.144531 506.757812 L 404.144531 477.207031 C 404.144531 476.308594 404.054688 475.421875 403.878906 474.539062 C 403.703125 473.660156 403.445312 472.804688 403.101562 471.972656 C 402.753906 471.144531 402.332031 470.355469 401.835938 469.609375 C 401.335938 468.863281 400.769531 468.171875 400.132812 467.535156 C 399.496094 466.902344 398.808594 466.332031 398.058594 465.835938 C 397.3125 465.335938 396.523438 464.914062 395.695312 464.570312 C 394.867188 464.226562 394.011719 463.964844 393.128906 463.789062 C 392.25 463.613281 391.359375 463.523438 390.460938 463.523438 L 357.839844 463.523438 C 356.941406 463.523438 356.054688 463.613281 355.171875 463.789062 C 354.292969 463.964844 353.4375 464.226562 352.605469 464.570312 C 351.777344 464.914062 350.988281 465.335938 350.242188 465.835938 C 349.496094 466.332031 348.804688 466.902344 348.167969 467.535156 C 347.535156 468.171875 346.96875 468.863281 346.46875 469.609375 C 345.96875 470.355469 345.546875 471.144531 345.203125 471.972656 C 344.859375 472.804688 344.597656 473.660156 344.421875 474.539062 C 344.246094 475.421875 344.15625 476.308594 344.15625 477.207031 L 344.15625 506.757812 L 314.605469 506.757812 C 313.707031 506.757812 312.816406 506.84375 311.9375 507.019531 C 311.054688 507.199219 310.199219 507.457031 309.371094 507.800781 C 308.539062 508.144531 307.753906 508.566406 307.003906 509.066406 C 306.257812 509.566406 305.566406 510.132812 304.933594 510.769531 C 304.296875 511.402344 303.730469 512.09375 303.230469 512.839844 C 302.730469 513.589844 302.308594 514.375 301.964844 515.207031 C 301.621094 516.035156 301.363281 516.890625 301.1875 517.773438 C 301.011719 518.652344 300.921875 519.542969 300.921875 520.441406 L 300.921875 553.0625 C 300.921875 553.960938 301.011719 554.847656 301.1875 555.730469 C 301.363281 556.609375 301.621094 557.464844 301.964844 558.296875 C 302.308594 559.125 302.730469 559.914062 303.230469 560.660156 C 303.730469 561.40625 304.296875 562.097656 304.933594 562.734375 C 305.566406 563.367188 306.257812 563.933594 307.003906 564.433594 C 307.753906 564.933594 308.539062 565.355469 309.371094 565.699219 C 310.199219 566.042969 311.054688 566.304688 311.9375 566.480469 C 312.816406 566.65625 313.707031 566.742188 314.605469 566.746094 L 344.15625 566.746094 L 344.15625 596.292969 C 344.15625 597.191406 344.246094 598.082031 344.421875 598.960938 C 344.597656 599.84375 344.859375 600.699219 345.203125 601.527344 C 345.546875 602.355469 345.96875 603.144531 346.46875 603.890625 C 346.96875 604.636719 347.535156 605.328125 348.167969 605.964844 C 348.804688 606.601562 349.496094 607.167969 350.242188 607.667969 C 350.988281 608.164062 351.777344 608.585938 352.605469 608.929688 C 353.4375 609.277344 354.292969 609.535156 355.171875 609.710938 C 356.054688 609.886719 356.941406 609.976562 357.839844 609.976562 L 390.460938 609.976562 C 391.359375 609.976562 392.25 609.886719 393.128906 609.710938 C 394.011719 609.535156 394.867188 609.277344 395.695312 608.929688 C 396.523438 608.585938 397.3125 608.164062 398.058594 607.667969 C 398.808594 607.167969 399.496094 606.601562 400.132812 605.964844 C 400.769531 605.328125 401.335938 604.636719 401.835938 603.890625 C 402.332031 603.144531 402.753906 602.355469 403.097656 601.527344 C 403.445312 600.699219 403.703125 599.84375 403.878906 598.960938 C 404.054688 598.082031 404.144531 597.191406 404.144531 596.292969 L 404.144531 566.746094 L 433.691406 566.746094 C 434.589844 566.742188 435.480469 566.65625 436.363281 566.480469 C 437.242188 566.304688 438.097656 566.042969 438.925781 565.699219 C 439.757812 565.355469 440.546875 564.933594 441.292969 564.433594 C 442.039062 563.933594 442.730469 563.367188 443.363281 562.734375 C 444 562.097656 444.566406 561.40625 445.066406 560.660156 C 445.566406 559.914062 445.988281 559.125 446.332031 558.296875 C 446.675781 557.464844 446.9375 556.609375 447.113281 555.730469 C 447.289062 554.847656 447.375 553.960938 447.378906 553.0625 L 447.378906 520.441406 C 447.375 519.542969 447.289062 518.652344 447.113281 517.773438 C 446.9375 516.890625 446.675781 516.035156 446.332031 515.207031 C 445.988281 514.375 445.566406 513.589844 445.066406 512.839844 C 444.566406 512.09375 444 511.402344 443.367188 510.769531 C 442.730469 510.132812 442.039062 509.566406 441.292969 509.066406 C 440.546875 508.566406 439.757812 508.144531 438.929688 507.800781 C 438.097656 507.457031 437.242188 507.199219 436.363281 507.019531 C 435.480469 506.84375 434.59375 506.757812 433.695312 506.757812 Z M 434.554688 553.0625 C 434.554688 553.296875 434.46875 553.5 434.300781 553.667969 C 434.132812 553.835938 433.929688 553.921875 433.695312 553.921875 L 397.734375 553.921875 C 397.3125 553.921875 396.894531 553.960938 396.484375 554.042969 C 396.070312 554.125 395.667969 554.246094 395.28125 554.410156 C 394.890625 554.570312 394.523438 554.769531 394.171875 555 C 393.820312 555.234375 393.496094 555.5 393.199219 555.800781 C 392.902344 556.097656 392.636719 556.421875 392.402344 556.769531 C 392.167969 557.121094 391.972656 557.488281 391.808594 557.878906 C 391.648438 558.269531 391.527344 558.667969 391.445312 559.082031 C 391.363281 559.496094 391.320312 559.910156 391.320312 560.332031 L 391.320312 596.292969 C 391.320312 596.53125 391.238281 596.734375 391.070312 596.902344 C 390.902344 597.070312 390.699219 597.152344 390.460938 597.152344 L 357.839844 597.152344 C 357.601562 597.152344 357.402344 597.070312 357.234375 596.902344 C 357.066406 596.734375 356.980469 596.53125 356.980469 596.292969 L 356.980469 560.332031 C 356.980469 559.910156 356.941406 559.496094 356.859375 559.082031 C 356.773438 558.667969 356.652344 558.269531 356.492188 557.878906 C 356.332031 557.492188 356.132812 557.121094 355.898438 556.769531 C 355.664062 556.421875 355.398438 556.097656 355.101562 555.800781 C 354.804688 555.5 354.480469 555.234375 354.132812 555 C 353.78125 554.769531 353.410156 554.570312 353.023438 554.410156 C 352.632812 554.246094 352.234375 554.125 351.820312 554.042969 C 351.40625 553.960938 350.988281 553.921875 350.570312 553.921875 L 314.605469 553.921875 C 314.367188 553.921875 314.164062 553.835938 313.996094 553.667969 C 313.828125 553.5 313.746094 553.296875 313.746094 553.0625 L 313.746094 520.441406 C 313.746094 520.203125 313.828125 520 313.996094 519.832031 C 314.164062 519.664062 314.367188 519.578125 314.605469 519.582031 L 350.570312 519.582031 C 350.988281 519.582031 351.40625 519.539062 351.820312 519.457031 C 352.234375 519.375 352.632812 519.253906 353.023438 519.089844 C 353.410156 518.929688 353.78125 518.734375 354.132812 518.5 C 354.480469 518.265625 354.804688 518 355.101562 517.703125 C 355.398438 517.402344 355.667969 517.082031 355.898438 516.730469 C 356.132812 516.378906 356.332031 516.011719 356.492188 515.621094 C 356.652344 515.234375 356.777344 514.832031 356.859375 514.417969 C 356.941406 514.007812 356.980469 513.589844 356.980469 513.167969 L 356.980469 477.207031 C 356.980469 476.96875 357.066406 476.765625 357.234375 476.597656 C 357.402344 476.429688 357.601562 476.347656 357.839844 476.347656 L 390.460938 476.347656 C 390.699219 476.347656 390.902344 476.429688 391.070312 476.597656 C 391.238281 476.765625 391.320312 476.96875 391.320312 477.207031 L 391.320312 513.167969 C 391.320312 513.589844 391.363281 514.007812 391.445312 514.417969 C 391.527344 514.832031 391.648438 515.234375 391.808594 515.621094 C 391.96875 516.011719 392.167969 516.378906 392.402344 516.730469 C 392.636719 517.082031 392.902344 517.402344 393.199219 517.703125 C 393.496094 518 393.820312 518.265625 394.171875 518.5 C 394.519531 518.734375 394.890625 518.929688 395.28125 519.089844 C 395.667969 519.253906 396.070312 519.375 396.480469 519.457031 C 396.894531 519.539062 397.3125 519.582031 397.734375 519.582031 L 433.691406 519.582031 C 433.929688 519.578125 434.132812 519.664062 434.300781 519.832031 C 434.46875 520 434.554688 520.203125 434.554688 520.441406 Z M 434.554688 553.0625 "/><g clip-rule="nonzero" clip-path="url(#ea0357914f)"><path style=" stroke:none;fill-rule:nonzero;fill:#353f2a;fill-opacity:1;" d="M 247.207031 441.386719 L 252.273438 441.386719 L 252.273438 445.136719 L 247.207031 445.136719 Z M 247.207031 441.386719 "/></g></g></svg>