<svg xmlns="http://www.w3.org/2000/svg" xmlns:xlink="http://www.w3.org/1999/xlink" width="1080" zoomAndPan="magnify" viewBox="0 0 810 1012.49997" height="1350" preserveAspectRatio="xMidYMid meet" version="1.2"><defs><clipPath id="208edd9b69"><path d="M 170.335938 274.847656 L 632.855469 274.847656 L 632.855469 737.367188 L 170.335938 737.367188 Z M 170.335938 274.847656 "/></clipPath><clipPath id="7b56953193"><path d="M 405 467.5 L 412.023438 467.5 L 412.023438 474.527344 L 405 474.527344 Z M 405 467.5 "/></clipPath><clipPath id="5b645369d5"><path d="M 0 0.5 L 7.023438 0.5 L 7.023438 7.527344 L 0 7.527344 Z M 0 0.5 "/></clipPath><clipPath id="9f9217eddc"><rect x="0" width="8" y="0" height="8"/></clipPath></defs><g id="134e8e51ce"><path style=" stroke:none;fill-rule:nonzero;fill:#4c583f;fill-opacity:1;" d="M 335.546875 487.230469 C 334.644531 487.230469 333.742188 487.207031 332.84375 487.152344 C 331.945312 487.101562 331.046875 487.023438 330.152344 486.921875 C 329.257812 486.816406 328.367188 486.6875 327.480469 486.53125 C 326.59375 486.378906 325.710938 486.199219 324.832031 485.992188 C 323.957031 485.789062 323.085938 485.558594 322.21875 485.304688 C 321.355469 485.046875 320.5 484.769531 319.652344 484.464844 C 318.804688 484.160156 317.964844 483.832031 317.136719 483.480469 C 316.308594 483.128906 315.488281 482.753906 314.679688 482.355469 C 313.875 481.957031 313.078125 481.535156 312.292969 481.089844 C 311.511719 480.644531 310.738281 480.179688 309.984375 479.691406 C 309.226562 479.203125 308.484375 478.691406 307.757812 478.160156 C 307.027344 477.628906 306.316406 477.078125 305.621094 476.507812 C 304.925781 475.933594 304.246094 475.34375 303.582031 474.730469 C 302.921875 474.121094 302.277344 473.492188 301.652344 472.84375 C 301.023438 472.195312 300.417969 471.53125 299.828125 470.847656 C 299.242188 470.167969 298.671875 469.46875 298.125 468.753906 C 297.578125 468.039062 297.050781 467.308594 296.542969 466.5625 C 296.039062 465.816406 295.554688 465.058594 295.089844 464.285156 C 294.628906 463.511719 294.1875 462.726562 293.769531 461.929688 C 293.351562 461.128906 292.957031 460.320312 292.585938 459.5 C 292.214844 458.679688 291.867188 457.847656 291.542969 457.007812 C 291.21875 456.167969 290.921875 455.316406 290.644531 454.460938 C 290.371094 453.601562 290.121094 452.738281 289.894531 451.863281 C 289.667969 450.992188 289.46875 450.113281 289.292969 449.230469 C 289.117188 448.347656 288.96875 447.460938 288.84375 446.566406 C 288.71875 445.675781 288.621094 444.78125 288.546875 443.882812 C 288.476562 442.984375 288.425781 442.085938 288.40625 441.183594 C 288.382812 440.285156 288.386719 439.382812 288.417969 438.484375 C 288.449219 437.582031 288.503906 436.683594 288.585938 435.785156 C 288.667969 434.890625 288.773438 433.996094 288.90625 433.105469 C 289.039062 432.210938 289.199219 431.324219 289.382812 430.445312 C 289.5625 429.5625 289.773438 428.6875 290.007812 427.816406 C 290.238281 426.945312 290.5 426.082031 290.78125 425.226562 C 291.066406 424.371094 291.371094 423.527344 291.703125 422.6875 C 292.035156 421.851562 292.390625 421.023438 292.769531 420.207031 C 293.148438 419.390625 293.550781 418.582031 293.976562 417.789062 C 294.402344 416.996094 294.847656 416.214844 295.316406 415.445312 C 295.789062 414.675781 296.277344 413.921875 296.792969 413.179688 C 297.304688 412.441406 297.839844 411.714844 298.394531 411.003906 C 298.949219 410.296875 299.523438 409.601562 300.117188 408.925781 C 300.710938 408.246094 301.324219 407.589844 301.957031 406.945312 C 302.589844 406.304688 303.238281 405.679688 303.90625 405.078125 C 304.574219 404.472656 305.257812 403.886719 305.960938 403.320312 C 306.660156 402.757812 307.378906 402.210938 308.113281 401.6875 C 308.84375 401.164062 309.589844 400.660156 310.351562 400.179688 C 311.113281 399.695312 311.886719 399.238281 312.675781 398.800781 C 313.464844 398.363281 314.261719 397.949219 315.074219 397.558594 C 315.886719 397.164062 316.707031 396.796875 317.539062 396.453125 C 318.375 396.109375 319.214844 395.789062 320.066406 395.492188 C 320.917969 395.195312 321.773438 394.925781 322.640625 394.679688 C 323.507812 394.433594 324.378906 394.210938 325.257812 394.011719 C 326.136719 393.816406 327.023438 393.644531 327.910156 393.5 C 328.800781 393.351562 329.691406 393.230469 330.589844 393.136719 C 331.484375 393.039062 332.382812 392.972656 333.28125 392.929688 C 334.183594 392.882812 335.082031 392.867188 335.984375 392.875 C 336.882812 392.882812 337.785156 392.914062 338.683594 392.976562 C 339.582031 393.035156 340.476562 393.121094 341.371094 393.230469 C 342.265625 393.339844 343.15625 393.476562 344.042969 393.640625 C 344.929688 393.800781 345.808594 393.988281 346.683594 394.199219 C 347.5625 394.410156 348.429688 394.648438 349.292969 394.910156 C 350.152344 395.171875 351.007812 395.460938 351.851562 395.769531 C 352.699219 396.082031 353.535156 396.414062 354.359375 396.773438 C 355.1875 397.132812 356.003906 397.515625 356.808594 397.921875 C 357.613281 398.328125 358.402344 398.753906 359.183594 399.207031 C 359.964844 399.65625 360.730469 400.128906 361.484375 400.625 C 362.234375 401.117188 362.972656 401.632812 363.695312 402.171875 C 364.421875 402.707031 365.128906 403.265625 365.820312 403.84375 C 366.511719 404.421875 367.183594 405.019531 367.84375 405.632812 C 368.5 406.25 369.136719 406.882812 369.757812 407.539062 C 370.378906 408.191406 370.980469 408.859375 371.5625 409.546875 C 372.148438 410.234375 372.707031 410.9375 373.25 411.65625 C 373.792969 412.375 374.3125 413.109375 374.816406 413.859375 C 375.316406 414.609375 375.792969 415.371094 376.25 416.148438 C 376.707031 416.925781 377.140625 417.714844 377.550781 418.515625 C 377.960938 419.320312 378.351562 420.132812 378.714844 420.953125 C 379.078125 421.777344 379.417969 422.613281 379.738281 423.457031 C 380.054688 424.300781 380.347656 425.152344 380.613281 426.011719 C 380.882812 426.871094 381.125 427.738281 381.34375 428.613281 C 381.5625 429.484375 381.757812 430.363281 381.925781 431.25 C 382.09375 432.136719 382.234375 433.023438 382.351562 433.917969 C 382.46875 434.8125 382.558594 435.707031 382.625 436.605469 C 382.691406 437.503906 382.730469 438.402344 382.746094 439.304688 C 382.761719 440.203125 382.75 441.105469 382.710938 442.003906 C 382.675781 442.90625 382.613281 443.804688 382.523438 444.699219 C 382.433594 445.597656 382.320312 446.488281 382.179688 447.378906 C 382.039062 448.269531 381.875 449.15625 381.683594 450.035156 C 381.492188 450.917969 381.277344 451.789062 381.035156 452.660156 C 380.796875 453.527344 380.53125 454.386719 380.242188 455.238281 C 379.949219 456.09375 379.636719 456.9375 379.296875 457.773438 C 378.960938 458.605469 378.597656 459.429688 378.210938 460.246094 C 377.828125 461.058594 377.417969 461.863281 376.988281 462.652344 C 376.554688 463.445312 376.101562 464.222656 375.625 464.988281 C 375.148438 465.75 374.652344 466.5 374.132812 467.238281 C 373.613281 467.972656 373.074219 468.695312 372.511719 469.402344 C 371.953125 470.105469 371.371094 470.792969 370.773438 471.464844 C 370.171875 472.140625 369.554688 472.792969 368.917969 473.429688 C 366.726562 475.621094 364.34375 477.578125 361.769531 479.300781 C 359.191406 481.023438 356.472656 482.476562 353.609375 483.660156 C 350.746094 484.84375 347.792969 485.738281 344.753906 486.339844 C 341.714844 486.941406 338.644531 487.238281 335.546875 487.230469 Z M 335.546875 410.648438 C 334.421875 410.648438 333.300781 410.710938 332.183594 410.839844 C 331.066406 410.96875 329.960938 411.160156 328.867188 411.417969 C 327.773438 411.671875 326.695312 411.992188 325.636719 412.371094 C 324.578125 412.75 323.546875 413.1875 322.539062 413.683594 C 321.53125 414.183594 320.554688 414.734375 319.609375 415.34375 C 318.664062 415.953125 317.757812 416.617188 316.890625 417.328125 C 316.019531 418.042969 315.195312 418.804688 314.414062 419.609375 C 313.632812 420.417969 312.898438 421.269531 312.214844 422.160156 C 311.53125 423.054688 310.902344 423.980469 310.324219 424.945312 C 309.746094 425.910156 309.226562 426.902344 308.761719 427.929688 C 308.296875 428.953125 307.894531 430 307.550781 431.070312 C 307.207031 432.140625 306.925781 433.226562 306.707031 434.328125 C 306.488281 435.429688 306.332031 436.542969 306.242188 437.664062 C 306.148438 438.785156 306.121094 439.90625 306.160156 441.027344 C 306.195312 442.152344 306.296875 443.269531 306.464844 444.382812 C 306.628906 445.492188 306.855469 446.59375 307.148438 447.679688 C 307.4375 448.765625 307.792969 449.828125 308.203125 450.875 C 308.617188 451.921875 309.089844 452.9375 309.621094 453.929688 C 310.152344 454.921875 310.734375 455.878906 311.375 456.804688 C 312.015625 457.726562 312.707031 458.613281 313.449219 459.457031 C 314.1875 460.300781 314.976562 461.101562 315.808594 461.855469 C 316.644531 462.609375 317.515625 463.316406 318.429688 463.96875 C 319.34375 464.625 320.292969 465.222656 321.273438 465.769531 C 322.257812 466.316406 323.269531 466.804688 324.308594 467.234375 C 325.347656 467.664062 326.40625 468.03125 327.488281 468.339844 C 328.566406 468.648438 329.664062 468.894531 330.773438 469.078125 C 331.882812 469.257812 332.996094 469.378906 334.121094 469.433594 C 335.242188 469.488281 336.363281 469.476562 337.488281 469.40625 C 338.609375 469.332031 339.722656 469.191406 340.828125 468.992188 C 341.933594 468.789062 343.023438 468.527344 344.101562 468.199219 C 345.175781 467.871094 346.230469 467.484375 347.261719 467.039062 C 348.292969 466.589844 349.292969 466.085938 350.265625 465.523438 C 351.242188 464.960938 352.179688 464.34375 353.082031 463.675781 C 353.984375 463.003906 354.84375 462.285156 355.664062 461.515625 C 356.484375 460.75 357.257812 459.933594 357.984375 459.078125 C 358.714844 458.21875 359.390625 457.324219 360.011719 456.390625 C 360.636719 455.453125 361.207031 454.488281 361.71875 453.488281 C 362.234375 452.488281 362.6875 451.460938 363.082031 450.410156 C 363.476562 449.355469 363.8125 448.285156 364.085938 447.195312 C 364.359375 446.105469 364.566406 445 364.714844 443.886719 C 364.859375 442.773438 364.941406 441.652344 364.960938 440.527344 C 364.976562 439.40625 364.933594 438.285156 364.820312 437.164062 C 364.710938 436.046875 364.535156 434.9375 364.300781 433.839844 C 364.0625 432.742188 363.761719 431.660156 363.398438 430.59375 C 363.039062 429.53125 362.617188 428.488281 362.136719 427.472656 C 361.65625 426.457031 361.117188 425.472656 360.523438 424.519531 C 359.929688 423.5625 359.285156 422.648438 358.585938 421.765625 C 357.886719 420.886719 357.136719 420.050781 356.34375 419.253906 C 354.976562 417.886719 353.492188 416.667969 351.886719 415.59375 C 350.28125 414.519531 348.585938 413.613281 346.800781 412.875 C 345.019531 412.136719 343.179688 411.582031 341.285156 411.207031 C 339.390625 410.832031 337.476562 410.644531 335.546875 410.648438 Z M 335.546875 410.648438 "/><path style=" stroke:none;fill-rule:nonzero;fill:#4c583f;fill-opacity:1;" d="M 467.421875 619.117188 C 466.523438 619.113281 465.621094 619.089844 464.722656 619.035156 C 463.824219 618.984375 462.925781 618.90625 462.03125 618.800781 C 461.136719 618.699219 460.246094 618.570312 459.355469 618.414062 C 458.46875 618.261719 457.585938 618.082031 456.710938 617.875 C 455.832031 617.671875 454.960938 617.441406 454.097656 617.183594 C 453.234375 616.929688 452.378906 616.652344 451.53125 616.347656 C 450.683594 616.042969 449.84375 615.714844 449.015625 615.363281 C 448.183594 615.011719 447.367188 614.632812 446.558594 614.234375 C 445.75 613.835938 444.957031 613.414062 444.171875 612.96875 C 443.390625 612.527344 442.617188 612.058594 441.863281 611.570312 C 441.105469 611.082031 440.363281 610.570312 439.636719 610.039062 C 438.90625 609.507812 438.195312 608.957031 437.5 608.386719 C 436.804688 607.8125 436.125 607.222656 435.464844 606.613281 C 434.800781 606 434.15625 605.371094 433.53125 604.722656 C 432.90625 604.074219 432.296875 603.410156 431.710938 602.726562 C 431.121094 602.046875 430.554688 601.347656 430.003906 600.632812 C 429.457031 599.917969 428.929688 599.1875 428.425781 598.441406 C 427.917969 597.695312 427.433594 596.9375 426.972656 596.164062 C 426.507812 595.390625 426.070312 594.605469 425.652344 593.808594 C 425.234375 593.007812 424.839844 592.199219 424.46875 591.378906 C 424.097656 590.558594 423.75 589.726562 423.425781 588.886719 C 423.101562 588.046875 422.800781 587.195312 422.527344 586.339844 C 422.253906 585.480469 422.003906 584.617188 421.777344 583.742188 C 421.550781 582.871094 421.351562 581.992188 421.175781 581.109375 C 421 580.226562 420.851562 579.339844 420.726562 578.445312 C 420.601562 577.554688 420.503906 576.660156 420.429688 575.761719 C 420.359375 574.863281 420.308594 573.964844 420.289062 573.0625 C 420.265625 572.164062 420.273438 571.261719 420.300781 570.363281 C 420.332031 569.460938 420.386719 568.5625 420.46875 567.664062 C 420.550781 566.769531 420.65625 565.875 420.789062 564.984375 C 420.921875 564.09375 421.082031 563.207031 421.265625 562.324219 C 421.449219 561.441406 421.65625 560.566406 421.890625 559.695312 C 422.125 558.824219 422.382812 557.960938 422.664062 557.109375 C 422.949219 556.253906 423.257812 555.40625 423.585938 554.570312 C 423.917969 553.730469 424.273438 552.902344 424.652344 552.085938 C 425.03125 551.269531 425.433594 550.464844 425.859375 549.667969 C 426.285156 548.875 426.734375 548.09375 427.203125 547.324219 C 427.671875 546.554688 428.164062 545.800781 428.675781 545.0625 C 429.191406 544.320312 429.722656 543.59375 430.277344 542.886719 C 430.832031 542.175781 431.40625 541.484375 432.003906 540.804688 C 432.597656 540.128906 433.210938 539.46875 433.84375 538.828125 C 434.472656 538.1875 435.125 537.5625 435.792969 536.957031 C 436.460938 536.351562 437.144531 535.769531 437.847656 535.203125 C 438.546875 534.636719 439.265625 534.09375 439.996094 533.570312 C 440.730469 533.042969 441.476562 532.542969 442.238281 532.058594 C 443 531.578125 443.773438 531.117188 444.5625 530.683594 C 445.347656 530.246094 446.148438 529.832031 446.960938 529.4375 C 447.773438 529.046875 448.59375 528.679688 449.425781 528.335938 C 450.257812 527.992188 451.101562 527.671875 451.949219 527.375 C 452.800781 527.078125 453.660156 526.808594 454.527344 526.5625 C 455.394531 526.3125 456.265625 526.09375 457.144531 525.894531 C 458.023438 525.699219 458.910156 525.527344 459.796875 525.378906 C 460.6875 525.234375 461.578125 525.113281 462.472656 525.019531 C 463.371094 524.921875 464.269531 524.855469 465.167969 524.8125 C 466.066406 524.765625 466.96875 524.75 467.867188 524.757812 C 468.769531 524.765625 469.667969 524.796875 470.566406 524.859375 C 471.46875 524.917969 472.363281 525.003906 473.257812 525.113281 C 474.152344 525.222656 475.042969 525.359375 475.929688 525.523438 C 476.8125 525.683594 477.695312 525.871094 478.570312 526.082031 C 479.445312 526.296875 480.316406 526.53125 481.175781 526.792969 C 482.039062 527.054688 482.890625 527.34375 483.738281 527.652344 C 484.582031 527.964844 485.417969 528.300781 486.246094 528.660156 C 487.070312 529.015625 487.886719 529.398438 488.691406 529.804688 C 489.496094 530.210938 490.289062 530.636719 491.066406 531.089844 C 491.847656 531.539062 492.613281 532.011719 493.367188 532.507812 C 494.121094 533.003906 494.859375 533.519531 495.582031 534.054688 C 496.304688 534.59375 497.011719 535.148438 497.703125 535.726562 C 498.394531 536.304688 499.070312 536.902344 499.726562 537.519531 C 500.382812 538.132812 501.023438 538.769531 501.644531 539.421875 C 502.265625 540.074219 502.867188 540.746094 503.449219 541.429688 C 504.03125 542.117188 504.59375 542.820312 505.136719 543.542969 C 505.675781 544.261719 506.199219 544.996094 506.699219 545.746094 C 507.199219 546.492188 507.675781 547.257812 508.132812 548.035156 C 508.589844 548.808594 509.023438 549.597656 509.433594 550.402344 C 509.84375 551.203125 510.234375 552.015625 510.597656 552.839844 C 510.960938 553.664062 511.304688 554.496094 511.621094 555.339844 C 511.9375 556.183594 512.230469 557.035156 512.496094 557.894531 C 512.765625 558.753906 513.007812 559.621094 513.226562 560.496094 C 513.445312 561.371094 513.640625 562.25 513.808594 563.132812 C 513.976562 564.019531 514.117188 564.910156 514.234375 565.800781 C 514.351562 566.695312 514.445312 567.589844 514.507812 568.488281 C 514.574219 569.386719 514.613281 570.289062 514.628906 571.1875 C 514.644531 572.089844 514.632812 572.988281 514.59375 573.890625 C 514.558594 574.789062 514.496094 575.6875 514.40625 576.585938 C 514.316406 577.480469 514.203125 578.375 514.0625 579.261719 C 513.921875 580.152344 513.757812 581.039062 513.566406 581.917969 C 513.375 582.800781 513.160156 583.675781 512.917969 584.542969 C 512.679688 585.410156 512.414062 586.269531 512.125 587.125 C 511.832031 587.976562 511.519531 588.820312 511.179688 589.65625 C 510.84375 590.488281 510.480469 591.316406 510.09375 592.128906 C 509.710938 592.941406 509.300781 593.746094 508.871094 594.535156 C 508.4375 595.328125 507.984375 596.105469 507.507812 596.871094 C 507.03125 597.632812 506.535156 598.386719 506.015625 599.121094 C 505.496094 599.855469 504.957031 600.578125 504.394531 601.285156 C 503.835938 601.988281 503.253906 602.675781 502.65625 603.351562 C 502.054688 604.023438 501.4375 604.675781 500.800781 605.3125 C 498.609375 607.507812 496.226562 609.464844 493.648438 611.183594 C 491.074219 612.90625 488.351562 614.359375 485.488281 615.542969 C 482.625 616.730469 479.671875 617.621094 476.632812 618.222656 C 473.589844 618.824219 470.523438 619.121094 467.421875 619.117188 Z M 467.421875 542.53125 C 466.296875 542.53125 465.179688 542.59375 464.0625 542.726562 C 462.945312 542.855469 461.839844 543.046875 460.746094 543.300781 C 459.648438 543.558594 458.574219 543.875 457.515625 544.253906 C 456.457031 544.632812 455.425781 545.070312 454.417969 545.570312 C 453.410156 546.066406 452.433594 546.621094 451.488281 547.230469 C 450.542969 547.839844 449.636719 548.5 448.769531 549.214844 C 447.898438 549.929688 447.074219 550.6875 446.292969 551.496094 C 445.511719 552.304688 444.78125 553.15625 444.09375 554.046875 C 443.410156 554.941406 442.78125 555.867188 442.203125 556.832031 C 441.625 557.796875 441.105469 558.792969 440.640625 559.816406 C 440.179688 560.839844 439.777344 561.886719 439.433594 562.957031 C 439.089844 564.027344 438.808594 565.113281 438.589844 566.214844 C 438.371094 567.320312 438.214844 568.429688 438.125 569.550781 C 438.03125 570.671875 438.003906 571.792969 438.042969 572.917969 C 438.078125 574.039062 438.179688 575.15625 438.347656 576.269531 C 438.511719 577.382812 438.742188 578.480469 439.03125 579.566406 C 439.324219 580.652344 439.675781 581.714844 440.089844 582.761719 C 440.503906 583.808594 440.976562 584.824219 441.503906 585.816406 C 442.035156 586.808594 442.621094 587.765625 443.261719 588.6875 C 443.902344 589.613281 444.589844 590.496094 445.332031 591.34375 C 446.074219 592.1875 446.863281 592.984375 447.695312 593.742188 C 448.527344 594.496094 449.402344 595.199219 450.316406 595.855469 C 451.230469 596.507812 452.179688 597.109375 453.160156 597.652344 C 454.144531 598.199219 455.15625 598.6875 456.191406 599.117188 C 457.230469 599.546875 458.292969 599.914062 459.371094 600.222656 C 460.453125 600.53125 461.546875 600.777344 462.65625 600.960938 C 463.765625 601.144531 464.882812 601.261719 466.003906 601.316406 C 467.128906 601.371094 468.25 601.363281 469.371094 601.289062 C 470.492188 601.214844 471.609375 601.074219 472.714844 600.875 C 473.820312 600.671875 474.910156 600.40625 475.984375 600.082031 C 477.0625 599.753906 478.113281 599.367188 479.144531 598.921875 C 480.175781 598.472656 481.179688 597.96875 482.152344 597.40625 C 483.125 596.84375 484.0625 596.226562 484.964844 595.554688 C 485.867188 594.886719 486.730469 594.167969 487.550781 593.398438 C 488.371094 592.628906 489.144531 591.816406 489.871094 590.960938 C 490.597656 590.101562 491.273438 589.207031 491.898438 588.269531 C 492.519531 587.335938 493.089844 586.367188 493.601562 585.367188 C 494.117188 584.367188 494.570312 583.34375 494.964844 582.289062 C 495.363281 581.238281 495.695312 580.167969 495.96875 579.078125 C 496.242188 577.984375 496.449219 576.882812 496.597656 575.769531 C 496.742188 574.65625 496.824219 573.535156 496.84375 572.410156 C 496.863281 571.289062 496.816406 570.167969 496.703125 569.046875 C 496.59375 567.929688 496.417969 566.820312 496.183594 565.722656 C 495.945312 564.621094 495.644531 563.542969 495.28125 562.476562 C 494.921875 561.414062 494.5 560.371094 494.019531 559.355469 C 493.539062 558.339844 493 557.355469 492.40625 556.402344 C 491.8125 555.445312 491.167969 554.53125 490.46875 553.648438 C 489.769531 552.769531 489.019531 551.933594 488.226562 551.136719 C 486.859375 549.769531 485.375 548.550781 483.769531 547.476562 C 482.164062 546.402344 480.46875 545.496094 478.683594 544.757812 C 476.898438 544.019531 475.058594 543.460938 473.164062 543.085938 C 471.269531 542.710938 469.355469 542.527344 467.421875 542.53125 Z M 467.421875 542.53125 "/><path style=" stroke:none;fill-rule:nonzero;fill:#4c583f;fill-opacity:1;" d="M 331.800781 605.085938 C 330.355469 605.085938 328.917969 604.980469 327.484375 604.765625 C 326.054688 604.554688 324.648438 604.238281 323.265625 603.816406 C 321.882812 603.398438 320.539062 602.878906 319.230469 602.261719 C 317.921875 601.640625 316.667969 600.929688 315.46875 600.128906 C 314.265625 599.324219 313.128906 598.4375 312.058594 597.46875 C 310.984375 596.496094 309.992188 595.453125 309.074219 594.335938 C 308.15625 593.214844 307.328125 592.039062 306.585938 590.796875 C 305.839844 589.558594 305.191406 588.269531 304.640625 586.933594 C 304.085938 585.597656 303.632812 584.230469 303.28125 582.828125 C 302.929688 581.425781 302.683594 580.003906 302.542969 578.566406 C 302.402344 577.125 302.363281 575.683594 302.4375 574.242188 C 302.507812 572.796875 302.683594 571.367188 302.964844 569.949219 C 303.246094 568.53125 303.632812 567.140625 304.117188 565.777344 C 304.605469 564.417969 305.1875 563.097656 305.871094 561.824219 C 306.550781 560.550781 307.320312 559.332031 308.183594 558.167969 C 309.042969 557.007812 309.984375 555.917969 311.007812 554.894531 L 450.378906 415.519531 C 451.058594 414.820312 451.765625 414.15625 452.507812 413.527344 C 453.253906 412.898438 454.023438 412.308594 454.824219 411.757812 C 455.625 411.203125 456.453125 410.691406 457.304688 410.222656 C 458.15625 409.753906 459.03125 409.324219 459.925781 408.941406 C 460.820312 408.558594 461.730469 408.21875 462.660156 407.925781 C 463.585938 407.632812 464.527344 407.386719 465.480469 407.1875 C 466.433594 406.988281 467.390625 406.835938 468.359375 406.730469 C 469.328125 406.628906 470.296875 406.570312 471.269531 406.5625 C 472.242188 406.554688 473.214844 406.59375 474.183594 406.683594 C 475.152344 406.773438 476.117188 406.910156 477.070312 407.09375 C 478.027344 407.277344 478.972656 407.507812 479.902344 407.785156 C 480.835938 408.0625 481.753906 408.386719 482.652344 408.753906 C 483.554688 409.121094 484.433594 409.535156 485.292969 409.992188 C 486.152344 410.449219 486.988281 410.945312 487.800781 411.484375 C 488.609375 412.023438 489.390625 412.601562 490.144531 413.21875 C 490.898438 413.835938 491.617188 414.488281 492.304688 415.175781 C 492.992188 415.863281 493.644531 416.582031 494.261719 417.335938 C 494.878906 418.089844 495.457031 418.871094 495.996094 419.679688 C 496.535156 420.492188 497.03125 421.328125 497.488281 422.1875 C 497.945312 423.046875 498.355469 423.925781 498.726562 424.828125 C 499.09375 425.726562 499.417969 426.644531 499.695312 427.578125 C 499.972656 428.507812 500.203125 429.453125 500.386719 430.410156 C 500.570312 431.363281 500.707031 432.328125 500.796875 433.296875 C 500.886719 434.265625 500.925781 435.238281 500.917969 436.210938 C 500.910156 437.183594 500.851562 438.152344 500.75 439.121094 C 500.644531 440.089844 500.492188 441.046875 500.292969 442 C 500.09375 442.953125 499.847656 443.894531 499.554688 444.820312 C 499.261719 445.75 498.921875 446.660156 498.539062 447.554688 C 498.15625 448.449219 497.726562 449.324219 497.257812 450.175781 C 496.789062 451.027344 496.277344 451.851562 495.722656 452.65625 C 495.171875 453.457031 494.582031 454.226562 493.953125 454.96875 C 493.324219 455.714844 492.660156 456.421875 491.960938 457.097656 L 352.585938 596.472656 C 351.226562 597.84375 349.742188 599.066406 348.136719 600.140625 C 346.535156 601.214844 344.839844 602.121094 343.054688 602.863281 C 341.273438 603.601562 339.433594 604.15625 337.539062 604.53125 C 335.644531 604.90625 333.730469 605.089844 331.800781 605.085938 Z M 471.167969 424.695312 C 469.625 424.691406 468.144531 424.984375 466.71875 425.574219 C 465.292969 426.164062 464.039062 427.003906 462.949219 428.09375 L 323.582031 567.460938 C 323.023438 567.996094 322.527344 568.582031 322.085938 569.21875 C 321.648438 569.855469 321.273438 570.527344 320.96875 571.234375 C 320.664062 571.945312 320.429688 572.675781 320.269531 573.433594 C 320.109375 574.1875 320.027344 574.953125 320.019531 575.726562 C 320.011719 576.5 320.082031 577.265625 320.226562 578.023438 C 320.371094 578.78125 320.589844 579.519531 320.882812 580.234375 C 321.175781 580.949219 321.535156 581.628906 321.964844 582.273438 C 322.390625 582.914062 322.878906 583.511719 323.425781 584.054688 C 323.96875 584.601562 324.566406 585.089844 325.207031 585.515625 C 325.851562 585.945312 326.53125 586.304688 327.246094 586.597656 C 327.960938 586.890625 328.699219 587.109375 329.457031 587.253906 C 330.214844 587.398438 330.980469 587.46875 331.753906 587.460938 C 332.527344 587.453125 333.289062 587.371094 334.046875 587.210938 C 334.800781 587.050781 335.535156 586.816406 336.246094 586.511719 C 336.953125 586.207031 337.625 585.832031 338.261719 585.394531 C 338.898438 584.953125 339.480469 584.453125 340.019531 583.898438 L 479.386719 444.535156 C 480.199219 443.722656 480.875 442.808594 481.417969 441.796875 C 481.957031 440.78125 482.339844 439.710938 482.566406 438.585938 C 482.789062 437.457031 482.84375 436.324219 482.734375 435.179688 C 482.621094 434.035156 482.34375 432.933594 481.902344 431.871094 C 481.464844 430.808594 480.878906 429.832031 480.152344 428.945312 C 479.421875 428.054688 478.578125 427.292969 477.625 426.652344 C 476.667969 426.015625 475.640625 425.527344 474.542969 425.195312 C 473.441406 424.863281 472.316406 424.695312 471.167969 424.695312 Z M 471.167969 424.695312 "/><g clip-rule="nonzero" clip-path="url(#208edd9b69)"><path style=" stroke:none;fill-rule:nonzero;fill:#4c583f;fill-opacity:1;" d="M 401.484375 737.144531 C 386.738281 737.144531 377.972656 720.335938 369.5 704.085938 C 366.285156 697.910156 363.242188 692.082031 360.164062 687.617188 C 356.421875 682.191406 354.5 681.625 354.414062 681.601562 C 354.042969 681.503906 351.851562 681.148438 345.796875 684 C 340.722656 686.386719 334.785156 690.15625 329.042969 693.792969 C 322.292969 698.078125 315.308594 702.507812 308.800781 705.347656 C 305.355469 706.847656 294.910156 711.410156 285.871094 706.191406 C 273.355469 698.96875 274.15625 680.242188 274.933594 662.144531 C 275.222656 655.410156 275.523438 648.441406 275.074219 642.925781 C 274.519531 636.257812 273.117188 634.679688 272.960938 634.519531 C 272.808594 634.355469 271.21875 632.949219 264.554688 632.40625 C 259.039062 631.957031 252.070312 632.257812 245.335938 632.546875 C 227.238281 633.324219 208.53125 634.125 201.289062 621.609375 C 196.070312 612.59375 200.632812 602.125 202.132812 598.679688 C 204.972656 592.171875 209.402344 585.1875 213.6875 578.4375 C 217.324219 572.695312 221.09375 566.769531 223.480469 561.679688 C 226.332031 555.621094 225.976562 553.4375 225.875 553.066406 C 225.875 552.980469 225.289062 551.058594 219.863281 547.3125 C 215.417969 544.234375 209.570312 541.203125 203.394531 537.980469 C 187.140625 529.507812 170.335938 520.742188 170.335938 505.996094 C 170.335938 491.25 187.140625 482.488281 203.394531 474.011719 C 209.570312 470.796875 215.398438 467.757812 219.863281 464.679688 C 225.289062 460.933594 225.855469 459.011719 225.875 458.925781 C 225.976562 458.554688 226.332031 456.371094 223.480469 450.308594 C 221.09375 445.238281 217.324219 439.296875 213.6875 433.558594 C 209.402344 426.804688 204.972656 419.820312 202.132812 413.3125 C 200.632812 409.871094 196.070312 399.421875 201.289062 390.382812 C 208.511719 377.871094 227.238281 378.667969 245.335938 379.449219 C 252.070312 379.738281 259.039062 380.035156 264.554688 379.585938 C 271.222656 379.03125 272.800781 377.628906 272.960938 377.476562 C 273.125 377.320312 274.527344 375.730469 275.074219 369.066406 C 275.523438 363.550781 275.222656 356.582031 274.933594 349.847656 C 274.15625 331.75 273.355469 313.042969 285.871094 305.800781 C 294.886719 300.585938 305.355469 305.144531 308.800781 306.648438 C 315.308594 309.484375 322.292969 313.914062 329.042969 318.199219 C 334.785156 321.839844 340.710938 325.605469 345.800781 327.996094 C 351.859375 330.84375 354.042969 330.488281 354.414062 330.390625 C 354.5 330.390625 356.421875 329.800781 360.164062 324.378906 C 363.242188 319.933594 366.277344 314.082031 369.5 307.90625 C 377.972656 291.65625 386.738281 274.847656 401.484375 274.847656 C 416.230469 274.847656 424.992188 291.65625 433.46875 307.90625 C 436.683594 314.082031 439.722656 319.910156 442.800781 324.378906 C 446.546875 329.800781 448.46875 330.367188 448.550781 330.390625 C 448.925781 330.488281 451.113281 330.84375 457.171875 327.996094 C 462.242188 325.605469 468.183594 321.839844 473.921875 318.199219 C 480.675781 313.914062 487.660156 309.484375 494.164062 306.648438 C 497.609375 305.144531 508.058594 300.585938 517.097656 305.800781 C 529.609375 313.027344 528.808594 331.75 528.03125 349.847656 C 527.742188 356.582031 527.445312 363.550781 527.894531 369.066406 C 528.449219 375.734375 529.847656 377.3125 530.003906 377.476562 C 530.160156 377.636719 531.75 379.042969 538.410156 379.585938 C 543.929688 380.035156 550.898438 379.738281 557.632812 379.449219 C 575.730469 378.667969 594.4375 377.871094 601.679688 390.382812 C 606.894531 399.402344 602.332031 409.871094 600.832031 413.3125 C 597.996094 419.820312 593.566406 426.804688 589.28125 433.554688 C 585.640625 439.296875 581.875 445.226562 579.484375 450.316406 C 576.636719 456.371094 576.992188 458.554688 577.089844 458.925781 C 577.089844 459.011719 577.679688 460.933594 583.101562 464.679688 C 587.546875 467.757812 593.398438 470.789062 599.570312 474.011719 C 615.824219 482.488281 632.632812 491.238281 632.632812 505.996094 C 632.632812 520.753906 615.824219 529.507812 599.570312 537.980469 C 593.398438 541.195312 587.570312 544.234375 583.101562 547.3125 C 577.679688 551.058594 577.113281 552.980469 577.089844 553.066406 C 576.992188 553.4375 576.636719 555.621094 579.484375 561.683594 C 581.875 566.757812 585.640625 572.695312 589.28125 578.4375 C 593.566406 585.1875 597.996094 592.171875 600.832031 598.679688 C 602.332031 602.125 606.894531 612.570312 601.679688 621.609375 C 594.453125 634.128906 575.730469 633.324219 557.632812 632.546875 C 550.898438 632.257812 543.929688 631.957031 538.410156 632.40625 C 531.746094 632.960938 530.167969 634.363281 530.003906 634.519531 C 529.84375 634.671875 528.4375 636.261719 527.894531 642.925781 C 527.445312 648.441406 527.742188 655.410156 528.03125 662.144531 C 528.808594 680.242188 529.609375 698.949219 517.097656 706.191406 C 508.078125 711.410156 497.609375 706.847656 494.164062 705.347656 C 487.660156 702.507812 480.675781 698.078125 473.921875 693.792969 C 468.183594 690.15625 462.253906 686.386719 457.164062 684 C 451.109375 681.148438 448.925781 681.503906 448.550781 681.601562 C 448.46875 681.601562 446.546875 682.191406 442.800781 687.617188 C 439.722656 692.0625 436.691406 697.910156 433.46875 704.085938 C 424.992188 720.335938 416.230469 737.144531 401.484375 737.144531 Z M 353.699219 663.75 C 355.492188 663.746094 357.253906 663.96875 358.988281 664.429688 C 370.449219 667.496094 377.636719 681.277344 385.242188 695.859375 C 388.699219 702.488281 392.269531 709.335938 395.800781 714.085938 C 399.605469 719.222656 401.449219 719.363281 401.46875 719.363281 C 401.484375 719.363281 403.328125 719.222656 407.132812 714.085938 C 410.65625 709.339844 414.230469 702.488281 417.691406 695.859375 C 425.296875 681.277344 432.484375 667.496094 443.945312 664.429688 C 455.808594 661.261719 469.226562 669.769531 483.4375 678.78125 C 489.320312 682.507812 495.398438 686.371094 500.496094 688.699219 C 506.328125 691.371094 508.191406 690.792969 508.210938 690.789062 C 508.210938 690.789062 509.652344 689.53125 510.296875 683.308594 C 510.890625 677.585938 510.574219 670.125 510.261719 662.910156 C 509.546875 646.242188 508.875 630.5 517.425781 621.949219 C 525.976562 613.398438 541.722656 614.0625 558.394531 614.78125 C 565.617188 615.09375 573.066406 615.414062 578.789062 614.816406 C 585.023438 614.171875 586.277344 612.71875 586.285156 612.703125 C 586.285156 612.703125 586.84375 610.835938 584.179688 605.019531 C 581.851562 599.921875 577.992188 593.84375 574.261719 587.960938 C 565.25 573.753906 556.738281 560.332031 559.910156 548.46875 C 562.976562 537.007812 576.757812 529.824219 591.34375 522.214844 C 597.972656 518.757812 604.816406 515.1875 609.566406 511.660156 C 614.703125 507.851562 614.847656 506.007812 614.847656 505.992188 C 614.847656 505.972656 614.703125 504.128906 609.566406 500.324219 C 604.824219 496.800781 597.972656 493.226562 591.34375 489.765625 C 576.757812 482.160156 562.976562 474.972656 559.910156 463.511719 C 556.742188 451.648438 565.25 438.230469 574.261719 424.023438 C 577.992188 418.136719 581.851562 412.058594 584.179688 406.964844 C 586.851562 401.128906 586.277344 399.265625 586.269531 399.246094 C 586.269531 399.246094 584.996094 397.804688 578.789062 397.160156 C 573.066406 396.566406 565.605469 396.882812 558.394531 397.195312 C 541.722656 397.910156 525.980469 398.585938 517.429688 390.03125 C 508.878906 381.480469 509.546875 365.734375 510.261719 349.066406 C 510.574219 341.839844 510.890625 334.390625 510.296875 328.667969 C 509.652344 322.433594 508.203125 321.183594 508.183594 321.171875 C 508 321.132812 507.816406 321.117188 507.628906 321.125 C 506.722656 321.125 504.585938 321.398438 500.488281 323.277344 C 495.394531 325.605469 489.316406 329.46875 483.429688 333.195312 C 469.222656 342.207031 455.804688 350.71875 443.941406 347.546875 C 432.476562 344.480469 425.292969 330.699219 417.6875 316.113281 C 414.230469 309.484375 410.65625 302.640625 407.128906 297.890625 C 403.34375 292.773438 401.484375 292.628906 401.484375 292.628906 C 401.484375 292.628906 399.621094 292.773438 395.816406 297.90625 C 392.292969 302.652344 388.71875 309.503906 385.257812 316.132812 C 377.652344 330.71875 370.46875 344.46875 359.003906 347.566406 C 357.269531 348.023438 355.507812 348.25 353.714844 348.242188 C 343.214844 348.242188 331.648438 340.90625 319.515625 333.210938 C 313.628906 329.484375 307.550781 325.621094 302.457031 323.292969 C 296.621094 320.621094 294.761719 321.199219 294.738281 321.203125 C 294.738281 321.203125 293.300781 322.460938 292.65625 328.683594 C 292.058594 334.40625 292.375 341.871094 292.6875 349.082031 C 293.40625 365.75 294.078125 381.492188 285.527344 390.042969 C 276.972656 398.59375 261.226562 397.929688 244.558594 397.210938 C 237.335938 396.902344 229.882812 396.582031 224.160156 397.179688 C 217.925781 397.824219 216.675781 399.273438 216.664062 399.289062 C 216.664062 399.289062 216.109375 401.15625 218.769531 406.972656 C 221.097656 412.070312 224.960938 418.148438 228.6875 424.03125 C 237.699219 438.242188 246.214844 451.660156 243.039062 463.523438 C 239.972656 474.984375 226.195312 482.171875 211.609375 489.777344 C 204.980469 493.234375 198.132812 496.804688 193.382812 500.335938 C 188.257812 504.136719 188.113281 505.996094 188.113281 505.996094 C 188.113281 505.996094 188.257812 507.859375 193.394531 511.664062 C 198.140625 515.1875 204.988281 518.757812 211.617188 522.222656 C 226.203125 529.828125 239.957031 537.011719 243.050781 548.476562 C 246.21875 560.339844 237.710938 573.757812 228.699219 587.964844 C 224.972656 593.851562 221.109375 599.929688 218.78125 605.023438 C 216.109375 610.859375 216.6875 612.71875 216.691406 612.742188 C 216.691406 612.742188 217.964844 614.179688 224.171875 614.824219 C 229.894531 615.421875 237.355469 615.101562 244.570312 614.792969 C 261.238281 614.074219 276.980469 613.402344 285.53125 621.953125 C 294.082031 630.507812 293.414062 646.253906 292.699219 662.921875 C 292.386719 670.144531 292.070312 677.597656 292.664062 683.320312 C 293.308594 689.554688 294.761719 690.804688 294.777344 690.816406 C 294.960938 690.855469 295.144531 690.871094 295.332031 690.859375 C 296.238281 690.859375 298.378906 690.589844 302.472656 688.710938 C 307.566406 686.382812 313.648438 682.519531 319.53125 678.792969 C 331.65625 671.085938 343.21875 663.75 353.699219 663.75 Z M 353.699219 663.75 "/></g><g clip-rule="nonzero" clip-path="url(#7b56953193)"><g transform="matrix(1,0,0,1,405,467)"><g clip-path="url(#9f9217eddc)"><g clip-rule="nonzero" clip-path="url(#5b645369d5)"><path style=" stroke:none;fill-rule:nonzero;fill:#4c583f;fill-opacity:1;" d="M 0 0.5 L 7.023438 0.5 L 7.023438 7.527344 L 0 7.527344 Z M 0 0.5 "/></g></g></g></g></g></svg>