<?xml version="1.0" encoding="utf-8"?>
<!-- Generator: Adobe Illustrator 26.0.0, SVG Export Plug-In . SVG Version: 6.00 Build 0)  -->
<svg version="1.1" id="svg1269" xmlns="http://www.w3.org/2000/svg" xmlns:xlink="http://www.w3.org/1999/xlink" x="0px" y="0px"
	 viewBox="0 0 682.7 682.7" style="enable-background:new 0 0 682.7 682.7;" xml:space="preserve">
<style type="text/css">
	.st0{fill:#568259;}
</style>
<path class="st0" d="M575.8,158.9c-2.2,1.6-3.7,4-4.1,6.7c-0.4,2.7,0.2,5.4,1.8,7.6c63.2,87.4,72.1,202.8,23,298.8
	c-49.1,96-147.8,156.4-255.6,156.4c-69.9,0.3-137.5-25.3-189.8-71.8h36c5.7,0,10.3-4.6,10.3-10.3c0-5.7-4.6-10.2-10.3-10.2h-61.5
	c-0.5,0.1-0.9,0.2-1.4,0.3c-0.8,0.1-1.6,0.2-2.4,0.5c-0.8,0.4-1.6,0.9-2.2,1.4c-0.4,0.2-0.7,0.4-1,0.6l-0.1,0.1
	c-0.7,0.7-1.3,1.6-1.8,2.5c-0.1,0.3-0.4,0.5-0.5,0.8c-0.1,0.4-0.2,0.8-0.3,1.2c-0.3,0.9-0.5,1.8-0.6,2.7V608
	c0,5.7,4.6,10.2,10.2,10.2c5.7,0,10.3-4.6,10.3-10.2v-37.4c56.2,50.7,129.3,78.7,205,78.4c115.5,0,221.3-64.7,273.9-167.6
	c52.6-102.9,43-226.5-24.7-320.1c-1.6-2.2-4-3.7-6.7-4.1C580.8,156.7,578,157.4,575.8,158.9z"/>
<path class="st0" d="M91.9,521.8c3.3,4.6,9.7,5.6,14.3,2.3c4.6-3.3,5.6-9.7,2.3-14.3C45.3,422.4,36.3,307,85.4,210.9
	c49.1-96,147.8-156.5,255.6-156.4c69.9-0.3,137.5,25.3,189.8,71.7h-36c-5.7,0-10.2,4.6-10.2,10.3s4.6,10.3,10.2,10.3h61.5
	c0.5-0.1,1-0.2,1.5-0.3c0.8-0.1,1.5-0.2,2.3-0.5c0.8-0.4,1.6-0.9,2.3-1.4c0.4-0.2,0.7-0.4,1-0.6l0.1-0.1c0.7-0.7,1.3-1.6,1.8-2.5
	c0.2-0.3,0.4-0.5,0.5-0.8c0.1-0.4,0.2-0.8,0.3-1.2c0.3-0.9,0.5-1.8,0.6-2.7V75c0-5.7-4.6-10.3-10.3-10.3c-5.7,0-10.2,4.6-10.2,10.3
	v37.4C489.8,61.7,416.7,33.7,341,34C225.5,34,119.7,98.7,67.1,201.6C14.6,304.5,24.1,428.2,91.9,521.8z"/>
<path class="st0" d="M351.3,95.5V85.2c0-5.7-4.6-10.2-10.3-10.2c-5.7,0-10.2,4.6-10.2,10.2v10.3c0,5.7,4.6,10.2,10.2,10.2
	C346.7,105.7,351.3,101.2,351.3,95.5z"/>
<path class="st0" d="M341,608c5.7,0,10.3-4.6,10.3-10.3v-10.3c0-5.7-4.6-10.2-10.3-10.2c-5.7,0-10.2,4.6-10.2,10.2v10.3
	C330.8,603.4,335.3,608,341,608z"/>
<path class="st0" d="M298.3,109.5c0.6,0,1.2-0.1,1.8-0.1c2.7-0.5,5.1-2,6.6-4.2c1.6-2.2,2.2-5,1.7-7.7l-1.8-10.1
	c-1-5.6-6.3-9.3-11.9-8.3c-5.6,1-9.3,6.3-8.3,11.9l1.8,10.1C289,105.9,293.3,109.5,298.3,109.5z"/>
<path class="st0" d="M381.9,573.7c-2.7,0.5-5.1,2-6.6,4.2c-1.6,2.2-2.2,5-1.7,7.7l1.8,10.1c0.9,4.9,5.1,8.5,10.1,8.5
	c0.6,0,1.2-0.1,1.8-0.2c2.7-0.5,5.1-2,6.6-4.2c1.6-2.2,2.2-5,1.7-7.7l-1.8-10.1c-0.5-2.7-2-5.1-4.2-6.6
	C387.4,573.8,384.6,573.2,381.9,573.7z"/>
<path class="st0" d="M256.9,120.6c3.4,0,6.5-1.6,8.4-4.4s2.4-6.3,1.2-9.4l-3.5-9.6c-1.3-3.4-4.3-5.9-7.9-6.6s-7.3,0.7-9.6,3.5
	c-2.4,2.8-3,6.7-1.8,10.1l3.5,9.6C248.7,117.9,252.6,120.6,256.9,120.6z"/>
<path class="st0" d="M419,585.8c1.3,3.4,4.3,5.9,7.9,6.6c3.6,0.6,7.3-0.7,9.6-3.5c2.4-2.8,3-6.7,1.8-10.1l-3.5-9.6
	c-1.2-3.5-4.2-6.1-7.9-6.8c-3.7-0.7-7.4,0.7-9.8,3.6c-2.4,2.9-3,6.8-1.6,10.3L419,585.8z"/>
<path class="st0" d="M209.1,133.6c1.8,3.2,5.2,5.2,8.9,5.2c3.7,0,7.1-2,8.9-5.1c1.8-3.2,1.8-7.1,0-10.3l-5.1-8.9
	c-1.8-3.2-5.2-5.2-8.9-5.2c-3.7,0-7.1,2-8.9,5.1s-1.8,7.1,0,10.3L209.1,133.6z"/>
<path class="st0" d="M458.9,545.7c-4.9,2.8-6.6,9.1-3.7,14l5.1,8.9c1.8,3.2,5.2,5.2,8.9,5.2c3.7,0,7.1-2,8.9-5.1
	c1.8-3.2,1.8-7.1,0-10.3l-5.1-8.9C470,544.5,463.8,542.8,458.9,545.7z"/>
<path class="st0" d="M169.7,137.3c-2.1,1.7-3.4,4.3-3.6,7c-0.2,2.7,0.6,5.4,2.4,7.5l6.6,7.9c2.4,2.8,6,4.1,9.6,3.5
	c3.6-0.6,6.6-3.1,7.9-6.6c1.3-3.4,0.6-7.3-1.8-10.1l-6.6-7.9c-1.7-2.1-4.2-3.4-7-3.6C174.5,134.7,171.8,135.6,169.7,137.3z"/>
<path class="st0" d="M492.5,522.1c-2.1,1.7-3.4,4.2-3.6,7c-0.2,2.7,0.6,5.4,2.4,7.5l6.6,7.9c2.4,2.8,6,4.1,9.6,3.5
	c3.6-0.6,6.6-3.1,7.9-6.6c1.3-3.4,0.6-7.3-1.8-10.1l-6.6-7.9c-1.7-2.1-4.2-3.4-7-3.6C497.3,519.5,494.6,520.3,492.5,522.1z"/>
<path class="st0" d="M159.1,175.5l-7.9-6.6c-4.3-3.6-10.8-3.1-14.5,1.3c-3.6,4.3-3.1,10.8,1.3,14.5l7.9,6.6c2.8,2.4,6.7,3,10.1,1.8
	c3.4-1.3,5.9-4.2,6.6-7.9C163.3,181.6,161.9,177.9,159.1,175.5L159.1,175.5z"/>
<path class="st0" d="M522.9,507.5l7.9,6.6c2.8,2.4,6.7,3,10.1,1.8c3.4-1.3,6-4.3,6.6-7.9c0.6-3.6-0.7-7.3-3.5-9.6l-7.9-6.6
	c-4.3-3.6-10.8-3.1-14.4,1.3C517.9,497.3,518.5,503.8,522.9,507.5L522.9,507.5z"/>
<path class="st0" d="M122.8,227.4c4.9,2.8,11.1,1.1,13.9-3.8c2.8-4.9,1.2-11.1-3.7-14l-8.9-5.1c-3.2-1.9-7.1-1.9-10.3,0
	c-3.2,1.8-5.2,5.2-5.1,8.9c0,3.7,2,7.1,5.2,8.9L122.8,227.4z"/>
<path class="st0" d="M557.8,478.5c3.2,1.9,7.1,1.9,10.3,0c3.2-1.8,5.2-5.2,5.1-8.9c0-3.7-2-7.1-5.2-8.9l-8.9-5.1
	c-3.2-1.9-7.1-1.9-10.3,0c-3.2,1.8-5.2,5.2-5.1,8.9c0,3.7,2,7.1,5.2,8.9L557.8,478.5z"/>
<path class="st0" d="M90.6,250.3c-0.9,2.6-0.8,5.4,0.3,7.9c1.2,2.5,3.2,4.4,5.8,5.3l9.6,3.5c3.5,1.4,7.4,0.7,10.3-1.6
	c2.9-2.4,4.2-6.1,3.6-9.8c-0.7-3.7-3.3-6.7-6.8-7.9l-9.6-3.5c-2.6-0.9-5.4-0.8-7.9,0.3C93.4,245.7,91.5,247.8,90.6,250.3z"/>
<path class="st0" d="M581.8,439.4c5,0,9.2-3.6,10.1-8.5c0.9-4.9-1.9-9.7-6.6-11.4l-9.6-3.5c-3.5-1.4-7.4-0.7-10.3,1.6
	c-2.9,2.4-4.2,6.1-3.6,9.8c0.7,3.7,3.3,6.7,6.8,7.9l9.6,3.5C579.4,439.2,580.6,439.4,581.8,439.4z"/>
<path class="st0" d="M78.5,295.2c-0.5,2.7,0.1,5.4,1.7,7.7c1.6,2.2,3.9,3.7,6.6,4.2l10.1,1.8c0.6,0.1,1.2,0.2,1.8,0.2
	c5.3,0,9.7-4.1,10.2-9.4c0.5-5.3-3.2-10.1-8.4-11l-10.1-1.8c-2.7-0.5-5.4,0.1-7.7,1.7C80.5,290.2,79,292.6,78.5,295.2z"/>
<path class="st0" d="M603.4,387.8c0.5-2.7-0.1-5.4-1.7-7.7s-3.9-3.7-6.6-4.2l-10.1-1.8c-5.6-1-10.9,2.7-11.9,8.3
	c-1,5.6,2.7,10.9,8.3,11.9l10.1,1.8c0.6,0.1,1.2,0.2,1.8,0.2C598.3,396.2,602.6,392.7,603.4,387.8z"/>
<path class="st0" d="M74.5,341.5c0,5.7,4.6,10.2,10.3,10.2H95c5.7,0,10.3-4.6,10.3-10.2c0-5.7-4.6-10.3-10.3-10.3H84.7
	C79.1,331.2,74.5,335.8,74.5,341.5z"/>
<path class="st0" d="M607.5,341.5c0-5.7-4.6-10.3-10.2-10.3H587c-5.7,0-10.2,4.6-10.2,10.3c0,5.7,4.6,10.2,10.2,10.2h10.3
	C602.9,351.7,607.5,347.2,607.5,341.5z"/>
<path class="st0" d="M88.6,396.2c0.6,0,1.2-0.1,1.8-0.2l10.1-1.8c5.6-1,9.3-6.3,8.3-11.9c-1-5.6-6.3-9.3-11.9-8.3l-10.1,1.8
	c-5.3,0.9-9,5.7-8.5,11C78.8,392.2,83.3,396.3,88.6,396.2z"/>
<path class="st0" d="M591.6,286.9l-10.1,1.8c-5.2,0.9-8.9,5.7-8.4,11c0.5,5.3,4.9,9.4,10.2,9.4c0.6,0,1.2-0.1,1.8-0.2l10.1-1.8
	c3.6-0.6,6.6-3.1,7.9-6.6c1.3-3.4,0.6-7.3-1.8-10.1C598.9,287.6,595.2,286.3,591.6,286.9z"/>
<path class="st0" d="M100.2,439.4c1.2,0,2.4-0.2,3.5-0.6l9.6-3.5c3.4-1.3,5.9-4.3,6.6-7.9c0.6-3.6-0.7-7.3-3.5-9.6
	c-2.8-2.3-6.7-3-10.1-1.8l-9.6,3.5c-4.7,1.7-7.5,6.5-6.6,11.4C90.9,435.8,95.2,439.4,100.2,439.4L100.2,439.4z"/>
<path class="st0" d="M578.3,244.2l-9.6,3.5c-3.5,1.2-6.1,4.2-6.8,7.9c-0.7,3.7,0.7,7.4,3.6,9.8c2.9,2.4,6.8,3,10.3,1.6l9.6-3.5
	c3.4-1.3,5.9-4.3,6.6-7.9c0.6-3.6-0.7-7.3-3.5-9.6C585.6,243.6,581.7,243,578.3,244.2z"/>
<path class="st0" d="M119.1,479.9c1.8,0,3.6-0.5,5.1-1.4l8.9-5.1c3.2-1.8,5.2-5.2,5.2-8.9s-2-7.1-5.1-8.9c-3.2-1.8-7.1-1.8-10.3,0
	l-8.9,5.1c-4,2.3-6,7-4.8,11.5S114.5,479.9,119.1,479.9z"/>
<path class="st0" d="M557.8,204.5l-8.9,5.1c-3.2,1.8-5.2,5.2-5.2,8.9c0,3.7,2,7.1,5.1,8.9c3.2,1.8,7.1,1.8,10.3,0l8.9-5.1
	c3.2-1.8,5.2-5.2,5.2-8.9c0-3.7-2-7.1-5.1-8.9C564.9,202.6,561,202.6,557.8,204.5z"/>
<path class="st0" d="M144.7,516.5c2.4,0,4.7-0.8,6.6-2.4l7.9-6.6c4.3-3.6,4.9-10.1,1.3-14.4c-3.6-4.3-10.1-4.9-14.4-1.3l-7.9,6.6
	c-3.3,2.8-4.5,7.3-3,11.4C136.5,513.8,140.4,516.5,144.7,516.5z"/>
<path class="st0" d="M529.5,193.6c2.4,0,4.7-0.8,6.6-2.4l7.9-6.6c2.8-2.4,4.1-6,3.5-9.6c-0.6-3.6-3.1-6.6-6.6-7.9
	c-3.4-1.3-7.3-0.6-10.1,1.8l-7.9,6.6c-3.3,2.8-4.5,7.3-3,11.4C521.3,190.9,525.1,193.6,529.5,193.6z"/>
<path class="st0" d="M207.7,572.3c2.4,1.4,5.2,1.7,7.8,1c2.6-0.7,4.9-2.4,6.2-4.8l5.1-8.9c2.8-4.9,1.1-11.1-3.8-13.9
	c-4.9-2.8-11.1-1.2-14,3.7l-5.1,8.9c-1.4,2.4-1.7,5.2-1,7.8C203.7,568.7,205.4,570.9,207.7,572.3z"/>
<path class="st0" d="M464,138.7c3.7,0,7.1-2,8.9-5.1l5.1-8.9c1.9-3.2,1.9-7.1,0-10.3c-1.8-3.2-5.2-5.2-8.9-5.1c-3.7,0-7.1,2-8.9,5.2
	l-5.1,8.9c-1.8,3.2-1.8,7.1,0,10.2C457,136.8,460.3,138.7,464,138.7z"/>
<path class="st0" d="M260.4,563c-2.6-0.9-5.4-0.8-7.8,0.4c-2.5,1.1-4.4,3.2-5.3,5.8l-3.5,9.6c-1.9,5.3,0.8,11.2,6.1,13.1
	c5.3,1.9,11.2-0.8,13.1-6.1l3.5-9.6c0.9-2.6,0.8-5.4-0.3-7.9C265,565.9,262.9,564,260.4,563z"/>
<path class="st0" d="M425.1,120.6c4.3,0,8.2-2.7,9.6-6.7l3.5-9.6c1.9-5.3-0.8-11.2-6.1-13.1c-5.3-1.9-11.2,0.8-13.1,6.1l-3.5,9.6
	c-1.1,3.1-0.7,6.6,1.2,9.4C418.7,118.9,421.8,120.6,425.1,120.6z"/>
<path class="st0" d="M288.2,582l-1.8,10.1c-0.5,2.7,0.1,5.4,1.7,7.7c1.6,2.2,3.9,3.7,6.6,4.2c0.6,0.1,1.2,0.2,1.8,0.2
	c5,0,9.2-3.6,10.1-8.5l1.8-10.1c0.6-3.6-0.7-7.3-3.5-9.6c-2.8-2.4-6.7-3-10.1-1.8C291.3,575.4,288.8,578.4,288.2,582z"/>
<path class="st0" d="M383.7,109.5c5,0,9.2-3.6,10.1-8.5l1.8-10.1c0.6-3.6-0.7-7.3-3.5-9.6c-2.8-2.4-6.7-3-10.1-1.8s-6,4.3-6.6,7.9
	l-1.8,10.1c-0.5,2.7,0.1,5.4,1.7,7.7c1.6,2.2,3.9,3.7,6.6,4.2C382.5,109.4,383.1,109.5,383.7,109.5z"/>
<path class="st0" d="M433.2,362c0-5.7-4.6-10.3-10.2-10.3h-55.4l26.4-23.8c2.2-2,4.4-3.9,6.8-5.9c14.5-12.4,32.5-27.9,32.5-52.3
	c0-28.3-22.9-51.3-51.3-51.3c-28.3,0-51.2,22.9-51.2,51.3c0,5.7,4.6,10.2,10.2,10.2c5.7,0,10.3-4.6,10.3-10.2c0-8.2,3.2-16,9-21.7
	c12.2-11.6,31.3-11.6,43.5,0c5.8,5.7,9,13.6,9,21.7c0,14.9-12.3,25.5-25.3,36.7c-2.4,2.1-4.9,4.2-7.2,6.2l-46.1,41.7
	c-3.1,2.8-4.2,7.3-2.7,11.3c1.5,4,5.3,6.6,9.6,6.6h82C428.7,372.2,433.2,367.7,433.2,362z"/>
<path class="st0" d="M300,372.2c5.7,0,10.3-4.6,10.3-10.2c0-5.7-4.6-10.3-10.3-10.3v-123c0-4.1-2.5-7.9-6.3-9.5
	c-3.8-1.6-8.2-0.7-11.2,2.2L262,242c-3.9,4-3.8,10.4,0.1,14.4c4,4,10.3,4,14.4,0.1l3-3v98.3h-10.2c-5.7,0-10.3,4.6-10.3,10.3
	c0,5.7,4.6,10.2,10.3,10.2H300z"/>
<path class="st0" d="M269.3,403c0-5.7-4.6-10.3-10.3-10.3c-5.7,0-10.3,4.6-10.3,10.3v20.5h-20.5V403c0-5.7-4.6-10.3-10.2-10.3
	c-5.7,0-10.3,4.6-10.3,10.3v61.5c0,5.7,4.6,10.3,10.3,10.3c5.7,0,10.2-4.6,10.2-10.3V444h20.5v20.5c0,5.7,4.6,10.3,10.3,10.3
	c5.7,0,10.3-4.6,10.3-10.3V403z"/>
<path class="st0" d="M341,454.3v-41c0-11.3-9.2-20.5-20.5-20.5H300c-11.3,0-20.5,9.2-20.5,20.5v41c0,11.3,9.2,20.5,20.5,20.5h20.5
	C331.8,474.8,341,465.6,341,454.3z M300,413.2h20.5v41H300V413.2z"/>
<path class="st0" d="M412.7,454.3V403c0-5.7-4.6-10.3-10.3-10.3c-5.7,0-10.2,4.6-10.2,10.3v51.3h-20.5V403c0-5.7-4.6-10.3-10.3-10.3
	c-5.7,0-10.2,4.6-10.2,10.3v51.3c0,11.3,9.2,20.5,20.5,20.5h20.5C403.6,474.8,412.7,465.6,412.7,454.3z"/>
<path class="st0" d="M484.5,423.5c0-17-13.8-30.8-30.8-30.8h-20.5c-5.7,0-10.2,4.6-10.2,10.3v61.5c0,5.7,4.6,10.3,10.2,10.3
	c5.7,0,10.3-4.6,10.3-10.3v-10.2h6l17.5,17.5c4,3.9,10.4,3.8,14.4-0.1s4-10.3,0.1-14.4l-9.3-9.3
	C479.9,442.2,484.5,433.1,484.5,423.5z M443.5,413.2h10.2c5.7,0,10.3,4.6,10.3,10.3c0,5.7-4.6,10.2-10.3,10.2h-10.2V413.2z"/>
</svg>
