<svg xmlns="http://www.w3.org/2000/svg" xmlns:xlink="http://www.w3.org/1999/xlink" width="1080" zoomAndPan="magnify" viewBox="0 0 810 1012.49997" height="1350" preserveAspectRatio="xMidYMid meet" version="1.2"><defs><clipPath id="914a9cf355"><path d="M 0.199219 0 L 108 0 L 108 17 L 0.199219 17 Z M 0.199219 0 "/></clipPath><clipPath id="c148a269e7"><path d="M -198.101562 16.757812 L 107.367188 16.796875 L 107.375 -29.351562 C 107.375 -50.816406 89.980469 -68.226562 68.507812 -68.226562 L -198.089844 -68.257812 Z M -198.101562 16.757812 "/></clipPath><linearGradient x1="330.012643" gradientTransform="matrix(0.626876,0,0,0.626915,-206.677149,-164.571065)" y1="221.464" x2="500.980002" gradientUnits="userSpaceOnUse" y2="221.464" id="f458905069"><stop style="stop-color:#587f26;stop-opacity:1;" offset="0"/><stop style="stop-color:#577e26;stop-opacity:1;" offset="0.03125"/><stop style="stop-color:#577d26;stop-opacity:1;" offset="0.0625"/><stop style="stop-color:#567c26;stop-opacity:1;" offset="0.09375"/><stop style="stop-color:#557b26;stop-opacity:1;" offset="0.125"/><stop style="stop-color:#557a26;stop-opacity:1;" offset="0.15625"/><stop style="stop-color:#547926;stop-opacity:1;" offset="0.1875"/><stop style="stop-color:#537826;stop-opacity:1;" offset="0.21875"/><stop style="stop-color:#537726;stop-opacity:1;" offset="0.25"/><stop style="stop-color:#527726;stop-opacity:1;" offset="0.28125"/><stop style="stop-color:#517626;stop-opacity:1;" offset="0.3125"/><stop style="stop-color:#517526;stop-opacity:1;" offset="0.34375"/><stop style="stop-color:#507426;stop-opacity:1;" offset="0.375"/><stop style="stop-color:#4f7326;stop-opacity:1;" offset="0.40625"/><stop style="stop-color:#4f7226;stop-opacity:1;" offset="0.4375"/><stop style="stop-color:#4e7126;stop-opacity:1;" offset="0.46875"/><stop style="stop-color:#4d7026;stop-opacity:1;" offset="0.5"/><stop style="stop-color:#4d6f26;stop-opacity:1;" offset="0.53125"/><stop style="stop-color:#4c6e26;stop-opacity:1;" offset="0.5625"/><stop style="stop-color:#4b6d26;stop-opacity:1;" offset="0.59375"/><stop style="stop-color:#4b6c26;stop-opacity:1;" offset="0.625"/><stop style="stop-color:#4a6b26;stop-opacity:1;" offset="0.65625"/><stop style="stop-color:#496a26;stop-opacity:1;" offset="0.6875"/><stop style="stop-color:#486926;stop-opacity:1;" offset="0.71875"/><stop style="stop-color:#486826;stop-opacity:1;" offset="0.75"/><stop style="stop-color:#476726;stop-opacity:1;" offset="0.78125"/><stop style="stop-color:#466626;stop-opacity:1;" offset="0.8125"/><stop style="stop-color:#466526;stop-opacity:1;" offset="0.84375"/><stop style="stop-color:#456426;stop-opacity:1;" offset="0.875"/><stop style="stop-color:#446326;stop-opacity:1;" offset="0.90625"/><stop style="stop-color:#446226;stop-opacity:1;" offset="0.9375"/><stop style="stop-color:#436126;stop-opacity:1;" offset="0.96875"/><stop style="stop-color:#426026;stop-opacity:1;" offset="1"/></linearGradient><filter x="0%" y="0%" width="100%" filterUnits="objectBoundingBox" id="ae20d52fbd" height="100%"><feColorMatrix values="0 0 0 0 1 0 0 0 0 1 0 0 0 0 1 0 0 0 1 0" type="matrix" in="SourceGraphic"/></filter><clipPath id="1b81fe93f7"><path d="M 0.339844 0.816406 L 265.710938 0.816406 L 265.710938 270 L 0.339844 270 Z M 0.339844 0.816406 "/></clipPath><clipPath id="a9ac70d7e4"><path d="M 4 250 L 116 250 L 116 361.390625 L 4 361.390625 Z M 4 250 "/></clipPath><clipPath id="4f53a702e8"><path d="M 150 250 L 262 250 L 262 361.390625 L 150 361.390625 Z M 150 250 "/></clipPath><clipPath id="a5e916e053"><rect x="0" width="266" y="0" height="362"/></clipPath></defs><g id="da1cece14a"><g clip-rule="nonzero" clip-path="url(#914a9cf355)"><g clip-rule="nonzero" clip-path="url(#c148a269e7)"><path style=" stroke:none;fill-rule:nonzero;fill:url(#f458905069);" d="M 0.199219 0 L 0.199219 16.796875 L 107.375 16.796875 L 107.375 0 Z M 0.199219 0 "/></g></g><g mask="url(#e833611fc5)" transform="matrix(1,0,0,1,272,325)"><g clip-path="url(#a5e916e053)"><path style=" stroke:none;fill-rule:nonzero;fill:#1d1d1b;fill-opacity:1;" d="M 132.96875 43.039062 C 82.140625 43.039062 40.96875 84.257812 40.96875 135.070312 C 40.96875 185.878906 82.175781 227.101562 132.96875 227.101562 C 183.796875 227.101562 224.964844 185.878906 224.964844 135.070312 C 224.964844 84.257812 183.796875 43.039062 132.96875 43.039062 Z M 190.8125 110.066406 L 125.261719 175.640625 C 123.117188 177.785156 120.316406 178.859375 117.480469 178.859375 C 114.683594 178.859375 111.847656 177.785156 109.699219 175.640625 L 75.125 141.050781 C 70.832031 136.757812 70.832031 129.777344 75.125 125.480469 C 79.417969 121.1875 86.394531 121.1875 90.6875 125.480469 L 117.480469 152.285156 L 175.285156 94.460938 C 179.578125 90.164062 186.554688 90.164062 190.851562 94.460938 C 195.105469 98.792969 195.105469 105.773438 190.8125 110.066406 Z M 190.8125 110.066406 "/><g clip-rule="nonzero" clip-path="url(#1b81fe93f7)"><path style=" stroke:none;fill-rule:nonzero;fill:#1d1d1b;fill-opacity:1;" d="M 263.679688 125.597656 C 264.90625 122.53125 265.523438 119.308594 265.523438 116.125 C 265.523438 109.988281 263.296875 103.96875 259.042969 99.253906 C 254.863281 94.613281 252.566406 88.59375 252.566406 82.378906 C 252.566406 82.074219 252.566406 81.765625 252.566406 81.421875 C 252.566406 81.113281 252.566406 80.808594 252.566406 80.5 C 252.566406 71.222656 247.429688 62.632812 239.1875 58.261719 C 236.273438 56.726562 233.742188 54.65625 231.675781 52.203125 C 229.605469 49.746094 227.992188 46.871094 226.996094 43.765625 C 224.046875 34.5625 216.074219 27.890625 206.527344 26.585938 C 200.050781 25.703125 194.144531 22.292969 190.121094 17.113281 C 184.179688 9.484375 174.445312 5.917969 164.976562 7.949219 C 163.210938 8.332031 161.449219 8.523438 159.683594 8.523438 C 155.007812 8.523438 150.371094 7.222656 146.308594 4.691406 C 142.242188 2.082031 137.605469 0.816406 132.96875 0.816406 C 128.328125 0.816406 123.691406 2.082031 119.589844 4.652344 C 115.566406 7.183594 110.925781 8.488281 106.210938 8.488281 C 104.449219 8.488281 102.683594 8.296875 100.921875 7.910156 C 99.160156 7.527344 97.394531 7.335938 95.632812 7.335938 C 87.964844 7.335938 80.605469 10.863281 75.777344 17.039062 C 71.75 22.214844 65.847656 25.628906 59.371094 26.511719 C 54.578125 27.160156 50.207031 29.15625 46.644531 32.148438 C 43.078125 35.136719 40.355469 39.085938 38.863281 43.6875 C 36.867188 49.941406 32.5 55.15625 26.671875 58.222656 C 18.429688 62.59375 13.292969 71.144531 13.292969 80.464844 C 13.292969 80.769531 13.292969 81.078125 13.292969 81.382812 C 13.292969 81.691406 13.292969 81.996094 13.292969 82.34375 C 13.292969 88.554688 10.992188 94.574219 6.816406 99.214844 C 2.636719 103.96875 0.414062 110.027344 0.414062 116.125 C 0.414062 119.308594 1.027344 122.53125 2.253906 125.597656 C 3.480469 128.625 4.09375 131.847656 4.09375 135.070312 C 4.09375 138.289062 3.480469 141.511719 2.253906 144.539062 C 1.027344 147.609375 0.414062 150.828125 0.414062 154.011719 C 0.414062 160.148438 2.636719 166.167969 6.890625 170.882812 C 11.070312 175.523438 13.371094 181.542969 13.371094 187.757812 C 13.371094 188.0625 13.371094 188.371094 13.371094 188.714844 C 13.371094 189.023438 13.371094 189.328125 13.371094 189.636719 C 13.371094 198.914062 18.507812 207.503906 26.75 211.875 C 29.660156 213.410156 32.191406 215.480469 34.261719 217.933594 C 36.332031 220.390625 37.941406 223.265625 38.9375 226.371094 C 40.433594 230.972656 43.15625 234.921875 46.71875 237.914062 C 50.285156 240.90625 54.65625 242.898438 59.445312 243.550781 C 62.703125 244.011719 65.769531 245.085938 68.570312 246.695312 C 71.367188 248.304688 73.820312 250.453125 75.851562 253.023438 C 80.683594 259.234375 88.042969 262.722656 95.707031 262.722656 C 97.472656 262.722656 99.234375 262.53125 101 262.148438 C 102.761719 261.765625 104.523438 261.574219 106.289062 261.574219 C 110.964844 261.574219 115.640625 262.878906 119.667969 265.445312 C 123.769531 268.015625 128.40625 269.28125 133.042969 269.28125 C 137.683594 269.28125 142.320312 268.015625 146.421875 265.445312 C 150.449219 262.914062 155.085938 261.574219 159.800781 261.574219 C 161.5625 261.574219 163.328125 261.765625 165.089844 262.148438 C 166.855469 262.53125 168.617188 262.722656 170.378906 262.722656 C 178.046875 262.722656 185.40625 259.234375 190.238281 253.023438 C 192.230469 250.453125 194.722656 248.304688 197.519531 246.695312 C 200.316406 245.085938 203.382812 244.011719 206.644531 243.550781 C 216.1875 242.246094 224.160156 235.535156 227.113281 226.371094 C 228.109375 223.265625 229.71875 220.390625 231.789062 217.933594 C 233.859375 215.480469 236.390625 213.410156 239.300781 211.875 C 247.542969 207.503906 252.679688 198.953125 252.679688 189.636719 C 252.679688 189.328125 252.679688 189.023438 252.679688 188.714844 C 252.679688 188.410156 252.679688 188.101562 252.679688 187.757812 C 252.679688 181.542969 254.980469 175.523438 259.160156 170.882812 C 263.414062 166.167969 265.636719 160.148438 265.636719 154.011719 C 265.636719 150.828125 265.023438 147.609375 263.796875 144.539062 C 261.226562 138.480469 261.226562 131.695312 263.679688 125.597656 Z M 132.96875 237.644531 C 76.351562 237.644531 30.429688 191.746094 30.429688 135.105469 C 30.429688 78.46875 76.351562 32.53125 132.96875 32.53125 C 189.585938 32.53125 235.46875 78.429688 235.46875 135.070312 C 235.46875 191.707031 189.585938 237.644531 132.96875 237.644531 Z M 132.96875 237.644531 "/></g><g clip-rule="nonzero" clip-path="url(#a9ac70d7e4)"><path style=" stroke:none;fill-rule:nonzero;fill:#1d1d1b;fill-opacity:1;" d="M 106.210938 271.351562 C 105.136719 271.351562 104.027344 271.46875 102.953125 271.695312 C 100.539062 272.195312 98.085938 272.464844 95.632812 272.464844 C 90.378906 272.464844 85.128906 271.238281 80.414062 268.976562 C 75.660156 266.671875 71.40625 263.222656 68.148438 259.042969 C 66.921875 257.46875 65.425781 256.128906 63.664062 255.132812 C 61.9375 254.132812 60.019531 253.484375 58.066406 253.214844 C 54.691406 252.753906 51.394531 251.796875 48.328125 250.375 L 4.402344 326.570312 L 52.777344 312.382812 L 64.699219 361.390625 L 115.066406 274.074219 C 114.875 273.960938 114.644531 273.804688 114.453125 273.691406 C 112 272.15625 109.125 271.351562 106.210938 271.351562 Z M 106.210938 271.351562 "/></g><g clip-rule="nonzero" clip-path="url(#4f53a702e8)"><path style=" stroke:none;fill-rule:nonzero;fill:#1d1d1b;fill-opacity:1;" d="M 207.871094 253.175781 C 205.875 253.445312 203.996094 254.097656 202.273438 255.09375 C 200.546875 256.089844 199.054688 257.394531 197.789062 259.003906 C 194.53125 263.183594 190.273438 266.636719 185.523438 268.9375 C 180.808594 271.238281 175.554688 272.425781 170.304688 272.425781 C 167.851562 272.425781 165.398438 272.15625 162.980469 271.660156 C 161.910156 271.429688 160.835938 271.3125 159.722656 271.3125 C 156.808594 271.3125 153.972656 272.117188 151.519531 273.691406 C 151.328125 273.804688 151.097656 273.960938 150.90625 274.074219 L 201.277344 361.390625 L 213.160156 312.382812 L 261.535156 326.570312 L 217.566406 250.339844 C 214.5 251.757812 211.242188 252.714844 207.871094 253.175781 Z M 207.871094 253.175781 "/></g></g><mask id="e833611fc5"><g filter="url(#ae20d52fbd)"><rect x="0" width="810" y="0" height="1012.49997" style="fill:#000000;fill-opacity:0.86;stroke:none;"/></g></mask></g></g></svg>