<svg xmlns="http://www.w3.org/2000/svg" xmlns:xlink="http://www.w3.org/1999/xlink" width="1080" zoomAndPan="magnify" viewBox="0 0 810 1012.49997" height="1350" preserveAspectRatio="xMidYMid meet" version="1.2"><defs><clipPath id="47ffd07ff9"><path d="M 217.527344 251.371094 L 592.34375 251.371094 L 592.34375 631 L 217.527344 631 Z M 217.527344 251.371094 "/></clipPath><clipPath id="02704b5e14"><path d="M 223 603 L 380 603 L 380 760.371094 L 223 760.371094 Z M 223 603 "/></clipPath><clipPath id="aa80e985e7"><path d="M 430 603 L 587 603 L 587 760.371094 L 430 760.371094 Z M 430 603 "/></clipPath><clipPath id="c7a32553bc"><path d="M 451.460938 596.078125 L 458.488281 596.078125 L 458.488281 603.101562 L 451.460938 603.101562 Z M 451.460938 596.078125 "/></clipPath><clipPath id="bad29bdb36"><path d="M 0.460938 0.078125 L 7.488281 0.078125 L 7.488281 7.101562 L 0.460938 7.101562 Z M 0.460938 0.078125 "/></clipPath><clipPath id="1425fb5985"><rect x="0" width="8" y="0" height="8"/></clipPath></defs><g id="61f942ba51"><path style=" stroke:none;fill-rule:nonzero;fill:#4c583f;fill-opacity:1;" d="M 404.914062 311 C 333.097656 311 274.933594 369.222656 274.933594 440.980469 C 274.933594 512.742188 333.152344 570.960938 404.914062 570.960938 C 476.730469 570.960938 534.894531 512.742188 534.894531 440.980469 C 534.894531 369.222656 476.730469 311 404.914062 311 Z M 486.640625 405.667969 L 394.027344 498.28125 C 390.996094 501.3125 387.042969 502.832031 383.035156 502.832031 C 379.082031 502.832031 375.074219 501.3125 372.039062 498.28125 L 323.1875 449.429688 C 317.121094 443.363281 317.121094 433.507812 323.1875 427.441406 C 329.253906 421.375 339.109375 421.375 345.175781 427.441406 L 383.035156 465.296875 L 464.707031 383.628906 C 470.769531 377.5625 480.628906 377.5625 486.695312 383.628906 C 492.707031 389.746094 492.707031 399.605469 486.640625 405.667969 Z M 486.640625 405.667969 "/><g clip-rule="nonzero" clip-path="url(#47ffd07ff9)"><path style=" stroke:none;fill-rule:nonzero;fill:#4c583f;fill-opacity:1;" d="M 589.597656 427.605469 C 591.328125 423.269531 592.195312 418.722656 592.195312 414.226562 C 592.195312 405.5625 589.054688 397.058594 583.042969 390.398438 C 577.140625 383.84375 573.890625 375.339844 573.890625 366.566406 C 573.890625 366.132812 573.890625 365.699219 573.890625 365.214844 C 573.890625 364.78125 573.890625 364.347656 573.890625 363.914062 C 573.890625 350.808594 566.632812 338.675781 554.988281 332.5 C 550.871094 330.335938 547.296875 327.410156 544.375 323.945312 C 541.449219 320.476562 539.175781 316.414062 537.765625 312.027344 C 533.59375 299.03125 522.332031 289.605469 508.84375 287.765625 C 499.691406 286.519531 491.351562 281.699219 485.664062 274.386719 C 477.269531 263.609375 463.515625 258.574219 450.136719 261.445312 C 447.644531 261.984375 445.152344 262.257812 442.664062 262.257812 C 436.054688 262.257812 429.503906 260.414062 423.761719 256.839844 C 418.019531 253.15625 411.46875 251.371094 404.914062 251.371094 C 398.359375 251.371094 391.808594 253.15625 386.011719 256.785156 C 380.324219 260.359375 373.773438 262.203125 367.109375 262.203125 C 364.621094 262.203125 362.128906 261.933594 359.636719 261.390625 C 357.144531 260.847656 354.65625 260.578125 352.164062 260.578125 C 341.332031 260.578125 330.933594 265.5625 324.109375 274.28125 C 318.421875 281.589844 310.082031 286.410156 300.929688 287.65625 C 294.160156 288.578125 287.984375 291.394531 282.949219 295.617188 C 277.910156 299.84375 274.066406 305.421875 271.953125 311.921875 C 269.136719 320.75 262.964844 328.113281 254.730469 332.445312 C 243.085938 338.621094 235.828125 350.699219 235.828125 363.859375 C 235.828125 364.292969 235.828125 364.726562 235.828125 365.160156 C 235.828125 365.59375 235.828125 366.023438 235.828125 366.511719 C 235.828125 375.285156 232.582031 383.789062 226.675781 390.34375 C 220.773438 397.058594 217.632812 405.617188 217.632812 414.226562 C 217.632812 418.722656 218.5 423.269531 220.230469 427.605469 C 221.964844 431.882812 222.832031 436.433594 222.832031 440.980469 C 222.832031 445.53125 221.964844 450.078125 220.230469 454.359375 C 218.5 458.691406 217.632812 463.242188 217.632812 467.734375 C 217.632812 476.402344 220.773438 484.902344 226.785156 491.566406 C 232.6875 498.117188 235.9375 506.621094 235.9375 515.394531 C 235.9375 515.828125 235.9375 516.261719 235.9375 516.75 C 235.9375 517.183594 235.9375 517.617188 235.9375 518.050781 C 235.9375 531.15625 243.195312 543.289062 254.839844 549.460938 C 258.957031 551.628906 262.53125 554.550781 265.453125 558.019531 C 268.378906 561.484375 270.652344 565.546875 272.0625 569.933594 C 274.175781 576.433594 278.019531 582.011719 283.054688 586.234375 C 288.09375 590.460938 294.265625 593.277344 301.039062 594.195312 C 305.640625 594.847656 309.972656 596.363281 313.925781 598.636719 C 317.878906 600.914062 321.347656 603.945312 324.21875 607.574219 C 331.042969 616.347656 341.441406 621.277344 352.273438 621.277344 C 354.761719 621.277344 357.253906 621.003906 359.746094 620.464844 C 362.238281 619.921875 364.726562 619.652344 367.21875 619.652344 C 373.828125 619.652344 380.433594 621.492188 386.121094 625.121094 C 391.914062 628.75 398.46875 630.539062 405.023438 630.539062 C 411.574219 630.539062 418.128906 628.75 423.921875 625.121094 C 429.609375 621.546875 436.164062 619.652344 442.824219 619.652344 C 445.316406 619.652344 447.808594 619.921875 450.300781 620.464844 C 452.789062 621.003906 455.28125 621.277344 457.773438 621.277344 C 468.605469 621.277344 479.003906 616.347656 485.828125 607.574219 C 488.644531 603.945312 492.164062 600.914062 496.117188 598.636719 C 500.070312 596.363281 504.402344 594.847656 509.007812 594.195312 C 522.492188 592.355469 533.757812 582.878906 537.929688 569.933594 C 539.335938 565.546875 541.609375 561.484375 544.535156 558.019531 C 547.460938 554.550781 551.035156 551.628906 555.152344 549.460938 C 566.796875 543.289062 574.050781 531.210938 574.050781 518.050781 C 574.050781 517.617188 574.050781 517.183594 574.050781 516.75 C 574.050781 516.316406 574.050781 515.882812 574.050781 515.394531 C 574.050781 506.621094 577.300781 498.117188 583.207031 491.566406 C 589.214844 484.902344 592.359375 476.402344 592.359375 467.734375 C 592.359375 463.242188 591.492188 458.691406 589.757812 454.359375 C 586.128906 445.800781 586.128906 436.214844 589.597656 427.605469 Z M 404.914062 585.855469 C 324.921875 585.855469 260.039062 521.027344 260.039062 441.035156 C 260.039062 361.042969 324.921875 296.160156 404.914062 296.160156 C 484.90625 296.160156 549.734375 360.988281 549.734375 440.980469 C 549.734375 520.972656 484.90625 585.855469 404.914062 585.855469 Z M 404.914062 585.855469 "/></g><g clip-rule="nonzero" clip-path="url(#02704b5e14)"><path style=" stroke:none;fill-rule:nonzero;fill:#4c583f;fill-opacity:1;" d="M 367.109375 633.460938 C 365.59375 633.460938 364.023438 633.625 362.507812 633.949219 C 359.09375 634.652344 355.628906 635.03125 352.164062 635.03125 C 344.742188 635.03125 337.324219 633.300781 330.664062 630.105469 C 323.945312 626.855469 317.933594 621.980469 313.332031 616.078125 C 311.597656 613.855469 309.484375 611.960938 306.996094 610.554688 C 304.558594 609.144531 301.847656 608.222656 299.085938 607.84375 C 294.320312 607.195312 289.664062 605.839844 285.332031 603.835938 L 223.265625 711.449219 L 291.613281 691.410156 L 308.457031 760.628906 L 379.621094 637.308594 C 379.351562 637.144531 379.027344 636.929688 378.753906 636.765625 C 375.289062 634.597656 371.226562 633.460938 367.109375 633.460938 Z M 367.109375 633.460938 "/></g><g clip-rule="nonzero" clip-path="url(#aa80e985e7)"><path style=" stroke:none;fill-rule:nonzero;fill:#4c583f;fill-opacity:1;" d="M 510.742188 607.789062 C 507.925781 608.167969 505.269531 609.089844 502.832031 610.5 C 500.394531 611.90625 498.285156 613.75 496.496094 616.023438 C 491.894531 621.925781 485.882812 626.800781 479.164062 630.050781 C 472.503906 633.300781 465.085938 634.976562 457.664062 634.976562 C 454.199219 634.976562 450.734375 634.597656 447.320312 633.894531 C 445.804688 633.570312 444.289062 633.40625 442.71875 633.40625 C 438.601562 633.40625 434.59375 634.546875 431.125 636.765625 C 430.855469 636.929688 430.53125 637.144531 430.261719 637.308594 L 501.425781 760.628906 L 518.214844 691.410156 L 586.5625 711.449219 L 524.441406 603.78125 C 520.109375 605.785156 515.507812 607.140625 510.742188 607.789062 Z M 510.742188 607.789062 "/></g><g clip-rule="nonzero" clip-path="url(#c7a32553bc)"><g transform="matrix(1,0,0,1,451,596)"><g clip-path="url(#1425fb5985)"><g clip-rule="nonzero" clip-path="url(#bad29bdb36)"><path style=" stroke:none;fill-rule:nonzero;fill:#4c583f;fill-opacity:1;" d="M 0.460938 0.078125 L 7.488281 0.078125 L 7.488281 7.101562 L 0.460938 7.101562 Z M 0.460938 0.078125 "/></g></g></g></g></g></svg>