<svg xmlns="http://www.w3.org/2000/svg" xmlns:xlink="http://www.w3.org/1999/xlink" width="1080" zoomAndPan="magnify" viewBox="0 0 810 1012.49997" height="1350" preserveAspectRatio="xMidYMid meet" version="1.2"><defs><clipPath id="2333dabea1"><path d="M 212.34375 401.109375 L 223.4375 401.109375 L 223.4375 417.289062 L 212.34375 417.289062 Z M 212.34375 401.109375 "/></clipPath><clipPath id="8fff61a15f"><path d="M 0.34375 0.109375 L 11.4375 0.109375 L 11.4375 16.289062 L 0.34375 16.289062 Z M 0.34375 0.109375 "/></clipPath><clipPath id="802e02d258"><rect x="0" width="12" y="0" height="17"/></clipPath><clipPath id="cee08bef92"><path d="M 292 332 L 579.378906 332 L 579.378906 641 L 292 641 Z M 292 332 "/></clipPath><clipPath id="49216179dc"><path d="M 428.929688 415.789062 L 435.953125 415.789062 L 435.953125 422.8125 L 428.929688 422.8125 Z M 428.929688 415.789062 "/></clipPath><clipPath id="2d3c16d48d"><path d="M 0.929688 0.789062 L 7.953125 0.789062 L 7.953125 7.8125 L 0.929688 7.8125 Z M 0.929688 0.789062 "/></clipPath><clipPath id="1cf42d6c9d"><rect x="0" width="8" y="0" height="8"/></clipPath></defs><g id="a92a2ed01d"><g clip-rule="nonzero" clip-path="url(#2333dabea1)"><g transform="matrix(1,0,0,1,212,401)"><g clip-path="url(#802e02d258)"><g clip-rule="nonzero" clip-path="url(#8fff61a15f)"><path style=" stroke:none;fill-rule:nonzero;fill:#ffffff;fill-opacity:1;" d="M 0.34375 0.109375 L 11.4375 0.109375 L 11.4375 16.277344 L 0.34375 16.277344 Z M 0.34375 0.109375 "/></g></g></g></g><path style=" stroke:none;fill-rule:nonzero;fill:#4c583f;fill-opacity:1;" d="M 236.972656 679.910156 C 235.089844 679.910156 233.246094 678.949219 232.171875 677.214844 C 230.574219 674.566406 231.40625 671.125 234.058594 669.503906 C 340.191406 604.765625 430.238281 520.351562 501.65625 418.625 C 503.453125 416.082031 506.941406 415.46875 509.480469 417.242188 C 512.023438 419.039062 512.636719 422.523438 510.863281 425.066406 C 438.523438 528.085938 347.355469 613.53125 239.886719 679.101562 C 238.988281 679.648438 237.980469 679.910156 236.972656 679.910156 "/><g clip-rule="nonzero" clip-path="url(#cee08bef92)"><path style=" stroke:none;fill-rule:nonzero;fill:#4c583f;fill-opacity:1;" d="M 371.617188 640.640625 C 356.167969 640.640625 345.558594 638.910156 337.035156 637.527344 C 324.390625 635.492188 316.039062 634.132812 299.847656 638.800781 C 296.867188 639.632812 293.753906 637.921875 292.898438 634.964844 C 292.042969 631.984375 293.753906 628.871094 296.734375 628.019531 C 315.339844 622.648438 325.707031 624.335938 338.832031 626.460938 C 347.378906 627.84375 357.066406 629.421875 371.617188 629.421875 C 420.816406 629.421875 486.648438 576.648438 526.683594 524.601562 C 514.609375 521.644531 503.0625 517.042969 492.257812 510.863281 C 490.152344 509.679688 489.058594 507.269531 489.539062 504.902344 C 490 502.535156 491.949219 500.714844 494.359375 500.429688 C 514.257812 497.953125 533.785156 492.738281 552.390625 484.914062 C 562.582031 465.28125 567.972656 447.375 567.972656 433.066406 C 567.972656 389.628906 563.632812 343.300781 511.871094 343.300781 C 476.742188 343.300781 461.3125 373.742188 445.007812 405.976562 C 434.929688 425.855469 424.496094 446.410156 408.9375 459.757812 C 399.863281 467.492188 389.585938 474.15625 379.636719 480.574219 L 377.488281 481.980469 C 372.097656 502.46875 370.125 523.617188 371.59375 544.875 C 371.792969 547.460938 370.191406 549.804688 367.738281 550.617188 C 365.28125 551.402344 362.609375 550.417969 361.25 548.226562 C 353.097656 535.164062 347.488281 520.988281 344.507812 506.019531 C 326.382812 522.5 309.90625 547.195312 309.90625 595.757812 C 309.90625 598.847656 307.382812 601.371094 304.292969 601.371094 C 301.203125 601.371094 298.683594 598.847656 298.683594 595.757812 C 298.683594 535.449219 323.449219 508.035156 345.011719 490.875 C 346.613281 489.625 348.757812 489.320312 350.644531 490.085938 C 352.527344 490.875 353.84375 492.605469 354.0625 494.625 C 355.136719 503.585938 357.175781 512.242188 360.175781 520.546875 C 360.945312 505.820312 363.3125 491.226562 367.210938 476.960938 C 367.585938 475.644531 368.417969 474.503906 369.578125 473.761719 L 373.546875 471.175781 C 383.625 464.644531 393.136719 458.484375 401.640625 451.230469 C 415.511719 439.355469 425.417969 419.808594 434.972656 400.894531 C 452.132812 367.058594 469.859375 332.082031 511.871094 332.082031 C 579.191406 332.082031 579.191406 400.28125 579.191406 433.066406 C 579.191406 449.785156 573.273438 469.488281 561.550781 491.597656 C 561.003906 492.847656 559.996094 493.878906 558.703125 494.425781 C 544.085938 500.714844 528.941406 505.472656 513.46875 508.648438 C 521.160156 511.695312 529.183594 513.953125 537.402344 515.398438 C 539.328125 515.726562 540.90625 517.019531 541.628906 518.816406 C 542.355469 520.613281 542.113281 522.652344 540.996094 524.207031 C 498.984375 582.0625 427.324219 640.640625 371.617188 640.640625 "/></g><path style=" stroke:none;fill-rule:nonzero;fill:#4c583f;fill-opacity:1;" d="M 270.632812 635.03125 C 269.558594 635.03125 268.484375 634.722656 267.523438 634.089844 C 264.9375 632.355469 264.257812 628.894531 265.964844 626.308594 C 270.28125 619.820312 269.253906 613.179688 267.960938 604.746094 C 266.449219 594.925781 264.738281 583.792969 271.226562 570.796875 C 272.605469 568.039062 275.980469 566.917969 278.765625 568.300781 C 281.523438 569.679688 282.644531 573.054688 281.261719 575.839844 C 276.351562 585.613281 277.667969 594.070312 279.050781 603.035156 C 280.515625 612.566406 282.03125 622.429688 275.300781 632.53125 C 274.226562 634.152344 272.453125 635.03125 270.632812 635.03125 "/><path style=" stroke:none;fill-rule:nonzero;fill:#4c583f;fill-opacity:1;" d="M 339.6875 671.386719 C 329.933594 671.386719 322.332031 668.078125 314.441406 664.617188 C 303.703125 659.925781 292.636719 655.058594 272.757812 657.273438 C 269.714844 657.582031 266.910156 655.390625 266.578125 652.320312 C 266.230469 649.230469 268.441406 646.46875 271.53125 646.121094 C 294.367188 643.578125 307.976562 649.539062 318.933594 654.335938 C 330.066406 659.222656 338.109375 662.730469 353.011719 657.757812 C 355.949219 656.769531 359.125 658.371094 360.109375 661.304688 C 361.097656 664.242188 359.496094 667.421875 356.5625 668.40625 C 350.160156 670.53125 344.640625 671.386719 339.6875 671.386719 "/><g clip-rule="nonzero" clip-path="url(#49216179dc)"><g transform="matrix(1,0,0,1,428,415)"><g clip-path="url(#1cf42d6c9d)"><g clip-rule="nonzero" clip-path="url(#2d3c16d48d)"><path style=" stroke:none;fill-rule:nonzero;fill:#4c583f;fill-opacity:1;" d="M 0.929688 0.789062 L 7.953125 0.789062 L 7.953125 7.8125 L 0.929688 7.8125 Z M 0.929688 0.789062 "/></g></g></g></g></g></svg>