<svg xmlns="http://www.w3.org/2000/svg" xmlns:xlink="http://www.w3.org/1999/xlink" width="1080" zoomAndPan="magnify" viewBox="0 0 810 1012.49997" height="1350" preserveAspectRatio="xMidYMid meet" version="1.2"><defs><clipPath id="f248953c6d"><path d="M 0.199219 0 L 108 0 L 108 17 L 0.199219 17 Z M 0.199219 0 "/></clipPath><clipPath id="da9c32e92b"><path d="M -198.101562 16.757812 L 107.367188 16.796875 L 107.375 -29.351562 C 107.375 -50.816406 89.980469 -68.226562 68.507812 -68.226562 L -198.089844 -68.257812 Z M -198.101562 16.757812 "/></clipPath><linearGradient x1="330.012643" gradientTransform="matrix(0.626876,0,0,0.626915,-206.677149,-164.571065)" y1="221.464" x2="500.980002" gradientUnits="userSpaceOnUse" y2="221.464" id="7b234d757b"><stop style="stop-color:#587f26;stop-opacity:1;" offset="0"/><stop style="stop-color:#577e26;stop-opacity:1;" offset="0.03125"/><stop style="stop-color:#577d26;stop-opacity:1;" offset="0.0625"/><stop style="stop-color:#567c26;stop-opacity:1;" offset="0.09375"/><stop style="stop-color:#557b26;stop-opacity:1;" offset="0.125"/><stop style="stop-color:#557a26;stop-opacity:1;" offset="0.15625"/><stop style="stop-color:#547926;stop-opacity:1;" offset="0.1875"/><stop style="stop-color:#537826;stop-opacity:1;" offset="0.21875"/><stop style="stop-color:#537726;stop-opacity:1;" offset="0.25"/><stop style="stop-color:#527726;stop-opacity:1;" offset="0.28125"/><stop style="stop-color:#517626;stop-opacity:1;" offset="0.3125"/><stop style="stop-color:#517526;stop-opacity:1;" offset="0.34375"/><stop style="stop-color:#507426;stop-opacity:1;" offset="0.375"/><stop style="stop-color:#4f7326;stop-opacity:1;" offset="0.40625"/><stop style="stop-color:#4f7226;stop-opacity:1;" offset="0.4375"/><stop style="stop-color:#4e7126;stop-opacity:1;" offset="0.46875"/><stop style="stop-color:#4d7026;stop-opacity:1;" offset="0.5"/><stop style="stop-color:#4d6f26;stop-opacity:1;" offset="0.53125"/><stop style="stop-color:#4c6e26;stop-opacity:1;" offset="0.5625"/><stop style="stop-color:#4b6d26;stop-opacity:1;" offset="0.59375"/><stop style="stop-color:#4b6c26;stop-opacity:1;" offset="0.625"/><stop style="stop-color:#4a6b26;stop-opacity:1;" offset="0.65625"/><stop style="stop-color:#496a26;stop-opacity:1;" offset="0.6875"/><stop style="stop-color:#486926;stop-opacity:1;" offset="0.71875"/><stop style="stop-color:#486826;stop-opacity:1;" offset="0.75"/><stop style="stop-color:#476726;stop-opacity:1;" offset="0.78125"/><stop style="stop-color:#466626;stop-opacity:1;" offset="0.8125"/><stop style="stop-color:#466526;stop-opacity:1;" offset="0.84375"/><stop style="stop-color:#456426;stop-opacity:1;" offset="0.875"/><stop style="stop-color:#446326;stop-opacity:1;" offset="0.90625"/><stop style="stop-color:#446226;stop-opacity:1;" offset="0.9375"/><stop style="stop-color:#436126;stop-opacity:1;" offset="0.96875"/><stop style="stop-color:#426026;stop-opacity:1;" offset="1"/></linearGradient></defs><g id="e38722c6c1"><g clip-rule="nonzero" clip-path="url(#f248953c6d)"><g clip-rule="nonzero" clip-path="url(#da9c32e92b)"><path style=" stroke:none;fill-rule:nonzero;fill:url(#7b234d757b);" d="M 0.199219 0 L 0.199219 16.796875 L 107.375 16.796875 L 107.375 0 Z M 0.199219 0 "/></g></g><path style=" stroke:none;fill-rule:nonzero;fill:#353f2a;fill-opacity:1;" d="M 243.917969 672.726562 C 242.109375 672.726562 240.347656 671.804688 239.316406 670.144531 C 237.785156 667.601562 238.582031 664.304688 241.125 662.75 C 342.871094 600.6875 429.199219 519.761719 497.667969 422.234375 C 499.390625 419.800781 502.730469 419.210938 505.167969 420.914062 C 507.605469 422.636719 508.191406 425.976562 506.492188 428.414062 C 437.140625 527.175781 349.742188 609.089844 246.710938 671.949219 C 245.851562 672.476562 244.882812 672.726562 243.917969 672.726562 "/><path style=" stroke:none;fill-rule:nonzero;fill:#353f2a;fill-opacity:1;" d="M 373 635.078125 C 358.1875 635.078125 348.019531 633.421875 339.847656 632.097656 C 327.722656 630.140625 319.71875 628.839844 304.191406 633.316406 C 301.335938 634.113281 298.351562 632.472656 297.535156 629.636719 C 296.714844 626.78125 298.351562 623.796875 301.210938 622.976562 C 319.046875 617.832031 328.984375 619.449219 341.570312 621.488281 C 349.761719 622.808594 359.046875 624.324219 373 624.324219 C 420.164062 624.324219 483.273438 573.734375 521.660156 523.835938 C 510.082031 521 499.011719 516.589844 488.652344 510.664062 C 486.636719 509.527344 485.585938 507.21875 486.046875 504.949219 C 486.488281 502.679688 488.359375 500.9375 490.671875 500.664062 C 509.746094 498.289062 528.464844 493.289062 546.304688 485.789062 C 556.070312 466.964844 561.242188 449.800781 561.242188 436.082031 C 561.242188 394.441406 557.082031 350.027344 507.457031 350.027344 C 473.777344 350.027344 458.988281 379.210938 443.359375 410.113281 C 433.695312 429.167969 423.691406 448.875 408.777344 461.671875 C 400.078125 469.085938 390.226562 475.472656 380.6875 481.628906 L 378.628906 482.972656 C 373.460938 502.617188 371.570312 522.890625 372.976562 543.269531 C 373.167969 545.75 371.632812 547.996094 369.28125 548.773438 C 366.925781 549.53125 364.363281 548.585938 363.0625 546.484375 C 355.246094 533.960938 349.867188 520.371094 347.011719 506.019531 C 329.636719 521.820312 313.835938 545.496094 313.835938 592.054688 C 313.835938 595.015625 311.421875 597.429688 308.457031 597.429688 C 305.496094 597.429688 303.078125 595.015625 303.078125 592.054688 C 303.078125 534.234375 326.820312 507.953125 347.492188 491.503906 C 349.027344 490.304688 351.085938 490.011719 352.890625 490.746094 C 354.699219 491.503906 355.960938 493.164062 356.167969 495.09375 C 357.199219 503.6875 359.152344 511.988281 362.03125 519.949219 C 362.765625 505.832031 365.035156 491.839844 368.773438 478.164062 C 369.132812 476.902344 369.929688 475.808594 371.042969 475.09375 L 374.847656 472.617188 C 384.511719 466.355469 393.628906 460.453125 401.78125 453.496094 C 415.078125 442.109375 424.574219 423.371094 433.734375 405.238281 C 450.1875 372.800781 467.183594 339.269531 507.457031 339.269531 C 571.996094 339.269531 571.996094 404.652344 571.996094 436.082031 C 571.996094 452.109375 566.324219 471 555.085938 492.195312 C 554.558594 493.394531 553.59375 494.382812 552.351562 494.90625 C 538.339844 500.9375 523.824219 505.496094 508.992188 508.542969 C 516.363281 511.460938 524.054688 513.625 531.933594 515.011719 C 533.78125 515.328125 535.292969 516.566406 535.988281 518.289062 C 536.679688 520.011719 536.449219 521.964844 535.378906 523.457031 C 495.101562 578.921875 426.402344 635.078125 373 635.078125 "/><path style=" stroke:none;fill-rule:nonzero;fill:#353f2a;fill-opacity:1;" d="M 276.1875 629.703125 C 275.160156 629.703125 274.128906 629.40625 273.203125 628.796875 C 270.726562 627.136719 270.074219 623.820312 271.714844 621.339844 C 275.851562 615.121094 274.863281 608.753906 273.625 600.667969 C 272.175781 591.253906 270.535156 580.582031 276.753906 568.125 C 278.078125 565.476562 281.3125 564.40625 283.980469 565.726562 C 286.628906 567.050781 287.699219 570.289062 286.378906 572.957031 C 281.671875 582.324219 282.933594 590.433594 284.253906 599.027344 C 285.664062 608.167969 287.113281 617.621094 280.664062 627.304688 C 279.632812 628.859375 277.933594 629.703125 276.1875 629.703125 "/><path style=" stroke:none;fill-rule:nonzero;fill:#353f2a;fill-opacity:1;" d="M 342.386719 664.554688 C 333.039062 664.554688 325.75 661.382812 318.183594 658.0625 C 307.890625 653.566406 297.28125 648.902344 278.226562 651.027344 C 275.304688 651.320312 272.617188 649.21875 272.300781 646.277344 C 271.964844 643.316406 274.085938 640.667969 277.050781 640.332031 C 298.941406 637.894531 311.988281 643.609375 322.492188 648.210938 C 333.164062 652.894531 340.875 656.257812 355.160156 651.488281 C 357.976562 650.542969 361.023438 652.074219 361.96875 654.890625 C 362.914062 657.707031 361.378906 660.753906 358.566406 661.699219 C 352.429688 663.734375 347.136719 664.554688 342.386719 664.554688 "/></g></svg>