<svg xmlns="http://www.w3.org/2000/svg" xmlns:xlink="http://www.w3.org/1999/xlink" width="1080" zoomAndPan="magnify" viewBox="0 0 810 1012.49997" height="1350" preserveAspectRatio="xMidYMid meet" version="1.0"><defs><clipPath id="41bbd97d39"><path d="M 358 312.578125 L 455 312.578125 L 455 409 L 358 409 Z M 358 312.578125 " clip-rule="nonzero"/></clipPath><clipPath id="fa022795b9"><path d="M 190.183594 538 L 619.625 538 L 619.625 699.386719 L 190.183594 699.386719 Z M 190.183594 538 " clip-rule="nonzero"/></clipPath></defs><g clip-path="url(#41bbd97d39)"><path fill="#422b1c" d="M 406.457031 312.578125 C 380.039062 312.578125 358.546875 334.074219 358.546875 360.492188 C 358.546875 386.914062 380.039062 408.40625 406.457031 408.40625 C 432.875 408.40625 454.367188 386.914062 454.367188 360.492188 C 454.367188 334.074219 432.875 312.578125 406.457031 312.578125 " fill-opacity="1" fill-rule="nonzero"/></g><path fill="#422b1c" d="M 504.363281 356.222656 C 482.019531 356.222656 463.839844 374.398438 463.839844 396.746094 C 463.839844 419.085938 482.019531 437.261719 504.363281 437.261719 C 526.703125 437.261719 544.878906 419.085938 544.878906 396.746094 C 544.878906 374.398438 526.703125 356.222656 504.363281 356.222656 " fill-opacity="1" fill-rule="nonzero"/><path fill="#422b1c" d="M 307.179688 356.222656 C 284.839844 356.222656 266.664062 374.398438 266.664062 396.746094 C 266.664062 419.085938 284.839844 437.261719 307.179688 437.261719 C 329.523438 437.261719 347.703125 419.085938 347.703125 396.746094 C 347.703125 374.398438 329.523438 356.222656 307.179688 356.222656 " fill-opacity="1" fill-rule="nonzero"/><g clip-path="url(#fa022795b9)"><path fill="#422b1c" d="M 618.628906 591.609375 C 612.621094 572.007812 590.679688 565.316406 571.402344 570.925781 L 496.46875 593.632812 C 494.519531 594.222656 493.75 596.535156 494.902344 598.210938 C 501.273438 607.472656 503.414062 619.816406 499.140625 631.261719 C 492.234375 649.753906 471.609375 659.101562 453.558594 652.359375 L 379.90625 624.855469 C 378.289062 624.253906 377.519531 622.410156 378.214844 620.835938 C 378.855469 619.386719 380.519531 618.683594 382.003906 619.242188 L 454.601562 646.351562 C 470.109375 652.140625 487.621094 644.460938 493.355469 628.933594 C 499.621094 611.960938 489.984375 595.75 473.011719 589.414062 L 353.042969 544.613281 C 335.851562 537.457031 317.121094 536.484375 298.40625 543.257812 L 226.269531 568.996094 C 204.078125 576.914062 189.519531 598.226562 190.207031 621.78125 C 191.269531 658.226562 227.230469 683.371094 261.785156 671.738281 C 276.785156 666.6875 290.761719 663.007812 299.492188 663.078125 C 337.726562 663.371094 386.707031 690.746094 403.449219 696.632812 C 413.960938 700.328125 420.621094 700.347656 430.121094 696.707031 C 433.46875 695.421875 436.820312 694.140625 440.257812 693.125 C 440.355469 693.097656 440.453125 693.066406 440.542969 693.027344 L 591.324219 630.378906 C 591.421875 630.339844 591.519531 630.304688 591.613281 630.277344 C 610.808594 624.628906 623.941406 608.925781 618.628906 591.609375 " fill-opacity="1" fill-rule="nonzero"/></g><path fill="#422b1c" d="M 546.257812 466.898438 C 535.070312 455.707031 520.1875 449.542969 504.363281 449.542969 C 491.949219 449.542969 480 453.398438 470.023438 460.507812 C 466.621094 453.496094 462.039062 447.03125 456.371094 441.359375 C 443.039062 428.03125 425.3125 420.6875 406.457031 420.6875 C 387.601562 420.6875 369.875 428.03125 356.539062 441.359375 C 350.671875 447.230469 345.96875 453.949219 342.539062 461.242188 C 332.367188 453.65625 320.070312 449.542969 307.179688 449.542969 C 291.355469 449.542969 276.476562 455.707031 265.285156 466.898438 C 254.09375 478.089844 247.933594 492.96875 247.933594 508.792969 L 247.933594 538.140625 C 247.933594 543.546875 248.652344 548.839844 250.042969 553.914062 L 299.183594 536.382812 C 310.691406 532.214844 322.207031 530.984375 333.371094 532.320312 L 333.371094 505.496094 C 333.371094 497.125 334.785156 488.929688 337.566406 481.148438 C 338.324219 479.027344 340.652344 477.929688 342.765625 478.683594 C 344.882812 479.441406 345.980469 481.769531 345.226562 483.882812 C 342.757812 490.792969 341.507812 498.0625 341.507812 505.496094 L 341.507812 533.753906 C 345.679688 534.730469 349.792969 536.0625 353.820312 537.734375 L 456.851562 576.214844 C 456.851562 576.214844 458.167969 576.742188 460.175781 577.554688 C 466.835938 567.214844 470.332031 555.328125 470.332031 542.816406 L 470.332031 505.496094 C 470.332031 497.648438 468.9375 489.988281 466.1875 482.730469 C 465.390625 480.628906 466.449219 478.28125 468.550781 477.484375 C 470.652344 476.691406 473 477.75 473.796875 479.847656 C 476.894531 488.03125 478.464844 496.660156 478.464844 505.496094 L 478.464844 542.816406 C 478.464844 551.152344 477.0625 559.316406 474.300781 567.097656 C 472.617188 571.839844 470.453125 576.367188 467.835938 580.644531 C 473.644531 582.996094 479.820312 585.523438 481.011719 586.101562 C 487.652344 589.324219 495.296875 587.347656 497.246094 586.757812 L 554.761719 569.328125 C 560.527344 560.050781 563.617188 549.332031 563.617188 538.140625 L 563.617188 508.796875 C 563.617188 492.96875 557.449219 478.089844 546.257812 466.898438 " fill-opacity="1" fill-rule="nonzero"/></svg>