<svg xmlns="http://www.w3.org/2000/svg" xmlns:xlink="http://www.w3.org/1999/xlink" width="1080" zoomAndPan="magnify" viewBox="0 0 810 1012.49997" height="1350" preserveAspectRatio="xMidYMid meet" version="1.2"><defs><clipPath id="b5866b4589"><path d="M 0.199219 0 L 108 0 L 108 17 L 0.199219 17 Z M 0.199219 0 "/></clipPath><clipPath id="cc8761144c"><path d="M -198.101562 16.757812 L 107.367188 16.796875 L 107.375 -29.351562 C 107.375 -50.816406 89.980469 -68.226562 68.507812 -68.226562 L -198.089844 -68.257812 Z M -198.101562 16.757812 "/></clipPath><linearGradient x1="330.012643" gradientTransform="matrix(0.626876,0,0,0.626915,-206.677149,-164.571065)" y1="221.464" x2="500.980002" gradientUnits="userSpaceOnUse" y2="221.464" id="19043a772d"><stop style="stop-color:#587f26;stop-opacity:1;" offset="0"/><stop style="stop-color:#577e26;stop-opacity:1;" offset="0.03125"/><stop style="stop-color:#577d26;stop-opacity:1;" offset="0.0625"/><stop style="stop-color:#567c26;stop-opacity:1;" offset="0.09375"/><stop style="stop-color:#557b26;stop-opacity:1;" offset="0.125"/><stop style="stop-color:#557a26;stop-opacity:1;" offset="0.15625"/><stop style="stop-color:#547926;stop-opacity:1;" offset="0.1875"/><stop style="stop-color:#537826;stop-opacity:1;" offset="0.21875"/><stop style="stop-color:#537726;stop-opacity:1;" offset="0.25"/><stop style="stop-color:#527726;stop-opacity:1;" offset="0.28125"/><stop style="stop-color:#517626;stop-opacity:1;" offset="0.3125"/><stop style="stop-color:#517526;stop-opacity:1;" offset="0.34375"/><stop style="stop-color:#507426;stop-opacity:1;" offset="0.375"/><stop style="stop-color:#4f7326;stop-opacity:1;" offset="0.40625"/><stop style="stop-color:#4f7226;stop-opacity:1;" offset="0.4375"/><stop style="stop-color:#4e7126;stop-opacity:1;" offset="0.46875"/><stop style="stop-color:#4d7026;stop-opacity:1;" offset="0.5"/><stop style="stop-color:#4d6f26;stop-opacity:1;" offset="0.53125"/><stop style="stop-color:#4c6e26;stop-opacity:1;" offset="0.5625"/><stop style="stop-color:#4b6d26;stop-opacity:1;" offset="0.59375"/><stop style="stop-color:#4b6c26;stop-opacity:1;" offset="0.625"/><stop style="stop-color:#4a6b26;stop-opacity:1;" offset="0.65625"/><stop style="stop-color:#496a26;stop-opacity:1;" offset="0.6875"/><stop style="stop-color:#486926;stop-opacity:1;" offset="0.71875"/><stop style="stop-color:#486826;stop-opacity:1;" offset="0.75"/><stop style="stop-color:#476726;stop-opacity:1;" offset="0.78125"/><stop style="stop-color:#466626;stop-opacity:1;" offset="0.8125"/><stop style="stop-color:#466526;stop-opacity:1;" offset="0.84375"/><stop style="stop-color:#456426;stop-opacity:1;" offset="0.875"/><stop style="stop-color:#446326;stop-opacity:1;" offset="0.90625"/><stop style="stop-color:#446226;stop-opacity:1;" offset="0.9375"/><stop style="stop-color:#436126;stop-opacity:1;" offset="0.96875"/><stop style="stop-color:#426026;stop-opacity:1;" offset="1"/></linearGradient><filter x="0%" y="0%" width="100%" filterUnits="objectBoundingBox" id="85e061cddb" height="100%"><feColorMatrix values="0 0 0 0 1 0 0 0 0 1 0 0 0 0 1 0 0 0 1 0" type="matrix" in="SourceGraphic"/></filter><clipPath id="e3232785b0"><rect x="0" width="410" y="0" height="423"/></clipPath></defs><g id="2ef7e827d3"><g clip-rule="nonzero" clip-path="url(#b5866b4589)"><g clip-rule="nonzero" clip-path="url(#cc8761144c)"><path style=" stroke:none;fill-rule:nonzero;fill:url(#19043a772d);" d="M 0.199219 0 L 0.199219 16.796875 L 107.375 16.796875 L 107.375 0 Z M 0.199219 0 "/></g></g><g mask="url(#f6ed31ac69)" transform="matrix(1,0,0,1,200,295)"><g clip-path="url(#e3232785b0)"><path style=" stroke:none;fill-rule:nonzero;fill:#000000;fill-opacity:1;" d="M 394.328125 180.765625 C 394.214844 179.863281 394.011719 178.980469 393.71875 178.117188 C 393.425781 177.257812 393.050781 176.429688 392.59375 175.644531 C 392.136719 174.859375 391.605469 174.125 391 173.445312 C 390.394531 172.765625 389.726562 172.152344 388.996094 171.605469 C 388.269531 171.058594 387.492188 170.589844 386.667969 170.199219 C 385.847656 169.8125 384.992188 169.507812 384.109375 169.289062 C 383.222656 169.070312 382.328125 168.941406 381.417969 168.902344 C 380.507812 168.863281 379.601562 168.917969 378.703125 169.058594 C 377.804688 169.203125 376.925781 169.433594 376.074219 169.753906 C 375.222656 170.074219 374.410156 170.476562 373.636719 170.957031 C 372.863281 171.441406 372.148438 171.996094 371.488281 172.621094 C 370.828125 173.25 370.234375 173.933594 369.710938 174.679688 C 369.1875 175.425781 368.746094 176.214844 368.382812 177.050781 C 368.019531 177.886719 367.742188 178.75 367.550781 179.640625 C 367.359375 180.527344 367.261719 181.429688 367.253906 182.339844 C 367.242188 183.25 367.324219 184.152344 367.496094 185.046875 C 368.855469 193.628906 369.535156 202.265625 369.535156 210.957031 C 369.535156 213.625 369.46875 216.292969 369.339844 218.957031 C 369.207031 221.621094 369.011719 224.28125 368.75 226.9375 C 368.488281 229.59375 368.160156 232.238281 367.769531 234.878906 C 367.378906 237.519531 366.921875 240.148438 366.402344 242.765625 C 365.878906 245.382812 365.296875 247.984375 364.648438 250.570312 C 364 253.160156 363.285156 255.730469 362.511719 258.285156 C 361.738281 260.839844 360.898438 263.371094 360 265.882812 C 359.101562 268.394531 358.140625 270.882812 357.117188 273.347656 C 356.097656 275.816406 355.015625 278.253906 353.875 280.664062 C 352.734375 283.078125 351.53125 285.460938 350.273438 287.8125 C 349.015625 290.167969 347.699219 292.488281 346.328125 294.777344 C 344.957031 297.066406 343.527344 299.316406 342.046875 301.535156 C 340.5625 303.753906 339.023438 305.9375 337.433594 308.078125 C 335.84375 310.222656 334.203125 312.324219 332.507812 314.386719 C 330.816406 316.449219 329.074219 318.472656 327.28125 320.449219 C 325.488281 322.425781 323.648438 324.355469 321.757812 326.242188 C 319.871094 328.128906 317.9375 329.96875 315.960938 331.761719 C 313.984375 333.554688 311.960938 335.296875 309.898438 336.988281 C 307.835938 338.679688 305.730469 340.324219 303.585938 341.910156 C 301.441406 343.5 299.261719 345.039062 297.039062 346.519531 C 294.820312 348.003906 292.566406 349.429688 290.277344 350.800781 C 287.988281 352.171875 285.664062 353.488281 283.308594 354.746094 C 280.957031 356.003906 278.570312 357.203125 276.160156 358.34375 C 273.746094 359.484375 271.304688 360.566406 268.839844 361.585938 C 266.371094 362.609375 263.882812 363.566406 261.371094 364.464844 C 258.855469 365.367188 256.320312 366.203125 253.765625 366.976562 C 251.210938 367.75 248.640625 368.460938 246.050781 369.109375 C 243.460938 369.757812 240.859375 370.34375 238.238281 370.863281 C 235.621094 371.386719 232.992188 371.839844 230.351562 372.234375 C 227.710938 372.625 225.0625 372.949219 222.40625 373.210938 C 219.75 373.472656 217.085938 373.667969 214.421875 373.800781 C 211.753906 373.933594 209.085938 373.996094 206.417969 373.996094 C 203.746094 373.996094 201.078125 373.933594 198.414062 373.800781 C 195.746094 373.667969 193.085938 373.472656 190.429688 373.210938 C 187.769531 372.949219 185.121094 372.625 182.480469 372.230469 C 179.839844 371.839844 177.210938 371.386719 174.59375 370.863281 C 171.976562 370.34375 169.371094 369.757812 166.78125 369.109375 C 164.191406 368.460938 161.621094 367.75 159.066406 366.976562 C 156.511719 366.203125 153.976562 365.367188 151.464844 364.464844 C 148.949219 363.566406 146.460938 362.609375 143.992188 361.585938 C 141.527344 360.566406 139.085938 359.484375 136.671875 358.34375 C 134.261719 357.203125 131.875 356.003906 129.523438 354.746094 C 127.167969 353.488281 124.847656 352.171875 122.554688 350.800781 C 120.265625 349.429688 118.011719 348.003906 115.792969 346.519531 C 113.574219 345.039062 111.390625 343.5 109.246094 341.910156 C 107.101562 340.324219 104.996094 338.679688 102.933594 336.988281 C 100.871094 335.296875 98.851562 333.554688 96.871094 331.761719 C 94.894531 329.96875 92.960938 328.128906 91.074219 326.242188 C 89.1875 324.355469 87.34375 322.425781 85.554688 320.449219 C 83.761719 318.472656 82.015625 316.449219 80.324219 314.386719 C 78.628906 312.324219 76.988281 310.222656 75.398438 308.078125 C 73.808594 305.9375 72.269531 303.753906 70.789062 301.535156 C 69.304688 299.316406 67.875 297.066406 66.503906 294.777344 C 65.132812 292.488281 63.816406 290.167969 62.558594 287.8125 C 61.300781 285.460938 60.097656 283.078125 58.957031 280.664062 C 57.816406 278.253906 56.734375 275.816406 55.714844 273.347656 C 54.691406 270.882812 53.730469 268.394531 52.832031 265.882812 C 51.933594 263.371094 51.09375 260.839844 50.320312 258.285156 C 49.546875 255.730469 48.835938 253.160156 48.183594 250.570312 C 47.535156 247.984375 46.953125 245.382812 46.429688 242.765625 C 45.910156 240.148438 45.453125 237.519531 45.0625 234.878906 C 44.671875 232.238281 44.34375 229.59375 44.082031 226.9375 C 43.820312 224.28125 43.625 221.621094 43.492188 218.957031 C 43.363281 216.292969 43.296875 213.625 43.296875 210.957031 C 43.296875 208.289062 43.363281 205.621094 43.492188 202.957031 C 43.625 200.292969 43.820312 197.632812 44.082031 194.976562 C 44.34375 192.320312 44.671875 189.671875 45.0625 187.035156 C 45.453125 184.394531 45.910156 181.765625 46.429688 179.148438 C 46.953125 176.53125 47.535156 173.929688 48.183594 171.339844 C 48.832031 168.753906 49.546875 166.179688 50.320312 163.628906 C 51.09375 161.074219 51.933594 158.542969 52.832031 156.03125 C 53.730469 153.515625 54.691406 151.027344 55.714844 148.5625 C 56.734375 146.097656 57.816406 143.660156 58.957031 141.246094 C 60.097656 138.835938 61.300781 136.453125 62.558594 134.097656 C 63.816406 131.746094 65.132812 129.425781 66.503906 127.136719 C 67.875 124.847656 69.304688 122.59375 70.789062 120.375 C 72.269531 118.15625 73.808594 115.976562 75.398438 113.832031 C 76.988281 111.691406 78.628906 109.585938 80.324219 107.523438 C 82.015625 105.460938 83.761719 103.441406 85.554688 101.464844 C 87.34375 99.488281 89.1875 97.554688 91.074219 95.667969 C 92.960938 93.78125 94.894531 91.941406 96.871094 90.152344 C 98.851562 88.359375 100.871094 86.617188 102.933594 84.925781 C 104.996094 83.230469 107.101562 81.589844 109.246094 80 C 111.390625 78.410156 113.574219 76.875 115.792969 75.394531 C 118.011719 73.910156 120.265625 72.484375 122.554688 71.113281 C 124.847656 69.738281 127.167969 68.425781 129.523438 67.167969 C 131.875 65.910156 134.261719 64.710938 136.671875 63.570312 C 139.085938 62.429688 141.527344 61.347656 143.992188 60.328125 C 146.460938 59.304688 148.949219 58.34375 151.464844 57.445312 C 153.976562 56.546875 156.511719 55.710938 159.066406 54.9375 C 161.621094 54.160156 164.191406 53.449219 166.78125 52.800781 C 169.371094 52.152344 171.976562 51.570312 174.59375 51.046875 C 177.210938 50.527344 179.839844 50.070312 182.480469 49.679688 C 185.121094 49.289062 187.769531 48.960938 190.429688 48.699219 C 193.085938 48.4375 195.746094 48.242188 198.414062 48.113281 C 201.078125 47.980469 203.746094 47.914062 206.417969 47.914062 C 212.910156 47.894531 219.386719 48.265625 225.835938 49.027344 C 232.285156 49.785156 238.667969 50.933594 244.980469 52.460938 C 251.292969 53.992188 257.488281 55.898438 263.574219 58.175781 C 269.65625 60.453125 275.578125 63.089844 281.34375 66.082031 C 282.132812 66.464844 282.949219 66.765625 283.796875 66.988281 C 284.644531 67.214844 285.507812 67.351562 286.382812 67.410156 C 287.257812 67.46875 288.128906 67.441406 289 67.328125 C 289.871094 67.214844 290.722656 67.023438 291.554688 66.746094 C 292.386719 66.46875 293.183594 66.117188 293.945312 65.683594 C 294.710938 65.253906 295.425781 64.753906 296.09375 64.183594 C 296.761719 63.617188 297.367188 62.988281 297.910156 62.300781 C 298.457031 61.613281 298.929688 60.882812 299.335938 60.105469 C 299.738281 59.328125 300.0625 58.515625 300.308594 57.675781 C 300.558594 56.835938 300.722656 55.976562 300.800781 55.105469 C 300.882812 54.230469 300.878906 53.359375 300.789062 52.488281 C 300.703125 51.613281 300.53125 50.757812 300.277344 49.921875 C 300.023438 49.082031 299.691406 48.273438 299.28125 47.5 C 298.871094 46.726562 298.390625 45.996094 297.839844 45.316406 C 297.289062 44.632812 296.679688 44.011719 296.007812 43.445312 C 295.335938 42.882812 294.617188 42.390625 293.847656 41.964844 C 290.710938 40.34375 287.53125 38.8125 284.304688 37.367188 C 281.082031 35.925781 277.820312 34.574219 274.523438 33.3125 C 271.222656 32.050781 267.894531 30.882812 264.527344 29.804688 C 261.164062 28.730469 257.773438 27.746094 254.355469 26.859375 C 250.9375 25.972656 247.496094 25.179688 244.03125 24.484375 C 240.570312 23.789062 237.089844 23.191406 233.59375 22.691406 C 230.097656 22.1875 226.589844 21.785156 223.070312 21.476562 C 219.550781 21.171875 216.027344 20.960938 212.496094 20.851562 C 208.96875 20.742188 205.4375 20.730469 201.90625 20.816406 C 198.375 20.902344 194.847656 21.089844 191.328125 21.371094 C 187.808594 21.652344 184.296875 22.035156 180.796875 22.511719 C 177.296875 22.992188 173.816406 23.566406 170.347656 24.238281 C 166.878906 24.910156 163.433594 25.679688 160.007812 26.542969 C 156.585938 27.410156 153.1875 28.367188 149.816406 29.421875 C 146.445312 30.476562 143.105469 31.621094 139.796875 32.863281 C 136.492188 34.101562 133.222656 35.433594 129.988281 36.851562 C 126.753906 38.273438 123.566406 39.785156 120.414062 41.386719 C 117.265625 42.984375 114.164062 44.671875 111.109375 46.441406 C 108.054688 48.214844 105.050781 50.070312 102.101562 52.011719 C 99.148438 53.949219 96.253906 55.96875 93.417969 58.070312 C 90.578125 60.171875 87.800781 62.347656 85.082031 64.605469 C 82.363281 66.859375 79.710938 69.1875 77.125 71.59375 C 74.539062 73.996094 72.019531 76.46875 69.570312 79.011719 C 67.121094 81.554688 64.742188 84.164062 62.4375 86.839844 C 60.136719 89.515625 57.90625 92.253906 55.757812 95.054688 C 53.605469 97.855469 51.53125 100.710938 49.539062 103.628906 C 47.546875 106.542969 45.640625 109.511719 43.8125 112.53125 C 41.984375 115.554688 40.246094 118.625 38.589844 121.742188 C 36.933594 124.863281 35.367188 128.023438 33.886719 131.230469 C 32.410156 134.433594 31.019531 137.679688 29.722656 140.964844 C 28.421875 144.246094 27.21875 147.5625 26.105469 150.914062 C 24.992188 154.265625 23.972656 157.644531 23.046875 161.050781 C 22.121094 164.457031 21.292969 167.886719 20.558594 171.339844 C 19.824219 174.792969 19.1875 178.265625 18.648438 181.753906 C 18.105469 185.242188 17.664062 188.742188 17.320312 192.257812 C 16.972656 195.769531 16.726562 199.292969 16.578125 202.816406 C 16.429688 206.34375 16.378906 209.875 16.425781 213.402344 C 16.476562 216.933594 16.621094 220.460938 16.867188 223.980469 C 17.109375 227.503906 17.453125 231.015625 17.894531 234.519531 C 18.332031 238.023438 18.871094 241.511719 19.507812 244.984375 C 20.140625 248.457031 20.871094 251.90625 21.699219 255.339844 C 22.527344 258.773438 23.449219 262.179688 24.464844 265.558594 C 25.484375 268.941406 26.59375 272.289062 27.796875 275.609375 C 29 278.929688 30.296875 282.210938 31.683594 285.457031 C 33.070312 288.703125 34.546875 291.910156 36.113281 295.074219 C 37.679688 298.238281 39.332031 301.359375 41.070312 304.429688 C 42.808594 307.503906 44.632812 310.523438 46.542969 313.496094 C 48.449219 316.46875 50.4375 319.382812 52.507812 322.242188 C 54.578125 325.101562 56.726562 327.902344 58.953125 330.644531 C 61.179688 333.382812 63.484375 336.058594 65.859375 338.671875 C 68.234375 341.285156 70.679688 343.828125 73.199219 346.304688 C 75.714844 348.78125 78.300781 351.183594 80.953125 353.515625 C 83.605469 355.847656 86.320312 358.105469 89.097656 360.285156 C 91.875 362.46875 94.710938 364.570312 97.605469 366.59375 C 100.5 368.617188 103.449219 370.554688 106.453125 372.414062 C 109.453125 374.273438 112.507812 376.046875 115.609375 377.734375 C 118.710938 379.425781 121.855469 381.027344 125.046875 382.539062 C 128.238281 384.050781 131.46875 385.476562 134.738281 386.808594 C 138.011719 388.144531 141.316406 389.382812 144.65625 390.535156 C 147.996094 391.683594 151.363281 392.738281 154.761719 393.699219 C 158.160156 394.664062 161.582031 395.527344 165.03125 396.300781 C 168.476562 397.070312 171.941406 397.746094 175.425781 398.324219 C 178.910156 398.902344 182.410156 399.382812 185.921875 399.765625 C 189.429688 400.148438 192.949219 400.433594 196.476562 400.621094 C 200.003906 400.808594 203.535156 400.898438 207.066406 400.890625 C 210.597656 400.878906 214.128906 400.773438 217.652344 400.566406 C 221.179688 400.359375 224.695312 400.058594 228.207031 399.65625 C 231.714844 399.253906 235.210938 398.753906 238.691406 398.15625 C 242.171875 397.5625 245.636719 396.867188 249.078125 396.078125 C 252.519531 395.289062 255.9375 394.40625 259.332031 393.425781 C 262.726562 392.445312 266.089844 391.375 269.421875 390.207031 C 272.753906 389.039062 276.054688 387.78125 279.316406 386.429688 C 282.582031 385.078125 285.804688 383.640625 288.988281 382.109375 C 292.171875 380.578125 295.308594 378.960938 298.402344 377.253906 C 301.492188 375.550781 304.535156 373.761719 307.53125 371.886719 C 310.523438 370.011719 313.460938 368.054688 316.34375 366.019531 C 319.230469 363.980469 322.054688 361.863281 324.820312 359.667969 C 327.585938 357.472656 330.289062 355.203125 332.929688 352.855469 C 335.566406 350.507812 338.140625 348.089844 340.644531 345.601562 C 343.148438 343.113281 345.582031 340.554688 347.945312 337.929688 C 350.308594 335.308594 352.59375 332.617188 354.804688 329.867188 C 357.019531 327.113281 359.152344 324.300781 361.207031 321.429688 C 363.261719 318.558594 365.238281 315.632812 367.128906 312.652344 C 369.023438 309.671875 370.828125 306.640625 372.554688 303.558594 C 374.277344 300.476562 375.914062 297.351562 377.460938 294.179688 C 379.011719 291.003906 380.46875 287.792969 381.839844 284.539062 C 383.210938 281.285156 384.488281 277.996094 385.675781 274.667969 C 386.859375 271.34375 387.953125 267.988281 388.953125 264.601562 C 389.953125 261.214844 390.855469 257.804688 391.664062 254.367188 C 392.476562 250.929688 393.1875 247.476562 393.804688 244 C 394.421875 240.523438 394.941406 237.03125 395.363281 233.527344 C 395.785156 230.023438 396.105469 226.507812 396.332031 222.984375 C 396.558594 219.460938 396.6875 215.933594 396.714844 212.40625 C 396.746094 208.875 396.675781 205.347656 396.507812 201.820312 C 396.34375 198.292969 396.078125 194.773438 395.714844 191.261719 C 395.347656 187.75 394.886719 184.253906 394.328125 180.765625 Z M 394.328125 180.765625 "/><path style=" stroke:none;fill-rule:nonzero;fill:#000000;fill-opacity:1;" d="M 127.671875 167.382812 C 127.035156 166.769531 126.347656 166.226562 125.605469 165.746094 C 124.863281 165.265625 124.085938 164.863281 123.265625 164.535156 C 122.445312 164.210938 121.601562 163.964844 120.734375 163.800781 C 119.867188 163.640625 118.992188 163.5625 118.109375 163.570312 C 117.226562 163.578125 116.351562 163.671875 115.488281 163.847656 C 114.625 164.027344 113.785156 164.285156 112.96875 164.625 C 112.15625 164.96875 111.382812 165.382812 110.648438 165.875 C 109.917969 166.367188 109.238281 166.925781 108.613281 167.550781 C 107.992188 168.171875 107.433594 168.851562 106.941406 169.582031 C 106.449219 170.316406 106.03125 171.089844 105.691406 171.902344 C 105.347656 172.714844 105.089844 173.554688 104.914062 174.417969 C 104.734375 175.28125 104.640625 176.15625 104.632812 177.039062 C 104.625 177.921875 104.703125 178.796875 104.867188 179.664062 C 105.03125 180.527344 105.273438 181.371094 105.601562 182.191406 C 105.929688 183.011719 106.332031 183.792969 106.8125 184.53125 C 107.289062 185.273438 107.835938 185.960938 108.449219 186.59375 L 190.007812 268.117188 C 190.640625 268.746094 191.328125 269.308594 192.070312 269.804688 C 192.8125 270.300781 193.59375 270.71875 194.417969 271.058594 C 195.242188 271.402344 196.09375 271.660156 196.96875 271.832031 C 197.84375 272.007812 198.726562 272.09375 199.621094 272.09375 C 200.511719 272.09375 201.394531 272.007812 202.269531 271.832031 C 203.144531 271.660156 203.996094 271.402344 204.820312 271.058594 C 205.644531 270.71875 206.429688 270.300781 207.171875 269.804688 C 207.914062 269.308594 208.597656 268.746094 209.230469 268.117188 L 358.757812 118.660156 C 359.40625 118.035156 359.988281 117.351562 360.5 116.609375 C 361.011719 115.867188 361.445312 115.082031 361.800781 114.25 C 362.160156 113.421875 362.429688 112.566406 362.617188 111.683594 C 362.800781 110.800781 362.898438 109.910156 362.90625 109.007812 C 362.914062 108.105469 362.832031 107.210938 362.660156 106.324219 C 362.492188 105.4375 362.234375 104.578125 361.894531 103.742188 C 361.550781 102.910156 361.132812 102.117188 360.632812 101.363281 C 360.132812 100.613281 359.5625 99.917969 358.925781 99.28125 C 358.285156 98.644531 357.59375 98.074219 356.839844 97.574219 C 356.089844 97.074219 355.296875 96.65625 354.460938 96.3125 C 353.625 95.972656 352.765625 95.714844 351.878906 95.546875 C 350.992188 95.375 350.097656 95.292969 349.195312 95.300781 C 348.292969 95.308594 347.398438 95.40625 346.515625 95.59375 C 345.632812 95.777344 344.777344 96.050781 343.949219 96.40625 C 343.117188 96.761719 342.332031 97.195312 341.589844 97.707031 C 340.847656 98.21875 340.164062 98.800781 339.535156 99.449219 L 199.621094 239.296875 Z M 127.671875 167.382812 "/></g><mask id="f6ed31ac69"><g filter="url(#85e061cddb)"><rect x="0" width="810" y="0" height="1012.49997" style="fill:#000000;fill-opacity:0.8;stroke:none;"/></g></mask></g></g></svg>