<svg xmlns="http://www.w3.org/2000/svg" xmlns:xlink="http://www.w3.org/1999/xlink" width="1080" zoomAndPan="magnify" viewBox="0 0 810 1012.49997" height="1350" preserveAspectRatio="xMidYMid meet" version="1.2"><defs><clipPath id="259b55955f"><path d="M 0.199219 0 L 108 0 L 108 17 L 0.199219 17 Z M 0.199219 0 "/></clipPath><clipPath id="e5f6a487e9"><path d="M -198.101562 16.757812 L 107.367188 16.796875 L 107.375 -29.351562 C 107.375 -50.816406 89.980469 -68.226562 68.507812 -68.226562 L -198.089844 -68.257812 Z M -198.101562 16.757812 "/></clipPath><linearGradient x1="330.012643" gradientTransform="matrix(0.626876,0,0,0.626915,-206.677149,-164.571065)" y1="221.464" x2="500.980002" gradientUnits="userSpaceOnUse" y2="221.464" id="9715226f92"><stop style="stop-color:#587f26;stop-opacity:1;" offset="0"/><stop style="stop-color:#577e26;stop-opacity:1;" offset="0.03125"/><stop style="stop-color:#577d26;stop-opacity:1;" offset="0.0625"/><stop style="stop-color:#567c26;stop-opacity:1;" offset="0.09375"/><stop style="stop-color:#557b26;stop-opacity:1;" offset="0.125"/><stop style="stop-color:#557a26;stop-opacity:1;" offset="0.15625"/><stop style="stop-color:#547926;stop-opacity:1;" offset="0.1875"/><stop style="stop-color:#537826;stop-opacity:1;" offset="0.21875"/><stop style="stop-color:#537726;stop-opacity:1;" offset="0.25"/><stop style="stop-color:#527726;stop-opacity:1;" offset="0.28125"/><stop style="stop-color:#517626;stop-opacity:1;" offset="0.3125"/><stop style="stop-color:#517526;stop-opacity:1;" offset="0.34375"/><stop style="stop-color:#507426;stop-opacity:1;" offset="0.375"/><stop style="stop-color:#4f7326;stop-opacity:1;" offset="0.40625"/><stop style="stop-color:#4f7226;stop-opacity:1;" offset="0.4375"/><stop style="stop-color:#4e7126;stop-opacity:1;" offset="0.46875"/><stop style="stop-color:#4d7026;stop-opacity:1;" offset="0.5"/><stop style="stop-color:#4d6f26;stop-opacity:1;" offset="0.53125"/><stop style="stop-color:#4c6e26;stop-opacity:1;" offset="0.5625"/><stop style="stop-color:#4b6d26;stop-opacity:1;" offset="0.59375"/><stop style="stop-color:#4b6c26;stop-opacity:1;" offset="0.625"/><stop style="stop-color:#4a6b26;stop-opacity:1;" offset="0.65625"/><stop style="stop-color:#496a26;stop-opacity:1;" offset="0.6875"/><stop style="stop-color:#486926;stop-opacity:1;" offset="0.71875"/><stop style="stop-color:#486826;stop-opacity:1;" offset="0.75"/><stop style="stop-color:#476726;stop-opacity:1;" offset="0.78125"/><stop style="stop-color:#466626;stop-opacity:1;" offset="0.8125"/><stop style="stop-color:#466526;stop-opacity:1;" offset="0.84375"/><stop style="stop-color:#456426;stop-opacity:1;" offset="0.875"/><stop style="stop-color:#446326;stop-opacity:1;" offset="0.90625"/><stop style="stop-color:#446226;stop-opacity:1;" offset="0.9375"/><stop style="stop-color:#436126;stop-opacity:1;" offset="0.96875"/><stop style="stop-color:#426026;stop-opacity:1;" offset="1"/></linearGradient><clipPath id="02f5b151a7"><path d="M 233 347.429688 L 576 347.429688 L 576 664.523438 L 233 664.523438 Z M 233 347.429688 "/></clipPath></defs><g id="22d403e7d0"><g clip-rule="nonzero" clip-path="url(#259b55955f)"><g clip-rule="nonzero" clip-path="url(#e5f6a487e9)"><path style=" stroke:none;fill-rule:nonzero;fill:url(#9715226f92);" d="M 0.199219 0 L 0.199219 16.796875 L 107.375 16.796875 L 107.375 0 Z M 0.199219 0 "/></g></g><g clip-rule="nonzero" clip-path="url(#02f5b151a7)"><path style=" stroke:none;fill-rule:nonzero;fill:#353f2a;fill-opacity:1;" d="M 571.800781 530.386719 C 568.546875 524.953125 555.199219 508.832031 519.960938 529.355469 L 457.828125 565.542969 C 454.710938 567.359375 451.542969 568.640625 448.238281 569.40625 C 449.460938 567.441406 450.421875 565.21875 451.082031 562.757812 C 454.257812 550.902344 447.210938 538.527344 435.039062 534.582031 C 434.804688 534.503906 434.5625 534.445312 434.320312 534.398438 C 416.460938 531.179688 398.835938 524.804688 384.671875 519.683594 C 379.753906 517.90625 375.105469 516.226562 371.15625 514.945312 C 355.246094 509.789062 340.867188 516.175781 328.898438 523.105469 L 282.675781 549.867188 L 278.316406 542.167969 C 274.332031 535.132812 265.371094 532.644531 258.335938 536.628906 L 240.902344 546.496094 C 233.867188 550.476562 231.382812 559.441406 235.363281 566.476562 L 286.617188 657.035156 C 288.539062 660.4375 291.679688 662.882812 295.460938 663.933594 C 296.769531 664.292969 298.097656 664.472656 299.417969 664.472656 C 301.910156 664.472656 304.371094 663.832031 306.597656 662.574219 L 324.027344 652.707031 C 331.066406 648.726562 333.550781 639.761719 329.566406 632.726562 L 324.285156 623.390625 L 334.820312 617.304688 L 414.398438 638.628906 C 418.894531 639.835938 423.304688 640.433594 427.625 640.433594 C 436.230469 640.433594 444.457031 638.042969 452.203125 633.277344 L 564.957031 563.847656 C 575.238281 557.519531 578.5 541.570312 571.800781 530.386719 Z M 320.300781 640.917969 C 320.039062 641.859375 319.4375 642.640625 318.597656 643.113281 L 301.167969 652.980469 C 299.449219 653.949219 297.183594 653.320312 296.214844 651.605469 L 244.960938 561.042969 C 243.988281 559.332031 244.617188 557.0625 246.332031 556.089844 L 263.765625 546.226562 C 264.3125 545.914062 264.917969 545.769531 265.519531 545.769531 C 266.796875 545.769531 268.058594 546.433594 268.71875 547.597656 L 319.972656 638.15625 C 320.445312 638.996094 320.5625 639.972656 320.300781 640.917969 Z M 559.175781 554.457031 L 446.421875 623.886719 C 437.480469 629.394531 427.667969 630.769531 417.253906 627.980469 L 335.46875 606.066406 C 334.058594 605.6875 332.554688 605.882812 331.285156 606.617188 L 318.855469 613.792969 L 288.105469 559.464844 L 334.425781 532.648438 C 344.789062 526.648438 355.996094 521.621094 367.753906 525.433594 C 371.53125 526.660156 375.882812 528.234375 380.925781 530.054688 C 395.375 535.28125 413.332031 541.773438 431.964844 545.179688 C 438.457031 547.445312 442.089844 553.71875 440.429688 559.902344 C 438.25 568.039062 431.472656 569.054688 426.082031 568.433594 C 416.929688 566.550781 408.230469 564.066406 399.027344 561.4375 C 394.664062 560.191406 390.152344 558.902344 385.511719 557.660156 C 382.574219 556.875 379.550781 558.621094 378.761719 561.558594 C 377.972656 564.5 379.71875 567.523438 382.660156 568.3125 C 387.210938 569.53125 391.679688 570.808594 396 572.042969 C 405.484375 574.75 414.441406 577.308594 424.085938 579.28125 C 424.121094 579.289062 424.15625 579.289062 424.191406 579.296875 C 424.230469 579.304688 424.265625 579.316406 424.304688 579.320312 L 432.03125 580.578125 C 443.589844 582.425781 453.84375 580.625 463.375 575.070312 L 525.511719 538.882812 C 543.394531 528.464844 557.164062 527.40625 562.339844 536.050781 C 565.90625 542.007812 564.3125 551.296875 559.175781 554.457031 Z M 268.824219 563.714844 C 269.320312 567.117188 266.96875 570.277344 263.566406 570.773438 C 260.164062 571.273438 257.003906 568.917969 256.507812 565.515625 C 256.007812 562.113281 258.363281 558.953125 261.765625 558.457031 C 265.167969 557.960938 268.328125 560.316406 268.824219 563.714844 Z M 469.070312 531.089844 C 519.710938 531.089844 560.910156 489.890625 560.910156 439.25 C 560.910156 425.246094 557.683594 411.371094 551.566406 398.875 C 558.976562 390.109375 565.367188 382.796875 569.527344 378.59375 C 576.621094 371.4375 576.582031 359.835938 569.445312 352.738281 C 565.988281 349.300781 561.410156 347.414062 556.539062 347.414062 C 556.515625 347.414062 556.492188 347.414062 556.464844 347.414062 C 551.578125 347.433594 546.996094 349.351562 543.558594 352.824219 C 543.457031 352.929688 543.355469 353.039062 543.261719 353.152344 L 529.203125 369.839844 C 512.507812 355.339844 491.378906 347.414062 469.070312 347.414062 C 418.429688 347.414062 377.234375 388.613281 377.234375 439.253906 C 377.234375 489.890625 418.429688 531.089844 469.070312 531.089844 Z M 551.53125 360.449219 C 552.875 359.160156 554.632812 358.449219 556.507812 358.441406 C 556.519531 358.441406 556.527344 358.441406 556.539062 358.441406 C 558.472656 358.441406 560.296875 359.191406 561.667969 360.554688 C 564.503906 363.375 564.515625 367.984375 561.695312 370.832031 C 553.113281 379.492188 536.796875 399.234375 519.515625 420.136719 C 502.632812 440.5625 485.171875 461.683594 476.699219 470.15625 C 473.859375 472.996094 469.234375 473 466.390625 470.15625 L 428.824219 432.589844 C 427.449219 431.214844 426.691406 429.382812 426.691406 427.4375 C 426.691406 425.488281 427.449219 423.660156 428.828125 422.28125 C 430.203125 420.90625 432.03125 420.148438 433.980469 420.148438 C 435.929688 420.148438 437.757812 420.90625 439.136719 422.28125 L 467.617188 450.765625 C 468.710938 451.855469 470.214844 452.449219 471.753906 452.375 C 473.292969 452.308594 474.738281 451.597656 475.734375 450.417969 Z M 469.070312 358.441406 C 488.75 358.441406 507.386719 365.449219 522.097656 378.273438 L 471.167969 438.722656 L 446.933594 414.484375 C 443.472656 411.023438 438.875 409.121094 433.980469 409.121094 C 429.085938 409.121094 424.488281 411.027344 421.027344 414.484375 C 417.570312 417.945312 415.664062 422.542969 415.664062 427.4375 C 415.664062 432.332031 417.570312 436.929688 421.027344 440.390625 L 458.59375 477.953125 C 462.164062 481.523438 466.855469 483.308594 471.546875 483.308594 C 476.234375 483.308594 480.925781 481.523438 484.496094 477.953125 C 493.339844 469.113281 510.96875 447.785156 528.015625 427.160156 C 533.292969 420.78125 538.621094 414.332031 543.703125 408.242188 C 547.757812 418.015625 549.882812 428.589844 549.882812 439.253906 C 549.882812 483.8125 513.628906 520.0625 469.070312 520.0625 C 424.511719 520.0625 388.257812 483.8125 388.257812 439.253906 C 388.257812 394.691406 424.511719 358.441406 469.070312 358.441406 Z M 469.070312 358.441406 "/></g></g></svg>