<svg xmlns="http://www.w3.org/2000/svg" xmlns:xlink="http://www.w3.org/1999/xlink" width="1080" zoomAndPan="magnify" viewBox="0 0 810 1012.49997" height="1350" preserveAspectRatio="xMidYMid meet" version="1.2"><defs><clipPath id="34a08a053b"><path d="M 212.34375 401.109375 L 223.4375 401.109375 L 223.4375 417.289062 L 212.34375 417.289062 Z M 212.34375 401.109375 "/></clipPath><clipPath id="14cc2fc002"><path d="M 0.34375 0.109375 L 11.4375 0.109375 L 11.4375 16.289062 L 0.34375 16.289062 Z M 0.34375 0.109375 "/></clipPath><clipPath id="df5405f95b"><rect x="0" width="12" y="0" height="17"/></clipPath><clipPath id="7d9658cc9a"><path d="M 222 337.484375 L 587 337.484375 L 587 674.816406 L 222 674.816406 Z M 222 337.484375 "/></clipPath><clipPath id="7ad9b466d5"><path d="M 389.355469 386.589844 L 396.378906 386.589844 L 396.378906 393.613281 L 389.355469 393.613281 Z M 389.355469 386.589844 "/></clipPath><clipPath id="90ecff096d"><path d="M 0.355469 0.589844 L 7.378906 0.589844 L 7.378906 7.613281 L 0.355469 7.613281 Z M 0.355469 0.589844 "/></clipPath><clipPath id="7ef162e9b2"><rect x="0" width="8" y="0" height="8"/></clipPath></defs><g id="fd714794b7"><g clip-rule="nonzero" clip-path="url(#34a08a053b)"><g transform="matrix(1,0,0,1,212,401)"><g clip-path="url(#df5405f95b)"><g clip-rule="nonzero" clip-path="url(#14cc2fc002)"><path style=" stroke:none;fill-rule:nonzero;fill:#ffffff;fill-opacity:1;" d="M 0.34375 0.109375 L 11.4375 0.109375 L 11.4375 16.277344 L 0.34375 16.277344 Z M 0.34375 0.109375 "/></g></g></g></g><g clip-rule="nonzero" clip-path="url(#7d9658cc9a)"><path style=" stroke:none;fill-rule:nonzero;fill:#4c583f;fill-opacity:1;" d="M 582.3125 531.941406 C 578.855469 526.167969 564.667969 509.035156 527.214844 530.847656 L 461.175781 569.3125 C 457.863281 571.238281 454.496094 572.601562 450.980469 573.414062 C 452.285156 571.328125 453.304688 568.964844 454.003906 566.351562 C 457.382812 553.75 449.890625 540.59375 436.957031 536.402344 C 436.703125 536.320312 436.449219 536.257812 436.1875 536.207031 C 417.207031 532.785156 398.472656 526.011719 383.421875 520.570312 C 378.191406 518.679688 373.253906 516.894531 369.054688 515.53125 C 352.148438 510.046875 336.863281 516.835938 324.140625 524.203125 L 275.011719 552.648438 L 270.378906 544.464844 C 266.144531 536.984375 256.617188 534.34375 249.140625 538.578125 L 230.609375 549.0625 C 223.132812 553.296875 220.492188 562.824219 224.722656 570.300781 L 279.199219 666.554688 C 281.246094 670.167969 284.585938 672.769531 288.601562 673.886719 C 289.992188 674.269531 291.402344 674.460938 292.804688 674.460938 C 295.457031 674.460938 298.074219 673.777344 300.4375 672.441406 L 318.964844 661.953125 C 326.445312 657.722656 329.085938 648.195312 324.851562 640.71875 L 319.234375 630.792969 L 330.433594 624.328125 L 415.015625 646.992188 C 419.796875 648.273438 424.484375 648.910156 429.070312 648.910156 C 438.21875 648.910156 446.964844 646.367188 455.195312 641.300781 L 575.042969 567.507812 C 585.96875 560.78125 589.433594 543.828125 582.3125 531.941406 Z M 315.003906 649.421875 C 314.726562 650.421875 314.082031 651.253906 313.195312 651.757812 L 294.664062 662.242188 C 292.839844 663.273438 290.433594 662.605469 289.402344 660.785156 L 234.925781 564.527344 C 233.894531 562.707031 234.5625 560.296875 236.382812 559.261719 L 254.914062 548.777344 C 255.496094 548.449219 256.136719 548.292969 256.777344 548.292969 C 258.136719 548.292969 259.476562 548.996094 260.179688 550.238281 L 314.652344 646.488281 C 315.15625 647.378906 315.28125 648.417969 315.003906 649.421875 Z M 568.898438 557.527344 L 449.050781 631.324219 C 439.546875 637.175781 429.117188 638.636719 418.054688 635.671875 L 331.125 612.378906 C 329.625 611.976562 328.023438 612.1875 326.679688 612.964844 L 313.464844 620.59375 L 280.785156 562.851562 L 330.015625 534.34375 C 341.03125 527.96875 352.945312 522.628906 365.441406 526.679688 C 369.453125 527.980469 374.082031 529.65625 379.4375 531.589844 C 394.796875 537.144531 413.882812 544.042969 433.6875 547.664062 C 440.589844 550.074219 444.445312 556.742188 442.683594 563.316406 C 440.367188 571.960938 433.164062 573.042969 427.433594 572.378906 C 417.707031 570.378906 408.460938 567.742188 398.679688 564.949219 C 394.042969 563.625 389.246094 562.253906 384.316406 560.933594 C 381.191406 560.097656 377.976562 561.949219 377.136719 565.078125 C 376.300781 568.203125 378.15625 571.414062 381.28125 572.253906 C 386.121094 573.550781 390.867188 574.90625 395.460938 576.21875 C 405.542969 579.097656 415.0625 581.816406 425.3125 583.910156 C 425.351562 583.917969 425.386719 583.921875 425.425781 583.929688 C 425.46875 583.9375 425.503906 583.949219 425.546875 583.953125 L 433.757812 585.289062 C 446.042969 587.253906 456.941406 585.339844 467.074219 579.4375 L 533.113281 540.972656 C 552.125 529.902344 566.757812 528.777344 572.257812 537.960938 C 576.050781 544.292969 574.355469 554.167969 568.898438 557.527344 Z M 260.289062 567.367188 C 260.820312 570.984375 258.316406 574.34375 254.699219 574.871094 C 251.085938 575.398438 247.726562 572.898438 247.199219 569.28125 C 246.667969 565.667969 249.171875 562.308594 252.785156 561.777344 C 256.402344 561.25 259.761719 563.753906 260.289062 567.367188 Z M 473.125 532.691406 C 526.949219 532.691406 570.738281 488.902344 570.738281 435.078125 C 570.738281 420.191406 567.308594 405.445312 560.808594 392.160156 C 568.683594 382.847656 575.472656 375.074219 579.898438 370.609375 C 587.4375 363 587.398438 350.671875 579.808594 343.125 C 576.136719 339.472656 571.269531 337.464844 566.09375 337.464844 C 566.066406 337.464844 566.042969 337.464844 566.015625 337.464844 C 560.820312 337.488281 555.949219 339.527344 552.296875 343.21875 C 552.1875 343.328125 552.082031 343.445312 551.980469 343.566406 L 537.039062 361.300781 C 519.292969 345.890625 496.835938 337.46875 473.125 337.46875 C 419.300781 337.46875 375.515625 381.253906 375.515625 435.078125 C 375.515625 488.902344 419.300781 532.691406 473.125 532.691406 Z M 560.769531 351.320312 C 562.199219 349.949219 564.070312 349.195312 566.0625 349.1875 C 566.070312 349.1875 566.082031 349.1875 566.09375 349.1875 C 568.148438 349.1875 570.085938 349.984375 571.542969 351.4375 C 574.558594 354.433594 574.570312 359.332031 571.574219 362.359375 C 562.453125 371.5625 545.109375 392.546875 526.742188 414.761719 C 508.796875 436.472656 490.238281 458.921875 481.234375 467.925781 C 478.214844 470.945312 473.296875 470.945312 470.277344 467.925781 L 430.351562 428 C 428.886719 426.535156 428.082031 424.589844 428.082031 422.519531 C 428.082031 420.449219 428.886719 418.503906 430.351562 417.042969 C 431.8125 415.578125 433.757812 414.773438 435.828125 414.773438 C 437.898438 414.773438 439.84375 415.578125 441.308594 417.042969 L 471.582031 447.316406 C 472.742188 448.476562 474.34375 449.105469 475.976562 449.027344 C 477.613281 448.957031 479.152344 448.203125 480.207031 446.945312 Z M 473.125 349.1875 C 494.042969 349.1875 513.851562 356.636719 529.484375 370.265625 L 475.355469 434.515625 L 449.597656 408.753906 C 445.917969 405.078125 441.03125 403.054688 435.828125 403.054688 C 430.628906 403.054688 425.738281 405.078125 422.0625 408.753906 C 418.386719 412.429688 416.363281 417.320312 416.363281 422.519531 C 416.363281 427.722656 418.386719 432.609375 422.0625 436.289062 L 461.988281 476.214844 C 465.785156 480.007812 470.769531 481.90625 475.757812 481.90625 C 480.742188 481.90625 485.726562 480.007812 489.523438 476.214844 C 498.917969 466.816406 517.65625 444.148438 535.777344 422.230469 C 541.382812 415.445312 547.050781 408.59375 552.449219 402.117188 C 556.757812 412.507812 559.015625 423.746094 559.015625 435.078125 C 559.015625 482.441406 520.484375 520.96875 473.125 520.96875 C 425.765625 520.96875 387.234375 482.441406 387.234375 435.078125 C 387.234375 387.71875 425.765625 349.1875 473.125 349.1875 Z M 473.125 349.1875 "/></g><g clip-rule="nonzero" clip-path="url(#7ad9b466d5)"><g transform="matrix(1,0,0,1,389,386)"><g clip-path="url(#7ef162e9b2)"><g clip-rule="nonzero" clip-path="url(#90ecff096d)"><path style=" stroke:none;fill-rule:nonzero;fill:#4c583f;fill-opacity:1;" d="M 0.355469 0.589844 L 7.378906 0.589844 L 7.378906 7.613281 L 0.355469 7.613281 Z M 0.355469 0.589844 "/></g></g></g></g></g></svg>