<svg xmlns="http://www.w3.org/2000/svg" xmlns:xlink="http://www.w3.org/1999/xlink" width="1080" zoomAndPan="magnify" viewBox="0 0 810 1012.49997" height="1350" preserveAspectRatio="xMidYMid meet" version="1.0"><defs><clipPath id="fe5c3b503a"><path d="M 193.082031 654 L 364 654 L 364 739.074219 L 193.082031 739.074219 Z M 193.082031 654 " clip-rule="nonzero"/></clipPath><clipPath id="78fd7e6bea"><path d="M 193.082031 691 L 269 691 L 269 703 L 193.082031 703 Z M 193.082031 691 " clip-rule="nonzero"/></clipPath><clipPath id="2a62592881"><path d="M 446 272.804688 L 616.625 272.804688 L 616.625 358 L 446 358 Z M 446 272.804688 " clip-rule="nonzero"/></clipPath><clipPath id="d4a25930f0"><path d="M 541 309 L 616.625 309 L 616.625 321 L 541 321 Z M 541 309 " clip-rule="nonzero"/></clipPath><clipPath id="6ff0878683"><path d="M 372.511719 518.425781 L 378.648438 518.425781 L 378.648438 522.570312 L 372.511719 522.570312 Z M 372.511719 518.425781 " clip-rule="nonzero"/></clipPath><clipPath id="a7446ed808"><path d="M 374.585938 518.425781 L 376.5625 518.425781 C 377.707031 518.425781 378.636719 519.351562 378.636719 520.496094 C 378.636719 521.640625 377.707031 522.570312 376.5625 522.570312 L 374.585938 522.570312 C 373.441406 522.570312 372.511719 521.640625 372.511719 520.496094 C 372.511719 519.351562 373.441406 518.425781 374.585938 518.425781 Z M 374.585938 518.425781 " clip-rule="nonzero"/></clipPath><clipPath id="771718383d"><path d="M 0.511719 0.425781 L 6.648438 0.425781 L 6.648438 4.570312 L 0.511719 4.570312 Z M 0.511719 0.425781 " clip-rule="nonzero"/></clipPath><clipPath id="5f1688f821"><path d="M 2.585938 0.425781 L 4.5625 0.425781 C 5.707031 0.425781 6.636719 1.351562 6.636719 2.496094 C 6.636719 3.640625 5.707031 4.570312 4.5625 4.570312 L 2.585938 4.570312 C 1.441406 4.570312 0.511719 3.640625 0.511719 2.496094 C 0.511719 1.351562 1.441406 0.425781 2.585938 0.425781 Z M 2.585938 0.425781 " clip-rule="nonzero"/></clipPath><clipPath id="f84dac2118"><rect x="0" width="7" y="0" height="5"/></clipPath></defs><path fill="#422b1c" d="M 357.800781 589.1875 C 354.613281 589.1875 352.011719 586.617188 351.980469 583.421875 C 351.953125 580.207031 354.53125 577.574219 357.746094 577.546875 L 404.933594 577.085938 C 404.953125 577.085938 404.972656 577.085938 404.992188 577.085938 C 408.179688 577.085938 410.78125 579.65625 410.8125 582.851562 C 410.839844 586.066406 408.261719 588.695312 405.046875 588.726562 L 357.859375 589.1875 C 357.839844 589.1875 357.820312 589.1875 357.800781 589.1875 Z M 251.167969 546.339844 C 247.953125 546.339844 245.347656 543.734375 245.347656 540.519531 L 245.347656 429.082031 C 245.347656 425.867188 247.953125 423.261719 251.167969 423.261719 L 302 423.261719 C 303.8125 423.261719 305.519531 424.105469 306.625 425.542969 C 307.722656 426.980469 308.09375 428.851562 307.621094 430.597656 C 307.136719 432.390625 306.894531 434.25 306.894531 436.121094 C 306.894531 447.804688 316.398438 457.308594 328.078125 457.308594 C 339.761719 457.308594 349.265625 447.804688 349.265625 436.121094 C 349.265625 434.253906 349.019531 432.390625 348.535156 430.59375 C 348.066406 428.847656 348.4375 426.980469 349.539062 425.542969 C 350.636719 424.105469 352.34375 423.261719 354.15625 423.261719 L 404.988281 423.265625 C 408.203125 423.265625 410.808594 425.871094 410.808594 429.085938 C 410.808594 432.300781 408.203125 434.90625 404.988281 434.90625 L 360.882812 434.902344 C 360.894531 435.308594 360.90625 435.714844 360.90625 436.121094 C 360.90625 454.222656 346.179688 468.949219 328.078125 468.949219 C 309.976562 468.949219 295.253906 454.226562 295.253906 436.121094 C 295.253906 435.714844 295.257812 435.308594 295.277344 434.902344 L 256.988281 434.902344 L 256.988281 540.519531 C 256.988281 543.734375 254.378906 546.339844 251.167969 546.339844 Z M 251.167969 546.339844 " fill-opacity="1" fill-rule="nonzero"/><g clip-path="url(#fe5c3b503a)"><path fill="#422b1c" d="M 357.894531 739.015625 L 198.894531 739.015625 C 195.679688 739.015625 193.078125 736.410156 193.078125 733.195312 L 193.078125 660.589844 C 193.078125 657.375 195.679688 654.769531 198.894531 654.769531 L 357.894531 654.769531 C 361.109375 654.769531 363.714844 657.375 363.714844 660.589844 L 363.714844 733.195312 C 363.714844 736.410156 361.109375 739.015625 357.894531 739.015625 Z M 204.714844 727.375 L 352.074219 727.375 L 352.074219 666.410156 L 204.714844 666.410156 Z M 204.714844 727.375 " fill-opacity="1" fill-rule="nonzero"/></g><g clip-path="url(#78fd7e6bea)"><path fill="#422b1c" d="M 262.3125 702.714844 L 198.894531 702.714844 C 195.679688 702.714844 193.078125 700.109375 193.078125 696.894531 C 193.078125 693.679688 195.679688 691.074219 198.894531 691.074219 L 262.3125 691.074219 C 265.527344 691.074219 268.132812 693.679688 268.132812 696.894531 C 268.132812 700.109375 265.527344 702.714844 262.3125 702.714844 Z M 262.3125 702.714844 " fill-opacity="1" fill-rule="nonzero"/></g><path fill="#422b1c" d="M 314.695312 718.335938 C 302.871094 718.335938 293.253906 708.714844 293.253906 696.890625 C 293.253906 685.066406 302.871094 675.445312 314.695312 675.445312 C 326.523438 675.445312 336.140625 685.066406 336.140625 696.890625 C 336.144531 708.71875 326.523438 718.335938 314.695312 718.335938 Z M 314.695312 687.089844 C 309.292969 687.089844 304.894531 691.488281 304.894531 696.894531 C 304.894531 702.300781 309.292969 706.699219 314.695312 706.699219 C 320.101562 706.699219 324.5 702.300781 324.5 696.894531 C 324.503906 691.488281 320.101562 687.089844 314.695312 687.089844 Z M 314.695312 687.089844 " fill-opacity="1" fill-rule="nonzero"/><path fill="#422b1c" d="M 342.488281 666.410156 C 342.011719 666.410156 341.53125 666.355469 341.050781 666.234375 C 337.9375 665.441406 336.050781 662.273438 336.84375 659.160156 L 348.039062 615.066406 C 352.980469 595.601562 352.507812 566.839844 352.089844 541.464844 C 352.003906 536.28125 351.921875 531.300781 351.882812 526.453125 C 334.574219 527.121094 323.191406 530.914062 316.304688 538.246094 C 308.390625 546.667969 305.34375 560.742188 306.703125 582.546875 C 306.851562 584.875 305.585938 587.070312 303.5 588.113281 C 301.410156 589.160156 298.898438 588.855469 297.121094 587.339844 L 247.390625 544.953125 C 246.09375 543.847656 245.34375 542.226562 245.34375 540.519531 L 245.34375 474.03125 C 237.5625 479.214844 231.511719 484.835938 226.984375 491.066406 C 221.417969 498.722656 218.011719 507.363281 216.269531 518.25 C 210.871094 552.003906 215.632812 574.722656 220.242188 596.691406 C 224.257812 615.855469 228.414062 635.671875 225.09375 661.339844 C 224.683594 664.527344 221.765625 666.78125 218.574219 666.363281 C 215.390625 665.949219 213.136719 663.03125 213.550781 659.84375 C 216.617188 636.132812 212.84375 618.132812 208.847656 599.082031 C 204.023438 576.078125 199.039062 552.292969 204.777344 516.410156 C 206.792969 503.820312 210.976562 493.292969 217.566406 484.222656 C 224.679688 474.433594 234.757812 466.066406 248.378906 458.636719 C 250.183594 457.652344 252.371094 457.695312 254.136719 458.742188 C 255.902344 459.789062 256.984375 461.691406 256.984375 463.746094 L 256.984375 537.835938 L 294.792969 570.0625 C 295.226562 551.988281 299.464844 539.171875 307.820312 530.277344 C 317.800781 519.65625 333.644531 514.710938 357.679688 514.710938 C 360.894531 514.710938 363.5 517.316406 363.5 520.53125 C 363.5 527.136719 363.609375 534.003906 363.730469 541.277344 C 364.179688 568.652344 364.648438 596.964844 359.324219 617.933594 L 348.125 662.027344 C 347.457031 664.65625 345.089844 666.410156 342.488281 666.410156 Z M 342.488281 666.410156 " fill-opacity="1" fill-rule="nonzero"/><path fill="#422b1c" d="M 558.8125 588.730469 C 555.597656 588.730469 552.992188 586.125 552.992188 582.910156 L 552.992188 471.472656 C 552.992188 468.257812 555.597656 465.652344 558.8125 465.652344 C 562.027344 465.652344 564.632812 468.257812 564.632812 471.472656 L 564.632812 582.910156 C 564.632812 586.125 562.027344 588.730469 558.8125 588.730469 Z M 404.992188 588.730469 C 401.777344 588.730469 399.171875 586.125 399.171875 582.910156 L 399.171875 538.800781 C 398.765625 538.816406 398.359375 538.824219 397.953125 538.824219 C 379.851562 538.824219 365.125 524.097656 365.125 505.996094 C 365.125 487.894531 379.851562 473.171875 397.953125 473.171875 C 398.359375 473.171875 398.765625 473.179688 399.171875 473.195312 L 399.171875 429.085938 C 399.171875 425.894531 401.742188 423.296875 404.933594 423.265625 L 452.125 422.808594 C 452.140625 422.808594 452.164062 422.808594 452.179688 422.808594 C 455.367188 422.808594 457.96875 425.375 458 428.570312 C 458.03125 431.785156 455.449219 434.417969 452.234375 434.449219 L 410.8125 434.851562 L 410.8125 479.917969 C 410.8125 481.730469 409.96875 483.4375 408.53125 484.535156 C 407.09375 485.636719 405.226562 486.007812 403.480469 485.539062 C 401.683594 485.054688 399.824219 484.808594 397.957031 484.808594 C 386.273438 484.808594 376.769531 494.3125 376.769531 505.996094 C 376.769531 517.675781 386.273438 527.179688 397.957031 527.179688 C 399.828125 527.179688 401.683594 526.9375 403.480469 526.453125 C 405.226562 525.980469 407.097656 526.351562 408.535156 527.453125 C 409.96875 528.554688 410.8125 530.261719 410.8125 532.074219 L 410.8125 582.90625 C 410.8125 586.125 408.203125 588.730469 404.992188 588.730469 Z M 404.992188 588.730469 " fill-opacity="1" fill-rule="nonzero"/><g clip-path="url(#2a62592881)"><path fill="#422b1c" d="M 611.082031 357.222656 L 452.085938 357.222656 C 448.871094 357.222656 446.265625 354.617188 446.265625 351.402344 L 446.265625 278.796875 C 446.265625 275.582031 448.871094 272.976562 452.085938 272.976562 L 611.085938 272.976562 C 614.300781 272.976562 616.90625 275.582031 616.90625 278.796875 L 616.90625 351.402344 C 616.902344 354.617188 614.296875 357.222656 611.082031 357.222656 Z M 457.90625 345.582031 L 605.265625 345.582031 L 605.265625 284.617188 L 457.90625 284.617188 Z M 457.90625 345.582031 " fill-opacity="1" fill-rule="nonzero"/></g><g clip-path="url(#d4a25930f0)"><path fill="#422b1c" d="M 611.082031 320.917969 L 547.667969 320.917969 C 544.453125 320.917969 541.847656 318.3125 541.847656 315.097656 C 541.847656 311.882812 544.453125 309.277344 547.667969 309.277344 L 611.082031 309.277344 C 614.296875 309.277344 616.902344 311.882812 616.902344 315.097656 C 616.902344 318.3125 614.296875 320.917969 611.082031 320.917969 Z M 611.082031 320.917969 " fill-opacity="1" fill-rule="nonzero"/></g><path fill="#422b1c" d="M 495.28125 336.542969 C 483.457031 336.542969 473.835938 326.921875 473.835938 315.097656 C 473.835938 303.273438 483.457031 293.65625 495.28125 293.65625 C 507.105469 293.65625 516.726562 303.273438 516.726562 315.097656 C 516.726562 326.921875 507.105469 336.542969 495.28125 336.542969 Z M 495.28125 305.296875 C 489.875 305.296875 485.476562 309.691406 485.476562 315.097656 C 485.476562 320.503906 489.875 324.902344 495.28125 324.902344 C 500.6875 324.902344 505.085938 320.503906 505.085938 315.097656 C 505.085938 309.691406 500.6875 305.296875 495.28125 305.296875 Z M 495.28125 305.296875 " fill-opacity="1" fill-rule="nonzero"/><path fill="#422b1c" d="M 558.8125 554.070312 C 557.785156 554.070312 556.757812 553.796875 555.84375 553.253906 C 554.078125 552.207031 552.992188 550.304688 552.992188 548.25 L 552.992188 474.160156 L 515.183594 441.933594 C 514.753906 460.003906 510.515625 472.820312 502.15625 481.71875 C 492.179688 492.339844 476.335938 497.285156 452.300781 497.285156 C 449.085938 497.285156 446.480469 494.679688 446.480469 491.464844 C 446.480469 484.859375 446.367188 477.992188 446.246094 470.71875 C 445.796875 443.339844 445.332031 415.03125 450.65625 394.0625 L 461.851562 349.96875 C 462.644531 346.851562 465.808594 344.964844 468.925781 345.757812 C 472.039062 346.550781 473.925781 349.714844 473.132812 352.832031 L 461.9375 396.925781 C 456.996094 416.386719 457.46875 445.148438 457.886719 470.527344 C 457.972656 475.707031 458.054688 480.691406 458.09375 485.535156 C 475.402344 484.867188 486.785156 481.074219 493.671875 473.746094 C 501.585938 465.324219 504.632812 451.246094 503.273438 429.445312 C 503.125 427.113281 504.390625 424.921875 506.476562 423.875 C 508.570312 422.832031 511.078125 423.136719 512.855469 424.652344 L 562.585938 467.039062 C 563.882812 468.144531 564.632812 469.761719 564.632812 471.46875 L 564.632812 537.960938 C 572.414062 532.777344 578.464844 527.15625 582.992188 520.925781 C 588.558594 513.265625 591.964844 504.628906 593.707031 493.742188 C 599.105469 459.984375 594.34375 437.269531 589.734375 415.296875 C 585.71875 396.132812 581.5625 376.316406 584.882812 350.652344 C 585.292969 347.464844 588.214844 345.214844 591.402344 345.625 C 594.585938 346.039062 596.839844 348.957031 596.425781 352.144531 C 593.355469 375.855469 597.128906 393.855469 601.128906 412.90625 C 605.953125 435.910156 610.9375 459.695312 605.199219 495.578125 C 603.183594 508.167969 599 518.699219 592.410156 527.769531 C 585.296875 537.554688 575.21875 545.925781 561.597656 553.355469 C 560.730469 553.832031 559.769531 554.070312 558.8125 554.070312 Z M 458.121094 491.464844 Z M 458.121094 491.464844 " fill-opacity="1" fill-rule="nonzero"/><path fill="#422b1c" d="M 481.902344 622.769531 C 463.800781 622.769531 449.074219 608.046875 449.074219 589.941406 C 449.074219 589.539062 449.082031 589.128906 449.097656 588.726562 L 404.992188 588.726562 C 401.777344 588.726562 399.171875 586.121094 399.171875 582.90625 C 399.171875 579.6875 401.777344 577.085938 404.992188 577.085938 L 455.824219 577.085938 C 457.636719 577.085938 459.34375 577.925781 460.445312 579.363281 C 461.546875 580.800781 461.914062 582.667969 461.445312 584.417969 C 460.960938 586.210938 460.714844 588.070312 460.714844 589.941406 C 460.714844 601.621094 470.222656 611.128906 481.90625 611.128906 C 493.585938 611.128906 503.089844 601.621094 503.089844 589.941406 C 503.089844 588.066406 502.847656 586.210938 502.363281 584.414062 C 501.890625 582.667969 502.261719 580.800781 503.363281 579.359375 C 504.464844 577.925781 506.171875 577.082031 507.980469 577.082031 L 558.8125 577.085938 C 562.027344 577.085938 564.632812 579.6875 564.632812 582.90625 C 564.632812 586.121094 562.027344 588.726562 558.8125 588.726562 L 514.707031 588.722656 C 514.722656 589.128906 514.730469 589.53125 514.730469 589.941406 C 514.730469 608.046875 500.003906 622.769531 481.902344 622.769531 Z M 481.902344 622.769531 " fill-opacity="1" fill-rule="nonzero"/><path fill="#422b1c" d="M 434.402344 692.609375 C 431.535156 692.609375 429.035156 690.484375 428.640625 687.558594 L 423.53125 649.429688 C 423.101562 646.242188 425.339844 643.316406 428.527344 642.886719 C 431.710938 642.457031 434.640625 644.695312 435.066406 647.882812 L 440.179688 686.015625 C 440.605469 689.199219 438.371094 692.128906 435.183594 692.554688 C 434.921875 692.589844 434.664062 692.609375 434.402344 692.609375 Z M 434.402344 692.609375 " fill-opacity="1" fill-rule="nonzero"/><path fill="#422b1c" d="M 387.109375 693.3125 C 386.800781 693.3125 386.492188 693.289062 386.179688 693.234375 C 383.007812 692.726562 380.847656 689.742188 381.351562 686.570312 L 387.445312 648.578125 C 387.953125 645.40625 390.941406 643.246094 394.113281 643.753906 C 397.285156 644.261719 399.445312 647.246094 398.9375 650.421875 L 392.847656 688.410156 C 392.386719 691.273438 389.917969 693.3125 387.109375 693.3125 Z M 387.109375 693.3125 " fill-opacity="1" fill-rule="nonzero"/><path fill="#422b1c" d="M 480.238281 680.824219 C 478.027344 680.824219 475.910156 679.554688 474.933594 677.40625 L 459.054688 642.363281 C 457.726562 639.433594 459.027344 635.984375 461.953125 634.660156 C 464.882812 633.332031 468.328125 634.628906 469.65625 637.558594 L 485.535156 672.601562 C 486.863281 675.527344 485.5625 678.976562 482.636719 680.304688 C 481.859375 680.660156 481.042969 680.824219 480.238281 680.824219 Z M 480.238281 680.824219 " fill-opacity="1" fill-rule="nonzero"/><path fill="#422b1c" d="M 380.671875 399.46875 C 377.804688 399.46875 375.304688 397.34375 374.910156 394.421875 L 369.800781 356.289062 C 369.371094 353.101562 371.609375 350.171875 374.796875 349.746094 C 377.980469 349.316406 380.910156 351.554688 381.335938 354.742188 L 386.449219 392.875 C 386.875 396.0625 384.640625 398.992188 381.453125 399.417969 C 381.191406 399.453125 380.929688 399.46875 380.671875 399.46875 Z M 380.671875 399.46875 " fill-opacity="1" fill-rule="nonzero"/><path fill="#422b1c" d="M 416.796875 398.621094 C 416.488281 398.621094 416.179688 398.597656 415.867188 398.546875 C 412.695312 398.039062 410.535156 395.054688 411.042969 391.878906 L 417.132812 353.890625 C 417.640625 350.71875 420.625 348.554688 423.800781 349.0625 C 426.972656 349.574219 429.132812 352.558594 428.625 355.730469 L 422.535156 393.722656 C 422.078125 396.582031 419.605469 398.621094 416.796875 398.621094 Z M 416.796875 398.621094 " fill-opacity="1" fill-rule="nonzero"/><path fill="#422b1c" d="M 345.625 408.164062 C 343.410156 408.164062 341.296875 406.890625 340.320312 404.742188 L 324.441406 369.699219 C 323.113281 366.773438 324.414062 363.324219 327.339844 361.996094 C 330.265625 360.667969 333.714844 361.96875 335.042969 364.894531 L 350.921875 399.9375 C 352.25 402.867188 350.949219 406.316406 348.023438 407.640625 C 347.246094 407.996094 346.429688 408.164062 345.625 408.164062 Z M 345.625 408.164062 " fill-opacity="1" fill-rule="nonzero"/><g clip-path="url(#6ff0878683)"><g clip-path="url(#a7446ed808)"><g transform="matrix(1, 0, 0, 1, 372, 518)"><g clip-path="url(#f84dac2118)"><g clip-path="url(#771718383d)"><g clip-path="url(#5f1688f821)"><path fill="#422b1c" d="M 0.511719 0.425781 L 6.632812 0.425781 L 6.632812 4.570312 L 0.511719 4.570312 Z M 0.511719 0.425781 " fill-opacity="1" fill-rule="nonzero"/></g></g></g></g></g></g></svg>