<?xml version="1.0" encoding="utf-8"?>
<!-- Generator: Adobe Illustrator 26.0.0, SVG Export Plug-In . SVG Version: 6.00 Build 0)  -->
<svg version="1.1" id="Layer_1" xmlns="http://www.w3.org/2000/svg" xmlns:xlink="http://www.w3.org/1999/xlink" x="0px" y="0px"
	 viewBox="0 0 512 512" style="enable-background:new 0 0 512 512;" xml:space="preserve">
<style type="text/css">
	.st0{fill:#ffffff;}
	.st1{fill:#ffffff;}
</style>
<g>
	<path class="st0" d="M160,129.8h30.3c2.8,0,5-2.3,5-5c0-2.8-2.3-5-5-5H160c-2.8,0-5,2.3-5,5C154.9,127.5,157.2,129.8,160,129.8z"/>
	<path class="st0" d="M160,175.7h30.3c2.8,0,5-2.3,5-5c0-2.8-2.3-5-5-5H160c-2.8,0-5,2.3-5,5C154.9,173.4,157.2,175.7,160,175.7z"/>
	<path class="st0" d="M160,221.6h60.6c2.8,0,5-2.3,5-5c0-2.8-2.3-5-5-5H160c-2.8,0-5,2.3-5,5C154.9,219.3,157.2,221.6,160,221.6z"/>
	<path class="st0" d="M160,267.5h30.3c2.8,0,5-2.3,5-5c0-2.8-2.3-5-5-5H160c-2.8,0-5,2.3-5,5C154.9,265.2,157.2,267.5,160,267.5z"/>
	<path class="st0" d="M160,313.4h30.3c2.8,0,5-2.3,5-5s-2.3-5-5-5H160c-2.8,0-5,2.3-5,5S157.2,313.4,160,313.4z"/>
	<path class="st1" d="M373.2,310.7c-2.8,0-5,2.3-5,5V349c0,11.2-9.1,20.4-20.3,20.4h-35.3c-2.8,0-5,2.3-5,5v19.7h-101v-19.7
		c0-2.8-2.3-5-5-5h-35.2c-11.2,0-20.4-9.2-20.4-20.4V121.9c0-2.8-2.3-5-5-5s-5,2.3-5,5V349c0,16.8,13.7,30.5,30.5,30.5h30.1v14.6
		h-26.1c-12.2,0-22.1,9.9-22.1,22.1s9.9,22.1,22.1,22.1h15c2.8,0,5-2.3,5-5s-2.3-5-5-5h-15c-6.6,0-12-5.4-12-12s5.4-12,12-12h173.6
		c6.5,0,12,5.5,12,12s-5.5,12-12,12H205.7c-2.8,0-5,2.3-5,5s2.3,5,5,5h13.5v11.3c0,2.8,2.3,5,5,5H252v45.3c0,2.8,2.3,5,5,5
		s5-2.3,5-5v-45.3h27.7c2.8,0,5-2.3,5-5v-11.3h49c12.2,0,22.1-9.9,22.1-22.1s-9.9-22.1-22.1-22.1h-26.3v-14.6h30.3
		c16.7,0,30.4-13.7,30.4-30.5v-33.2C378.2,313,376,310.7,373.2,310.7L373.2,310.7z M284.8,444.4h-55.4v-6.2h55.4L284.8,444.4
		L284.8,444.4z"/>
	<path class="st1" d="M347.9,53.6h-48.1v-20c0-13.1-10.7-23.8-23.8-23.8h-37.7c-13.2,0-23.9,10.7-23.9,23.8v20h-48
		c-16.8,0-30.5,13.7-30.5,30.5v17.3c0,2.8,2.3,5,5,5s5-2.3,5-5V84.1c0-11.2,9.2-20.4,20.4-20.4h53c2.8,0,5-2.3,5-5v-25
		c0-7.5,6.2-13.7,13.8-13.7h37.7c7.5,0,13.7,6.1,13.7,13.7v25c0,2.8,2.3,5,5,5h53.2c11.2,0,20.3,9.2,20.3,20.4v211.2
		c0,2.8,2.3,5,5,5s5-2.3,5-5V84.1C378.2,67.3,364.6,53.6,347.9,53.6L347.9,53.6z"/>
	
		<ellipse transform="matrix(0.1602 -0.9871 0.9871 0.1602 178.1418 285.8695)" class="st0" cx="257.1" cy="38.2" rx="13.9" ry="13.9"/>
</g>
</svg>
