<?xml version="1.0" encoding="utf-8"?>
<!-- Generator: Adobe Illustrator 26.0.0, SVG Export Plug-In . SVG Version: 6.00 Build 0)  -->
<svg version="1.1" id="Layer_1" xmlns="http://www.w3.org/2000/svg" xmlns:xlink="http://www.w3.org/1999/xlink" x="0px" y="0px"
	 viewBox="0 0 70.4 64.7" style="enable-background:new 0 0 70.4 64.7;" xml:space="preserve">
<style type="text/css">
	.st0{clip-path:url(#SVGID_00000073697259317946358210000002550698869059966106_);}
	.st1{fill:#ffffff;}
</style>
<g>
	<defs>
		<rect id="SVGID_1_" x="21.8" y="8.9" width="26.7" height="47"/>
	</defs>
	<clipPath id="SVGID_00000096023549817356969100000011179734122053774210_">
		<use xlink:href="#SVGID_1_"  style="overflow:visible;"/>
	</clipPath>
	<g style="clip-path:url(#SVGID_00000096023549817356969100000011179734122053774210_);">
		<path class="st1" d="M35.2,21.8c-1.3,0-2.5-0.4-3.6-1.1c-1.1-0.7-1.9-1.7-2.4-2.9c-0.5-1.2-0.6-2.5-0.4-3.7
			c0.2-1.2,0.9-2.4,1.8-3.3c0.9-0.9,2-1.5,3.3-1.8c1.2-0.2,2.5-0.1,3.7,0.4c1.2,0.5,2.2,1.3,2.9,2.4s1.1,2.3,1.1,3.6
			c0,1.7-0.7,3.3-1.9,4.6C38.5,21.1,36.9,21.8,35.2,21.8z M35.2,10.7c-0.9,0-1.8,0.3-2.6,0.8c-0.8,0.5-1.3,1.2-1.7,2.1
			c-0.3,0.8-0.4,1.8-0.3,2.7c0.2,0.9,0.6,1.7,1.3,2.4c0.6,0.6,1.5,1.1,2.4,1.3c0.9,0.2,1.8,0.1,2.7-0.3c0.8-0.3,1.6-0.9,2.1-1.7
			c0.5-0.8,0.8-1.6,0.8-2.6c0-1.2-0.5-2.4-1.4-3.3C37.6,11.2,36.4,10.7,35.2,10.7z"/>
		<path class="st1" d="M27.4,48c-0.2,0-0.5-0.1-0.6-0.3c-0.2-0.2-0.3-0.4-0.3-0.6V37c0-0.2,0.1-0.5,0.3-0.6s0.4-0.3,0.6-0.3
			c0.2,0,0.5,0.1,0.6,0.3c0.2,0.2,0.3,0.4,0.3,0.6v10.1c0,0.2-0.1,0.5-0.3,0.6C27.8,47.9,27.6,48,27.4,48z"/>
		<path class="st1" d="M25.1,40.2L25.1,40.2c-1.8,0-3.2-1.5-3.2-3.3v-6.8c0-2.7,1.1-5.3,3-7.2c1.9-1.9,4.5-3,7.2-3h6.3
			c2.7,0,5.3,1.1,7.2,3c1.9,1.9,3,4.5,3,7.2V37c0,0.9-0.3,1.7-0.9,2.3c-0.6,0.6-1.4,0.9-2.3,0.9c-0.9,0-1.7-0.3-2.3-0.9
			c-0.6-0.6-0.9-1.4-0.9-2.3c0-0.2,0.1-0.5,0.3-0.6s0.4-0.3,0.6-0.3c0.2,0,0.5,0.1,0.6,0.3c0.2,0.2,0.3,0.4,0.3,0.6
			c0,0.2,0,0.4,0.1,0.5c0.1,0.2,0.2,0.3,0.3,0.5c0.1,0.1,0.3,0.2,0.5,0.3c0.2,0.1,0.4,0.1,0.5,0.1c0.4,0,0.7-0.1,1-0.4
			c0.3-0.3,0.4-0.6,0.4-1v-6.8c0-2.2-0.9-4.3-2.4-5.9s-3.7-2.4-5.9-2.4H32c-2.2,0-4.3,0.9-5.9,2.4c-1.6,1.6-2.4,3.7-2.4,5.9v6.8
			c0,0.8,0.6,1.4,1.4,1.4c0.2,0,0.4,0,0.5-0.1c0.2-0.1,0.3-0.2,0.5-0.3c0.1-0.1,0.2-0.3,0.3-0.5c0.1-0.2,0.1-0.4,0.1-0.5v-4.1
			c0-0.2,0.1-0.5,0.3-0.6c0.2-0.2,0.4-0.3,0.6-0.3c0.2,0,0.5,0.1,0.6,0.3s0.3,0.4,0.3,0.6V37c0,0.4-0.1,0.8-0.2,1.2
			c-0.2,0.4-0.4,0.7-0.7,1c-0.3,0.3-0.7,0.5-1,0.7C25.9,40.1,25.5,40.2,25.1,40.2z"/>
		<path class="st1" d="M43,48c-0.2,0-0.5-0.1-0.6-0.3c-0.2-0.2-0.3-0.4-0.3-0.6V33.4c0-0.2,0.1-0.5,0.3-0.6c0.2-0.2,0.4-0.3,0.6-0.3
			c0.2,0,0.5,0.1,0.6,0.3c0.2,0.2,0.3,0.4,0.3,0.6v13.8c0,0.2-0.1,0.5-0.3,0.6C43.5,47.9,43.3,48,43,48z"/>
		<path class="st1" d="M35.2,55.9c-2.3,0-4.5-0.9-6.2-2.6c-1.6-1.6-2.6-3.9-2.6-6.2c0-2,1.4-5.1,4.1-9.3c2-3,3.9-5.5,4-5.6
			c0.1-0.1,0.2-0.2,0.3-0.3c0.1-0.1,0.3-0.1,0.4-0.1c0.1,0,0.3,0,0.4,0.1c0.1,0.1,0.2,0.1,0.3,0.3c0.1,0.1,2,2.6,4,5.6
			c2.7,4.2,4.1,7.3,4.1,9.3c0,2.3-0.9,4.5-2.6,6.2C39.7,54.9,37.5,55.8,35.2,55.9z M35.2,34.3c-2.4,3.2-6.9,9.8-6.9,12.8
			c0,1.8,0.7,3.6,2,4.9c1.3,1.3,3.1,2,4.9,2c1.8,0,3.6-0.7,4.9-2s2-3.1,2-4.9C42.1,44.1,37.6,37.6,35.2,34.3z"/>
		<path class="st1" d="M35.2,51.2c-0.2,0-0.5-0.1-0.6-0.3c-0.2-0.2-0.3-0.4-0.3-0.6v-6.4c0-0.2,0.1-0.5,0.3-0.6
			c0.2-0.2,0.4-0.3,0.6-0.3c0.2,0,0.5,0.1,0.6,0.3c0.2,0.2,0.3,0.4,0.3,0.6v6.4c0,0.2-0.1,0.5-0.3,0.6
			C35.7,51.2,35.4,51.2,35.2,51.2z"/>
		<path class="st1" d="M35.2,51.2c-0.2,0-0.5-0.1-0.6-0.3l-3.1-3.1c-0.2-0.2-0.3-0.4-0.3-0.6c0-0.2,0.1-0.5,0.3-0.6
			c0.2-0.2,0.4-0.3,0.6-0.3c0.2,0,0.5,0.1,0.6,0.3l2.4,2.4l2.4-2.4c0.2-0.2,0.4-0.3,0.6-0.3c0.2,0,0.5,0.1,0.6,0.3
			c0.2,0.2,0.3,0.4,0.3,0.6c0,0.2-0.1,0.5-0.3,0.6L35.8,51C35.7,51.1,35.4,51.2,35.2,51.2z"/>
	</g>
</g>
</svg>
