<?xml version="1.0" encoding="utf-8"?>
<!-- Generator: Adobe Illustrator 26.0.0, SVG Export Plug-In . SVG Version: 6.00 Build 0)  -->
<svg version="1.1" id="Layer_1" xmlns="http://www.w3.org/2000/svg" xmlns:xlink="http://www.w3.org/1999/xlink" x="0px" y="0px"
	 viewBox="0 0 70.4 64.7" style="enable-background:new 0 0 70.4 64.7;" xml:space="preserve">
<style type="text/css">
	.st0{clip-path:url(#SVGID_00000018201480937006801500000013150513675990698134_);}
	.st1{fill:#ffffff;}
</style>
<g>
	<defs>
		<rect id="SVGID_1_" x="17" y="8.4" width="34" height="46.3"/>
	</defs>
	<clipPath id="SVGID_00000127751744842796488020000002178988070066539675_">
		<use xlink:href="#SVGID_1_"  style="overflow:visible;"/>
	</clipPath>
	<g style="clip-path:url(#SVGID_00000127751744842796488020000002178988070066539675_);">
		<path class="st1" d="M38.6,54.6c-0.2,0-0.3-0.1-0.4-0.2C38,54.4,38,54.2,38,54.1v-3.6c0-0.7,0.3-1.4,0.8-1.9
			c0.5-0.5,1.2-0.8,1.9-0.8h3.3c0.4,0,0.8-0.2,1-0.4c0.3-0.3,0.4-0.6,0.4-1v-5.8c0-0.4,0.2-0.8,0.5-1.1c0.3-0.3,0.7-0.5,1.1-0.5h1.6
			c0.3,0,0.6-0.1,0.8-0.4c0.2-0.2,0.4-0.5,0.4-0.8c0-0.2-0.1-0.4-0.2-0.7l-2.7-3.9l0,0c-0.2-0.4-0.4-0.8-0.5-1.2c0,0,0-0.1,0-0.1
			l-0.1-2c-0.5-7.4-6.6-13.3-14.1-13.3c-7.8,0-14.1,6.3-14.1,14.1c0,1.6,0.4,3.3,1.1,4.7l2.3,4.8c1.8,3.9,2.8,8.1,2.8,12.4v1.6
			c0,0.2-0.1,0.3-0.2,0.4c-0.1,0.1-0.3,0.2-0.4,0.2c-0.2,0-0.3-0.1-0.4-0.2c-0.1-0.1-0.2-0.3-0.2-0.4v-1.6c0-4.1-0.9-8.2-2.7-11.9
			l-2.3-4.8c-0.8-1.6-1.2-3.4-1.2-5.2c0-8.4,6.8-15.2,15.2-15.2c8.1,0,14.8,6.3,15.2,14.4l0.1,1.9c0.1,0.3,0.2,0.6,0.3,0.8l2.7,3.9
			c0,0,0,0,0,0.1c0.2,0.4,0.3,0.8,0.3,1.3c0,0.6-0.3,1.2-0.7,1.7c-0.4,0.4-1,0.7-1.7,0.7H47c-0.1,0-0.2,0.1-0.3,0.1
			c-0.1,0.1-0.1,0.2-0.1,0.3v5.8c0,0.7-0.3,1.4-0.8,1.9c-0.5,0.5-1.2,0.8-1.9,0.8h-3.3c-0.4,0-0.8,0.2-1,0.4c-0.3,0.3-0.4,0.6-0.4,1
			v3.6c0,0.1,0,0.2,0,0.2S39,54.4,39,54.5c-0.1,0.1-0.1,0.1-0.2,0.1S38.6,54.6,38.6,54.6z"/>
		<path class="st1" d="M28.8,38.5c-1.4,0-2.8-0.4-3.9-1.2c-1.2-0.8-2.1-1.9-2.6-3.2c-0.5-1.3-0.7-2.7-0.4-4.1
			c0.3-1.4,0.9-2.6,1.9-3.6c1-1,2.2-1.7,3.6-1.9c1.4-0.3,2.8-0.1,4.1,0.4c1.3,0.5,2.4,1.4,3.2,2.6c0.8,1.2,1.2,2.5,1.2,3.9
			c0,1.9-0.7,3.7-2.1,5C32.5,37.7,30.7,38.5,28.8,38.5z M28.8,25.5c-1.2,0-2.3,0.3-3.3,1c-1,0.6-1.7,1.6-2.2,2.6
			c-0.4,1.1-0.6,2.3-0.3,3.4c0.2,1.1,0.8,2.2,1.6,3c0.8,0.8,1.9,1.4,3,1.6c1.1,0.2,2.3,0.1,3.4-0.3c1.1-0.4,2-1.2,2.6-2.2
			c0.6-1,1-2.1,1-3.3c0-1.6-0.6-3.1-1.7-4.2C31.8,26.1,30.3,25.5,28.8,25.5z"/>
		<path class="st1" d="M28.8,34.5c-0.6,0-1.2-0.2-1.7-0.5c-0.5-0.3-0.9-0.8-1.2-1.4c-0.2-0.6-0.3-1.2-0.2-1.8
			c0.1-0.6,0.4-1.2,0.9-1.6c0.4-0.4,1-0.7,1.6-0.9c0.6-0.1,1.2-0.1,1.8,0.2c0.6,0.2,1.1,0.6,1.4,1.2c0.3,0.5,0.5,1.1,0.5,1.7
			c0,0.8-0.3,1.6-0.9,2.2C30.4,34.2,29.6,34.5,28.8,34.5z M28.8,29.5c-0.4,0-0.8,0.1-1.1,0.3c-0.3,0.2-0.6,0.5-0.7,0.9
			c-0.1,0.4-0.2,0.7-0.1,1.1c0.1,0.4,0.3,0.7,0.5,1c0.3,0.3,0.6,0.5,1,0.5c0.4,0.1,0.8,0,1.1-0.1c0.4-0.1,0.7-0.4,0.9-0.7
			c0.2-0.3,0.3-0.7,0.3-1.1c0-0.5-0.2-1-0.6-1.4C29.8,29.7,29.3,29.5,28.8,29.5z"/>
		<path class="st1" d="M40.6,49h-3.6c-1.1,0-2.2-0.4-3.1-1.1c-0.9-0.7-1.5-1.7-1.7-2.8c0-0.2,0-0.3,0.1-0.4c0.1-0.1,0.2-0.2,0.4-0.3
			c0.2,0,0.3,0,0.4,0.1c0.1,0.1,0.2,0.2,0.3,0.4c0.4,1.8,1.9,2.9,3.7,2.9h3.6c0.2,0,0.3,0.1,0.4,0.2c0.1,0.1,0.2,0.3,0.2,0.4
			s-0.1,0.3-0.2,0.4C40.9,48.9,40.8,49,40.6,49L40.6,49z"/>
		<path class="st1" d="M45,18.8c-0.1,0-0.2,0-0.3-0.1c-0.1-0.1-0.2-0.1-0.2-0.2c0-0.1-0.1-0.2,0-0.3c0-0.1,0.1-0.2,0.1-0.3l1.9-2.2
			l-1.7-0.8c-0.1,0-0.2-0.1-0.2-0.2c-0.1-0.1-0.1-0.2-0.1-0.2c0-0.1,0-0.2,0-0.3c0-0.1,0.1-0.2,0.1-0.2L47,11
			c0.1-0.1,0.2-0.2,0.4-0.2c0.2,0,0.3,0,0.4,0.1c0.1,0.1,0.2,0.2,0.2,0.4c0,0.2,0,0.3-0.1,0.4L46,14.1l1.7,0.8
			c0.1,0,0.2,0.1,0.2,0.2c0.1,0.1,0.1,0.2,0.1,0.2c0,0.1,0,0.2,0,0.3c0,0.1-0.1,0.2-0.1,0.2l-2.4,2.8c-0.1,0.1-0.1,0.1-0.2,0.1
			C45.2,18.8,45.1,18.8,45,18.8z"/>
		<path class="st1" d="M41.5,16.8c-0.1,0-0.2,0-0.3-0.1c-0.1-0.1-0.2-0.1-0.2-0.2c-0.1-0.1-0.1-0.2-0.1-0.3c0-0.1,0-0.2,0.1-0.3
			l1.4-2.6l-1.9-0.4c-0.1,0-0.2-0.1-0.2-0.1c-0.1-0.1-0.1-0.1-0.2-0.2c0-0.1-0.1-0.2-0.1-0.3c0-0.1,0-0.2,0.1-0.3l1.7-3.4
			c0.1-0.1,0.2-0.2,0.3-0.3c0.1,0,0.3,0,0.4,0s0.2,0.2,0.3,0.3c0,0.1,0,0.3,0,0.4l-1.4,2.7l1.9,0.4c0.1,0,0.2,0.1,0.2,0.1
			c0.1,0.1,0.1,0.1,0.2,0.2c0,0.1,0.1,0.2,0.1,0.3c0,0.1,0,0.2-0.1,0.3L42,16.5c-0.1,0.1-0.1,0.2-0.2,0.2
			C41.7,16.8,41.6,16.8,41.5,16.8z"/>
	</g>
</g>
</svg>
