<svg xmlns="http://www.w3.org/2000/svg" xmlns:xlink="http://www.w3.org/1999/xlink" width="1080" zoomAndPan="magnify" viewBox="0 0 810 1012.49997" height="1350" preserveAspectRatio="xMidYMid meet" version="1.2"><defs><clipPath id="4eefba91ec"><path d="M 296 286 L 514 286 L 514 726.46875 L 296 726.46875 Z M 296 286 "/></clipPath><clipPath id="0434af9523"><path d="M 347.285156 438.542969 L 355.195312 438.542969 L 355.195312 447.699219 L 347.285156 447.699219 Z M 347.285156 438.542969 "/></clipPath></defs><g id="8351130644"><path style=" stroke:none;fill-rule:nonzero;fill:#353f2a;fill-opacity:1;" d="M 622.871094 402.347656 C 618.917969 398.097656 612.265625 397.859375 608.015625 401.808594 C 599.113281 410.09375 588.691406 415.683594 577.738281 419.34375 L 521.441406 363.046875 C 517.339844 358.941406 510.683594 358.941406 506.582031 363.046875 C 502.476562 367.152344 502.476562 373.808594 506.582031 377.914062 L 553.226562 424.558594 C 540.578125 425.9375 528.164062 425.5625 517.398438 424.484375 C 511.613281 423.914062 506.472656 428.121094 505.894531 433.894531 C 505.316406 439.675781 509.53125 444.824219 515.304688 445.402344 C 521.820312 446.050781 528.855469 446.472656 536.214844 446.472656 C 564.570312 446.472656 597.554688 440.253906 622.335938 417.203125 C 626.582031 413.246094 626.824219 406.597656 622.871094 402.347656 "/><g clip-rule="nonzero" clip-path="url(#4eefba91ec)"><path style=" stroke:none;fill-rule:nonzero;fill:#353f2a;fill-opacity:1;" d="M 496.675781 437.816406 C 496.378906 436.953125 467.390625 350.46875 510.660156 304.535156 C 514.640625 300.308594 514.441406 293.65625 510.21875 289.675781 C 505.992188 285.695312 499.34375 285.894531 495.363281 290.121094 C 443.894531 344.753906 474.742188 438.605469 476.753906 444.503906 C 477.765625 447.757812 495.203125 505.882812 460.886719 548.207031 L 363.46875 450.765625 C 372.308594 443.796875 381.796875 438.992188 391.398438 435.789062 L 446.765625 491.183594 C 448.820312 493.234375 451.507812 494.261719 454.199219 494.261719 C 456.890625 494.261719 459.578125 493.234375 461.632812 491.1875 C 465.738281 487.085938 465.738281 480.425781 461.632812 476.324219 L 416.0625 430.730469 C 427.433594 429.699219 438.328125 430.300781 447.800781 431.582031 C 453.554688 432.359375 458.84375 428.324219 459.621094 422.574219 C 460.398438 416.816406 456.367188 411.527344 450.613281 410.75 C 436.527344 408.847656 415.511719 407.871094 393.414062 413.453125 C 392.269531 413.558594 391.140625 413.859375 390.074219 414.339844 C 373.230469 419.085938 355.933594 427.769531 340.746094 442.855469 C 340.738281 442.863281 340.734375 442.867188 340.730469 442.871094 C 340.726562 442.875 340.726562 442.875 340.722656 442.875 C 340.71875 442.878906 340.714844 442.886719 340.710938 442.890625 C 318.957031 464.527344 307.246094 494.015625 306.84375 528.164062 C 306.554688 552.746094 312.089844 571.507812 313.207031 575.035156 C 313.238281 575.128906 313.265625 575.21875 313.296875 575.308594 C 313.597656 576.175781 342.578125 662.660156 299.328125 708.597656 C 295.347656 712.824219 295.546875 719.472656 299.769531 723.453125 C 301.804688 725.367188 304.394531 726.308594 306.976562 726.308594 C 309.769531 726.308594 312.5625 725.203125 314.628906 723.003906 C 366.101562 668.339844 335.195312 574.410156 333.21875 568.613281 C 332.179688 565.292969 314.894531 507.890625 348.5625 465.585938 L 445.847656 562.890625 C 437.089844 569.664062 427.714844 574.335938 418.230469 577.460938 L 362.632812 521.859375 C 358.527344 517.757812 351.871094 517.757812 347.765625 521.859375 C 343.664062 525.964844 343.664062 532.621094 347.765625 536.726562 L 393.484375 582.4375 C 382.269531 583.417969 371.539062 582.8125 362.191406 581.546875 C 356.4375 580.765625 351.144531 584.804688 350.371094 590.554688 C 349.589844 596.3125 353.625 601.601562 359.375 602.378906 C 365.574219 603.21875 373.109375 603.875 381.492188 603.875 C 407.285156 603.875 441.066406 597.625 468.300781 571.183594 C 468.417969 571.074219 468.546875 570.96875 468.664062 570.851562 C 468.71875 570.800781 468.765625 570.742188 468.816406 570.6875 C 468.960938 570.546875 469.101562 570.414062 469.242188 570.273438 C 490.980469 548.671875 502.699219 519.234375 503.132812 485.132812 C 503.445312 460.589844 497.898438 441.683594 496.777344 438.117188 C 496.746094 438.019531 496.710938 437.917969 496.675781 437.816406 "/></g><path style=" stroke:none;fill-rule:nonzero;fill:#353f2a;fill-opacity:1;" d="M 294.949219 636.695312 L 248.078125 589.820312 C 263.652344 587.058594 279.359375 587.328125 292.578125 588.644531 C 298.359375 589.230469 303.503906 585.003906 304.078125 579.226562 C 304.65625 573.449219 300.4375 568.300781 294.664062 567.726562 C 249.347656 563.210938 212.339844 572.960938 187.65625 595.925781 C 183.40625 599.882812 183.164062 606.53125 187.117188 610.78125 C 189.191406 613.003906 191.996094 614.132812 194.816406 614.132812 C 197.378906 614.132812 199.945312 613.199219 201.972656 611.316406 C 208.898438 604.875 216.75 600.066406 225.054688 596.523438 L 280.089844 651.558594 C 282.140625 653.609375 284.832031 654.636719 287.519531 654.636719 C 290.210938 654.636719 292.902344 653.609375 294.949219 651.558594 C 299.054688 647.453125 299.054688 640.800781 294.949219 636.695312 "/><g clip-rule="nonzero" clip-path="url(#0434af9523)"><path style=" stroke:none;fill-rule:nonzero;fill:#353f2a;fill-opacity:1;" d="M 347.285156 438.542969 L 355.195312 438.542969 L 355.195312 447.6875 L 347.285156 447.6875 Z M 347.285156 438.542969 "/></g></g></svg>