<svg xmlns="http://www.w3.org/2000/svg" xmlns:xlink="http://www.w3.org/1999/xlink" width="1080" zoomAndPan="magnify" viewBox="0 0 810 1012.49997" height="1350" preserveAspectRatio="xMidYMid meet" version="1.2"><defs><clipPath id="751daba487"><path d="M 0.199219 0 L 108 0 L 108 17 L 0.199219 17 Z M 0.199219 0 "/></clipPath><clipPath id="ccfb575180"><path d="M -198.101562 16.757812 L 107.367188 16.796875 L 107.375 -29.351562 C 107.375 -50.816406 89.980469 -68.226562 68.507812 -68.226562 L -198.089844 -68.257812 Z M -198.101562 16.757812 "/></clipPath><linearGradient x1="330.012643" gradientTransform="matrix(0.626876,0,0,0.626915,-206.677149,-164.571065)" y1="221.464" x2="500.980002" gradientUnits="userSpaceOnUse" y2="221.464" id="28dd773930"><stop style="stop-color:#587f26;stop-opacity:1;" offset="0"/><stop style="stop-color:#577e26;stop-opacity:1;" offset="0.03125"/><stop style="stop-color:#577d26;stop-opacity:1;" offset="0.0625"/><stop style="stop-color:#567c26;stop-opacity:1;" offset="0.09375"/><stop style="stop-color:#557b26;stop-opacity:1;" offset="0.125"/><stop style="stop-color:#557a26;stop-opacity:1;" offset="0.15625"/><stop style="stop-color:#547926;stop-opacity:1;" offset="0.1875"/><stop style="stop-color:#537826;stop-opacity:1;" offset="0.21875"/><stop style="stop-color:#537726;stop-opacity:1;" offset="0.25"/><stop style="stop-color:#527726;stop-opacity:1;" offset="0.28125"/><stop style="stop-color:#517626;stop-opacity:1;" offset="0.3125"/><stop style="stop-color:#517526;stop-opacity:1;" offset="0.34375"/><stop style="stop-color:#507426;stop-opacity:1;" offset="0.375"/><stop style="stop-color:#4f7326;stop-opacity:1;" offset="0.40625"/><stop style="stop-color:#4f7226;stop-opacity:1;" offset="0.4375"/><stop style="stop-color:#4e7126;stop-opacity:1;" offset="0.46875"/><stop style="stop-color:#4d7026;stop-opacity:1;" offset="0.5"/><stop style="stop-color:#4d6f26;stop-opacity:1;" offset="0.53125"/><stop style="stop-color:#4c6e26;stop-opacity:1;" offset="0.5625"/><stop style="stop-color:#4b6d26;stop-opacity:1;" offset="0.59375"/><stop style="stop-color:#4b6c26;stop-opacity:1;" offset="0.625"/><stop style="stop-color:#4a6b26;stop-opacity:1;" offset="0.65625"/><stop style="stop-color:#496a26;stop-opacity:1;" offset="0.6875"/><stop style="stop-color:#486926;stop-opacity:1;" offset="0.71875"/><stop style="stop-color:#486826;stop-opacity:1;" offset="0.75"/><stop style="stop-color:#476726;stop-opacity:1;" offset="0.78125"/><stop style="stop-color:#466626;stop-opacity:1;" offset="0.8125"/><stop style="stop-color:#466526;stop-opacity:1;" offset="0.84375"/><stop style="stop-color:#456426;stop-opacity:1;" offset="0.875"/><stop style="stop-color:#446326;stop-opacity:1;" offset="0.90625"/><stop style="stop-color:#446226;stop-opacity:1;" offset="0.9375"/><stop style="stop-color:#436126;stop-opacity:1;" offset="0.96875"/><stop style="stop-color:#426026;stop-opacity:1;" offset="1"/></linearGradient><filter x="0%" y="0%" width="100%" filterUnits="objectBoundingBox" id="b6d8e36ac5" height="100%"><feColorMatrix values="0 0 0 0 1 0 0 0 0 1 0 0 0 0 1 0 0 0 1 0" type="matrix" in="SourceGraphic"/></filter><clipPath id="dcdcbcf0a8"><path d="M 88 139 L 297.292969 139 L 297.292969 309.847656 L 88 309.847656 Z M 88 139 "/></clipPath><clipPath id="3b60246a34"><path d="M 124 0.25 L 188 0.25 L 188 64 L 124 64 Z M 124 0.25 "/></clipPath><clipPath id="eab7b12901"><path d="M 0.441406 76 L 192 76 L 192 223 L 0.441406 223 Z M 0.441406 76 "/></clipPath><clipPath id="e233f462fd"><path d="M 4 0.25 L 68 0.25 L 68 64 L 4 64 Z M 4 0.25 "/></clipPath><clipPath id="bbc51f800a"><rect x="0" width="299" y="0" height="310"/></clipPath></defs><g id="2c87dd44bd"><g clip-rule="nonzero" clip-path="url(#751daba487)"><g clip-rule="nonzero" clip-path="url(#ccfb575180)"><path style=" stroke:none;fill-rule:nonzero;fill:url(#28dd773930);" d="M 0.199219 0 L 0.199219 16.796875 L 107.375 16.796875 L 107.375 0 Z M 0.199219 0 "/></g></g><g mask="url(#30affd8500)" transform="matrix(1,0,0,1,256,351)"><g clip-path="url(#bbc51f800a)"><g clip-rule="nonzero" clip-path="url(#dcdcbcf0a8)"><path style=" stroke:none;fill-rule:nonzero;fill:#000000;fill-opacity:1;" d="M 278.234375 247.464844 L 278.234375 177.164062 C 278.234375 156.257812 261.25 139.253906 240.371094 139.253906 C 219.492188 139.253906 202.507812 156.257812 202.507812 177.164062 L 202.507812 246.664062 C 202.507812 274.535156 179.859375 297.210938 152.023438 297.210938 C 124.183594 297.210938 101.535156 274.535156 101.535156 246.664062 L 101.535156 234.660156 L 88.914062 234.660156 L 88.914062 246.664062 C 88.914062 281.503906 117.222656 309.847656 152.023438 309.847656 C 186.820312 309.847656 215.128906 281.503906 215.128906 246.664062 L 215.128906 177.160156 C 215.128906 163.226562 226.453125 151.886719 240.371094 151.886719 C 254.289062 151.886719 265.613281 163.226562 265.613281 177.160156 L 265.613281 247.464844 C 254.738281 250.277344 246.683594 260.183594 246.683594 271.9375 C 246.683594 285.871094 258.007812 297.210938 271.925781 297.210938 C 285.84375 297.210938 297.167969 285.871094 297.167969 271.9375 C 297.167969 260.183594 289.109375 250.277344 278.234375 247.464844 Z M 271.925781 278.253906 C 268.4375 278.253906 265.613281 275.425781 265.613281 271.9375 C 265.613281 268.449219 268.4375 265.617188 271.925781 265.617188 C 275.410156 265.617188 278.234375 268.449219 278.234375 271.9375 C 278.234375 275.425781 275.410156 278.253906 271.925781 278.253906 Z M 271.925781 278.253906 "/></g><g clip-rule="nonzero" clip-path="url(#3b60246a34)"><path style=" stroke:none;fill-rule:nonzero;fill:#000000;fill-opacity:1;" d="M 143.1875 38.160156 C 151.160156 38.160156 157.996094 33.195312 160.78125 26.191406 C 168.816406 28.382812 174.742188 35.75 174.742188 44.476562 L 174.742188 63.054688 L 187.363281 63.054688 L 187.363281 44.476562 C 187.363281 28.898438 176.035156 15.921875 161.191406 13.355469 C 158.722656 5.757812 151.585938 0.25 143.1875 0.25 C 132.746094 0.25 124.253906 8.753906 124.253906 19.203125 C 124.253906 29.65625 132.746094 38.160156 143.1875 38.160156 Z M 143.1875 38.160156 "/></g><g clip-rule="nonzero" clip-path="url(#eab7b12901)"><path style=" stroke:none;fill-rule:nonzero;fill:#000000;fill-opacity:1;" d="M 102.167969 222.023438 C 105.648438 222.023438 108.476562 219.1875 108.476562 215.703125 L 108.476562 201.292969 C 108.476562 198.253906 110.636719 195.648438 113.617188 195.085938 C 158.539062 186.574219 191.148438 147.152344 191.148438 101.34375 L 191.148438 76.070312 L 171.585938 76.070312 L 171.585938 100.445312 C 171.585938 149.269531 137.945312 176.671875 95.855469 177.261719 C 51.945312 177.878906 20.128906 147.519531 20.128906 101.34375 L 20.128906 76.070312 L 0.566406 76.070312 L 0.566406 101.34375 C 0.566406 147.152344 33.171875 186.574219 78.097656 195.085938 C 81.078125 195.648438 83.234375 198.257812 83.234375 201.292969 L 83.234375 215.703125 C 83.234375 219.1875 86.066406 222.023438 89.546875 222.023438 Z M 102.167969 222.023438 "/></g><g clip-rule="nonzero" clip-path="url(#e233f462fd)"><path style=" stroke:none;fill-rule:nonzero;fill:#000000;fill-opacity:1;" d="M 16.972656 44.476562 C 16.972656 35.75 22.898438 28.382812 30.933594 26.191406 C 33.71875 33.195312 40.550781 38.160156 48.527344 38.160156 C 58.964844 38.160156 67.457031 29.65625 67.457031 19.203125 C 67.457031 8.753906 58.964844 0.25 48.527344 0.25 C 40.125 0.25 32.988281 5.757812 30.519531 13.355469 C 15.679688 15.921875 4.351562 28.898438 4.351562 44.476562 L 4.351562 63.054688 L 16.972656 63.054688 Z M 16.972656 44.476562 "/></g></g><mask id="30affd8500"><g filter="url(#b6d8e36ac5)"><rect x="0" width="810" y="0" height="1012.49997" style="fill:#000000;fill-opacity:0.8;stroke:none;"/></g></mask></g></g></svg>