<svg xmlns="http://www.w3.org/2000/svg" xmlns:xlink="http://www.w3.org/1999/xlink" width="1080" zoomAndPan="magnify" viewBox="0 0 810 1012.49997" height="1350" preserveAspectRatio="xMidYMid meet" version="1.2"><defs><clipPath id="da43a42a98"><path d="M 320 483 L 614.027344 483 L 614.027344 724 L 320 724 Z M 320 483 "/></clipPath><clipPath id="5d0e04e7b3"><path d="M 370 288.015625 L 460 288.015625 L 460 377 L 370 377 Z M 370 288.015625 "/></clipPath><clipPath id="415f884006"><path d="M 195.734375 394 L 465 394 L 465 601 L 195.734375 601 Z M 195.734375 394 "/></clipPath><clipPath id="b04d17ae16"><path d="M 201 288.015625 L 291 288.015625 L 291 377 L 201 377 Z M 201 288.015625 "/></clipPath><clipPath id="b4565fa9c7"><path d="M 420.5 502.488281 L 427.527344 502.488281 L 427.527344 509.511719 L 420.5 509.511719 Z M 420.5 502.488281 "/></clipPath><clipPath id="aeb9c5b0f6"><path d="M 0.5 0.488281 L 7.527344 0.488281 L 7.527344 7.511719 L 0.5 7.511719 Z M 0.5 0.488281 "/></clipPath><clipPath id="678a7f9e26"><rect x="0" width="8" y="0" height="8"/></clipPath></defs><g id="ce56deac72"><g clip-rule="nonzero" clip-path="url(#da43a42a98)"><path style=" stroke:none;fill-rule:nonzero;fill:#4c583f;fill-opacity:1;" d="M 587.394531 636.136719 L 587.394531 537.140625 C 587.394531 507.707031 563.445312 483.757812 534.007812 483.757812 C 504.574219 483.757812 480.625 507.707031 480.625 537.140625 L 480.625 635.011719 C 480.625 674.257812 448.695312 706.1875 409.445312 706.1875 C 370.199219 706.1875 338.269531 674.257812 338.269531 635.011719 L 338.269531 618.105469 L 320.476562 618.105469 L 320.476562 635.011719 C 320.472656 684.070312 360.386719 723.984375 409.445312 723.984375 C 458.507812 723.984375 498.421875 684.070312 498.421875 635.011719 L 498.421875 537.140625 C 498.421875 517.515625 514.386719 501.550781 534.011719 501.550781 C 553.632812 501.550781 569.601562 517.515625 569.601562 537.140625 L 569.601562 636.136719 C 554.265625 640.097656 542.910156 654.046875 542.910156 670.597656 C 542.910156 690.222656 558.875 706.1875 578.496094 706.1875 C 598.121094 706.1875 614.085938 690.222656 614.085938 670.597656 C 614.085938 654.046875 602.726562 640.097656 587.394531 636.136719 Z M 578.496094 679.496094 C 573.582031 679.496094 569.597656 675.511719 569.597656 670.601562 C 569.597656 665.6875 573.582031 661.703125 578.496094 661.703125 C 583.410156 661.703125 587.394531 665.6875 587.394531 670.601562 C 587.394531 675.511719 583.410156 679.496094 578.496094 679.496094 Z M 578.496094 679.496094 "/></g><g clip-rule="nonzero" clip-path="url(#5d0e04e7b3)"><path style=" stroke:none;fill-rule:nonzero;fill:#4c583f;fill-opacity:1;" d="M 396.992188 341.398438 C 408.234375 341.398438 417.871094 334.40625 421.796875 324.546875 C 433.125 327.632812 441.476562 338.003906 441.476562 350.296875 L 441.476562 376.453125 L 459.273438 376.453125 L 459.273438 350.296875 C 459.273438 328.355469 443.300781 310.085938 422.375 306.472656 C 418.898438 295.773438 408.835938 288.015625 396.992188 288.015625 C 382.273438 288.015625 370.300781 299.988281 370.300781 314.707031 C 370.300781 329.425781 382.273438 341.398438 396.992188 341.398438 Z M 396.992188 341.398438 "/></g><g clip-rule="nonzero" clip-path="url(#415f884006)"><path style=" stroke:none;fill-rule:nonzero;fill:#4c583f;fill-opacity:1;" d="M 339.160156 600.3125 C 344.066406 600.3125 348.054688 596.320312 348.054688 591.414062 L 348.054688 571.121094 C 348.054688 566.84375 351.097656 563.171875 355.300781 562.378906 C 418.636719 550.398438 464.609375 494.878906 464.609375 430.371094 L 464.609375 394.785156 L 437.03125 394.785156 L 437.03125 429.109375 C 437.03125 497.863281 389.597656 536.453125 330.261719 537.28125 C 268.347656 538.148438 223.492188 495.394531 223.492188 430.371094 L 223.492188 394.785156 L 195.910156 394.785156 L 195.910156 430.371094 C 195.910156 494.878906 241.882812 550.398438 305.222656 562.378906 C 309.425781 563.171875 312.464844 566.84375 312.464844 571.121094 L 312.464844 591.414062 C 312.464844 596.320312 316.457031 600.3125 321.363281 600.3125 Z M 339.160156 600.3125 "/></g><g clip-rule="nonzero" clip-path="url(#b04d17ae16)"><path style=" stroke:none;fill-rule:nonzero;fill:#4c583f;fill-opacity:1;" d="M 219.042969 350.296875 C 219.042969 338.003906 227.398438 327.632812 238.726562 324.546875 C 242.652344 334.40625 252.289062 341.398438 263.53125 341.398438 C 278.25 341.398438 290.222656 329.425781 290.222656 314.707031 C 290.222656 299.988281 278.25 288.015625 263.53125 288.015625 C 251.6875 288.015625 241.625 295.773438 238.144531 306.472656 C 217.222656 310.085938 201.25 328.355469 201.25 350.296875 L 201.25 376.453125 L 219.042969 376.453125 Z M 219.042969 350.296875 "/></g><g clip-rule="nonzero" clip-path="url(#b4565fa9c7)"><g transform="matrix(1,0,0,1,420,502)"><g clip-path="url(#678a7f9e26)"><g clip-rule="nonzero" clip-path="url(#aeb9c5b0f6)"><path style=" stroke:none;fill-rule:nonzero;fill:#4c583f;fill-opacity:1;" d="M 0.5 0.488281 L 7.527344 0.488281 L 7.527344 7.511719 L 0.5 7.511719 Z M 0.5 0.488281 "/></g></g></g></g></g></svg>