<!DOCTYPE svg PUBLIC "-//W3C//DTD SVG 1.1//EN" "http://www.w3.org/Graphics/SVG/1.1/DTD/svg11.dtd">
<!-- Uploaded to: SVG Repo, www.svgrepo.com, Transformed by: SVG Repo Mixer Tools -->
<svg fill="#ffffff" height="64px" width="64px" version="1.1" id="Capa_1" xmlns="http://www.w3.org/2000/svg" xmlns:xlink="http://www.w3.org/1999/xlink" viewBox="-13.94 -13.94 83.63 83.63" xml:space="preserve" stroke="#ffffff" transform="matrix(-1, 0, 0, 1, 0, 0)">
<g id="SVGRepo_bgCarrier" stroke-width="0">
<rect x="-13.94" y="-13.94" width="83.63" height="83.63" rx="41.815" fill="#353f2a" strokewidth="0"/>
</g>
<g id="SVGRepo_tracerCarrier" stroke-linecap="round" stroke-linejoin="round"/>
<g id="SVGRepo_iconCarrier"> <g> <path d="M31.836,43.006c0.282-0.281,0.518-0.59,0.725-0.912L54.17,20.485c2.107-2.109,2.109-5.528,0-7.638 c-2.109-2.107-5.527-2.109-7.638,0l-18.608,18.61L9.217,12.753c-2.109-2.108-5.527-2.109-7.637,0 C0.527,13.809-0.002,15.19,0,16.571c-0.002,1.382,0.527,2.764,1.582,3.816l21.703,21.706c0.207,0.323,0.445,0.631,0.729,0.913 c1.078,1.078,2.496,1.597,3.91,1.572C29.336,44.604,30.758,44.084,31.836,43.006z"/> </g> </g>
</svg>