<?xml version="1.0" encoding="utf-8"?>
<!-- Generator: Adobe Illustrator 26.0.0, SVG Export Plug-In . SVG Version: 6.00 Build 0)  -->
<svg version="1.1" id="Layer_1" xmlns="http://www.w3.org/2000/svg" xmlns:xlink="http://www.w3.org/1999/xlink" x="0px" y="0px"
	 viewBox="0 0 512 512" style="enable-background:new 0 0 512 512;" xml:space="preserve">
<path d="M499.3,449.8h-28.1c6.5-8.9,9.2-20.1,7.1-31.3c-1.1-6-3.6-11.6-7-16.3c6.2-1.4,12-4.2,17.2-8.3c2.9-2.3,4.6-5.8,4.7-9.6
	c0.1-3.7-1.5-7.3-4.4-9.7l-67.4-57.6c-5-4.2-8.7-9.8-10.8-15.9l-15.7-47c0,0,0,0,0,0l-14.2-42.3c-6.4-19.2-21.8-34.3-41.1-40.3
	l-48.8-15.3c13.3-9.4,21.9-24.8,21.9-42.2V79.7c0-28.5-23.2-51.6-51.6-51.6s-51.6,23.2-51.6,51.6v33.9c0,16.6,7.9,31.4,20.1,40.9
	c-1.3,0.3-2.5,0.7-3.8,1.1l-49.5,15.6c-19.3,6.1-34.7,21.1-41.1,40.3l-30,89.4c-2.1,6.2-5.8,11.7-10.8,15.9l-67.4,57.6
	c-2.8,2.4-4.4,6-4.4,9.7s1.8,7.2,4.7,9.6c5.4,4.3,11.6,7.2,18.1,8.5c-6.1,11.2-7.3,24.9-2.6,37.3c1.4,3.8,3.3,7.1,5.6,10.1H16.6
	c-4,0-7.3,3.3-7.3,7.3c0,4,3.3,7.3,7.3,7.3h435.9h0h0h46.7c4,0,7.3-3.3,7.3-7.3C506.6,453,503.3,449.8,499.3,449.8z M333.5,279.9
	l25.7,64c0.1,0.4,0.3,0.7,0.5,1c4.6,7.6,11,13.9,18.8,18.2l8.5,4.8l-53.5-16.3V279.9z M412,328l65.5,56c-8.8,5.9-20.1,6.4-29.4,1.2
	l-62.4-34.8c-5.3-3-9.8-7.3-13.1-12.5l-22.9-57.1l34-14.8l13.3,39.6C399.8,314.3,405,322,412,328z M224,113.7V79.7
	c0-20.4,16.6-37.1,37.1-37.1s37.1,16.6,37.1,37.1v33.9c0,20.4-16.6,37.1-37.1,37.1S224,134.1,224,113.7z M180.7,185.1l49.5-15.6
	c18.2-5.7,37.4-5.7,55.5,0l49.5,15.6c14.9,4.7,26.7,16.3,31.7,31.1l12,35.9l-34.8,15.2L333,239.5c-1.3-3.2-4.7-5.1-8.1-4.4
	c-3.4,0.7-5.9,3.7-5.9,7.2v107.4H197V242.2c0-3.5-2.5-6.5-5.9-7.2c-3.4-0.7-6.8,1.2-8.1,4.4l-9.7,24.1l-34.4-17.2l10.1-30.2
	C153.9,201.4,165.8,189.8,180.7,185.1z M103.9,328c7-6,12.2-13.7,15.1-22.4l15.2-45.3l33.6,16.8l-5.3,13.2c-1.5,3.7,0.3,8,4,9.5
	c3.7,1.5,8-0.3,9.5-4l6.4-15.9v71.6l-52.5,15.8l7.5-4.2c7.7-4.3,14.2-10.6,18.8-18.2c0.2-0.3,0.4-0.7,0.5-1l5.4-13.5
	c1.5-3.7-0.3-8-4-9.5c-3.7-1.5-8,0.3-9.5,4l-5.2,13c-3.2,5.2-7.7,9.5-13.1,12.5l-62.4,34.8c-9.4,5.2-20.7,4.7-29.4-1.2L103.9,328z
	 M79,449.8L79,449.8c-10.6,0-18.8-5.6-22.5-15.3c-4.2-11-1.3-23.9,6.9-32l127.3-38.3h134.4l120.9,36.9c9.4,2.9,16.1,10.4,17.9,20.1
	s-1.8,19.1-9.5,25.2l-4.4,3.4H296.3c-0.9-5.1-3.2-11.9-8.6-17.9l14.5-0.8c4-0.2,7.1-3.7,6.9-7.7c-0.2-4-3.7-7.1-7.7-6.9l-39.5,2.2
	c-1.7-0.3-3.4-0.6-5.2-0.7l-112.3-11.7c-4-0.4-7.6,2.5-8,6.5c-0.4,4,2.5,7.6,6.5,8l112.3,11.7c1.7,0.2,3.3,0.4,4.8,0.7
	c0,0,0.1,0,0.1,0c14.5,2.9,19.7,10.8,21.4,16.6H79z"/>
</svg>
