<svg xmlns="http://www.w3.org/2000/svg" xmlns:xlink="http://www.w3.org/1999/xlink" width="1080" zoomAndPan="magnify" viewBox="0 0 810 1012.49997" height="1350" preserveAspectRatio="xMidYMid meet" version="1.2"><g id="53c20eabfb"><path style=" stroke:none;fill-rule:nonzero;fill:#ffffff;fill-opacity:1;" d="M 682.042969 726.679688 L 650.046875 726.679688 C 657.449219 716.542969 660.523438 703.789062 658.128906 691.035156 C 656.878906 684.203125 654.03125 677.828125 650.160156 672.476562 C 657.21875 670.882812 663.824219 667.695312 669.746094 663.023438 C 673.046875 660.40625 674.984375 656.421875 675.097656 652.09375 C 675.210938 647.878906 673.390625 643.78125 670.085938 641.046875 L 593.339844 575.460938 C 587.644531 570.675781 583.433594 564.300781 581.042969 557.355469 L 563.164062 503.835938 L 546.992188 455.667969 C 539.707031 433.804688 522.171875 416.609375 500.195312 409.777344 L 444.625 392.355469 C 459.769531 381.652344 469.5625 364.117188 469.5625 344.304688 L 469.5625 305.246094 C 469.5625 272.792969 443.144531 246.488281 410.804688 246.488281 C 378.46875 246.488281 352.050781 272.90625 352.050781 305.246094 L 352.050781 343.847656 C 352.050781 362.75 361.042969 379.601562 374.9375 390.421875 C 373.457031 390.761719 372.089844 391.21875 370.609375 391.671875 L 314.246094 409.4375 C 292.265625 416.382812 274.730469 433.464844 267.445312 455.328125 L 233.28125 557.125 C 230.890625 564.1875 226.679688 570.449219 220.984375 575.230469 L 144.238281 640.820312 C 141.046875 643.554688 139.226562 647.652344 139.226562 651.867188 C 139.226562 656.078125 141.277344 660.0625 144.578125 662.796875 C 150.726562 667.695312 157.789062 670.996094 165.1875 672.476562 C 158.242188 685.230469 156.875 700.828125 162.226562 714.949219 C 163.824219 719.277344 165.984375 723.035156 168.605469 726.449219 L 132.394531 726.449219 C 127.839844 726.449219 124.082031 730.207031 124.082031 734.761719 C 124.082031 739.316406 127.839844 743.074219 132.394531 743.074219 L 681.929688 743.074219 C 686.484375 743.074219 690.242188 739.316406 690.242188 734.761719 C 690.355469 730.320312 686.597656 726.679688 682.042969 726.679688 Z M 493.246094 533.214844 L 522.511719 606.089844 C 522.625 606.546875 522.855469 606.886719 523.082031 607.230469 C 528.320312 615.882812 535.605469 623.054688 544.488281 627.953125 L 554.167969 633.417969 L 493.246094 614.859375 Z M 582.636719 587.984375 L 657.21875 651.75 C 647.199219 658.46875 634.332031 659.039062 623.742188 653.117188 L 552.6875 613.492188 C 546.652344 610.074219 541.527344 605.179688 537.769531 599.257812 L 511.695312 534.238281 L 550.410156 517.386719 L 565.554688 562.476562 C 568.742188 572.382812 574.664062 581.152344 582.636719 587.984375 Z M 368.558594 343.960938 L 368.558594 305.246094 C 368.558594 282.015625 387.460938 263 410.804688 263 C 434.148438 263 453.050781 281.902344 453.050781 305.246094 L 453.050781 343.847656 C 453.050781 367.078125 434.148438 386.09375 410.804688 386.09375 C 387.460938 386.09375 368.558594 367.191406 368.558594 343.960938 Z M 319.253906 425.265625 L 375.621094 407.5 C 396.34375 401.011719 418.207031 401.011719 438.816406 407.5 L 495.183594 425.265625 C 512.148438 430.617188 525.585938 443.824219 531.28125 460.679688 L 544.945312 501.558594 L 505.316406 518.867188 L 492.679688 487.210938 C 491.199219 483.566406 487.328125 481.402344 483.453125 482.199219 C 479.582031 482.996094 476.738281 486.414062 476.738281 490.398438 L 476.738281 612.695312 L 337.816406 612.695312 L 337.816406 490.285156 C 337.816406 486.300781 334.96875 482.882812 331.097656 482.085938 C 327.226562 481.289062 323.355469 483.453125 321.875 487.097656 L 310.828125 514.539062 L 271.65625 494.953125 L 283.15625 460.566406 C 288.738281 443.824219 302.289062 430.617188 319.253906 425.265625 Z M 231.800781 587.984375 C 239.773438 581.152344 245.695312 572.382812 248.996094 562.476562 L 266.304688 510.894531 L 304.566406 530.023438 L 298.53125 545.054688 C 296.820312 549.269531 298.871094 554.164062 303.085938 555.875 C 307.296875 557.582031 312.195312 555.53125 313.902344 551.320312 L 321.191406 533.214844 L 321.191406 614.746094 L 261.410156 632.734375 L 269.949219 627.953125 C 278.71875 623.058594 286.117188 615.882812 291.355469 607.230469 C 291.585938 606.886719 291.8125 606.429688 291.925781 606.089844 L 298.074219 590.71875 C 299.78125 586.503906 297.734375 581.609375 293.519531 579.898438 C 289.308594 578.191406 284.410156 580.242188 282.703125 584.453125 L 276.78125 599.257812 C 273.136719 605.179688 268.011719 610.074219 261.863281 613.492188 L 190.808594 653.117188 C 180.105469 659.039062 167.238281 658.46875 157.332031 651.75 Z M 203.449219 726.679688 C 191.378906 726.679688 182.042969 720.300781 177.828125 709.257812 C 173.046875 696.730469 176.347656 682.042969 185.683594 672.816406 L 330.640625 629.207031 L 483.683594 629.207031 L 621.351562 671.222656 C 632.054688 674.527344 639.683594 683.066406 641.734375 694.109375 C 643.78125 705.15625 639.683594 715.859375 630.914062 722.804688 L 625.90625 726.679688 L 450.886719 726.679688 C 449.863281 720.871094 447.242188 713.128906 441.09375 706.296875 L 457.605469 705.382812 C 462.160156 705.15625 465.691406 701.171875 465.464844 696.617188 C 465.234375 692.0625 461.25 688.53125 456.695312 688.757812 L 411.714844 691.265625 C 409.78125 690.921875 407.84375 690.582031 405.796875 690.46875 L 277.917969 677.144531 C 273.363281 676.6875 269.265625 679.992188 268.808594 684.546875 C 268.355469 689.101562 271.65625 693.199219 276.210938 693.65625 L 404.085938 706.980469 C 406.023438 707.207031 407.84375 707.433594 409.554688 707.777344 C 409.554688 707.777344 409.667969 707.777344 409.667969 707.777344 C 426.179688 711.078125 432.097656 720.074219 434.035156 726.679688 Z M 203.449219 726.679688 "/></g></svg>