<?xml version="1.0" encoding="utf-8"?>
<!-- Generator: Adobe Illustrator 26.0.0, SVG Export Plug-In . SVG Version: 6.00 Build 0)  -->
<svg version="1.1" id="Layer_1" xmlns="http://www.w3.org/2000/svg" xmlns:xlink="http://www.w3.org/1999/xlink" x="0px" y="0px"
	 viewBox="0 0 512 512" style="enable-background:new 0 0 512 512;" xml:space="preserve">
<style type="text/css">
	.st0{fill:#ffffff;}
	.st1{fill:#ffffff;}
</style>
<g>
	<path class="st0" d="M386.4,509.3H125.6c-46.1-0.9-82.1-37.3-82.1-82.9c0-70,56.9-126.9,126.9-126.9H208c2.5,0,4.5,2,4.5,4.5
		s-2,4.5-4.5,4.5h-37.6c-65,0-117.9,52.9-117.9,117.9c0,40.7,32.1,73.1,73.2,73.9l260.7,0c40.3,0,73.1-32.8,73.1-73.1
		c0-65-52.9-117.9-117.9-117.9h-36.8c-2.5,0-4.5-2-4.5-4.5s2-4.5,4.5-4.5h36.8c70,0,126.9,56.9,126.9,126.9
		C468.5,472.5,431.7,509.3,386.4,509.3z"/>
	<path class="st0" d="M256,359.7c-14.4,0-27.8-5.5-37.8-15.5c-10-10-15.5-23.4-15.5-37.8v-27.2c0-2.5,2-4.5,4.5-4.5s4.5,2,4.5,4.5
		v27.2c0,24.8,19.5,44.3,44.3,44.3c11.7,0,22.8-4.6,31.2-13.1c8.4-8.4,13.1-19.5,13.1-31.2v-28c0-2.5,2-4.5,4.5-4.5s4.5,2,4.5,4.5
		v28c0,14.1-5.6,27.4-15.7,37.6C283.4,354.1,270.1,359.7,256,359.7z"/>
	<g>
		<path class="st1" d="M357.6,418.1c-2.5,0-4.5-2-4.5-4.5v-86.4c0-23.7-15.5-44.9-38.5-52.5c-2.4-0.8-3.6-3.3-2.8-5.7
			c0.8-2.4,3.3-3.6,5.7-2.8c26.7,8.9,44.7,33.4,44.7,61.1v86.4C362.1,416.1,360.1,418.1,357.6,418.1z"/>
		<path class="st1" d="M156,361.3c-2.5,0-4.5-2-4.5-4.5v-29.6c0-27.2,16.8-51.1,42.9-61c2.3-0.9,4.9,0.3,5.8,2.6
			c0.9,2.3-0.3,4.9-2.6,5.8c-22.5,8.5-37.1,29.2-37.1,52.6v29.6C160.5,359.3,158.5,361.3,156,361.3z"/>
		<path class="st1" d="M199.2,463.7h-5.6c-2.5,0-4.5-2-4.5-4.5s2-4.5,4.5-4.5h5.6c3.1,0,5.9-2.8,5.9-5.9v-38.4
			c0-27.1-22-49.1-49.1-49.1s-49.1,22-49.1,49.1v38.4c0,3.1,2.8,5.9,5.9,5.9h7.2c2.5,0,4.5,2,4.5,4.5s-2,4.5-4.5,4.5h-7.2
			c-8.1,0-14.9-6.8-14.9-14.9v-38.4c0-32,26.1-58.1,58.1-58.1s58.1,26.1,58.1,58.1v38.4C214.1,456.9,207.3,463.7,199.2,463.7z"/>
	</g>
	<path class="st1" d="M357.6,474.9c-18.4,0-33.3-14.9-33.3-33.3s14.9-33.3,33.3-33.3c18.4,0,33.3,14.9,33.3,33.3
		S376,474.9,357.6,474.9z M357.6,417.3c-13.4,0-24.3,10.9-24.3,24.3s10.9,24.3,24.3,24.3s24.3-10.9,24.3-24.3S371,417.3,357.6,417.3
		z"/>
	<path class="st0" d="M257.1,298.2c-18,0-35.7-5.2-51.5-15.1c-4.1-2.5-8.4-5.8-11.9-9.4c-16.8-15.1-27.8-34.7-31-55.4
		c0-0.2-0.1-0.5-0.1-0.7v-1.7c-0.8-2.7-0.8-4.8-0.8-7.1v-38.4c0-2.5,2-4.5,4.5-4.5s4.5,2,4.5,4.5v38.4c0,2.2,0,3.3,0.6,5
		c0.2,0.5,0.2,0.9,0.2,1.4v2.1c2.9,18.5,12.9,36.2,28.1,49.8c0.1,0.1,0.1,0.1,0.2,0.2c3.1,3.1,6.8,6,10.3,8.1c0,0,0.1,0,0.1,0.1
		c15.4,9.7,32.7,14.4,50.2,13.7c14.1-0.7,28.6-5.5,41.8-13.7c2.5-1.5,4.7-3.4,7.1-5.4c1.1-1,2.3-2,3.6-3
		c18.6-17.1,28.8-40.6,28.8-66.2V172c0-2.5,2-4.5,4.5-4.5s4.5,2,4.5,4.5v28.8c0,28.2-11.3,54.1-31.9,72.9c-0.1,0.1-0.2,0.1-0.2,0.2
		c-1.2,1-2.4,2-3.5,2.9c-2.6,2.3-5.2,4.4-8.2,6.2c-14.5,9-30.4,14.3-46.1,15C259.7,298.1,258.4,298.2,257.1,298.2z"/>
	<path class="st0" d="M345.6,221.3c-2.5,0-4.5-2-4.5-4.5s2-4.5,4.5-4.5c10.8,0,19.5-8,19.5-17.9c0-9.6-7.8-17.3-18.2-17.9
		c-2.5-0.2-4.4-2.3-4.2-4.8c0.2-2.5,2.3-4.4,4.8-4.2c15.2,0.9,26.6,12.5,26.6,26.9C374.1,209.2,361.3,221.3,345.6,221.3z"/>
	<path class="st0" d="M168,221.3c-15.7,0-28.5-12.1-28.5-26.9c0-14.4,11.4-25.9,26.6-26.9c2.5-0.2,4.6,1.7,4.8,4.2
		c0.2,2.5-1.7,4.6-4.2,4.8c-10.4,0.6-18.2,8.3-18.2,17.9c0,9.9,8.7,17.9,19.5,17.9c2.5,0,4.5,2,4.5,4.5S170.5,221.3,168,221.3z"/>
	<path class="st0" d="M169.6,176.5c-4.3,0-9.1-3.5-10.6-7.7c-5.6-13.2-15.2-38.7-17.7-62.8c-1.9-19.3,0.4-44.3,22.4-54.2
		c9.1-4.1,16.5-8.8,22.8-14.5c0.1,0,0.1-0.1,0.2-0.1c19-15.4,49-33.8,83.6-33.8c14.1,0,28.3,3.3,43.4,10c0.1,0,0.1,0.1,0.2,0.1
		c22.5,11.2,40,30.7,49.5,54.8c9.3,23.7,10.1,50.2,2.4,74.6c-2.3,7.7-6.2,16.6-11.5,26.4c-0.1,0.1-0.1,0.2-0.2,0.3
		c-2.5,3.8-6.3,6-10.1,6h-1.6c-5.7,0-10.4-5-11.6-9.8c0-0.1-0.1-0.2-0.1-0.4l-3.2-19c-0.5-2-1.8-3.8-3.6-5c-1-0.7-3-1.7-5.3-1.1
		c-0.1,0-0.2,0-0.3,0.1c-57.6,10.7-98.2-3.7-117.2-13.2c-1.8-0.9-4.2-0.8-6.3,0.2s-3.6,2.8-4.1,4.8c0,0,0,0.1,0,0.1l-8.8,35.2v0
		C180.6,172.8,175.6,176.5,169.6,176.5z M192.5,44.2c-7,6.2-15.2,11.4-25,15.9c-35,15.6-9,84.6-0.1,105.3c0,0.1,0.1,0.2,0.1,0.3
		c0.2,0.6,1.5,1.6,2.2,1.7c2,0,3.3-1.1,3.6-2.2l8.8-35.1c1.1-4.7,4.3-8.7,9-10.9c4.6-2.2,9.9-2.2,14.2-0.1
		c18,9,56.5,22.6,111.4,12.4c4.3-1,8.7-0.1,12.5,2.5c3.5,2.4,6.2,6.2,7.2,10.4c0,0.1,0.1,0.2,0.1,0.4l3.2,19c0.4,1.5,2,2.9,2.8,2.9
		h1.6c0.6,0,1.7-0.6,2.6-1.9c5-9.2,8.6-17.4,10.7-24.5c14.8-46.8-5.5-97.7-47.2-118.6c-13.9-6.2-26.9-9.2-39.7-9.2
		C238.5,12.5,210.4,29.7,192.5,44.2z M177.6,166.4L177.6,166.4L177.6,166.4z"/>
</g>
</svg>
