<?xml version="1.0" encoding="utf-8"?>
<!-- Generator: Adobe Illustrator 26.0.0, SVG Export Plug-In . SVG Version: 6.00 Build 0)  -->
<svg version="1.1" id="Layer_1" xmlns="http://www.w3.org/2000/svg" xmlns:xlink="http://www.w3.org/1999/xlink" x="0px" y="0px"
	 viewBox="0 0 70.4 64.7" style="enable-background:new 0 0 70.4 64.7;" xml:space="preserve">
<style type="text/css">
	.st0{clip-path:url(#SVGID_00000052817523139229550830000015206102805764734631_);}
	.st1{fill:#ffffff;}
</style>
<g>
	<defs>
		<rect id="SVGID_1_" x="6.2" y="11.5" width="58" height="41.7"/>
	</defs>
	<clipPath id="SVGID_00000059291966488254709380000010324609123690382757_">
		<use xlink:href="#SVGID_1_"  style="overflow:visible;"/>
	</clipPath>
	<g style="clip-path:url(#SVGID_00000059291966488254709380000010324609123690382757_);">
		<path class="st1" d="M12.7,41.3c-0.2,0-0.3,0-0.5-0.1s-0.2-0.2-0.3-0.4c-0.1-0.2-0.1-0.3-0.1-0.5c0-0.2,0.1-0.3,0.2-0.4
			c1.8-1.9,3.9-3.5,6.3-4.5c0.1-0.1,0.2-0.1,0.3-0.1c0.1,0,0.2,0,0.3,0c0.1,0,0.2,0.1,0.3,0.2c0.1,0.1,0.2,0.2,0.2,0.3
			s0.1,0.2,0.1,0.3c0,0.1,0,0.2-0.1,0.3c0,0.1-0.1,0.2-0.2,0.3c-0.1,0.1-0.2,0.1-0.3,0.2c-2.2,1-4.2,2.4-5.8,4.2
			c-0.1,0.1-0.2,0.2-0.3,0.2C12.9,41.3,12.8,41.3,12.7,41.3z"/>
		<path class="st1" d="M56.7,40.8c-0.2,0-0.4-0.1-0.6-0.2c-1.6-1.6-3.5-2.9-5.6-3.8c-0.1,0-0.2-0.1-0.3-0.2
			c-0.1-0.1-0.1-0.2-0.2-0.3s-0.1-0.2-0.1-0.3c0-0.1,0-0.2,0.1-0.3s0.1-0.2,0.2-0.3c0.1-0.1,0.2-0.1,0.3-0.2c0.1,0,0.2-0.1,0.3-0.1
			c0.1,0,0.2,0,0.3,0.1c2.3,1,4.4,2.4,6.1,4.2c0.1,0.1,0.2,0.3,0.2,0.4c0,0.2,0,0.3,0,0.5c-0.1,0.2-0.2,0.3-0.3,0.4
			C57,40.7,56.9,40.8,56.7,40.8z"/>
		<path class="st1" d="M48.1,38c-0.2,0-0.4-0.1-0.6-0.2c-0.2-0.2-0.2-0.4-0.2-0.6s0.1-0.4,0.2-0.6c0.2-0.2,0.4-0.2,0.6-0.2
			c0.4,0,0.7-0.1,1-0.2c0.3-0.1,0.6-0.3,0.9-0.6c0.3-0.2,0.5-0.5,0.6-0.9c0.1-0.3,0.2-0.7,0.2-1c0-0.4-0.1-0.7-0.2-1
			c-0.1-0.3-0.3-0.6-0.6-0.9c-0.3-0.2-0.6-0.4-0.9-0.6c-0.3-0.1-0.7-0.2-1-0.2c-0.2,0-0.4-0.1-0.6-0.2c-0.2-0.2-0.2-0.4-0.2-0.6
			c0-0.2,0.1-0.4,0.2-0.6c0.2-0.2,0.4-0.2,0.6-0.2c0.6,0,1.1,0.1,1.7,0.3s1,0.5,1.4,0.9c0.4,0.4,0.7,0.9,1,1.4
			c0.2,0.5,0.3,1.1,0.3,1.7c0,0.6-0.1,1.1-0.3,1.7c-0.2,0.5-0.5,1-1,1.4c-0.4,0.4-0.9,0.7-1.4,0.9C49.3,37.9,48.7,38,48.1,38z"/>
		<path class="st1" d="M22.2,32c-0.1,0-0.1,0-0.2,0c-0.2,0-0.4-0.2-0.5-0.3c-0.1-0.1-0.2-0.3-0.2-0.5c0-3.8,0.2-6.7,0.7-9.1
			c0.6-3,1.7-5.4,3.4-7c0.1-0.1,0.2-0.2,0.3-0.2s0.2-0.1,0.3-0.1c0.1,0,0.2,0,0.3,0.1c0.1,0,0.2,0.1,0.3,0.2
			c0.1,0.1,0.1,0.2,0.2,0.3c0,0.1,0.1,0.2,0.1,0.3c0,0.1,0,0.2-0.1,0.3c0,0.1-0.1,0.2-0.2,0.3c-2.6,2.7-3.4,7.3-3.6,11.9
			c1-1.4,2.4-2.9,3.8-3.3c0.4-0.1,0.7-0.1,1.1,0c0.4,0.1,0.7,0.2,1,0.4c2.2,1.6,3.9,1.7,5.9,1.7c2,0,3.7-0.1,5.9-1.7
			c0.3-0.2,0.6-0.4,1-0.4c0.4-0.1,0.7-0.1,1.1,0c1.4,0.3,2.8,1.9,3.8,3.3c-0.3-5.7-1.6-9.6-3.9-11.9c-1.9-1.9-4.5-2.9-7.9-2.9
			c-2.1,0-3.9,0.3-5.3,0.9c-0.2,0.1-0.4,0.1-0.6,0c-0.2-0.1-0.4-0.2-0.4-0.5c-0.1-0.2-0.1-0.4,0-0.6c0.1-0.2,0.2-0.4,0.4-0.5
			c1.7-0.7,3.7-1.1,6-1.1c3.9,0,6.9,1.1,9.1,3.3c3.1,3.1,4.6,8.3,4.5,16.3c0,0.2-0.1,0.4-0.2,0.5c-0.1,0.1-0.3,0.3-0.5,0.3
			c-0.2,0-0.4,0-0.5-0.1c-0.2-0.1-0.3-0.2-0.4-0.4c-0.5-0.9-1-1.7-1.5-2.5C44,27,43,26.5,42.6,26.4c-0.1,0-0.2,0-0.4,0
			c-0.1,0-0.2,0.1-0.3,0.2c-2.6,1.9-4.8,2-6.9,2c-2.1,0-4.3-0.2-6.9-2c-0.1-0.1-0.2-0.1-0.3-0.1c-0.1,0-0.3,0-0.4,0
			c-0.4,0.1-1.4,0.6-2.9,2.7c-0.6,0.8-1.1,1.6-1.5,2.5c-0.1,0.1-0.2,0.3-0.3,0.3C22.5,31.9,22.3,32,22.2,32z"/>
		<path class="st1" d="M47.7,32c-0.2,0-0.3,0-0.4-0.1c-0.1-0.1-0.2-0.2-0.3-0.3c-0.5-0.9-1-1.7-1.5-2.5C44,27,43,26.5,42.6,26.4
			c-0.1,0-0.2,0-0.4,0c-0.1,0-0.2,0.1-0.3,0.2c-2.6,1.9-4.8,2-6.9,2c-2.1,0-4.3-0.2-6.9-2c-0.1-0.1-0.2-0.1-0.3-0.1
			c-0.1,0-0.3,0-0.4,0c-0.4,0.1-1.4,0.6-2.9,2.6c-0.6,0.8-1.1,1.6-1.5,2.5c-0.1,0.2-0.3,0.3-0.5,0.4c-0.2,0.1-0.4,0-0.6-0.1
			c-0.2-0.1-0.3-0.3-0.4-0.5c-0.1-0.2-0.1-0.4,0-0.6c0.3-0.5,2.8-5.3,5.5-6c0.4-0.1,0.7-0.1,1.1,0c0.4,0.1,0.7,0.2,1,0.4
			c2.2,1.6,3.9,1.7,5.9,1.7c2,0,3.7-0.1,5.9-1.7c0.3-0.2,0.6-0.4,1-0.4c0.4-0.1,0.7-0.1,1.1,0c2.7,0.7,5.2,5.5,5.5,6
			c0.1,0.1,0.1,0.3,0.1,0.4c0,0.1,0,0.3-0.1,0.4c-0.1,0.1-0.2,0.2-0.3,0.3C48,31.9,47.9,32,47.7,32L47.7,32z"/>
		<path class="st1" d="M24.5,42.8c-0.1,0-0.3,0-0.4-0.1c-0.1-0.1-0.2-0.2-0.3-0.3c-1.6-2.9-2.5-6.2-2.5-9.7c0-0.5,0-1.1,0.1-1.6
			c0-0.1,0-0.2,0.1-0.3c0-0.1,0.1-0.2,0.2-0.3c0.1-0.1,0.2-0.1,0.3-0.2c0.1,0,0.2-0.1,0.3,0c0.1,0,0.2,0,0.3,0.1
			c0.1,0.1,0.2,0.1,0.3,0.2c0.1,0.1,0.1,0.2,0.2,0.3c0,0.1,0,0.2,0,0.3c0,0.5-0.1,1-0.1,1.5c0,3.2,0.8,6.3,2.3,8.9
			c0.1,0.1,0.1,0.3,0.1,0.4c0,0.1,0,0.3-0.1,0.4c-0.1,0.1-0.2,0.2-0.3,0.3C24.8,42.8,24.7,42.8,24.5,42.8z"/>
		<path class="st1" d="M45.4,42.8c-0.1,0-0.3,0-0.4-0.1c-0.1-0.1-0.2-0.2-0.3-0.3c-0.1-0.1-0.1-0.3-0.1-0.4c0-0.1,0-0.3,0.1-0.4
			c1.5-2.6,2.3-5.7,2.3-8.9c0-0.5,0-1.1-0.1-1.6c0-0.2,0.1-0.4,0.2-0.6c0.1-0.2,0.4-0.3,0.6-0.3c0.2,0,0.4,0.1,0.6,0.2
			c0.2,0.1,0.3,0.4,0.3,0.6c0,0.6,0.1,1.1,0.1,1.7c0,3.5-0.9,6.9-2.5,9.7c-0.1,0.1-0.2,0.2-0.3,0.3C45.7,42.8,45.6,42.8,45.4,42.8z"
			/>
		<path class="st1" d="M17.9,53.2H10c-0.5,0-1.1-0.1-1.5-0.3C8,52.7,7.5,52.4,7.2,52c-0.4-0.4-0.6-0.9-0.8-1.4
			c-0.2-0.5-0.2-1-0.2-1.6c0.4-3.8,1.6-6.5,3.5-8.1c1.6-1.3,3.8-1.8,6.4-1.5c3.8,0.5,12.5,3,19.1,5c0.2,0.1,0.4,0.2,0.5,0.4
			c0.1,0.2,0.1,0.4,0.1,0.6c-0.1,0.2-0.2,0.4-0.4,0.5c-0.2,0.1-0.4,0.1-0.6,0.1c-5.4-1.6-14.9-4.5-18.8-5c-2.1-0.3-3.9,0.1-5.1,1.1
			c-1.6,1.3-2.6,3.6-2.9,6.9c0,0.3,0,0.6,0.1,0.9c0.1,0.3,0.2,0.5,0.4,0.8c0.2,0.2,0.4,0.4,0.7,0.5c0.3,0.1,0.6,0.2,0.9,0.2h7.9
			c0.2,0,0.4,0.1,0.6,0.2c0.2,0.2,0.2,0.4,0.2,0.6c0,0.2-0.1,0.4-0.2,0.6C18.4,53.1,18.2,53.2,17.9,53.2z"/>
		<path class="st1" d="M60.4,53.2H49.3c-0.2,0-0.4-0.1-0.6-0.2c-0.2-0.2-0.2-0.4-0.2-0.6c0-0.2,0.1-0.4,0.2-0.6
			c0.2-0.2,0.4-0.2,0.6-0.2h11.1c0.3,0,0.6-0.1,0.9-0.2c0.3-0.1,0.5-0.3,0.7-0.5c0.2-0.2,0.3-0.5,0.4-0.7c0.1-0.3,0.1-0.6,0.1-0.9
			c-0.3-3.3-1.3-5.7-2.9-6.9c-1.3-1-3-1.4-5.1-1.1c-5.1,0.6-20.1,5.3-23,6.3c-0.1,0-0.1,0.1-0.2,0.1c0,0.1-0.1,0.1-0.1,0.2v3.7h14.2
			c0.2,0,0.4,0.1,0.6,0.2c0.2,0.2,0.2,0.4,0.2,0.6S46.2,52.8,46,53c-0.2,0.2-0.4,0.2-0.6,0.2H30.3c-0.2,0-0.4-0.1-0.6-0.2
			c-0.2-0.2-0.2-0.4-0.2-0.6v-4.6c0-0.4,0.1-0.9,0.4-1.2c0.3-0.4,0.6-0.6,1-0.7c4.2-1.3,18.2-5.7,23.3-6.4c2.6-0.3,4.8,0.2,6.4,1.5
			c2,1.6,3.1,4.3,3.5,8.1c0.1,0.5,0,1.1-0.2,1.6c-0.2,0.5-0.4,1-0.8,1.4c-0.4,0.4-0.8,0.7-1.3,0.9C61.4,53.1,60.9,53.2,60.4,53.2
			L60.4,53.2z"/>
		<path class="st1" d="M21.8,38c-1.1,0-2.2-0.5-3-1.3c-0.8-0.8-1.2-1.9-1.2-3c0-1.1,0.4-2.2,1.2-3c0.8-0.8,1.9-1.3,3-1.3
			c0.2,0,0.4,0.1,0.6,0.2c0.2,0.2,0.2,0.4,0.2,0.6c0,0.2-0.1,0.4-0.2,0.6C22.2,30.9,22,31,21.8,31c-0.7,0-1.4,0.3-1.8,0.8
			c-0.5,0.5-0.8,1.2-0.8,1.9c0,0.7,0.3,1.4,0.8,1.9c0.5,0.5,1.1,0.8,1.8,0.8c0.2,0,0.4,0.1,0.6,0.2c0.2,0.2,0.2,0.4,0.2,0.6
			c0,0.2-0.1,0.4-0.2,0.6C22.2,37.9,22,38,21.8,38z"/>
		<path class="st1" d="M30.3,53.2H17.5c-0.3,0-0.7-0.1-1-0.3c-0.3-0.2-0.5-0.5-0.6-0.8c-0.1-0.3-0.2-0.7-0.1-1
			c0.1-0.3,0.2-0.7,0.5-0.9c1.5-1.5,3.5-2.5,5.7-2.6l8.3-0.6c0.1,0,0.2,0,0.3,0c0.1,0,0.2,0.1,0.3,0.2c0.1,0.1,0.2,0.2,0.2,0.3
			c0.1,0.1,0.1,0.2,0.1,0.3c0,0.1,0,0.2,0,0.3c0,0.1-0.1,0.2-0.2,0.3s-0.2,0.2-0.3,0.2c-0.1,0.1-0.2,0.1-0.3,0.1l-8.3,0.6
			c-1.7,0.1-3.4,0.9-4.6,2.1c0,0,0,0,0,0c0,0,0,0,0,0c0,0,0,0,0,0c0,0,0,0,0,0h12.8c0.2,0,0.4,0.1,0.6,0.2c0.2,0.2,0.2,0.4,0.2,0.6
			c0,0.2-0.1,0.4-0.2,0.6C30.8,53.1,30.5,53.2,30.3,53.2L30.3,53.2z"/>
	</g>
</g>
</svg>
