<?xml version="1.0" encoding="UTF-8"?>
<svg version="1.1" xmlns="http://www.w3.org/2000/svg" width="1080" height="1350">
<path d="M0 0 C56.97505604 -0.04030303 56.97505604 -0.04030303 80.80273438 -0.04882812 C86.24764 -0.05079182 91.6925456 -0.05280651 97.13745117 -0.05493164 C98.16110882 -0.05532726 98.16110882 -0.05532726 99.20544642 -0.05573088 C110.22559006 -0.06008122 121.24572849 -0.06796561 132.26586904 -0.0771528 C143.57392679 -0.08650145 154.88198194 -0.09198332 166.19004375 -0.09408849 C172.5422608 -0.09539392 178.89446603 -0.09846919 185.24667931 -0.10573006 C191.22276811 -0.1125058 197.1988402 -0.11461377 203.17493248 -0.11310768 C205.37074881 -0.11338331 207.56656568 -0.11537922 209.76237869 -0.11920547 C212.75592838 -0.12416693 215.7494146 -0.12298915 218.7429657 -0.12025452 C219.6155377 -0.12316736 220.48810971 -0.1260802 221.38712329 -0.12908131 C225.41208039 -0.11911589 229.06076313 0.08009912 233 1 C233.99 1 234.98 1 236 1 C237.33530338 1.12653076 238.66876469 1.27361686 240 1.4375 C240.680625 1.51871094 241.36125 1.59992187 242.0625 1.68359375 C244.56913291 2.09294308 246.73217206 2.86608603 249 4 C249 4.66 249 5.32 249 6 C249.556875 5.79375 250.11375 5.5875 250.6875 5.375 C255.38942682 4.61252538 259.80887807 7.84893663 263.91015625 9.94921875 C265.21623922 10.60592215 266.53532002 11.23804418 267.87109375 11.83203125 C274.01756885 14.63053031 283.91473406 19.82946812 287 26 C288.05609194 26.96808428 289.14429389 27.90149431 290.25 28.8125 C293.3254053 31.41232716 296.31341839 33.98777213 299 37 C299 37.99 299 38.98 299 40 C299.99 40.33 300.98 40.66 302 41 C310.4254104 51.74031276 316.16577545 64.99697763 320 78 C320.33 78 320.66 78 321 78 C322.12124209 76.27404308 323.19368627 74.51644061 324.25 72.75 C327.90172402 66.69704813 331.74213738 60.78178476 335.625 54.875 C339.60706973 48.80156647 343.39211094 42.73333482 346.75390625 36.2890625 C348.00876356 33.98390141 349.39159715 31.85161556 350.875 29.6875 C354.28529584 24.71152744 357.21143302 19.48672242 360.16796875 14.234375 C360.77253906 13.16703125 361.37710937 12.0996875 362 11 C362.53238281 10.03578125 363.06476563 9.0715625 363.61328125 8.078125 C364.07089844 7.39234375 364.52851562 6.7065625 365 6 C365.66 6 366.32 6 367 6 C367.33 5.01 367.66 4.02 368 3 C368.66 3 369.32 3 370 3 C370.33 2.34 370.66 1.68 371 1 C378.36261724 0.88408183 385.72503734 0.79527352 393.08838272 0.74093914 C396.50765493 0.71485909 399.92630228 0.6794935 403.34521484 0.62280273 C407.27694178 0.55801773 411.20841689 0.5338061 415.140625 0.51171875 C416.36678528 0.48591232 417.59294556 0.4601059 418.85626221 0.43351746 C419.99714294 0.4331398 421.13802368 0.43276215 422.31347656 0.43237305 C423.31719299 0.42126999 424.32090942 0.41016693 425.3550415 0.39872742 C429.76673491 1.40162795 431.21522471 4.81086223 433.58398438 8.40014648 C434.33131836 9.62326538 434.33131836 9.62326538 435.09375 10.87109375 C435.64933594 11.77537109 436.20492188 12.67964844 436.77734375 13.61132812 C437.63005859 15.0102832 437.63005859 15.0102832 438.5 16.4375 C439.63445317 18.29095466 440.7698461 20.14383449 441.90625 21.99609375 C442.43992187 22.8660498 442.97359375 23.73600586 443.5234375 24.63232422 C444.74169615 26.5858084 445.98876915 28.50554211 447.28125 30.41015625 C448.72156222 32.58044489 449.85981945 34.66967082 451 37 C452.21201351 39.03116747 453.44335791 41.05085179 454.6875 43.0625 C455.04126709 43.63540771 455.39503418 44.20831543 455.75952148 44.79858398 C457.99420191 48.40814492 460.26782206 51.99069361 462.5625 55.5625 C465.67052355 60.41300815 468.5697076 65.36647292 471.421875 70.37109375 C472.91794535 72.96673349 472.91794535 72.96673349 474.578125 75.09765625 C476.00259321 77.00346949 476.95068598 78.86957456 478 81 C479.1497728 82.84397525 480.31781721 84.67663332 481.5 86.5 C483.51812609 89.61270295 485.3485015 92.68341042 487 96 C487.87657535 97.34607236 488.77407224 98.67865793 489.6875 100 C492.67443651 104.42642399 495.34534765 108.99041525 498.0078125 113.6171875 C500.30736189 117.52191254 502.70755006 121.35510982 505.125 125.1875 C508.1865223 130.04249208 511.12911796 134.91069161 513.83984375 139.97265625 C515.64915661 143.13438479 517.75266585 146.08812983 519.86328125 149.0546875 C521 151 521 151 521 154 C521.66 154 522.32 154 523 154 C524.88889522 157.55556747 525.42490078 160.62777425 524.8046875 164.62890625 C522.98984445 169.9765263 519.24667263 174.43992862 516 179 C512.5701236 184.29754446 509.3068261 189.70178859 506.1875 195.1875 C505.45847113 196.45841239 504.72928699 197.72923571 504 199 C503.52175781 199.84691406 503.04351563 200.69382812 502.55078125 201.56640625 C502.03902344 202.45199219 501.52726562 203.33757812 501 204.25 C500.525625 205.08015625 500.05125 205.9103125 499.5625 206.765625 C497.86353908 209.19513911 496.51931435 210.44614199 494 212 C491.46472645 212.3719368 491.46472645 212.3719368 488.55244446 212.36749268 C487.44613678 212.37306183 486.3398291 212.37863098 485.19999695 212.3843689 C483.99100235 212.37515411 482.78200775 212.36593933 481.53637695 212.35644531 C479.62133362 212.35951187 479.62133362 212.35951187 477.66760254 212.36264038 C474.16983594 212.36777068 470.67236396 212.35424836 467.17464471 212.33711338 C463.51692438 212.32207609 459.85920785 212.32325144 456.20146179 212.32244873 C450.0622352 212.3187576 443.92312051 212.30379518 437.78393555 212.28125 C429.89451606 212.25233709 422.00518651 212.24202304 414.1157198 212.2375679 C407.34085794 212.23359376 400.56601577 212.22109394 393.79116797 212.20722103 C391.60882407 212.20311662 389.42648087 212.20019384 387.2441349 212.19742584 C383.18786728 212.1916399 379.13168025 212.17697223 375.07543945 212.16113281 C373.25283852 212.15945602 373.25283852 212.15945602 371.39341736 212.15774536 C369.74664505 212.14918015 369.74664505 212.14918015 368.06660461 212.14044189 C367.10668263 212.13746723 366.14676065 212.13449257 365.15775013 212.13142776 C363 212 363 212 362 211 C361.90050923 209.24314326 361.8691974 207.48232667 361.8671875 205.72265625 C361.86589844 204.65208984 361.86460937 203.58152344 361.86328125 202.47851562 C361.86714844 201.35123047 361.87101562 200.22394531 361.875 199.0625 C361.87113281 197.93908203 361.86726563 196.81566406 361.86328125 195.65820312 C361.86521484 194.05041992 361.86521484 194.05041992 361.8671875 192.41015625 C361.86831543 191.42152588 361.86944336 190.43289551 361.87060547 189.41430664 C362 187 362 187 363 185 C409.53 184.67 456.06 184.34 504 184 C499.4612327 175.63084035 499.4612327 175.63084035 494.75 167.375 C493.87794922 165.89 493.87794922 165.89 492.98828125 164.375 C492.33214844 163.26125 491.67601562 162.1475 491 161 C490.18078991 159.60428384 489.36179173 158.2084433 488.54296875 156.8125 C483.72612749 148.60542394 478.87851066 140.41878989 473.95703125 132.27392578 C466.12730153 119.31011134 466.12730153 119.31011134 463.5625 114.5625 C461.23138088 110.28878161 458.65071428 106.18332824 456.0625 102.0625 C455.62768311 101.36946777 455.19286621 100.67643555 454.74487305 99.96240234 C452.83786119 96.92455078 450.9293346 93.88766014 449.01953125 90.8515625 C448.47683594 89.97242188 447.93414063 89.09328125 447.375 88.1875 C446.90835937 87.43855469 446.44171875 86.68960938 445.9609375 85.91796875 C445 84 445 84 445 81 C444.34 81 443.68 81 443 81 C442.75765625 80.48695313 442.5153125 79.97390625 442.265625 79.4453125 C440.56979384 76.16879921 438.65875831 73.03001167 436.75 69.875 C436.15264038 68.88064941 436.15264038 68.88064941 435.54321289 67.86621094 C433.73879334 64.86478579 431.92159272 61.87372133 430.07421875 58.8984375 C429.53410156 58.02445313 428.99398438 57.15046875 428.4375 56.25 C427.96183594 55.49203125 427.48617188 54.7340625 426.99609375 53.953125 C426 52 426 52 426 49 C425.34 49 424.68 49 424 49 C423.67128906 48.37996094 423.34257813 47.75992188 423.00390625 47.12109375 C416.69053578 35.36693247 409.67877089 24.02954113 402.62890625 12.70703125 C401.30211975 10.50208391 400.1315936 8.30655624 399 6 C396.74342339 9.49579974 394.49596009 12.99737176 392.25 16.5 C391.29867187 17.97339844 391.29867187 17.97339844 390.328125 19.4765625 C386.8761092 24.87033718 383.78216226 30.23515929 381 36 C380.0218583 37.67958822 379.02507907 39.34863975 378 41 C377.53980469 41.77859375 377.07960938 42.5571875 376.60546875 43.359375 C373.68408339 48.28468585 370.65584786 53.08907912 367.39453125 57.796875 C365.91404613 60.05413583 365.91404613 60.05413583 364.59375 62.8125 C362.79502627 66.40994746 360.77589212 69.81575518 358.6875 73.25 C357.88273758 74.58068386 357.07805018 75.9114131 356.2734375 77.2421875 C355.88381836 77.88510742 355.49419922 78.52802734 355.09277344 79.19042969 C353.65167376 81.57680833 352.23349113 83.97660757 350.8125 86.375 C348.3958975 90.42297841 345.79552796 94.3192419 343.1015625 98.1875 C341.82687915 99.93135309 341.82687915 99.93135309 342 102 C341.34 102 340.68 102 340 102 C339.9175 102.721875 339.835 103.44375 339.75 104.1875 C338.83834438 107.60620859 337.2287808 109.26178359 335 112 C334.06025564 113.88158168 333.12246726 115.7641816 332.19750977 117.65307617 C329.95448538 122.04903814 327.40498773 126.26488672 324.875 130.5 C324.06869141 131.87671875 324.06869141 131.87671875 323.24609375 133.28125 C322.47072266 134.580625 322.47072266 134.580625 321.6796875 135.90625 C321.21288574 136.69322266 320.74608398 137.48019531 320.26513672 138.29101562 C319.63889404 139.13696289 319.63889404 139.13696289 319 140 C318.34 140 317.68 140 317 140 C316.89558594 140.72445312 316.79117187 141.44890625 316.68359375 142.1953125 C315.92999558 145.28721814 314.81553331 147.22688851 313.0625 149.875 C312.44117188 150.82117188 311.81984375 151.76734375 311.1796875 152.7421875 C310.46039062 153.81726563 309.74109375 154.89234375 309 156 C308.12721854 157.31484827 307.25484149 158.62996506 306.3828125 159.9453125 C303.93148555 163.63669124 301.46733089 167.31930164 299 171 C298.34 171.99 297.68 172.98 297 174 C296.34 174 295.68 174 295 174 C294.7525 174.61875 294.505 175.2375 294.25 175.875 C293 178 293 178 290.9375 179 C288.78719721 179.8295822 288.78719721 179.8295822 288.25 182.125 C288.1675 182.74375 288.085 183.3625 288 184 C287.01 184 286.02 184 285 184 C284.7525 184.61875 284.505 185.2375 284.25 185.875 C282.79371361 188.35068687 281.62187494 188.95125002 279 190 C279 190.66 279 191.32 279 192 C259.24929159 209.22700678 233.07606574 212.32407053 208.1171875 212.23046875 C206.00920642 212.22927479 203.90122481 212.22882425 201.79324341 212.2290802 C197.40086482 212.22752443 193.00856878 212.21929912 188.61621094 212.20581055 C182.97808587 212.18871694 177.34005034 212.18499968 171.70190239 212.18575573 C167.36118715 212.1854845 163.02049158 212.18001267 158.67978287 212.17275429 C156.59928664 212.16956837 154.51878818 212.16760039 152.43828964 212.16686058 C149.54459532 212.16470214 146.65099786 212.15597177 143.75732422 212.14526367 C142.46390862 212.14594345 142.46390862 212.14594345 141.1443634 212.14663696 C135.22897582 212.11448791 135.22897582 212.11448791 133 211 C133 170.08 133 129.16 133 87 C135.64828179 85.6758591 137.66680112 85.87042958 140.62890625 85.8671875 C141.74587891 85.86589844 142.86285156 85.86460937 144.01367188 85.86328125 C145.18478516 85.86714844 146.35589844 85.87101563 147.5625 85.875 C148.73748047 85.87113281 149.91246094 85.86726562 151.12304688 85.86328125 C152.23873047 85.86457031 153.35441406 85.86585938 154.50390625 85.8671875 C155.53330322 85.86831543 156.5627002 85.86944336 157.62329102 85.87060547 C160 86 160 86 161 87 C161.09530981 90.04402422 161.12551639 93.06531708 161.11352539 96.10961914 C161.11367142 97.06561508 161.11381744 98.02161102 161.1139679 99.00657654 C161.11326835 102.18279245 161.10547403 105.35895052 161.09765625 108.53515625 C161.09579222 110.73091093 161.09436825 112.92666602 161.09336853 115.12242126 C161.08954219 120.91420633 161.07971091 126.7059665 161.06866455 132.4977417 C161.05845293 138.40278791 161.05387145 144.30783813 161.04882812 150.21289062 C161.03808875 161.80860472 161.02101093 173.40430029 161 185 C168.87670443 184.91508024 176.75321795 184.82000464 184.62964249 184.71247292 C188.28821379 184.66283306 191.94676063 184.6165045 195.60546875 184.578125 C199.14584747 184.54085855 202.68600365 184.49439595 206.22618866 184.44193649 C208.21323773 184.4147785 210.20040552 184.39679439 212.18756104 184.37905884 C219.97170326 184.25436442 227.36753092 183.53579607 235 182 C235.72830017 181.86052948 236.45660034 181.72105896 237.20697021 181.57736206 C242.44192306 180.4409067 246.84238733 178.29588059 251.5 175.75 C252.24830078 175.34523438 252.99660156 174.94046875 253.76757812 174.5234375 C258.85360418 171.72901549 263.66011469 168.88356627 268 165 C268.71027344 164.38125 269.42054688 163.7625 270.15234375 163.125 C278.98619654 154.91027193 285.77443346 144.2916528 290 133 C290.391875 131.989375 290.78375 130.97875 291.1875 129.9375 C292.19715014 126.28722642 292.61035263 122.76659127 293 119 C293.66 119 294.32 119 295 119 C294.814375 118.0925 294.62875 117.185 294.4375 116.25 C293.74033062 111.608571 294.33718592 107.11622899 294.84375 102.4765625 C294.8953125 101.65929687 294.946875 100.84203125 295 100 C294.67 99.67 294.34 99.34 294 99 C294.020625 98.113125 294.04125 97.22625 294.0625 96.3125 C293.99582847 92.77890876 293.19531151 90.30468476 292 87 C291.88527344 86.29230469 291.77054688 85.58460938 291.65234375 84.85546875 C288.87886193 72.71525792 282.35767736 62.03013416 274 53 C273.05512873 51.83929519 272.11619481 50.67368791 271.1875 49.5 C264.82465558 42.2281778 255.03593257 36.30159075 246 33 C244.52074729 32.43772632 243.0415821 31.87522233 241.5625 31.3125 C239.7990625 30.6628125 239.7990625 30.6628125 238 30 C238 29.34 238 28.68 238 28 C237.278125 28.20625 236.55625 28.4125 235.8125 28.625 C233 29 233 29 230.83871937 28.03846931 C227.13143359 26.68225829 223.66073413 26.72994386 219.76799011 26.75949097 C218.53039089 26.75692769 218.53039089 26.75692769 217.26778966 26.75431263 C214.50550491 26.75102062 211.74346352 26.7620167 208.98120117 26.77294922 C207.00019334 26.77351339 205.01918508 26.77319665 203.03817749 26.77206421 C197.66050931 26.77148995 192.2829302 26.78325623 186.90528274 26.79721212 C181.28519246 26.80970718 175.66510019 26.81088902 170.04499817 26.81326294 C159.4026468 26.8194813 148.76033648 26.83589697 138.11800319 26.85596192 C123.73693929 26.88248778 109.35586418 26.89329068 94.97478199 26.90496635 C72.31649058 26.92377729 49.65828578 26.96362063 27 27 C27 87.72 27 148.44 27 211 C18.94463602 215.02768199 9.00617072 212 0 212 C0 142.04 0 72.08 0 0 Z " fill="#FEFEFE" transform="translate(278,569)"/>
<path d="M0 0 C0 0.66 0 1.32 0 2 C0.56976562 2.21914063 1.13953125 2.43828125 1.7265625 2.6640625 C10.00466237 7.52851294 17.00589092 21.16492873 19.59375 30.03515625 C19.79484375 31.00775391 19.79484375 31.00775391 20 32 C20.165 32.79277344 20.33 33.58554687 20.5 34.40234375 C20.665 35.23894531 20.83 36.07554687 21 36.9375 C21.165 37.77152344 21.33 38.60554687 21.5 39.46484375 C21.665 40.30144531 21.83 41.13804687 22 42 C22.18304687 42.78503906 22.36609375 43.57007813 22.5546875 44.37890625 C23.10488364 47.6173414 23.13207753 50.71602555 23.125 54 C23.12757813 55.19625 23.13015625 56.3925 23.1328125 57.625 C23.01681664 60.57265956 22.63948775 63.13414747 22 66 C21.91621094 66.76957031 21.83242188 67.53914062 21.74609375 68.33203125 C20.21841104 80.61150619 13.02347562 94.55868409 4 103 C3.525625 103.474375 3.05125 103.94875 2.5625 104.4375 C2.046875 104.953125 1.53125 105.46875 1 106 C0.319375 106.7425 -0.36125 107.485 -1.0625 108.25 C-11.31230318 118.3781438 -24.52467743 124.53617498 -38.7578125 125.71875 C-41.03291544 125.87795117 -41.03291544 125.87795117 -43 127 C-44.66569565 127.06189349 -46.33403685 127.05795572 -48.00048828 127.02172852 C-49.58373901 126.99109314 -49.58373901 126.99109314 -51.19897461 126.95983887 C-52.86778687 126.91977722 -52.86778687 126.91977722 -54.5703125 126.87890625 C-56.1006311 126.84790833 -56.1006311 126.84790833 -57.66186523 126.81628418 C-61.4830314 126.73735555 -65.30400629 126.64937709 -69.125 126.5625 C-77.66375 126.376875 -86.2025 126.19125 -95 126 C-95 95.64 -95 65.28 -95 34 C-70 34 -70 34 -68 35 C-67.67 56.45 -67.34 77.9 -67 100 C-61.06 100 -55.12 100 -49 100 C-49 99.34 -49 98.68 -49 98 C-47.78763672 97.92652344 -47.78763672 97.92652344 -46.55078125 97.8515625 C-44.94783203 97.73941406 -44.94783203 97.73941406 -43.3125 97.625 C-41.72888672 97.52058594 -41.72888672 97.52058594 -40.11328125 97.4140625 C-37.09095643 97.01209709 -34.80546014 96.13004524 -32 95 C-31.34 95.33 -30.68 95.66 -30 96 C-29.67 95.01 -29.34 94.02 -29 93 C-27.21484375 91.74609375 -27.21484375 91.74609375 -24.9375 90.4375 C-17.24122391 85.50304547 -12.12687031 78.51203586 -9 70 C-8.01 68.515 -8.01 68.515 -7 67 C-6.58217613 64.78757151 -6.58217613 64.78757151 -6.4375 62.4375 C-6.09589041 58.19178082 -6.09589041 58.19178082 -5 56 C-4.65567961 51.86815536 -5.61131729 48.87369388 -7 45 C-7.71895292 42.5240554 -8.4248972 40.04493799 -9.12109375 37.5625 C-12.98282546 26.30340666 -20.9082993 18.90216005 -31.1953125 13.33984375 C-35.94666491 11.07004727 -39.66596712 10 -45 10 C-45 9.34 -45 8.68 -45 8 C-45.66 8.33 -46.32 8.66 -47 9 C-49.09051504 9.0942503 -51.18412597 9.12190226 -53.27676392 9.12025452 C-54.25325443 9.12153615 -54.25325443 9.12153615 -55.24947202 9.12284368 C-57.44059358 9.12449667 -59.63163934 9.11898008 -61.82275391 9.11352539 C-63.38953144 9.11324345 -64.9563091 9.11340138 -66.52308655 9.1139679 C-70.78524038 9.11425562 -75.04736625 9.10836297 -79.30951357 9.10139394 C-83.76048931 9.0951562 -88.21146563 9.09455627 -92.66244507 9.09336853 C-101.09492648 9.09025646 -109.52739498 9.08204473 -117.9598707 9.07201904 C-127.55828166 9.06085406 -137.15669323 9.05534648 -146.75510907 9.05032361 C-166.50341346 9.03986203 -186.25170546 9.0220643 -206 9 C-206 16.92 -206 24.84 -206 33 C-204.04143066 32.98952637 -202.08286133 32.97905273 -200.06494141 32.96826172 C-193.60290115 32.93604676 -187.14087987 32.91304649 -180.67878151 32.89637566 C-176.75976716 32.88592635 -172.84083947 32.87174638 -168.921875 32.84912109 C-165.14176961 32.82743339 -161.36174772 32.81544002 -157.58158493 32.81024551 C-156.13744161 32.80654241 -154.693303 32.7993114 -153.2491951 32.78853989 C-151.23079106 32.77407983 -149.21230348 32.77318355 -147.19384766 32.77294922 C-145.46843246 32.76628738 -145.46843246 32.76628738 -143.7081604 32.75949097 C-141 33 -141 33 -139 35 C-138.74121094 37.38256836 -138.74121094 37.38256836 -138.734375 40.33984375 C-138.73050781 41.9340918 -138.73050781 41.9340918 -138.7265625 43.56054688 C-138.73429687 44.67494141 -138.74203125 45.78933594 -138.75 46.9375 C-138.73839844 48.60329102 -138.73839844 48.60329102 -138.7265625 50.30273438 C-138.72914063 51.36685547 -138.73171875 52.43097656 -138.734375 53.52734375 C-138.73663086 54.50437256 -138.73888672 55.48140137 -138.74121094 56.48803711 C-139 59 -139 59 -141 62 C-143.93057069 62.28611093 -146.64887526 62.37805361 -149.58056641 62.34057617 C-150.91236687 62.34123329 -150.91236687 62.34123329 -152.27107239 62.34190369 C-155.21479043 62.33980852 -158.15794358 62.3164433 -161.1015625 62.29296875 C-163.13894337 62.28737538 -165.17632826 62.28310406 -167.2137146 62.28010559 C-172.58307992 62.26863643 -177.95220281 62.23915143 -183.32147217 62.20599365 C-188.79761475 62.17533737 -194.27379639 62.16160977 -199.75 62.14648438 C-210.50010667 62.11428372 -221.2500332 62.06306238 -232 62 C-233.50011398 58.99977204 -233.13863602 55.91849326 -233.12939453 52.62866211 C-233.13114685 51.86919785 -233.13289917 51.10973358 -233.13470459 50.32725525 C-233.139115 47.81059501 -233.13618825 45.29400473 -233.1328125 42.77734375 C-233.1334857 41.03381842 -233.13445586 39.29029319 -233.13571167 37.54676819 C-233.13718748 33.89078885 -233.13503755 30.23483393 -233.13037109 26.57885742 C-233.12466965 21.88199137 -233.12795617 17.18518241 -233.13394356 12.48831844 C-233.1375487 8.88794012 -233.13641087 5.28757545 -233.13381577 1.68719673 C-233.13314659 -0.04524174 -233.13397461 -1.77768144 -233.13629532 -3.51011848 C-233.13882154 -5.9261315 -233.1349819 -8.34205065 -233.12939453 -10.75805664 C-233.13141876 -11.48067688 -233.13344299 -12.20329712 -233.13552856 -12.94781494 C-233.11426357 -17.88573643 -233.11426357 -17.88573643 -232 -19 C-229.73270545 -19.11160169 -227.46187835 -19.15139476 -225.19187927 -19.16494751 C-224.47135803 -19.17059105 -223.75083678 -19.1762346 -223.00848156 -19.18204916 C-220.57524135 -19.19985712 -218.14202137 -19.21049586 -215.70874023 -19.22119141 C-213.97102594 -19.2324012 -212.23331432 -19.24403317 -210.49560547 -19.25605774 C-205.75715775 -19.28748997 -201.01869559 -19.3125651 -196.28020358 -19.3362546 C-192.32003525 -19.35665494 -188.35988834 -19.38020706 -184.39973789 -19.40379179 C-175.04198507 -19.45950761 -165.6842143 -19.51019708 -156.32641602 -19.55761719 C-146.70014305 -19.60646683 -137.07393544 -19.66278549 -127.44772762 -19.72303832 C-119.17238711 -19.77461686 -110.89702976 -19.82189904 -102.62164456 -19.86572587 C-97.68480767 -19.89188692 -92.74799128 -19.91951629 -87.81118584 -19.9510994 C-83.15323614 -19.98067436 -78.49528744 -20.00481221 -73.8372879 -20.02499962 C-72.13952446 -20.03320982 -70.44176847 -20.04321744 -68.74402809 -20.05528831 C-43.43744814 -20.23185626 -19.2619181 -18.91407308 0 0 Z M19 34 C20 36 20 36 20 36 Z M-6 43 C-5 45 -5 45 -5 45 Z " fill="#FEFEFE" transform="translate(544,621)"/>
<path d="M0 0 C3.47472913 1.15824304 3.83521652 1.82737406 5.75 4.8125 C6.2759375 5.63234375 6.801875 6.4521875 7.34375 7.296875 C9.63245559 11.03221525 11.82295187 14.82038525 14.0078125 18.6171875 C16.69616634 23.18211774 19.51668874 27.65965426 22.36035156 32.12915039 C24.49357946 35.50331776 26.52131295 38.90366137 28.4375 42.40625 C31.0547434 47.17158904 33.93954439 51.73839906 36.875 56.3125 C40.86537592 62.57535087 44.73077758 68.87084711 48.42578125 75.3125 C50.05162143 78.0881279 51.75943022 80.79500856 53.5 83.5 C56.53511971 88.218293 59.37168682 93.02838885 62.17578125 97.88671875 C64.10910467 101.18620219 66.10877174 104.43808148 68.125 107.6875 C70.29430848 111.18985683 72.41779641 114.68753842 74.375 118.3125 C76.70269182 122.59042011 79.28066722 126.69338983 81.875 130.8125 C94.36759997 150.68022134 94.36759997 150.68022134 95 155 C93.33223956 156.66776044 91.32578263 156.12962837 89.03382874 156.13371277 C87.42058464 156.14011024 87.42058464 156.14011024 85.77474976 156.14663696 C84.58459259 156.14618378 83.39443542 156.14573059 82.16821289 156.14526367 C80.92282242 156.14862228 79.67743195 156.1519809 78.39430237 156.15544128 C74.96869816 156.16333729 71.54315454 156.16662024 68.11754537 156.16725707 C65.26203884 156.16820453 62.40653819 156.17188095 59.55103391 156.17542917 C52.81632755 156.1835814 46.08163456 156.1860127 39.34692383 156.18530273 C32.39015841 156.18470175 25.43347049 156.19525582 18.47672468 156.2110464 C12.5123877 156.22410402 6.54807609 156.22948738 0.58372492 156.22884732 C-2.98222006 156.22859181 -6.54809622 156.23147232 -10.11402702 156.24202538 C-14.08898854 156.25346702 -18.06384302 156.24897045 -22.03881836 156.24291992 C-23.82101776 156.25134918 -23.82101776 156.25134918 -25.63922119 156.25994873 C-26.71753708 156.25575424 -27.79585297 156.25155975 -28.90684509 156.24723816 C-29.8476187 156.24778293 -30.78839231 156.24832769 -31.75767422 156.24888897 C-34 156 -34 156 -36 154 C-36.22705078 151.56982422 -36.22705078 151.56982422 -36.1953125 148.5546875 C-36.18886719 147.47832031 -36.18242188 146.40195312 -36.17578125 145.29296875 C-36.15064453 143.60107422 -36.15064453 143.60107422 -36.125 141.875 C-36.11597656 140.73933594 -36.10695313 139.60367188 -36.09765625 138.43359375 C-36.07403098 135.62218701 -36.04109013 132.81119702 -36 130 C-32.97757952 128.48878976 -29.83847169 128.82077909 -26.52099609 128.79467773 C-25.75017197 128.78477814 -24.97934784 128.77487854 -24.18516541 128.76467896 C-21.6312876 128.7330317 -19.07739118 128.70829383 -16.5234375 128.68359375 C-14.75509145 128.663027 -12.98675035 128.64203061 -11.21841431 128.62062073 C-6.55940757 128.56537119 -1.90035625 128.51597464 2.75872803 128.46777344 C7.51106747 128.41757944 12.26334202 128.36188242 17.015625 128.30664062 C26.34369459 128.19902381 35.67182047 128.09758667 45 128 C44.60404633 127.35104767 44.20809265 126.70209534 43.80014038 126.03347778 C41.9780258 123.04619064 40.15697561 120.05825597 38.3359375 117.0703125 C37.71323975 116.04977783 37.09054199 115.02924316 36.44897461 113.9777832 C32.79018835 107.97257533 29.17182901 101.94700914 25.625 95.875 C22.12253374 89.88406431 18.53196395 83.96082896 14.875 78.0625 C12.38518491 73.99580201 9.99859032 69.87242204 7.609375 65.74609375 C5.48098897 62.11440594 3.2553927 58.55395213 1 55 C-3.28958072 61.08083421 -6.88507206 67.36816823 -10.2890625 73.984375 C-12 77 -12 77 -14.0859375 79.578125 C-16.04429924 82.0560521 -16.87920986 84.06804708 -18 87 C-19.4104007 89.70563691 -20.92461192 92.3506128 -22.4375 95 C-23.03014648 96.04800781 -23.03014648 96.04800781 -23.63476562 97.1171875 C-26.14484503 101.54428263 -28.71665089 105.92579149 -31.39453125 110.25390625 C-34.13942188 114.72286042 -36.64553702 119.21875268 -38.9375 123.9375 C-41.439648 129.04687309 -44.29999153 133.78140148 -47.40625 138.54296875 C-49.4102101 141.63240724 -51.2114655 144.78063789 -53 148 C-53.38800781 148.69609375 -53.77601563 149.3921875 -54.17578125 150.109375 C-55.02511043 151.63448622 -55.87273574 153.16054743 -56.71875 154.6875 C-58.3710053 157.66961932 -60.03177943 160.64697805 -61.69140625 163.625 C-62.60632325 165.28550608 -63.50900365 166.95278678 -64.40234375 168.625 C-74.51231988 187.50410663 -74.51231988 187.50410663 -79 189 C-81.58630224 189.08481773 -84.14478056 189.11598229 -86.73046875 189.09765625 C-87.48088943 189.0962413 -88.23131012 189.09482635 -89.00447083 189.09336853 C-91.3988546 189.0877756 -93.79314453 189.07522444 -96.1875 189.0625 C-97.81184761 189.05748408 -99.43619668 189.05292134 -101.06054688 189.04882812 C-105.04040069 189.03780848 -109.02018444 189.02054873 -113 189 C-113 185.41378122 -112.15716158 184.23811466 -110.3125 181.1875 C-109.66925781 180.11242187 -109.02601563 179.03734375 -108.36328125 177.9296875 C-107.99154785 177.31319336 -107.61981445 176.69669922 -107.23681641 176.06152344 C-105.86802017 173.78001624 -104.51677767 171.4886919 -103.16796875 169.1953125 C-95.40556243 155.99983345 -87.53919656 142.86765256 -79.64941406 129.74804688 C-78.21675933 127.36113721 -76.78974256 124.97106184 -75.3671875 122.578125 C-71.07177721 115.35926047 -66.63864143 108.25038032 -62.04296875 101.21875 C-59.91287041 97.86272508 -57.95275655 94.46205842 -56 91 C-54.81529842 88.95670824 -53.62792278 86.91496388 -52.4375 84.875 C-51.85871094 83.88242187 -51.27992188 82.88984375 -50.68359375 81.8671875 C-48.22618883 77.682187 -45.74174579 73.56801924 -43 69.5625 C-41.26243004 66.98182343 -39.77059077 64.54118153 -38.375 61.75 C-37 59 -37 59 -34.9375 56.4375 C-32.97115472 53.96371078 -32.15330932 51.91556597 -31 49 C-30.18662902 47.51273083 -29.33887719 46.04384097 -28.4609375 44.59375 C-27.96682373 43.77390625 -27.47270996 42.9540625 -26.96362305 42.109375 C-26.43937744 41.24828125 -25.91513184 40.3871875 -25.375 39.5 C-24.83593018 38.60796875 -24.29686035 37.7159375 -23.74145508 36.796875 C-20.13235984 30.8336005 -16.48431669 24.89507887 -12.80859375 18.97265625 C-10.32382114 14.88861315 -7.9731864 10.73116111 -5.640625 6.55859375 C-3.99779877 3.99656713 -2.22923443 2.05961877 0 0 Z " fill="#FEFEFE" transform="translate(676,592)"/>
<path d="M0 0 C31.02 0 62.04 0 94 0 C94 8.25 94 16.5 94 25 C92 27 92 27 89.2918396 27.24050903 C88.14156281 27.23606781 86.99128601 27.23162659 85.80615234 27.22705078 C83.85435562 27.22682419 83.85435562 27.22682419 81.86312866 27.22659302 C80.43739673 27.21637893 79.01166635 27.20594692 77.5859375 27.1953125 C76.13148187 27.19158295 74.67702373 27.1887357 73.2225647 27.18673706 C69.39201944 27.179096 65.56162554 27.15944357 61.73114014 27.1373291 C57.82338509 27.11688078 53.91560561 27.10773752 50.0078125 27.09765625 C42.33847262 27.07619802 34.66925751 27.04205651 27 27 C27.00222061 27.77452011 27.00444122 28.54904022 27.00672913 29.34703064 C27.02673134 36.63121021 27.04197377 43.91537655 27.05181217 51.19957638 C27.05704014 54.94483037 27.06413622 58.69006176 27.07543945 62.43530273 C27.08627141 66.04681687 27.09227749 69.65830921 27.09487724 73.26983833 C27.09673094 74.65060329 27.10035049 76.031367 27.10573006 77.41212273 C27.11294447 79.33975952 27.11340809 81.26741807 27.11352539 83.19506836 C27.115746 84.29427109 27.11796661 85.39347382 27.12025452 86.52598572 C27 89 27 89 26 90 C17.42 90 8.84 90 0 90 C0 60.3 0 30.6 0 0 Z " fill="#FEFEFE" transform="translate(311,691)"/>
<path d="" fill="#FFFFFF" transform="translate(0,0)"/>
<path d="" fill="#FFFFFF" transform="translate(0,0)"/>
<path d="M0 0 C3 1 3 1 3 1 Z " fill="#FFFFFF" transform="translate(503,596)"/>
<path d="" fill="#FFFFFF" transform="translate(0,0)"/>
<path d="" fill="#FFFFFF" transform="translate(0,0)"/>
<path d="" fill="#FFFFFF" transform="translate(0,0)"/>
<path d="" fill="#FFFFFF" transform="translate(0,0)"/>
<path d="" fill="#FFFFFF" transform="translate(0,0)"/>
<path d="" fill="#FFFFFF" transform="translate(0,0)"/>
<path d="" fill="#FFFFFF" transform="translate(0,0)"/>
<path d="" fill="#FFFFFF" transform="translate(0,0)"/>
</svg>
