<svg xmlns="http://www.w3.org/2000/svg" xmlns:xlink="http://www.w3.org/1999/xlink" width="1080" zoomAndPan="magnify" viewBox="0 0 810 1012.49997" height="1350" preserveAspectRatio="xMidYMid meet" version="1.0"><defs><clipPath id="9225b2459b"><path d="M 311 505 L 478 505 L 478 654.015625 L 311 654.015625 Z M 311 505 " clip-rule="nonzero"/></clipPath><clipPath id="e7f666d011"><path d="M 396 357.914062 L 575 357.914062 L 575 597 L 396 597 Z M 396 357.914062 " clip-rule="nonzero"/></clipPath></defs><g clip-path="url(#9225b2459b)"><path fill="#422b1c" d="M 459.085938 603.707031 C 452.289062 618.425781 442.023438 630.394531 430.183594 637.421875 C 418.976562 644.074219 407.738281 645.414062 398.546875 641.15625 C 389.371094 636.925781 383.097656 627.511719 380.886719 614.65625 C 378.550781 601.089844 381.011719 585.507812 387.800781 570.792969 C 394.597656 556.074219 404.859375 544.105469 416.703125 537.078125 C 423.617188 532.984375 430.535156 530.90625 436.980469 530.90625 C 440.988281 530.90625 444.8125 531.710938 448.339844 533.335938 C 467.988281 542.414062 472.808594 573.980469 459.085938 603.707031 Z M 356.261719 556.230469 C 369.992188 526.507812 397.136719 509.710938 416.804688 518.773438 L 424.53125 522.34375 C 420.15625 523.621094 415.742188 525.480469 411.367188 528.074219 C 397.714844 536.167969 385.96875 549.777344 378.296875 566.402344 C 370.621094 583.027344 367.871094 600.796875 370.566406 616.433594 C 371.425781 621.445312 372.871094 626.003906 374.730469 630.160156 L 367.011719 626.601562 C 347.363281 617.523438 342.535156 585.957031 356.261719 556.230469 Z M 322.480469 539.058594 C 322.394531 538.878906 322.289062 538.558594 322.207031 538.105469 C 321.871094 536.132812 322.332031 533.523438 323.445312 531.117188 C 325.222656 527.265625 327.722656 525.59375 328.730469 525.257812 L 353.902344 539.03125 C 351.269531 543.011719 348.863281 547.285156 346.753906 551.839844 C 346.695312 551.96875 346.652344 552.101562 346.589844 552.234375 Z M 452.730469 523.832031 C 452.566406 523.757812 421.1875 509.269531 421.1875 509.269531 C 402.015625 500.40625 377.773438 509.789062 360.265625 530.570312 L 332.738281 515.527344 C 326.628906 512.6875 318.027344 517.878906 313.941406 526.71875 C 311.917969 531.097656 311.1875 535.761719 311.882812 539.878906 C 312.585938 543.933594 314.617188 546.925781 317.289062 548.144531 L 342.773438 562.078125 C 332.226562 593.898438 340.144531 625.730469 362.617188 636.113281 C 362.617188 636.113281 393.917969 650.558594 394.15625 650.667969 C 399.105469 652.953125 404.410156 654.085938 409.917969 654.085938 C 418.210938 654.085938 426.945312 651.511719 435.519531 646.425781 C 449.171875 638.332031 460.917969 624.722656 468.589844 608.097656 C 484.734375 573.128906 477.625 535.328125 452.730469 523.832031 " fill-opacity="1" fill-rule="nonzero"/></g><path fill="#422b1c" d="M 326.746094 586.316406 C 317.179688 590.589844 308.03125 590.964844 300.277344 587.378906 C 288.910156 582.132812 281.992188 568.707031 281.773438 551.460938 C 281.738281 548.59375 279.402344 546.292969 276.535156 546.292969 C 276.515625 546.292969 276.496094 546.292969 276.46875 546.292969 C 273.578125 546.332031 271.265625 548.703125 271.300781 551.597656 C 271.417969 560.886719 273.3125 569.261719 276.554688 576.417969 L 268.738281 572.816406 C 259.5625 568.578125 253.289062 559.164062 251.070312 546.3125 C 248.742188 532.742188 251.195312 517.164062 257.992188 502.449219 C 264.792969 487.734375 275.050781 475.757812 286.894531 468.738281 C 298.117188 462.097656 309.339844 460.761719 318.523438 464.992188 C 318.632812 465.042969 318.734375 465.089844 318.84375 465.132812 L 326.429688 468.636719 C 308.390625 473.875 290.542969 489.839844 280.019531 512.621094 C 276.941406 519.289062 274.636719 526.199219 273.171875 533.160156 C 272.570312 535.992188 274.375 538.765625 277.203125 539.367188 C 277.574219 539.4375 277.933594 539.476562 278.296875 539.476562 C 280.714844 539.476562 282.890625 537.785156 283.410156 535.320312 C 284.71875 529.128906 286.777344 522.96875 289.527344 517.011719 C 303.25 487.296875 330.40625 470.457031 350.0625 479.5625 C 359.644531 483.976562 366 493.929688 367.96875 507.578125 C 368.378906 510.4375 370.933594 512.421875 373.898438 512.011719 C 376.753906 511.601562 378.746094 508.945312 378.332031 506.082031 C 375.875 489.054688 367.175781 475.921875 354.453125 470.050781 C 354.328125 469.992188 322.925781 455.484375 322.925781 455.484375 C 322.8125 455.429688 322.695312 455.378906 322.578125 455.335938 C 310.238281 449.789062 295.695312 451.34375 281.554688 459.730469 C 267.90625 467.824219 256.160156 481.4375 248.488281 498.058594 C 232.335938 533.027344 239.445312 570.828125 264.347656 582.332031 C 264.347656 582.332031 295.664062 596.78125 295.886719 596.886719 C 300.753906 599.136719 306.066406 600.257812 311.589844 600.257812 C 317.910156 600.257812 324.503906 598.792969 331.027344 595.875 C 333.667969 594.695312 334.847656 591.597656 333.667969 588.957031 C 332.480469 586.308594 329.378906 585.140625 326.746094 586.316406 " fill-opacity="1" fill-rule="nonzero"/><path fill="#422b1c" d="M 485.921875 551.796875 C 483.03125 551.871094 480.746094 554.269531 480.8125 557.160156 C 480.878906 560.007812 483.214844 562.269531 486.050781 562.269531 C 486.089844 562.269531 486.132812 562.269531 486.179688 562.269531 C 506.65625 561.769531 523.3125 544.695312 523.3125 524.203125 C 523.3125 503.207031 506.230469 486.128906 485.230469 486.128906 C 470.066406 486.128906 456.363281 495.113281 450.308594 509.019531 C 449.160156 511.675781 450.371094 514.757812 453.015625 515.910156 C 455.667969 517.070312 458.757812 515.859375 459.910156 513.199219 C 464.300781 503.117188 474.242188 496.601562 485.230469 496.601562 C 500.457031 496.601562 512.839844 508.984375 512.839844 524.203125 C 512.839844 539.058594 500.761719 551.4375 485.921875 551.796875 " fill-opacity="1" fill-rule="nonzero"/><g clip-path="url(#e7f666d011)"><path fill="#422b1c" d="M 560.136719 433.378906 L 544.289062 467.589844 C 541.144531 464.3125 537.71875 461.324219 534.070312 458.601562 L 548.292969 427.898438 C 553.074219 417.5625 552.300781 406.132812 546.171875 396.535156 C 540.042969 386.941406 530 381.4375 518.609375 381.4375 L 512.0625 381.4375 C 509.171875 381.4375 506.824219 383.78125 506.824219 386.675781 C 506.824219 389.566406 509.171875 391.910156 512.0625 391.910156 L 518.609375 391.910156 C 526.351562 391.910156 533.183594 395.652344 537.347656 402.171875 C 541.515625 408.699219 542.039062 416.472656 538.789062 423.496094 L 525.21875 452.789062 C 513.378906 446.132812 499.753906 442.292969 485.230469 442.292969 C 471.023438 442.292969 457.515625 445.925781 445.679688 452.433594 L 432.273438 423.5 C 429.015625 416.472656 429.542969 408.699219 433.714844 402.171875 C 437.878906 395.652344 444.714844 391.910156 452.449219 391.910156 L 496.371094 391.910156 C 499.261719 391.910156 501.609375 389.566406 501.609375 386.675781 C 501.609375 383.78125 499.261719 381.4375 496.371094 381.4375 L 452.449219 381.4375 C 441.066406 381.4375 431.019531 386.941406 424.894531 396.535156 C 418.753906 406.128906 417.984375 417.5625 422.769531 427.902344 L 436.773438 458.128906 C 433.125 460.808594 429.6875 463.777344 426.519531 467.042969 L 410.929688 433.386719 C 404.328125 419.136719 405.441406 402.730469 413.886719 389.511719 C 422.339844 376.28125 436.757812 368.382812 452.449219 368.382812 L 518.609375 368.382812 C 534.300781 368.382812 548.722656 376.28125 557.175781 389.511719 C 565.625 402.738281 566.726562 419.140625 560.136719 433.378906 Z M 566 383.871094 C 555.613281 367.617188 537.894531 357.910156 518.609375 357.910156 L 452.449219 357.910156 C 433.167969 357.910156 415.449219 367.617188 405.0625 383.871094 C 394.679688 400.121094 393.320312 420.273438 401.425781 437.789062 L 419.078125 475.902344 C 415.136719 481.320312 411.78125 487.261719 409.195312 493.695312 C 408.117188 496.378906 409.421875 499.425781 412.109375 500.507812 C 414.78125 501.589844 417.835938 500.292969 418.917969 497.597656 C 421.484375 491.207031 424.910156 485.371094 428.988281 480.144531 C 429.050781 480.078125 429.089844 480 429.144531 479.929688 C 433.820312 473.984375 439.359375 468.859375 445.570312 464.71875 C 445.578125 464.71875 445.589844 464.71875 445.597656 464.714844 C 445.640625 464.695312 445.660156 464.660156 445.699219 464.640625 C 457.140625 457.050781 470.777344 452.765625 485.230469 452.765625 C 524.628906 452.765625 556.671875 484.8125 556.671875 524.203125 C 556.671875 549.550781 543.171875 573.042969 521.339844 585.855469 L 485.53125 585.855469 C 482.640625 585.855469 480.296875 588.199219 480.296875 591.089844 C 480.296875 593.980469 482.640625 596.328125 485.53125 596.328125 L 522.738281 596.328125 C 523.636719 596.328125 524.515625 596.09375 525.300781 595.65625 C 551.113281 581.15625 567.144531 553.78125 567.144531 524.203125 C 567.144531 506.410156 561.375 489.96875 551.699219 476.515625 L 569.640625 437.78125 C 577.738281 420.28125 576.382812 400.128906 566 383.871094 " fill-opacity="1" fill-rule="nonzero"/></g></svg>