<svg xmlns="http://www.w3.org/2000/svg" xmlns:xlink="http://www.w3.org/1999/xlink" width="1080" zoomAndPan="magnify" viewBox="0 0 810 1012.49997" height="1350" preserveAspectRatio="xMidYMid meet" version="1.2"><defs><clipPath id="63502882f9"><path d="M 292.347656 585 L 400 585 L 400 701 L 292.347656 701 Z M 292.347656 585 "/></clipPath><clipPath id="9db654245c"><path d="M 410 585 L 517.984375 585 L 517.984375 701 L 410 701 Z M 410 585 "/></clipPath><clipPath id="4a8af4400e"><path d="M 446.152344 442.625 L 458.625 442.625 L 458.625 455.097656 L 446.152344 455.097656 Z M 446.152344 442.625 "/></clipPath></defs><g id="5dfdadc07f"><path style=" stroke:none;fill-rule:nonzero;fill:#374329;fill-opacity:1;" d="M 400.277344 430.648438 C 401.265625 431.589844 402.546875 432.0625 403.824219 432.0625 C 405.035156 432.0625 406.234375 431.644531 407.203125 430.804688 C 408.46875 429.714844 438.167969 403.695312 438.929688 369.871094 C 439.675781 336.058594 411.1875 308.730469 409.972656 307.582031 C 408.039062 305.753906 405.050781 305.6875 403.03125 307.421875 C 401.769531 308.519531 372.078125 334.542969 371.324219 368.351562 C 370.570312 402.171875 399.058594 429.5 400.277344 430.648438 Z M 400.277344 430.648438 "/><g clip-rule="nonzero" clip-path="url(#63502882f9)"><path style=" stroke:none;fill-rule:nonzero;fill:#374329;fill-opacity:1;" d="M 297.996094 585.449219 C 296.695312 585.367188 295.378906 585.824219 294.402344 586.707031 C 293.429688 587.597656 292.855469 588.84375 292.808594 590.160156 C 292.753906 592.1875 292.371094 639.375 319.953125 669.300781 C 353.925781 706.175781 387.210938 700.460938 394.464844 699.234375 C 396.714844 698.851562 399.523438 697.054688 399.636719 694.769531 C 399.683594 693.851562 403.292969 592.164062 297.996094 585.449219 Z M 297.996094 585.449219 "/></g><g clip-rule="nonzero" clip-path="url(#9db654245c)"><path style=" stroke:none;fill-rule:nonzero;fill:#374329;fill-opacity:1;" d="M 512.265625 585.449219 C 513.570312 585.367188 514.890625 585.824219 515.859375 586.707031 C 516.839844 587.597656 517.414062 588.84375 517.453125 590.160156 C 517.515625 592.1875 517.894531 639.375 490.3125 669.300781 C 456.339844 706.175781 423.058594 700.460938 415.800781 699.234375 C 413.546875 698.851562 410.742188 697.054688 410.625 694.769531 C 410.574219 693.851562 406.96875 592.164062 512.265625 585.449219 Z M 512.265625 585.449219 "/></g><path style=" stroke:none;fill-rule:nonzero;fill:#374329;fill-opacity:1;" d="M 312.824219 495.773438 C 311.515625 495.652344 310.203125 496.066406 309.199219 496.925781 C 308.203125 497.785156 307.585938 499.011719 307.507812 500.332031 C 307.394531 502.132812 305.910156 544.085938 329.851562 571.230469 C 350.765625 594.9375 380 600.816406 380 600.816406 C 384.863281 600.816406 389.226562 601.164062 394.535156 600.429688 C 396.800781 600.121094 399.707031 598.039062 399.898438 595.765625 C 399.957031 594.960938 405.046875 504.535156 312.824219 495.773438 Z M 312.824219 495.773438 "/><path style=" stroke:none;fill-rule:nonzero;fill:#374329;fill-opacity:1;" d="M 497.433594 495.773438 C 498.742188 495.652344 500.054688 496.066406 501.058594 496.925781 C 502.0625 497.785156 502.667969 499.011719 502.757812 500.332031 C 502.863281 502.132812 504.351562 544.085938 480.410156 571.230469 C 459.488281 594.9375 430.257812 600.816406 430.257812 600.816406 C 425.390625 600.816406 421.039062 601.164062 415.730469 600.429688 C 413.460938 600.121094 410.546875 598.039062 410.367188 595.765625 C 410.304688 594.960938 405.210938 504.535156 497.433594 495.773438 Z M 497.433594 495.773438 "/><path style=" stroke:none;fill-rule:nonzero;fill:#374329;fill-opacity:1;" d="M 391.160156 508.289062 C 391.171875 508.289062 391.171875 508.289062 391.171875 508.289062 C 392.148438 508.289062 393.121094 508.28125 394.117188 508.253906 C 396.398438 508.195312 398.34375 506.558594 398.78125 504.316406 C 398.929688 503.570312 412.433594 419.460938 327.230469 401.617188 C 325.9375 401.34375 324.59375 401.609375 323.5 402.363281 C 322.410156 403.097656 321.660156 404.25 321.441406 405.550781 C 321.121094 407.328125 314.058594 449.460938 336.917969 476.664062 C 349.105469 491.175781 367.359375 508.289062 391.160156 508.289062 Z M 391.160156 508.289062 "/><path style=" stroke:none;fill-rule:nonzero;fill:#374329;fill-opacity:1;" d="M 419.101562 508.289062 C 419.097656 508.289062 419.097656 508.289062 419.097656 508.289062 C 418.117188 508.289062 417.144531 508.28125 416.140625 508.253906 C 413.859375 508.195312 411.917969 506.558594 411.480469 504.316406 C 411.332031 503.570312 397.832031 419.460938 483.035156 401.617188 C 484.328125 401.34375 485.671875 401.609375 486.761719 402.363281 C 487.851562 403.097656 488.597656 404.25 488.824219 405.550781 C 489.140625 407.328125 496.199219 449.460938 473.347656 476.664062 C 461.15625 491.175781 442.90625 508.289062 419.101562 508.289062 Z M 419.101562 508.289062 "/><g clip-rule="nonzero" clip-path="url(#4a8af4400e)"><path style=" stroke:none;fill-rule:nonzero;fill:#374329;fill-opacity:1;" d="M 446.152344 442.625 L 458.625 442.625 L 458.625 455.097656 L 446.152344 455.097656 Z M 446.152344 442.625 "/></g></g></svg>