<svg width="1560" height="516" viewBox="0 0 1560 516" fill="none" xmlns="http://www.w3.org/2000/svg">
<g clip-path="url(#clip0_622_15)">
<path d="M209.8 0C215.3 0.5 220.7 1 226.1 1.6C248.7 4.1 270.2 10.5 290.6 20.4C307.8 28.7 323.6 39.3 338 52.4C325.1 65.7 312.2 78.9 299.3 92.3C288.1 82.3 275.9 74.1 262.4 68C240.4 58.1 217.3 53.8 193.1 55.3C131.2 59 75.7001 103.3 61.8001 167C49.9001 221.6 65.1001 268.7 106 306.9C125.9 325.5 149.9 336.8 176.6 341.8C193.6 344.9 210.6 345.1 227.6 341.9C250.3 337.6 271.1 329.1 289.4 314.8C310.6 298.2 323.6 276.5 328.6 250C329.5 245.4 330 240.7 330.7 235.4C287.4 235.4 244.5 235.4 201.5 235.4C201.5 217.2 201.5 199.7 201.5 181.8C262.3 181.8 323.2 181.8 384.3 181.8C386 193.3 386.8 204.9 386.6 216.5C386.2 239.8 382.7 262.5 374.7 284.5C358.6 328.6 328.4 359.7 286.4 379.8C267.9 388.7 248.5 394.8 228.1 397.1C171.3 403.6 120 389.9 75.1001 354.2C39.0001 325.3 15.8001 288 5.2001 243C2.4001 231.1 1.0001 219 0.500098 206.9C0.400098 205.2 0.200098 203.4 0.100098 201.7C0.100098 200.2 0.100098 198.7 0.100098 197.2C0.300098 195.8 0.500098 194.5 0.500098 193.1C1.1001 179.7 2.6001 166.4 5.9001 153.4C20.5001 96 53.9001 53.1 105.6 24.4C129.7 11 155.8 3.4 183.4 1C187 0.7 190.6 0.3 194.2 0C199.4 0 204.6 0 209.8 0Z" fill="#3174F1"/>
<path d="M1153.8 169.7C1154.1 163.2 1154.4 156.8 1154.6 150.2C1172.1 150.2 1189.4 150.2 1207 150.2C1207 151.3 1207 152.4 1207 153.5C1207 233 1207.3 312.5 1206.9 391.9C1206.7 426.6 1195.2 457.3 1169.8 481.9C1160.3 491.2 1149.4 498.9 1136.8 503.1C1115.9 510.1 1094.3 512.9 1072.3 510.9C1033.4 507.3 1003.7 488.7 983.1 455.6C979.6 450 976.6 444.1 973.3 438.1C989.6 431 1005.6 424.1 1021.1 417.3C1025.3 423.7 1029 430.2 1033.5 436.1C1042 447.3 1052.5 456.1 1066.3 460.5C1074.2 463 1082.3 462.7 1090.3 462.3C1102.9 461.6 1114.8 458.6 1125.6 451.7C1140.6 442 1148.8 427.7 1152.8 410.8C1156 397.3 1156.1 383.5 1155 369.7C1155 369.4 1154.8 369.2 1154.7 368.8C1151 371.7 1147.4 374.6 1143.6 377.2C1129.4 387.4 1113.7 394.3 1096.2 396.5C1077.6 398.9 1059.7 395.6 1042.3 388.6C1010.5 376 989.2 352.7 974.4 322.7C965.2 303.9 960.5 284.2 961.7 263.2C962.9 241.2 970.5 221.2 982.1 202.7C997 178.9 1017.3 161 1042.9 149.6C1075.2 135.2 1106.3 138.5 1136 157.1C1142.1 160.9 1147.8 165.4 1153.8 169.7ZM1089.5 348.2C1091.9 348.1 1094.3 348.1 1096.7 347.8C1114.7 345.5 1129.7 337.2 1140.7 323.1C1162.8 294.7 1165.8 263.7 1150.3 231.6C1139 208.4 1120.2 194.1 1093.7 192.1C1070.5 190.4 1051.9 200 1037.6 217.8C1015.8 245.2 1013.4 283.5 1031.5 313.4C1044.7 335 1063.7 347.3 1089.5 348.2Z" fill="#3174F1"/>
<path d="M661.6 269.9C661.3 341.7 603.5 399.4 531.6 398.7C458.6 398 403.3 338.2 403.9 268.7C404.5 197.4 462.3 140.4 534.1 140.7C604.3 141 661.8 199.3 661.6 269.9ZM528.1 348.1C548.8 348.1 563.1 343.1 575.6 333.2C602.1 312.3 612.8 276.7 601.5 244.4C590.8 213.6 569.4 195 536.3 192.5C515.5 190.9 497.7 198.8 483.1 213.4C458.7 237.9 452.9 276.6 469.3 307.7C482.7 333.2 503.9 346.9 528.1 348.1Z" fill="#E63125"/>
<path d="M940.5 269.9C940.4 341.3 882.7 398.9 811.1 398.8C740.4 398.7 682.8 340.6 682.9 269.6C683.1 198 740.7 140.7 812.3 140.8C883.1 140.9 940.5 198.7 940.5 269.9ZM884.9 274.3C884.8 249.8 877.7 231.2 863.9 215.6C842.6 191.6 806.9 185.2 779.1 200.9C754.7 214.6 741.8 236.2 739.5 263.9C737.5 287.1 744.5 307.6 760.1 324.9C781.3 348.4 814.8 355.2 842.4 341C870.8 326.2 883.5 301.5 884.9 274.3Z" fill="#F6AD01"/>
<path d="M1515.3 312C1529.4 321.4 1543.3 330.7 1557.4 340.1C1552.2 348.1 1546.2 355.2 1539.4 361.6C1521.8 378.4 1501.3 389.6 1477.4 394C1435.7 401.8 1398.8 391.5 1367.3 362.9C1346.1 343.6 1332.9 319.6 1328.3 291.4C1321.1 246.9 1333.4 208.3 1365.6 176.4C1380.3 161.8 1397.8 151.7 1417.8 146.2C1433.1 142 1448.7 141.4 1464.4 143.8C1497.6 148.9 1521.7 167.4 1539.7 194.7C1548 207.3 1554.3 220.9 1559.4 235.1C1559.6 235.6 1559.7 236.2 1560 237.1C1503.5 260.9 1447.1 284.7 1390.5 308.5C1394.3 317.4 1399.8 325 1406.8 331.4C1420 343.5 1435.6 348.5 1453.3 347.4C1468.2 346.5 1482.1 342.5 1494.6 334.1C1502.8 328.5 1509.6 321.6 1514.5 313C1514.7 312.8 1514.9 312.5 1515.3 312ZM1496.1 218.1C1490.5 208.4 1482.9 201.3 1473.1 196.6C1459.7 190.2 1445.8 190.3 1431.8 193.9C1417.5 197.6 1404.7 203.8 1395.5 216.1C1387.7 226.5 1383.6 238.4 1381.8 251.2C1381.1 256.1 1380.9 261.1 1380.4 266.6C1419.4 250.3 1457.7 234.2 1496.1 218.1Z" fill="#E63125"/>
<path d="M1245.8 13.5C1264.4 13.5 1282.9 13.5 1301.6 13.5C1301.6 138.7 1301.6 263.8 1301.6 389.2C1283.1 389.2 1264.6 389.2 1245.8 389.2C1245.8 264 1245.8 138.9 1245.8 13.5Z" fill="#249A41"/>
</g>
<defs>
<clipPath id="clip0_622_15">
<rect width="1560" height="516" fill="white"/>
</clipPath>
</defs>
</svg>
