<?xml version="1.0" encoding="utf-8"?>
<!-- Generator: Adobe Illustrator 26.0.0, SVG Export Plug-In . SVG Version: 6.00 Build 0)  -->
<svg version="1.1" id="Layer_1" xmlns="http://www.w3.org/2000/svg" xmlns:xlink="http://www.w3.org/1999/xlink" x="0px" y="0px"
	 viewBox="0 0 70.4 64.7" style="enable-background:new 0 0 70.4 64.7;" xml:space="preserve">
<style type="text/css">
	.st0{clip-path:url(#SVGID_00000163764903069267798080000016982922003211305875_);}
	.st1{fill:#ffffff;}
</style>
<g>
	<defs>
		<rect id="SVGID_1_" x="17" y="3.7" width="39" height="56.7"/>
	</defs>
	<clipPath id="SVGID_00000111158520357528186620000002864408384135358136_">
		<use xlink:href="#SVGID_1_"  style="overflow:visible;"/>
	</clipPath>
	<g style="clip-path:url(#SVGID_00000111158520357528186620000002864408384135358136_);">
		<path class="st1" d="M50.8,38.4c0,0-0.1,0-0.1-0.1c0.4-1.5,0.5-3.9,0.5-7.4c0-3.8-4.3-11-14.7-11c-10.4,0-14.7,7.2-14.7,11
			c0,3.5,0.2,5.9,0.5,7.4c0,0-0.1,0-0.1,0.1c-0.8,0.5-1.1,1.5-1.1,3.3c0,3,1.1,5.5,2.6,6.2c0.3,0.1,0.7,0.2,1,0.2
			c0.3,4.2,2.2,6.1,3.4,7.4c0.1,0.1,0.2,0.3,0.4,0.4c-0.1,0.6-0.3,1.9-1.3,2.9c-0.2,0.2-0.3,0.4-0.3,0.7c0,0.3,0.1,0.5,0.3,0.7
			c0.2,0.2,0.5,0.3,0.7,0.3c0.3,0,0.5-0.1,0.7-0.3c0.7-0.7,1.2-1.5,1.5-2.4c1.9,2.1,2.7,2.7,6.3,2.7c3.6,0,4.5-0.7,6.3-2.7
			c0.3,0.9,0.8,1.7,1.5,2.4c0.2,0.2,0.5,0.3,0.7,0.3c0.3,0,0.5-0.1,0.7-0.3c0.2-0.2,0.3-0.4,0.3-0.7c0-0.3-0.1-0.5-0.3-0.7
			c-1-1-1.2-2.3-1.3-2.9c0.1-0.1,0.2-0.3,0.4-0.4c1.2-1.3,3.1-3.2,3.4-7.4c0.4,0,0.7-0.1,1-0.2c1.6-0.7,2.6-3.2,2.6-6.2
			C51.9,39.9,51.5,38.9,50.8,38.4L50.8,38.4z M36.5,22c8.8,0,12.6,5.9,12.6,9c0,4.4-0.3,6.3-0.5,7.1c-0.4-0.9-0.8-2.8-1-3.9
			c-0.6-3-1-4.9-2.5-4.9c-0.6,0-1.2,0.1-1.7,0.2c-1.1,0.2-2.7,0.5-6.9,0.5h-0.1c-2.3,0-3.9-0.5-5.3-0.9c-0.9-0.3-1.8-0.5-2.5-0.5
			c-1.8,0-2.5,2.6-3.2,5.9c-0.3,1.1-0.6,2.7-1,3.6c-0.2-0.8-0.5-2.7-0.5-7.1C23.9,27.9,27.7,22,36.5,22z M48.4,46
			c-0.1,0-0.2,0.1-0.5-0.2c-0.1-0.1-0.3-0.2-0.5-0.2c-0.2,0-0.4,0-0.6,0.1c-0.2,0.1-0.3,0.2-0.4,0.4c-0.1,0.2-0.2,0.4-0.2,0.5
			c0,4.4-1.6,6.1-2.9,7.5c-0.3,0.3-0.7,0.7-0.9,1.1c-0.4,0.4-0.7,0.8-1,1.1c-1.6,1.8-1.9,2.1-4.9,2.1c-2.9,0-3.2-0.3-4.9-2.1
			c-0.3-0.3-0.6-0.7-1-1.1c-0.3-0.4-0.6-0.7-0.9-1.1c-1.3-1.4-2.9-3.1-2.9-7.5c0-0.2-0.1-0.4-0.2-0.5s-0.3-0.3-0.4-0.4
			c-0.2-0.1-0.4-0.1-0.6-0.1c-0.2,0-0.4,0.1-0.5,0.2c-0.3,0.2-0.4,0.2-0.5,0.2c-0.6-0.3-1.4-1.8-1.4-4.4c0-0.8,0.1-1.2,0.2-1.4l0,0
			c0.3,0.2,0.6,0.3,0.9,0.3c1.8,0,2.3-2.5,3.1-5.7c0.3-1.4,0.9-3.8,1.4-4.3c0.5,0,1.1,0.2,1.8,0.4c1.4,0.4,3.3,1,6,1
			c0,0,0.1,0,0.1,0c4.3,0,6-0.3,7.2-0.5c0.3-0.1,0.7-0.1,1-0.1c0.3,0.6,0.6,2.2,0.8,3.3c0.7,3.2,1.2,5.9,3.1,5.9
			c0.3,0,0.7-0.1,0.9-0.3l0,0c0.1,0.2,0.2,0.6,0.2,1.4C49.8,44.2,49,45.8,48.4,46L48.4,46z"/>
		<path class="st1" d="M34.4,11.8h2.7l-1.6,4.7c-0.1,0.3-0.1,0.5,0.1,0.8c0.1,0.2,0.3,0.4,0.6,0.5c0.3,0.1,0.5,0.1,0.8-0.1
			c0.2-0.1,0.4-0.3,0.5-0.6l2.1-6.1c0.1-0.2,0.1-0.3,0-0.5c0-0.2-0.1-0.3-0.2-0.4c-0.1-0.1-0.2-0.2-0.4-0.3
			c-0.1-0.1-0.3-0.1-0.5-0.1h-2.7l1.6-4.7c0-0.1,0.1-0.3,0.1-0.4c0-0.1,0-0.3-0.1-0.4c-0.1-0.1-0.1-0.2-0.2-0.3
			c-0.1-0.1-0.2-0.2-0.3-0.2c-0.1,0-0.3-0.1-0.4,0s-0.3,0-0.4,0.1c-0.1,0.1-0.2,0.1-0.3,0.2c-0.1,0.1-0.2,0.2-0.2,0.3l-2.1,6.1
			c-0.1,0.2-0.1,0.3,0,0.5c0,0.2,0.1,0.3,0.2,0.4s0.2,0.2,0.4,0.3C34.1,11.8,34.3,11.8,34.4,11.8z"/>
		<path class="st1" d="M55.7,8.1c-0.2-0.2-0.5-0.3-0.7-0.3c-0.3,0-0.5,0.1-0.7,0.3l-5.1,5.1c-0.1,0.1-0.2,0.3-0.3,0.4
			c0,0.2-0.1,0.3,0,0.5c0,0.2,0.1,0.3,0.2,0.4c0.1,0.1,0.2,0.2,0.4,0.3l2.7,1.3l-3.9,3.1c-0.2,0.2-0.3,0.4-0.4,0.7
			c0,0.3,0,0.5,0.2,0.7c0.2,0.2,0.4,0.3,0.7,0.4c0.3,0,0.5,0,0.8-0.2l5.1-4.1c0.1-0.1,0.2-0.2,0.3-0.4C55,16.1,55,16,55,15.8
			c0-0.2-0.1-0.3-0.2-0.5c-0.1-0.1-0.2-0.3-0.4-0.3l-2.8-1.4l4.1-4.1c0.1-0.1,0.2-0.2,0.2-0.3C56,9.1,56,8.9,56,8.8
			c0-0.1,0-0.3-0.1-0.4C55.9,8.3,55.8,8.2,55.7,8.1L55.7,8.1z"/>
		<path class="st1" d="M25.3,20.3c0,0.1,0.1,0.2,0.2,0.3c0.1,0.1,0.2,0.2,0.3,0.2c0.2,0.1,0.5,0.1,0.8,0.1c0.1,0,0.2-0.1,0.3-0.2
			c0.1-0.1,0.2-0.2,0.2-0.3c0.1-0.1,0.1-0.2,0.1-0.4c0-0.1,0-0.3-0.1-0.4l-2.1-6.1c0-0.1-0.1-0.3-0.2-0.4c-0.1-0.1-0.2-0.2-0.4-0.2
			c-0.1-0.1-0.3-0.1-0.4-0.1c-0.1,0-0.3,0-0.4,0.1l-3,1.5L19,8.5c0-0.1-0.1-0.3-0.2-0.4c-0.1-0.1-0.2-0.2-0.3-0.3
			c-0.1-0.1-0.3-0.1-0.4-0.1c-0.1,0-0.3,0-0.4,0c-0.1,0-0.3,0.1-0.4,0.2c-0.1,0.1-0.2,0.2-0.3,0.3C17,8.4,17,8.5,17,8.7
			c0,0.1,0,0.3,0,0.4l2.1,7.1c0,0.1,0.1,0.3,0.2,0.4c0.1,0.1,0.2,0.2,0.4,0.3c0.1,0.1,0.3,0.1,0.4,0.1c0.2,0,0.3,0,0.4-0.1l3-1.5
			L25.3,20.3z"/>
	</g>
</g>
</svg>
