<?xml version="1.0" encoding="utf-8"?>
<!-- Generator: Adobe Illustrator 26.0.0, SVG Export Plug-In . SVG Version: 6.00 Build 0)  -->
<svg version="1.1" id="Layer_1" xmlns="http://www.w3.org/2000/svg" xmlns:xlink="http://www.w3.org/1999/xlink" x="0px" y="0px"
	 viewBox="0 0 70.4 64.7" style="enable-background:new 0 0 70.4 64.7;" xml:space="preserve">
<style type="text/css">
	.st0{fill:#ffffff;}
</style>
<g>
	<path class="st0" d="M49.5,23.2c0-1.5-1.2-3-3.4-4.1c-0.5-1.4-1.8-2.5-3.3-2.6c-1.3-1.2-3-1.9-4.9-1.9h-4.8c-2.9,0-5.5,1.8-6.6,4.3
		c-2.4,1.1-3.7,2.6-3.7,4.2c0,1.5,1.2,2.9,3.2,3.9v0.2c-0.8,0.6-1.3,1.5-1.3,2.5c0,1.6,1.2,2.9,2.7,3.1c0.4,1.9,1.5,3.6,2.9,4.9
		L26,39.3c-1.9,0.6-3.1,2.3-3.1,4.2v9.9c0,0.4,0.3,0.6,0.6,0.6h25.4c0.4,0,0.6-0.3,0.6-0.6v-9.9c0-2-1.3-3.7-3.1-4.2L42,37.9
		c1.4-1.2,2.5-2.9,2.9-4.9c1.5-0.2,2.7-1.5,2.7-3.1c0-1-0.5-1.9-1.3-2.5v-0.2C48.3,26.1,49.5,24.8,49.5,23.2L49.5,23.2z M48.3,23.2
		c0,0.9-0.7,1.7-1.9,2.5v-5C47.6,21.5,48.3,22.4,48.3,23.2z M33.2,16h4.8c1.6,0,3,0.6,4.1,1.7c0.1,0.1,0.3,0.2,0.4,0.2
		c1.4,0,2.5,1.1,2.5,2.5v6c-0.2,0.1-0.5,0.2-0.8,0.3c-1-0.1-1.8-0.9-1.8-1.9v-1.2c0-1.4-1.2-2.6-2.6-2.6c-0.5,0-1,0.1-1.4,0.4
		l-0.4,0.2c-1.2,0.8-2.8,0.8-3.9,0l-0.4-0.2c-0.4-0.3-0.9-0.4-1.4-0.4c-1.4,0-2.6,1.2-2.6,2.6v1.2c0,1-0.8,1.8-1.8,1.9
		c-0.3-0.1-0.5-0.2-0.8-0.3v-4.6C27.3,18.6,29.9,16,33.2,16z M42.5,27.3c-1.8,0.4-3.9,0.7-6.3,0.7s-4.5-0.3-6.3-0.7
		c0.7-0.6,1.2-1.5,1.2-2.5v-1.2c0-0.7,0.6-1.3,1.3-1.3c0.3,0,0.5,0.1,0.7,0.2l0.4,0.2c1.6,1.1,3.8,1.1,5.4,0l0.4-0.2
		c0.2-0.1,0.5-0.2,0.7-0.2c0.7,0,1.3,0.6,1.3,1.3v1.2C41.3,25.8,41.7,26.7,42.5,27.3L42.5,27.3z M24.1,23.2c0-0.9,0.7-1.8,2-2.6
		c-0.1,0.4-0.1,0.7-0.1,1.1v3.9C24.8,25,24.1,24.1,24.1,23.2L24.1,23.2z M26,29.9c0-0.8,0.5-1.5,1.3-1.8v3.1c0,0.2,0,0.4,0,0.5
		C26.6,31.4,26,30.7,26,29.9z M32.4,39.2c1.2,0.6,2.4,0.9,3.8,0.9s2.7-0.3,3.8-0.9v0.9c0,2.1-1.7,3.8-3.8,3.8s-3.8-1.7-3.8-3.8V39.2
		z M24.1,49.6h3.2v3.2h-3.2V49.6z M45.1,52.7v-3.2h3.2v3.2H45.1z M48.3,43.5v4.8h-3.2v-2.5h-1.3v7H28.6v-7h-1.3v2.5h-3.2v-4.8
		c0-1.4,0.9-2.6,2.2-3l4.7-1.5v1c0,2.8,2.3,5.1,5.1,5.1s5.1-2.3,5.1-5.1v-1l4.7,1.5C47.4,40.9,48.3,42.1,48.3,43.5z M36.2,38.8
		c-4.2,0-7.6-3.4-7.6-7.6v-3c2.1,0.7,4.8,1.1,7.6,1.1s5.5-0.4,7.6-1.1v3C43.8,35.4,40.4,38.8,36.2,38.8z M45.1,31.7
		c0-0.2,0-0.3,0-0.5v-3.1c0.7,0.3,1.3,1,1.3,1.8C46.4,30.7,45.8,31.4,45.1,31.7z"/>
	<path class="st0" d="M55.9,16h-1.3v-1.3h-1.3V16h-1.3v1.3h1.3v1.3h1.3v-1.3h1.3V16z"/>
	<path class="st0" d="M53.3,21h-1.3v1.3h-1.3v1.3h1.3v1.3h1.3v-1.3h1.3v-1.3h-1.3V21z"/>
	<path class="st0" d="M50.8,17.2V16h-1.3v-1.3h-1.3V16H47v1.3h1.3v1.3h1.3v-1.3H50.8z"/>
	<path class="st0" d="M17.8,18.5h1.3v-1.3h1.3V16h-1.3v-1.3h-1.3V16h-1.3v1.3h1.3V18.5z"/>
	<path class="st0" d="M20.3,21h-1.3v1.3h-1.3v1.3h1.3v1.3h1.3v-1.3h1.3v-1.3h-1.3V21z"/>
	<path class="st0" d="M22.9,18.5h1.3v-1.3h1.3V16h-1.3v-1.3h-1.3V16h-1.3v1.3h1.3V18.5z"/>
</g>
</svg>
