<svg xmlns="http://www.w3.org/2000/svg" xmlns:xlink="http://www.w3.org/1999/xlink" width="1080" zoomAndPan="magnify" viewBox="0 0 810 1012.49997" height="1350" preserveAspectRatio="xMidYMid meet" version="1.2"><defs><clipPath id="94f121d1bc"><path d="M 0.199219 0 L 108 0 L 108 17 L 0.199219 17 Z M 0.199219 0 "/></clipPath><clipPath id="e9de6aed16"><path d="M -198.101562 16.757812 L 107.367188 16.796875 L 107.375 -29.351562 C 107.375 -50.816406 89.980469 -68.226562 68.507812 -68.226562 L -198.089844 -68.257812 Z M -198.101562 16.757812 "/></clipPath><linearGradient x1="330.012643" gradientTransform="matrix(0.626876,0,0,0.626915,-206.677149,-164.571065)" y1="221.464" x2="500.980002" gradientUnits="userSpaceOnUse" y2="221.464" id="7e98044743"><stop style="stop-color:#587f26;stop-opacity:1;" offset="0"/><stop style="stop-color:#577e26;stop-opacity:1;" offset="0.03125"/><stop style="stop-color:#577d26;stop-opacity:1;" offset="0.0625"/><stop style="stop-color:#567c26;stop-opacity:1;" offset="0.09375"/><stop style="stop-color:#557b26;stop-opacity:1;" offset="0.125"/><stop style="stop-color:#557a26;stop-opacity:1;" offset="0.15625"/><stop style="stop-color:#547926;stop-opacity:1;" offset="0.1875"/><stop style="stop-color:#537826;stop-opacity:1;" offset="0.21875"/><stop style="stop-color:#537726;stop-opacity:1;" offset="0.25"/><stop style="stop-color:#527726;stop-opacity:1;" offset="0.28125"/><stop style="stop-color:#517626;stop-opacity:1;" offset="0.3125"/><stop style="stop-color:#517526;stop-opacity:1;" offset="0.34375"/><stop style="stop-color:#507426;stop-opacity:1;" offset="0.375"/><stop style="stop-color:#4f7326;stop-opacity:1;" offset="0.40625"/><stop style="stop-color:#4f7226;stop-opacity:1;" offset="0.4375"/><stop style="stop-color:#4e7126;stop-opacity:1;" offset="0.46875"/><stop style="stop-color:#4d7026;stop-opacity:1;" offset="0.5"/><stop style="stop-color:#4d6f26;stop-opacity:1;" offset="0.53125"/><stop style="stop-color:#4c6e26;stop-opacity:1;" offset="0.5625"/><stop style="stop-color:#4b6d26;stop-opacity:1;" offset="0.59375"/><stop style="stop-color:#4b6c26;stop-opacity:1;" offset="0.625"/><stop style="stop-color:#4a6b26;stop-opacity:1;" offset="0.65625"/><stop style="stop-color:#496a26;stop-opacity:1;" offset="0.6875"/><stop style="stop-color:#486926;stop-opacity:1;" offset="0.71875"/><stop style="stop-color:#486826;stop-opacity:1;" offset="0.75"/><stop style="stop-color:#476726;stop-opacity:1;" offset="0.78125"/><stop style="stop-color:#466626;stop-opacity:1;" offset="0.8125"/><stop style="stop-color:#466526;stop-opacity:1;" offset="0.84375"/><stop style="stop-color:#456426;stop-opacity:1;" offset="0.875"/><stop style="stop-color:#446326;stop-opacity:1;" offset="0.90625"/><stop style="stop-color:#446226;stop-opacity:1;" offset="0.9375"/><stop style="stop-color:#436126;stop-opacity:1;" offset="0.96875"/><stop style="stop-color:#426026;stop-opacity:1;" offset="1"/></linearGradient><clipPath id="c6ee0cca05"><path d="M 215.179688 434 L 508 434 L 508 578 L 215.179688 578 Z M 215.179688 434 "/></clipPath><clipPath id="0beb5e3c44"><path d="M 259.25 351.859375 L 594.496094 351.859375 L 594.496094 659.828125 L 259.25 659.828125 Z M 259.25 351.859375 "/></clipPath></defs><g id="9aa6df4cf5"><g clip-rule="nonzero" clip-path="url(#94f121d1bc)"><g clip-rule="nonzero" clip-path="url(#e9de6aed16)"><path style=" stroke:none;fill-rule:nonzero;fill:url(#7e98044743);" d="M 0.199219 0 L 0.199219 16.796875 L 107.375 16.796875 L 107.375 0 Z M 0.199219 0 "/></g></g><g clip-rule="nonzero" clip-path="url(#c6ee0cca05)"><path style=" stroke:none;fill-rule:nonzero;fill:#000000;fill-opacity:1;" d="M 393.324219 577.324219 C 392.78125 577.324219 392.234375 577.285156 391.683594 577.195312 C 386.796875 576.425781 383.085938 572.335938 382.445312 567.011719 L 368.433594 449.863281 L 349.511719 522.921875 C 348.296875 527.628906 344.269531 530.921875 339.738281 530.921875 L 220.925781 530.921875 C 217.753906 530.921875 215.179688 528.347656 215.179688 525.175781 L 215.179688 525.058594 C 215.179688 521.886719 217.753906 519.316406 220.925781 519.316406 L 338.457031 519.316406 L 358.226562 442.984375 C 359.648438 437.492188 364.132812 434.042969 369.375 434.394531 C 374.652344 434.746094 378.820312 438.980469 379.5 444.679688 L 393.683594 563.234375 L 413.128906 521.023438 C 414.855469 517.285156 418.335938 514.960938 422.214844 514.960938 L 501.730469 514.960938 C 504.902344 514.960938 507.476562 517.53125 507.476562 520.707031 L 507.476562 520.820312 C 507.476562 523.992188 504.902344 526.5625 501.730469 526.5625 L 423.355469 526.5625 L 402.972656 570.804688 C 401.089844 574.890625 397.410156 577.324219 393.324219 577.324219 "/></g><g clip-rule="nonzero" clip-path="url(#0beb5e3c44)"><path style=" stroke:none;fill-rule:nonzero;fill:#000000;fill-opacity:1;" d="M 594.394531 438.445312 C 594.585938 417.128906 582.9375 397.558594 581.882812 395.835938 C 574.230469 382.710938 563.257812 371.707031 550.152344 364.011719 C 536.628906 356.066406 521.144531 351.867188 505.375 351.867188 C 472.851562 351.867188 443.429688 369.609375 428.015625 397.300781 C 427.613281 398.023438 426.570312 398.023438 426.167969 397.300781 C 410.753906 369.613281 381.332031 351.875 348.8125 351.875 C 333.042969 351.875 317.558594 356.074219 304.03125 364.015625 C 290.925781 371.71875 279.953125 382.726562 272.296875 395.851562 C 271.269531 397.539062 259.605469 417.234375 259.792969 438.4375 C 259.554688 442.066406 258.886719 458.402344 264 475.609375 C 264.472656 477.207031 265.644531 480.285156 266.605469 482.746094 C 267.460938 484.941406 269.585938 486.390625 271.945312 486.390625 L 272.074219 486.390625 C 276.171875 486.390625 278.945312 482.214844 277.363281 478.433594 C 276.679688 476.804688 276.085938 475.328125 275.804688 474.476562 C 270.316406 457.722656 271.265625 440.667969 271.367188 439.070312 L 271.398438 438.839844 L 271.394531 438.4375 C 271.195312 420.316406 281.847656 402.480469 282.222656 401.867188 L 282.296875 401.734375 C 296.042969 378.136719 321.53125 363.476562 348.8125 363.476562 C 381.714844 363.476562 410.964844 384.371094 421.601562 415.480469 L 421.65625 415.640625 C 423.425781 420.824219 430.757812 420.824219 432.527344 415.640625 L 432.585938 415.480469 C 443.210938 384.367188 472.46875 363.464844 505.375 363.464844 C 532.65625 363.464844 558.140625 378.128906 571.886719 401.726562 L 571.96875 401.867188 C 572.40625 402.589844 582.988281 420.363281 582.792969 438.425781 L 582.789062 438.839844 L 582.820312 439.070312 C 582.941406 440.96875 584.1875 463.742188 575.132812 482.609375 L 574.949219 483.042969 C 570.160156 495.5 563.230469 507.890625 554.355469 519.867188 L 549.90625 525.863281 L 550.257812 526.007812 C 515.167969 576.988281 448.761719 631.675781 428.644531 647.683594 C 428.078125 648.128906 427.492188 648.222656 427.09375 648.222656 C 426.695312 648.222656 426.109375 648.128906 425.542969 647.683594 C 415.40625 639.613281 393.519531 621.722656 369.8125 599.445312 C 368.746094 598.441406 367.335938 597.882812 365.875 597.882812 L 365.707031 597.882812 C 360.511719 597.882812 357.996094 604.242188 361.78125 607.800781 C 385.898438 630.484375 408.101562 648.628906 418.363281 656.796875 C 420.832031 658.761719 423.890625 659.828125 427.046875 659.828125 L 427.09375 659.828125 C 430.265625 659.828125 433.382812 658.738281 435.867188 656.761719 C 457.097656 639.871094 529.039062 580.585938 563.847656 526.542969 C 573.21875 513.867188 580.574219 500.703125 585.703125 487.414062 C 595.523438 466.769531 594.660156 442.832031 594.394531 438.445312 "/></g></g></svg>