<svg xmlns="http://www.w3.org/2000/svg" xmlns:xlink="http://www.w3.org/1999/xlink" width="1080" zoomAndPan="magnify" viewBox="0 0 810 1012.49997" height="1350" preserveAspectRatio="xMidYMid meet" version="1.2"><defs><clipPath id="da4054fff9"><path d="M 182.308594 422 L 526 422 L 526 590 L 182.308594 590 Z M 182.308594 422 "/></clipPath><clipPath id="334f5b8575"><path d="M 234.050781 325.164062 L 627.589844 325.164062 L 627.589844 686.878906 L 234.050781 686.878906 Z M 234.050781 325.164062 "/></clipPath><clipPath id="6e469b7535"><path d="M 510.128906 604.878906 L 517.15625 604.878906 L 517.15625 611.902344 L 510.128906 611.902344 Z M 510.128906 604.878906 "/></clipPath><clipPath id="496d138d29"><path d="M 0.128906 0.878906 L 7.15625 0.878906 L 7.15625 7.902344 L 0.128906 7.902344 Z M 0.128906 0.878906 "/></clipPath><clipPath id="eed9275be1"><rect x="0" width="8" y="0" height="8"/></clipPath></defs><g id="dd56c5c1c9"><g clip-rule="nonzero" clip-path="url(#da4054fff9)"><path style=" stroke:none;fill-rule:nonzero;fill:#4c583f;fill-opacity:1;" d="M 391.476562 589.976562 C 390.839844 589.976562 390.199219 589.929688 389.550781 589.828125 C 383.8125 588.917969 379.453125 584.117188 378.703125 577.867188 L 362.253906 440.273438 L 340.039062 526.078125 C 338.605469 531.605469 333.878906 535.472656 328.558594 535.472656 L 189.050781 535.472656 C 185.332031 535.472656 182.308594 532.453125 182.308594 528.726562 L 182.308594 528.589844 C 182.308594 524.863281 185.332031 521.84375 189.050781 521.84375 L 327.054688 521.84375 L 350.265625 432.191406 C 351.9375 425.742188 357.203125 421.6875 363.359375 422.101562 C 369.554688 422.515625 374.449219 427.488281 375.246094 434.183594 L 391.898438 573.429688 L 414.730469 523.847656 C 416.757812 519.460938 420.847656 516.730469 425.402344 516.730469 L 518.761719 516.730469 C 522.488281 516.730469 525.511719 519.75 525.511719 523.476562 L 525.511719 523.609375 C 525.511719 527.335938 522.488281 530.351562 518.761719 530.351562 L 426.738281 530.351562 L 402.808594 582.316406 C 400.59375 587.117188 396.277344 589.976562 391.476562 589.976562 "/></g><g clip-rule="nonzero" clip-path="url(#334f5b8575)"><path style=" stroke:none;fill-rule:nonzero;fill:#4c583f;fill-opacity:1;" d="M 627.570312 426.859375 C 627.792969 401.824219 614.113281 378.839844 612.875 376.8125 C 603.890625 361.402344 591.007812 348.476562 575.621094 339.4375 C 559.742188 330.105469 541.5625 325.171875 523.042969 325.171875 C 484.855469 325.171875 450.308594 346.007812 432.210938 378.535156 C 431.742188 379.382812 430.511719 379.382812 430.039062 378.535156 C 411.945312 346.015625 377.398438 325.179688 339.214844 325.179688 C 320.695312 325.179688 302.515625 330.113281 286.632812 339.441406 C 271.246094 348.484375 258.363281 361.417969 249.371094 376.835938 C 248.167969 378.8125 234.472656 401.949219 234.6875 426.851562 C 234.410156 431.113281 233.625 450.300781 239.632812 470.511719 C 240.1875 472.386719 241.5625 476 242.691406 478.890625 C 243.695312 481.472656 246.1875 483.171875 248.960938 483.171875 L 249.113281 483.171875 C 253.921875 483.171875 257.179688 478.269531 255.320312 473.828125 C 254.515625 471.917969 253.824219 470.179688 253.492188 469.179688 C 247.050781 449.503906 248.164062 429.472656 248.28125 427.597656 L 248.320312 427.320312 L 248.3125 426.851562 C 248.082031 405.566406 260.585938 384.617188 261.027344 383.898438 L 261.113281 383.742188 C 277.253906 356.027344 307.179688 338.804688 339.214844 338.804688 C 377.847656 338.804688 412.191406 363.347656 424.683594 399.886719 L 424.742188 400.078125 C 426.820312 406.160156 435.429688 406.160156 437.507812 400.078125 L 437.574219 399.886719 C 450.054688 363.34375 484.402344 338.796875 523.042969 338.796875 C 555.078125 338.796875 585 356.015625 601.136719 383.730469 L 601.238281 383.898438 C 601.75 384.746094 614.171875 405.621094 613.945312 426.839844 L 613.9375 427.320312 L 613.976562 427.597656 C 614.121094 429.824219 615.582031 456.570312 604.953125 478.730469 L 604.734375 479.238281 C 599.113281 493.875 590.976562 508.425781 580.554688 522.492188 L 575.328125 529.535156 L 575.746094 529.707031 C 534.542969 589.582031 456.570312 653.8125 432.949219 672.617188 C 432.285156 673.140625 431.59375 673.25 431.128906 673.25 C 430.664062 673.25 429.972656 673.140625 429.308594 672.617188 C 417.40625 663.136719 391.707031 642.121094 363.871094 615.957031 C 362.617188 614.78125 360.964844 614.121094 359.25 614.121094 L 359.050781 614.121094 C 352.953125 614.121094 349.996094 621.589844 354.4375 625.773438 C 382.761719 652.414062 408.828125 673.726562 420.878906 683.316406 C 423.773438 685.625 427.367188 686.878906 431.070312 686.878906 L 431.128906 686.878906 C 434.855469 686.878906 438.515625 685.597656 441.429688 683.277344 C 466.359375 663.4375 550.828125 593.808594 591.703125 530.332031 C 602.703125 515.441406 611.335938 499.984375 617.359375 484.375 C 628.890625 460.125 627.878906 432.011719 627.570312 426.859375 "/></g><g clip-rule="nonzero" clip-path="url(#6e469b7535)"><g transform="matrix(1,0,0,1,510,604)"><g clip-path="url(#eed9275be1)"><g clip-rule="nonzero" clip-path="url(#496d138d29)"><path style=" stroke:none;fill-rule:nonzero;fill:#4c583f;fill-opacity:1;" d="M 0.128906 0.878906 L 7.15625 0.878906 L 7.15625 7.902344 L 0.128906 7.902344 Z M 0.128906 0.878906 "/></g></g></g></g></g></svg>