<svg xmlns="http://www.w3.org/2000/svg" xmlns:xlink="http://www.w3.org/1999/xlink" width="1080" zoomAndPan="magnify" viewBox="0 0 810 1012.49997" height="1350" preserveAspectRatio="xMidYMid meet" version="1.0"><defs><clipPath id="45d8c1cb61"><path d="M 232.304688 295.394531 L 577 295.394531 L 577 716.6875 L 232.304688 716.6875 Z M 232.304688 295.394531 " clip-rule="nonzero"/></clipPath></defs><g clip-path="url(#45d8c1cb61)"><path fill="#422b1c" d="M 255.554688 560.890625 C 255.554688 557.441406 258.359375 554.636719 261.808594 554.636719 L 325.40625 554.636719 C 328.863281 554.636719 331.652344 557.441406 331.652344 560.890625 C 331.652344 564.351562 328.863281 567.144531 325.40625 567.144531 L 261.808594 567.144531 C 258.359375 567.144531 255.554688 564.351562 255.554688 560.890625 Z M 349.835938 596.914062 C 349.835938 600.363281 347.035156 603.167969 343.585938 603.167969 L 261.808594 603.167969 C 258.359375 603.167969 255.554688 600.363281 255.554688 596.914062 C 255.554688 593.453125 258.359375 590.660156 261.808594 590.660156 L 343.585938 590.660156 C 347.035156 590.664062 349.835938 593.453125 349.835938 596.914062 Z M 255.554688 524.871094 C 255.554688 521.421875 258.359375 518.625 261.808594 518.625 L 321.414062 518.625 C 324.863281 518.625 327.667969 521.421875 327.667969 524.871094 C 327.667969 528.324219 324.863281 531.125 321.414062 531.125 L 261.808594 531.125 C 258.359375 531.125 255.554688 528.324219 255.554688 524.871094 Z M 433 480.914062 C 460.425781 480.914062 483.035156 503.050781 483.035156 530.921875 C 483.035156 558.816406 460.402344 580.953125 433 580.945312 C 420.1875 580.933594 407.375 576.058594 397.617188 566.304688 C 378.105469 546.804688 378.105469 515.058594 397.617188 495.554688 C 407.375 485.792969 420.1875 480.914062 433 480.914062 Z M 370.464844 530.925781 C 370.464844 565.800781 398.714844 593.4375 433 593.4375 C 467.292969 593.4375 495.539062 565.769531 495.539062 530.925781 C 495.539062 496.375 467.546875 468.390625 433 468.390625 C 398.441406 468.390625 370.464844 496.359375 370.464844 530.925781 Z M 563.609375 646.117188 L 544.695312 665.015625 C 544.398438 665.328125 543.863281 665.328125 543.5625 665.015625 L 506.273438 627.726562 C 505.964844 627.429688 505.964844 626.890625 506.273438 626.597656 L 525.171875 607.679688 C 525.476562 607.382812 526.007812 607.375 526.316406 607.679688 L 563.609375 644.972656 C 563.910156 645.273438 563.910156 645.808594 563.609375 646.117188 Z M 493.699219 591.636719 C 494.394531 590.945312 495.066406 590.246094 495.726562 589.539062 L 510.6875 604.488281 L 503.082031 612.101562 L 487.910156 596.929688 C 489.902344 595.265625 491.847656 593.496094 493.699219 591.636719 Z M 419.882812 626.675781 C 423.238281 626.675781 425.96875 623.941406 425.96875 620.589844 L 425.96875 616.882812 C 380.640625 613.679688 345.257812 575.894531 345.257812 530.148438 C 345.257812 484.09375 380.871094 446.671875 425.96875 443.453125 L 425.96875 420.980469 L 390.476562 421.128906 C 387.011719 421.136719 384.21875 418.355469 384.203125 414.902344 C 384.1875 411.453125 386.976562 408.648438 390.425781 408.625 L 425.96875 408.476562 L 425.96875 380.488281 C 425.96875 377.136719 423.238281 374.402344 419.882812 374.402344 L 347.726562 374.402344 L 338.105469 390.785156 C 336.945312 392.765625 334.855469 393.878906 332.71875 393.878906 C 327.925781 393.878906 324.871094 388.636719 327.328125 384.460938 L 333.234375 374.402344 L 250.929688 374.402344 C 247.574219 374.402344 244.847656 377.136719 244.847656 380.488281 L 244.847656 620.59375 C 244.847656 623.941406 247.574219 626.675781 250.929688 626.675781 Z M 506.675781 530.148438 C 506.675781 488.652344 473.039062 455.726562 432.214844 455.726562 C 391.371094 455.726562 357.765625 488.667969 357.765625 530.148438 C 357.765625 571.292969 391.078125 604.597656 432.214844 604.597656 C 473.351562 604.601562 506.675781 571.292969 506.675781 530.148438 Z M 469.523438 661.765625 C 481.1875 661.765625 490.675781 671.257812 490.675781 682.929688 C 490.675781 694.597656 481.1875 704.089844 469.523438 704.089844 C 457.855469 704.089844 448.363281 694.597656 448.363281 682.929688 C 448.363281 671.257812 457.855469 661.765625 469.523438 661.765625 Z M 519.101562 307.886719 C 530.765625 307.886719 540.253906 317.367188 540.253906 329.0625 C 540.253906 340.730469 530.765625 350.226562 519.101562 350.226562 C 507.433594 350.226562 497.9375 340.730469 497.9375 329.0625 C 497.9375 317.367188 507.433594 307.886719 519.101562 307.886719 Z M 519.101562 393.191406 C 530.765625 393.191406 540.253906 402.679688 540.253906 414.347656 C 540.253906 426.015625 530.765625 435.503906 519.101562 435.503906 C 507.433594 435.503906 497.9375 426.015625 497.9375 414.347656 C 497.9375 402.679688 507.433594 393.191406 519.101562 393.191406 Z M 572.453125 636.128906 L 535.160156 598.835938 C 531.171875 594.859375 525.152344 593.847656 520.089844 596.21875 L 503.644531 579.769531 C 527.558594 545.539062 523.621094 498.574219 493.699219 468.660156 C 478.339844 453.292969 458.605469 444.890625 438.464844 443.453125 L 438.464844 420.929688 L 486.050781 420.734375 C 489.042969 436.246094 502.722656 448.011719 519.101562 448.011719 C 537.664062 448.011719 552.753906 432.90625 552.753906 414.347656 C 552.753906 395.785156 537.664062 380.6875 519.101562 380.6875 C 502.625 380.6875 488.886719 392.585938 486 408.238281 L 438.464844 408.425781 L 438.464844 380.488281 C 438.464844 370.246094 430.132812 361.902344 419.882812 361.902344 L 355.0625 361.902344 L 370.664062 335.3125 L 486.027344 335.3125 C 488.96875 350.898438 502.671875 362.730469 519.101562 362.730469 C 537.664062 362.730469 552.753906 347.625 552.753906 329.0625 C 552.753906 310.519531 537.664062 295.402344 519.101562 295.402344 C 502.671875 295.402344 488.96875 307.199219 486.027344 322.808594 L 367.089844 322.808594 C 364.871094 322.808594 362.820312 323.984375 361.695312 325.894531 L 340.566406 361.902344 L 250.929688 361.902344 C 240.679688 361.902344 232.347656 370.246094 232.347656 380.488281 L 232.347656 620.589844 C 232.347656 630.835938 240.679688 639.179688 250.929688 639.179688 L 325.496094 639.179688 L 352.859375 686.082031 C 353.976562 688 356.039062 689.179688 358.261719 689.179688 L 436.449219 689.179688 C 439.382812 704.765625 453.09375 716.59375 469.523438 716.59375 C 488.085938 716.59375 503.183594 701.488281 503.183594 682.929688 C 503.183594 664.367188 488.085938 649.265625 469.523438 649.265625 C 453.09375 649.265625 439.382812 661.09375 436.449219 676.679688 L 361.851562 676.679688 L 339.976562 639.179688 L 419.882812 639.179688 C 430.132812 639.179688 438.464844 630.835938 438.464844 620.589844 L 438.464844 616.882812 C 452.488281 615.894531 465.839844 611.582031 477.636719 604.332031 L 494.8125 621.507812 C 492.496094 626.445312 493.363281 632.507812 497.429688 636.566406 L 534.722656 673.859375 C 539.910156 679.050781 548.347656 679.050781 553.539062 673.859375 L 572.453125 654.949219 C 577.636719 649.765625 577.636719 641.320312 572.453125 636.128906 Z M 272.101562 458.023438 C 272.101562 444.824219 282.839844 434.082031 296.042969 434.082031 C 309.246094 434.082031 319.980469 444.824219 319.980469 458.023438 L 319.980469 482.613281 L 272.101562 482.613281 Z M 285.039062 410.578125 C 285.039062 404.511719 289.972656 399.578125 296.039062 399.578125 C 302.109375 399.578125 307.042969 404.511719 307.042969 410.578125 C 307.042969 416.644531 302.109375 421.578125 296.039062 421.578125 C 289.972656 421.578125 285.039062 416.644531 285.039062 410.578125 Z M 265.855469 495.113281 C 262.402344 495.113281 259.601562 492.308594 259.601562 488.859375 L 259.601562 458.023438 C 259.601562 444.308594 267.21875 432.351562 278.4375 426.128906 C 265.085938 411.011719 275.84375 387.070312 296.042969 387.070312 C 316.238281 387.070312 326.996094 411.015625 313.644531 426.128906 C 324.871094 432.351562 332.480469 444.304688 332.480469 458.023438 L 332.480469 488.859375 C 332.480469 492.308594 329.691406 495.113281 326.230469 495.113281 Z M 265.855469 495.113281 " fill-opacity="1" fill-rule="evenodd"/></g></svg>