<svg xmlns="http://www.w3.org/2000/svg" xmlns:xlink="http://www.w3.org/1999/xlink" width="1080" zoomAndPan="magnify" viewBox="0 0 810 1012.49997" height="1350" preserveAspectRatio="xMidYMid meet" version="1.2"><defs><clipPath id="483d27409a"><path d="M 0.199219 0 L 108 0 L 108 17 L 0.199219 17 Z M 0.199219 0 "/></clipPath><clipPath id="ad1b9c8819"><path d="M -198.101562 16.757812 L 107.367188 16.796875 L 107.375 -29.351562 C 107.375 -50.816406 89.980469 -68.226562 68.507812 -68.226562 L -198.089844 -68.257812 Z M -198.101562 16.757812 "/></clipPath><linearGradient x1="330.012643" gradientTransform="matrix(0.626876,0,0,0.626915,-206.677149,-164.571065)" y1="221.464" x2="500.980002" gradientUnits="userSpaceOnUse" y2="221.464" id="33d7922355"><stop style="stop-color:#587f26;stop-opacity:1;" offset="0"/><stop style="stop-color:#577e26;stop-opacity:1;" offset="0.03125"/><stop style="stop-color:#577d26;stop-opacity:1;" offset="0.0625"/><stop style="stop-color:#567c26;stop-opacity:1;" offset="0.09375"/><stop style="stop-color:#557b26;stop-opacity:1;" offset="0.125"/><stop style="stop-color:#557a26;stop-opacity:1;" offset="0.15625"/><stop style="stop-color:#547926;stop-opacity:1;" offset="0.1875"/><stop style="stop-color:#537826;stop-opacity:1;" offset="0.21875"/><stop style="stop-color:#537726;stop-opacity:1;" offset="0.25"/><stop style="stop-color:#527726;stop-opacity:1;" offset="0.28125"/><stop style="stop-color:#517626;stop-opacity:1;" offset="0.3125"/><stop style="stop-color:#517526;stop-opacity:1;" offset="0.34375"/><stop style="stop-color:#507426;stop-opacity:1;" offset="0.375"/><stop style="stop-color:#4f7326;stop-opacity:1;" offset="0.40625"/><stop style="stop-color:#4f7226;stop-opacity:1;" offset="0.4375"/><stop style="stop-color:#4e7126;stop-opacity:1;" offset="0.46875"/><stop style="stop-color:#4d7026;stop-opacity:1;" offset="0.5"/><stop style="stop-color:#4d6f26;stop-opacity:1;" offset="0.53125"/><stop style="stop-color:#4c6e26;stop-opacity:1;" offset="0.5625"/><stop style="stop-color:#4b6d26;stop-opacity:1;" offset="0.59375"/><stop style="stop-color:#4b6c26;stop-opacity:1;" offset="0.625"/><stop style="stop-color:#4a6b26;stop-opacity:1;" offset="0.65625"/><stop style="stop-color:#496a26;stop-opacity:1;" offset="0.6875"/><stop style="stop-color:#486926;stop-opacity:1;" offset="0.71875"/><stop style="stop-color:#486826;stop-opacity:1;" offset="0.75"/><stop style="stop-color:#476726;stop-opacity:1;" offset="0.78125"/><stop style="stop-color:#466626;stop-opacity:1;" offset="0.8125"/><stop style="stop-color:#466526;stop-opacity:1;" offset="0.84375"/><stop style="stop-color:#456426;stop-opacity:1;" offset="0.875"/><stop style="stop-color:#446326;stop-opacity:1;" offset="0.90625"/><stop style="stop-color:#446226;stop-opacity:1;" offset="0.9375"/><stop style="stop-color:#436126;stop-opacity:1;" offset="0.96875"/><stop style="stop-color:#426026;stop-opacity:1;" offset="1"/></linearGradient><filter x="0%" y="0%" width="100%" filterUnits="objectBoundingBox" id="aefb587e7e" height="100%"><feColorMatrix values="0 0 0 0 1 0 0 0 0 1 0 0 0 0 1 0 0 0 1 0" type="matrix" in="SourceGraphic"/></filter><clipPath id="31c67d04c6"><path d="M 50 46 L 330 46 L 330 362.148438 L 50 362.148438 Z M 50 46 "/></clipPath><clipPath id="4c645e7d10"><path d="M 0.464844 2 L 379.777344 2 L 379.777344 194 L 0.464844 194 Z M 0.464844 2 "/></clipPath><clipPath id="93a10d4b87"><rect x="0" width="380" y="0" height="363"/></clipPath></defs><g id="9099b01c1a"><g clip-rule="nonzero" clip-path="url(#483d27409a)"><g clip-rule="nonzero" clip-path="url(#ad1b9c8819)"><path style=" stroke:none;fill-rule:nonzero;fill:url(#33d7922355);" d="M 0.199219 0 L 0.199219 16.796875 L 107.375 16.796875 L 107.375 0 Z M 0.199219 0 "/></g></g><g mask="url(#c3152b85a9)" transform="matrix(1,0,0,1,215,325)"><g clip-path="url(#93a10d4b87)"><g clip-rule="nonzero" clip-path="url(#31c67d04c6)"><path style=" stroke:none;fill-rule:nonzero;fill:#231f20;fill-opacity:1;" d="M 208.632812 53.710938 C 198.402344 43.480469 181.761719 43.480469 171.609375 53.710938 L 58.019531 167.296875 C 53.058594 172.257812 50.3125 178.824219 50.3125 185.847656 L 50.3125 335.847656 C 50.3125 350.273438 62.066406 362.03125 76.492188 362.03125 L 137.640625 362.03125 C 152.066406 362.03125 163.824219 350.273438 163.824219 335.847656 L 163.824219 266 C 163.824219 261.191406 167.714844 257.296875 172.523438 257.296875 L 207.488281 257.296875 C 212.296875 257.296875 216.1875 261.191406 216.1875 266 L 216.1875 335.921875 C 216.1875 350.351562 227.945312 362.105469 242.371094 362.105469 L 303.515625 362.105469 C 317.945312 362.105469 329.699219 350.351562 329.699219 335.921875 L 329.699219 185.847656 C 329.699219 178.824219 326.953125 172.257812 321.988281 167.296875 Z M 312.449219 335.847656 C 312.449219 340.65625 308.554688 344.550781 303.746094 344.550781 L 242.601562 344.550781 C 237.792969 344.550781 233.898438 340.65625 233.898438 335.847656 L 233.898438 266 C 233.898438 251.574219 222.144531 239.816406 207.714844 239.816406 L 172.753906 239.816406 C 158.324219 239.816406 146.570312 251.574219 146.570312 266 L 146.570312 335.921875 C 146.570312 340.734375 142.675781 344.625 137.867188 344.625 L 76.492188 344.625 C 71.683594 344.625 67.792969 340.734375 67.792969 335.921875 L 67.792969 185.847656 C 67.792969 183.480469 68.707031 181.34375 70.386719 179.664062 L 183.898438 66.078125 C 187.179688 62.792969 192.984375 62.792969 196.265625 66.078125 L 309.851562 179.664062 C 311.53125 181.34375 312.449219 183.480469 312.449219 185.847656 Z M 312.449219 335.847656 "/></g><g clip-rule="nonzero" clip-path="url(#4c645e7d10)"><path style=" stroke:none;fill-rule:nonzero;fill:#231f20;fill-opacity:1;" d="M 208.632812 10.046875 C 198.707031 0.121094 181.457031 0.121094 171.609375 10.046875 L 120.234375 61.421875 L 120.234375 51.953125 C 120.234375 37.527344 108.480469 25.769531 94.050781 25.769531 L 76.492188 25.769531 C 62.066406 25.769531 50.3125 37.527344 50.3125 51.953125 L 50.3125 131.34375 L 0.464844 181.191406 L 12.828125 193.558594 L 183.898438 22.414062 C 187.179688 19.128906 192.984375 19.128906 196.265625 22.414062 L 367.410156 193.558594 L 379.777344 181.191406 Z M 67.792969 51.953125 C 67.792969 47.144531 71.683594 43.253906 76.492188 43.253906 L 93.976562 43.253906 C 98.785156 43.253906 102.675781 47.144531 102.675781 51.953125 L 102.675781 78.902344 L 67.714844 113.863281 L 67.714844 51.953125 Z M 67.792969 51.953125 "/></g></g><mask id="c3152b85a9"><g filter="url(#aefb587e7e)"><rect x="0" width="810" y="0" height="1012.49997" style="fill:#000000;fill-opacity:0.8;stroke:none;"/></g></mask></g></g></svg>