<svg xmlns="http://www.w3.org/2000/svg" xmlns:xlink="http://www.w3.org/1999/xlink" width="1080" zoomAndPan="magnify" viewBox="0 0 810 1012.49997" height="1350" preserveAspectRatio="xMidYMid meet" version="1.2"><defs><clipPath id="ff77704ca0"><path d="M 227 334 L 583 334 L 583 735.726562 L 227 735.726562 Z M 227 334 "/></clipPath><clipPath id="ae5ef210d4"><path d="M 164.257812 279 L 645.523438 279 L 645.523438 522 L 164.257812 522 Z M 164.257812 279 "/></clipPath><clipPath id="59fec8495f"><path d="M 401.488281 587.082031 L 408.511719 587.082031 L 408.511719 594.109375 L 401.488281 594.109375 Z M 401.488281 587.082031 "/></clipPath><clipPath id="e22830db77"><path d="M 0.488281 0.0820312 L 7.511719 0.0820312 L 7.511719 7.109375 L 0.488281 7.109375 Z M 0.488281 0.0820312 "/></clipPath><clipPath id="99189d74a3"><rect x="0" width="8" y="0" height="8"/></clipPath></defs><g id="6bfc62ba30"><g clip-rule="nonzero" clip-path="url(#ff77704ca0)"><path style=" stroke:none;fill-rule:nonzero;fill:#4c583f;fill-opacity:1;" d="M 428.492188 344.28125 C 415.507812 331.296875 394.386719 331.296875 381.5 344.28125 L 237.320312 488.460938 C 231.019531 494.757812 227.53125 503.09375 227.53125 512.007812 L 227.53125 702.40625 C 227.53125 720.71875 242.453125 735.640625 260.765625 735.640625 L 338.378906 735.640625 C 356.695312 735.640625 371.617188 720.71875 371.617188 702.40625 L 371.617188 613.746094 C 371.617188 607.640625 376.558594 602.699219 382.660156 602.699219 L 427.039062 602.699219 C 433.144531 602.699219 438.085938 607.640625 438.085938 613.746094 L 438.085938 702.503906 C 438.085938 720.816406 453.007812 735.738281 471.320312 735.738281 L 548.933594 735.738281 C 567.246094 735.738281 582.167969 720.816406 582.167969 702.503906 L 582.167969 512.007812 C 582.167969 503.09375 578.679688 494.757812 572.382812 488.460938 Z M 560.269531 702.40625 C 560.269531 708.511719 555.328125 713.453125 549.226562 713.453125 L 471.613281 713.453125 C 465.507812 713.453125 460.566406 708.511719 460.566406 702.40625 L 460.566406 613.746094 C 460.566406 595.433594 445.644531 580.511719 427.332031 580.511719 L 382.953125 580.511719 C 364.640625 580.511719 349.71875 595.433594 349.71875 613.746094 L 349.71875 702.503906 C 349.71875 708.605469 344.777344 713.546875 338.671875 713.546875 L 260.765625 713.546875 C 254.664062 713.546875 249.722656 708.605469 249.722656 702.503906 L 249.722656 512.007812 C 249.722656 509.003906 250.882812 506.289062 253.015625 504.15625 L 397.097656 359.976562 C 401.265625 355.8125 408.628906 355.8125 412.796875 359.976562 L 556.976562 504.15625 C 559.109375 506.289062 560.269531 509.003906 560.269531 512.007812 Z M 560.269531 702.40625 "/></g><g clip-rule="nonzero" clip-path="url(#ae5ef210d4)"><path style=" stroke:none;fill-rule:nonzero;fill:#4c583f;fill-opacity:1;" d="M 428.492188 288.855469 C 415.898438 276.261719 394 276.261719 381.5 288.855469 L 316.289062 354.066406 L 316.289062 342.050781 C 316.289062 323.738281 301.367188 308.816406 283.054688 308.816406 L 260.765625 308.816406 C 242.453125 308.816406 227.53125 323.738281 227.53125 342.050781 L 227.53125 442.824219 L 164.257812 506.097656 L 179.957031 521.792969 L 397.097656 304.554688 C 401.265625 300.386719 408.628906 300.386719 412.796875 304.554688 L 630.035156 521.792969 L 645.734375 506.097656 Z M 249.722656 342.050781 C 249.722656 335.949219 254.664062 331.007812 260.765625 331.007812 L 282.957031 331.007812 C 289.0625 331.007812 294.003906 335.949219 294.003906 342.050781 L 294.003906 376.257812 L 249.625 420.632812 L 249.625 342.050781 Z M 249.722656 342.050781 "/></g><g clip-rule="nonzero" clip-path="url(#59fec8495f)"><g transform="matrix(1,0,0,1,401,587)"><g clip-path="url(#99189d74a3)"><g clip-rule="nonzero" clip-path="url(#e22830db77)"><path style=" stroke:none;fill-rule:nonzero;fill:#4c583f;fill-opacity:1;" d="M 0.488281 0.0820312 L 7.511719 0.0820312 L 7.511719 7.109375 L 0.488281 7.109375 Z M 0.488281 0.0820312 "/></g></g></g></g></g></svg>