<svg xmlns="http://www.w3.org/2000/svg" xmlns:xlink="http://www.w3.org/1999/xlink" width="1080" zoomAndPan="magnify" viewBox="0 0 810 1012.49997" height="1350" preserveAspectRatio="xMidYMid meet" version="1.2"><defs><clipPath id="12ce4b74ee"><path d="M 163.1875 361.515625 L 646.699219 361.515625 L 646.699219 650 L 163.1875 650 Z M 163.1875 361.515625 "/></clipPath><clipPath id="37065c25a9"><path d="M 347.070312 523.917969 L 351.300781 523.917969 L 351.300781 527.664062 L 347.070312 527.664062 Z M 347.070312 523.917969 "/></clipPath></defs><g id="e6a2abc67e"><g clip-rule="nonzero" clip-path="url(#12ce4b74ee)"><path style=" stroke:none;fill-rule:nonzero;fill:#374329;fill-opacity:1;" d="M 646.121094 552.566406 C 646.171875 552.246094 646.140625 551.9375 646.121094 551.621094 C 646.105469 551.304688 646.105469 550.992188 646.027344 550.683594 C 645.949219 550.371094 645.804688 550.09375 645.675781 549.808594 C 645.539062 549.511719 645.421875 549.234375 645.230469 548.96875 C 645.035156 548.703125 644.78125 548.492188 644.535156 548.261719 C 644.347656 548.097656 644.226562 547.882812 644.015625 547.742188 C 642.636719 546.804688 611.128906 525.90625 568.328125 518.101562 C 583.710938 477.785156 582.128906 439.984375 582.019531 437.683594 C 582.003906 437.402344 581.878906 437.167969 581.824219 436.898438 C 581.761719 436.609375 581.71875 436.320312 581.617188 436.054688 C 581.460938 435.675781 581.238281 435.359375 581.003906 435.035156 C 580.875 434.855469 580.769531 434.671875 580.621094 434.511719 C 580.320312 434.203125 579.976562 433.972656 579.609375 433.75 C 579.425781 433.640625 579.265625 433.511719 579.066406 433.421875 C 578.722656 433.273438 578.34375 433.207031 577.960938 433.136719 C 577.734375 433.09375 577.546875 432.984375 577.3125 432.96875 C 574.742188 432.839844 515.820312 430.082031 466.023438 462.011719 C 453.308594 404.804688 410.191406 365.140625 408.050781 363.203125 C 407.851562 363.023438 407.605469 362.953125 407.386719 362.808594 C 407.113281 362.628906 406.859375 362.4375 406.558594 362.316406 C 406.257812 362.191406 405.953125 362.148438 405.640625 362.089844 C 405.324219 362.027344 405.027344 361.953125 404.707031 361.953125 C 404.390625 361.953125 404.089844 362.027344 403.777344 362.089844 C 403.460938 362.148438 403.152344 362.191406 402.855469 362.316406 C 402.554688 362.4375 402.296875 362.628906 402.023438 362.808594 C 401.808594 362.949219 401.566406 363.019531 401.367188 363.199219 C 399.226562 365.136719 356.050781 404.847656 343.371094 462.109375 C 293.617188 430.316406 234.703125 432.808594 232.125 432.957031 C 231.941406 432.96875 231.792969 433.0625 231.613281 433.089844 C 231.152344 433.152344 230.710938 433.234375 230.300781 433.421875 C 230.179688 433.476562 230.085938 433.554688 229.976562 433.621094 C 229.539062 433.863281 229.132812 434.140625 228.789062 434.507812 C 228.652344 434.652344 228.5625 434.820312 228.441406 434.984375 C 228.199219 435.320312 227.96875 435.644531 227.808594 436.03125 C 227.691406 436.316406 227.648438 436.625 227.585938 436.925781 C 227.53125 437.1875 227.410156 437.414062 227.394531 437.683594 C 227.28125 439.988281 225.699219 477.867188 241.128906 518.226562 C 198.296875 526.023438 166.757812 546.949219 165.378906 547.878906 C 165.164062 548.023438 165.039062 548.238281 164.855469 548.40625 C 164.613281 548.632812 164.359375 548.839844 164.164062 549.109375 C 163.96875 549.375 163.851562 549.664062 163.714844 549.957031 C 163.585938 550.246094 163.441406 550.507812 163.367188 550.816406 C 163.289062 551.132812 163.289062 551.449219 163.273438 551.773438 C 163.257812 552.085938 163.226562 552.386719 163.273438 552.699219 C 163.324219 553.035156 163.453125 553.347656 163.566406 553.671875 C 163.652344 553.898438 163.65625 554.144531 163.777344 554.363281 C 165.375 557.351562 203.816406 627.628906 275.230469 645.316406 C 285.847656 647.941406 296.613281 649.257812 307.515625 649.257812 C 339 649.257812 371.597656 638.210938 404.800781 616.417969 C 437.941406 638.125 470.460938 649.125 501.886719 649.125 C 512.78125 649.125 523.558594 647.8125 534.167969 645.1875 C 605.578125 627.5 644.019531 557.214844 645.621094 554.230469 C 645.738281 554.003906 645.75 553.761719 645.832031 553.527344 C 645.949219 553.199219 646.082031 552.894531 646.121094 552.566406 Z M 572.121094 442.828125 C 571.988281 460.390625 568.488281 524.125 526.445312 566.125 C 500.121094 592.414062 463.367188 605.605469 417.191406 605.550781 C 451.917969 570.976562 469.546875 533.246094 469.546875 493.242188 C 469.546875 486.179688 468.996094 479.304688 468.007812 472.625 C 508.046875 445.34375 557.015625 442.886719 572.121094 442.828125 Z M 404.710938 373.855469 C 415.492188 384.800781 449.261719 422.433594 457.65625 471.335938 C 457.667969 471.398438 457.671875 471.453125 457.6875 471.515625 C 458.886719 478.574219 459.59375 485.84375 459.589844 493.316406 C 459.5625 532.546875 441.074219 569.671875 404.710938 603.75 C 368.355469 569.671875 349.859375 532.546875 349.835938 493.316406 C 349.804688 433.925781 392.363281 386.390625 404.710938 373.855469 Z M 341.402344 472.738281 C 340.425781 479.378906 339.882812 486.222656 339.882812 493.246094 C 339.882812 533.25 357.515625 570.980469 392.238281 605.558594 C 346.035156 605.625 309.308594 592.429688 282.984375 566.136719 C 240.957031 524.15625 237.441406 460.441406 237.3125 442.847656 C 252.425781 442.949219 301.328125 445.523438 341.402344 472.738281 Z M 277.699219 635.652344 C 220.03125 621.410156 184.117188 568.65625 174.925781 553.667969 C 184.691406 547.855469 211.671875 533.324219 245.0625 527.648438 C 252.164062 543.472656 262.054688 559.289062 275.882812 573.121094 C 303.226562 600.460938 340.714844 614.648438 387.4375 615.480469 C 349.398438 637.449219 312.546875 644.265625 277.699219 635.652344 Z M 531.785156 635.511719 C 496.980469 644.125 460.179688 637.371094 422.175781 615.480469 C 468.8125 614.601562 506.238281 600.425781 533.542969 573.121094 C 547.40625 559.253906 557.304688 543.398438 564.410156 527.53125 C 597.710938 533.214844 624.703125 547.738281 634.480469 553.546875 C 625.3125 568.523438 589.5 621.214844 531.785156 635.511719 Z M 531.785156 635.511719 "/></g><g clip-rule="nonzero" clip-path="url(#37065c25a9)"><path style=" stroke:none;fill-rule:nonzero;fill:#374329;fill-opacity:1;" d="M 347.070312 523.917969 L 351.300781 523.917969 L 351.300781 527.664062 L 347.070312 527.664062 Z M 347.070312 523.917969 "/></g></g></svg>