<svg xmlns="http://www.w3.org/2000/svg" xmlns:xlink="http://www.w3.org/1999/xlink" width="1080" zoomAndPan="magnify" viewBox="0 0 810 1012.49997" height="1350" preserveAspectRatio="xMidYMid meet" version="1.2"><defs><clipPath id="604d3c3daf"><path d="M 0.199219 0 L 108 0 L 108 17 L 0.199219 17 Z M 0.199219 0 "/></clipPath><clipPath id="c1104828ae"><path d="M -198.101562 16.757812 L 107.367188 16.796875 L 107.375 -29.351562 C 107.375 -50.816406 89.980469 -68.226562 68.507812 -68.226562 L -198.089844 -68.257812 Z M -198.101562 16.757812 "/></clipPath><linearGradient x1="330.012643" gradientTransform="matrix(0.626876,0,0,0.626915,-206.677149,-164.571065)" y1="221.464" x2="500.980002" gradientUnits="userSpaceOnUse" y2="221.464" id="f2c2c2be49"><stop style="stop-color:#587f26;stop-opacity:1;" offset="0"/><stop style="stop-color:#577e26;stop-opacity:1;" offset="0.03125"/><stop style="stop-color:#577d26;stop-opacity:1;" offset="0.0625"/><stop style="stop-color:#567c26;stop-opacity:1;" offset="0.09375"/><stop style="stop-color:#557b26;stop-opacity:1;" offset="0.125"/><stop style="stop-color:#557a26;stop-opacity:1;" offset="0.15625"/><stop style="stop-color:#547926;stop-opacity:1;" offset="0.1875"/><stop style="stop-color:#537826;stop-opacity:1;" offset="0.21875"/><stop style="stop-color:#537726;stop-opacity:1;" offset="0.25"/><stop style="stop-color:#527726;stop-opacity:1;" offset="0.28125"/><stop style="stop-color:#517626;stop-opacity:1;" offset="0.3125"/><stop style="stop-color:#517526;stop-opacity:1;" offset="0.34375"/><stop style="stop-color:#507426;stop-opacity:1;" offset="0.375"/><stop style="stop-color:#4f7326;stop-opacity:1;" offset="0.40625"/><stop style="stop-color:#4f7226;stop-opacity:1;" offset="0.4375"/><stop style="stop-color:#4e7126;stop-opacity:1;" offset="0.46875"/><stop style="stop-color:#4d7026;stop-opacity:1;" offset="0.5"/><stop style="stop-color:#4d6f26;stop-opacity:1;" offset="0.53125"/><stop style="stop-color:#4c6e26;stop-opacity:1;" offset="0.5625"/><stop style="stop-color:#4b6d26;stop-opacity:1;" offset="0.59375"/><stop style="stop-color:#4b6c26;stop-opacity:1;" offset="0.625"/><stop style="stop-color:#4a6b26;stop-opacity:1;" offset="0.65625"/><stop style="stop-color:#496a26;stop-opacity:1;" offset="0.6875"/><stop style="stop-color:#486926;stop-opacity:1;" offset="0.71875"/><stop style="stop-color:#486826;stop-opacity:1;" offset="0.75"/><stop style="stop-color:#476726;stop-opacity:1;" offset="0.78125"/><stop style="stop-color:#466626;stop-opacity:1;" offset="0.8125"/><stop style="stop-color:#466526;stop-opacity:1;" offset="0.84375"/><stop style="stop-color:#456426;stop-opacity:1;" offset="0.875"/><stop style="stop-color:#446326;stop-opacity:1;" offset="0.90625"/><stop style="stop-color:#446226;stop-opacity:1;" offset="0.9375"/><stop style="stop-color:#436126;stop-opacity:1;" offset="0.96875"/><stop style="stop-color:#426026;stop-opacity:1;" offset="1"/></linearGradient><filter x="0%" y="0%" width="100%" filterUnits="objectBoundingBox" id="59c4e26e0e" height="100%"><feColorMatrix values="0 0 0 0 1 0 0 0 0 1 0 0 0 0 1 0 0 0 1 0" type="matrix" in="SourceGraphic"/></filter><clipPath id="c8e32de363"><path d="M 38 0.488281 L 275 0.488281 L 275 318 L 38 318 Z M 38 0.488281 "/></clipPath><clipPath id="fa7e1d030a"><path d="M 0.261719 266 L 312.109375 266 L 312.109375 373.804688 L 0.261719 373.804688 Z M 0.261719 266 "/></clipPath><clipPath id="f48748f859"><rect x="0" width="313" y="0" height="375"/></clipPath></defs><g id="6105121eea"><g clip-rule="nonzero" clip-path="url(#604d3c3daf)"><g clip-rule="nonzero" clip-path="url(#c1104828ae)"><path style=" stroke:none;fill-rule:nonzero;fill:url(#f2c2c2be49);" d="M 0.199219 0 L 0.199219 16.796875 L 107.375 16.796875 L 107.375 0 Z M 0.199219 0 "/></g></g><g mask="url(#9aa9b468f8)" transform="matrix(1,0,0,1,249,319)"><g clip-path="url(#f48748f859)"><g clip-rule="nonzero" clip-path="url(#c8e32de363)"><path style=" stroke:none;fill-rule:nonzero;fill:#000000;fill-opacity:1;" d="M 156.140625 317.492188 C 122.816406 317.492188 38.101562 195.410156 38.101562 118.480469 C 38.101562 53.390625 91.027344 0.488281 156.140625 0.488281 C 221.257812 0.488281 274.183594 53.390625 274.183594 118.480469 C 274.183594 197.539062 190.320312 317.492188 156.140625 317.492188 Z M 156.140625 21.871094 C 102.875 21.871094 59.578125 65.234375 59.578125 118.480469 C 59.578125 190.894531 138.5 292.1875 156.140625 296.023438 C 173.1875 292.273438 252.792969 196.773438 252.792969 118.480469 C 252.707031 65.234375 209.410156 21.871094 156.140625 21.871094 Z M 156.140625 21.871094 "/></g><path style=" stroke:none;fill-rule:nonzero;fill:#000000;fill-opacity:1;" d="M 156.140625 182.375 C 121.113281 182.375 92.5625 153.835938 92.5625 118.820312 C 92.5625 83.804688 121.113281 55.265625 156.140625 55.265625 C 191.171875 55.265625 219.722656 83.804688 219.722656 118.820312 C 219.722656 153.921875 191.171875 182.375 156.140625 182.375 Z M 156.140625 76.734375 C 132.875 76.734375 113.953125 95.648438 113.953125 118.90625 C 113.953125 142.164062 132.875 161.078125 156.140625 161.078125 C 179.410156 161.078125 198.332031 142.164062 198.332031 118.90625 C 198.332031 95.648438 179.410156 76.734375 156.140625 76.734375 Z M 156.140625 76.734375 "/><g clip-rule="nonzero" clip-path="url(#fa7e1d030a)"><path style=" stroke:none;fill-rule:nonzero;fill:#000000;fill-opacity:1;" d="M 156.140625 373.804688 C 78.753906 373.804688 0.34375 352.675781 0.34375 312.378906 C 0.34375 299.515625 8.695312 281.285156 48.585938 266.972656 C 54.125 264.925781 60.261719 267.824219 62.304688 273.445312 C 64.265625 278.984375 61.453125 285.117188 55.828125 287.160156 C 30.6875 296.191406 21.820312 306.414062 21.820312 312.464844 C 21.820312 328.734375 74.152344 352.417969 156.226562 352.417969 C 238.304688 352.417969 290.632812 328.734375 290.632812 312.464844 C 290.632812 306.414062 281.769531 296.191406 256.710938 287.246094 C 251.171875 285.289062 248.273438 279.152344 250.234375 273.53125 C 252.195312 267.992188 258.417969 265.097656 263.957031 267.054688 C 303.757812 281.367188 312.027344 299.601562 312.027344 312.464844 C 311.941406 352.675781 233.53125 373.804688 156.140625 373.804688 Z M 156.140625 373.804688 "/></g></g><mask id="9aa9b468f8"><g filter="url(#59c4e26e0e)"><rect x="0" width="810" y="0" height="1012.49997" style="fill:#000000;fill-opacity:0.8;stroke:none;"/></g></mask></g></g></svg>