<svg xmlns="http://www.w3.org/2000/svg" xmlns:xlink="http://www.w3.org/1999/xlink" width="1080" zoomAndPan="magnify" viewBox="0 0 810 1012.49997" height="1350" preserveAspectRatio="xMidYMid meet" version="1.2"><defs><clipPath id="371fea53f0"><path d="M 261 278.761719 L 549 278.761719 L 549 665 L 261 665 Z M 261 278.761719 "/></clipPath><clipPath id="acd1f171bb"><path d="M 215.257812 602 L 594.570312 602 L 594.570312 733.039062 L 215.257812 733.039062 Z M 215.257812 602 "/></clipPath><clipPath id="06c4def7b9"><path d="M 437.46875 623.066406 L 444.496094 623.066406 L 444.496094 630.089844 L 437.46875 630.089844 Z M 437.46875 623.066406 "/></clipPath><clipPath id="02fbf86468"><path d="M 0.46875 0.0664062 L 7.496094 0.0664062 L 7.496094 7.089844 L 0.46875 7.089844 Z M 0.46875 0.0664062 "/></clipPath><clipPath id="28f48e2538"><rect x="0" width="8" y="0" height="8"/></clipPath></defs><g id="3c4e43e761"><g clip-rule="nonzero" clip-path="url(#371fea53f0)"><path style=" stroke:none;fill-rule:nonzero;fill:#4c583f;fill-opacity:1;" d="M 404.941406 664.683594 C 364.390625 664.683594 261.300781 516.058594 261.300781 422.40625 C 261.300781 343.167969 325.707031 278.761719 404.941406 278.761719 C 484.179688 278.761719 548.585938 343.167969 548.585938 422.40625 C 548.585938 518.652344 446.53125 664.683594 404.941406 664.683594 Z M 404.941406 304.792969 C 340.121094 304.792969 287.433594 357.585938 287.433594 422.40625 C 287.433594 510.5625 383.472656 633.878906 404.941406 638.546875 C 425.6875 633.984375 522.554688 517.71875 522.554688 422.40625 C 522.449219 357.585938 469.765625 304.792969 404.941406 304.792969 Z M 404.941406 304.792969 "/></g><path style=" stroke:none;fill-rule:nonzero;fill:#4c583f;fill-opacity:1;" d="M 404.941406 500.191406 C 362.316406 500.191406 327.570312 465.449219 327.570312 422.820312 C 327.570312 380.195312 362.316406 345.449219 404.941406 345.449219 C 447.570312 345.449219 482.3125 380.195312 482.3125 422.820312 C 482.3125 465.550781 447.570312 500.191406 404.941406 500.191406 Z M 404.941406 371.585938 C 376.628906 371.585938 353.605469 394.609375 353.605469 422.925781 C 353.605469 451.238281 376.628906 474.261719 404.941406 474.261719 C 433.257812 474.261719 456.28125 451.238281 456.28125 422.925781 C 456.28125 394.609375 433.257812 371.585938 404.941406 371.585938 Z M 404.941406 371.585938 "/><g clip-rule="nonzero" clip-path="url(#acd1f171bb)"><path style=" stroke:none;fill-rule:nonzero;fill:#4c583f;fill-opacity:1;" d="M 404.941406 733.238281 C 310.769531 733.238281 215.355469 707.515625 215.355469 658.460938 C 215.355469 642.796875 225.515625 620.601562 274.054688 603.179688 C 280.796875 600.691406 288.265625 604.214844 290.753906 611.0625 C 293.140625 617.804688 289.714844 625.269531 282.871094 627.761719 C 252.277344 638.753906 241.488281 651.199219 241.488281 658.5625 C 241.488281 678.371094 305.167969 707.203125 405.046875 707.203125 C 504.921875 707.203125 568.601562 678.371094 568.601562 658.5625 C 568.601562 651.199219 557.816406 638.753906 527.324219 627.863281 C 520.582031 625.476562 517.058594 618.011719 519.441406 611.164062 C 521.828125 604.425781 529.398438 600.898438 536.140625 603.285156 C 584.574219 620.707031 594.636719 642.902344 594.636719 658.5625 C 594.53125 707.515625 499.113281 733.238281 404.941406 733.238281 Z M 404.941406 733.238281 "/></g><g clip-rule="nonzero" clip-path="url(#06c4def7b9)"><g transform="matrix(1,0,0,1,437,623)"><g clip-path="url(#28f48e2538)"><g clip-rule="nonzero" clip-path="url(#02fbf86468)"><path style=" stroke:none;fill-rule:nonzero;fill:#4c583f;fill-opacity:1;" d="M 0.46875 0.0664062 L 7.496094 0.0664062 L 7.496094 7.089844 L 0.46875 7.089844 Z M 0.46875 0.0664062 "/></g></g></g></g></g></svg>