<svg xmlns="http://www.w3.org/2000/svg" xmlns:xlink="http://www.w3.org/1999/xlink" width="1080" zoomAndPan="magnify" viewBox="0 0 810 1012.49997" height="1350" preserveAspectRatio="xMidYMid meet" version="1.0"><defs><clipPath id="52ce307608"><path d="M 93.480469 194.480469 L 716.421875 194.480469 L 716.421875 817.421875 L 93.480469 817.421875 Z M 93.480469 194.480469 " clip-rule="nonzero"/></clipPath></defs><g clip-path="url(#52ce307608)"><path fill="#ffffff" d="M 404.707031 194.429688 L 405.25 194.429688 C 429.800781 194.445312 454.351562 197.203125 507.28125 211.613281 L 507.855469 211.8125 C 523.835938 217.347656 539.535156 224.269531 554.320312 232.496094 C 555.074219 232.917969 555.832031 233.332031 556.589844 233.75 C 570.410156 241.375 583.636719 250.246094 596.046875 259.996094 C 596.550781 260.394531 597.054688 260.789062 597.5625 261.179688 C 599.339844 262.5625 601.082031 263.988281 602.792969 265.449219 C 603.519531 266.070312 604.257812 266.679688 605.003906 267.28125 C 607.570312 269.378906 610.074219 271.550781 612.507812 273.804688 C 613.058594 274.308594 613.617188 274.808594 614.1875 275.296875 C 616.457031 277.269531 618.648438 279.335938 620.753906 281.484375 C 621.210938 281.933594 621.679688 282.347656 622.167969 282.761719 C 623.527344 283.945312 624.792969 285.214844 626.0625 286.492188 L 626.777344 287.203125 C 627.957031 288.386719 629.101562 289.585938 630.191406 290.855469 C 630.769531 291.515625 631.386719 292.125 632.015625 292.738281 C 632.96875 293.675781 633.875 294.632812 634.742188 295.652344 C 635.304688 296.292969 635.886719 296.914062 636.472656 297.539062 C 637.847656 299.003906 639.167969 300.492188 640.425781 302.0625 C 640.976562 302.738281 641.554688 303.386719 642.140625 304.03125 C 643.125 305.113281 644.058594 306.226562 644.976562 307.363281 C 645.476562 307.980469 645.984375 308.589844 646.492188 309.199219 C 648.117188 311.152344 649.703125 313.125 651.214844 315.171875 C 652.042969 316.285156 652.886719 317.390625 653.746094 318.480469 C 655.488281 320.695312 657.144531 322.953125 658.75 325.269531 C 659.148438 325.839844 659.550781 326.410156 659.953125 326.976562 C 673.398438 345.882812 684.554688 366.433594 697.824219 399.304688 L 698.027344 399.863281 C 700.546875 406.785156 702.792969 413.773438 704.835938 420.851562 L 705.011719 421.46875 C 710.957031 442.070312 714.472656 463.433594 715.933594 484.808594 L 715.980469 485.488281 C 716.082031 487.046875 716.175781 488.605469 716.257812 490.164062 L 716.292969 490.878906 C 716.546875 495.820312 716.570312 500.761719 716.566406 505.707031 L 716.566406 506.328125 C 716.5625 513.066406 716.476562 519.78125 715.996094 526.507812 L 715.945312 527.21875 C 714.261719 551.21875 709.855469 574.90625 702.757812 597.894531 L 702.566406 598.507812 C 697.796875 613.941406 691.6875 628.871094 684.5625 643.363281 C 684.320312 643.851562 684.082031 644.34375 683.839844 644.835938 C 681.832031 648.941406 679.726562 652.96875 677.441406 656.929688 C 676.957031 657.777344 676.496094 658.632812 676.03125 659.492188 C 674.085938 663.097656 671.941406 666.582031 669.789062 670.0625 L 669.324219 670.816406 C 665.632812 676.757812 661.6875 682.570312 657.585938 688.234375 L 657.164062 688.820312 C 654.277344 692.796875 651.277344 696.691406 648.160156 700.496094 C 647.242188 701.621094 646.339844 702.761719 645.449219 703.910156 C 644.453125 705.191406 643.410156 706.40625 642.3125 707.601562 C 641.738281 708.242188 641.199219 708.898438 640.664062 709.570312 C 639.542969 710.960938 638.339844 712.257812 637.113281 713.550781 C 636.367188 714.34375 635.632812 715.136719 634.921875 715.960938 C 631.640625 719.714844 628.09375 723.222656 624.566406 726.742188 C 623.859375 727.445312 623.15625 728.152344 622.453125 728.859375 C 621.902344 729.410156 621.347656 729.960938 620.796875 730.511719 L 620.015625 731.292969 C 618.707031 732.605469 617.390625 733.890625 615.980469 735.09375 C 615.171875 735.792969 614.40625 736.535156 613.632812 737.269531 C 612.285156 738.539062 610.90625 739.742188 609.460938 740.898438 C 608.734375 741.492188 608.046875 742.117188 607.355469 742.75 C 605.972656 744.023438 604.53125 745.207031 603.070312 746.386719 L 601.691406 747.523438 C 600.175781 748.761719 598.636719 749.972656 597.09375 751.179688 C 596.554688 751.601562 596.015625 752.023438 595.476562 752.449219 C 592.960938 754.425781 590.402344 756.324219 587.800781 758.183594 C 587.273438 758.558594 586.75 758.941406 586.230469 759.328125 C 580.464844 763.59375 574.410156 767.570312 568.285156 771.308594 L 567.574219 771.742188 C 561.566406 775.40625 555.484375 778.917969 549.222656 782.125 C 548.609375 782.445312 547.996094 782.765625 547.390625 783.09375 C 537.21875 788.558594 526.605469 793.105469 515.847656 797.265625 L 515.230469 797.507812 C 504.828125 801.523438 494.1875 804.855469 483.398438 807.652344 L 482.761719 807.816406 C 459.546875 813.847656 435.441406 817.296875 384.488281 816.996094 L 383.769531 816.949219 C 359.183594 815.226562 334.769531 810.757812 311.28125 803.238281 L 310.691406 803.046875 C 298.941406 799.296875 287.457031 794.863281 276.238281 789.738281 C 275.929688 789.597656 275.621094 789.457031 275.304688 789.3125 C 268.394531 786.152344 261.585938 782.804688 254.949219 779.09375 L 253.527344 778.308594 C 249.824219 776.246094 246.199219 774.070312 242.589844 771.847656 C 242.027344 771.503906 241.464844 771.15625 240.898438 770.808594 C 230.015625 764.148438 219.542969 756.660156 209.6875 748.554688 C 209.101562 748.074219 208.507812 747.601562 207.914062 747.132812 C 206.496094 746.003906 205.117188 744.828125 203.738281 743.652344 C 203.285156 743.265625 202.832031 742.882812 202.375 742.496094 C 200.628906 741.011719 198.914062 739.488281 197.230469 737.933594 C 196.679688 737.425781 196.117188 736.929688 195.550781 736.441406 C 193.050781 734.265625 190.667969 731.964844 188.335938 729.609375 C 187.8125 729.089844 187.269531 728.59375 186.707031 728.117188 C 184.640625 726.347656 182.722656 724.375 180.964844 722.300781 C 180.21875 721.472656 179.421875 720.691406 178.628906 719.90625 C 177.535156 718.824219 176.464844 717.738281 175.46875 716.5625 C 174.953125 715.964844 174.417969 715.390625 173.878906 714.8125 C 172.570312 713.414062 171.316406 711.96875 170.117188 710.476562 C 169.515625 709.75 168.886719 709.050781 168.246094 708.355469 C 167.097656 707.105469 166.019531 705.820312 164.957031 704.5 C 164.558594 704.007812 164.152344 703.515625 163.746094 703.027344 C 162.042969 700.976562 160.371094 698.914062 158.761719 696.785156 C 158.304688 696.1875 157.847656 695.589844 157.386719 694.992188 C 155.53125 692.570312 153.695312 690.140625 151.941406 687.640625 C 151.617188 687.183594 151.289062 686.726562 150.960938 686.269531 C 138.082031 668.300781 127.046875 648.761719 111.390625 610.355469 L 111.171875 609.734375 C 103.097656 587.023438 97.636719 563.269531 93.738281 520.535156 L 93.695312 519.574219 C 92.558594 493.875 94.625 468.113281 119.179688 381.910156 L 119.402344 381.410156 C 123.621094 371.945312 128.097656 362.617188 133.261719 353.628906 C 133.757812 352.761719 134.25 351.890625 134.742188 351.019531 C 136.613281 347.710938 138.527344 344.441406 140.59375 341.246094 C 141.015625 340.585938 141.433594 339.925781 141.847656 339.265625 C 143.992188 335.859375 146.21875 332.519531 148.515625 329.210938 L 148.929688 328.613281 C 153.453125 322.109375 158.230469 315.761719 163.269531 309.644531 C 163.640625 309.191406 164.015625 308.734375 164.386719 308.28125 C 165.722656 306.632812 167.09375 305.015625 168.480469 303.40625 C 169.003906 302.800781 169.523438 302.191406 170.039062 301.578125 C 171.761719 299.539062 173.558594 297.582031 175.390625 295.640625 C 176.105469 294.886719 176.804688 294.117188 177.492188 293.339844 C 178.546875 292.152344 179.667969 291.042969 180.792969 289.929688 C 181.527344 289.199219 182.242188 288.464844 182.910156 287.675781 C 184.664062 285.617188 186.632812 283.710938 188.695312 281.964844 C 189.523438 281.21875 190.304688 280.421875 191.089844 279.628906 C 192.167969 278.539062 193.246094 277.476562 194.417969 276.484375 C 195.214844 275.792969 195.980469 275.0625 196.75 274.339844 C 198.058594 273.117188 199.40625 271.949219 200.804688 270.832031 C 201.480469 270.277344 202.125 269.703125 202.769531 269.113281 C 203.976562 268.019531 205.226562 266.988281 206.492188 265.960938 C 206.984375 265.558594 207.476562 265.152344 207.96875 264.746094 C 210.019531 263.042969 212.085938 261.367188 214.214844 259.757812 C 214.800781 259.3125 215.386719 258.863281 215.96875 258.414062 C 218.886719 256.175781 221.832031 253.976562 224.835938 251.851562 L 225.523438 251.363281 C 229.21875 248.753906 232.96875 246.246094 236.777344 243.804688 L 237.433594 243.382812 C 244.894531 238.605469 252.570312 234.179688 260.402344 230.046875 L 261.265625 229.585938 C 273.703125 223.03125 286.589844 217.3125 299.859375 212.652344 L 300.488281 212.429688 C 315.898438 207.011719 331.5625 202.675781 347.625 199.671875 L 348.296875 199.546875 C 361.949219 197.003906 375.808594 195.375 389.683594 194.738281 L 390.40625 194.707031 C 395.171875 194.492188 399.933594 194.425781 404.707031 194.429688 M 399.523438 203.054688 C 376.316406 203.382812 353.144531 206.570312 258.179688 241.105469 C 257.347656 241.582031 256.503906 242.035156 255.660156 242.488281 C 250.519531 245.265625 245.539062 248.367188 240.671875 251.589844 L 239.96875 252.054688 C 234.863281 255.425781 229.847656 258.894531 224.945312 262.546875 C 224.300781 263.027344 223.65625 263.503906 223.007812 263.980469 C 220.332031 265.964844 217.730469 268.023438 215.171875 270.164062 C 214.570312 270.660156 213.960938 271.148438 213.347656 271.628906 C 211.9375 272.753906 210.5625 273.921875 209.1875 275.09375 C 208.738281 275.476562 208.289062 275.859375 207.835938 276.242188 C 206.167969 277.65625 204.527344 279.097656 202.929688 280.597656 C 202.21875 281.261719 201.496094 281.914062 200.757812 282.554688 C 197.15625 285.699219 193.785156 289.09375 190.410156 292.476562 C 189.765625 293.117188 189.125 293.761719 188.480469 294.402344 C 187.855469 295.027344 187.234375 295.648438 186.609375 296.273438 L 185.921875 296.960938 C 184.792969 298.09375 183.699219 299.242188 182.65625 300.457031 C 181.957031 301.269531 181.214844 302.035156 180.476562 302.8125 C 179.207031 304.164062 178.003906 305.539062 176.847656 306.988281 C 176.253906 307.710938 175.628906 308.402344 174.992188 309.09375 C 173.847656 310.339844 172.769531 311.628906 171.707031 312.949219 C 171.304688 313.441406 170.902344 313.929688 170.496094 314.417969 C 168.792969 316.472656 167.117188 318.539062 165.507812 320.664062 C 165.058594 321.253906 164.609375 321.84375 164.15625 322.429688 C 162.125 325.070312 160.148438 327.734375 158.25 330.46875 C 157.847656 331.046875 157.441406 331.621094 157.035156 332.191406 C 145.542969 348.378906 135.789062 365.851562 127.746094 383.988281 L 127.332031 384.925781 C 125.203125 389.746094 123.277344 394.644531 121.394531 399.566406 C 121.132812 400.25 120.867188 400.929688 120.59375 401.609375 L 120.226562 402.53125 L 119.898438 403.34375 L 119.699219 403.976562 L 119.957031 404.496094 L 120.347656 403.910156 C 126.171875 395.121094 132.363281 386.683594 139.558594 378.953125 C 139.984375 378.496094 140.410156 378.035156 140.835938 377.574219 C 145.429688 372.613281 145.429688 372.613281 147.921875 370.488281 C 148.566406 369.925781 149.1875 369.34375 149.808594 368.757812 C 151.242188 367.414062 152.6875 366.113281 154.222656 364.886719 C 154.820312 364.40625 155.410156 363.917969 156 363.425781 C 158.429688 361.386719 160.921875 359.484375 163.515625 357.65625 C 164.082031 357.253906 164.648438 356.851562 165.210938 356.445312 C 172.660156 351.117188 180.59375 346.597656 188.753906 342.449219 L 189.488281 342.078125 C 201.339844 336.089844 214.0625 331.695312 226.914062 328.433594 L 227.5 328.285156 C 241.503906 324.710938 255.664062 322.777344 270.023438 321.355469 C 277.050781 320.660156 284.058594 319.9375 291.035156 318.828125 L 291.746094 318.714844 C 307.101562 316.257812 322.195312 312.746094 336.984375 307.925781 L 337.582031 307.730469 C 353.308594 302.628906 368.667969 295.84375 382.878906 287.390625 C 383.484375 287.03125 384.09375 286.675781 384.703125 286.324219 C 387.59375 284.652344 390.382812 282.851562 393.152344 280.992188 L 393.824219 280.542969 C 397.007812 278.414062 400.148438 276.253906 403.179688 273.917969 C 403.496094 273.675781 403.8125 273.4375 404.128906 273.199219 C 405.824219 271.90625 407.496094 270.585938 409.152344 269.246094 L 409.808594 268.714844 C 412.789062 266.300781 415.671875 263.777344 418.476562 261.160156 C 418.96875 260.699219 419.464844 260.246094 419.96875 259.796875 C 421.859375 258.105469 423.660156 256.320312 425.457031 254.527344 L 425.851562 254.136719 C 427.207031 252.785156 428.542969 251.425781 429.789062 249.96875 C 430.367188 249.296875 430.972656 248.652344 431.574219 248.003906 C 432.691406 246.796875 433.746094 245.554688 434.777344 244.273438 C 435.292969 243.644531 435.816406 243.019531 436.351562 242.40625 C 438.226562 240.234375 439.9375 237.9375 441.640625 235.628906 C 441.949219 235.210938 442.257812 234.796875 442.566406 234.378906 C 448.253906 226.726562 454.792969 217.671875 456.917969 208.238281 L 456.917969 207.71875 C 455.539062 207.359375 454.167969 207.066406 452.757812 206.855469 L 452.160156 206.761719 C 451.515625 206.664062 450.867188 206.566406 450.214844 206.46875 C 449.878906 206.417969 449.878906 206.417969 449.53125 206.367188 C 432.953125 203.90625 416.285156 202.820312 399.523438 203.054688 M 467.042969 209.535156 C 468.40625 231.527344 470.824219 253.703125 489.109375 290.546875 C 491.339844 293.910156 493.644531 297.207031 496.117188 300.394531 C 496.234375 300.550781 496.351562 300.703125 496.476562 300.863281 C 498.144531 303.035156 499.890625 305.132812 501.691406 307.203125 C 502.097656 307.675781 502.5 308.152344 502.902344 308.628906 C 504.152344 310.101562 505.394531 311.542969 506.785156 312.882812 C 507.234375 313.328125 507.640625 313.785156 508.046875 314.269531 C 509.261719 315.671875 510.578125 316.972656 511.894531 318.28125 C 512.324219 318.714844 512.753906 319.144531 513.1875 319.578125 C 514.488281 320.878906 515.796875 322.160156 517.199219 323.359375 C 518.011719 324.058594 518.78125 324.804688 519.5625 325.542969 C 520.910156 326.816406 522.289062 328.019531 523.738281 329.175781 C 524.449219 329.757812 525.121094 330.371094 525.792969 330.996094 C 526.964844 332.074219 528.183594 333.066406 529.445312 334.042969 C 530.699219 335.015625 531.921875 336.019531 533.140625 337.03125 C 534.722656 338.34375 536.324219 339.613281 537.984375 340.824219 C 538.507812 341.210938 539.03125 341.597656 539.554688 341.984375 C 541.605469 343.503906 543.664062 345.011719 545.734375 346.507812 L 546.238281 346.875 C 546.835938 347.304688 547.4375 347.734375 548.035156 348.164062 L 548.488281 348.484375 C 551.246094 350.453125 554.042969 352.363281 556.867188 354.238281 C 557.511719 354.667969 558.15625 355.097656 558.804688 355.527344 C 562.480469 357.976562 566.175781 360.394531 569.925781 362.730469 L 570.707031 363.222656 C 575.992188 366.511719 581.328125 369.710938 586.71875 372.824219 L 587.535156 373.296875 C 590.070312 374.761719 592.609375 376.230469 595.15625 377.683594 C 599.144531 379.964844 603.074219 382.328125 606.964844 384.765625 L 607.507812 385.105469 C 610.6875 387.09375 613.824219 389.136719 616.945312 391.222656 L 617.613281 391.667969 C 620.84375 393.828125 624.054688 396.003906 627.214844 398.265625 L 627.804688 398.683594 C 630.511719 400.613281 633.171875 402.597656 635.800781 404.628906 C 636.257812 404.984375 636.71875 405.335938 637.179688 405.683594 C 639.105469 407.152344 640.988281 408.667969 642.863281 410.199219 C 643.628906 410.824219 644.398438 411.441406 645.175781 412.054688 C 646.589844 413.1875 647.972656 414.359375 649.351562 415.535156 C 649.808594 415.925781 650.265625 416.3125 650.722656 416.703125 C 652.394531 418.125 654.039062 419.566406 655.65625 421.050781 C 656.195312 421.542969 656.742188 422.027344 657.296875 422.503906 C 659.527344 424.449219 661.675781 426.476562 663.753906 428.582031 C 664.25 429.070312 664.761719 429.539062 665.292969 429.984375 C 667.578125 431.941406 669.734375 434.140625 671.675781 436.4375 C 672.273438 437.109375 672.910156 437.742188 673.550781 438.371094 C 674.515625 439.324219 675.433594 440.292969 676.3125 441.320312 C 676.804688 441.886719 677.3125 442.4375 677.820312 442.984375 C 679.050781 444.308594 680.226562 445.671875 681.359375 447.082031 C 681.953125 447.804688 682.5625 448.507812 683.183594 449.210938 C 684.835938 451.085938 686.375 453.023438 687.878906 455.019531 C 688.601562 455.976562 689.339844 456.921875 690.082031 457.863281 C 696.320312 465.78125 701.722656 474.375 706.652344 483.152344 L 706.910156 483.152344 C 706.769531 479.605469 706.5 476.070312 706.097656 472.542969 L 706.015625 471.789062 C 703.425781 448.882812 698.097656 426.515625 676.019531 370.746094 L 675.679688 370.050781 C 673.988281 366.59375 672.179688 363.207031 670.308594 359.84375 L 669.890625 359.09375 C 665.675781 351.535156 661.152344 344.160156 656.289062 337 L 655.894531 336.417969 C 651.160156 329.457031 646.15625 322.671875 640.816406 316.15625 C 640.335938 315.5625 639.855469 314.964844 639.382812 314.367188 C 638.253906 312.949219 637.078125 311.566406 635.902344 310.191406 C 635.515625 309.734375 635.132812 309.28125 634.746094 308.828125 C 633.28125 307.101562 631.785156 305.40625 630.242188 303.75 C 629.710938 303.167969 629.191406 302.582031 628.675781 301.988281 C 627.753906 300.933594 626.808594 299.90625 625.851562 298.886719 C 625.683594 298.707031 625.515625 298.527344 625.339844 298.34375 C 624.136719 297.0625 622.90625 295.8125 621.648438 294.585938 C 621.117188 294.042969 620.621094 293.492188 620.125 292.914062 C 619.164062 291.804688 618.121094 290.8125 617.039062 289.816406 C 615.6875 288.558594 614.347656 287.289062 613.050781 285.972656 C 612.113281 285.023438 611.160156 284.117188 610.144531 283.253906 C 609.503906 282.695312 608.886719 282.117188 608.265625 281.535156 C 606.804688 280.160156 605.324219 278.851562 603.757812 277.597656 C 603.03125 277 602.335938 276.371094 601.644531 275.734375 C 600.261719 274.464844 598.820312 273.277344 597.359375 272.101562 L 595.980469 270.964844 C 594.464844 269.726562 592.929688 268.515625 591.386719 267.3125 C 590.832031 266.878906 590.28125 266.445312 589.726562 266.007812 C 587.679688 264.402344 585.617188 262.828125 583.484375 261.328125 C 582.851562 260.882812 582.222656 260.429688 581.601562 259.96875 C 568.933594 250.628906 555.246094 242.597656 541.234375 235.472656 C 540.773438 235.238281 540.316406 235.007812 539.859375 234.773438 C 528.992188 229.214844 517.730469 224.546875 506.242188 220.441406 L 505.667969 220.234375 C 496.515625 216.945312 487.195312 214.210938 477.765625 211.839844 L 477.074219 211.664062 C 473.75 210.832031 470.414062 210.148438 467.042969 209.535156 M 460.292969 232.640625 C 457.808594 244.503906 456.085938 256.625 455.359375 268.726562 L 455.328125 269.257812 C 455.089844 273.085938 455.046875 276.910156 455.050781 280.746094 L 455.050781 281.683594 C 455.0625 289.289062 455.535156 296.765625 456.65625 304.289062 L 456.792969 305.289062 C 457.246094 308.164062 458.261719 310.640625 459.464844 313.277344 L 460.0625 314.617188 C 460.558594 315.730469 461.0625 316.839844 461.566406 317.949219 C 461.832031 318.527344 462.09375 319.109375 462.355469 319.6875 C 465.019531 325.625 467.953125 331.414062 471.714844 336.738281 L 472.367188 337.683594 C 473.710938 339.605469 475.136719 341.4375 476.648438 343.230469 L 477.289062 344.011719 C 479.972656 347.246094 482.882812 350.265625 485.847656 353.242188 L 486.421875 353.820312 C 487.46875 354.863281 488.550781 355.867188 489.667969 356.832031 C 490.34375 357.421875 491 358.03125 491.65625 358.644531 C 492.859375 359.757812 494.101562 360.8125 495.378906 361.84375 C 496.183594 362.496094 496.96875 363.164062 497.753906 363.835938 C 499.359375 365.203125 501.011719 366.507812 502.675781 367.800781 C 503.109375 368.136719 503.542969 368.476562 503.972656 368.820312 C 507.707031 371.777344 511.484375 374.679688 515.378906 377.425781 C 516.089844 377.929688 516.792969 378.441406 517.496094 378.953125 C 520.003906 380.769531 522.53125 382.554688 525.074219 384.320312 C 525.683594 384.746094 526.292969 385.175781 526.898438 385.609375 C 529.445312 387.402344 532.070312 388.992188 534.773438 390.535156 C 540.769531 393.949219 546.515625 397.714844 552.230469 401.574219 C 552.675781 401.875 553.125 402.179688 553.570312 402.480469 C 557.175781 404.910156 560.726562 407.417969 564.222656 410 C 567.21875 412.203125 570.320312 414.207031 573.476562 416.175781 L 575.007812 417.136719 C 576.3125 417.953125 577.617188 418.765625 578.921875 419.582031 C 579.699219 420.066406 580.472656 420.550781 581.25 421.035156 C 584.511719 423.078125 587.785156 425.105469 591.066406 427.121094 C 592.53125 428.023438 593.996094 428.929688 595.460938 429.839844 C 597.316406 430.988281 599.175781 432.128906 601.042969 433.261719 C 612.078125 439.96875 622.988281 446.730469 632.742188 455.25 C 633.207031 455.652344 633.671875 456.054688 634.144531 456.449219 C 635.632812 457.707031 637.082031 458.96875 638.4375 460.371094 C 638.882812 460.8125 639.339844 461.21875 639.820312 461.625 C 642.101562 463.585938 644.277344 465.777344 646.21875 468.078125 C 646.730469 468.671875 647.261719 469.242188 647.796875 469.816406 C 649.316406 471.441406 650.746094 473.113281 652.136719 474.847656 C 652.390625 475.15625 652.644531 475.464844 652.902344 475.773438 C 658.800781 482.917969 663.957031 490.652344 668.488281 498.730469 L 668.882812 499.429688 C 679.492188 518.425781 686.128906 539.324219 691.59375 578.425781 C 691.621094 578.753906 691.644531 579.085938 691.671875 579.421875 C 692.210938 586.605469 692.273438 593.808594 692.375 601.011719 C 693.070312 600.3125 693.242188 599.523438 693.523438 598.601562 L 693.707031 598.011719 C 693.910156 597.363281 694.105469 596.710938 694.304688 596.0625 L 694.511719 595.382812 C 701.1875 573.496094 705.480469 551.027344 707.753906 517.875 L 707.785156 517.046875 C 707.855469 515.265625 707.90625 513.488281 707.949219 511.710938 L 707.96875 510.976562 C 707.984375 510.273438 707.996094 509.574219 708.003906 508.871094 L 708.019531 508.253906 C 708.03125 506.359375 707.515625 504.695312 706.746094 502.976562 L 706.457031 502.3125 L 706.132812 501.585938 L 705.378906 499.828125 C 698.214844 483.339844 687.929688 468.214844 676.296875 454.554688 C 675.5625 453.6875 674.84375 452.808594 674.136719 451.921875 C 672.96875 450.484375 671.710938 449.144531 670.433594 447.804688 C 669.625 446.953125 668.832031 446.09375 668.0625 445.207031 C 667.371094 444.414062 666.648438 443.648438 665.894531 442.914062 C 665.148438 442.191406 664.4375 441.4375 663.757812 440.652344 C 662.671875 439.398438 661.507812 438.230469 660.328125 437.058594 L 659.695312 436.421875 C 658.570312 435.300781 657.429688 434.226562 656.226562 433.191406 C 655.613281 432.652344 655.042969 432.078125 654.472656 431.492188 C 653.570312 430.582031 652.652344 429.722656 651.679688 428.890625 C 651.074219 428.359375 650.484375 427.8125 649.894531 427.261719 C 648.484375 425.945312 647.050781 424.691406 645.546875 423.484375 C 644.867188 422.925781 644.21875 422.347656 643.570312 421.757812 C 642.226562 420.535156 640.828125 419.394531 639.414062 418.253906 L 638.429688 417.449219 C 636.441406 415.820312 634.4375 414.222656 632.394531 412.667969 C 631.792969 412.210938 631.191406 411.75 630.59375 411.289062 C 628.175781 409.4375 625.75 407.601562 623.253906 405.851562 C 622.769531 405.511719 622.289062 405.171875 621.808594 404.828125 C 620.878906 404.171875 619.949219 403.515625 619.019531 402.863281 C 618.578125 402.554688 618.140625 402.242188 617.699219 401.933594 C 614.328125 399.550781 610.910156 397.265625 607.410156 395.074219 C 606.714844 394.636719 606.023438 394.195312 605.332031 393.75 C 599.4375 389.964844 593.4375 386.386719 587.339844 382.929688 C 582.898438 380.410156 578.5 377.820312 574.144531 375.160156 C 572.890625 374.398438 571.636719 373.640625 570.375 372.890625 C 567.390625 371.113281 564.457031 369.253906 561.535156 367.371094 L 560.917969 366.976562 C 554.882812 363.097656 548.941406 359.082031 543.105469 354.910156 L 542.550781 354.515625 C 539.511719 352.355469 536.539062 350.117188 533.582031 347.84375 C 533.066406 347.449219 532.546875 347.054688 532.03125 346.660156 C 530.128906 345.210938 528.269531 343.710938 526.414062 342.199219 C 525.65625 341.578125 524.890625 340.964844 524.121094 340.359375 C 522.609375 339.152344 521.152344 337.886719 519.691406 336.625 C 519.238281 336.234375 518.78125 335.847656 518.328125 335.464844 C 516.332031 333.78125 514.414062 332.03125 512.519531 330.234375 C 511.804688 329.558594 511.082031 328.890625 510.355469 328.234375 C 508.621094 326.660156 506.953125 325.027344 505.300781 323.371094 C 504.859375 322.929688 504.417969 322.488281 503.976562 322.046875 C 502.652344 320.726562 501.351562 319.402344 500.136719 317.976562 C 499.519531 317.261719 498.871094 316.578125 498.226562 315.890625 C 497.066406 314.640625 495.953125 313.351562 494.886719 312.019531 C 494.371094 311.394531 493.851562 310.773438 493.320312 310.164062 C 491.441406 307.988281 489.734375 305.695312 488.03125 303.382812 C 487.722656 302.96875 487.414062 302.550781 487.105469 302.136719 C 483.757812 297.636719 480.777344 292.90625 478.027344 288.023438 C 477.683594 287.417969 477.339844 286.8125 476.992188 286.210938 C 467.625 269.734375 463.1875 251.253906 460.550781 232.640625 Z M 443.160156 247.179688 L 442.757812 247.675781 C 440.0625 250.992188 437.246094 254.199219 434.308594 257.296875 C 433.65625 257.988281 433.007812 258.683594 432.363281 259.378906 C 430.40625 261.488281 428.445312 263.558594 426.257812 265.433594 C 425.769531 265.863281 425.3125 266.3125 424.855469 266.777344 C 424.082031 267.566406 423.269531 268.296875 422.429688 269.015625 C 421.820312 269.550781 421.222656 270.09375 420.621094 270.640625 C 419.523438 271.632812 418.394531 272.578125 417.242188 273.507812 C 416.625 274.007812 416.011719 274.511719 415.402344 275.023438 C 412.945312 277.070312 410.4375 279.035156 407.851562 280.925781 L 407.300781 281.332031 C 405.933594 282.328125 404.558594 283.320312 403.179688 284.300781 L 402.546875 284.753906 C 383.242188 298.523438 361.53125 308.566406 326.339844 319.867188 L 325.613281 320.058594 C 307.019531 324.964844 288.226562 328.066406 269.09375 329.878906 C 243.027344 332.347656 217.738281 337.882812 180.660156 356.03125 C 179.960938 356.449219 179.257812 356.863281 178.554688 357.273438 C 175.546875 359.042969 172.652344 360.945312 169.800781 362.960938 L 169.191406 363.390625 C 165.644531 365.902344 162.226562 368.539062 158.925781 371.363281 C 158.164062 372.011719 157.390625 372.636719 156.609375 373.261719 C 155.589844 374.089844 154.648438 374.957031 153.746094 375.910156 C 153.269531 376.375 152.789062 376.804688 152.28125 377.234375 C 150.925781 378.414062 149.660156 379.6875 148.390625 380.960938 C 147.980469 381.375 147.566406 381.785156 147.152344 382.199219 C 145.734375 383.613281 144.363281 385.054688 143.0625 386.582031 C 142.6875 387 142.308594 387.417969 141.925781 387.832031 C 140.699219 389.195312 139.539062 390.605469 138.390625 392.035156 L 137.667969 392.917969 C 132.613281 399.128906 128.097656 405.859375 124.113281 412.800781 L 123.78125 413.378906 C 123.007812 414.734375 122.257812 416.101562 121.515625 417.476562 L 121.160156 418.128906 C 114.128906 431.097656 108.882812 445.320312 106.070312 459.804688 L 105.96875 460.332031 C 105.53125 462.511719 105.53125 462.511719 105.421875 464.722656 L 104.902344 464.722656 C 104.136719 470.492188 103.488281 476.261719 103.019531 482.066406 L 102.957031 482.863281 C 102.515625 488.300781 102.273438 493.730469 102.160156 499.183594 L 102.125 500.726562 C 102.097656 501.964844 102.074219 503.203125 102.046875 504.441406 L 102.566406 504.441406 C 103.054688 503.835938 103.523438 503.21875 103.976562 502.589844 C 104.261719 502.207031 104.542969 501.824219 104.828125 501.441406 L 105.261719 500.851562 C 106.992188 498.523438 108.828125 496.285156 110.710938 494.078125 C 111.347656 493.335938 111.960938 492.578125 112.578125 491.816406 C 113.582031 490.582031 114.640625 489.402344 115.71875 488.226562 C 116.226562 487.671875 116.726562 487.113281 117.21875 486.542969 C 118.3125 485.285156 119.445312 484.054688 120.578125 482.828125 C 120.847656 482.535156 121.121094 482.242188 121.390625 481.949219 C 123.722656 479.414062 126.121094 476.949219 128.5625 474.515625 C 129.148438 473.929688 129.730469 473.347656 130.316406 472.761719 L 131.453125 471.625 L 131.96875 471.105469 C 132.972656 470.109375 134.007812 469.152344 135.078125 468.230469 C 135.582031 467.796875 136.066406 467.347656 136.546875 466.890625 L 137.050781 466.410156 L 137.5625 465.921875 C 138.957031 464.601562 140.375 463.351562 141.875 462.152344 C 142.597656 461.5625 143.285156 460.941406 143.972656 460.308594 C 145.21875 459.164062 146.507812 458.085938 147.828125 457.023438 C 148.320312 456.621094 148.808594 456.21875 149.296875 455.8125 C 151.351562 454.109375 153.417969 452.433594 155.542969 450.824219 C 156.132812 450.375 156.722656 449.921875 157.308594 449.46875 C 159.949219 447.441406 162.613281 445.460938 165.351562 443.566406 C 165.925781 443.164062 166.5 442.757812 167.070312 442.347656 C 170.855469 439.664062 174.734375 437.128906 178.628906 434.609375 L 179.332031 434.152344 C 184.933594 430.535156 190.714844 427.203125 196.539062 423.964844 L 197.230469 423.582031 C 217.351562 412.414062 238.601562 403.417969 306.417969 384.3125 C 310.542969 383.484375 314.539062 382.390625 318.550781 381.132812 L 319.167969 380.941406 C 326.636719 378.621094 333.832031 375.695312 340.878906 372.304688 L 341.671875 371.921875 C 345.683594 369.996094 349.527344 367.84375 353.339844 365.554688 L 354.566406 364.828125 C 360.714844 361.160156 366.597656 356.980469 372.109375 352.417969 C 372.691406 351.9375 373.285156 351.46875 373.878906 351 C 376.589844 348.835938 379.179688 346.53125 381.714844 344.160156 C 382.167969 343.734375 382.625 343.3125 383.085938 342.890625 C 384.839844 341.273438 386.5625 339.625 388.253906 337.941406 L 388.761719 337.4375 C 389.738281 336.457031 390.664062 335.441406 391.570312 334.394531 C 392.292969 333.570312 393.050781 332.78125 393.804688 331.984375 C 395.058594 330.652344 396.257812 329.292969 397.402344 327.859375 C 398.085938 327.011719 398.800781 326.191406 399.515625 325.367188 C 407.042969 316.632812 413.601562 306.894531 419.535156 297.019531 L 419.941406 296.351562 C 428.984375 281.335938 436.425781 265.523438 442.898438 249.253906 L 443.222656 248.535156 L 443.417969 247.957031 Z M 447.3125 298.320312 C 446.984375 298.976562 446.953125 299.527344 446.871094 300.261719 L 446.773438 301.171875 L 446.667969 302.171875 L 446.554688 303.210938 C 446.433594 304.34375 446.3125 305.476562 446.191406 306.609375 L 446.128906 307.195312 C 445.355469 314.527344 444.6875 321.855469 444.195312 329.210938 L 444.144531 330.019531 C 442.613281 352.785156 442.527344 375.625 461.683594 532.765625 L 461.785156 533.339844 C 462.117188 535.226562 462.453125 537.113281 462.792969 538.996094 C 463.796875 544.558594 464.5625 550.183594 464.707031 555.839844 L 464.722656 556.492188 C 465.191406 577.625 458.992188 598.554688 448.949219 617.023438 C 448.410156 618.007812 447.863281 618.984375 447.3125 619.960938 L 446.871094 620.757812 C 444.371094 625.234375 441.632812 629.492188 438.746094 633.71875 L 437.941406 634.910156 C 433.8125 641.015625 429.265625 646.84375 424.488281 652.457031 C 423.75 653.328125 423.023438 654.210938 422.308594 655.105469 C 421.199219 656.472656 420.003906 657.757812 418.792969 659.039062 C 418.046875 659.824219 417.3125 660.621094 416.601562 661.441406 C 413.492188 665 410.144531 668.335938 406.796875 671.671875 C 406.171875 672.296875 405.546875 672.925781 404.917969 673.550781 C 404.3125 674.160156 403.703125 674.769531 403.09375 675.378906 L 402.421875 676.050781 C 401.296875 677.171875 400.15625 678.253906 398.949219 679.289062 C 398.425781 679.742188 397.917969 680.210938 397.414062 680.691406 L 396.859375 681.214844 L 396.300781 681.746094 C 395.050781 682.9375 393.785156 684.105469 392.480469 685.238281 C 391.902344 685.742188 391.335938 686.257812 390.769531 686.777344 C 389.660156 687.777344 388.519531 688.722656 387.359375 689.660156 C 386.429688 690.425781 385.523438 691.210938 384.621094 692 C 383.042969 693.371094 381.441406 694.710938 379.816406 696.023438 C 379.363281 696.398438 378.910156 696.769531 378.453125 697.144531 C 375.785156 699.324219 373.09375 701.46875 370.351562 703.554688 C 369.207031 704.425781 368.066406 705.308594 366.929688 706.195312 C 364.34375 708.222656 361.707031 710.183594 359.050781 712.117188 L 358.449219 712.554688 C 355.820312 714.464844 353.179688 716.351562 350.523438 718.214844 C 349.976562 718.601562 349.433594 718.988281 348.886719 719.375 C 344.601562 722.417969 340.203125 725.304688 335.824219 728.210938 C 334.898438 728.824219 333.976562 729.441406 333.050781 730.058594 C 331.394531 731.167969 329.726562 732.257812 328.042969 733.324219 L 327.316406 733.785156 C 326.558594 734.265625 325.800781 734.746094 325.042969 735.222656 L 324.292969 735.695312 C 313.988281 742.1875 303.515625 748.398438 292.875 754.328125 C 291.835938 754.90625 290.800781 755.492188 289.769531 756.082031 C 287.097656 757.605469 284.414062 759.089844 281.671875 760.492188 C 280.488281 761.101562 279.3125 761.722656 278.144531 762.367188 C 274.324219 764.476562 270.445312 766.445312 266.535156 768.386719 L 264.660156 769.320312 C 263.15625 770.070312 261.648438 770.820312 260.140625 771.566406 L 260.140625 772.085938 C 263.167969 773.648438 266.195312 775.207031 269.226562 776.757812 L 269.757812 777.03125 C 274.445312 779.429688 279.1875 781.679688 284.023438 783.769531 L 284.554688 783.996094 C 289.335938 786.054688 294.160156 787.996094 299.03125 789.820312 L 299.714844 790.074219 C 300.355469 790.316406 300.992188 790.554688 301.632812 790.789062 L 302.203125 791.003906 C 303.3125 791.410156 304.433594 791.765625 305.570312 792.074219 L 306.113281 791.378906 C 307.640625 789.429688 309.179688 787.492188 310.765625 785.585938 L 311.09375 785.1875 C 313.734375 782.007812 316.539062 779.007812 319.453125 776.074219 C 319.722656 775.800781 319.996094 775.527344 320.265625 775.253906 C 322.015625 773.476562 323.867188 771.816406 325.820312 770.269531 C 326.085938 770.046875 326.351562 769.820312 326.617188 769.589844 C 338.519531 759.382812 353.058594 753.957031 367.785156 749.273438 C 378.378906 745.902344 388.78125 742.441406 397.113281 734.753906 C 397.714844 734.199219 398.328125 733.664062 398.945312 733.128906 C 400.027344 732.167969 400.964844 731.148438 401.882812 730.03125 L 402.222656 729.621094 C 404.179688 727.261719 405.957031 724.832031 407.59375 722.242188 L 408.148438 721.378906 C 412.027344 715.1875 415.070312 708.546875 417.328125 701.609375 C 418.941406 696.65625 420.753906 691.769531 423.1875 687.152344 C 423.53125 686.484375 423.839844 685.800781 424.152344 685.113281 C 427.621094 677.535156 432.128906 670.371094 436.929688 663.574219 L 437.367188 662.953125 C 442.160156 656.164062 447.425781 649.6875 453.074219 643.59375 C 453.515625 643.121094 453.949219 642.640625 454.382812 642.160156 C 456.535156 639.769531 458.808594 637.5 461.085938 635.230469 C 461.769531 634.546875 462.457031 633.859375 463.140625 633.171875 L 464.464844 631.847656 L 465.078125 631.238281 C 466.152344 630.164062 467.25 629.132812 468.40625 628.144531 C 469.121094 627.523438 469.808594 626.871094 470.496094 626.222656 C 471.757812 625.050781 473.054688 623.949219 474.398438 622.871094 C 475.113281 622.28125 475.789062 621.664062 476.46875 621.03125 C 477.800781 619.804688 479.199219 618.691406 480.632812 617.582031 C 481.261719 617.097656 481.886719 616.601562 482.503906 616.101562 C 484.285156 614.65625 486.101562 613.261719 487.957031 611.914062 C 489.933594 610.472656 491.800781 608.945312 493.636719 607.328125 C 494.261719 606.789062 494.90625 606.28125 495.550781 605.765625 C 496.667969 604.859375 497.679688 603.886719 498.683594 602.859375 C 499.191406 602.351562 499.710938 601.882812 500.253906 601.417969 C 502.046875 599.875 503.691406 598.183594 505.226562 596.386719 C 505.722656 595.816406 506.234375 595.261719 506.746094 594.710938 C 508.199219 593.144531 509.589844 591.523438 510.914062 589.847656 L 511.324219 589.335938 C 513.46875 586.636719 515.5 583.890625 517.402344 581.023438 L 517.742188 580.523438 C 526.167969 567.980469 532.03125 554.070312 535.835938 539.484375 L 536.0625 538.617188 C 538.589844 528.765625 540.015625 518.324219 540.042969 508.160156 L 540.042969 507.589844 C 540.046875 506.585938 540.050781 505.582031 540.050781 504.578125 C 540.050781 503.773438 540.054688 502.964844 540.0625 502.15625 C 540.117188 494.738281 539.691406 487.386719 538.625 480.039062 L 538.546875 479.472656 C 535.71875 459.707031 529.414062 439.996094 518.296875 420.453125 C 517.960938 419.875 517.628906 419.292969 517.300781 418.707031 C 514.277344 413.386719 510.730469 408.316406 507.019531 403.457031 L 506.636719 402.957031 C 504.042969 399.5625 501.242188 396.359375 498.328125 393.238281 C 497.921875 392.800781 497.519531 392.363281 497.117188 391.925781 C 495.851562 390.542969 494.578125 389.183594 493.242188 387.867188 C 492.769531 387.390625 492.332031 386.902344 491.894531 386.394531 C 490.949219 385.304688 489.96875 384.253906 488.976562 383.207031 C 487.691406 381.851562 486.4375 380.46875 485.214844 379.054688 L 484.824219 378.605469 C 484.046875 377.699219 483.269531 376.792969 482.496094 375.882812 C 482.125 375.453125 481.753906 375.019531 481.382812 374.589844 C 479.601562 372.523438 477.941406 370.371094 476.296875 368.195312 C 475.882812 367.652344 475.46875 367.113281 475.050781 366.578125 C 461.347656 348.980469 452.003906 328.332031 448.042969 302.492188 C 447.851562 301.105469 447.695312 299.714844 447.570312 298.320312 Z M 419.535156 312.597656 L 419.796875 313.117188 Z M 419.277344 313.117188 L 418.828125 313.746094 C 418.246094 314.5625 417.664062 315.378906 417.078125 316.191406 L 416.28125 317.3125 C 413.292969 321.488281 410.195312 325.5625 406.933594 329.53125 C 406.589844 329.949219 406.246094 330.371094 405.90625 330.792969 C 404.789062 332.175781 403.628906 333.523438 402.433594 334.835938 C 401.941406 335.378906 401.453125 335.925781 400.972656 336.480469 C 397.976562 339.914062 394.878906 343.246094 391.660156 346.476562 L 391.082031 347.058594 C 390.039062 348.101562 388.957031 349.105469 387.839844 350.070312 C 387.066406 350.742188 386.324219 351.449219 385.578125 352.152344 C 384.28125 353.363281 382.960938 354.519531 381.574219 355.628906 C 380.917969 356.160156 380.269531 356.703125 379.628906 357.257812 C 377.988281 358.660156 376.308594 360.007812 374.582031 361.304688 C 374.253906 361.550781 373.929688 361.796875 373.601562 362.042969 C 357.578125 374.234375 339.378906 383.53125 320.140625 389.4375 L 319.582031 389.609375 C 314.914062 391.042969 310.152344 392.066406 305.375 393.058594 C 279.605469 398.417969 254.222656 406.167969 228.472656 417.476562 L 227.929688 417.714844 C 218.101562 422.070312 208.425781 426.765625 199.097656 432.109375 C 198.355469 432.53125 197.613281 432.953125 196.867188 433.367188 C 184.230469 440.429688 172.128906 448.546875 160.714844 457.453125 L 160.265625 457.804688 C 157.5 459.960938 154.777344 462.167969 152.105469 464.441406 C 151.222656 465.191406 150.328125 465.925781 149.421875 466.652344 C 148.023438 467.789062 146.710938 469.003906 145.394531 470.234375 C 144.8125 470.777344 144.21875 471.308594 143.613281 471.828125 C 142.582031 472.722656 141.582031 473.65625 140.582031 474.585938 L 140.089844 475.042969 C 139.125 475.945312 138.175781 476.867188 137.25 477.8125 C 136.824219 478.230469 136.382812 478.617188 135.925781 479 C 133.605469 481.003906 131.457031 483.175781 129.476562 485.519531 C 128.925781 486.144531 128.339844 486.722656 127.746094 487.308594 C 126.832031 488.214844 125.960938 489.136719 125.125 490.113281 C 124.628906 490.683594 124.121094 491.238281 123.605469 491.792969 C 122.355469 493.140625 121.15625 494.535156 120.003906 495.96875 C 119.457031 496.632812 118.886719 497.269531 118.304688 497.902344 C 117.269531 499.039062 116.320312 500.222656 115.378906 501.433594 C 114.609375 502.421875 113.828125 503.402344 113.03125 504.367188 C 111 506.832031 109.109375 509.382812 107.238281 511.96875 L 106.769531 512.613281 C 105.796875 513.953125 104.828125 515.296875 103.863281 516.640625 L 103.53125 517.027344 C 103.023438 517.65625 102.621094 518.1875 102.453125 518.992188 C 102.421875 519.59375 102.429688 520.179688 102.457031 520.785156 L 102.472656 521.464844 C 102.496094 522.195312 102.527344 522.921875 102.566406 523.652344 L 102.601562 524.378906 C 102.703125 526.1875 102.839844 527.992188 102.988281 529.800781 L 103.054688 530.660156 C 104.402344 547.320312 107.167969 563.753906 111.132812 579.984375 L 111.910156 579.984375 C 111.988281 579.835938 112.0625 579.683594 112.140625 579.53125 C 114.699219 574.472656 117.519531 569.59375 120.738281 564.925781 C 120.949219 564.617188 121.160156 564.304688 121.371094 563.992188 C 124.140625 559.902344 127.078125 555.945312 130.230469 552.140625 C 130.769531 551.484375 131.300781 550.824219 131.835938 550.164062 C 132.765625 549.023438 133.738281 547.925781 134.726562 546.839844 C 135.207031 546.308594 135.683594 545.773438 136.152344 545.230469 C 138.671875 542.347656 141.332031 539.621094 144.042969 536.914062 C 144.671875 536.289062 145.300781 535.65625 145.929688 535.027344 L 147.707031 533.25 C 148.746094 532.214844 149.808594 531.226562 150.921875 530.269531 C 151.542969 529.730469 152.144531 529.171875 152.75 528.617188 C 153.914062 527.554688 155.109375 526.546875 156.335938 525.558594 C 157 525.011719 157.660156 524.460938 158.3125 523.902344 C 160.105469 522.367188 161.949219 520.917969 163.832031 519.496094 L 164.308594 519.136719 C 165.527344 518.210938 166.753906 517.292969 167.984375 516.382812 L 168.523438 515.980469 C 182.84375 505.40625 198.59375 496.605469 214.8125 489.304688 C 220.757812 486.632812 226.640625 483.824219 232.511719 480.988281 C 233.15625 480.675781 233.796875 480.367188 234.441406 480.058594 C 239.382812 477.683594 244.285156 475.25 249.144531 472.707031 C 250.003906 472.257812 250.863281 471.8125 251.726562 471.367188 C 255.25 469.546875 258.746094 467.675781 262.21875 465.761719 L 263.046875 465.304688 C 266.941406 463.160156 270.804688 460.972656 274.632812 458.714844 C 275.515625 458.199219 276.398438 457.683594 277.285156 457.167969 C 290.910156 449.238281 304.179688 440.65625 316.9375 431.390625 C 317.519531 430.96875 318.101562 430.550781 318.6875 430.132812 C 321.191406 428.335938 323.660156 426.496094 326.097656 424.613281 C 326.5625 424.253906 327.03125 423.894531 327.496094 423.535156 C 330.527344 421.21875 333.519531 418.859375 336.464844 416.4375 L 337.859375 415.300781 C 339.488281 413.96875 341.09375 412.609375 342.695312 411.246094 L 343.15625 410.851562 C 344.90625 409.363281 346.644531 407.859375 348.347656 406.316406 C 348.882812 405.832031 349.417969 405.355469 349.964844 404.882812 C 352.957031 402.273438 355.949219 399.621094 358.714844 396.765625 C 359.199219 396.296875 359.691406 395.859375 360.203125 395.421875 C 361.644531 394.171875 362.980469 392.816406 364.324219 391.464844 C 364.777344 391.011719 365.226562 390.5625 365.675781 390.113281 C 367.023438 388.769531 368.347656 387.417969 369.585938 385.96875 C 370.109375 385.363281 370.675781 384.804688 371.25 384.246094 C 372.167969 383.339844 373.035156 382.417969 373.871094 381.4375 C 374.367188 380.871094 374.878906 380.316406 375.390625 379.761719 C 376.640625 378.414062 377.824219 377.035156 378.972656 375.605469 C 379.582031 374.875 380.210938 374.171875 380.855469 373.472656 C 382.125 372.089844 383.3125 370.652344 384.488281 369.191406 C 384.75 368.871094 385.015625 368.550781 385.277344 368.234375 C 387.113281 366 388.875 363.722656 390.59375 361.402344 C 390.980469 360.882812 391.367188 360.367188 391.757812 359.851562 C 394.816406 355.8125 397.691406 351.648438 400.503906 347.433594 L 400.945312 346.769531 C 404.804688 340.976562 408.390625 335.050781 411.746094 328.953125 L 412.175781 328.171875 C 413.980469 324.890625 415.726562 321.578125 417.417969 318.238281 C 417.605469 317.863281 417.796875 317.492188 417.988281 317.117188 C 418.253906 316.597656 418.519531 316.074219 418.78125 315.550781 L 419.242188 314.640625 L 419.535156 313.894531 Z M 425.507812 320.644531 L 425.144531 321.4375 C 423.800781 324.339844 422.355469 327.175781 420.832031 329.992188 L 420.375 330.839844 C 412.152344 345.996094 402.542969 360.332031 391.609375 373.667969 C 391.277344 374.078125 390.941406 374.488281 390.609375 374.898438 C 389.234375 376.585938 387.832031 378.253906 386.421875 379.914062 C 386.050781 380.351562 385.679688 380.789062 385.308594 381.230469 C 383.734375 383.09375 382.105469 384.894531 380.425781 386.664062 C 379.464844 387.675781 378.539062 388.707031 377.625 389.757812 C 377.019531 390.445312 376.367188 391.074219 375.710938 391.710938 C 375.226562 392.210938 374.773438 392.722656 374.316406 393.25 C 373.402344 394.296875 372.445312 395.289062 371.460938 396.269531 L 370.945312 396.789062 C 370.585938 397.148438 370.226562 397.507812 369.867188 397.867188 C 369.320312 398.410156 368.777344 398.953125 368.234375 399.5 L 366.695312 401.039062 C 365.714844 402.015625 364.703125 402.941406 363.652344 403.84375 C 363.085938 404.335938 362.558594 404.863281 362.035156 405.402344 C 361.183594 406.261719 360.300781 407.082031 359.386719 407.867188 C 358.609375 408.546875 357.855469 409.246094 357.101562 409.945312 C 355.863281 411.09375 354.617188 412.222656 353.335938 413.320312 L 352.957031 413.648438 C 352.195312 414.304688 351.433594 414.957031 350.671875 415.609375 C 350.03125 416.15625 349.398438 416.699219 348.761719 417.246094 C 346.933594 418.820312 345.085938 420.367188 343.214844 421.886719 L 342.269531 422.664062 C 340.296875 424.28125 338.292969 425.863281 336.261719 427.40625 C 335.101562 428.289062 333.953125 429.179688 332.8125 430.082031 C 329.539062 432.667969 326.167969 435.121094 322.777344 437.558594 C 322.191406 437.980469 321.609375 438.402344 321.023438 438.828125 C 319.105469 440.226562 317.171875 441.605469 315.210938 442.941406 L 314.566406 443.382812 C 312.261719 444.957031 309.941406 446.511719 307.617188 448.058594 L 306.953125 448.5 C 294.640625 456.703125 281.949219 464.289062 269.03125 471.492188 L 268.316406 471.898438 C 267.671875 472.25 267.671875 472.25 267.117188 472.488281 C 266.558594 472.714844 266.558594 472.714844 265.851562 473.289062 C 265.40625 474.15625 265.167969 475.0625 264.914062 476 C 260.824219 489.453125 252.53125 501.878906 243.789062 512.746094 L 243.390625 513.246094 C 240.488281 516.871094 237.472656 520.371094 234.285156 523.75 C 233.597656 524.480469 232.914062 525.21875 232.238281 525.964844 C 229.871094 528.554688 227.4375 531.128906 224.753906 533.394531 C 224.285156 533.804688 223.847656 534.238281 223.410156 534.683594 C 222.632812 535.472656 221.820312 536.199219 220.984375 536.921875 C 220.371094 537.453125 219.773438 538 219.175781 538.546875 C 218.054688 539.554688 216.898438 540.515625 215.726562 541.464844 C 215.0625 542.007812 214.40625 542.558594 213.753906 543.117188 C 211.867188 544.730469 209.929688 546.277344 207.960938 547.792969 L 207.347656 548.269531 C 203.558594 551.1875 199.730469 554.039062 195.777344 556.734375 C 191.453125 559.679688 187.25 562.828125 183.269531 566.226562 L 182.863281 566.570312 C 180.191406 568.875 177.652344 571.308594 175.15625 573.800781 C 174.683594 574.273438 174.210938 574.742188 173.738281 575.210938 C 171.957031 576.984375 170.320312 578.792969 168.761719 580.761719 C 168.519531 581.046875 168.277344 581.332031 168.03125 581.613281 C 166.035156 583.902344 164.265625 586.324219 162.53125 588.808594 L 162.136719 589.375 C 159.0625 593.808594 156.265625 598.476562 153.953125 603.355469 C 153.691406 603.898438 153.425781 604.441406 153.15625 604.980469 C 148.640625 614.132812 145.710938 624.046875 144.019531 634.09375 L 143.921875 634.664062 C 141.726562 646.855469 141.726562 646.855469 143.183594 658.84375 C 144.019531 660.816406 145.292969 662.492188 146.640625 664.144531 C 147.515625 665.25 148.207031 666.449219 148.921875 667.664062 C 150.777344 670.683594 152.757812 673.621094 154.746094 676.554688 L 155.152344 677.15625 C 156.910156 679.753906 158.703125 682.332031 160.589844 684.835938 C 160.976562 685.378906 160.976562 685.378906 161.3125 685.988281 C 161.675781 686.601562 161.964844 687.023438 162.53125 687.457031 C 163.613281 687.609375 164.585938 687.417969 165.648438 687.199219 L 166.414062 687.054688 C 167.191406 686.898438 167.960938 686.722656 168.730469 686.53125 L 169.582031 686.324219 C 178.261719 684.121094 186.457031 679.988281 193.683594 674.738281 L 194.117188 674.421875 C 196.019531 673.039062 197.847656 671.570312 199.65625 670.0625 L 200.414062 669.453125 C 202.621094 667.644531 204.632812 665.652344 206.648438 663.640625 L 207.078125 663.210938 C 208.640625 661.648438 210.167969 660.070312 211.597656 658.382812 C 211.828125 658.117188 212.058594 657.851562 212.289062 657.585938 C 214.152344 655.414062 215.875 653.160156 217.566406 650.855469 L 217.988281 650.285156 C 222.289062 644.449219 226.078125 638.289062 229.507812 631.902344 L 229.914062 631.15625 C 236.707031 618.476562 241.6875 605.058594 246.066406 591.382812 C 251.292969 575.078125 257.777344 559.398438 266.113281 544.417969 L 266.507812 543.703125 C 269.707031 537.929688 273.109375 532.269531 276.757812 526.765625 L 277.222656 526.0625 C 279.605469 522.449219 282.035156 518.871094 284.542969 515.34375 L 284.960938 514.753906 C 286.941406 511.96875 288.992188 509.238281 291.074219 506.527344 C 291.820312 505.550781 292.558594 504.570312 293.285156 503.585938 C 294.925781 501.375 296.65625 499.25 298.417969 497.140625 C 298.964844 496.484375 299.5 495.820312 300.039062 495.160156 C 300.996094 493.988281 301.972656 492.832031 302.953125 491.679688 C 303.71875 490.777344 304.472656 489.867188 305.214844 488.945312 C 306.15625 487.789062 307.132812 486.679688 308.136719 485.574219 C 308.628906 485.035156 309.117188 484.484375 309.59375 483.933594 C 310.664062 482.707031 311.75 481.5 312.839844 480.296875 L 313.515625 479.550781 C 314.980469 477.933594 316.492188 476.363281 318.054688 474.84375 C 318.625 474.273438 319.15625 473.679688 319.683594 473.066406 C 320.640625 471.960938 321.652344 470.925781 322.6875 469.898438 L 323.210938 469.371094 C 324.054688 468.53125 324.90625 467.71875 325.804688 466.945312 C 326.996094 465.917969 328.09375 464.804688 329.195312 463.683594 C 330.480469 462.378906 331.773438 461.113281 333.164062 459.917969 C 333.683594 459.464844 334.167969 458.988281 334.648438 458.492188 C 335.484375 457.640625 336.355469 456.859375 337.261719 456.082031 C 337.898438 455.511719 338.492188 454.90625 339.09375 454.296875 C 339.5625 453.835938 340.042969 453.40625 340.539062 452.980469 C 341.652344 452.011719 342.726562 451.003906 343.796875 449.988281 C 345.070312 448.785156 346.347656 447.585938 347.644531 446.402344 C 350.113281 444.148438 352.589844 441.886719 354.933594 439.496094 C 355.394531 439.042969 355.867188 438.621094 356.359375 438.203125 C 357.59375 437.132812 358.746094 435.984375 359.902344 434.828125 L 360.578125 434.152344 C 361.046875 433.683594 361.515625 433.214844 361.984375 432.746094 C 362.699219 432.03125 363.410156 431.316406 364.125 430.605469 L 365.5 429.230469 L 366.140625 428.59375 C 367.238281 427.488281 368.296875 426.363281 369.3125 425.183594 C 369.742188 424.6875 370.183594 424.207031 370.640625 423.734375 L 371.605469 422.714844 C 372.90625 421.339844 374.148438 419.949219 375.324219 418.46875 C 376.058594 417.566406 376.828125 416.695312 377.59375 415.820312 C 378.976562 414.234375 380.296875 412.597656 381.558594 410.914062 C 381.917969 410.433594 382.28125 409.953125 382.644531 409.476562 C 384.460938 407.089844 386.199219 404.652344 387.863281 402.160156 L 388.25 401.582031 C 391.996094 395.980469 395.351562 390.132812 398.605469 384.234375 C 399 383.519531 399.394531 382.808594 399.792969 382.097656 C 404.3125 373.953125 408.386719 365.550781 412.074219 356.996094 C 412.503906 356 412.941406 355.007812 413.382812 354.015625 C 417.082031 345.664062 420.265625 337.109375 423.300781 328.496094 C 423.65625 327.484375 424.019531 326.472656 424.386719 325.460938 L 424.972656 323.824219 L 425.234375 323.097656 L 425.464844 322.449219 L 425.664062 321.898438 L 425.765625 321.421875 Z M 428.882812 338.039062 L 429.140625 338.558594 Z M 428.621094 338.558594 L 428.328125 339.328125 C 421.785156 356.648438 414.347656 373.761719 405.109375 389.828125 C 404.660156 390.621094 404.214844 391.417969 403.78125 392.21875 C 398.644531 401.59375 392.71875 410.609375 385.898438 418.84375 C 385.375 419.476562 384.859375 420.113281 384.34375 420.753906 C 382.257812 423.300781 380.097656 425.78125 377.859375 428.199219 C 377.3125 428.796875 376.777344 429.402344 376.246094 430.015625 C 375.554688 430.816406 374.820312 431.5625 374.0625 432.304688 C 373.609375 432.769531 373.183594 433.25 372.761719 433.742188 C 371.726562 434.933594 370.625 436.050781 369.507812 437.164062 L 368.867188 437.804688 C 368.421875 438.25 367.976562 438.695312 367.53125 439.140625 C 366.855469 439.816406 366.179688 440.492188 365.503906 441.167969 L 363.597656 443.074219 C 362.523438 444.144531 361.429688 445.171875 360.28125 446.15625 C 359.574219 446.769531 358.921875 447.4375 358.269531 448.109375 C 357.277344 449.125 356.25 450.078125 355.175781 451.007812 C 354.265625 451.808594 353.390625 452.644531 352.511719 453.476562 C 351.179688 454.734375 349.847656 455.988281 348.503906 457.226562 C 346.808594 458.785156 345.128906 460.351562 343.449219 461.921875 C 342.796875 462.53125 342.144531 463.140625 341.492188 463.75 L 340.519531 464.65625 C 339.707031 465.417969 338.894531 466.171875 338.078125 466.929688 C 336.28125 468.589844 334.519531 470.273438 332.808594 472.023438 C 332.074219 472.765625 331.328125 473.476562 330.535156 474.160156 C 329.335938 475.195312 328.21875 476.304688 327.101562 477.425781 L 326.5 478.023438 C 325.421875 479.105469 324.382812 480.222656 323.386719 481.378906 C 322.757812 482.089844 322.085938 482.75 321.40625 483.414062 C 320.398438 484.410156 319.425781 485.417969 318.507812 486.5 C 318.019531 487.0625 317.515625 487.609375 317.007812 488.15625 C 315.757812 489.503906 314.558594 490.898438 313.40625 492.332031 C 312.847656 493.011719 312.265625 493.664062 311.671875 494.316406 C 310.667969 495.417969 309.722656 496.554688 308.785156 497.714844 C 308.242188 498.378906 307.691406 499.035156 307.132812 499.6875 C 305.65625 501.414062 304.238281 503.183594 302.84375 504.980469 C 302.433594 505.503906 302.027344 506.03125 301.613281 506.554688 C 298.292969 510.804688 294.996094 515.066406 291.917969 519.496094 C 291.566406 520 291.210938 520.5 290.851562 520.996094 C 283.488281 531.273438 276.902344 542.082031 270.949219 553.230469 C 270.671875 553.753906 270.390625 554.273438 270.109375 554.792969 C 259.359375 574.796875 252.71875 596.339844 248.019531 618.464844 C 247.398438 621.386719 246.773438 624.3125 246.140625 627.234375 L 245.945312 628.144531 C 242.160156 645.699219 238.089844 663.1875 233.808594 680.628906 L 233.367188 682.433594 C 228.660156 701.640625 223.792969 720.882812 217.671875 739.695312 L 217.488281 740.265625 C 217.328125 740.757812 217.167969 741.25 217.003906 741.742188 C 216.753906 742.488281 216.753906 742.488281 216.789062 743.269531 C 217.371094 743.765625 217.953125 744.207031 218.574219 744.648438 C 218.957031 744.929688 219.339844 745.207031 219.722656 745.488281 C 219.921875 745.636719 220.121094 745.78125 220.328125 745.933594 C 221.339844 746.679688 222.324219 747.460938 223.3125 748.234375 C 225.089844 749.628906 226.894531 750.96875 228.746094 752.265625 C 229.3125 752.660156 229.875 753.058594 230.4375 753.457031 C 234.582031 756.382812 238.796875 759.199219 243.074219 761.929688 L 243.828125 762.414062 L 244.519531 762.851562 L 245.136719 763.242188 L 245.605469 763.519531 L 245.863281 763.519531 L 245.871094 762.863281 C 246.078125 741.660156 246.078125 741.660156 246.644531 733.40625 L 246.691406 732.683594 C 247.863281 715.484375 250.007812 698.394531 253.390625 681.488281 L 253.527344 680.816406 C 258.128906 657.839844 265.058594 635.222656 277.394531 609.355469 C 277.757812 608.613281 278.121094 607.871094 278.480469 607.128906 C 280.105469 603.800781 281.910156 600.582031 283.765625 597.375 L 284.1875 596.648438 C 288.8125 588.667969 293.917969 581.019531 299.601562 573.753906 L 300.285156 572.867188 C 301.855469 570.839844 303.492188 568.882812 305.171875 566.945312 C 305.582031 566.46875 305.992188 565.992188 306.398438 565.511719 C 308.773438 562.710938 308.773438 562.710938 310.070312 561.46875 C 310.5 561.039062 310.886719 560.59375 311.277344 560.132812 C 312.425781 558.8125 313.65625 557.582031 314.894531 556.347656 C 315.289062 555.953125 315.683594 555.5625 316.074219 555.164062 C 317.320312 553.921875 318.578125 552.703125 319.914062 551.558594 C 320.601562 550.96875 321.261719 550.355469 321.925781 549.742188 C 322.78125 548.953125 323.640625 548.167969 324.523438 547.402344 C 325.789062 546.304688 327.019531 545.171875 328.25 544.035156 C 328.667969 543.648438 329.085938 543.265625 329.503906 542.886719 C 331.753906 540.828125 333.917969 538.6875 336.074219 536.535156 L 336.519531 536.089844 C 337.96875 534.648438 339.398438 533.207031 340.726562 531.652344 C 341.472656 530.792969 342.265625 529.976562 343.050781 529.152344 C 344.371094 527.753906 345.625 526.339844 346.820312 524.839844 C 347.410156 524.117188 348.03125 523.429688 348.664062 522.742188 C 349.9375 521.359375 351.121094 519.921875 352.300781 518.457031 L 353.113281 517.464844 C 354.675781 515.558594 356.203125 513.636719 357.664062 511.65625 C 358.078125 511.101562 358.492188 510.550781 358.910156 510 C 361 507.230469 363.042969 504.4375 365.019531 501.585938 L 365.386719 501.054688 C 366.222656 499.851562 367.050781 498.644531 367.875 497.429688 L 368.191406 496.964844 C 374.925781 487.027344 380.992188 476.644531 386.566406 466.019531 L 386.839844 465.496094 C 391.347656 456.917969 395.460938 448.179688 399.285156 439.28125 L 399.527344 438.722656 C 403.761719 428.859375 407.53125 418.816406 410.96875 408.648438 L 411.226562 407.886719 C 418.390625 386.675781 423.898438 365.042969 428.234375 343.085938 C 428.324219 342.644531 428.414062 342.199219 428.507812 341.757812 L 428.652344 341.070312 L 428.785156 340.457031 C 428.886719 339.816406 428.898438 339.207031 428.882812 338.558594 Z M 482.617188 362.179688 C 483.058594 363.191406 483.71875 364.015625 484.402344 364.875 L 484.785156 365.355469 C 486.054688 366.949219 487.378906 368.492188 488.714844 370.03125 C 489.109375 370.488281 489.5 370.945312 489.886719 371.40625 C 491.300781 373.070312 492.738281 374.707031 494.230469 376.300781 C 494.90625 377.023438 495.570312 377.757812 496.21875 378.503906 C 497.152344 379.574219 498.113281 380.617188 499.085938 381.652344 L 499.601562 382.203125 C 500.597656 383.261719 501.617188 384.304688 502.652344 385.324219 C 503.101562 385.78125 503.515625 386.25 503.929688 386.738281 C 505.070312 388.046875 506.300781 389.257812 507.539062 390.476562 C 510.039062 392.941406 510.039062 392.941406 510.960938 394.03125 C 512.480469 395.800781 514.191406 397.402344 515.847656 399.042969 C 519.816406 402.972656 519.816406 402.972656 521.152344 404.550781 C 521.972656 405.488281 522.875 406.347656 523.765625 407.222656 C 525.019531 408.453125 526.238281 409.699219 527.378906 411.039062 C 527.800781 411.519531 528.242188 411.964844 528.695312 412.414062 C 529.304688 413.011719 529.886719 413.632812 530.441406 414.277344 C 531.429688 415.417969 532.460938 416.511719 533.5 417.605469 C 534.691406 418.855469 535.859375 420.121094 536.992188 421.425781 C 537.496094 422.003906 538.011719 422.570312 538.527344 423.136719 C 539.339844 424.035156 540.121094 424.953125 540.882812 425.894531 C 541.679688 426.878906 542.503906 427.835938 543.363281 428.765625 C 544.511719 430.015625 545.585938 431.304688 546.652344 432.625 C 547.199219 433.300781 547.757812 433.96875 548.3125 434.640625 C 550.070312 436.765625 551.796875 438.917969 553.488281 441.097656 L 553.8125 441.515625 C 560.753906 450.464844 567.273438 459.753906 573.21875 469.394531 L 573.71875 470.207031 C 576.34375 474.464844 578.859375 478.765625 581.265625 483.152344 L 581.679688 483.902344 C 592.652344 503.824219 601.578125 524.789062 611.636719 558.4375 L 611.792969 559.015625 C 617.023438 578.8125 619.867188 599.019531 620.984375 619.441406 L 621.015625 620 C 622.3125 644.125 619.929688 668.625 601.140625 735.296875 C 601.09375 735.441406 601.042969 735.589844 600.996094 735.742188 L 601.253906 736.519531 C 603.179688 734.890625 605.085938 733.246094 606.9375 731.535156 C 607.609375 730.90625 608.296875 730.292969 608.992188 729.691406 C 611.351562 727.644531 613.613281 725.484375 615.804688 723.261719 C 616.277344 722.796875 616.761719 722.363281 617.269531 721.933594 C 619.453125 720.058594 621.503906 717.964844 623.363281 715.769531 C 624.011719 715.039062 624.703125 714.363281 625.398438 713.675781 C 626.394531 712.691406 627.351562 711.695312 628.261719 710.625 C 628.820312 709.984375 629.398438 709.367188 629.980469 708.746094 C 631.355469 707.285156 632.667969 705.800781 633.921875 704.234375 C 634.507812 703.523438 635.121094 702.847656 635.75 702.171875 C 636.851562 700.976562 637.859375 699.730469 638.851562 698.445312 C 639.652344 697.414062 640.476562 696.414062 641.328125 695.421875 C 643.027344 693.445312 644.617188 691.375 646.164062 689.273438 L 646.515625 688.882812 C 646.902344 688.421875 647.203125 688.003906 647.460938 687.457031 C 647.5 686.667969 647.304688 685.984375 647.085938 685.234375 L 646.921875 684.585938 C 646.800781 684.128906 646.679688 683.667969 646.554688 683.210938 C 646.21875 681.984375 645.914062 680.746094 645.605469 679.511719 L 645.410156 678.753906 C 641.949219 665.054688 640.582031 650.660156 639.933594 636.574219 L 639.890625 635.59375 C 638.96875 614.585938 640.449219 593.59375 643.851562 572.855469 C 645.824219 560.820312 646.914062 548.78125 645.125 536.628906 L 644.992188 535.695312 C 643.957031 528.738281 642.203125 521.996094 639.933594 515.34375 L 639.664062 514.542969 C 635.855469 503.316406 630.273438 492.820312 623.839844 482.894531 L 623.292969 482.050781 C 618.617188 474.949219 613.367188 468.253906 607.859375 461.785156 C 607.488281 461.347656 607.117188 460.910156 606.746094 460.472656 C 604.910156 458.296875 602.988281 456.21875 601.03125 454.152344 C 600.492188 453.574219 599.957031 452.992188 599.421875 452.40625 C 597.671875 450.492188 595.859375 448.644531 594.023438 446.8125 C 593.527344 446.320312 593.03125 445.824219 592.539062 445.328125 C 590.414062 443.199219 590.414062 443.199219 588.167969 441.195312 C 587.703125 440.796875 587.277344 440.367188 586.847656 439.929688 C 586.078125 439.148438 585.269531 438.425781 584.4375 437.707031 C 583.777344 437.128906 583.128906 436.535156 582.480469 435.9375 C 581.308594 434.867188 580.097656 433.859375 578.859375 432.863281 C 578.140625 432.265625 577.457031 431.644531 576.769531 431.007812 C 575.574219 429.90625 574.328125 428.898438 573.046875 427.90625 C 571.996094 427.089844 570.964844 426.246094 569.957031 425.375 C 568.484375 424.117188 566.964844 422.925781 565.421875 421.757812 C 564.839844 421.3125 564.261719 420.863281 563.6875 420.410156 C 560.710938 418.089844 557.648438 416.003906 554.441406 414.011719 C 553.339844 413.328125 552.253906 412.617188 551.167969 411.910156 L 550.515625 411.484375 L 549.207031 410.628906 C 548.574219 410.21875 547.9375 409.804688 547.304688 409.394531 C 544.027344 407.265625 540.761719 405.121094 537.496094 402.972656 L 535.976562 401.976562 C 533.375 400.265625 530.785156 398.550781 528.265625 396.71875 C 527.558594 396.210938 526.84375 395.722656 526.117188 395.246094 C 522.097656 392.589844 518.179688 389.785156 514.28125 386.953125 C 513.660156 386.503906 513.03125 386.054688 512.40625 385.609375 C 508.472656 382.816406 504.609375 379.925781 500.789062 376.976562 L 500.191406 376.515625 C 497.117188 374.144531 494.097656 371.726562 491.140625 369.210938 C 490.257812 368.460938 489.363281 367.722656 488.457031 367 C 487.183594 365.96875 485.984375 364.867188 484.800781 363.734375 C 484.117188 363.085938 483.5 362.535156 482.617188 362.179688 M 434.332031 378.015625 L 434.308594 378.460938 C 432.949219 405.035156 429.558594 431.28125 423.429688 457.195312 L 423.277344 457.835938 C 419.816406 472.566406 415.421875 487.21875 409.929688 501.324219 L 409.726562 501.847656 C 404.039062 516.472656 397.53125 530.820312 389.683594 544.417969 L 389.425781 544.863281 C 386.929688 549.195312 384.371094 553.472656 381.632812 557.65625 L 381.234375 558.269531 C 379.183594 561.402344 377.050781 564.472656 374.882812 567.523438 L 374.453125 568.132812 C 371.417969 572.40625 368.191406 576.519531 364.871094 580.570312 C 364.542969 580.972656 364.214844 581.375 363.890625 581.777344 C 361.554688 584.660156 359.113281 587.445312 356.597656 590.164062 C 355.964844 590.855469 355.339844 591.550781 354.71875 592.25 C 353.84375 593.222656 352.9375 594.148438 352.007812 595.066406 C 351.550781 595.527344 351.128906 596.003906 350.710938 596.5 C 349.816406 597.535156 348.867188 598.503906 347.902344 599.46875 L 347.453125 599.925781 C 346.699219 600.675781 345.933594 601.394531 345.125 602.085938 C 343.890625 603.160156 342.738281 604.308594 341.582031 605.464844 L 340.90625 606.140625 C 340.4375 606.609375 339.96875 607.078125 339.5 607.546875 C 338.785156 608.261719 338.074219 608.972656 337.359375 609.6875 L 335.984375 611.0625 L 335.34375 611.699219 C 334.246094 612.800781 333.191406 613.925781 332.175781 615.105469 C 331.726562 615.621094 331.261719 616.121094 330.789062 616.617188 L 330.273438 617.15625 L 329.746094 617.707031 C 328.386719 619.140625 327.085938 620.589844 325.855469 622.140625 C 325.222656 622.914062 324.554688 623.644531 323.875 624.375 C 322.792969 625.539062 321.753906 626.742188 320.761719 627.980469 C 320.261719 628.601562 319.753906 629.21875 319.246094 629.828125 C 317.542969 631.882812 315.867188 633.949219 314.257812 636.078125 C 313.8125 636.664062 313.363281 637.25 312.914062 637.832031 C 310.675781 640.753906 308.476562 643.695312 306.351562 646.699219 L 305.863281 647.386719 C 303.253906 651.082031 300.746094 654.835938 298.304688 658.640625 L 297.910156 659.25 C 292.457031 667.683594 287.527344 676.460938 282.976562 685.410156 C 282.714844 685.921875 282.453125 686.433594 282.195312 686.945312 C 279.625 691.984375 277.175781 697.054688 274.9375 702.253906 L 274.710938 702.78125 C 270.691406 712.125 267.125 721.636719 264.035156 731.328125 L 263.863281 731.863281 C 260.875 741.238281 258.480469 750.765625 256.507812 760.40625 L 256.335938 761.210938 L 256.191406 761.90625 C 256.152344 762.09375 256.113281 762.285156 256.070312 762.480469 C 255.960938 763.085938 255.960938 763.085938 255.988281 764.039062 C 257.125 763.6875 258.164062 763.242188 259.226562 762.707031 L 259.703125 762.46875 C 260.214844 762.214844 260.722656 761.960938 261.230469 761.703125 L 262.296875 761.164062 C 264.71875 759.949219 267.125 758.703125 269.515625 757.429688 C 270.265625 757.03125 271.015625 756.636719 271.765625 756.242188 C 275.773438 754.136719 279.761719 752.007812 283.691406 749.761719 C 285.082031 748.964844 286.492188 748.203125 287.902344 747.441406 C 290.433594 746.070312 292.917969 744.632812 295.398438 743.171875 C 296.753906 742.378906 298.113281 741.59375 299.476562 740.816406 C 305.492188 737.367188 311.386719 733.726562 317.253906 730.03125 L 317.898438 729.628906 C 319.113281 728.863281 320.328125 728.09375 321.539062 727.324219 C 322.214844 726.898438 322.894531 726.472656 323.570312 726.046875 C 332.109375 720.648438 340.476562 714.929688 348.652344 708.988281 C 349.453125 708.40625 350.257812 707.828125 351.066406 707.253906 C 354.921875 704.515625 358.699219 701.683594 362.421875 698.769531 C 363.175781 698.179688 363.933594 697.59375 364.695312 697.015625 C 367.433594 694.910156 370.140625 692.769531 372.808594 690.574219 L 374.203125 689.4375 C 375.40625 688.453125 376.597656 687.449219 377.78125 686.441406 C 378.679688 685.683594 379.582031 684.933594 380.5 684.195312 C 381.71875 683.203125 382.875 682.15625 384.03125 681.09375 C 384.75 680.445312 385.488281 679.835938 386.242188 679.230469 C 387.21875 678.441406 388.121094 677.625 388.996094 676.722656 C 389.425781 676.292969 389.871094 675.894531 390.332031 675.5 C 392.691406 673.460938 394.984375 671.3125 397.152344 669.066406 C 397.636719 668.597656 398.125 668.164062 398.636719 667.726562 C 399.996094 666.546875 401.257812 665.277344 402.523438 664.003906 C 402.9375 663.589844 403.351562 663.179688 403.761719 662.769531 C 405.046875 661.488281 406.296875 660.195312 407.476562 658.816406 C 408.003906 658.207031 408.574219 657.644531 409.152344 657.085938 C 410.066406 656.179688 410.9375 655.253906 411.773438 654.277344 C 412.269531 653.707031 412.777344 653.152344 413.292969 652.601562 C 414.519531 651.277344 415.695312 649.914062 416.824219 648.507812 C 417.570312 647.601562 418.339844 646.722656 419.113281 645.839844 C 420.570312 644.171875 421.953125 642.460938 423.304688 640.707031 C 423.722656 640.167969 424.144531 639.632812 424.566406 639.097656 C 426.613281 636.5 428.574219 633.859375 430.4375 631.125 L 431.015625 630.277344 C 435.226562 624.085938 439.15625 617.769531 442.640625 611.136719 L 443.019531 610.410156 C 451.859375 593.546875 456.75 574.917969 456.371094 555.832031 C 456.125 550.078125 455.28125 544.402344 454.277344 538.734375 L 453.960938 536.921875 C 453.738281 535.648438 453.515625 534.371094 453.289062 533.097656 C 452.726562 529.882812 452.167969 526.667969 451.613281 523.453125 L 451.347656 521.914062 C 447.175781 497.839844 443.4375 473.679688 434.929688 384.882812 C 434.855469 382.589844 434.734375 380.304688 434.59375 378.015625 Z M 424.726562 392.8125 L 424.46875 393.664062 C 422.480469 400.164062 420.4375 406.632812 418.238281 413.0625 L 418.039062 413.648438 C 412.5625 429.671875 406.101562 445.324219 398.644531 460.527344 C 398.128906 461.597656 397.625 462.671875 397.128906 463.75 C 396.144531 465.859375 395.0625 467.910156 393.964844 469.960938 C 393.53125 470.773438 393.101562 471.589844 392.671875 472.402344 C 390.710938 476.105469 388.675781 479.753906 386.539062 483.359375 C 386 484.269531 385.46875 485.183594 384.9375 486.097656 C 383.105469 489.253906 381.269531 492.402344 379.242188 495.4375 C 378.765625 496.152344 378.292969 496.867188 377.820312 497.582031 C 372.085938 506.246094 366.121094 514.683594 359.539062 522.730469 C 358.929688 523.476562 358.328125 524.226562 357.734375 524.980469 C 355.835938 527.359375 353.828125 529.644531 351.785156 531.898438 C 351.300781 532.433594 350.824219 532.972656 350.351562 533.515625 C 349.285156 534.738281 348.203125 535.949219 347.109375 537.148438 L 346.738281 537.554688 C 344.386719 540.132812 341.933594 542.613281 339.464844 545.082031 L 338.984375 545.566406 C 335.945312 548.617188 335.945312 548.617188 334.328125 549.992188 C 333.5 550.703125 332.714844 551.457031 331.921875 552.207031 C 330.757812 553.296875 329.589844 554.378906 328.382812 555.421875 C 327.339844 556.324219 326.320312 557.25 325.300781 558.175781 L 324.558594 558.84375 C 322.78125 560.457031 321.0625 562.128906 319.363281 563.824219 L 318.734375 564.445312 C 317.648438 565.539062 316.601562 566.652344 315.59375 567.820312 C 314.964844 568.546875 314.308594 569.242188 313.652344 569.941406 C 312.507812 571.167969 311.414062 572.433594 310.363281 573.742188 C 309.882812 574.339844 309.394531 574.929688 308.902344 575.519531 C 306.636719 578.222656 304.515625 581.015625 302.457031 583.878906 L 302.066406 584.417969 C 298.378906 589.5 294.964844 594.800781 291.8125 600.230469 L 291.414062 600.921875 C 283.382812 614.785156 276.9375 629.417969 271.835938 644.59375 C 271.5625 645.40625 271.285156 646.214844 271.003906 647.019531 C 262.78125 670.875 258.488281 696.109375 255.46875 730.03125 C 256.074219 729.125 256.359375 728.203125 256.6875 727.175781 L 257.113281 725.859375 L 257.34375 725.15625 C 260.1875 716.410156 263.484375 707.832031 267.152344 699.398438 L 267.558594 698.464844 C 269.722656 693.507812 272.050781 688.640625 274.441406 683.789062 C 274.667969 683.328125 274.890625 682.871094 275.117188 682.410156 C 284.136719 664.039062 295.394531 646.777344 307.90625 630.605469 L 308.273438 630.132812 C 311.121094 626.457031 314.09375 622.882812 317.132812 619.367188 C 317.519531 618.914062 317.90625 618.460938 318.289062 618.007812 C 319.824219 616.199219 321.402344 614.429688 323.019531 612.695312 C 323.644531 612.023438 324.253906 611.347656 324.863281 610.664062 C 327.929688 607.253906 331.121094 603.972656 334.367188 600.738281 C 335.027344 600.078125 335.683594 599.421875 336.339844 598.761719 L 338.199219 596.902344 C 339.253906 595.855469 340.328125 594.847656 341.460938 593.878906 C 342.167969 593.265625 342.828125 592.605469 343.488281 591.941406 C 343.625 591.804688 343.757812 591.671875 343.894531 591.535156 C 344.761719 590.65625 345.589844 589.746094 346.386719 588.808594 C 346.949219 588.175781 347.542969 587.585938 348.144531 586.992188 C 349.066406 586.082031 349.941406 585.152344 350.785156 584.167969 C 351.351562 583.511719 351.941406 582.875 352.527344 582.238281 C 353.589844 581.074219 354.597656 579.878906 355.585938 578.652344 C 356.125 577.992188 356.671875 577.335938 357.226562 576.691406 C 358.703125 574.964844 360.121094 573.195312 361.511719 571.402344 C 361.933594 570.859375 362.359375 570.324219 362.78125 569.785156 C 364.679688 567.375 366.503906 564.910156 368.25 562.394531 C 368.675781 561.78125 369.105469 561.171875 369.539062 560.5625 C 375.164062 552.613281 380.25 544.28125 384.90625 535.734375 C 385.164062 535.261719 385.421875 534.789062 385.683594 534.320312 C 393.167969 520.691406 399.378906 506.394531 404.550781 491.738281 C 404.679688 491.367188 404.808594 490.996094 404.941406 490.628906 C 410.476562 475.007812 414.882812 458.964844 418.121094 442.710938 C 418.242188 442.109375 418.367188 441.503906 418.488281 440.898438 C 423.484375 417.035156 423.484375 417.035156 424.988281 392.8125 Z M 533.238281 430.453125 C 533.5625 431.46875 533.929688 432.414062 534.402344 433.371094 L 534.792969 434.167969 L 535.21875 435.03125 C 537.179688 439.054688 538.992188 443.136719 540.789062 447.234375 C 541.179688 448.117188 541.566406 449 541.960938 449.882812 C 550.140625 468.332031 556.480469 487.652344 565.949219 540.785156 L 566.023438 541.738281 C 566.324219 545.976562 566.273438 550.230469 566.273438 554.476562 L 566.273438 555.109375 C 566.277344 561.253906 566.230469 567.359375 565.496094 573.464844 C 565.425781 574.039062 565.359375 574.617188 565.292969 575.195312 C 563.316406 592.351562 558.640625 609.054688 551.152344 624.632812 L 550.757812 625.460938 C 548.746094 629.632812 546.535156 633.648438 544.144531 637.613281 L 543.75 638.265625 C 542.269531 640.734375 540.730469 643.164062 539.160156 645.578125 C 536.695312 649.367188 534.316406 653.203125 532.097656 657.140625 C 531.832031 657.605469 531.550781 658.0625 531.253906 658.507812 C 529.828125 660.765625 529.679688 663.148438 529.425781 665.75 L 529.269531 667.242188 C 529.109375 668.789062 528.964844 670.335938 528.828125 671.882812 C 528.804688 672.117188 528.78125 672.351562 528.761719 672.59375 C 527.621094 684.777344 527.378906 697.355469 528.828125 709.523438 L 528.894531 710.105469 C 529.519531 715.34375 530.386719 720.5 531.683594 725.617188 L 531.890625 726.441406 C 534.980469 738.429688 540.144531 749.859375 548.816406 758.847656 L 549.472656 759.554688 C 551.332031 761.5 553.375 763.148438 555.574219 764.703125 C 556.085938 765.078125 556.085938 765.078125 556.859375 765.753906 C 557.539062 766.300781 557.539062 766.300781 558.308594 766.613281 C 559.242188 766.636719 559.605469 766.515625 560.433594 766.121094 C 561.710938 765.417969 562.914062 764.617188 564.117188 763.796875 C 564.910156 763.261719 565.710938 762.75 566.523438 762.242188 C 571.105469 759.371094 575.613281 756.359375 579.988281 753.179688 C 580.796875 752.59375 581.59375 752.046875 582.476562 751.574219 C 583.789062 750.835938 584.78125 750.070312 585.621094 748.800781 C 586.640625 747.042969 587.519531 745.222656 588.375 743.386719 C 588.753906 742.582031 589.140625 741.785156 589.539062 740.992188 C 596.355469 727.253906 601.160156 712.417969 604.886719 697.582031 L 605.035156 697 C 609.753906 678.238281 612.335938 658.929688 612.824219 639.59375 L 612.839844 638.957031 C 612.917969 635.824219 612.988281 632.699219 612.9375 629.566406 L 612.921875 628.609375 C 612.574219 606.265625 609.601562 584.019531 604 562.382812 C 603.847656 561.804688 603.699219 561.222656 603.550781 560.644531 C 601.898438 554.207031 599.972656 547.867188 597.878906 541.5625 L 597.664062 540.914062 C 594.296875 530.796875 590.324219 520.90625 585.9375 511.191406 L 585.550781 510.328125 C 581.929688 502.265625 578.046875 494.222656 573.5625 486.601562 C 573.101562 485.808594 572.664062 485.007812 572.222656 484.207031 C 568.652344 477.691406 564.667969 471.382812 560.496094 465.242188 L 560.089844 464.636719 C 558.035156 461.59375 555.917969 458.601562 553.746094 455.636719 L 553.289062 455.007812 C 551.398438 452.421875 549.488281 449.855469 547.515625 447.328125 L 547.167969 446.878906 C 545.011719 444.113281 542.800781 441.390625 540.53125 438.71875 C 539.789062 437.84375 539.054688 436.960938 538.335938 436.070312 C 537.351562 434.863281 536.347656 433.675781 535.332031 432.5 L 534.886719 431.976562 L 534.464844 431.492188 L 534.089844 431.054688 C 533.761719 430.679688 533.761719 430.679688 533.238281 430.453125 M 606.964844 447.070312 C 607.492188 448.023438 608.0625 448.734375 608.847656 449.488281 C 609.925781 450.542969 610.921875 451.632812 611.898438 452.78125 L 612.601562 453.597656 C 613.273438 454.382812 613.945312 455.164062 614.613281 455.949219 C 614.871094 456.25 615.128906 456.550781 615.386719 456.851562 C 617.085938 458.832031 618.734375 460.859375 620.332031 462.921875 C 620.75 463.453125 621.164062 463.984375 621.582031 464.511719 C 623.835938 467.359375 625.949219 470.289062 627.992188 473.289062 L 628.453125 473.960938 C 632.132812 479.378906 635.492188 484.9375 638.636719 490.683594 L 638.996094 491.328125 C 649.117188 509.648438 654.8125 531.027344 654.519531 551.980469 C 654.347656 559.425781 653.355469 566.726562 652.140625 574.058594 C 650.90625 581.519531 649.914062 588.984375 649.230469 596.515625 L 649.167969 597.191406 C 648.429688 605.335938 648.140625 613.46875 648.160156 621.644531 C 648.160156 622.359375 648.160156 623.074219 648.160156 623.789062 C 648.171875 631.277344 648.328125 638.722656 649.019531 646.179688 L 649.089844 646.929688 C 649.90625 655.8125 651.121094 664.621094 652.847656 673.375 L 652.964844 673.972656 C 653.074219 674.523438 653.1875 675.074219 653.300781 675.625 L 653.492188 676.570312 C 653.660156 677.375 653.660156 677.375 654.210938 678.113281 C 660.117188 669.320312 665.769531 660.421875 670.828125 651.113281 L 671.3125 650.226562 C 673.613281 646 675.835938 641.738281 677.949219 637.410156 C 678.421875 636.445312 678.90625 635.488281 679.398438 634.535156 C 681.195312 630.964844 681.820312 627.546875 682.25 623.597656 C 682.320312 623.011719 682.390625 622.421875 682.460938 621.835938 C 682.804688 618.980469 683.082031 616.113281 683.320312 613.246094 L 683.378906 612.527344 C 683.441406 611.71875 683.496094 610.90625 683.546875 610.097656 L 683.582031 609.558594 C 683.851562 605.183594 683.859375 600.804688 683.855469 596.417969 L 683.855469 595.851562 C 683.851562 590.199219 683.796875 584.578125 683.289062 578.945312 L 683.1875 577.773438 C 681.382812 557.199219 676.847656 537.027344 658.625 498.46875 L 658.226562 497.816406 C 652.957031 489.1875 646.722656 481.121094 639.828125 473.730469 C 639.53125 473.410156 639.234375 473.089844 638.9375 472.769531 C 636.882812 470.546875 634.816406 468.402344 632.558594 466.390625 C 631.925781 465.820312 631.308594 465.234375 630.6875 464.648438 C 629.226562 463.265625 627.746094 461.925781 626.171875 460.667969 C 625.574219 460.191406 624.988281 459.707031 624.402344 459.21875 C 621.972656 457.179688 619.480469 455.273438 616.886719 453.449219 C 616.320312 453.046875 615.753906 452.640625 615.191406 452.238281 C 613.300781 450.886719 611.390625 449.570312 609.449219 448.300781 L 608.875 447.925781 C 608.417969 447.632812 607.953125 447.347656 607.484375 447.070312 Z M 252.640625 480.253906 L 252 480.574219 L 251.332031 480.914062 L 250.714844 481.222656 C 249.601562 481.78125 248.496094 482.355469 247.398438 482.9375 C 244.070312 484.707031 240.703125 486.382812 237.3125 488.039062 C 236.894531 488.242188 236.894531 488.242188 236.464844 488.453125 C 232.179688 490.546875 227.878906 492.597656 223.539062 494.574219 C 212.027344 499.792969 212.027344 499.792969 200.824219 505.636719 C 200.183594 505.992188 199.542969 506.34375 198.898438 506.6875 C 191.707031 510.574219 184.691406 514.878906 178.066406 519.671875 C 177.613281 520 177.160156 520.320312 176.703125 520.640625 C 172.609375 523.515625 168.65625 526.59375 164.792969 529.777344 C 164.382812 530.113281 163.96875 530.453125 163.550781 530.785156 C 162.167969 531.90625 160.816406 533.066406 159.5 534.265625 C 158.976562 534.742188 158.445312 535.210938 157.910156 535.671875 C 154.960938 538.25 152.171875 540.976562 149.410156 543.75 C 148.804688 544.355469 148.195312 544.964844 147.585938 545.570312 L 146.40625 546.75 L 145.867188 547.292969 C 144.847656 548.3125 143.871094 549.371094 142.929688 550.460938 C 142.433594 551.039062 141.921875 551.597656 141.410156 552.15625 C 140.410156 553.265625 139.457031 554.398438 138.519531 555.558594 C 138.050781 556.140625 137.578125 556.714844 137.101562 557.292969 C 134.917969 559.9375 132.863281 562.660156 130.863281 565.445312 L 130.398438 566.089844 C 124.609375 574.179688 119.257812 582.925781 115.546875 592.183594 L 115.230469 592.917969 C 114.96875 593.742188 114.96875 593.742188 115.171875 594.59375 L 115.472656 595.527344 L 115.636719 596.046875 C 115.820312 596.617188 116.003906 597.183594 116.195312 597.75 L 116.589844 598.964844 C 119.195312 606.957031 122.160156 614.804688 125.410156 622.558594 L 125.625 623.074219 C 127.398438 627.316406 129.300781 631.496094 131.269531 635.652344 L 131.574219 636.304688 C 131.867188 636.917969 132.160156 637.535156 132.453125 638.148438 L 132.714844 638.699219 C 133.261719 639.839844 133.859375 640.9375 134.496094 642.027344 L 134.757812 642.027344 L 134.84375 641.296875 C 137.167969 621.898438 143.074219 603.09375 153.964844 586.734375 L 154.328125 586.1875 C 157.625 581.246094 161.230469 576.449219 165.28125 572.097656 C 165.761719 571.574219 166.230469 571.042969 166.691406 570.5 C 167.902344 569.109375 169.214844 567.8125 170.519531 566.511719 C 170.953125 566.078125 171.382812 565.648438 171.8125 565.214844 C 173.261719 563.765625 174.726562 562.355469 176.292969 561.03125 C 176.585938 560.777344 176.878906 560.523438 177.171875 560.265625 C 179.152344 558.542969 181.195312 556.894531 183.300781 555.320312 L 183.863281 554.902344 C 186.15625 553.1875 188.464844 551.511719 190.832031 549.898438 C 194.472656 547.417969 197.992188 544.78125 201.472656 542.082031 L 201.964844 541.703125 C 203.90625 540.199219 205.8125 538.648438 207.679688 537.050781 C 208.429688 536.414062 209.191406 535.789062 209.957031 535.171875 C 211.117188 534.226562 212.230469 533.246094 213.332031 532.242188 C 213.847656 531.777344 214.367188 531.320312 214.890625 530.871094 C 217.925781 528.21875 220.800781 525.390625 223.648438 522.539062 C 224.195312 521.988281 224.742188 521.445312 225.289062 520.898438 L 226.839844 519.347656 C 227.808594 518.371094 228.734375 517.363281 229.632812 516.320312 C 230.171875 515.695312 230.734375 515.089844 231.292969 514.484375 C 232.34375 513.332031 233.34375 512.15625 234.320312 510.945312 C 234.789062 510.367188 235.257812 509.792969 235.730469 509.222656 C 240.644531 503.273438 245.167969 496.878906 248.980469 490.164062 L 249.28125 489.632812 C 250.59375 487.335938 251.847656 485 253.035156 482.632812 L 253.378906 481.953125 L 253.695312 481.320312 L 253.972656 480.757812 C 254.207031 480.300781 254.207031 480.300781 254.171875 479.777344 C 253.53125 479.777344 253.210938 479.96875 252.640625 480.253906 M 548.035156 490.941406 L 548.089844 491.90625 C 548.316406 496.191406 548.359375 500.472656 548.359375 504.765625 L 548.363281 505.320312 C 548.363281 510.949219 548.246094 516.503906 547.515625 522.09375 L 547.40625 523 C 544.417969 547.660156 535.304688 571.359375 520.46875 591.324219 C 519.316406 592.855469 518.125 594.355469 516.886719 595.820312 L 516.191406 596.648438 C 514.726562 598.394531 513.226562 600.109375 511.691406 601.789062 L 511.050781 602.503906 C 508.628906 605.183594 506.132812 607.855469 503.367188 610.1875 C 502.742188 610.722656 502.140625 611.289062 501.535156 611.847656 C 500.1875 613.082031 498.773438 614.210938 497.328125 615.328125 C 496.515625 615.953125 495.71875 616.597656 494.917969 617.246094 C 493.542969 618.359375 492.152344 619.433594 490.699219 620.449219 C 488.507812 621.980469 486.472656 623.691406 484.433594 625.414062 L 483.925781 625.84375 C 482.1875 627.316406 480.46875 628.8125 478.78125 630.347656 C 478.265625 630.808594 477.742188 631.261719 477.214844 631.707031 C 474.484375 634.109375 472.125 636.628906 470.15625 639.691406 L 469.832031 640.195312 C 464.921875 647.882812 462.457031 656.886719 461.589844 665.910156 L 461.503906 666.714844 C 460.265625 680.230469 462.972656 694.09375 467.042969 706.925781 L 467.300781 707.75 C 468.492188 711.539062 469.867188 715.234375 471.308594 718.933594 C 476.921875 733.34375 480.335938 748.269531 480.347656 763.777344 L 480.347656 764.535156 C 480.34375 769.003906 480.105469 773.367188 479.503906 777.796875 L 479.390625 778.636719 C 478.316406 786.242188 476.246094 793.71875 473.53125 800.902344 C 474.925781 800.75 476.265625 800.515625 477.625 800.167969 L 478.203125 800.023438 C 478.832031 799.863281 479.457031 799.703125 480.085938 799.539062 L 480.75 799.367188 C 489.007812 797.234375 497.164062 794.757812 505.214844 791.941406 L 505.75 791.753906 C 506.359375 791.539062 506.957031 791.328125 507.539062 791.039062 C 507.125 789.480469 506.6875 787.933594 506.238281 786.386719 C 502.574219 773.816406 500.257812 760.636719 500.21875 747.519531 L 500.210938 746.371094 C 500.207031 745.15625 500.207031 743.9375 500.207031 742.71875 L 500.207031 742.089844 C 500.207031 736.160156 500.214844 730.257812 500.976562 724.363281 C 501.054688 723.75 501.128906 723.140625 501.207031 722.527344 C 503.734375 702.09375 509.765625 682.527344 518.847656 664.070312 C 519.210938 663.332031 519.574219 662.59375 519.933594 661.851562 C 523.292969 654.984375 527.230469 648.417969 531.421875 642.027344 C 544.773438 621.601562 554.257812 599.742188 558.28125 564.253906 C 559.542969 541.394531 555.949219 518.675781 548.296875 490.941406 Z M 234.183594 640.730469 L 234.441406 641.25 Z M 233.921875 641.25 L 233.585938 641.800781 C 231.449219 645.316406 229.304688 648.804688 226.914062 652.152344 L 226.511719 652.71875 C 223.078125 657.554688 219.414062 662.128906 215.382812 666.480469 C 214.753906 667.164062 214.128906 667.859375 213.511719 668.554688 C 211.9375 670.308594 210.289062 671.960938 208.5 673.492188 C 207.910156 674.003906 207.335938 674.53125 206.761719 675.0625 C 205.152344 676.511719 203.453125 677.835938 201.734375 679.148438 L 201.175781 679.578125 C 192.414062 686.273438 182.691406 691.175781 172.105469 694.25 C 170.988281 694.574219 169.875 694.910156 168.761719 695.246094 C 169.851562 696.753906 171.027344 698.160156 172.242188 699.566406 C 173.054688 700.507812 173.855469 701.464844 174.636719 702.433594 C 175.636719 703.664062 176.691406 704.839844 177.765625 706.007812 C 178.265625 706.554688 178.757812 707.109375 179.246094 707.671875 C 180.402344 709.003906 181.601562 710.289062 182.804688 711.578125 C 183.171875 711.980469 183.535156 712.378906 183.898438 712.78125 C 186.28125 715.410156 188.792969 717.914062 191.304688 720.417969 C 191.941406 721.050781 192.570312 721.683594 193.203125 722.316406 C 193.816406 722.929688 194.429688 723.542969 195.042969 724.15625 L 195.722656 724.835938 C 196.855469 725.964844 198.007812 727.054688 199.21875 728.097656 C 199.714844 728.527344 200.195312 728.96875 200.667969 729.421875 L 201.167969 729.898438 L 201.683594 730.386719 C 203.082031 731.710938 204.496094 732.96875 206.003906 734.164062 C 206.953125 734.941406 207.847656 735.773438 208.742188 736.613281 L 209.261719 737.039062 L 209.78125 737.039062 C 212.894531 726.789062 215.84375 716.5 218.605469 706.148438 L 218.75 705.605469 C 223.464844 687.949219 227.816406 670.195312 231.921875 652.382812 C 232.089844 651.667969 232.253906 650.953125 232.421875 650.238281 C 232.679688 649.125 232.933594 648.011719 233.1875 646.898438 C 233.28125 646.492188 233.375 646.082031 233.46875 645.675781 C 233.597656 645.121094 233.726562 644.566406 233.851562 644.011719 L 234.066406 643.074219 C 234.171875 642.34375 234.171875 641.933594 233.921875 641.25 M 454.582031 654.746094 C 452.835938 656.507812 451.320312 658.472656 449.808594 660.429688 C 449.515625 660.8125 449.21875 661.195312 448.921875 661.578125 C 444.867188 666.800781 441.097656 672.175781 437.707031 677.851562 L 437.335938 678.472656 C 435.476562 681.585938 433.757812 684.773438 432.117188 688.007812 C 431.871094 688.488281 431.625 688.96875 431.375 689.449219 C 429.160156 693.707031 427.621094 698.152344 426.078125 702.6875 C 425.648438 703.945312 425.175781 705.1875 424.664062 706.414062 C 420.3125 716.953125 418.898438 729.113281 418.933594 740.414062 L 418.9375 741.292969 C 418.949219 745.894531 419.132812 750.390625 419.796875 754.953125 L 419.921875 755.878906 C 421.527344 767.394531 425.035156 778.433594 429.917969 788.960938 L 430.277344 789.738281 C 432.921875 795.378906 436.15625 800.773438 439.785156 805.835938 L 440.304688 806.613281 C 441.816406 806.886719 443.5 806.542969 445.007812 806.328125 L 445.679688 806.234375 C 446.398438 806.136719 447.113281 806.035156 447.832031 805.929688 L 448.574219 805.828125 C 451.777344 805.371094 454.976562 804.894531 458.164062 804.339844 C 458.53125 804.277344 458.898438 804.214844 459.265625 804.152344 C 459.773438 804.066406 460.28125 803.976562 460.785156 803.886719 L 461.640625 803.734375 C 462.394531 803.539062 462.394531 803.539062 462.957031 803.007812 C 463.566406 802.265625 463.964844 801.460938 464.363281 800.59375 L 464.632812 800.015625 C 467.804688 792.960938 469.703125 785.414062 470.9375 777.796875 L 471.066406 777.015625 C 472.484375 768.058594 472.351562 758.191406 470.9375 749.242188 L 470.785156 748.246094 C 469.210938 738.117188 466.179688 728.464844 462.398438 718.957031 C 457.640625 706.976562 454.453125 694.332031 453.285156 681.488281 L 453.226562 680.902344 C 453.113281 679.625 453.054688 678.355469 453.023438 677.074219 L 453.003906 676.234375 C 452.847656 668.972656 453.507812 661.894531 454.839844 654.746094 Z M 519.222656 684.859375 C 511.714844 705.761719 508.132812 727.441406 511.15625 770.328125 C 512.261719 776.308594 513.6875 782.144531 515.585938 787.921875 C 518.453125 786.871094 521.285156 785.742188 524.089844 784.53125 L 524.679688 784.277344 C 528.257812 782.738281 531.796875 781.128906 535.316406 779.464844 C 536.03125 779.125 536.75 778.792969 537.46875 778.457031 C 540.136719 777.214844 542.75 775.878906 545.347656 774.492188 C 546.1875 774.042969 547.03125 773.597656 547.875 773.148438 C 548.707031 772.710938 549.539062 772.269531 550.375 771.828125 C 549.542969 770.96875 548.660156 770.171875 547.730469 769.425781 C 546.316406 768.277344 544.949219 767.097656 543.625 765.855469 L 543.234375 765.496094 C 534.644531 757.433594 528.867188 745.921875 525.429688 734.796875 C 521.195312 720.652344 519.828125 706.382812 519.59375 691.675781 L 519.5625 689.683594 C 519.53125 688.074219 519.507812 686.46875 519.480469 684.863281 Z M 410.449219 732.628906 C 410.007812 733.128906 409.578125 733.636719 409.152344 734.152344 C 401.726562 743.011719 392.695312 749.363281 381.832031 753.375 L 380.890625 753.71875 L 380.390625 753.902344 C 376.464844 755.332031 372.492188 756.597656 368.507812 757.855469 C 362.871094 759.636719 357.285156 761.472656 351.878906 763.875 L 351.054688 764.242188 C 343.15625 767.792969 335.90625 772.542969 329.453125 778.316406 L 328.722656 778.960938 C 326.980469 780.523438 325.320312 782.167969 323.664062 783.816406 L 322.996094 784.480469 C 321.71875 785.757812 320.5 787.066406 319.332031 788.441406 L 318.957031 788.878906 C 318.121094 789.851562 317.296875 790.832031 316.476562 791.816406 L 315.832031 792.582031 L 315.257812 793.277344 L 314.753906 793.886719 L 314.398438 794.410156 L 314.398438 795.191406 C 338.671875 802.585938 363.660156 807.320312 427.421875 808.171875 L 428.277344 808.113281 L 429.03125 808.058594 L 429.675781 808.007812 L 430.179688 807.910156 L 430.699219 807.390625 L 430.410156 807.015625 C 419.273438 791.820312 413.292969 771.71875 411.179688 753.214844 C 411.101562 752.5 411.03125 751.777344 410.96875 751.058594 L 410.898438 750.324219 C 410.605469 746.773438 410.679688 743.210938 410.691406 739.652344 C 410.695312 738.96875 410.695312 738.289062 410.695312 737.605469 C 410.699219 735.945312 410.703125 734.285156 410.710938 732.628906 Z M 410.449219 732.628906 " fill-opacity="1" fill-rule="nonzero"/></g></svg>