<svg xmlns="http://www.w3.org/2000/svg" xmlns:xlink="http://www.w3.org/1999/xlink" width="1080" zoomAndPan="magnify" viewBox="0 0 810 1012.49997" height="1350" preserveAspectRatio="xMidYMid meet" version="1.0"><path fill="#422b1c" d="M 546.914062 580.871094 C 552.898438 572.3125 555.734375 564.003906 556.832031 560.144531 C 579.339844 543.367188 584.820312 511.5625 568.839844 488.171875 C 568.683594 487.941406 568.507812 487.734375 568.324219 487.535156 C 569.132812 486.03125 569.84375 484.457031 570.4375 482.824219 C 573.675781 473.953125 573.265625 464.351562 569.285156 455.789062 C 565.300781 447.226562 558.222656 440.726562 549.351562 437.488281 C 547.023438 436.636719 544.640625 436.046875 542.246094 435.699219 C 538.554688 414.203125 524.347656 394.761719 502.007812 380.746094 C 487.074219 371.378906 469.824219 365.5 460.132812 366.152344 C 455.269531 358.410156 447.746094 352.925781 438.847656 350.683594 C 427.96875 347.945312 416.984375 350.597656 408.703125 356.9375 C 387.015625 350.253906 357.1875 346.082031 332.535156 361.039062 C 327.484375 364.105469 323.433594 367.515625 320.242188 370.75 C 301.683594 369.136719 286.785156 373.066406 275.941406 382.46875 C 263.878906 392.929688 260.382812 407.207031 259.375 414.183594 C 253.566406 415.820312 248.253906 418.921875 243.894531 423.320312 C 233.679688 433.632812 231.128906 448.695312 236.207031 461.382812 C 230.828125 468.78125 227.167969 480.398438 226.300781 493.175781 C 225.25 508.660156 228.289062 524.074219 234.859375 536.574219 C 241.3125 548.855469 250.835938 558.085938 263.160156 564.011719 C 273.519531 568.992188 285.679688 571.492188 299.453125 571.492188 C 304.089844 571.492188 308.917969 571.203125 313.914062 570.632812 C 322.332031 589.734375 343.15625 603.292969 367.46875 603.292969 C 377.824219 603.292969 388.859375 600.433594 398.542969 595.242188 C 401.289062 593.765625 402.324219 590.34375 400.851562 587.597656 C 399.375 584.847656 395.953125 583.816406 393.207031 585.289062 C 385.132812 589.617188 375.992188 592 367.46875 592 C 341.960938 592 321.210938 573.980469 321.210938 551.828125 C 321.210938 541.234375 325.929688 531.230469 334.503906 523.664062 C 334.523438 523.644531 334.539062 523.625 334.558594 523.609375 C 334.636719 523.535156 334.710938 523.460938 334.785156 523.386719 C 334.839844 523.332031 334.898438 523.273438 334.953125 523.214844 C 335.019531 523.144531 335.082031 523.066406 335.144531 522.988281 C 335.195312 522.925781 335.25 522.859375 335.300781 522.792969 C 335.359375 522.714844 335.410156 522.636719 335.460938 522.554688 C 335.507812 522.484375 335.558594 522.417969 335.601562 522.347656 C 335.683594 522.210938 335.757812 522.074219 335.828125 521.929688 C 335.84375 521.894531 335.863281 521.855469 335.878906 521.820312 C 335.949219 521.675781 336.011719 521.527344 336.066406 521.375 C 336.082031 521.332031 336.09375 521.289062 336.109375 521.246094 C 336.152344 521.117188 336.195312 520.992188 336.226562 520.859375 C 336.246094 520.792969 336.257812 520.722656 336.269531 520.65625 C 336.296875 520.546875 336.320312 520.441406 336.339844 520.328125 C 336.359375 520.207031 336.371094 520.082031 336.382812 519.957031 C 336.386719 519.898438 336.398438 519.84375 336.402344 519.789062 C 336.402344 519.789062 336.402344 519.785156 336.402344 519.785156 C 336.414062 519.601562 336.414062 519.414062 336.40625 519.226562 C 336.40625 519.140625 336.394531 519.058594 336.386719 518.972656 C 336.378906 518.875 336.375 518.777344 336.363281 518.679688 C 336.347656 518.582031 336.328125 518.484375 336.308594 518.386719 C 336.292969 518.304688 336.28125 518.21875 336.261719 518.136719 C 336.238281 518.039062 336.210938 517.949219 336.183594 517.855469 C 336.160156 517.769531 336.136719 517.6875 336.109375 517.601562 C 336.078125 517.515625 336.042969 517.433594 336.007812 517.347656 C 335.972656 517.261719 335.941406 517.171875 335.902344 517.089844 C 335.867188 517.007812 335.824219 516.929688 335.78125 516.847656 C 335.738281 516.765625 335.699219 516.679688 335.648438 516.597656 C 335.597656 516.507812 335.539062 516.421875 335.480469 516.335938 C 335.4375 516.265625 335.398438 516.199219 335.351562 516.132812 C 335.242188 515.984375 335.125 515.835938 335 515.695312 C 334.980469 515.675781 334.960938 515.65625 334.941406 515.636719 C 334.835938 515.519531 334.726562 515.40625 334.613281 515.296875 C 334.550781 515.238281 334.484375 515.1875 334.421875 515.132812 C 334.34375 515.070312 334.269531 515.003906 334.191406 514.941406 C 334.113281 514.882812 334.035156 514.832031 333.957031 514.777344 C 333.882812 514.726562 333.8125 514.675781 333.734375 514.628906 C 333.652344 514.578125 333.570312 514.535156 333.484375 514.488281 C 333.40625 514.445312 333.332031 514.398438 333.25 514.359375 C 333.167969 514.320312 333.082031 514.285156 332.996094 514.25 C 332.914062 514.210938 332.828125 514.171875 332.742188 514.140625 C 332.65625 514.109375 332.566406 514.082031 332.476562 514.054688 C 332.390625 514.027344 332.304688 513.996094 332.21875 513.972656 C 332.113281 513.945312 332.007812 513.925781 331.902344 513.90625 C 331.828125 513.890625 331.753906 513.871094 331.675781 513.859375 C 331.496094 513.828125 331.3125 513.808594 331.128906 513.796875 C 331.125 513.796875 331.125 513.796875 331.125 513.796875 C 331.121094 513.796875 331.117188 513.796875 331.113281 513.796875 C 315.246094 512.777344 303.757812 499.199219 304.457031 488.1875 C 304.65625 485.078125 302.292969 482.394531 299.183594 482.195312 C 296.074219 481.988281 293.386719 484.359375 293.1875 487.46875 C 292.777344 493.9375 294.53125 500.328125 298.210938 506.089844 C 283.183594 511.714844 273.507812 501.890625 273.023438 501.382812 C 270.90625 499.117188 267.351562 498.984375 265.070312 501.089844 C 262.78125 503.207031 262.636719 506.78125 264.753906 509.070312 C 265.195312 509.546875 269.257812 513.8125 276.289062 516.648438 C 279.621094 517.996094 283.957031 519.140625 289.074219 519.140625 C 294.070312 519.140625 299.808594 518.046875 306.074219 514.984375 C 310.167969 518.457031 314.890625 521.152344 319.851562 522.886719 C 313.394531 531.347656 309.917969 541.339844 309.917969 551.832031 C 309.917969 554.484375 310.140625 557.089844 310.578125 559.636719 C 278.929688 562.722656 256.230469 552.96875 244.855469 531.324219 C 234.160156 510.976562 236.453125 485.269531 242.925781 472.078125 C 243.3125 472.5 243.710938 472.917969 244.121094 473.324219 C 245.222656 474.414062 246.660156 474.960938 248.097656 474.960938 C 249.550781 474.960938 251.003906 474.402344 252.105469 473.289062 C 254.300781 471.074219 254.285156 467.5 252.070312 465.304688 C 242.644531 455.964844 242.574219 440.695312 251.914062 431.273438 C 256.4375 426.707031 262.46875 424.175781 268.894531 424.144531 C 275.332031 424.085938 281.378906 426.589844 285.945312 431.117188 C 288.160156 433.308594 291.734375 433.292969 293.929688 431.078125 C 296.125 428.863281 296.109375 425.289062 293.890625 423.09375 C 287.714844 416.976562 279.691406 413.429688 271.082031 412.925781 C 272.347656 407.011719 275.519531 397.734375 283.425781 390.925781 C 290.429688 384.894531 299.929688 381.816406 311.722656 381.699219 C 310.902344 383.09375 310.488281 383.976562 310.429688 384.109375 C 309.128906 386.945312 310.375 390.296875 313.210938 391.597656 C 313.972656 391.945312 314.773438 392.109375 315.558594 392.109375 C 317.699219 392.109375 319.746094 390.886719 320.695312 388.816406 C 320.742188 388.710938 325.730469 378.378906 338.394531 370.695312 C 354.238281 361.082031 375.492188 359.578125 400.230469 366.238281 C 398.324219 369.285156 396.847656 372.667969 395.925781 376.335938 C 395.164062 379.363281 396.996094 382.429688 400.023438 383.191406 C 403.042969 383.953125 406.113281 382.117188 406.875 379.097656 C 410.117188 366.230469 423.222656 358.398438 436.085938 361.640625 C 442.320312 363.207031 447.570312 367.109375 450.867188 372.628906 C 454.164062 378.144531 455.117188 384.617188 453.546875 390.851562 C 452.785156 393.875 454.617188 396.945312 457.640625 397.703125 C 458.105469 397.820312 458.566406 397.875 459.023438 397.875 C 461.550781 397.875 463.851562 396.167969 464.496094 393.609375 C 465.839844 388.28125 465.917969 382.839844 464.804688 377.621094 C 471.511719 378.648438 483.875 382.566406 496.710938 390.765625 C 519.90625 405.574219 528.164062 422.898438 530.800781 435.925781 C 527.90625 436.464844 525.054688 437.367188 522.3125 438.644531 C 519.488281 439.960938 518.261719 443.316406 519.574219 446.144531 C 520.890625 448.972656 524.25 450.199219 527.078125 448.882812 C 532.90625 446.171875 539.441406 445.894531 545.476562 448.097656 C 551.515625 450.300781 556.332031 454.726562 559.042969 460.554688 C 561.753906 466.382812 562.035156 472.917969 559.828125 478.953125 C 557.625 484.992188 553.199219 489.8125 547.371094 492.523438 C 544.542969 493.835938 543.320312 497.195312 544.632812 500.023438 C 545.589844 502.078125 547.628906 503.289062 549.757812 503.289062 C 550.554688 503.289062 551.363281 503.117188 552.132812 502.761719 C 555.414062 501.234375 558.386719 499.253906 560.992188 496.894531 C 571.964844 515.492188 566.769531 539.746094 548.683594 552.101562 C 541.554688 556.972656 533.429688 559.308594 525.382812 559.308594 C 513.316406 559.308594 501.441406 554.039062 493.363281 544.222656 C 501.289062 537.265625 504.917969 526.585938 502.664062 516.078125 C 502.007812 513.03125 499.003906 511.085938 495.957031 511.742188 C 492.910156 512.398438 490.96875 515.402344 491.621094 518.449219 C 493.164062 525.625 490.246094 532.949219 484.191406 537.097656 C 478.703125 540.859375 471.621094 541.292969 465.707031 538.230469 C 462.933594 536.796875 459.527344 537.878906 458.097656 540.648438 C 456.660156 543.417969 457.746094 546.824219 460.515625 548.257812 C 464.769531 550.460938 469.398438 551.550781 474.007812 551.550781 C 477.21875 551.550781 480.417969 551.003906 483.484375 549.953125 C 493.761719 563.386719 509.453125 570.597656 525.398438 570.597656 C 530.835938 570.597656 536.304688 569.75 541.59375 568.035156 C 535.867188 579.023438 523.917969 593.570312 500.398438 595.492188 C 497.289062 595.746094 494.976562 598.472656 495.230469 601.582031 C 495.472656 604.535156 497.941406 606.769531 500.851562 606.769531 C 501.003906 606.769531 501.160156 606.761719 501.316406 606.75 C 504.800781 606.464844 508.066406 605.9375 511.136719 605.226562 C 511.285156 605.367188 511.441406 605.503906 511.609375 605.628906 C 511.855469 605.816406 536.25 624.679688 535.640625 656.265625 C 535.582031 659.382812 538.058594 661.957031 541.175781 662.019531 C 541.214844 662.019531 541.25 662.019531 541.289062 662.019531 C 544.355469 662.019531 546.871094 659.5625 546.929688 656.484375 C 547.472656 628.269531 531.722656 609.125 523.382812 600.992188 C 534.566406 595.691406 542.089844 587.773438 546.914062 580.871094 Z M 546.914062 580.871094 " fill-opacity="1" fill-rule="nonzero"/><path fill="#422b1c" d="M 466.578125 608.460938 C 446.773438 603.273438 441.445312 592.144531 440.128906 588.085938 C 440.3125 588.085938 440.488281 588.09375 440.671875 588.09375 C 446.402344 588.09375 452.65625 587.5 459.414062 586.308594 C 462.484375 585.769531 464.535156 582.839844 463.992188 579.769531 C 463.453125 576.699219 460.523438 574.648438 457.453125 575.1875 C 438.5 578.527344 424.769531 576.757812 416.640625 569.929688 C 407.140625 561.949219 407.152344 548.222656 407.160156 541.628906 L 407.160156 541.136719 C 407.160156 535.589844 409.421875 530.160156 413.363281 526.246094 L 453.152344 486.726562 C 460.046875 479.875 463.792969 470.75 463.691406 461.027344 C 463.589844 451.308594 459.65625 442.257812 452.609375 435.542969 C 438.753906 422.335938 416.230469 422.773438 402.398438 436.511719 L 401.996094 436.910156 L 401.425781 436.335938 C 394.578125 429.4375 385.472656 425.679688 375.730469 425.792969 C 366.011719 425.894531 356.960938 429.828125 350.246094 436.875 C 337.039062 450.726562 337.472656 473.253906 351.210938 487.089844 L 382.195312 518.246094 C 384.394531 520.457031 387.96875 520.46875 390.179688 518.265625 C 392.390625 516.066406 392.402344 512.492188 390.203125 510.28125 L 359.222656 479.128906 C 349.75 469.597656 349.390625 454.136719 358.417969 444.667969 C 363.011719 439.847656 369.199219 437.15625 375.84375 437.085938 C 382.488281 436.996094 388.730469 439.578125 393.414062 444.292969 L 397.960938 448.871094 C 400.160156 451.085938 403.734375 451.097656 405.945312 448.898438 L 410.355469 444.523438 C 419.886719 435.054688 435.347656 434.691406 444.816406 443.71875 C 449.636719 448.3125 452.328125 454.5 452.398438 461.144531 C 452.46875 467.792969 449.910156 474.03125 445.195312 478.714844 L 405.40625 518.234375 C 399.34375 524.253906 395.867188 532.601562 395.867188 541.136719 L 395.867188 541.617188 C 395.859375 549.277344 395.84375 567.207031 409.378906 578.574219 C 415.328125 583.574219 423.109375 586.597656 432.628906 587.660156 L 428.5625 588.234375 C 428.695312 589.164062 432.148438 611.113281 463.71875 619.382812 C 492.230469 626.851562 512.832031 643.285156 516.199219 661.25 C 516.707031 663.960938 519.078125 665.855469 521.742188 665.855469 C 522.085938 665.855469 522.4375 665.824219 522.789062 665.757812 C 525.855469 665.183594 527.871094 662.234375 527.296875 659.167969 C 523.128906 636.933594 499.292969 617.027344 466.578125 608.460938 Z M 466.578125 608.460938 " fill-opacity="1" fill-rule="nonzero"/></svg>