<?xml version="1.0" encoding="utf-8"?>
<!-- Generator: Adobe Illustrator 27.7.0, SVG Export Plug-In . SVG Version: 6.00 Build 0)  -->
<svg version="1.1" id="Layer_1" xmlns="http://www.w3.org/2000/svg" xmlns:xlink="http://www.w3.org/1999/xlink" x="0px" y="0px"
	 viewBox="0 0 516.13 297.74" style="enable-background:new 0 0 516.13 297.74;" xml:space="preserve">
<style type="text/css">
	.st0{fill:url(#SVGID_1_);}
	.st1{fill:#FFFFFF;}
	.st2{fill:#094449;}
</style>
<g>
	<linearGradient id="SVGID_1_" gradientUnits="userSpaceOnUse" x1="13.6805" y1="221.4635" x2="500.9819" y2="221.4635">
		<stop  offset="0" style="stop-color:#80BA27"/>
		<stop  offset="1" style="stop-color:#425F26"/>
	</linearGradient>
	<path class="st0" d="M13.68,289.24l487.29,0.06l0.01-73.61c0-34.24-27.75-62.01-62-62.01L13.7,153.63L13.68,289.24z"/>
	<g>
		<g>
			<path class="st1" d="M98.17,186.71l-0.01,72.96l-14.52,0l-27.41-41.44c-0.37-0.6-1.08-1.71-2.15-3.32
				c-1.06-1.61-2.02-3.15-2.86-4.62c-0.84-1.46-1.6-2.95-2.25-4.45l-0.01,53.82l-12.84,0l0.01-72.96l14.07,0l28.74,43.46
				c0.37,0.53,1.03,1.52,1.98,2.98c0.95,1.46,1.8,2.81,2.53,4.05c0.73,1.24,1.36,2.46,1.87,3.66l0.01-54.16L98.17,186.71z"/>
			<path class="st1" d="M159.09,186.72l26.9,72.18v0.79l-13.51,0l-6.87-19.37l-29.27,0l-6.76,19.37l-13.17,0v-0.79l26.81-72.17
				L159.09,186.72z M139.94,229.95l21.96,0l-11.03-31.3L139.94,229.95z"/>
			<path class="st1" d="M252.26,225.29c2.21,1.84,3.83,3.92,4.84,6.25c1.01,2.33,1.52,4.77,1.52,7.32c0,4.2-1.03,7.86-3.1,10.98
				c-2.07,3.12-5.12,5.54-9.18,7.26c-4.05,1.73-8.97,2.59-14.75,2.59l-27.36,0l0.01-72.96l26.01,0c5.4,0,10.02,0.81,13.85,2.42
				c3.83,1.62,6.74,3.85,8.73,6.7c1.99,2.85,2.98,6.16,2.98,9.91c0,3.45-0.98,6.55-2.93,9.29c-1.95,2.74-4.95,4.82-9.01,6.25
				C247.25,222.12,250.04,223.46,252.26,225.29z M242.01,246.18c2.21-2.03,3.32-4.62,3.32-7.77c0-3.38-1.16-6.06-3.49-8.05
				c-2.33-1.99-5.82-2.98-10.47-2.99l-14.3,0l0,21.84l14.07,0C236.17,249.22,239.79,248.21,242.01,246.18z M217.07,197.08l0,20.27
				l11.7,0c4.24,0,7.67-0.82,10.28-2.48c2.61-1.65,3.92-4.35,3.92-8.11c0-2.93-1.1-5.27-3.29-7.04c-2.2-1.76-5.3-2.65-9.31-2.65
				L217.07,197.08z"/>
			<path class="st1" d="M279.89,259.69l0.01-72.96l12.84,0l-0.01,72.96L279.89,259.69z"/>
			<path class="st1" d="M369.98,195.24c6.76,5.67,10.13,15,10.13,27.98c0,8.18-1.75,14.99-5.24,20.44
				c-3.49,5.44-8.28,9.48-14.36,12.1c-6.08,2.63-12.99,3.94-20.72,3.94l-21.73,0l0.01-72.96l22.97,0
				C353.58,186.74,363.22,189.58,369.98,195.24z M353.88,246.64c4.14-1.42,7.34-4,9.58-7.71c2.24-3.72,3.37-8.95,3.37-15.71
				c0-9.01-2.07-15.52-6.21-19.54c-4.14-4.02-10.55-6.02-19.21-6.03l-10.49,0l0,51.12l7.07,0
				C344.43,248.78,349.73,248.07,353.88,246.64z"/>
			<path class="st1" d="M451.27,186.75l12.84,0l-0.01,72.96l-12.84,0l0-31.64l-37.16,0l0,31.64l-12.84,0l0.01-72.96l12.84,0l0,30.4
				l37.16,0L451.27,186.75z"/>
		</g>
	</g>
	<g>
		<path class="st2" d="M202.11,90.3c0.8,0.76,1.2,1.85,1.2,3.27c0,2.49-0.62,4.58-1.87,6.27c-1.25,1.69-3.43,2.54-6.54,2.53
			c-3.12,0-6.36-0.47-9.74-1.4c-3.38-0.93-6.36-2.29-8.94-4.07c-3.2,2.22-7.28,3.69-12.26,4.4c-4.97,0.71-12.17,1.07-21.58,1.07
			l-9.59,0c-5.59,0-9.88-0.07-12.85-0.2c-2.98-0.13-5.57-0.42-7.79-0.87c-2.22-0.44-4.13-1.2-5.73-2.27
			c-1.25,6.41-3.72,11.7-7.42,15.88c-3.7,4.18-8.31,7.27-13.84,9.27c-5.53,2-11.68,3-18.45,3c-6.78,0-12.57-1.16-17.38-3.47
			c-4.81-2.32-8.45-5.54-10.9-9.68c-2.45-4.14-3.68-8.97-3.68-14.48c0-5.34,0.78-10.5,2.34-15.48l10.34-3.74l1.2,0.53
			c-0.8,4.63-1.2,8.77-1.2,12.41c0,6.67,1.65,11.79,4.96,15.35c3.31,3.56,9.02,5.34,17.14,5.34c11.03,0,19.06-3.25,24.09-9.74
			c0.71-2.4,1.06-4.67,1.06-6.81c0-3.38-0.62-6.87-1.87-10.48c-1.25-3.6-3.16-8.3-5.74-14.08l11.61-8.27h0.8l1.47,4.14
			c2.13,6.5,3.82,11.08,5.07,13.75c1.16,2.23,2.56,3.8,4.2,4.74c1.65,0.93,4.2,1.54,7.67,1.8c8.1-7.92,14.88-14.23,20.36-18.95
			c5.47-4.71,10.5-8.34,15.08-10.88c4.58-2.54,8.79-3.8,12.61-3.8c3.82,0,7.25,1.09,10.28,3.27c3.02,2.18,5.4,4.98,7.14,8.41
			c1.73,3.43,2.6,6.96,2.6,10.61c0,3.29-0.62,6.32-1.87,9.08c4,1.6,8.63,2.4,13.88,2.4C199.93,89.16,201.31,89.54,202.11,90.3z
			 M158.56,88.96c3.66-0.13,6.54-0.35,8.66-0.67c2.11-0.31,3.88-0.82,5.29-1.53c0.53-0.89,0.95-1.94,1.26-3.14
			c0.31-1.2,0.46-2.47,0.46-3.8c0-1.78-0.44-3.58-1.32-5.41c-0.88-1.82-2.09-3.34-3.64-4.54c-1.54-1.2-3.28-1.8-5.22-1.8
			c-3.44,0-7.76,1.8-12.96,5.4c-5.2,3.6-11.41,8.83-18.64,15.68l10.71,0C149.76,89.16,154.9,89.09,158.56,88.96z M165.28,41.38
			l-12.41-8.68l7.74-11.48l12.41,8.54L165.28,41.38z"/>
		<path class="st2" d="M197.84,89.3l10.68,0c2.05,0,3.47,0.36,4.27,1.07c0.8,0.71,1.2,1.78,1.2,3.2c0,2.49-0.62,4.58-1.87,6.27
			c-1.25,1.69-3.43,2.54-6.54,2.54l-10.68,0L197.84,89.3z"/>
		<path class="st2" d="M208.52,89.3l10.68,0c2.05,0,3.47,0.36,4.27,1.07c0.8,0.71,1.2,1.78,1.2,3.2c0,2.49-0.62,4.58-1.87,6.27
			c-1.25,1.69-3.43,2.54-6.54,2.54l-10.68,0L208.52,89.3z"/>
		<path class="st2" d="M219.2,89.3l10.68,0c2.05,0,3.47,0.36,4.27,1.07c0.8,0.71,1.2,1.78,1.2,3.2c0,2.49-0.62,4.58-1.87,6.27
			c-1.25,1.69-3.43,2.54-6.54,2.53l-10.68,0L219.2,89.3z"/>
		<path class="st2" d="M229.88,89.3l10.68,0c2.05,0,3.47,0.36,4.27,1.07c0.8,0.71,1.2,1.78,1.2,3.2c0,2.49-0.62,4.58-1.87,6.27
			c-1.25,1.69-3.43,2.54-6.54,2.54l-10.68,0L229.88,89.3z"/>
		<path class="st2" d="M240.55,89.3l10.68,0c2.05,0,3.47,0.36,4.27,1.07c0.8,0.71,1.2,1.78,1.2,3.2c0,2.49-0.62,4.58-1.87,6.27
			c-1.25,1.69-3.43,2.54-6.54,2.53l-10.68,0L240.55,89.3z"/>
		<path class="st2" d="M251.23,89.3l10.68,0c2.05,0,3.47,0.36,4.27,1.07c0.8,0.71,1.2,1.78,1.2,3.2c0,2.49-0.62,4.58-1.87,6.27
			c-1.25,1.69-3.43,2.54-6.54,2.54l-10.68,0L251.23,89.3z"/>
		<path class="st2" d="M261.91,89.3l10.68,0c2.05,0,3.47,0.36,4.27,1.07c0.8,0.71,1.2,1.78,1.2,3.2c0,2.49-0.62,4.58-1.87,6.27
			c-1.25,1.69-3.43,2.54-6.54,2.53l-10.68,0L261.91,89.3z"/>
		<path class="st2" d="M272.58,89.3l10.68,0c2.05,0,3.47,0.36,4.27,1.07c0.8,0.71,1.2,1.78,1.2,3.2c0,2.49-0.62,4.58-1.87,6.27
			c-1.25,1.69-3.43,2.54-6.54,2.53l-10.68,0L272.58,89.3z"/>
		<path class="st2" d="M283.26,89.31l10.68,0c2.05,0,3.47,0.36,4.27,1.07c0.8,0.71,1.2,1.78,1.2,3.2c0,2.49-0.62,4.58-1.87,6.27
			c-1.25,1.69-3.43,2.54-6.54,2.54l-10.68,0L283.26,89.31z"/>
		<path class="st2" d="M294.14,89.17h1.23c7.27,0,11.91-0.44,13.91-1.33c0.27-0.98,0.41-2.05,0.41-3.2c0-2.67-0.62-5.69-1.87-9.08
			c-1.25-3.38-3.03-7.47-5.34-12.28l10.82-8.54h1.29c2.15,4.54,3.83,9.17,5.03,13.88c1.21,4.72,1.81,8.59,1.81,11.61
			c0,3.2-0.58,6.3-1.74,9.28c-1.16,2.98-2.8,5.54-4.94,7.67c-2.05,1.96-4.67,3.32-7.88,4.07c-3.2,0.76-8.01,1.13-14.41,1.13H291
			L294.14,89.17z M311.95,132.42l-12.41-8.68l7.74-11.34l12.41,8.41L311.95,132.42z"/>
		<path class="st2" d="M343.79,96.79c-4.23-3.74-6.34-9.96-6.34-18.69l0.01-64.2l11.66-3.2l1.02,0.67l-0.01,65.53
			c0,3.29,0.48,5.81,1.44,7.54c0.96,1.74,2.51,2.96,4.66,3.67c2.15,0.71,5.09,1.07,8.84,1.07c2.01,0,3.43,0.38,4.25,1.13
			c0.82,0.76,1.23,1.85,1.23,3.27c0,2.58-0.65,4.69-1.94,6.34c-1.29,1.65-3.45,2.47-6.47,2.47
			C354.13,102.39,348.01,100.52,343.79,96.79z"/>
		<path class="st2" d="M365.07,89.31l10.68,0c2.05,0,3.47,0.36,4.27,1.07c0.8,0.71,1.2,1.78,1.2,3.2c0,2.49-0.62,4.58-1.87,6.27
			c-1.25,1.69-3.43,2.54-6.54,2.53l-10.68,0L365.07,89.31z"/>
		<path class="st2" d="M375.75,89.32l10.68,0c2.05,0,3.47,0.36,4.27,1.07c0.8,0.71,1.2,1.78,1.2,3.2c0,2.49-0.62,4.58-1.87,6.27
			c-1.25,1.69-3.43,2.54-6.54,2.54l-10.68,0L375.75,89.32z"/>
		<path class="st2" d="M386.43,89.32l10.68,0c2.05,0,3.47,0.36,4.27,1.07c0.8,0.71,1.2,1.78,1.2,3.2c0,2.49-0.62,4.58-1.87,6.27
			c-1.25,1.69-3.43,2.54-6.54,2.53l-10.68,0L386.43,89.32z"/>
		<path class="st2" d="M397.11,89.32l10.68,0c2.05,0,3.47,0.36,4.27,1.07c0.8,0.71,1.2,1.78,1.2,3.2c0,2.49-0.62,4.58-1.87,6.27
			c-1.25,1.69-3.43,2.54-6.54,2.53l-10.68,0L397.11,89.32z"/>
		<path class="st2" d="M407.78,89.32l10.68,0c2.05,0,3.47,0.36,4.27,1.07c0.8,0.71,1.2,1.78,1.2,3.2c0,2.49-0.62,4.58-1.87,6.27
			c-1.25,1.69-3.43,2.54-6.54,2.54l-10.68,0L407.78,89.32z"/>
		<path class="st2" d="M418.46,89.32l10.68,0c2.05,0,3.47,0.36,4.27,1.07c0.8,0.71,1.2,1.78,1.2,3.2c0,2.49-0.62,4.58-1.87,6.27
			c-1.25,1.69-3.43,2.54-6.54,2.53l-10.68,0L418.46,89.32z"/>
		<path class="st2" d="M429.14,89.32l10.68,0c2.05,0,3.47,0.36,4.27,1.07c0.8,0.71,1.2,1.78,1.2,3.2c0,2.49-0.62,4.58-1.87,6.27
			c-1.25,1.69-3.43,2.54-6.54,2.54l-10.68,0L429.14,89.32z"/>
		<path class="st2" d="M440.01,89.19l1.23,0c7.27,0,11.91-0.44,13.91-1.33c0.27-0.98,0.41-2.05,0.41-3.2c0-2.67-0.62-5.69-1.87-9.08
			c-1.25-3.38-3.03-7.47-5.34-12.28l10.82-8.54h1.29c2.15,4.54,3.83,9.17,5.03,13.88c1.21,4.72,1.81,8.59,1.81,11.61
			c0,3.2-0.58,6.3-1.74,9.28c-1.16,2.98-2.8,5.54-4.94,7.67c-2.05,1.96-4.67,3.32-7.88,4.07c-3.2,0.76-8.01,1.13-14.41,1.13h-1.47
			L440.01,89.19z M456.9,41.81l-12.41-8.68l7.74-11.48l12.41,8.54L456.9,41.81z"/>
	</g>
</g>
</svg>
