<svg xmlns="http://www.w3.org/2000/svg" xmlns:xlink="http://www.w3.org/1999/xlink" width="1080" zoomAndPan="magnify" viewBox="0 0 810 1012.49997" height="1350" preserveAspectRatio="xMidYMid meet" version="1.0"><defs><clipPath id="20a3a294bf"><path d="M 318 314.445312 L 406 314.445312 L 406 696 L 318 696 Z M 318 314.445312 " clip-rule="nonzero"/></clipPath><clipPath id="b7d02c48cf"><path d="M 224.21875 318 L 313 318 L 313 697.503906 L 224.21875 697.503906 Z M 224.21875 318 " clip-rule="nonzero"/></clipPath><clipPath id="71cda2d87c"><path d="M 390 361 L 585.542969 361 L 585.542969 679 L 390 679 Z M 390 361 " clip-rule="nonzero"/></clipPath></defs><g clip-path="url(#20a3a294bf)"><path fill="#422b1c" d="M 362.148438 695.738281 L 361.9375 695.730469 C 359.324219 695.648438 355.386719 694.664062 351.476562 690.464844 C 342.125 680.417969 336.375 654.394531 337.066406 637.328125 C 337.652344 629.246094 339.316406 600.289062 341.421875 563.636719 L 342.804688 539.628906 C 342.984375 537.007812 347.0625 476.777344 347.800781 469.273438 C 348.78125 459.050781 345.179688 449.132812 338.171875 442.769531 C 325.644531 431.355469 318.164062 411.863281 318.164062 390.621094 C 318.164062 359.597656 335.257812 314.515625 362.046875 314.492188 C 388.84375 314.515625 405.933594 359.597656 405.933594 390.621094 C 405.933594 411.820312 398.492188 431.273438 386.035156 442.664062 C 379.074219 449.042969 375.484375 458.964844 376.449219 469.191406 C 377.128906 476.410156 381.351562 538.878906 381.535156 541.535156 L 382.585938 559.753906 C 384.730469 596.886719 386.582031 628.960938 387.171875 637.128906 C 387.875 654.394531 382.136719 680.410156 372.800781 690.460938 C 368.898438 694.664062 364.96875 695.644531 362.359375 695.734375 Z M 362.046875 327.664062 C 347.417969 327.675781 331.34375 360.625 331.34375 390.617188 C 331.34375 407.953125 337.355469 424.199219 347.042969 433.015625 C 357.101562 442.152344 362.289062 456.1875 360.914062 470.542969 C 360.195312 477.867188 355.992188 539.828125 355.953125 540.449219 L 354.574219 564.386719 C 352.464844 601.09375 350.796875 630.09375 350.21875 638.066406 C 349.476562 656.53125 357.324219 680.148438 362.175781 682.453125 C 366.902344 680.242188 374.769531 656.554688 374.011719 637.855469 C 373.433594 629.800781 371.667969 599.222656 369.429688 560.507812 L 368.382812 542.347656 C 368.339844 541.761719 363.992188 477.46875 363.332031 470.417969 C 361.984375 456.105469 367.144531 442.097656 377.136719 432.933594 C 386.777344 424.125 392.757812 407.910156 392.757812 390.613281 C 392.761719 360.625 376.6875 327.679688 362.046875 327.664062 Z M 362.046875 327.664062 " fill-opacity="1" fill-rule="nonzero"/></g><g clip-path="url(#b7d02c48cf)"><path fill="#422b1c" d="M 268.300781 697.507812 L 268.089844 697.503906 C 265.476562 697.417969 261.535156 696.429688 257.625 692.222656 C 248.257812 682.136719 242.507812 656.058594 243.207031 638.957031 C 243.761719 630.949219 245.417969 602.375 247.507812 566.207031 L 249.355469 534.265625 C 250.222656 520.449219 251.597656 501.714844 253.445312 478.5625 C 254.558594 464.648438 249.992188 450.976562 240.921875 441.058594 C 230.316406 429.453125 224.234375 411.425781 224.234375 391.582031 C 224.234375 388.917969 226.382812 325.585938 226.40625 325.175781 C 226.597656 321.539062 229.75 318.789062 233.332031 318.945312 C 236.964844 319.136719 239.753906 322.242188 239.5625 325.871094 C 239.421875 328.675781 237.429688 389.496094 237.410156 391.601562 C 237.410156 407.925781 242.355469 423.097656 250.644531 432.164062 C 262.171875 444.777344 267.980469 462.066406 266.578125 479.617188 C 264.734375 502.695312 263.363281 521.347656 262.507812 535.0625 L 260.660156 566.96875 C 258.5625 603.1875 256.910156 631.792969 256.359375 639.6875 C 255.597656 658.246094 263.46875 681.9375 268.339844 684.238281 C 273.097656 682.035156 281.003906 658.277344 280.230469 639.5 C 279.691406 631.792969 278.042969 603.1875 275.941406 566.96875 L 274.09375 535.03125 C 273.246094 521.449219 271.746094 502.902344 269.640625 479.945312 C 268.03125 462.445312 273.90625 444.828125 285.757812 431.601562 C 294.0625 422.335938 299.019531 407.371094 299.019531 391.585938 C 298.984375 389.171875 296.21875 329.269531 296.042969 325.875 C 295.847656 322.242188 298.636719 319.136719 302.269531 318.949219 C 305.875 318.796875 309.007812 321.546875 309.195312 325.179688 C 309.226562 325.746094 312.195312 389.355469 312.195312 391.585938 C 312.195312 410.816406 306.136719 428.609375 295.566406 440.398438 C 286.15625 450.90625 281.484375 464.878906 282.761719 478.746094 C 284.878906 501.828125 286.386719 520.5 287.246094 534.242188 L 289.097656 566.210938 C 291.1875 602.382812 292.84375 630.953125 293.386719 638.777344 C 294.097656 656.0625 288.347656 682.144531 278.980469 692.226562 C 275.066406 696.433594 271.128906 697.421875 268.515625 697.507812 Z M 268.300781 697.507812 " fill-opacity="1" fill-rule="nonzero"/></g><path fill="#422b1c" d="M 281.511719 398.566406 C 277.910156 398.566406 274.964844 395.664062 274.925781 392.050781 L 274.191406 325.457031 C 274.148438 321.820312 277.070312 318.835938 280.707031 318.792969 C 284.398438 318.773438 287.328125 321.671875 287.367188 325.308594 L 288.097656 391.902344 C 288.140625 395.542969 285.21875 398.523438 281.582031 398.566406 C 281.5625 398.566406 281.539062 398.566406 281.511719 398.566406 Z M 281.511719 398.566406 " fill-opacity="1" fill-rule="nonzero"/><path fill="#422b1c" d="M 253.039062 398.566406 C 252.96875 398.566406 252.894531 398.566406 252.824219 398.5625 C 249.1875 398.441406 246.335938 395.398438 246.453125 391.765625 L 248.613281 325.171875 C 248.730469 321.535156 251.84375 318.722656 255.414062 318.796875 C 259.050781 318.914062 261.902344 321.960938 261.785156 325.59375 L 259.625 392.1875 C 259.507812 395.75 256.582031 398.566406 253.039062 398.566406 Z M 253.039062 398.566406 " fill-opacity="1" fill-rule="nonzero"/><path fill="#422b1c" d="M 423.523438 648.945312 C 419.886719 648.945312 416.9375 645.996094 416.9375 642.359375 L 416.9375 622.777344 C 416.9375 619.140625 419.886719 616.1875 423.523438 616.1875 C 427.164062 616.1875 430.113281 619.140625 430.113281 622.777344 L 430.113281 642.359375 C 430.113281 645.996094 427.164062 648.945312 423.523438 648.945312 Z M 423.523438 648.945312 " fill-opacity="1" fill-rule="nonzero"/><path fill="#422b1c" d="M 423.523438 424.265625 C 419.886719 424.265625 416.9375 421.3125 416.9375 417.675781 L 416.9375 398.097656 C 416.9375 394.460938 419.886719 391.511719 423.523438 391.511719 C 427.164062 391.511719 430.113281 394.460938 430.113281 398.097656 L 430.113281 417.675781 C 430.113281 421.3125 427.164062 424.265625 423.523438 424.265625 Z M 423.523438 424.265625 " fill-opacity="1" fill-rule="nonzero"/><path fill="#422b1c" d="M 498.292969 448.863281 C 496.605469 448.863281 494.921875 448.222656 493.632812 446.933594 C 491.058594 444.359375 491.058594 440.191406 493.632812 437.617188 L 507.480469 423.773438 C 510.054688 421.199219 514.226562 421.199219 516.796875 423.773438 C 519.371094 426.347656 519.371094 430.515625 516.796875 433.089844 L 502.953125 446.933594 C 501.664062 448.222656 499.980469 448.863281 498.292969 448.863281 Z M 498.292969 448.863281 " fill-opacity="1" fill-rule="nonzero"/><path fill="#422b1c" d="M 548.839844 523.628906 L 529.261719 523.628906 C 525.625 523.628906 522.675781 520.679688 522.675781 517.042969 C 522.675781 513.40625 525.625 510.457031 529.261719 510.457031 L 548.839844 510.457031 C 552.480469 510.457031 555.429688 513.40625 555.429688 517.042969 C 555.429688 520.679688 552.480469 523.628906 548.839844 523.628906 Z M 548.839844 523.628906 " fill-opacity="1" fill-rule="nonzero"/><path fill="#422b1c" d="M 512.136719 612.246094 C 510.449219 612.246094 508.765625 611.601562 507.476562 610.316406 L 493.628906 596.46875 C 491.054688 593.894531 491.054688 589.726562 493.628906 587.152344 C 496.203125 584.578125 500.378906 584.578125 502.949219 587.152344 L 516.792969 601 C 519.367188 603.574219 519.367188 607.742188 516.792969 610.316406 C 515.507812 611.597656 513.820312 612.246094 512.136719 612.246094 Z M 512.136719 612.246094 " fill-opacity="1" fill-rule="nonzero"/><g clip-path="url(#71cda2d87c)"><path fill="#422b1c" d="M 427.269531 678.738281 C 416.542969 678.738281 405.855469 677.660156 395.511719 675.535156 C 391.949219 674.800781 389.652344 671.320312 390.382812 667.753906 C 391.117188 664.1875 394.597656 661.890625 398.164062 662.625 C 407.640625 664.574219 417.429688 665.5625 427.269531 665.5625 C 507.417969 665.5625 572.621094 600.367188 572.621094 520.238281 C 572.621094 440.09375 507.417969 374.886719 427.269531 374.886719 C 423.382812 374.886719 419.351562 375.054688 415.285156 375.386719 C 411.691406 375.699219 408.480469 372.984375 408.183594 369.351562 C 407.886719 365.726562 410.585938 362.550781 414.210938 362.253906 C 418.632812 361.894531 423.019531 361.710938 427.265625 361.710938 C 514.679688 361.710938 585.792969 432.824219 585.792969 520.238281 C 585.796875 607.636719 514.683594 678.738281 427.269531 678.738281 Z M 427.269531 678.738281 " fill-opacity="1" fill-rule="nonzero"/></g><path fill="#422b1c" d="M 447.023438 586.304688 C 444.355469 586.304688 441.84375 584.671875 440.851562 582.027344 L 418.296875 521.863281 C 416.621094 517.398438 418.507812 512.289062 422.675781 509.980469 L 487.167969 474.21875 C 490.351562 472.453125 494.363281 473.605469 496.125 476.789062 C 497.890625 479.96875 496.738281 483.980469 493.558594 485.742188 L 431.691406 520.050781 L 453.191406 577.398438 C 454.46875 580.804688 452.746094 584.605469 449.335938 585.882812 C 448.570312 586.164062 447.789062 586.304688 447.023438 586.304688 Z M 447.023438 586.304688 " fill-opacity="1" fill-rule="nonzero"/></svg>