<svg xmlns="http://www.w3.org/2000/svg" xmlns:xlink="http://www.w3.org/1999/xlink" width="1080" zoomAndPan="magnify" viewBox="0 0 810 1012.49997" height="1350" preserveAspectRatio="xMidYMid meet" version="1.2"><defs><clipPath id="c2516eb87d"><path d="M 175.25 276.25 L 634.773438 276.25 L 634.773438 735.773438 L 175.25 735.773438 Z M 175.25 276.25 "/></clipPath><clipPath id="37b5accbd6"><path d="M 0.199219 0 L 108 0 L 108 17 L 0.199219 17 Z M 0.199219 0 "/></clipPath><clipPath id="9b4cf4fd51"><path d="M -198.101562 16.757812 L 107.367188 16.796875 L 107.375 -29.351562 C 107.375 -50.816406 89.980469 -68.226562 68.507812 -68.226562 L -198.089844 -68.257812 Z M -198.101562 16.757812 "/></clipPath><linearGradient x1="330.012643" gradientTransform="matrix(0.626876,0,0,0.626915,-206.677149,-164.571065)" y1="221.464" x2="500.980002" gradientUnits="userSpaceOnUse" y2="221.464" id="b01ac43d8b"><stop style="stop-color:#587f26;stop-opacity:1;" offset="0"/><stop style="stop-color:#577e26;stop-opacity:1;" offset="0.03125"/><stop style="stop-color:#577d26;stop-opacity:1;" offset="0.0625"/><stop style="stop-color:#567c26;stop-opacity:1;" offset="0.09375"/><stop style="stop-color:#557b26;stop-opacity:1;" offset="0.125"/><stop style="stop-color:#557a26;stop-opacity:1;" offset="0.15625"/><stop style="stop-color:#547926;stop-opacity:1;" offset="0.1875"/><stop style="stop-color:#537826;stop-opacity:1;" offset="0.21875"/><stop style="stop-color:#537726;stop-opacity:1;" offset="0.25"/><stop style="stop-color:#527726;stop-opacity:1;" offset="0.28125"/><stop style="stop-color:#517626;stop-opacity:1;" offset="0.3125"/><stop style="stop-color:#517526;stop-opacity:1;" offset="0.34375"/><stop style="stop-color:#507426;stop-opacity:1;" offset="0.375"/><stop style="stop-color:#4f7326;stop-opacity:1;" offset="0.40625"/><stop style="stop-color:#4f7226;stop-opacity:1;" offset="0.4375"/><stop style="stop-color:#4e7126;stop-opacity:1;" offset="0.46875"/><stop style="stop-color:#4d7026;stop-opacity:1;" offset="0.5"/><stop style="stop-color:#4d6f26;stop-opacity:1;" offset="0.53125"/><stop style="stop-color:#4c6e26;stop-opacity:1;" offset="0.5625"/><stop style="stop-color:#4b6d26;stop-opacity:1;" offset="0.59375"/><stop style="stop-color:#4b6c26;stop-opacity:1;" offset="0.625"/><stop style="stop-color:#4a6b26;stop-opacity:1;" offset="0.65625"/><stop style="stop-color:#496a26;stop-opacity:1;" offset="0.6875"/><stop style="stop-color:#486926;stop-opacity:1;" offset="0.71875"/><stop style="stop-color:#486826;stop-opacity:1;" offset="0.75"/><stop style="stop-color:#476726;stop-opacity:1;" offset="0.78125"/><stop style="stop-color:#466626;stop-opacity:1;" offset="0.8125"/><stop style="stop-color:#466526;stop-opacity:1;" offset="0.84375"/><stop style="stop-color:#456426;stop-opacity:1;" offset="0.875"/><stop style="stop-color:#446326;stop-opacity:1;" offset="0.90625"/><stop style="stop-color:#446226;stop-opacity:1;" offset="0.9375"/><stop style="stop-color:#436126;stop-opacity:1;" offset="0.96875"/><stop style="stop-color:#426026;stop-opacity:1;" offset="1"/></linearGradient></defs><g id="10bf1e413c"><path style=" stroke:none;fill-rule:nonzero;fill:#000000;fill-opacity:1;" d="M 339.46875 487.359375 C 338.574219 487.359375 337.679688 487.332031 336.785156 487.28125 C 335.890625 487.230469 335 487.152344 334.109375 487.050781 C 333.21875 486.945312 332.332031 486.820312 331.453125 486.664062 C 330.570312 486.511719 329.691406 486.332031 328.820312 486.128906 C 327.949219 485.925781 327.082031 485.695312 326.222656 485.441406 C 325.367188 485.191406 324.515625 484.910156 323.671875 484.609375 C 322.828125 484.308594 321.996094 483.980469 321.171875 483.632812 C 320.347656 483.28125 319.53125 482.910156 318.730469 482.511719 C 317.925781 482.117188 317.136719 481.695312 316.355469 481.253906 C 315.578125 480.8125 314.8125 480.347656 314.0625 479.863281 C 313.308594 479.378906 312.570312 478.871094 311.847656 478.34375 C 311.125 477.816406 310.417969 477.265625 309.722656 476.699219 C 309.03125 476.128906 308.359375 475.542969 307.699219 474.933594 C 307.042969 474.328125 306.402344 473.703125 305.777344 473.058594 C 305.15625 472.414062 304.550781 471.753906 303.96875 471.074219 C 303.382812 470.398438 302.820312 469.703125 302.273438 468.992188 C 301.730469 468.28125 301.207031 467.554688 300.703125 466.8125 C 300.199219 466.074219 299.71875 465.320312 299.257812 464.550781 C 298.796875 463.78125 298.359375 463 297.945312 462.207031 C 297.53125 461.414062 297.136719 460.609375 296.769531 459.792969 C 296.398438 458.976562 296.054688 458.152344 295.730469 457.316406 C 295.410156 456.480469 295.113281 455.636719 294.839844 454.785156 C 294.566406 453.933594 294.316406 453.070312 294.09375 452.203125 C 293.867188 451.339844 293.667969 450.464844 293.496094 449.585938 C 293.320312 448.707031 293.171875 447.824219 293.046875 446.9375 C 292.925781 446.050781 292.828125 445.164062 292.753906 444.269531 C 292.679688 443.378906 292.632812 442.484375 292.613281 441.589844 C 292.589844 440.691406 292.59375 439.796875 292.625 438.902344 C 292.65625 438.007812 292.710938 437.113281 292.792969 436.222656 C 292.871094 435.332031 292.980469 434.441406 293.109375 433.558594 C 293.242188 432.671875 293.398438 431.789062 293.582031 430.914062 C 293.765625 430.035156 293.972656 429.164062 294.203125 428.300781 C 294.4375 427.4375 294.691406 426.578125 294.972656 425.726562 C 295.253906 424.878906 295.5625 424.035156 295.890625 423.203125 C 296.21875 422.371094 296.574219 421.550781 296.949219 420.738281 C 297.328125 419.925781 297.726562 419.125 298.148438 418.332031 C 298.570312 417.542969 299.015625 416.769531 299.484375 416.003906 C 299.949219 415.238281 300.4375 414.488281 300.949219 413.753906 C 301.457031 413.015625 301.988281 412.296875 302.539062 411.589844 C 303.09375 410.886719 303.664062 410.195312 304.253906 409.523438 C 304.84375 408.851562 305.453125 408.195312 306.082031 407.558594 C 306.710938 406.917969 307.355469 406.300781 308.019531 405.699219 C 308.683594 405.097656 309.363281 404.515625 310.0625 403.953125 C 310.757812 403.390625 311.472656 402.851562 312.199219 402.328125 C 312.929688 401.808594 313.671875 401.308594 314.425781 400.828125 C 315.183594 400.351562 315.953125 399.894531 316.738281 399.460938 C 317.519531 399.023438 318.316406 398.613281 319.121094 398.222656 C 319.929688 397.835938 320.746094 397.46875 321.574219 397.125 C 322.398438 396.785156 323.238281 396.464844 324.082031 396.171875 C 324.929688 395.878906 325.78125 395.609375 326.644531 395.363281 C 327.503906 395.117188 328.371094 394.894531 329.246094 394.699219 C 330.117188 394.503906 330.996094 394.335938 331.882812 394.1875 C 332.765625 394.042969 333.652344 393.921875 334.542969 393.828125 C 335.433594 393.734375 336.324219 393.664062 337.21875 393.621094 C 338.113281 393.578125 339.007812 393.5625 339.90625 393.570312 C 340.800781 393.578125 341.695312 393.609375 342.585938 393.667969 C 343.480469 393.726562 344.371094 393.8125 345.261719 393.921875 C 346.148438 394.03125 347.035156 394.167969 347.914062 394.328125 C 348.796875 394.488281 349.671875 394.675781 350.542969 394.886719 C 351.414062 395.097656 352.277344 395.332031 353.132812 395.59375 C 353.988281 395.855469 354.839844 396.136719 355.679688 396.445312 C 356.519531 396.757812 357.351562 397.089844 358.171875 397.445312 C 358.992188 397.800781 359.804688 398.183594 360.601562 398.585938 C 361.402344 398.988281 362.191406 399.414062 362.964844 399.863281 C 363.742188 400.308594 364.503906 400.78125 365.25 401.273438 C 366 401.761719 366.734375 402.277344 367.453125 402.808594 C 368.171875 403.34375 368.875 403.898438 369.5625 404.472656 C 370.25 405.046875 370.917969 405.640625 371.570312 406.25 C 372.226562 406.863281 372.859375 407.496094 373.476562 408.144531 C 374.09375 408.792969 374.691406 409.457031 375.273438 410.140625 C 375.851562 410.824219 376.410156 411.523438 376.949219 412.238281 C 377.488281 412.953125 378.003906 413.683594 378.503906 414.429688 C 379 415.175781 379.476562 415.933594 379.929688 416.703125 C 380.382812 417.476562 380.8125 418.261719 381.222656 419.058594 C 381.632812 419.855469 382.015625 420.660156 382.378906 421.480469 C 382.742188 422.300781 383.082031 423.128906 383.394531 423.964844 C 383.710938 424.804688 384 425.652344 384.269531 426.507812 C 384.535156 427.359375 384.777344 428.222656 384.992188 429.089844 C 385.210938 429.960938 385.402344 430.835938 385.570312 431.714844 C 385.738281 432.59375 385.878906 433.476562 385.996094 434.367188 C 386.109375 435.253906 386.203125 436.144531 386.265625 437.039062 C 386.332031 437.929688 386.371094 438.824219 386.386719 439.71875 C 386.402344 440.613281 386.390625 441.511719 386.351562 442.40625 C 386.316406 443.300781 386.253906 444.191406 386.164062 445.082031 C 386.078125 445.976562 385.960938 446.863281 385.824219 447.746094 C 385.683594 448.632812 385.519531 449.511719 385.332031 450.386719 C 385.140625 451.261719 384.925781 452.132812 384.6875 452.992188 C 384.449219 453.855469 384.183594 454.710938 383.894531 455.558594 C 383.609375 456.40625 383.296875 457.246094 382.960938 458.078125 C 382.625 458.90625 382.261719 459.726562 381.878906 460.535156 C 381.496094 461.34375 381.089844 462.140625 380.660156 462.929688 C 380.234375 463.714844 379.78125 464.488281 379.308594 465.246094 C 378.835938 466.007812 378.339844 466.753906 377.824219 467.484375 C 377.308594 468.21875 376.773438 468.933594 376.214844 469.636719 C 375.65625 470.335938 375.082031 471.019531 374.484375 471.6875 C 373.890625 472.355469 373.273438 473.007812 372.640625 473.640625 C 370.464844 475.820312 368.09375 477.765625 365.535156 479.476562 C 362.972656 481.1875 360.269531 482.632812 357.421875 483.808594 C 354.578125 484.988281 351.644531 485.875 348.621094 486.472656 C 345.601562 487.070312 342.550781 487.367188 339.46875 487.359375 Z M 339.46875 411.234375 C 338.351562 411.234375 337.238281 411.300781 336.128906 411.425781 C 335.019531 411.554688 333.917969 411.746094 332.832031 412 C 331.742188 412.253906 330.671875 412.570312 329.621094 412.945312 C 328.570312 413.324219 327.542969 413.757812 326.539062 414.253906 C 325.539062 414.75 324.566406 415.296875 323.628906 415.902344 C 322.691406 416.511719 321.789062 417.167969 320.925781 417.875 C 320.0625 418.585938 319.242188 419.339844 318.464844 420.144531 C 317.6875 420.949219 316.960938 421.792969 316.28125 422.679688 C 315.597656 423.566406 314.972656 424.488281 314.398438 425.449219 C 313.824219 426.40625 313.304688 427.394531 312.847656 428.410156 C 312.386719 429.429688 311.984375 430.472656 311.640625 431.535156 C 311.300781 432.597656 311.019531 433.679688 310.804688 434.773438 C 310.585938 435.871094 310.433594 436.976562 310.339844 438.089844 C 310.25 439.203125 310.222656 440.316406 310.257812 441.433594 C 310.296875 442.550781 310.398438 443.664062 310.5625 444.765625 C 310.726562 445.871094 310.953125 446.964844 311.242188 448.042969 C 311.53125 449.125 311.882812 450.183594 312.292969 451.222656 C 312.703125 452.261719 313.171875 453.273438 313.699219 454.257812 C 314.226562 455.242188 314.808594 456.195312 315.445312 457.113281 C 316.082031 458.03125 316.765625 458.910156 317.503906 459.75 C 318.242188 460.589844 319.023438 461.386719 319.851562 462.136719 C 320.679688 462.886719 321.546875 463.585938 322.457031 464.238281 C 323.367188 464.886719 324.308594 465.484375 325.285156 466.027344 C 326.261719 466.570312 327.265625 467.054688 328.296875 467.480469 C 329.332031 467.910156 330.382812 468.273438 331.460938 468.582031 C 332.535156 468.886719 333.621094 469.132812 334.726562 469.3125 C 335.828125 469.496094 336.9375 469.613281 338.050781 469.667969 C 339.167969 469.722656 340.285156 469.714844 341.398438 469.640625 C 342.515625 469.566406 343.621094 469.429688 344.71875 469.230469 C 345.820312 469.027344 346.902344 468.765625 347.972656 468.441406 C 349.042969 468.117188 350.089844 467.730469 351.113281 467.285156 C 352.140625 466.84375 353.136719 466.339844 354.101562 465.78125 C 355.070312 465.222656 356.003906 464.609375 356.898438 463.945312 C 357.796875 463.277344 358.652344 462.5625 359.46875 461.800781 C 360.285156 461.035156 361.054688 460.226562 361.773438 459.375 C 362.496094 458.523438 363.167969 457.632812 363.789062 456.703125 C 364.410156 455.773438 364.976562 454.8125 365.484375 453.816406 C 365.996094 452.824219 366.449219 451.804688 366.839844 450.757812 C 367.234375 449.710938 367.566406 448.648438 367.835938 447.5625 C 368.109375 446.480469 368.316406 445.382812 368.460938 444.273438 C 368.609375 443.167969 368.691406 442.054688 368.707031 440.9375 C 368.726562 439.820312 368.679688 438.707031 368.570312 437.59375 C 368.460938 436.480469 368.285156 435.378906 368.050781 434.289062 C 367.8125 433.195312 367.515625 432.121094 367.15625 431.0625 C 366.796875 430.003906 366.378906 428.972656 365.898438 427.960938 C 365.421875 426.949219 364.886719 425.972656 364.296875 425.023438 C 363.707031 424.074219 363.066406 423.164062 362.371094 422.289062 C 361.675781 421.414062 360.933594 420.582031 360.140625 419.789062 C 358.785156 418.433594 357.308594 417.21875 355.714844 416.152344 C 354.117188 415.085938 352.433594 414.183594 350.660156 413.449219 C 348.886719 412.71875 347.054688 412.164062 345.171875 411.789062 C 343.289062 411.417969 341.386719 411.234375 339.46875 411.234375 Z M 339.46875 411.234375 "/><path style=" stroke:none;fill-rule:nonzero;fill:#000000;fill-opacity:1;" d="M 470.554688 618.453125 C 469.660156 618.449219 468.765625 618.425781 467.871094 618.371094 C 466.976562 618.320312 466.085938 618.242188 465.195312 618.140625 C 464.304688 618.039062 463.417969 617.910156 462.539062 617.753906 C 461.65625 617.601562 460.777344 617.421875 459.90625 617.21875 C 459.035156 617.015625 458.167969 616.785156 457.308594 616.53125 C 456.453125 616.277344 455.601562 616 454.757812 615.699219 C 453.914062 615.398438 453.082031 615.070312 452.257812 614.722656 C 451.433594 614.371094 450.621094 613.996094 449.816406 613.601562 C 449.015625 613.203125 448.222656 612.785156 447.445312 612.34375 C 446.664062 611.902344 445.898438 611.4375 445.148438 610.953125 C 444.394531 610.464844 443.65625 609.960938 442.933594 609.429688 C 442.210938 608.902344 441.503906 608.355469 440.8125 607.785156 C 440.121094 607.21875 439.445312 606.628906 438.785156 606.023438 C 438.128906 605.414062 437.488281 604.789062 436.867188 604.144531 C 436.242188 603.503906 435.640625 602.839844 435.054688 602.164062 C 434.472656 601.484375 433.90625 600.789062 433.363281 600.078125 C 432.816406 599.367188 432.292969 598.640625 431.789062 597.902344 C 431.289062 597.160156 430.804688 596.40625 430.347656 595.636719 C 429.886719 594.871094 429.449219 594.089844 429.035156 593.296875 C 428.617188 592.5 428.226562 591.695312 427.859375 590.882812 C 427.488281 590.066406 427.144531 589.238281 426.820312 588.402344 C 426.5 587.566406 426.203125 586.722656 425.929688 585.871094 C 425.65625 585.019531 425.40625 584.160156 425.183594 583.292969 C 424.957031 582.425781 424.757812 581.550781 424.585938 580.675781 C 424.410156 579.796875 424.261719 578.914062 424.140625 578.027344 C 424.015625 577.140625 423.917969 576.25 423.84375 575.355469 C 423.773438 574.464844 423.726562 573.570312 423.703125 572.675781 C 423.683594 571.78125 423.6875 570.886719 423.714844 569.992188 C 423.746094 569.09375 423.800781 568.203125 423.882812 567.308594 C 423.964844 566.417969 424.070312 565.53125 424.203125 564.644531 C 424.335938 563.757812 424.492188 562.878906 424.671875 562 C 424.855469 561.125 425.0625 560.253906 425.296875 559.386719 C 425.527344 558.523438 425.785156 557.667969 426.066406 556.816406 C 426.347656 555.964844 426.652344 555.125 426.984375 554.292969 C 427.3125 553.460938 427.664062 552.636719 428.042969 551.824219 C 428.417969 551.011719 428.820312 550.210938 429.242188 549.421875 C 429.664062 548.632812 430.109375 547.855469 430.574219 547.09375 C 431.042969 546.328125 431.53125 545.578125 432.042969 544.84375 C 432.550781 544.105469 433.082031 543.386719 433.632812 542.679688 C 434.183594 541.972656 434.757812 541.285156 435.347656 540.613281 C 435.9375 539.9375 436.546875 539.285156 437.175781 538.644531 C 437.804688 538.007812 438.449219 537.386719 439.113281 536.789062 C 439.777344 536.1875 440.457031 535.605469 441.15625 535.042969 C 441.851562 534.480469 442.566406 533.9375 443.292969 533.417969 C 444.023438 532.898438 444.765625 532.398438 445.519531 531.917969 C 446.277344 531.441406 447.046875 530.984375 447.832031 530.550781 C 448.613281 530.113281 449.410156 529.703125 450.214844 529.3125 C 451.023438 528.925781 451.839844 528.558594 452.667969 528.21875 C 453.492188 527.875 454.332031 527.554688 455.175781 527.261719 C 456.023438 526.96875 456.875 526.699219 457.734375 526.453125 C 458.597656 526.207031 459.464844 525.988281 460.339844 525.792969 C 461.210938 525.59375 462.089844 525.425781 462.976562 525.28125 C 463.859375 525.132812 464.746094 525.015625 465.636719 524.917969 C 466.527344 524.824219 467.417969 524.757812 468.3125 524.714844 C 469.207031 524.667969 470.101562 524.652344 470.996094 524.660156 C 471.894531 524.667969 472.789062 524.699219 473.679688 524.761719 C 474.574219 524.820312 475.464844 524.902344 476.355469 525.015625 C 477.242188 525.125 478.128906 525.257812 479.007812 525.421875 C 479.890625 525.582031 480.765625 525.765625 481.636719 525.976562 C 482.503906 526.1875 483.371094 526.425781 484.226562 526.683594 C 485.082031 526.945312 485.929688 527.230469 486.773438 527.539062 C 487.613281 527.847656 488.441406 528.179688 489.265625 528.539062 C 490.085938 528.894531 490.894531 529.273438 491.695312 529.675781 C 492.496094 530.082031 493.28125 530.503906 494.058594 530.953125 C 494.832031 531.402344 495.59375 531.871094 496.34375 532.363281 C 497.09375 532.855469 497.824219 533.367188 498.542969 533.902344 C 499.261719 534.4375 499.964844 534.988281 500.652344 535.5625 C 501.339844 536.136719 502.011719 536.730469 502.664062 537.34375 C 503.316406 537.957031 503.953125 538.585938 504.570312 539.234375 C 505.1875 539.886719 505.785156 540.550781 506.363281 541.234375 C 506.941406 541.917969 507.5 542.617188 508.039062 543.332031 C 508.578125 544.046875 509.097656 544.777344 509.59375 545.519531 C 510.089844 546.265625 510.566406 547.023438 511.019531 547.796875 C 511.472656 548.570312 511.90625 549.351562 512.3125 550.148438 C 512.722656 550.945312 513.109375 551.753906 513.472656 552.574219 C 513.832031 553.390625 514.171875 554.21875 514.488281 555.058594 C 514.800781 555.898438 515.09375 556.742188 515.359375 557.597656 C 515.625 558.453125 515.867188 559.316406 516.085938 560.183594 C 516.300781 561.050781 516.492188 561.925781 516.660156 562.804688 C 516.828125 563.6875 516.96875 564.570312 517.085938 565.457031 C 517.203125 566.34375 517.292969 567.234375 517.359375 568.128906 C 517.425781 569.023438 517.464844 569.917969 517.476562 570.8125 C 517.492188 571.707031 517.480469 572.601562 517.445312 573.496094 C 517.40625 574.390625 517.34375 575.285156 517.253906 576.175781 C 517.167969 577.066406 517.054688 577.953125 516.914062 578.839844 C 516.777344 579.722656 516.609375 580.601562 516.421875 581.476562 C 516.230469 582.355469 516.019531 583.222656 515.777344 584.085938 C 515.539062 584.949219 515.277344 585.804688 514.988281 586.652344 C 514.699219 587.5 514.386719 588.339844 514.050781 589.167969 C 513.714844 589.996094 513.355469 590.816406 512.972656 591.625 C 512.585938 592.4375 512.183594 593.234375 511.753906 594.019531 C 511.324219 594.804688 510.871094 595.578125 510.398438 596.339844 C 509.925781 597.097656 509.433594 597.84375 508.914062 598.578125 C 508.398438 599.308594 507.863281 600.027344 507.304688 600.726562 C 506.75 601.429688 506.171875 602.113281 505.578125 602.78125 C 504.980469 603.449219 504.367188 604.097656 503.730469 604.730469 C 501.554688 606.910156 499.1875 608.859375 496.625 610.570312 C 494.0625 612.28125 491.359375 613.726562 488.511719 614.902344 C 485.664062 616.078125 482.730469 616.964844 479.707031 617.5625 C 476.6875 618.160156 473.636719 618.457031 470.554688 618.453125 Z M 470.554688 542.328125 C 469.4375 542.328125 468.324219 542.390625 467.214844 542.519531 C 466.105469 542.648438 465.003906 542.839844 463.917969 543.09375 C 462.828125 543.347656 461.757812 543.664062 460.707031 544.039062 C 459.65625 544.417969 458.628906 544.851562 457.625 545.347656 C 456.625 545.84375 455.652344 546.390625 454.714844 546.996094 C 453.777344 547.605469 452.875 548.261719 452.011719 548.96875 C 451.148438 549.679688 450.328125 550.4375 449.550781 551.238281 C 448.777344 552.042969 448.046875 552.886719 447.367188 553.773438 C 446.6875 554.660156 446.0625 555.582031 445.488281 556.542969 C 444.914062 557.5 444.394531 558.488281 443.933594 559.507812 C 443.472656 560.523438 443.074219 561.566406 442.730469 562.628906 C 442.390625 563.695312 442.113281 564.773438 441.894531 565.871094 C 441.675781 566.964844 441.523438 568.070312 441.429688 569.183594 C 441.339844 570.296875 441.3125 571.414062 441.351562 572.53125 C 441.386719 573.644531 441.488281 574.757812 441.652344 575.863281 C 441.816406 576.96875 442.042969 578.058594 442.335938 579.140625 C 442.625 580.21875 442.972656 581.277344 443.386719 582.316406 C 443.796875 583.355469 444.265625 584.367188 444.792969 585.351562 C 445.320312 586.335938 445.902344 587.289062 446.539062 588.207031 C 447.175781 589.125 447.859375 590.003906 448.597656 590.84375 C 449.335938 591.683594 450.117188 592.480469 450.945312 593.230469 C 451.773438 593.980469 452.640625 594.679688 453.550781 595.328125 C 454.460938 595.980469 455.402344 596.578125 456.378906 597.117188 C 457.355469 597.660156 458.359375 598.144531 459.390625 598.574219 C 460.425781 599 461.476562 599.367188 462.554688 599.671875 C 463.628906 599.980469 464.714844 600.222656 465.820312 600.40625 C 466.921875 600.585938 468.03125 600.703125 469.144531 600.757812 C 470.261719 600.8125 471.378906 600.804688 472.492188 600.730469 C 473.605469 600.65625 474.714844 600.519531 475.8125 600.320312 C 476.914062 600.117188 477.996094 599.855469 479.066406 599.53125 C 480.136719 599.207031 481.183594 598.820312 482.207031 598.378906 C 483.230469 597.933594 484.226562 597.429688 485.195312 596.871094 C 486.164062 596.3125 487.09375 595.699219 487.992188 595.035156 C 488.890625 594.367188 489.746094 593.652344 490.5625 592.890625 C 491.375 592.125 492.144531 591.316406 492.867188 590.464844 C 493.589844 589.613281 494.261719 588.722656 494.882812 587.792969 C 495.503906 586.863281 496.066406 585.902344 496.578125 584.90625 C 497.085938 583.914062 497.539062 582.894531 497.933594 581.847656 C 498.324219 580.800781 498.65625 579.738281 498.929688 578.652344 C 499.199219 577.570312 499.410156 576.472656 499.554688 575.363281 C 499.699219 574.257812 499.78125 573.144531 499.796875 572.027344 C 499.816406 570.910156 499.769531 569.796875 499.660156 568.683594 C 499.550781 567.570312 499.378906 566.46875 499.140625 565.378906 C 498.90625 564.285156 498.605469 563.210938 498.246094 562.152344 C 497.886719 561.09375 497.46875 560.0625 496.992188 559.050781 C 496.511719 558.042969 495.980469 557.0625 495.390625 556.113281 C 494.796875 555.164062 494.15625 554.253906 493.460938 553.378906 C 492.765625 552.503906 492.023438 551.671875 491.234375 550.882812 C 489.875 549.523438 488.398438 548.308594 486.804688 547.242188 C 485.207031 546.175781 483.523438 545.273438 481.746094 544.539062 C 479.972656 543.804688 478.144531 543.25 476.261719 542.878906 C 474.375 542.507812 472.476562 542.324219 470.554688 542.328125 Z M 470.554688 542.328125 "/><path style=" stroke:none;fill-rule:nonzero;fill:#000000;fill-opacity:1;" d="M 335.746094 604.503906 C 334.308594 604.503906 332.878906 604.398438 331.457031 604.1875 C 330.035156 603.976562 328.640625 603.664062 327.261719 603.246094 C 325.886719 602.828125 324.550781 602.3125 323.253906 601.699219 C 321.953125 601.082031 320.707031 600.375 319.511719 599.578125 C 318.316406 598.78125 317.1875 597.898438 316.121094 596.933594 C 315.058594 595.96875 314.070312 594.929688 313.15625 593.820312 C 312.246094 592.707031 311.421875 591.535156 310.683594 590.304688 C 309.941406 589.070312 309.300781 587.792969 308.75 586.464844 C 308.199219 585.136719 307.75 583.773438 307.398438 582.382812 C 307.050781 580.988281 306.804688 579.574219 306.664062 578.144531 C 306.523438 576.714844 306.488281 575.28125 306.558594 573.847656 C 306.628906 572.410156 306.804688 570.988281 307.085938 569.578125 C 307.363281 568.167969 307.746094 566.789062 308.230469 565.433594 C 308.714844 564.082031 309.292969 562.773438 309.972656 561.503906 C 310.648438 560.238281 311.414062 559.027344 312.269531 557.871094 C 313.128906 556.71875 314.0625 555.632812 315.078125 554.613281 L 453.613281 416.078125 C 454.289062 415.382812 454.992188 414.722656 455.730469 414.097656 C 456.46875 413.472656 457.238281 412.886719 458.035156 412.335938 C 458.828125 411.789062 459.652344 411.28125 460.5 410.8125 C 461.34375 410.34375 462.214844 409.921875 463.101562 409.539062 C 463.992188 409.160156 464.898438 408.824219 465.820312 408.53125 C 466.742188 408.238281 467.675781 407.996094 468.625 407.796875 C 469.570312 407.597656 470.523438 407.445312 471.484375 407.34375 C 472.449219 407.238281 473.414062 407.183594 474.378906 407.175781 C 475.347656 407.167969 476.3125 407.207031 477.277344 407.296875 C 478.238281 407.382812 479.195312 407.519531 480.144531 407.703125 C 481.09375 407.882812 482.035156 408.113281 482.960938 408.390625 C 483.886719 408.664062 484.800781 408.988281 485.695312 409.351562 C 486.589844 409.71875 487.464844 410.128906 488.320312 410.582031 C 489.171875 411.035156 490.003906 411.53125 490.808594 412.066406 C 491.613281 412.601562 492.390625 413.175781 493.140625 413.789062 C 493.886719 414.402344 494.605469 415.050781 495.289062 415.734375 C 495.972656 416.417969 496.621094 417.136719 497.234375 417.882812 C 497.847656 418.632812 498.421875 419.410156 498.957031 420.214844 C 499.492188 421.019531 499.988281 421.851562 500.441406 422.703125 C 500.894531 423.558594 501.304688 424.433594 501.667969 425.328125 C 502.035156 426.222656 502.359375 427.136719 502.632812 428.0625 C 502.910156 428.988281 503.140625 429.929688 503.320312 430.878906 C 503.503906 431.828125 503.640625 432.785156 503.726562 433.746094 C 503.816406 434.710938 503.855469 435.675781 503.847656 436.644531 C 503.839844 437.609375 503.785156 438.574219 503.679688 439.539062 C 503.578125 440.5 503.425781 441.453125 503.226562 442.398438 C 503.027344 443.347656 502.785156 444.28125 502.492188 445.203125 C 502.199219 446.125 501.863281 447.03125 501.484375 447.921875 C 501.101562 448.808594 500.679688 449.679688 500.210938 450.523438 C 499.742188 451.371094 499.234375 452.195312 498.6875 452.988281 C 498.136719 453.785156 497.550781 454.554688 496.925781 455.292969 C 496.300781 456.03125 495.640625 456.734375 494.945312 457.410156 L 356.410156 595.945312 C 355.054688 597.304688 353.582031 598.519531 351.988281 599.589844 C 350.390625 600.660156 348.707031 601.5625 346.933594 602.296875 C 345.160156 603.03125 343.332031 603.582031 341.449219 603.957031 C 339.566406 604.328125 337.664062 604.511719 335.746094 604.503906 Z M 474.277344 425.199219 C 472.746094 425.195312 471.269531 425.484375 469.855469 426.070312 C 468.4375 426.65625 467.191406 427.492188 466.109375 428.578125 L 327.578125 567.109375 C 327.023438 567.640625 326.527344 568.222656 326.09375 568.855469 C 325.65625 569.484375 325.285156 570.152344 324.980469 570.859375 C 324.675781 571.5625 324.445312 572.292969 324.285156 573.042969 C 324.128906 573.796875 324.042969 574.554688 324.035156 575.324219 C 324.03125 576.089844 324.097656 576.851562 324.242188 577.605469 C 324.386719 578.359375 324.605469 579.09375 324.894531 579.804688 C 325.183594 580.515625 325.542969 581.191406 325.96875 581.828125 C 326.394531 582.46875 326.878906 583.058594 327.421875 583.601562 C 327.964844 584.144531 328.554688 584.628906 329.195312 585.054688 C 329.832031 585.480469 330.507812 585.835938 331.21875 586.128906 C 331.929688 586.417969 332.664062 586.636719 333.417969 586.78125 C 334.171875 586.925781 334.933594 586.992188 335.699219 586.988281 C 336.46875 586.980469 337.226562 586.894531 337.980469 586.738281 C 338.730469 586.578125 339.460938 586.347656 340.164062 586.042969 C 340.871094 585.738281 341.539062 585.367188 342.167969 584.929688 C 342.800781 584.496094 343.382812 584 343.914062 583.445312 L 482.445312 444.921875 C 483.253906 444.113281 483.925781 443.203125 484.464844 442.199219 C 485.003906 441.191406 485.382812 440.125 485.605469 439.003906 C 485.828125 437.886719 485.882812 436.757812 485.773438 435.621094 C 485.660156 434.480469 485.386719 433.386719 484.949219 432.332031 C 484.511719 431.273438 483.929688 430.304688 483.207031 429.421875 C 482.480469 428.539062 481.644531 427.78125 480.695312 427.144531 C 479.746094 426.511719 478.722656 426.027344 477.628906 425.695312 C 476.539062 425.363281 475.417969 425.199219 474.277344 425.199219 Z M 474.277344 425.199219 "/><g clip-rule="nonzero" clip-path="url(#c2516eb87d)"><path style=" stroke:none;fill-rule:nonzero;fill:#000000;fill-opacity:1;" d="M 405.011719 735.773438 C 390.351562 735.773438 381.644531 719.066406 373.21875 702.910156 C 370.023438 696.773438 367 690.980469 363.941406 686.539062 C 360.21875 681.148438 358.308594 680.585938 358.226562 680.5625 C 357.855469 680.464844 355.679688 680.109375 349.660156 682.945312 C 344.617188 685.320312 338.710938 689.0625 333.007812 692.683594 C 326.296875 696.941406 319.355469 701.34375 312.886719 704.164062 C 309.460938 705.65625 299.078125 710.191406 290.09375 705.003906 C 277.652344 697.824219 278.449219 679.210938 279.222656 661.222656 C 279.511719 654.527344 279.808594 647.601562 279.359375 642.117188 C 278.808594 635.488281 277.417969 633.921875 277.261719 633.761719 C 277.105469 633.601562 275.527344 632.203125 268.90625 631.664062 C 263.421875 631.214844 256.496094 631.511719 249.800781 631.800781 C 231.8125 632.574219 213.214844 633.371094 206.019531 620.929688 C 200.832031 611.96875 205.367188 601.5625 206.859375 598.136719 C 209.679688 591.667969 214.082031 584.726562 218.339844 578.015625 C 221.960938 572.3125 225.703125 566.417969 228.078125 561.359375 C 230.910156 555.339844 230.558594 553.167969 230.460938 552.796875 C 230.460938 552.714844 229.875 550.804688 224.484375 547.082031 C 220.066406 544.023438 214.25 541.007812 208.113281 537.804688 C 191.957031 529.378906 175.25 520.671875 175.25 506.011719 C 175.25 491.351562 191.957031 482.644531 208.113281 474.21875 C 214.25 471.023438 220.042969 468 224.484375 464.941406 C 229.875 461.21875 230.4375 459.308594 230.460938 459.226562 C 230.558594 458.855469 230.910156 456.683594 228.078125 450.660156 C 225.703125 445.617188 221.960938 439.710938 218.339844 434.007812 C 214.082031 427.296875 209.679688 420.355469 206.859375 413.886719 C 205.367188 410.460938 200.832031 400.078125 206.019531 391.09375 C 213.199219 378.652344 231.8125 379.449219 249.800781 380.222656 C 256.496094 380.511719 263.421875 380.808594 268.90625 380.359375 C 275.535156 379.808594 277.101562 378.417969 277.261719 378.261719 C 277.421875 378.109375 278.820312 376.527344 279.359375 369.90625 C 279.808594 364.421875 279.511719 357.496094 279.222656 350.800781 C 278.449219 332.8125 277.652344 314.214844 290.09375 307.019531 C 299.054688 301.832031 309.460938 306.367188 312.886719 307.859375 C 319.355469 310.679688 326.296875 315.082031 333.007812 319.339844 C 338.710938 322.960938 344.605469 326.703125 349.664062 329.078125 C 355.683594 331.914062 357.855469 331.558594 358.226562 331.460938 C 358.308594 331.460938 360.21875 330.875 363.941406 325.484375 C 367 321.066406 370.015625 315.25 373.21875 309.113281 C 381.644531 292.957031 390.351562 276.25 405.011719 276.25 C 419.671875 276.25 428.378906 292.957031 436.800781 309.113281 C 440 315.25 443.023438 321.042969 446.082031 325.484375 C 449.804688 330.875 451.714844 331.4375 451.796875 331.460938 C 452.167969 331.558594 454.34375 331.914062 460.363281 329.078125 C 465.40625 326.703125 471.3125 322.960938 477.015625 319.339844 C 483.726562 315.082031 490.667969 310.679688 497.136719 307.859375 C 500.5625 306.367188 510.945312 301.832031 519.929688 307.019531 C 532.367188 314.199219 531.574219 332.8125 530.800781 350.800781 C 530.511719 357.496094 530.214844 364.421875 530.664062 369.90625 C 531.214844 376.535156 532.605469 378.101562 532.761719 378.261719 C 532.914062 378.421875 534.496094 379.820312 541.117188 380.359375 C 546.601562 380.808594 553.527344 380.511719 560.222656 380.222656 C 578.210938 379.449219 596.808594 378.652344 604.003906 391.09375 C 609.191406 400.054688 604.65625 410.460938 603.164062 413.886719 C 600.34375 420.355469 595.941406 427.296875 591.683594 434.007812 C 588.0625 439.710938 584.320312 445.605469 581.945312 450.664062 C 579.109375 456.683594 579.464844 458.855469 579.5625 459.226562 C 579.5625 459.308594 580.148438 461.21875 585.539062 464.941406 C 589.957031 468 595.773438 471.015625 601.910156 474.21875 C 618.066406 482.644531 634.773438 491.34375 634.773438 506.011719 C 634.773438 520.679688 618.066406 529.378906 601.910156 537.804688 C 595.773438 541 589.980469 544.023438 585.539062 547.082031 C 580.148438 550.804688 579.585938 552.714844 579.5625 552.796875 C 579.464844 553.167969 579.109375 555.339844 581.945312 561.363281 C 584.320312 566.40625 588.0625 572.3125 591.683594 578.015625 C 595.941406 584.726562 600.34375 591.667969 603.164062 598.136719 C 604.65625 601.5625 609.191406 611.945312 604.003906 620.929688 C 596.824219 633.375 578.210938 632.574219 560.222656 631.800781 C 553.527344 631.511719 546.601562 631.214844 541.117188 631.664062 C 534.488281 632.214844 532.921875 633.605469 532.761719 633.761719 C 532.601562 633.914062 531.203125 635.496094 530.664062 642.117188 C 530.214844 647.601562 530.511719 654.527344 530.800781 661.222656 C 531.574219 679.210938 532.367188 697.808594 519.929688 705.003906 C 510.96875 710.191406 500.5625 705.65625 497.136719 704.164062 C 490.667969 701.34375 483.726562 696.941406 477.015625 692.683594 C 471.3125 689.0625 465.417969 685.320312 460.359375 682.945312 C 454.339844 680.109375 452.167969 680.464844 451.796875 680.5625 C 451.714844 680.5625 449.804688 681.148438 446.082031 686.539062 C 443.023438 690.957031 440.007812 696.773438 436.800781 702.910156 C 428.378906 719.066406 419.671875 735.773438 405.011719 735.773438 Z M 357.511719 662.820312 C 359.296875 662.8125 361.046875 663.039062 362.769531 663.492188 C 374.164062 666.542969 381.304688 680.238281 388.867188 694.738281 C 392.304688 701.324219 395.855469 708.128906 399.363281 712.851562 C 403.144531 717.957031 404.976562 718.097656 404.996094 718.097656 C 405.011719 718.097656 406.84375 717.957031 410.628906 712.851562 C 414.128906 708.136719 417.683594 701.324219 421.121094 694.738281 C 428.683594 680.238281 435.824219 666.542969 447.21875 663.492188 C 459.011719 660.34375 472.347656 668.800781 486.472656 677.757812 C 492.320312 681.464844 498.363281 685.304688 503.429688 687.617188 C 509.226562 690.273438 511.078125 689.699219 511.101562 689.695312 C 511.101562 689.695312 512.53125 688.445312 513.171875 682.261719 C 513.761719 676.570312 513.445312 669.152344 513.136719 661.984375 C 512.425781 645.414062 511.757812 629.769531 520.257812 621.269531 C 528.757812 612.769531 544.410156 613.429688 560.980469 614.144531 C 568.160156 614.453125 575.566406 614.773438 581.253906 614.175781 C 587.449219 613.535156 588.695312 612.09375 588.703125 612.078125 C 588.703125 612.078125 589.257812 610.222656 586.613281 604.4375 C 584.296875 599.375 580.457031 593.332031 576.753906 587.484375 C 567.792969 573.359375 559.332031 560.023438 562.488281 548.230469 C 565.535156 536.835938 579.234375 529.695312 593.730469 522.132812 C 600.320312 518.699219 607.125 515.148438 611.847656 511.640625 C 616.949219 507.855469 617.09375 506.023438 617.09375 506.007812 C 617.09375 505.988281 616.949219 504.15625 611.847656 500.371094 C 607.128906 496.871094 600.320312 493.320312 593.730469 489.878906 C 579.234375 482.316406 565.535156 475.175781 562.488281 463.78125 C 559.339844 451.988281 567.792969 438.652344 576.753906 424.527344 C 580.457031 418.679688 584.296875 412.636719 586.613281 407.574219 C 589.269531 401.773438 588.695312 399.921875 588.6875 399.902344 C 588.6875 399.902344 587.421875 398.472656 581.253906 397.832031 C 575.566406 397.238281 568.148438 397.554688 560.980469 397.863281 C 544.410156 398.574219 528.761719 399.246094 520.261719 390.746094 C 511.761719 382.246094 512.425781 366.589844 513.136719 350.023438 C 513.445312 342.84375 513.761719 335.4375 513.171875 329.746094 C 512.53125 323.550781 511.089844 322.308594 511.070312 322.296875 C 510.890625 322.257812 510.707031 322.242188 510.519531 322.253906 C 509.621094 322.253906 507.492188 322.523438 503.421875 324.390625 C 498.359375 326.703125 492.316406 330.542969 486.464844 334.25 C 472.34375 343.207031 459.003906 351.667969 447.214844 348.515625 C 435.820312 345.464844 428.679688 331.769531 421.117188 317.269531 C 417.683594 310.679688 414.128906 303.875 410.625 299.15625 C 406.863281 294.066406 405.011719 293.925781 405.011719 293.925781 C 405.011719 293.925781 403.160156 294.066406 399.378906 299.171875 C 395.875 303.886719 392.324219 310.699219 388.882812 317.285156 C 381.324219 331.785156 374.179688 345.453125 362.789062 348.53125 C 361.0625 348.988281 359.3125 349.210938 357.53125 349.203125 C 347.089844 349.203125 335.597656 341.914062 323.535156 334.265625 C 317.6875 330.558594 311.644531 326.71875 306.578125 324.40625 C 300.78125 321.75 298.929688 322.324219 298.90625 322.328125 C 298.90625 322.328125 297.476562 323.578125 296.835938 329.761719 C 296.246094 335.453125 296.558594 342.871094 296.867188 350.039062 C 297.582031 366.609375 298.25 382.253906 289.75 390.753906 C 281.25 399.253906 265.597656 398.59375 249.027344 397.878906 C 241.847656 397.570312 234.441406 397.257812 228.753906 397.847656 C 222.554688 398.488281 221.3125 399.929688 221.300781 399.945312 C 221.300781 399.945312 220.75 401.800781 223.394531 407.585938 C 225.710938 412.648438 229.546875 418.691406 233.253906 424.539062 C 242.210938 438.664062 250.671875 452 247.519531 463.792969 C 244.472656 475.1875 230.773438 482.328125 216.277344 489.890625 C 209.6875 493.324219 202.882812 496.875 198.160156 500.382812 C 193.066406 504.160156 192.925781 506.011719 192.925781 506.011719 C 192.925781 506.011719 193.066406 507.863281 198.171875 511.644531 C 202.886719 515.148438 209.699219 518.699219 216.285156 522.140625 C 230.785156 529.699219 244.453125 536.839844 247.53125 548.234375 C 250.679688 560.027344 242.222656 573.367188 233.265625 587.488281 C 229.558594 593.335938 225.71875 599.378906 223.40625 604.445312 C 220.75 610.242188 221.324219 612.09375 221.328125 612.117188 C 221.328125 612.117188 222.59375 613.546875 228.761719 614.1875 C 234.453125 614.777344 241.871094 614.464844 249.039062 614.15625 C 265.609375 613.441406 281.253906 612.773438 289.753906 621.273438 C 298.253906 629.773438 297.59375 645.425781 296.878906 661.996094 C 296.570312 669.175781 296.257812 676.582031 296.847656 682.269531 C 297.488281 688.46875 298.929688 689.710938 298.945312 689.722656 C 299.128906 689.761719 299.3125 689.777344 299.5 689.765625 C 300.398438 689.765625 302.523438 689.496094 306.59375 687.628906 C 311.660156 685.3125 317.703125 681.476562 323.550781 677.769531 C 335.601562 670.109375 347.097656 662.820312 357.511719 662.820312 Z M 357.511719 662.820312 "/></g><g clip-rule="nonzero" clip-path="url(#37b5accbd6)"><g clip-rule="nonzero" clip-path="url(#9b4cf4fd51)"><path style=" stroke:none;fill-rule:nonzero;fill:url(#b01ac43d8b);" d="M 0.199219 0 L 0.199219 16.796875 L 107.375 16.796875 L 107.375 0 Z M 0.199219 0 "/></g></g></g></svg>