<svg xmlns="http://www.w3.org/2000/svg" xmlns:xlink="http://www.w3.org/1999/xlink" width="1080" zoomAndPan="magnify" viewBox="0 0 810 1012.49997" height="1350" preserveAspectRatio="xMidYMid meet" version="1.2"><defs><clipPath id="ddfc6d8ec1"><path d="M 212.34375 401.109375 L 223.4375 401.109375 L 223.4375 417.289062 L 212.34375 417.289062 Z M 212.34375 401.109375 "/></clipPath><clipPath id="5787c65e01"><path d="M 0.34375 0.109375 L 11.4375 0.109375 L 11.4375 16.289062 L 0.34375 16.289062 Z M 0.34375 0.109375 "/></clipPath><clipPath id="5827d052b0"><rect x="0" width="12" y="0" height="17"/></clipPath><clipPath id="b0e94aa111"><path d="M 302 404 L 508.824219 404 L 508.824219 709 L 302 709 Z M 302 404 "/></clipPath><clipPath id="974a585931"><path d="M 428.929688 407.699219 L 435.953125 407.699219 L 435.953125 414.726562 L 428.929688 414.726562 Z M 428.929688 407.699219 "/></clipPath><clipPath id="fc50c3dd73"><path d="M 0.929688 0.699219 L 7.953125 0.699219 L 7.953125 7.726562 L 0.929688 7.726562 Z M 0.929688 0.699219 "/></clipPath><clipPath id="3c998471cd"><rect x="0" width="8" y="0" height="8"/></clipPath></defs><g id="59634500b2"><g clip-rule="nonzero" clip-path="url(#ddfc6d8ec1)"><g transform="matrix(1,0,0,1,212,401)"><g clip-path="url(#5827d052b0)"><g clip-rule="nonzero" clip-path="url(#5787c65e01)"><path style=" stroke:none;fill-rule:nonzero;fill:#ffffff;fill-opacity:1;" d="M 0.34375 0.109375 L 11.4375 0.109375 L 11.4375 16.277344 L 0.34375 16.277344 Z M 0.34375 0.109375 "/></g></g></g></g><g clip-rule="nonzero" clip-path="url(#b0e94aa111)"><path style=" stroke:none;fill-rule:nonzero;fill:#4c583f;fill-opacity:1;" d="M 361.921875 418.359375 L 378.027344 418.359375 C 379.335938 419.097656 380.582031 419.789062 382 420.371094 C 398.480469 427.457031 417.511719 425.789062 432.410156 418.359375 L 448.617188 418.359375 C 453.347656 418.394531 457.460938 421.40625 458.984375 425.863281 L 493.5 526.582031 C 494.886719 530.625 494.332031 533.21875 493.058594 535.464844 C 491.808594 537.714844 489.421875 539.613281 486.664062 540.542969 C 483.855469 541.503906 480.859375 541.503906 478.46875 540.507812 C 476.089844 539.507812 474.085938 537.75 472.703125 533.734375 L 456.597656 486.789062 C 454.078125 479.464844 443.199219 481.222656 443.164062 488.996094 L 443.164062 680.578125 C 443.164062 685.726562 441.40625 688.699219 438.671875 690.980469 C 435.914062 693.296875 431.875 694.675781 427.6875 694.675781 C 423.542969 694.675781 419.429688 693.296875 416.667969 690.980469 C 413.9375 688.699219 412.179688 685.726562 412.179688 680.578125 L 412.179688 574.84375 C 412.25 570.9375 409.066406 567.757812 405.167969 567.832031 C 401.367188 567.90625 398.328125 571.011719 398.355469 574.84375 L 398.355469 680.566406 C 398.355469 685.714844 396.628906 688.6875 393.871094 690.96875 C 391.101562 693.28125 387.023438 694.664062 382.851562 694.664062 C 378.703125 694.664062 374.625 693.28125 371.890625 690.96875 C 369.132812 688.6875 367.375 685.714844 367.375 680.566406 L 367.375 488.984375 C 367.339844 481.210938 356.488281 479.449219 353.96875 486.773438 L 337.835938 533.722656 C 336.449219 537.734375 334.445312 539.5 332.054688 540.496094 C 329.675781 541.496094 326.667969 541.496094 323.910156 540.527344 C 321.105469 539.597656 318.753906 537.695312 317.480469 535.453125 C 316.203125 533.203125 315.652344 530.617188 317.03125 526.570312 L 351.578125 425.851562 C 353.078125 421.40625 357.191406 418.394531 361.921875 418.359375 Z M 361.921875 404.617188 C 351.355469 404.617188 341.855469 411.382812 338.464844 421.40625 L 303.988281 522.085938 C 301.496094 529.375 302.257812 536.632812 305.402344 542.226562 C 308.539062 547.792969 313.6875 551.664062 319.359375 553.628906 C 325.019531 555.601562 331.453125 555.707031 337.355469 553.226562 C 343.226562 550.765625 348.414062 545.550781 350.894531 538.257812 L 353.554688 530.484375 L 353.554688 680.574219 C 353.554688 689.382812 357.398438 696.917969 363.054688 701.613281 C 368.6875 706.3125 375.8125 708.414062 382.824219 708.414062 C 389.863281 708.414062 397.226562 706.582031 402.652344 701.613281 L 405.246094 699.226562 L 407.839844 701.613281 C 413.261719 706.582031 420.65625 708.414062 427.667969 708.414062 C 434.71875 708.414062 441.832031 706.3125 447.464844 701.613281 C 453.136719 696.917969 456.964844 689.382812 456.964844 680.574219 L 456.964844 530.476562 L 459.589844 538.253906 C 462.109375 545.503906 467.257812 550.757812 473.167969 553.21875 C 479.078125 555.707031 485.476562 555.601562 491.140625 553.621094 C 496.839844 551.660156 501.945312 547.785156 505.097656 542.21875 C 508.234375 536.628906 509.03125 529.371094 506.511719 522.078125 L 472.035156 421.398438 C 468.644531 411.375 459.171875 404.609375 448.605469 404.609375 L 430.671875 404.609375 C 429.460938 404.609375 428.320312 404.921875 427.285156 405.464844 C 415.503906 412.171875 400.914062 413.484375 387.480469 407.675781 C 385.996094 407.058594 384.582031 406.367188 383.261719 405.570312 C 382.195312 404.953125 380.988281 404.609375 379.738281 404.609375 L 361.921875 404.609375 Z M 361.921875 404.617188 "/></g><path style=" stroke:none;fill-rule:evenodd;fill:#4c583f;fill-opacity:1;" d="M 392.570312 321.105469 C 400.722656 317.894531 410.089844 317.789062 418.832031 321.554688 C 436.34375 329.125 444.332031 349.125 436.796875 366.613281 C 429.234375 384.089844 409.121094 392.078125 391.609375 384.542969 C 374.152344 377.011719 366.246094 356.898438 373.777344 339.492188 C 377.542969 330.742188 384.417969 324.355469 392.570312 321.105469 Z M 387.527344 308.394531 C 376.089844 312.957031 366.347656 321.828125 361.097656 333.992188 C 350.589844 358.292969 361.847656 386.75 386.148438 397.226562 C 410.5 407.6875 438.898438 396.429688 449.441406 372.105469 C 459.902344 347.777344 448.675781 319.378906 424.320312 308.878906 C 412.160156 303.625 398.996094 303.828125 387.527344 308.394531 Z M 387.527344 308.394531 "/><g clip-rule="nonzero" clip-path="url(#974a585931)"><g transform="matrix(1,0,0,1,428,407)"><g clip-path="url(#3c998471cd)"><g clip-rule="nonzero" clip-path="url(#fc50c3dd73)"><path style=" stroke:none;fill-rule:nonzero;fill:#4c583f;fill-opacity:1;" d="M 0.929688 0.699219 L 7.953125 0.699219 L 7.953125 7.726562 L 0.929688 7.726562 Z M 0.929688 0.699219 "/></g></g></g></g></g></svg>