<svg xmlns="http://www.w3.org/2000/svg" xmlns:xlink="http://www.w3.org/1999/xlink" width="1080" zoomAndPan="magnify" viewBox="0 0 810 1012.49997" height="1350" preserveAspectRatio="xMidYMid meet" version="1.2"><defs><clipPath id="5f45fc190e"><path d="M 0.199219 0 L 108 0 L 108 17 L 0.199219 17 Z M 0.199219 0 "/></clipPath><clipPath id="1f087bb97a"><path d="M -198.101562 16.757812 L 107.367188 16.796875 L 107.375 -29.351562 C 107.375 -50.816406 89.980469 -68.226562 68.507812 -68.226562 L -198.089844 -68.257812 Z M -198.101562 16.757812 "/></clipPath><linearGradient x1="330.012643" gradientTransform="matrix(0.626876,0,0,0.626915,-206.677149,-164.571065)" y1="221.464" x2="500.980002" gradientUnits="userSpaceOnUse" y2="221.464" id="594848474f"><stop style="stop-color:#587f26;stop-opacity:1;" offset="0"/><stop style="stop-color:#577e26;stop-opacity:1;" offset="0.03125"/><stop style="stop-color:#577d26;stop-opacity:1;" offset="0.0625"/><stop style="stop-color:#567c26;stop-opacity:1;" offset="0.09375"/><stop style="stop-color:#557b26;stop-opacity:1;" offset="0.125"/><stop style="stop-color:#557a26;stop-opacity:1;" offset="0.15625"/><stop style="stop-color:#547926;stop-opacity:1;" offset="0.1875"/><stop style="stop-color:#537826;stop-opacity:1;" offset="0.21875"/><stop style="stop-color:#537726;stop-opacity:1;" offset="0.25"/><stop style="stop-color:#527726;stop-opacity:1;" offset="0.28125"/><stop style="stop-color:#517626;stop-opacity:1;" offset="0.3125"/><stop style="stop-color:#517526;stop-opacity:1;" offset="0.34375"/><stop style="stop-color:#507426;stop-opacity:1;" offset="0.375"/><stop style="stop-color:#4f7326;stop-opacity:1;" offset="0.40625"/><stop style="stop-color:#4f7226;stop-opacity:1;" offset="0.4375"/><stop style="stop-color:#4e7126;stop-opacity:1;" offset="0.46875"/><stop style="stop-color:#4d7026;stop-opacity:1;" offset="0.5"/><stop style="stop-color:#4d6f26;stop-opacity:1;" offset="0.53125"/><stop style="stop-color:#4c6e26;stop-opacity:1;" offset="0.5625"/><stop style="stop-color:#4b6d26;stop-opacity:1;" offset="0.59375"/><stop style="stop-color:#4b6c26;stop-opacity:1;" offset="0.625"/><stop style="stop-color:#4a6b26;stop-opacity:1;" offset="0.65625"/><stop style="stop-color:#496a26;stop-opacity:1;" offset="0.6875"/><stop style="stop-color:#486926;stop-opacity:1;" offset="0.71875"/><stop style="stop-color:#486826;stop-opacity:1;" offset="0.75"/><stop style="stop-color:#476726;stop-opacity:1;" offset="0.78125"/><stop style="stop-color:#466626;stop-opacity:1;" offset="0.8125"/><stop style="stop-color:#466526;stop-opacity:1;" offset="0.84375"/><stop style="stop-color:#456426;stop-opacity:1;" offset="0.875"/><stop style="stop-color:#446326;stop-opacity:1;" offset="0.90625"/><stop style="stop-color:#446226;stop-opacity:1;" offset="0.9375"/><stop style="stop-color:#436126;stop-opacity:1;" offset="0.96875"/><stop style="stop-color:#426026;stop-opacity:1;" offset="1"/></linearGradient></defs><g id="443da37c80"><g clip-rule="nonzero" clip-path="url(#5f45fc190e)"><g clip-rule="nonzero" clip-path="url(#1f087bb97a)"><path style=" stroke:none;fill-rule:nonzero;fill:url(#594848474f);" d="M 0.199219 0 L 0.199219 16.796875 L 107.375 16.796875 L 107.375 0 Z M 0.199219 0 "/></g></g><path style=" stroke:none;fill-rule:nonzero;fill:#353f2a;fill-opacity:1;" d="M 363.644531 422.101562 L 379.054688 422.101562 C 380.304688 422.808594 381.496094 423.46875 382.855469 424.03125 C 398.621094 430.824219 416.828125 429.226562 431.085938 422.101562 L 446.589844 422.101562 C 451.113281 422.132812 455.050781 425.023438 456.507812 429.296875 L 489.53125 525.867188 C 490.859375 529.742188 490.324219 532.226562 489.105469 534.382812 C 487.914062 536.539062 485.628906 538.359375 482.988281 539.25 C 480.304688 540.171875 477.433594 540.171875 475.148438 539.21875 C 472.871094 538.257812 470.953125 536.570312 469.632812 532.722656 L 454.222656 487.710938 C 451.8125 480.6875 441.402344 482.375 441.371094 489.828125 L 441.371094 673.519531 C 441.371094 678.453125 439.691406 681.304688 437.074219 683.492188 C 434.433594 685.710938 430.570312 687.035156 426.566406 687.035156 C 422.597656 687.035156 418.664062 685.710938 416.023438 683.492188 C 413.410156 681.304688 411.726562 678.453125 411.726562 673.519531 L 411.726562 572.140625 C 411.796875 568.394531 408.75 565.347656 405.019531 565.414062 C 401.382812 565.484375 398.476562 568.460938 398.5 572.140625 L 398.5 673.503906 C 398.5 678.441406 396.851562 681.289062 394.210938 683.476562 C 391.5625 685.699219 387.660156 687.019531 383.667969 687.019531 C 379.703125 687.019531 375.796875 685.699219 373.183594 683.476562 C 370.542969 681.289062 368.863281 678.441406 368.863281 673.503906 L 368.863281 489.816406 C 368.828125 482.359375 358.445312 480.675781 356.035156 487.699219 L 340.597656 532.710938 C 339.273438 536.558594 337.355469 538.25 335.070312 539.203125 C 332.792969 540.164062 329.917969 540.164062 327.277344 539.238281 C 324.59375 538.347656 322.347656 536.519531 321.128906 534.371094 C 319.902344 532.214844 319.375 529.734375 320.695312 525.855469 L 353.75 429.285156 C 355.183594 425.023438 359.121094 422.132812 363.644531 422.101562 Z M 363.644531 408.921875 C 353.535156 408.921875 344.445312 415.410156 341.203125 425.023438 L 308.21875 521.554688 C 305.832031 528.542969 306.5625 535.503906 309.570312 540.863281 C 312.574219 546.199219 317.496094 549.914062 322.925781 551.796875 C 328.335938 553.6875 334.492188 553.789062 340.140625 551.410156 C 345.757812 549.050781 350.722656 544.050781 353.097656 537.0625 L 355.640625 529.605469 L 355.640625 673.511719 C 355.640625 681.957031 359.316406 689.183594 364.730469 693.6875 C 370.117188 698.191406 376.933594 700.207031 383.644531 700.207031 C 390.375 700.207031 397.421875 698.449219 402.613281 693.6875 L 405.09375 691.398438 L 407.578125 693.6875 C 412.761719 698.449219 419.839844 700.207031 426.546875 700.207031 C 433.292969 700.207031 440.097656 698.191406 445.484375 693.6875 C 450.910156 689.183594 454.574219 681.957031 454.574219 673.511719 L 454.574219 529.601562 L 457.085938 537.054688 C 459.5 544.007812 464.421875 549.042969 470.078125 551.402344 C 475.734375 553.789062 481.851562 553.6875 487.273438 551.792969 C 492.722656 549.910156 497.609375 546.195312 500.625 540.859375 C 503.628906 535.496094 504.390625 528.539062 501.976562 521.546875 L 468.992188 425.015625 C 465.75 415.40625 456.6875 408.917969 446.578125 408.917969 L 429.421875 408.917969 C 428.261719 408.917969 427.167969 409.214844 426.179688 409.738281 C 414.90625 416.167969 400.949219 417.425781 388.097656 411.855469 C 386.675781 411.265625 385.324219 410.601562 384.0625 409.839844 C 383.039062 409.25 381.886719 408.917969 380.691406 408.917969 L 363.644531 408.917969 Z M 363.644531 408.921875 "/><path style=" stroke:none;fill-rule:evenodd;fill:#353f2a;fill-opacity:1;" d="M 392.964844 328.851562 C 400.765625 325.773438 409.726562 325.671875 418.09375 329.285156 C 434.847656 336.542969 442.488281 355.71875 435.28125 372.484375 C 428.042969 389.246094 408.800781 396.902344 392.046875 389.675781 C 375.347656 382.457031 367.78125 363.171875 374.984375 346.484375 C 378.589844 338.09375 385.167969 331.96875 392.964844 328.851562 Z M 388.144531 316.664062 C 377.199219 321.042969 367.878906 329.546875 362.855469 341.210938 C 352.804688 364.507812 363.574219 391.796875 386.824219 401.839844 C 410.121094 411.867188 437.292969 401.074219 447.375 377.75 C 457.386719 354.425781 446.648438 327.199219 423.339844 317.128906 C 411.707031 312.09375 399.117188 312.289062 388.144531 316.664062 Z M 388.144531 316.664062 "/></g></svg>