<svg xmlns="http://www.w3.org/2000/svg" xmlns:xlink="http://www.w3.org/1999/xlink" width="1080" zoomAndPan="magnify" viewBox="0 0 810 1012.49997" height="1350" preserveAspectRatio="xMidYMid meet" version="1.2"><defs><clipPath id="e387bd4053"><path d="M 0.199219 0 L 108 0 L 108 17 L 0.199219 17 Z M 0.199219 0 "/></clipPath><clipPath id="a371bff231"><path d="M -198.101562 16.757812 L 107.367188 16.796875 L 107.375 -29.351562 C 107.375 -50.816406 89.980469 -68.226562 68.507812 -68.226562 L -198.089844 -68.257812 Z M -198.101562 16.757812 "/></clipPath><linearGradient x1="330.012643" gradientTransform="matrix(0.626876,0,0,0.626915,-206.677149,-164.571065)" y1="221.464" x2="500.980002" gradientUnits="userSpaceOnUse" y2="221.464" id="246cd6565c"><stop style="stop-color:#587f26;stop-opacity:1;" offset="0"/><stop style="stop-color:#577e26;stop-opacity:1;" offset="0.03125"/><stop style="stop-color:#577d26;stop-opacity:1;" offset="0.0625"/><stop style="stop-color:#567c26;stop-opacity:1;" offset="0.09375"/><stop style="stop-color:#557b26;stop-opacity:1;" offset="0.125"/><stop style="stop-color:#557a26;stop-opacity:1;" offset="0.15625"/><stop style="stop-color:#547926;stop-opacity:1;" offset="0.1875"/><stop style="stop-color:#537826;stop-opacity:1;" offset="0.21875"/><stop style="stop-color:#537726;stop-opacity:1;" offset="0.25"/><stop style="stop-color:#527726;stop-opacity:1;" offset="0.28125"/><stop style="stop-color:#517626;stop-opacity:1;" offset="0.3125"/><stop style="stop-color:#517526;stop-opacity:1;" offset="0.34375"/><stop style="stop-color:#507426;stop-opacity:1;" offset="0.375"/><stop style="stop-color:#4f7326;stop-opacity:1;" offset="0.40625"/><stop style="stop-color:#4f7226;stop-opacity:1;" offset="0.4375"/><stop style="stop-color:#4e7126;stop-opacity:1;" offset="0.46875"/><stop style="stop-color:#4d7026;stop-opacity:1;" offset="0.5"/><stop style="stop-color:#4d6f26;stop-opacity:1;" offset="0.53125"/><stop style="stop-color:#4c6e26;stop-opacity:1;" offset="0.5625"/><stop style="stop-color:#4b6d26;stop-opacity:1;" offset="0.59375"/><stop style="stop-color:#4b6c26;stop-opacity:1;" offset="0.625"/><stop style="stop-color:#4a6b26;stop-opacity:1;" offset="0.65625"/><stop style="stop-color:#496a26;stop-opacity:1;" offset="0.6875"/><stop style="stop-color:#486926;stop-opacity:1;" offset="0.71875"/><stop style="stop-color:#486826;stop-opacity:1;" offset="0.75"/><stop style="stop-color:#476726;stop-opacity:1;" offset="0.78125"/><stop style="stop-color:#466626;stop-opacity:1;" offset="0.8125"/><stop style="stop-color:#466526;stop-opacity:1;" offset="0.84375"/><stop style="stop-color:#456426;stop-opacity:1;" offset="0.875"/><stop style="stop-color:#446326;stop-opacity:1;" offset="0.90625"/><stop style="stop-color:#446226;stop-opacity:1;" offset="0.9375"/><stop style="stop-color:#436126;stop-opacity:1;" offset="0.96875"/><stop style="stop-color:#426026;stop-opacity:1;" offset="1"/></linearGradient><clipPath id="3c994ad065"><path d="M 243 394.503906 L 567 394.503906 L 567 617 L 243 617 Z M 243 394.503906 "/></clipPath></defs><g id="4ccd6df574"><g clip-rule="nonzero" clip-path="url(#e387bd4053)"><g clip-rule="nonzero" clip-path="url(#a371bff231)"><path style=" stroke:none;fill-rule:nonzero;fill:url(#246cd6565c);" d="M 0.199219 0 L 0.199219 16.796875 L 107.375 16.796875 L 107.375 0 Z M 0.199219 0 "/></g></g><g clip-rule="nonzero" clip-path="url(#3c994ad065)"><path style=" stroke:none;fill-rule:nonzero;fill:#353f2a;fill-opacity:1;" d="M 337.988281 445.050781 C 325.980469 433.585938 314.292969 421.753906 302.625 409.941406 C 299.121094 406.390625 287.71875 398.917969 296 394.996094 C 299.996094 394.492188 306.125 402.589844 308.839844 405.273438 L 335.503906 431.867188 C 338.90625 435.199219 342.140625 439.058594 345.894531 441.976562 C 349.816406 441.414062 353.535156 440.285156 357.378906 439.398438 C 432.128906 422.160156 500.339844 447.949219 556.640625 496.824219 C 570.03125 508.445312 570.191406 505.152344 555.859375 517.484375 C 531.542969 538.417969 501.933594 557.257812 471.28125 567.199219 C 476.65625 572.214844 481.660156 577.539062 486.816406 582.765625 L 506.800781 602.902344 C 509.660156 605.828125 520.121094 612.855469 512.101562 616.414062 C 507.75 617.140625 502.398438 609.324219 499.625 606.554688 L 476.878906 583.65625 C 472.425781 579.109375 468.054688 573.914062 463.027344 570.03125 C 459.71875 570.578125 456.433594 571.550781 453.179688 572.359375 C 379.941406 590.511719 307.546875 565.945312 251.820312 516.191406 C 239.273438 504.992188 241.347656 505.964844 254.75 494.183594 C 280.417969 471.613281 306.246094 456.667969 337.988281 445.050781 Z M 396.84375 441.976562 C 381.785156 443.328125 367.105469 444.640625 352.445312 448.816406 C 355.925781 452.378906 359.386719 455.957031 362.925781 459.460938 C 377.230469 447.882812 393.0625 442.222656 411.589844 444.171875 C 444.9375 447.683594 470.53125 479.144531 466.867188 512.496094 C 465.335938 526.429688 460.230469 536.910156 451.246094 547.597656 C 455.699219 552.140625 460.058594 556.996094 464.789062 561.238281 C 468.824219 559.832031 472.875 558.460938 476.875 556.964844 C 506.457031 545.289062 533.003906 527.542969 556.953125 506.769531 C 553.5625 504.289062 550.445312 501.386719 547.238281 498.664062 C 504.796875 462.640625 453.269531 440.304688 396.84375 441.976562 Z M 343.46875 451.582031 C 314.386719 458.839844 272.792969 486.179688 252.425781 506.769531 C 295.363281 544.554688 338.664062 566.875 397.285156 570.652344 C 418.847656 570.679688 435.1875 569.257812 456.539062 563.417969 C 452.769531 560.070312 449.257812 556.421875 445.714844 552.839844 C 417.320312 575.34375 377.675781 572.917969 354.699219 543.765625 C 335.742188 519.710938 337.671875 487.488281 357.5 464.855469 C 354.089844 461.664062 346.992188 453.507812 343.769531 451.558594 Z M 401.449219 451.582031 C 390.78125 451.929688 376.609375 457.300781 368.8125 464.742188 L 368.695312 464.855469 C 373.179688 468.898438 377.367188 473.207031 381.585938 477.523438 C 409.671875 453.503906 456.070312 487.589844 433.929688 524.5625 C 433.175781 525.746094 432.402344 526.917969 431.695312 528.128906 C 436.195312 531.738281 441.445312 537.796875 445.714844 542.054688 C 465.542969 521.640625 462.929688 486.507812 442.957031 467.222656 C 432.703125 457.328125 415.980469 449.699219 401.449219 451.582031 Z M 362.925781 469.996094 C 323.1875 514.914062 374.761719 578.582031 426.367188 556 C 428.644531 555.003906 430.820312 553.75 433.128906 552.839844 C 435.433594 551.089844 437.859375 549.472656 440.0625 547.597656 C 435.949219 542.621094 431 538.113281 426.492188 533.472656 C 409.691406 545.75 387.390625 542.746094 375.105469 525.644531 C 367.132812 514.546875 366.410156 492.902344 376.726562 483.164062 C 371.859375 479.082031 367.910156 473.90625 362.925781 469.996094 Z M 401.449219 477.523438 C 396.28125 478.230469 391.074219 479.746094 387.015625 483.164062 C 390.730469 486.585938 394.167969 490.34375 397.730469 493.921875 L 422.03125 518.398438 C 423.46875 519.875 424.914062 521.273438 426.488281 522.609375 C 427.664062 520.523438 428.949219 518.441406 429.871094 516.230469 C 437.917969 496.894531 421.195312 474.660156 401.449219 477.523438 Z M 381.585938 488.796875 C 366.296875 512.996094 388.710938 540.804688 414.238281 531.78125 C 416.621094 530.769531 418.898438 529.550781 421.0625 528.128906 C 416.382812 523.683594 411.953125 518.964844 407.40625 514.378906 L 394.09375 501.210938 C 389.964844 497.046875 385.925781 492.742188 381.585938 488.796875 Z M 381.585938 488.796875 "/></g><path style=" stroke:none;fill-rule:nonzero;fill:#353f2a;fill-opacity:1;" d="M 398.890625 463.113281 C 398.699219 463.1875 398.5 463.238281 398.296875 463.269531 C 398.09375 463.296875 397.886719 463.304688 397.683594 463.292969 C 397.476562 463.277344 397.273438 463.238281 397.078125 463.179688 C 396.878906 463.121094 396.691406 463.042969 396.511719 462.941406 C 396.328125 462.84375 396.164062 462.722656 396.007812 462.585938 C 395.851562 462.449219 395.714844 462.296875 395.59375 462.132812 C 395.472656 461.964844 395.371094 461.785156 395.289062 461.597656 C 395.207031 461.410156 395.144531 461.210938 395.105469 461.011719 C 395.066406 460.808594 395.050781 460.601562 395.054688 460.398438 C 395.058594 460.191406 395.085938 459.988281 395.136719 459.789062 C 395.183594 459.585938 395.253906 459.394531 395.347656 459.210938 C 395.4375 459.023438 395.550781 458.851562 395.679688 458.691406 C 395.808594 458.53125 395.953125 458.386719 396.113281 458.257812 C 396.273438 458.128906 396.449219 458.019531 396.632812 457.925781 C 396.816406 457.835938 397.011719 457.765625 397.210938 457.714844 C 397.410156 457.667969 397.613281 457.640625 397.820312 457.636719 C 398.027344 457.632812 398.230469 457.648438 398.433594 457.6875 C 398.636719 457.730469 398.832031 457.789062 399.019531 457.871094 C 399.210938 457.957031 399.386719 458.058594 399.554688 458.179688 C 399.71875 458.300781 399.871094 458.4375 400.007812 458.59375 C 400.144531 458.75 400.261719 458.914062 400.363281 459.097656 C 400.460938 459.277344 400.542969 459.464844 400.601562 459.664062 C 400.660156 459.863281 400.695312 460.0625 400.710938 460.269531 C 400.722656 460.476562 400.714844 460.679688 400.683594 460.882812 C 400.609375 461.390625 400.410156 461.84375 400.089844 462.242188 C 399.769531 462.640625 399.371094 462.929688 398.890625 463.113281 Z M 398.890625 463.113281 "/><path style=" stroke:none;fill-rule:nonzero;fill:#353f2a;fill-opacity:1;" d="M 413.609375 463.570312 C 413.25 463.6875 412.882812 463.730469 412.507812 463.699219 C 412.132812 463.667969 411.777344 463.566406 411.445312 463.390625 C 411.109375 463.21875 410.820312 462.988281 410.578125 462.699219 C 410.335938 462.414062 410.160156 462.089844 410.046875 461.730469 C 409.933594 461.371094 409.894531 461.003906 409.929688 460.628906 C 409.964844 460.253906 410.066406 459.898438 410.242188 459.566406 C 410.417969 459.234375 410.652344 458.945312 410.941406 458.707031 C 411.234375 458.464844 411.558594 458.292969 411.917969 458.183594 C 412.277344 458.070312 412.644531 458.035156 413.019531 458.074219 C 413.394531 458.109375 413.75 458.21875 414.082031 458.394531 C 414.414062 458.574219 414.695312 458.808594 414.933594 459.101562 C 415.171875 459.394531 415.34375 459.722656 415.449219 460.082031 C 415.554688 460.433594 415.589844 460.796875 415.554688 461.164062 C 415.515625 461.527344 415.414062 461.875 415.238281 462.203125 C 415.066406 462.527344 414.839844 462.808594 414.558594 463.046875 C 414.277344 463.285156 413.960938 463.457031 413.609375 463.570312 Z M 413.609375 463.570312 "/><path style=" stroke:none;fill-rule:nonzero;fill:#353f2a;fill-opacity:1;" d="M 384.820312 467.683594 C 384.464844 467.8125 384.09375 467.867188 383.714844 467.851562 C 383.335938 467.835938 382.972656 467.746094 382.628906 467.582031 C 382.285156 467.417969 381.984375 467.199219 381.730469 466.914062 C 381.472656 466.632812 381.28125 466.3125 381.15625 465.953125 C 381.027344 465.59375 380.976562 465.226562 380.996094 464.84375 C 381.019531 464.464844 381.109375 464.101562 381.277344 463.761719 C 381.441406 463.417969 381.667969 463.121094 381.953125 462.867188 C 382.238281 462.613281 382.558594 462.425781 382.921875 462.304688 C 383.28125 462.179688 383.648438 462.132812 384.03125 462.15625 C 384.410156 462.179688 384.769531 462.277344 385.113281 462.445312 C 385.453125 462.613281 385.746094 462.84375 385.996094 463.128906 C 386.246094 463.417969 386.433594 463.742188 386.550781 464.101562 C 386.667969 464.457031 386.714844 464.816406 386.691406 465.1875 C 386.667969 465.558594 386.574219 465.910156 386.414062 466.242188 C 386.25 466.578125 386.035156 466.871094 385.757812 467.117188 C 385.484375 467.367188 385.171875 467.554688 384.820312 467.683594 Z M 384.820312 467.683594 "/><path style=" stroke:none;fill-rule:nonzero;fill:#353f2a;fill-opacity:1;" d="M 427.523438 468.539062 C 427.160156 468.617188 426.796875 468.621094 426.433594 468.554688 C 426.070312 468.484375 425.734375 468.347656 425.421875 468.144531 C 425.113281 467.941406 424.855469 467.6875 424.644531 467.382812 C 424.4375 467.078125 424.292969 466.742188 424.21875 466.378906 C 424.144531 466.015625 424.140625 465.652344 424.210938 465.289062 C 424.28125 464.925781 424.417969 464.589844 424.621094 464.277344 C 424.824219 463.96875 425.082031 463.710938 425.386719 463.503906 C 425.695312 463.296875 426.03125 463.15625 426.394531 463.082031 C 426.757812 463.007812 427.121094 463.007812 427.484375 463.078125 C 427.847656 463.148438 428.183594 463.285156 428.492188 463.492188 C 428.800781 463.695312 429.058594 463.953125 429.265625 464.261719 C 429.46875 464.570312 429.609375 464.90625 429.683594 465.269531 C 429.753906 465.628906 429.753906 465.988281 429.683594 466.347656 C 429.613281 466.707031 429.476562 467.042969 429.277344 467.347656 C 429.074219 467.652344 428.820312 467.910156 428.519531 468.117188 C 428.214844 468.324219 427.882812 468.464844 427.523438 468.539062 Z M 427.523438 468.539062 "/></g></svg>