<svg xmlns="http://www.w3.org/2000/svg" xmlns:xlink="http://www.w3.org/1999/xlink" width="1080" zoomAndPan="magnify" viewBox="0 0 810 1012.49997" height="1350" preserveAspectRatio="xMidYMid meet" version="1.2"><defs><clipPath id="fe460b1ca0"><path d="M 212.34375 401.109375 L 223.4375 401.109375 L 223.4375 417.289062 L 212.34375 417.289062 Z M 212.34375 401.109375 "/></clipPath><clipPath id="c32554cad2"><path d="M 0.34375 0.109375 L 11.4375 0.109375 L 11.4375 16.289062 L 0.34375 16.289062 Z M 0.34375 0.109375 "/></clipPath><clipPath id="1de7a3c5cb"><rect x="0" width="12" y="0" height="17"/></clipPath><clipPath id="fc61d9684d"><path d="M 422.980469 425.550781 L 430.003906 425.550781 L 430.003906 432.578125 L 422.980469 432.578125 Z M 422.980469 425.550781 "/></clipPath><clipPath id="4e9f467933"><path d="M 0.980469 0.550781 L 8.003906 0.550781 L 8.003906 7.578125 L 0.980469 7.578125 Z M 0.980469 0.550781 "/></clipPath><clipPath id="fc84eaf139"><rect x="0" width="9" y="0" height="8"/></clipPath></defs><g id="2b9e3db5fb"><g clip-rule="nonzero" clip-path="url(#fe460b1ca0)"><g transform="matrix(1,0,0,1,212,401)"><g clip-path="url(#1de7a3c5cb)"><g clip-rule="nonzero" clip-path="url(#c32554cad2)"><path style=" stroke:none;fill-rule:nonzero;fill:#ffffff;fill-opacity:1;" d="M 0.34375 0.109375 L 11.4375 0.109375 L 11.4375 16.277344 L 0.34375 16.277344 Z M 0.34375 0.109375 "/></g></g></g></g><path style=" stroke:none;fill-rule:nonzero;fill:#4c583f;fill-opacity:1;" d="M 328.0625 435.953125 C 314.226562 422.738281 300.753906 409.101562 287.308594 395.484375 C 283.269531 391.394531 270.125 382.78125 279.671875 378.261719 C 284.277344 377.679688 291.34375 387.015625 294.472656 390.105469 L 325.203125 420.757812 C 329.125 424.597656 332.851562 429.046875 337.179688 432.410156 C 341.699219 431.761719 345.984375 430.457031 350.414062 429.4375 C 436.570312 409.570312 515.183594 439.296875 580.078125 495.625 C 595.507812 509.019531 595.695312 505.222656 579.179688 519.4375 C 551.152344 543.566406 517.023438 565.277344 481.695312 576.734375 C 487.886719 582.519531 493.65625 588.65625 499.601562 594.679688 L 522.636719 617.886719 C 525.929688 621.257812 537.984375 629.359375 528.746094 633.460938 C 523.726562 634.300781 517.558594 625.289062 514.363281 622.09375 L 488.148438 595.703125 C 483.011719 590.464844 477.976562 584.476562 472.179688 580 C 468.367188 580.632812 464.582031 581.753906 460.828125 582.683594 C 376.417969 603.605469 292.980469 575.292969 228.75 517.945312 C 214.289062 505.039062 216.683594 506.160156 232.128906 492.578125 C 261.710938 466.566406 291.480469 449.339844 328.0625 435.953125 Z M 395.898438 432.40625 C 378.542969 433.96875 361.628906 435.476562 344.730469 440.292969 C 348.738281 444.402344 352.726562 448.523438 356.804688 452.5625 C 373.296875 439.21875 391.542969 432.695312 412.898438 434.941406 C 451.328125 438.988281 480.832031 475.25 476.605469 513.691406 C 474.839844 529.746094 468.957031 541.828125 458.601562 554.148438 C 463.734375 559.382812 468.761719 564.976562 474.214844 569.867188 C 478.863281 568.246094 483.53125 566.667969 488.140625 564.941406 C 522.234375 551.484375 552.832031 531.03125 580.4375 507.089844 C 576.527344 504.226562 572.9375 500.882812 569.242188 497.746094 C 520.324219 456.226562 460.933594 430.480469 395.898438 432.40625 Z M 334.378906 443.480469 C 300.863281 451.847656 252.921875 483.355469 229.449219 507.085938 C 278.9375 550.640625 328.84375 576.363281 396.410156 580.714844 C 421.261719 580.75 440.09375 579.113281 464.699219 572.378906 C 460.359375 568.519531 456.3125 564.316406 452.226562 560.1875 C 419.503906 586.121094 373.808594 583.328125 347.328125 549.730469 C 325.476562 522.003906 327.703125 484.867188 350.554688 458.777344 C 346.621094 455.101562 338.441406 445.699219 334.730469 443.453125 Z M 401.210938 443.480469 C 388.910156 443.882812 372.582031 450.070312 363.589844 458.648438 L 363.457031 458.78125 C 368.625 463.4375 373.453125 468.40625 378.316406 473.378906 C 410.683594 445.695312 464.160156 484.984375 438.644531 527.597656 C 437.773438 528.957031 436.886719 530.3125 436.070312 531.703125 C 441.253906 535.867188 447.304688 542.847656 452.226562 547.757812 C 475.078125 524.226562 472.070312 483.734375 449.050781 461.507812 C 437.230469 450.101562 417.957031 441.308594 401.210938 443.480469 Z M 356.804688 464.703125 C 311.003906 516.472656 370.449219 589.859375 429.929688 563.832031 C 432.550781 562.683594 435.0625 561.234375 437.722656 560.1875 C 440.378906 558.171875 443.171875 556.308594 445.714844 554.144531 C 440.96875 548.410156 435.265625 543.214844 430.070312 537.863281 C 410.707031 552.015625 385.003906 548.554688 370.84375 528.839844 C 361.652344 516.050781 360.824219 491.105469 372.714844 479.882812 C 367.105469 475.175781 362.550781 469.207031 356.804688 464.703125 Z M 401.210938 473.378906 C 395.25 474.191406 389.25 475.941406 384.574219 479.882812 C 388.855469 483.824219 392.816406 488.15625 396.921875 492.28125 L 424.929688 520.492188 C 426.585938 522.191406 428.253906 523.804688 430.070312 525.34375 C 431.421875 522.941406 432.90625 520.542969 433.964844 517.992188 C 443.242188 495.707031 423.96875 470.078125 401.210938 473.378906 Z M 378.3125 486.375 C 360.691406 514.265625 386.527344 546.316406 415.949219 535.917969 C 418.695312 534.75 421.320312 533.34375 423.816406 531.707031 C 418.417969 526.582031 413.316406 521.144531 408.074219 515.855469 L 392.730469 500.679688 C 387.96875 495.882812 383.316406 490.917969 378.3125 486.375 Z M 378.3125 486.375 "/><path style=" stroke:none;fill-rule:nonzero;fill:#4c583f;fill-opacity:1;" d="M 398.261719 456.769531 C 398.039062 456.855469 397.808594 456.914062 397.574219 456.949219 C 397.339844 456.984375 397.105469 456.992188 396.867188 456.976562 C 396.628906 456.957031 396.398438 456.917969 396.167969 456.847656 C 395.941406 456.78125 395.722656 456.6875 395.515625 456.574219 C 395.308594 456.457031 395.113281 456.320312 394.9375 456.164062 C 394.757812 456.007812 394.601562 455.832031 394.460938 455.640625 C 394.320312 455.445312 394.203125 455.242188 394.109375 455.023438 C 394.011719 454.804688 393.941406 454.582031 393.898438 454.347656 C 393.851562 454.113281 393.832031 453.878906 393.835938 453.640625 C 393.84375 453.402344 393.875 453.167969 393.933594 452.9375 C 393.988281 452.707031 394.070312 452.484375 394.175781 452.273438 C 394.28125 452.058594 394.410156 451.859375 394.558594 451.675781 C 394.707031 451.488281 394.875 451.324219 395.058594 451.171875 C 395.246094 451.023438 395.445312 450.898438 395.65625 450.792969 C 395.871094 450.6875 396.09375 450.605469 396.324219 450.550781 C 396.554688 450.492188 396.789062 450.464844 397.027344 450.457031 C 397.265625 450.453125 397.5 450.472656 397.734375 450.519531 C 397.964844 450.566406 398.191406 450.636719 398.410156 450.730469 C 398.628906 450.828125 398.832031 450.945312 399.023438 451.085938 C 399.214844 451.222656 399.390625 451.382812 399.546875 451.5625 C 399.707031 451.738281 399.839844 451.933594 399.957031 452.140625 C 400.070312 452.347656 400.164062 452.566406 400.230469 452.796875 C 400.296875 453.023438 400.339844 453.257812 400.355469 453.492188 C 400.371094 453.730469 400.363281 453.964844 400.328125 454.203125 C 400.242188 454.785156 400.011719 455.304688 399.644531 455.765625 C 399.273438 456.226562 398.8125 456.5625 398.261719 456.769531 Z M 398.261719 456.769531 "/><path style=" stroke:none;fill-rule:nonzero;fill:#4c583f;fill-opacity:1;" d="M 415.222656 457.300781 C 414.8125 457.433594 414.386719 457.480469 413.957031 457.445312 C 413.523438 457.410156 413.113281 457.292969 412.730469 457.09375 C 412.34375 456.894531 412.011719 456.628906 411.730469 456.296875 C 411.453125 455.960938 411.246094 455.589844 411.117188 455.175781 C 410.988281 454.761719 410.941406 454.339844 410.980469 453.90625 C 411.023438 453.472656 411.140625 453.066406 411.34375 452.683594 C 411.546875 452.296875 411.816406 451.96875 412.152344 451.691406 C 412.484375 451.414062 412.859375 451.214844 413.273438 451.085938 C 413.691406 450.960938 414.113281 450.917969 414.546875 450.960938 C 414.976562 451.003906 415.382812 451.128906 415.765625 451.335938 C 416.148438 451.539062 416.476562 451.8125 416.75 452.148438 C 417.023438 452.484375 417.222656 452.859375 417.347656 453.277344 C 417.464844 453.683594 417.503906 454.101562 417.464844 454.523438 C 417.421875 454.945312 417.300781 455.34375 417.101562 455.71875 C 416.90625 456.097656 416.644531 456.421875 416.316406 456.695312 C 415.992188 456.96875 415.628906 457.167969 415.222656 457.300781 Z M 415.222656 457.300781 "/><path style=" stroke:none;fill-rule:nonzero;fill:#4c583f;fill-opacity:1;" d="M 382.042969 462.035156 C 381.632812 462.1875 381.207031 462.253906 380.769531 462.230469 C 380.332031 462.210938 379.914062 462.109375 379.515625 461.921875 C 379.121094 461.734375 378.773438 461.476562 378.480469 461.152344 C 378.183594 460.828125 377.964844 460.457031 377.820312 460.042969 C 377.671875 459.628906 377.613281 459.203125 377.636719 458.765625 C 377.660156 458.328125 377.765625 457.910156 377.957031 457.515625 C 378.148438 457.121094 378.410156 456.777344 378.738281 456.488281 C 379.066406 456.195312 379.4375 455.980469 379.851562 455.835938 C 380.265625 455.695312 380.695312 455.640625 381.132812 455.667969 C 381.570312 455.695312 381.984375 455.808594 382.378906 456.003906 C 382.769531 456.195312 383.113281 456.460938 383.398438 456.789062 C 383.6875 457.121094 383.898438 457.496094 384.039062 457.914062 C 384.171875 458.316406 384.226562 458.734375 384.199219 459.160156 C 384.171875 459.589844 384.066406 459.992188 383.878906 460.378906 C 383.691406 460.765625 383.441406 461.101562 383.125 461.386719 C 382.804688 461.671875 382.445312 461.890625 382.042969 462.035156 Z M 382.042969 462.035156 "/><path style=" stroke:none;fill-rule:nonzero;fill:#4c583f;fill-opacity:1;" d="M 431.261719 463.027344 C 430.84375 463.113281 430.425781 463.121094 430.003906 463.039062 C 429.585938 462.960938 429.199219 462.804688 428.839844 462.570312 C 428.484375 462.335938 428.183594 462.042969 427.941406 461.691406 C 427.703125 461.339844 427.539062 460.953125 427.453125 460.535156 C 427.367188 460.117188 427.363281 459.699219 427.441406 459.277344 C 427.523438 458.859375 427.679688 458.472656 427.917969 458.113281 C 428.152344 457.757812 428.445312 457.460938 428.800781 457.222656 C 429.152344 456.980469 429.539062 456.820312 429.957031 456.734375 C 430.375 456.648438 430.796875 456.648438 431.214844 456.730469 C 431.632812 456.8125 432.019531 456.972656 432.375 457.207031 C 432.730469 457.445312 433.027344 457.738281 433.265625 458.09375 C 433.503906 458.449219 433.664062 458.835938 433.75 459.253906 C 433.832031 459.667969 433.832031 460.082031 433.75 460.5 C 433.671875 460.914062 433.511719 461.296875 433.28125 461.652344 C 433.046875 462.003906 432.757812 462.300781 432.40625 462.539062 C 432.058594 462.777344 431.675781 462.9375 431.261719 463.027344 Z M 431.261719 463.027344 "/><g clip-rule="nonzero" clip-path="url(#fc61d9684d)"><g transform="matrix(1,0,0,1,422,425)"><g clip-path="url(#fc84eaf139)"><g clip-rule="nonzero" clip-path="url(#4e9f467933)"><path style=" stroke:none;fill-rule:nonzero;fill:#4c583f;fill-opacity:1;" d="M 0.980469 0.550781 L 8.003906 0.550781 L 8.003906 7.578125 L 0.980469 7.578125 Z M 0.980469 0.550781 "/></g></g></g></g></g></svg>