<svg xmlns="http://www.w3.org/2000/svg" xmlns:xlink="http://www.w3.org/1999/xlink" width="1080" zoomAndPan="magnify" viewBox="0 0 810 1012.49997" height="1350" preserveAspectRatio="xMidYMid meet" version="1.0"><defs><clipPath id="f844949a15"><path d="M 220.339844 321.339844 L 589.90625 321.339844 L 589.90625 690.90625 L 220.339844 690.90625 Z M 220.339844 321.339844 " clip-rule="nonzero"/></clipPath></defs><g clip-path="url(#f844949a15)"><path fill="#422b1c" d="M 278.671875 583.75 L 220.355469 640.898438 L 220.355469 476.84375 L 278.671875 476.84375 Z M 375.859375 547.984375 L 345.34375 521.9375 L 317.546875 547.597656 L 317.546875 399.089844 L 375.859375 399.089844 Z M 473.050781 515.71875 L 414.738281 574.03125 L 414.738281 321.339844 L 473.050781 321.339844 Z M 527.671875 512.023438 L 492.488281 476.84375 L 589.679688 476.84375 L 589.679688 574.03125 L 554.882812 539.238281 L 414.738281 678.21875 L 347.285156 619.515625 L 273.8125 690.660156 L 220.355469 690.660156 L 346.121094 567.421875 L 414.738281 625.347656 " fill-opacity="1" fill-rule="nonzero"/></g></svg>