<?xml version="1.0" encoding="utf-8"?>
<!-- Generator: Adobe Illustrator 26.0.0, SVG Export Plug-In . SVG Version: 6.00 Build 0)  -->
<svg version="1.1" id="Layer_1" xmlns="http://www.w3.org/2000/svg" xmlns:xlink="http://www.w3.org/1999/xlink" x="0px" y="0px"
	 viewBox="0 0 512 512" style="enable-background:new 0 0 512 512;" xml:space="preserve">
<style type="text/css">
	.st0{fill:#ffffff;}
	.st1{fill:#ffffff;}
</style>
<g>
	<g>
		<path class="st0" d="M253.9,296.5c-8,0-15.7-1.1-23.3-3.6c-9.9-3.2-18.8-8.2-26.6-14.8c-7.4-6.4-13.5-14.2-18.2-23
			c-4.6-8.9-7.2-18.2-8.2-28.1c-0.9-10.2,0.2-20.3,3.4-30.2s8.2-18.8,14.8-26.6c6.4-7.4,14.2-13.5,23-18.2
			c8.9-4.6,18.2-7.2,28.1-8.2c10.2-0.9,20.3,0.2,30.2,3.4c3.4,1.1,5.5,4.9,4.4,8.3c-1.1,3.4-4.9,5.5-8.3,4.4
			c-8.2-2.7-16.5-3.6-24.9-2.8c-8.2,0.8-15.9,3-23.3,6.8c-7.4,3.8-13.7,8.9-19,15c-5.5,6.4-9.7,13.8-12.1,21.8
			c-2.7,8.2-3.6,16.5-2.8,24.9c0.8,8.2,3,15.9,6.8,23.3c3.8,7.4,8.7,13.7,15,19c6.4,5.5,13.8,9.7,21.8,12.1
			c8.2,2.7,16.5,3.6,24.9,2.8c8.2-0.8,15.9-3,23.3-6.8c7.4-3.8,13.7-8.9,19-15c5.5-6.4,9.7-13.8,12.1-21.8
			c2.7-8.2,3.6-16.5,2.8-24.9c-0.4-3.6,2.3-6.8,6.1-7.2c3.6-0.4,6.8,2.3,7.2,6.1c0.9,10.2-0.2,20.3-3.4,30.2
			c-3.2,9.9-8.2,18.8-14.8,26.6c-6.4,7.4-14.2,13.7-23,18.2c-8.9,4.6-18.4,7.2-28.1,8.2C258.5,296.3,256.2,296.5,253.9,296.5
			L253.9,296.5z"/>
	</g>
	<g>
		<path class="st1" d="M253.9,380.3c-13.8,0-24.7-11-34-20.7c-6.1-6.3-12-12.3-17.6-14.6c-6.1-2.5-15.2-2.5-23.9-2.5
			c-13.8,0.2-28.3,0.2-37.8-9.1c-9.5-9.5-9.3-23.7-9.1-37.8c0-8.7,0.2-17.8-2.5-23.9c-2.3-5.7-8.3-11.6-14.6-17.6
			c-9.7-9.5-20.7-20.1-20.7-34.1c0-13.8,11-24.7,20.7-34c6.3-6.1,12.3-12,14.6-17.6c2.5-6.1,2.5-15.2,2.5-23.9
			c-0.2-13.8-0.2-28.3,9.1-37.8c9.5-9.5,23.7-9.3,37.8-9.1c8.7,0,17.8,0.2,23.9-2.5c5.7-2.3,11.6-8.3,17.6-14.6
			c9.5-9.7,20.1-20.7,34.1-20.7c13.8,0,24.7,11,34,20.7c6.1,6.3,12,12.3,17.6,14.6c6.1,2.5,15.2,2.5,23.9,2.5
			c13.8-0.2,28.3-0.2,37.8,9.1c9.5,9.5,9.3,23.7,9.1,37.8c0,8.7-0.2,17.8,2.5,23.9c2.3,5.7,8.3,11.6,14.6,17.6
			c9.7,9.5,20.7,20.1,20.7,34.1c0,13.8-11,24.7-20.7,34c-6.3,6.1-12.3,12-14.6,17.6c-2.5,6.1-2.5,15.2-2.5,23.9
			c0.2,13.8,0.2,28.3-9.1,37.8c-9.5,9.5-23.7,9.3-37.8,9.1c-8.7,0-17.8-0.2-23.9,2.5c-5.7,2.3-11.6,8.3-17.6,14.6
			C278.6,369.1,267.8,380.3,253.9,380.3z M183,329.1c8.5,0,17.1,0.4,24.3,3.4c8.2,3.4,15.4,10.6,22,17.6c8,8.2,16.3,16.7,24.5,16.7
			c8.3,0,16.5-8.5,24.5-16.7c6.8-7,13.8-14.2,22-17.6c8.5-3.6,19-3.4,29-3.4c11.8,0.2,22.8,0.2,28.3-5.3s5.3-16.5,5.3-28.3
			c0-10.1-0.2-20.5,3.4-29c3.4-8.2,10.6-15.4,17.6-22c8.2-8,16.7-16.3,16.7-24.5c0-8.3-8.5-16.5-16.7-24.5c-7-6.8-14.2-13.8-17.6-22
			c-3.6-8.5-3.4-19-3.4-29c0.2-11.8,0.2-22.8-5.3-28.3s-16.5-5.3-28.3-5.3c-10.1,0-20.5,0.2-29-3.4c-8.2-3.4-15.4-10.6-22-17.6
			c-8-8.2-16.1-16.7-24.5-16.7s-16.5,8.5-24.5,16.7c-6.8,7-13.8,14.2-22,17.6c-8.5,3.6-19,3.4-29,3.4c-11.8-0.2-22.8-0.2-28.3,5.3
			c-5.5,5.5-5.3,16.5-5.3,28.3c0,10.1,0.2,20.5-3.4,29c-3.4,8.2-10.6,15.4-17.6,22c-8.2,8-16.7,16.1-16.7,24.5s8.5,16.5,16.7,24.5
			c7,6.8,14.2,13.8,17.6,22c3.6,8.5,3.4,19,3.4,29c-0.2,11.8-0.2,22.8,5.3,28.3c5.5,5.5,16.5,5.3,28.3,5.3H183z"/>
	</g>
	<g>
		<path class="st1" d="M324.1,452.6c-1.3,0-2.8-0.4-4-0.9l-65.3-34.5l-65.3,34.5c-2.7,1.3-5.9,1.3-8.3-0.2c-2.7-1.5-4.2-4.4-4.2-7.4
			v-73.6c0-3.6,3-6.6,6.6-6.6c3.6,0,6.6,3,6.6,6.6v65.6l64.5-34.1l64.5,34.1v-65.6c0-3.6,3-6.6,6.6-6.6s6.6,3,6.6,6.6V444
			c0,3-1.5,5.7-4.2,7.4C327.1,452.2,325.6,452.6,324.1,452.6L324.1,452.6z"/>
	</g>
	<g>
		<path class="st0" d="M252.6,246.4l-39.8-39.8c-2.7-2.7-2.7-6.8,0-9.3c2.7-2.7,6.8-2.7,9.3,0l30.4,30.4l72.1-71.9
			c2.7-2.7,6.8-2.7,9.5,0c2.7,2.7,2.7,6.8,0,9.3L252.6,246.4z"/>
	</g>
</g>
</svg>
