<svg xmlns="http://www.w3.org/2000/svg" xmlns:xlink="http://www.w3.org/1999/xlink" width="1080" zoomAndPan="magnify" viewBox="0 0 810 1012.49997" height="1350" preserveAspectRatio="xMidYMid meet" version="1.2"><defs><clipPath id="ff6d182177"><path d="M 182 277.984375 L 621 277.984375 L 621 717 L 182 717 Z M 182 277.984375 "/></clipPath><clipPath id="3da47e83f0"><path d="M 212.34375 401.109375 L 223.4375 401.109375 L 223.4375 417.289062 L 212.34375 417.289062 Z M 212.34375 401.109375 "/></clipPath><clipPath id="55c94eb7f8"><path d="M 0.34375 0.109375 L 11.4375 0.109375 L 11.4375 16.289062 L 0.34375 16.289062 Z M 0.34375 0.109375 "/></clipPath><clipPath id="b5bd1b0a94"><rect x="0" width="12" y="0" height="17"/></clipPath></defs><g id="8796ef1617"><g clip-rule="nonzero" clip-path="url(#ff6d182177)"><path style=" stroke:none;fill-rule:nonzero;fill:#ffffff;fill-opacity:1;" d="M 401.570312 277.984375 C 396.851562 277.980469 392.136719 278.128906 387.429688 278.429688 C 382.71875 278.726562 378.023438 279.179688 373.34375 279.785156 C 368.660156 280.386719 364.007812 281.140625 359.375 282.046875 C 354.742188 282.949219 350.144531 284.003906 345.582031 285.207031 C 341.015625 286.410156 336.496094 287.757812 332.019531 289.25 C 327.542969 290.746094 323.121094 292.382812 318.75 294.164062 C 314.378906 295.945312 310.070312 297.863281 305.824219 299.925781 C 301.578125 301.984375 297.402344 304.179688 293.300781 306.507812 C 289.195312 308.835938 285.171875 311.296875 281.226562 313.886719 C 277.28125 316.476562 273.421875 319.191406 269.652344 322.03125 C 265.882812 324.871094 262.210938 327.828125 258.632812 330.90625 C 255.054688 333.980469 251.578125 337.171875 248.207031 340.472656 C 244.832031 343.773438 241.570312 347.183594 238.421875 350.695312 C 235.269531 354.207031 232.234375 357.816406 229.316406 361.527344 C 226.398438 365.234375 223.601562 369.035156 220.929688 372.925781 C 218.257812 376.816406 215.714844 380.789062 213.300781 384.84375 C 210.882812 388.894531 208.601562 393.023438 206.453125 397.226562 C 204.304688 401.429688 202.296875 405.695312 200.421875 410.027344 C 198.550781 414.359375 196.820312 418.746094 195.230469 423.191406 C 193.644531 427.636719 192.199219 432.125 190.902344 436.664062 C 189.605469 441.199219 188.453125 445.773438 187.453125 450.386719 C 186.449219 455 185.597656 459.636719 184.894531 464.304688 C 184.195312 468.972656 183.644531 473.65625 183.246094 478.359375 C 182.847656 483.0625 182.597656 487.769531 182.503906 492.488281 C 182.410156 497.207031 182.46875 501.925781 182.679688 506.640625 C 182.890625 511.351562 183.253906 516.054688 183.769531 520.746094 C 184.285156 525.4375 184.949219 530.109375 185.765625 534.757812 C 186.582031 539.402344 187.550781 544.019531 188.664062 548.605469 C 189.78125 553.191406 191.042969 557.738281 192.453125 562.242188 C 193.863281 566.746094 195.417969 571.199219 197.113281 575.601562 C 198.8125 580.003906 200.652344 584.347656 202.628906 588.632812 C 204.609375 592.917969 206.722656 597.132812 208.976562 601.28125 L 182.957031 698.976562 C 182.800781 699.554688 182.6875 700.140625 182.609375 700.730469 C 182.53125 701.324219 182.492188 701.921875 182.492188 702.519531 C 182.492188 703.117188 182.53125 703.710938 182.609375 704.304688 C 182.6875 704.894531 182.804688 705.480469 182.960938 706.058594 C 183.117188 706.636719 183.308594 707.199219 183.539062 707.753906 C 183.765625 708.304688 184.03125 708.839844 184.328125 709.355469 C 184.628906 709.875 184.960938 710.371094 185.324219 710.84375 C 185.6875 711.320312 186.082031 711.765625 186.503906 712.191406 C 186.925781 712.613281 187.375 713.007812 187.847656 713.371094 C 188.324219 713.734375 188.820312 714.066406 189.335938 714.363281 C 189.855469 714.664062 190.390625 714.929688 190.941406 715.15625 C 191.492188 715.386719 192.058594 715.578125 192.636719 715.734375 C 193.214844 715.886719 193.796875 716.003906 194.390625 716.082031 C 194.984375 716.160156 195.578125 716.199219 196.175781 716.203125 C 196.773438 716.203125 197.371094 716.164062 197.960938 716.085938 C 198.554688 716.007812 199.140625 715.890625 199.71875 715.738281 L 297.414062 689.71875 C 301.066406 691.699219 304.769531 693.574219 308.53125 695.34375 C 312.289062 697.113281 316.09375 698.773438 319.949219 700.324219 C 323.800781 701.878906 327.695312 703.320312 331.632812 704.652344 C 335.566406 705.984375 339.539062 707.203125 343.542969 708.304688 C 347.546875 709.410156 351.582031 710.402344 355.640625 711.277344 C 359.703125 712.15625 363.785156 712.914062 367.890625 713.558594 C 371.996094 714.203125 376.113281 714.726562 380.25 715.136719 C 384.382812 715.546875 388.527344 715.839844 392.675781 716.011719 C 396.828125 716.1875 400.980469 716.242188 405.132812 716.179688 C 409.289062 716.117188 413.4375 715.9375 417.582031 715.636719 C 421.726562 715.339844 425.855469 714.921875 429.976562 714.390625 C 434.097656 713.855469 438.199219 713.207031 442.28125 712.4375 C 446.367188 711.671875 450.421875 710.789062 454.457031 709.792969 C 458.488281 708.792969 462.492188 707.683594 466.460938 706.457031 C 470.429688 705.230469 474.363281 703.894531 478.253906 702.445312 C 482.148438 700.996094 486 699.4375 489.804688 697.769531 C 493.609375 696.101562 497.363281 694.328125 501.066406 692.445312 C 504.773438 690.566406 508.417969 688.578125 512.011719 686.492188 C 515.601562 684.402344 519.128906 682.210938 522.597656 679.921875 C 526.0625 677.632812 529.460938 675.246094 532.792969 672.761719 C 536.125 670.28125 539.382812 667.703125 542.566406 665.035156 C 545.75 662.367188 548.855469 659.609375 551.882812 656.765625 C 554.910156 653.921875 557.855469 650.992188 560.71875 647.980469 C 563.578125 644.964844 566.351562 641.875 569.035156 638.703125 C 571.722656 635.535156 574.3125 632.289062 576.816406 628.972656 C 579.316406 625.65625 581.71875 622.269531 584.027344 618.8125 C 586.335938 615.359375 588.542969 611.84375 590.652344 608.261719 C 592.757812 604.683594 594.765625 601.046875 596.664062 597.351562 C 598.566406 593.65625 600.359375 589.910156 602.046875 586.113281 C 603.734375 582.320312 605.316406 578.476562 606.785156 574.589844 C 608.253906 570.707031 609.613281 566.78125 610.859375 562.816406 C 612.105469 558.855469 613.238281 554.859375 614.253906 550.832031 C 615.273438 546.804688 616.179688 542.75 616.964844 538.671875 C 617.753906 534.59375 618.425781 530.492188 618.980469 526.375 C 619.535156 522.257812 619.972656 518.128906 620.292969 513.988281 C 620.613281 509.84375 620.816406 505.695312 620.902344 501.542969 C 620.984375 497.390625 620.953125 493.238281 620.800781 489.085938 C 620.648438 484.933594 620.378906 480.789062 619.992188 476.652344 C 619.605469 472.515625 619.097656 468.394531 618.476562 464.285156 C 617.855469 460.179688 617.117188 456.089844 616.261719 452.027344 C 615.40625 447.960938 614.4375 443.921875 613.355469 439.910156 C 612.269531 435.902344 611.070312 431.925781 609.761719 427.980469 C 608.449219 424.039062 607.03125 420.136719 605.496094 416.277344 C 603.964844 412.414062 602.324219 408.597656 600.574219 404.832031 C 598.824219 401.0625 596.96875 397.347656 595.007812 393.683594 C 593.046875 390.019531 590.984375 386.417969 588.820312 382.871094 C 586.652344 379.328125 584.386719 375.84375 582.023438 372.429688 C 579.660156 369.011719 577.203125 365.664062 574.648438 362.390625 C 572.09375 359.113281 569.449219 355.910156 566.710938 352.785156 C 563.976562 349.660156 561.152344 346.613281 558.242188 343.648438 C 555.332031 340.679688 552.34375 337.800781 549.269531 335.003906 C 546.195312 332.210938 543.042969 329.503906 539.816406 326.886719 C 536.589844 324.269531 533.292969 321.75 529.921875 319.320312 C 526.550781 316.890625 523.113281 314.5625 519.609375 312.328125 C 516.105469 310.09375 512.542969 307.964844 508.917969 305.933594 C 505.292969 303.902344 501.613281 301.976562 497.878906 300.15625 C 494.144531 298.335938 490.363281 296.621094 486.53125 295.015625 C 482.699219 293.410156 478.824219 291.914062 474.90625 290.527344 C 470.992188 289.144531 467.039062 287.871094 463.046875 286.710938 C 459.058594 285.546875 455.039062 284.503906 450.992188 283.570312 C 446.941406 282.636719 442.871094 281.820312 438.777344 281.121094 C 434.679688 280.421875 430.570312 279.835938 426.441406 279.371094 C 422.3125 278.90625 418.175781 278.554688 414.027344 278.324219 C 409.878906 278.09375 405.726562 277.980469 401.570312 277.984375 Z M 401.570312 688.816406 C 393.226562 688.804688 384.914062 688.25 376.640625 687.152344 C 368.363281 686.054688 360.195312 684.425781 352.136719 682.257812 C 344.074219 680.09375 336.1875 677.414062 328.476562 674.21875 C 320.765625 671.023438 313.296875 667.339844 306.066406 663.164062 C 303.949219 661.941406 301.667969 661.332031 299.21875 661.332031 C 298.027344 661.328125 296.851562 661.484375 295.699219 661.796875 L 215.480469 683.1875 L 236.871094 602.964844 C 237.335938 601.214844 237.449219 599.441406 237.214844 597.644531 C 236.976562 595.851562 236.40625 594.167969 235.5 592.597656 C 233.765625 589.578125 232.117188 586.511719 230.550781 583.402344 C 228.980469 580.289062 227.5 577.140625 226.105469 573.949219 C 224.710938 570.757812 223.402344 567.527344 222.183594 564.265625 C 220.964844 561.003906 219.835938 557.710938 218.796875 554.386719 C 217.757812 551.0625 216.808594 547.710938 215.953125 544.335938 C 215.097656 540.957031 214.332031 537.5625 213.660156 534.144531 C 212.988281 530.726562 212.410156 527.292969 211.925781 523.84375 C 211.441406 520.394531 211.050781 516.933594 210.757812 513.460938 C 210.460938 509.992188 210.261719 506.515625 210.15625 503.035156 C 210.050781 499.554688 210.039062 496.070312 210.121094 492.589844 C 210.207031 489.105469 210.382812 485.628906 210.65625 482.15625 C 210.929688 478.683594 211.300781 475.222656 211.761719 471.769531 C 212.222656 468.316406 212.78125 464.878906 213.429688 461.457031 C 214.078125 458.035156 214.824219 454.632812 215.65625 451.253906 C 216.492188 447.871094 217.417969 444.515625 218.4375 441.183594 C 219.457031 437.851562 220.566406 434.550781 221.761719 431.28125 C 222.960938 428.011719 224.25 424.777344 225.621094 421.574219 C 226.996094 418.375 228.457031 415.214844 230.007812 412.09375 C 231.554688 408.972656 233.183594 405.898438 234.898438 402.867188 C 236.613281 399.832031 238.410156 396.851562 240.289062 393.917969 C 242.164062 390.984375 244.121094 388.101562 246.15625 385.277344 C 248.191406 382.449219 250.300781 379.679688 252.488281 376.96875 C 254.671875 374.253906 256.929688 371.605469 259.261719 369.015625 C 261.589844 366.425781 263.988281 363.902344 266.457031 361.445312 C 268.925781 358.988281 271.457031 356.597656 274.058594 354.277344 C 276.65625 351.957031 279.316406 349.710938 282.035156 347.535156 C 284.757812 345.359375 287.535156 343.261719 290.371094 341.238281 C 293.203125 339.214844 296.09375 337.269531 299.035156 335.40625 C 301.976562 333.539062 304.964844 331.753906 308.003906 330.050781 C 311.042969 328.347656 314.125 326.730469 317.25 325.195312 C 320.378906 323.660156 323.546875 322.210938 326.75 320.851562 C 329.957031 319.488281 333.195312 318.214844 336.472656 317.027344 C 339.746094 315.84375 343.054688 314.75 346.386719 313.742188 C 349.722656 312.738281 353.082031 311.824219 356.46875 311.003906 C 359.851562 310.179688 363.257812 309.453125 366.683594 308.816406 C 370.105469 308.179688 373.546875 307.636719 377 307.1875 C 380.453125 306.742188 383.917969 306.386719 387.390625 306.125 C 390.863281 305.867188 394.34375 305.703125 397.824219 305.632812 C 401.308594 305.5625 404.789062 305.585938 408.269531 305.707031 C 411.75 305.828125 415.226562 306.042969 418.695312 306.351562 C 422.164062 306.660156 425.625 307.0625 429.070312 307.5625 C 432.519531 308.058594 435.949219 308.652344 439.367188 309.335938 C 442.78125 310.023438 446.175781 310.800781 449.546875 311.667969 C 452.917969 312.539062 456.265625 313.5 459.585938 314.554688 C 462.90625 315.605469 466.195312 316.75 469.453125 317.980469 C 472.710938 319.214844 475.933594 320.53125 479.121094 321.941406 C 482.304688 323.347656 485.453125 324.84375 488.554688 326.421875 C 491.660156 328 494.71875 329.664062 497.734375 331.410156 C 500.746094 333.15625 503.710938 334.984375 506.625 336.890625 C 509.539062 338.796875 512.398438 340.785156 515.207031 342.847656 C 518.011719 344.910156 520.757812 347.050781 523.449219 349.265625 C 526.136719 351.476562 528.765625 353.761719 531.328125 356.121094 C 533.894531 358.476562 536.394531 360.902344 538.824219 363.394531 C 541.257812 365.886719 543.621094 368.445312 545.914062 371.066406 C 548.207031 373.6875 550.425781 376.371094 552.574219 379.113281 C 554.71875 381.859375 556.789062 384.65625 558.785156 387.511719 C 560.777344 390.371094 562.691406 393.277344 564.527344 396.238281 C 566.363281 399.199219 568.117188 402.207031 569.789062 405.261719 C 571.460938 408.316406 573.046875 411.417969 574.550781 414.558594 C 576.050781 417.703125 577.46875 420.882812 578.796875 424.101562 C 580.125 427.324219 581.363281 430.578125 582.515625 433.863281 C 583.667969 437.152344 584.726562 440.46875 585.699219 443.8125 C 586.667969 447.15625 587.546875 450.527344 588.335938 453.921875 C 589.121094 457.3125 589.816406 460.726562 590.417969 464.15625 C 591.015625 467.585938 591.523438 471.03125 591.9375 474.492188 C 592.351562 477.949219 592.667969 481.417969 592.890625 484.894531 C 593.117188 488.367188 593.246094 491.847656 593.277344 495.332031 C 593.3125 498.8125 593.253906 502.296875 593.097656 505.773438 C 592.941406 509.253906 592.691406 512.726562 592.34375 516.195312 C 592 519.660156 591.558594 523.113281 591.027344 526.554688 C 590.492188 529.996094 589.867188 533.421875 589.144531 536.832031 C 588.425781 540.238281 587.613281 543.625 586.707031 546.988281 C 585.804688 550.351562 584.808594 553.6875 583.71875 556.996094 C 582.632812 560.304688 581.457031 563.582031 580.191406 566.828125 C 578.925781 570.074219 577.574219 573.28125 576.132812 576.453125 C 574.691406 579.625 573.164062 582.753906 571.554688 585.84375 C 569.941406 588.929688 568.25 591.972656 566.472656 594.96875 C 564.695312 597.964844 562.835938 600.910156 560.898438 603.804688 C 558.960938 606.695312 556.945312 609.535156 554.851562 612.320312 C 552.761719 615.105469 550.59375 617.832031 548.351562 620.496094 C 546.109375 623.164062 543.796875 625.765625 541.414062 628.308594 C 539.03125 630.847656 536.582031 633.320312 534.0625 635.726562 C 531.546875 638.132812 528.964844 640.46875 526.316406 642.734375 C 523.671875 645 520.96875 647.195312 518.203125 649.3125 C 515.4375 651.429688 512.617188 653.472656 509.738281 655.4375 C 506.863281 657.398438 503.9375 659.285156 500.957031 661.089844 C 497.976562 662.894531 494.953125 664.617188 491.878906 666.257812 C 488.804688 667.894531 485.691406 669.449219 482.53125 670.921875 C 479.375 672.390625 476.179688 673.773438 472.945312 675.066406 C 469.710938 676.363281 466.445312 677.570312 463.148438 678.6875 C 459.847656 679.804688 456.519531 680.832031 453.164062 681.769531 C 449.808594 682.703125 446.433594 683.546875 443.03125 684.300781 C 439.628906 685.050781 436.210938 685.710938 432.773438 686.273438 C 429.335938 686.839844 425.886719 687.3125 422.425781 687.6875 C 418.960938 688.066406 415.492188 688.347656 412.011719 688.535156 C 408.535156 688.722656 405.054688 688.816406 401.570312 688.816406 Z M 401.570312 688.816406 "/></g><path style=" stroke:none;fill-rule:nonzero;fill:#ffffff;fill-opacity:1;" d="M 419.6875 362.042969 C 418.144531 361.707031 416.59375 361.414062 415.03125 361.167969 C 413.472656 360.917969 411.90625 360.714844 410.335938 360.550781 C 408.765625 360.390625 407.1875 360.273438 405.609375 360.199219 C 404.03125 360.128906 402.453125 360.097656 400.875 360.113281 C 399.292969 360.128906 397.714844 360.1875 396.140625 360.289062 C 394.5625 360.390625 392.992188 360.539062 391.421875 360.730469 C 389.855469 360.917969 388.292969 361.152344 386.738281 361.429688 C 385.183594 361.707031 383.636719 362.027344 382.097656 362.390625 C 380.5625 362.757812 379.035156 363.164062 377.519531 363.609375 C 376.003906 364.058594 374.503906 364.550781 373.015625 365.082031 C 371.527344 365.617188 370.058594 366.1875 368.601562 366.804688 C 367.148438 367.417969 365.710938 368.074219 364.289062 368.769531 C 362.871094 369.460938 361.472656 370.195312 360.09375 370.96875 C 358.71875 371.742188 357.363281 372.550781 356.03125 373.398438 C 354.695312 374.25 353.386719 375.132812 352.105469 376.054688 C 350.820312 376.976562 349.566406 377.929688 348.335938 378.921875 C 347.105469 379.914062 345.902344 380.9375 344.730469 381.996094 C 343.558594 383.054688 342.414062 384.144531 341.300781 385.265625 C 340.191406 386.390625 339.109375 387.542969 338.0625 388.722656 C 337.011719 389.90625 336 391.117188 335.019531 392.355469 C 334.039062 393.59375 333.09375 394.859375 332.183594 396.148438 C 331.273438 397.441406 330.398438 398.757812 329.5625 400.097656 C 328.726562 401.4375 327.929688 402.800781 327.167969 404.183594 C 326.40625 405.570312 325.683594 406.972656 325.003906 408.398438 C 324.320312 409.824219 323.679688 411.265625 323.078125 412.726562 C 322.476562 414.1875 321.914062 415.664062 321.394531 417.15625 C 320.875 418.648438 320.398438 420.152344 319.960938 421.671875 C 319.527344 423.191406 319.132812 424.722656 318.78125 426.261719 C 318.433594 427.800781 318.125 429.351562 317.863281 430.910156 C 317.597656 432.464844 317.378906 434.03125 317.199219 435.601562 C 317.023438 437.167969 316.890625 438.742188 316.800781 440.320312 C 316.710938 441.898438 316.667969 443.476562 316.667969 445.054688 C 316.667969 445.957031 316.753906 446.847656 316.929688 447.726562 C 317.105469 448.609375 317.363281 449.464844 317.710938 450.296875 C 318.054688 451.128906 318.476562 451.917969 318.976562 452.664062 C 319.472656 453.414062 320.042969 454.105469 320.679688 454.738281 C 321.3125 455.375 322.003906 455.941406 322.753906 456.441406 C 323.5 456.941406 324.289062 457.363281 325.121094 457.707031 C 325.953125 458.050781 326.808594 458.3125 327.691406 458.488281 C 328.570312 458.664062 329.460938 458.75 330.359375 458.75 C 331.261719 458.75 332.152344 458.664062 333.03125 458.488281 C 333.914062 458.3125 334.769531 458.050781 335.601562 457.707031 C 336.433594 457.363281 337.222656 456.941406 337.96875 456.441406 C 338.71875 455.941406 339.410156 455.375 340.042969 454.738281 C 340.679688 454.105469 341.246094 453.414062 341.746094 452.664062 C 342.246094 451.917969 342.667969 451.128906 343.011719 450.296875 C 343.355469 449.464844 343.617188 448.609375 343.792969 447.726562 C 343.96875 446.847656 344.054688 445.957031 344.054688 445.054688 C 344.054688 443.304688 344.132812 441.554688 344.289062 439.808594 C 344.449219 438.0625 344.6875 436.328125 345.003906 434.601562 C 345.320312 432.878906 345.714844 431.171875 346.1875 429.484375 C 346.660156 427.796875 347.210938 426.132812 347.835938 424.496094 C 348.460938 422.859375 349.160156 421.253906 349.929688 419.679688 C 350.703125 418.105469 351.542969 416.570312 352.457031 415.074219 C 353.367188 413.574219 354.347656 412.125 355.390625 410.714844 C 356.4375 409.308594 357.542969 407.953125 358.714844 406.644531 C 359.882812 405.339844 361.109375 404.089844 362.390625 402.894531 C 363.675781 401.699219 365.011719 400.566406 366.398438 399.496094 C 367.785156 398.421875 369.21875 397.417969 370.695312 396.476562 C 372.175781 395.535156 373.695312 394.664062 375.253906 393.859375 C 376.8125 393.058594 378.402344 392.328125 380.027344 391.671875 C 381.65625 391.015625 383.304688 390.433594 384.984375 389.929688 C 386.664062 389.425781 388.363281 388.996094 390.078125 388.644531 C 391.796875 388.296875 393.527344 388.023438 395.269531 387.832031 C 397.011719 387.640625 398.757812 387.527344 400.511719 387.496094 C 402.265625 387.464844 404.015625 387.511719 405.761719 387.640625 C 407.511719 387.765625 409.25 387.972656 410.980469 388.261719 C 412.710938 388.546875 414.421875 388.914062 416.117188 389.355469 C 417.8125 389.800781 419.488281 390.320312 421.136719 390.914062 C 422.785156 391.511719 424.402344 392.183594 425.988281 392.925781 C 427.574219 393.671875 429.125 394.484375 430.636719 395.371094 C 432.152344 396.257812 433.621094 397.210938 435.046875 398.230469 C 436.472656 399.25 437.847656 400.332031 439.171875 401.480469 C 440.5 402.625 441.769531 403.828125 442.988281 405.09375 C 444.203125 406.355469 445.359375 407.667969 446.457031 409.039062 C 447.554688 410.40625 448.585938 411.820312 449.550781 413.28125 C 450.519531 414.746094 451.414062 416.25 452.246094 417.792969 C 453.074219 419.335938 453.832031 420.917969 454.515625 422.53125 C 455.199219 424.144531 455.8125 425.785156 456.347656 427.453125 C 456.878906 429.125 457.339844 430.816406 457.71875 432.527344 C 458.074219 434.175781 458.359375 435.839844 458.570312 437.515625 C 458.78125 439.1875 458.921875 440.871094 458.984375 442.558594 C 459.050781 444.246094 459.042969 445.933594 458.960938 447.617188 C 458.875 449.304688 458.71875 450.984375 458.492188 452.65625 C 458.261719 454.332031 457.960938 455.988281 457.585938 457.636719 C 457.210938 459.28125 456.765625 460.910156 456.246094 462.515625 C 455.730469 464.125 455.144531 465.707031 454.488281 467.261719 C 453.835938 468.820312 453.113281 470.34375 452.324219 471.835938 C 451.535156 473.328125 450.683594 474.785156 449.769531 476.203125 C 448.855469 477.625 447.878906 479 446.84375 480.332031 C 445.804688 481.667969 444.714844 482.953125 443.566406 484.191406 C 442.417969 485.429688 441.21875 486.613281 439.964844 487.746094 C 438.714844 488.878906 437.414062 489.957031 436.070312 490.976562 C 434.722656 491.996094 433.335938 492.953125 431.90625 493.851562 C 430.476562 494.75 429.011719 495.585938 427.507812 496.355469 C 426.003906 497.125 424.472656 497.828125 422.90625 498.464844 C 421.644531 498.9375 420.402344 499.460938 419.179688 500.027344 C 417.953125 500.597656 416.753906 501.207031 415.574219 501.867188 C 414.398438 502.523438 413.246094 503.226562 412.121094 503.96875 C 410.996094 504.714844 409.898438 505.496094 408.832031 506.324219 C 407.765625 507.148438 406.734375 508.015625 405.730469 508.917969 C 404.730469 509.820312 403.761719 510.761719 402.832031 511.738281 C 401.898438 512.710938 401.003906 513.722656 400.148438 514.765625 C 399.292969 515.808594 398.476562 516.878906 397.703125 517.984375 C 396.925781 519.085938 396.195312 520.21875 395.503906 521.378906 C 394.8125 522.535156 394.164062 523.71875 393.5625 524.925781 C 392.960938 526.132812 392.402344 527.359375 391.894531 528.609375 C 391.382812 529.859375 390.917969 531.125 390.503906 532.40625 C 390.089844 533.691406 389.722656 534.988281 389.402344 536.296875 C 389.082031 537.609375 388.8125 538.929688 388.59375 540.261719 C 388.375 541.589844 388.203125 542.929688 388.085938 544.273438 C 387.964844 545.617188 387.894531 546.960938 387.878906 548.3125 L 387.878906 551.871094 C 387.878906 552.769531 387.964844 553.660156 388.140625 554.542969 C 388.316406 555.425781 388.574219 556.28125 388.917969 557.113281 C 389.265625 557.941406 389.6875 558.734375 390.183594 559.480469 C 390.683594 560.226562 391.253906 560.917969 391.886719 561.554688 C 392.523438 562.191406 393.214844 562.757812 393.964844 563.257812 C 394.710938 563.757812 395.5 564.179688 396.332031 564.523438 C 397.160156 564.867188 398.019531 565.128906 398.898438 565.304688 C 399.78125 565.480469 400.671875 565.566406 401.570312 565.566406 C 402.472656 565.566406 403.363281 565.480469 404.242188 565.304688 C 405.125 565.128906 405.980469 564.867188 406.8125 564.523438 C 407.644531 564.179688 408.433594 563.757812 409.179688 563.257812 C 409.925781 562.757812 410.621094 562.191406 411.253906 561.554688 C 411.890625 560.917969 412.457031 560.226562 412.957031 559.480469 C 413.457031 558.734375 413.878906 557.941406 414.222656 557.113281 C 414.566406 556.28125 414.828125 555.425781 415.003906 554.542969 C 415.179688 553.660156 415.265625 552.769531 415.265625 551.871094 L 415.265625 548.3125 C 415.3125 546.972656 415.453125 545.648438 415.699219 544.332031 C 415.941406 543.015625 416.28125 541.722656 416.71875 540.457031 C 417.152344 539.191406 417.683594 537.964844 418.300781 536.78125 C 418.921875 535.59375 419.625 534.457031 420.414062 533.378906 C 421.203125 532.296875 422.070312 531.28125 423.011719 530.328125 C 423.953125 529.375 424.957031 528.5 426.03125 527.699219 C 427.101562 526.898438 428.230469 526.179688 429.410156 525.546875 C 430.589844 524.914062 431.808594 524.371094 433.070312 523.921875 C 435.164062 523.089844 437.226562 522.171875 439.25 521.175781 C 441.273438 520.179688 443.253906 519.101562 445.191406 517.945312 C 447.128906 516.789062 449.019531 515.558594 450.859375 514.253906 C 452.699219 512.945312 454.484375 511.570312 456.214844 510.121094 C 457.945312 508.671875 459.613281 507.15625 461.222656 505.574219 C 462.832031 503.992188 464.375 502.351562 465.855469 500.644531 C 467.332031 498.941406 468.742188 497.179688 470.078125 495.363281 C 471.417969 493.546875 472.679688 491.679688 473.871094 489.761719 C 475.058594 487.84375 476.167969 485.882812 477.203125 483.875 C 478.234375 481.871094 479.183594 479.824219 480.054688 477.742188 C 480.925781 475.660156 481.710938 473.546875 482.410156 471.402344 C 483.113281 469.257812 483.726562 467.089844 484.253906 464.894531 C 484.785156 462.703125 485.222656 460.492188 485.574219 458.261719 C 485.925781 456.03125 486.191406 453.792969 486.363281 451.542969 C 486.535156 449.292969 486.621094 447.042969 486.613281 444.785156 C 486.609375 442.527344 486.511719 440.277344 486.324219 438.027344 C 486.140625 435.777344 485.863281 433.539062 485.5 431.3125 C 485.136719 429.085938 484.683594 426.878906 484.144531 424.6875 C 483.601562 422.496094 482.976562 420.332031 482.261719 418.191406 C 481.550781 416.050781 480.753906 413.941406 479.871094 411.863281 C 478.992188 409.785156 478.027344 407.746094 476.984375 405.746094 C 475.941406 403.746094 474.820312 401.789062 473.621094 399.878906 C 472.421875 397.96875 471.144531 396.109375 469.796875 394.296875 C 468.449219 392.488281 467.03125 390.734375 465.542969 389.039062 C 464.058594 387.34375 462.503906 385.707031 460.886719 384.136719 C 459.269531 382.5625 457.589844 381.058594 455.851562 379.617188 C 454.113281 378.179688 452.320312 376.8125 450.472656 375.515625 C 448.625 374.21875 446.730469 373 444.785156 371.855469 C 442.84375 370.710938 440.855469 369.644531 438.824219 368.660156 C 436.796875 367.671875 434.730469 366.769531 432.628906 365.945312 C 430.527344 365.125 428.398438 364.386719 426.238281 363.734375 C 424.078125 363.085938 421.894531 362.519531 419.6875 362.042969 Z M 419.6875 362.042969 "/><path style=" stroke:none;fill-rule:nonzero;fill:#ffffff;fill-opacity:1;" d="M 422.113281 613.496094 C 422.113281 614.167969 422.082031 614.839844 422.015625 615.511719 C 421.949219 616.179688 421.851562 616.84375 421.71875 617.503906 C 421.585938 618.164062 421.425781 618.816406 421.230469 619.460938 C 421.035156 620.101562 420.808594 620.734375 420.550781 621.355469 C 420.292969 621.980469 420.003906 622.585938 419.6875 623.179688 C 419.371094 623.773438 419.023438 624.347656 418.652344 624.910156 C 418.277344 625.46875 417.878906 626.007812 417.449219 626.527344 C 417.023438 627.046875 416.574219 627.546875 416.097656 628.023438 C 415.621094 628.496094 415.125 628.949219 414.601562 629.375 C 414.082031 629.800781 413.542969 630.203125 412.984375 630.574219 C 412.425781 630.949219 411.847656 631.296875 411.253906 631.613281 C 410.660156 631.929688 410.054688 632.21875 409.433594 632.472656 C 408.8125 632.730469 408.179688 632.957031 407.535156 633.152344 C 406.890625 633.347656 406.238281 633.511719 405.578125 633.644531 C 404.917969 633.773438 404.253906 633.875 403.585938 633.9375 C 402.914062 634.003906 402.246094 634.039062 401.570312 634.039062 C 400.898438 634.039062 400.226562 634.003906 399.558594 633.9375 C 398.890625 633.875 398.222656 633.773438 397.5625 633.644531 C 396.90625 633.511719 396.253906 633.347656 395.609375 633.152344 C 394.964844 632.957031 394.332031 632.730469 393.710938 632.472656 C 393.089844 632.21875 392.480469 631.929688 391.886719 631.613281 C 391.296875 631.296875 390.71875 630.949219 390.160156 630.574219 C 389.601562 630.203125 389.058594 629.800781 388.539062 629.375 C 388.019531 628.949219 387.523438 628.496094 387.046875 628.023438 C 386.570312 627.546875 386.121094 627.046875 385.691406 626.527344 C 385.265625 626.007812 384.867188 625.46875 384.492188 624.910156 C 384.117188 624.347656 383.773438 623.773438 383.457031 623.179688 C 383.136719 622.585938 382.851562 621.980469 382.59375 621.355469 C 382.335938 620.734375 382.109375 620.101562 381.914062 619.460938 C 381.71875 618.816406 381.554688 618.164062 381.425781 617.503906 C 381.292969 616.84375 381.195312 616.179688 381.128906 615.511719 C 381.0625 614.839844 381.03125 614.167969 381.03125 613.496094 C 381.03125 612.824219 381.0625 612.152344 381.128906 611.484375 C 381.195312 610.8125 381.292969 610.148438 381.425781 609.488281 C 381.554688 608.828125 381.71875 608.175781 381.914062 607.535156 C 382.109375 606.890625 382.335938 606.257812 382.59375 605.636719 C 382.851562 605.015625 383.136719 604.40625 383.457031 603.8125 C 383.773438 603.21875 384.117188 602.644531 384.492188 602.085938 C 384.867188 601.523438 385.265625 600.984375 385.691406 600.464844 C 386.121094 599.945312 386.570312 599.445312 387.046875 598.972656 C 387.523438 598.496094 388.019531 598.042969 388.539062 597.617188 C 389.058594 597.191406 389.601562 596.789062 390.160156 596.417969 C 390.71875 596.042969 391.296875 595.699219 391.886719 595.378906 C 392.480469 595.0625 393.089844 594.777344 393.710938 594.519531 C 394.332031 594.261719 394.964844 594.035156 395.609375 593.839844 C 396.253906 593.644531 396.90625 593.480469 397.5625 593.351562 C 398.222656 593.21875 398.890625 593.121094 399.558594 593.054688 C 400.226562 592.988281 400.898438 592.953125 401.570312 592.953125 C 402.246094 592.953125 402.914062 592.988281 403.585938 593.054688 C 404.253906 593.121094 404.917969 593.21875 405.578125 593.351562 C 406.238281 593.480469 406.890625 593.644531 407.535156 593.839844 C 408.179688 594.035156 408.8125 594.261719 409.433594 594.519531 C 410.054688 594.777344 410.660156 595.0625 411.253906 595.378906 C 411.847656 595.699219 412.425781 596.042969 412.984375 596.417969 C 413.542969 596.789062 414.082031 597.191406 414.601562 597.617188 C 415.125 598.042969 415.621094 598.496094 416.097656 598.972656 C 416.574219 599.445312 417.023438 599.945312 417.449219 600.464844 C 417.878906 600.984375 418.277344 601.523438 418.652344 602.085938 C 419.023438 602.644531 419.371094 603.21875 419.6875 603.8125 C 420.003906 604.40625 420.292969 605.015625 420.550781 605.636719 C 420.808594 606.257812 421.035156 606.890625 421.230469 607.535156 C 421.425781 608.175781 421.585938 608.828125 421.71875 609.488281 C 421.851562 610.148438 421.949219 610.8125 422.015625 611.484375 C 422.082031 612.152344 422.113281 612.824219 422.113281 613.496094 Z M 422.113281 613.496094 "/><g clip-rule="nonzero" clip-path="url(#3da47e83f0)"><g transform="matrix(1,0,0,1,212,401)"><g clip-path="url(#b5bd1b0a94)"><g clip-rule="nonzero" clip-path="url(#55c94eb7f8)"><path style=" stroke:none;fill-rule:nonzero;fill:#ffffff;fill-opacity:1;" d="M 0.34375 0.109375 L 11.4375 0.109375 L 11.4375 16.277344 L 0.34375 16.277344 Z M 0.34375 0.109375 "/></g></g></g></g></g></svg>