<svg xmlns="http://www.w3.org/2000/svg" xmlns:xlink="http://www.w3.org/1999/xlink" width="1080" zoomAndPan="magnify" viewBox="0 0 810 1012.49997" height="1350" preserveAspectRatio="xMidYMid meet" version="1.2"><defs><clipPath id="8dc1c3370e"><path d="M 0.199219 0 L 108 0 L 108 17 L 0.199219 17 Z M 0.199219 0 "/></clipPath><clipPath id="d8ef99b71f"><path d="M -198.101562 16.757812 L 107.367188 16.796875 L 107.375 -29.351562 C 107.375 -50.816406 89.980469 -68.226562 68.507812 -68.226562 L -198.089844 -68.257812 Z M -198.101562 16.757812 "/></clipPath><linearGradient x1="330.012643" gradientTransform="matrix(0.626876,0,0,0.626915,-206.677149,-164.571065)" y1="221.464" x2="500.980002" gradientUnits="userSpaceOnUse" y2="221.464" id="d4a3efad69"><stop style="stop-color:#587f26;stop-opacity:1;" offset="0"/><stop style="stop-color:#577e26;stop-opacity:1;" offset="0.03125"/><stop style="stop-color:#577d26;stop-opacity:1;" offset="0.0625"/><stop style="stop-color:#567c26;stop-opacity:1;" offset="0.09375"/><stop style="stop-color:#557b26;stop-opacity:1;" offset="0.125"/><stop style="stop-color:#557a26;stop-opacity:1;" offset="0.15625"/><stop style="stop-color:#547926;stop-opacity:1;" offset="0.1875"/><stop style="stop-color:#537826;stop-opacity:1;" offset="0.21875"/><stop style="stop-color:#537726;stop-opacity:1;" offset="0.25"/><stop style="stop-color:#527726;stop-opacity:1;" offset="0.28125"/><stop style="stop-color:#517626;stop-opacity:1;" offset="0.3125"/><stop style="stop-color:#517526;stop-opacity:1;" offset="0.34375"/><stop style="stop-color:#507426;stop-opacity:1;" offset="0.375"/><stop style="stop-color:#4f7326;stop-opacity:1;" offset="0.40625"/><stop style="stop-color:#4f7226;stop-opacity:1;" offset="0.4375"/><stop style="stop-color:#4e7126;stop-opacity:1;" offset="0.46875"/><stop style="stop-color:#4d7026;stop-opacity:1;" offset="0.5"/><stop style="stop-color:#4d6f26;stop-opacity:1;" offset="0.53125"/><stop style="stop-color:#4c6e26;stop-opacity:1;" offset="0.5625"/><stop style="stop-color:#4b6d26;stop-opacity:1;" offset="0.59375"/><stop style="stop-color:#4b6c26;stop-opacity:1;" offset="0.625"/><stop style="stop-color:#4a6b26;stop-opacity:1;" offset="0.65625"/><stop style="stop-color:#496a26;stop-opacity:1;" offset="0.6875"/><stop style="stop-color:#486926;stop-opacity:1;" offset="0.71875"/><stop style="stop-color:#486826;stop-opacity:1;" offset="0.75"/><stop style="stop-color:#476726;stop-opacity:1;" offset="0.78125"/><stop style="stop-color:#466626;stop-opacity:1;" offset="0.8125"/><stop style="stop-color:#466526;stop-opacity:1;" offset="0.84375"/><stop style="stop-color:#456426;stop-opacity:1;" offset="0.875"/><stop style="stop-color:#446326;stop-opacity:1;" offset="0.90625"/><stop style="stop-color:#446226;stop-opacity:1;" offset="0.9375"/><stop style="stop-color:#436126;stop-opacity:1;" offset="0.96875"/><stop style="stop-color:#426026;stop-opacity:1;" offset="1"/></linearGradient><clipPath id="2cfa73e468"><path d="M 251 348.9375 L 554 348.9375 L 554 651 L 251 651 Z M 251 348.9375 "/></clipPath></defs><g id="ce26bed708"><g clip-rule="nonzero" clip-path="url(#8dc1c3370e)"><g clip-rule="nonzero" clip-path="url(#d8ef99b71f)"><path style=" stroke:none;fill-rule:nonzero;fill:url(#d4a3efad69);" d="M 0.199219 0 L 0.199219 16.796875 L 107.375 16.796875 L 107.375 0 Z M 0.199219 0 "/></g></g><g clip-rule="nonzero" clip-path="url(#2cfa73e468)"><path style=" stroke:none;fill-rule:nonzero;fill:#ffffff;fill-opacity:1;" d="M 402.628906 348.9375 C 399.378906 348.933594 396.132812 349.035156 392.886719 349.242188 C 389.644531 349.449219 386.410156 349.761719 383.1875 350.175781 C 379.960938 350.589844 376.753906 351.109375 373.566406 351.734375 C 370.375 352.355469 367.207031 353.082031 364.066406 353.910156 C 360.921875 354.738281 357.808594 355.667969 354.726562 356.695312 C 351.640625 357.726562 348.59375 358.855469 345.585938 360.082031 C 342.574219 361.308594 339.605469 362.628906 336.683594 364.046875 C 333.757812 365.46875 330.882812 366.976562 328.054688 368.582031 C 325.226562 370.1875 322.457031 371.882812 319.738281 373.664062 C 317.019531 375.449219 314.363281 377.320312 311.769531 379.273438 C 309.171875 381.230469 306.640625 383.265625 304.175781 385.386719 C 301.710938 387.507812 299.316406 389.703125 296.996094 391.976562 C 294.671875 394.25 292.425781 396.597656 290.253906 399.015625 C 288.085938 401.4375 285.996094 403.925781 283.984375 406.480469 C 281.976562 409.035156 280.050781 411.652344 278.210938 414.328125 C 276.367188 417.007812 274.617188 419.746094 272.953125 422.539062 C 271.289062 425.328125 269.71875 428.171875 268.238281 431.066406 C 266.757812 433.960938 265.375 436.902344 264.085938 439.882812 C 262.792969 442.867188 261.601562 445.890625 260.507812 448.953125 C 259.414062 452.011719 258.421875 455.105469 257.527344 458.230469 C 256.632812 461.355469 255.839844 464.507812 255.148438 467.683594 C 254.460938 470.859375 253.875 474.054688 253.390625 477.269531 C 252.90625 480.484375 252.527344 483.710938 252.253906 486.949219 C 251.976562 490.1875 251.808594 493.433594 251.742188 496.683594 C 251.675781 499.933594 251.71875 503.179688 251.863281 506.429688 C 252.007812 509.675781 252.257812 512.914062 252.613281 516.144531 C 252.96875 519.375 253.425781 522.59375 253.988281 525.792969 C 254.550781 528.996094 255.21875 532.175781 255.984375 535.335938 C 256.753906 538.492188 257.625 541.621094 258.59375 544.726562 C 259.566406 547.828125 260.636719 550.894531 261.804688 553.925781 C 262.976562 556.960938 264.242188 559.953125 265.605469 562.902344 C 266.964844 565.855469 268.421875 568.757812 269.972656 571.613281 L 252.054688 638.90625 C 251.945312 639.300781 251.867188 639.707031 251.8125 640.113281 C 251.761719 640.523438 251.734375 640.933594 251.734375 641.34375 C 251.734375 641.753906 251.761719 642.164062 251.816406 642.574219 C 251.871094 642.980469 251.949219 643.386719 252.058594 643.78125 C 252.164062 644.179688 252.296875 644.570312 252.453125 644.949219 C 252.609375 645.328125 252.792969 645.699219 253 646.054688 C 253.203125 646.410156 253.433594 646.753906 253.683594 647.078125 C 253.933594 647.40625 254.207031 647.714844 254.496094 648.007812 C 254.789062 648.296875 255.097656 648.566406 255.421875 648.820312 C 255.75 649.070312 256.089844 649.296875 256.449219 649.503906 C 256.804688 649.710938 257.171875 649.890625 257.554688 650.050781 C 257.933594 650.207031 258.324219 650.339844 258.71875 650.445312 C 259.117188 650.554688 259.519531 650.632812 259.929688 650.6875 C 260.335938 650.742188 260.746094 650.769531 261.160156 650.769531 C 261.570312 650.769531 261.980469 650.742188 262.390625 650.6875 C 262.796875 650.636719 263.199219 650.554688 263.597656 650.449219 L 330.886719 632.527344 C 333.402344 633.890625 335.957031 635.183594 338.546875 636.402344 C 341.132812 637.621094 343.757812 638.765625 346.410156 639.835938 C 349.0625 640.902344 351.746094 641.898438 354.457031 642.8125 C 357.167969 643.730469 359.902344 644.570312 362.660156 645.332031 C 365.417969 646.09375 368.199219 646.773438 370.996094 647.378906 C 373.792969 647.980469 376.605469 648.503906 379.429688 648.949219 C 382.257812 649.390625 385.09375 649.753906 387.941406 650.035156 C 390.789062 650.316406 393.644531 650.519531 396.503906 650.636719 C 399.363281 650.757812 402.222656 650.796875 405.082031 650.753906 C 407.945312 650.710938 410.800781 650.585938 413.65625 650.378906 C 416.511719 650.175781 419.355469 649.886719 422.195312 649.519531 C 425.03125 649.152344 427.859375 648.707031 430.671875 648.175781 C 433.484375 647.648438 436.277344 647.042969 439.054688 646.355469 C 441.832031 645.667969 444.589844 644.902344 447.324219 644.058594 C 450.058594 643.214844 452.765625 642.292969 455.449219 641.292969 C 458.128906 640.296875 460.78125 639.222656 463.402344 638.074219 C 466.023438 636.925781 468.609375 635.703125 471.160156 634.40625 C 473.710938 633.109375 476.222656 631.742188 478.695312 630.304688 C 481.171875 628.867188 483.601562 627.359375 485.988281 625.78125 C 488.375 624.203125 490.71875 622.558594 493.011719 620.851562 C 495.304688 619.140625 497.550781 617.367188 499.742188 615.527344 C 501.9375 613.6875 504.074219 611.789062 506.160156 609.832031 C 508.246094 607.871094 510.273438 605.855469 512.246094 603.777344 C 514.214844 601.703125 516.125 599.574219 517.976562 597.390625 C 519.824219 595.207031 521.609375 592.972656 523.332031 590.6875 C 525.054688 588.402344 526.710938 586.070312 528.300781 583.691406 C 529.890625 581.3125 531.410156 578.890625 532.863281 576.421875 C 534.316406 573.957031 535.695312 571.453125 537.003906 568.90625 C 538.3125 566.363281 539.550781 563.785156 540.710938 561.167969 C 541.875 558.554688 542.960938 555.910156 543.976562 553.230469 C 544.988281 550.554688 545.921875 547.851562 546.78125 545.121094 C 547.640625 542.390625 548.417969 539.640625 549.121094 536.867188 C 549.824219 534.09375 550.445312 531.300781 550.988281 528.492188 C 551.53125 525.679688 551.992188 522.859375 552.375 520.023438 C 552.757812 517.1875 553.058594 514.34375 553.28125 511.488281 C 553.5 508.636719 553.640625 505.777344 553.699219 502.917969 C 553.757812 500.058594 553.734375 497.195312 553.628906 494.335938 C 553.523438 491.476562 553.339844 488.625 553.070312 485.773438 C 552.804688 482.925781 552.457031 480.085938 552.027344 477.257812 C 551.601562 474.425781 551.089844 471.613281 550.503906 468.8125 C 549.914062 466.011719 549.246094 463.230469 548.5 460.46875 C 547.753906 457.707031 546.929688 454.964844 546.027344 452.25 C 545.121094 449.535156 544.144531 446.847656 543.089844 444.1875 C 542.03125 441.527344 540.902344 438.902344 539.699219 436.304688 C 538.492188 433.710938 537.214844 431.152344 535.863281 428.628906 C 534.515625 426.105469 533.09375 423.621094 531.601562 421.179688 C 530.109375 418.738281 528.550781 416.339844 526.921875 413.988281 C 525.292969 411.632812 523.597656 409.328125 521.839844 407.074219 C 520.082031 404.816406 518.257812 402.609375 516.375 400.457031 C 514.488281 398.304688 512.546875 396.207031 510.539062 394.164062 C 508.535156 392.121094 506.476562 390.136719 504.359375 388.210938 C 502.242188 386.285156 500.074219 384.421875 497.851562 382.621094 C 495.628906 380.816406 493.355469 379.082031 491.03125 377.40625 C 488.710938 375.734375 486.34375 374.128906 483.929688 372.589844 C 481.519531 371.054688 479.0625 369.585938 476.566406 368.1875 C 474.070312 366.789062 471.535156 365.460938 468.964844 364.207031 C 466.390625 362.953125 463.785156 361.773438 461.148438 360.667969 C 458.507812 359.5625 455.839844 358.53125 453.140625 357.578125 C 450.445312 356.621094 447.722656 355.746094 444.972656 354.945312 C 442.226562 354.148438 439.457031 353.425781 436.667969 352.785156 C 433.878906 352.140625 431.074219 351.578125 428.253906 351.097656 C 425.433594 350.613281 422.601562 350.214844 419.757812 349.890625 C 416.914062 349.570312 414.066406 349.332031 411.207031 349.171875 C 408.351562 349.011719 405.492188 348.933594 402.628906 348.9375 Z M 402.628906 631.90625 C 396.878906 631.898438 391.15625 631.515625 385.457031 630.761719 C 379.757812 630.003906 374.132812 628.882812 368.578125 627.390625 C 363.027344 625.898438 357.597656 624.054688 352.285156 621.851562 C 346.972656 619.652344 341.828125 617.113281 336.847656 614.238281 C 335.390625 613.398438 333.816406 612.976562 332.132812 612.976562 C 331.3125 612.976562 330.503906 613.082031 329.707031 613.296875 L 274.453125 628.03125 L 289.1875 572.773438 C 289.507812 571.570312 289.589844 570.347656 289.425781 569.113281 C 289.261719 567.875 288.867188 566.714844 288.246094 565.636719 C 287.050781 563.554688 285.914062 561.441406 284.835938 559.300781 C 283.753906 557.15625 282.734375 554.988281 281.773438 552.789062 C 280.8125 550.589844 279.914062 548.367188 279.074219 546.121094 C 278.234375 543.871094 277.457031 541.605469 276.738281 539.3125 C 276.023438 537.023438 275.371094 534.71875 274.78125 532.390625 C 274.191406 530.066406 273.664062 527.726562 273.203125 525.371094 C 272.738281 523.019531 272.339844 520.652344 272.007812 518.277344 C 271.675781 515.902344 271.40625 513.519531 271.203125 511.128906 C 271 508.738281 270.859375 506.34375 270.789062 503.945312 C 270.714844 501.546875 270.707031 499.148438 270.765625 496.75 C 270.820312 494.351562 270.945312 491.957031 271.132812 489.566406 C 271.320312 487.171875 271.574219 484.789062 271.894531 482.410156 C 272.210938 480.03125 272.59375 477.664062 273.042969 475.308594 C 273.492188 472.953125 274.003906 470.609375 274.578125 468.28125 C 275.152344 465.949219 275.792969 463.640625 276.492188 461.34375 C 277.195312 459.050781 277.957031 456.777344 278.78125 454.523438 C 279.609375 452.269531 280.496094 450.042969 281.441406 447.839844 C 282.386719 445.632812 283.394531 443.457031 284.460938 441.308594 C 285.527344 439.160156 286.648438 437.039062 287.832031 434.953125 C 289.011719 432.863281 290.25 430.808594 291.542969 428.789062 C 292.835938 426.765625 294.183594 424.785156 295.582031 422.835938 C 296.984375 420.890625 298.4375 418.980469 299.945312 417.113281 C 301.449219 415.246094 303.003906 413.417969 304.609375 411.636719 C 306.214844 409.851562 307.867188 408.117188 309.566406 406.421875 C 311.265625 404.730469 313.011719 403.082031 314.800781 401.484375 C 316.589844 399.886719 318.421875 398.339844 320.296875 396.84375 C 322.171875 395.34375 324.082031 393.898438 326.035156 392.503906 C 327.988281 391.109375 329.980469 389.773438 332.003906 388.488281 C 334.03125 387.203125 336.089844 385.972656 338.183594 384.800781 C 340.277344 383.625 342.398438 382.511719 344.550781 381.453125 C 346.707031 380.398438 348.886719 379.398438 351.09375 378.460938 C 353.304688 377.523438 355.535156 376.644531 357.792969 375.828125 C 360.046875 375.011719 362.324219 374.257812 364.621094 373.566406 C 366.917969 372.875 369.230469 372.246094 371.5625 371.679688 C 373.894531 371.113281 376.238281 370.609375 378.597656 370.171875 C 380.957031 369.734375 383.328125 369.359375 385.707031 369.050781 C 388.085938 368.742188 390.46875 368.5 392.863281 368.320312 C 395.253906 368.140625 397.652344 368.027344 400.050781 367.980469 C 402.449219 367.929688 404.847656 367.949219 407.242188 368.03125 C 409.640625 368.113281 412.035156 368.261719 414.425781 368.476562 C 416.816406 368.6875 419.195312 368.964844 421.570312 369.308594 C 423.945312 369.652344 426.308594 370.058594 428.660156 370.53125 C 431.011719 371.003906 433.351562 371.539062 435.675781 372.136719 C 437.996094 372.738281 440.300781 373.398438 442.589844 374.125 C 444.875 374.851562 447.140625 375.636719 449.386719 376.484375 C 451.628906 377.332031 453.847656 378.242188 456.042969 379.210938 C 458.238281 380.183594 460.402344 381.210938 462.542969 382.300781 C 464.679688 383.386719 466.789062 384.53125 468.863281 385.734375 C 470.9375 386.9375 472.980469 388.195312 474.988281 389.507812 C 476.996094 390.824219 478.964844 392.191406 480.898438 393.613281 C 482.832031 395.035156 484.722656 396.507812 486.574219 398.03125 C 488.429688 399.558594 490.238281 401.128906 492.003906 402.753906 C 493.769531 404.378906 495.492188 406.046875 497.167969 407.765625 C 498.84375 409.480469 500.46875 411.242188 502.046875 413.050781 C 503.628906 414.855469 505.15625 416.703125 506.636719 418.59375 C 508.113281 420.480469 509.539062 422.410156 510.914062 424.378906 C 512.285156 426.34375 513.605469 428.347656 514.871094 430.386719 C 516.132812 432.425781 517.339844 434.496094 518.492188 436.601562 C 519.644531 438.707031 520.738281 440.84375 521.773438 443.007812 C 522.808594 445.171875 523.78125 447.363281 524.695312 449.578125 C 525.613281 451.796875 526.464844 454.039062 527.257812 456.300781 C 528.050781 458.566406 528.785156 460.851562 529.453125 463.15625 C 530.121094 465.457031 530.726562 467.78125 531.265625 470.117188 C 531.808594 472.453125 532.289062 474.804688 532.699219 477.167969 C 533.113281 479.53125 533.464844 481.902344 533.75 484.285156 C 534.03125 486.667969 534.253906 489.054688 534.40625 491.449219 C 534.558594 493.84375 534.648438 496.242188 534.671875 498.640625 C 534.695312 501.039062 534.652344 503.4375 534.546875 505.832031 C 534.441406 508.230469 534.265625 510.621094 534.027344 513.007812 C 533.792969 515.394531 533.488281 517.773438 533.121094 520.144531 C 532.753906 522.515625 532.320312 524.875 531.824219 527.222656 C 531.328125 529.570312 530.769531 531.902344 530.148438 534.21875 C 529.523438 536.535156 528.835938 538.832031 528.089844 541.113281 C 527.339844 543.390625 526.53125 545.648438 525.65625 547.886719 C 524.785156 550.121094 523.855469 552.328125 522.863281 554.515625 C 521.871094 556.699219 520.820312 558.855469 519.710938 560.980469 C 518.597656 563.109375 517.433594 565.203125 516.207031 567.265625 C 514.984375 569.328125 513.703125 571.359375 512.371094 573.351562 C 511.035156 575.34375 509.648438 577.300781 508.207031 579.21875 C 506.765625 581.136719 505.273438 583.015625 503.726562 584.851562 C 502.183594 586.6875 500.59375 588.480469 498.949219 590.230469 C 497.308594 591.980469 495.621094 593.683594 493.886719 595.339844 C 492.152344 596.996094 490.375 598.605469 488.550781 600.167969 C 486.730469 601.726562 484.867188 603.238281 482.960938 604.695312 C 481.058594 606.15625 479.113281 607.5625 477.132812 608.914062 C 475.152344 610.269531 473.136719 611.566406 471.082031 612.808594 C 469.03125 614.050781 466.949219 615.238281 464.832031 616.367188 C 462.714844 617.496094 460.566406 618.566406 458.394531 619.582031 C 456.21875 620.59375 454.015625 621.546875 451.789062 622.4375 C 449.5625 623.328125 447.3125 624.160156 445.042969 624.929688 C 442.769531 625.699219 440.476562 626.40625 438.167969 627.050781 C 435.855469 627.695312 433.527344 628.277344 431.1875 628.796875 C 428.84375 629.3125 426.488281 629.765625 424.121094 630.15625 C 421.753906 630.546875 419.378906 630.871094 416.992188 631.128906 C 414.609375 631.390625 412.21875 631.585938 409.820312 631.714844 C 407.425781 631.84375 405.027344 631.90625 402.628906 631.90625 Z M 402.628906 631.90625 "/></g><path style=" stroke:none;fill-rule:nonzero;fill:#ffffff;fill-opacity:1;" d="M 415.109375 406.832031 C 414.046875 406.601562 412.976562 406.402344 411.902344 406.230469 C 410.828125 406.058594 409.75 405.917969 408.667969 405.808594 C 407.582031 405.695312 406.5 405.617188 405.410156 405.566406 C 404.324219 405.515625 403.238281 405.496094 402.148438 405.503906 C 401.0625 405.515625 399.972656 405.554688 398.886719 405.625 C 397.800781 405.695312 396.71875 405.796875 395.640625 405.929688 C 394.558594 406.058594 393.484375 406.222656 392.414062 406.414062 C 391.339844 406.601562 390.277344 406.824219 389.21875 407.074219 C 388.15625 407.324219 387.105469 407.605469 386.0625 407.914062 C 385.019531 408.222656 383.988281 408.5625 382.960938 408.929688 C 381.9375 409.292969 380.925781 409.691406 379.921875 410.113281 C 378.917969 410.535156 377.929688 410.988281 376.953125 411.464844 C 375.972656 411.945312 375.011719 412.449219 374.0625 412.980469 C 373.113281 413.515625 372.179688 414.070312 371.261719 414.65625 C 370.34375 415.242188 369.441406 415.851562 368.558594 416.484375 C 367.675781 417.117188 366.808594 417.777344 365.960938 418.460938 C 365.113281 419.144531 364.285156 419.847656 363.480469 420.578125 C 362.671875 421.308594 361.882812 422.058594 361.117188 422.832031 C 360.351562 423.601562 359.609375 424.398438 358.886719 425.210938 C 358.164062 426.023438 357.464844 426.859375 356.789062 427.710938 C 356.113281 428.566406 355.464844 429.4375 354.835938 430.328125 C 354.210938 431.214844 353.609375 432.121094 353.03125 433.046875 C 352.457031 433.96875 351.90625 434.90625 351.382812 435.859375 C 350.859375 436.8125 350.359375 437.78125 349.890625 438.761719 C 349.421875 439.746094 348.980469 440.738281 348.566406 441.746094 C 348.148438 442.75 347.765625 443.765625 347.40625 444.796875 C 347.046875 445.824219 346.71875 446.859375 346.417969 447.90625 C 346.121094 448.953125 345.847656 450.003906 345.605469 451.066406 C 345.367188 452.125 345.15625 453.195312 344.972656 454.265625 C 344.789062 455.339844 344.640625 456.417969 344.515625 457.496094 C 344.394531 458.578125 344.304688 459.664062 344.242188 460.75 C 344.179688 461.835938 344.152344 462.921875 344.148438 464.011719 C 344.148438 464.628906 344.210938 465.246094 344.332031 465.851562 C 344.453125 466.460938 344.628906 467.050781 344.867188 467.621094 C 345.105469 468.191406 345.394531 468.738281 345.738281 469.25 C 346.082031 469.765625 346.472656 470.242188 346.914062 470.679688 C 347.351562 471.117188 347.828125 471.511719 348.339844 471.855469 C 348.855469 472.199219 349.398438 472.488281 349.972656 472.726562 C 350.542969 472.960938 351.132812 473.140625 351.742188 473.261719 C 352.347656 473.382812 352.960938 473.445312 353.582031 473.445312 C 354.203125 473.445312 354.816406 473.382812 355.421875 473.261719 C 356.03125 473.140625 356.621094 472.960938 357.191406 472.726562 C 357.765625 472.488281 358.308594 472.199219 358.824219 471.855469 C 359.335938 471.511719 359.8125 471.117188 360.25 470.679688 C 360.691406 470.242188 361.082031 469.765625 361.425781 469.25 C 361.769531 468.738281 362.058594 468.191406 362.296875 467.621094 C 362.535156 467.050781 362.710938 466.460938 362.832031 465.851562 C 362.953125 465.246094 363.015625 464.628906 363.015625 464.011719 C 363.011719 462.804688 363.066406 461.597656 363.175781 460.398438 C 363.285156 459.195312 363.449219 458 363.667969 456.8125 C 363.886719 455.625 364.15625 454.449219 364.484375 453.285156 C 364.808594 452.125 365.1875 450.976562 365.617188 449.851562 C 366.046875 448.722656 366.527344 447.617188 367.0625 446.53125 C 367.59375 445.449219 368.171875 444.390625 368.800781 443.359375 C 369.429688 442.328125 370.101562 441.328125 370.824219 440.359375 C 371.542969 439.390625 372.304688 438.453125 373.109375 437.554688 C 373.914062 436.65625 374.761719 435.792969 375.644531 434.972656 C 376.527344 434.148438 377.449219 433.367188 378.402344 432.628906 C 379.359375 431.890625 380.34375 431.199219 381.363281 430.550781 C 382.382812 429.902344 383.429688 429.300781 384.503906 428.75 C 385.574219 428.195312 386.671875 427.695312 387.792969 427.242188 C 388.910156 426.789062 390.050781 426.390625 391.207031 426.042969 C 392.363281 425.695312 393.53125 425.398438 394.714844 425.15625 C 395.898438 424.917969 397.089844 424.730469 398.289062 424.597656 C 399.488281 424.464844 400.691406 424.386719 401.898438 424.363281 C 403.105469 424.34375 404.3125 424.375 405.515625 424.464844 C 406.722656 424.550781 407.917969 424.695312 409.109375 424.890625 C 410.300781 425.089844 411.480469 425.339844 412.648438 425.644531 C 413.816406 425.953125 414.96875 426.308594 416.105469 426.71875 C 417.238281 427.132812 418.355469 427.59375 419.449219 428.105469 C 420.539062 428.617188 421.609375 429.179688 422.648438 429.789062 C 423.691406 430.398438 424.703125 431.054688 425.6875 431.757812 C 426.667969 432.460938 427.617188 433.207031 428.527344 433.996094 C 429.441406 434.785156 430.320312 435.617188 431.15625 436.484375 C 431.992188 437.355469 432.789062 438.261719 433.546875 439.203125 C 434.300781 440.144531 435.011719 441.121094 435.675781 442.125 C 436.34375 443.132812 436.960938 444.167969 437.53125 445.234375 C 438.101562 446.296875 438.625 447.382812 439.097656 448.496094 C 439.570312 449.609375 439.988281 450.738281 440.355469 451.886719 C 440.726562 453.039062 441.039062 454.203125 441.300781 455.382812 C 441.546875 456.519531 441.742188 457.664062 441.890625 458.816406 C 442.035156 459.96875 442.128906 461.128906 442.175781 462.289062 C 442.21875 463.453125 442.214844 464.613281 442.15625 465.777344 C 442.101562 466.9375 441.992188 468.09375 441.835938 469.246094 C 441.675781 470.398438 441.46875 471.542969 441.210938 472.675781 C 440.953125 473.808594 440.644531 474.929688 440.289062 476.039062 C 439.933594 477.144531 439.53125 478.234375 439.078125 479.304688 C 438.628906 480.378906 438.128906 481.429688 437.585938 482.457031 C 437.042969 483.484375 436.457031 484.488281 435.828125 485.464844 C 435.195312 486.441406 434.523438 487.390625 433.8125 488.308594 C 433.097656 489.226562 432.34375 490.113281 431.554688 490.964844 C 430.761719 491.816406 429.9375 492.636719 429.074219 493.414062 C 428.210938 494.195312 427.316406 494.9375 426.390625 495.640625 C 425.464844 496.339844 424.507812 497.003906 423.523438 497.621094 C 422.539062 498.238281 421.527344 498.8125 420.492188 499.34375 C 419.457031 499.875 418.402344 500.359375 417.324219 500.796875 C 415.582031 501.453125 413.898438 502.234375 412.277344 503.140625 C 410.652344 504.046875 409.101562 505.070312 407.632812 506.210938 C 406.160156 507.351562 404.78125 508.59375 403.496094 509.9375 C 402.210938 511.285156 401.035156 512.71875 399.964844 514.242188 C 398.894531 515.765625 397.945312 517.359375 397.113281 519.023438 C 396.28125 520.6875 395.582031 522.40625 395.007812 524.175781 C 394.433594 525.945312 393.996094 527.75 393.691406 529.585938 C 393.386719 531.421875 393.222656 533.269531 393.199219 535.128906 L 393.199219 537.582031 C 393.199219 538.203125 393.257812 538.816406 393.378906 539.421875 C 393.5 540.03125 393.679688 540.621094 393.914062 541.191406 C 394.152344 541.765625 394.441406 542.308594 394.789062 542.824219 C 395.132812 543.339844 395.523438 543.816406 395.960938 544.253906 C 396.398438 544.691406 396.875 545.082031 397.390625 545.425781 C 397.90625 545.769531 398.449219 546.058594 399.019531 546.296875 C 399.59375 546.535156 400.183594 546.714844 400.789062 546.835938 C 401.398438 546.957031 402.011719 547.015625 402.628906 547.015625 C 403.25 547.015625 403.863281 546.957031 404.46875 546.835938 C 405.078125 546.714844 405.667969 546.535156 406.238281 546.296875 C 406.8125 546.058594 407.355469 545.769531 407.871094 545.425781 C 408.386719 545.082031 408.863281 544.691406 409.300781 544.253906 C 409.738281 543.816406 410.128906 543.339844 410.472656 542.824219 C 410.816406 542.308594 411.105469 541.765625 411.34375 541.191406 C 411.582031 540.621094 411.761719 540.03125 411.882812 539.421875 C 412 538.816406 412.0625 538.203125 412.0625 537.582031 L 412.0625 535.128906 C 412.09375 534.210938 412.191406 533.296875 412.359375 532.386719 C 412.527344 531.480469 412.761719 530.59375 413.0625 529.722656 C 413.363281 528.847656 413.726562 528.003906 414.152344 527.1875 C 414.578125 526.371094 415.066406 525.589844 415.609375 524.84375 C 416.152344 524.101562 416.746094 523.398438 417.394531 522.746094 C 418.042969 522.089844 418.738281 521.484375 419.476562 520.933594 C 420.214844 520.382812 420.992188 519.886719 421.804688 519.453125 C 422.617188 519.015625 423.457031 518.640625 424.324219 518.332031 C 425.769531 517.757812 427.1875 517.128906 428.582031 516.441406 C 429.976562 515.753906 431.339844 515.011719 432.675781 514.214844 C 434.007812 513.417969 435.3125 512.570312 436.578125 511.671875 C 437.84375 510.773438 439.074219 509.824219 440.265625 508.824219 C 441.457031 507.828125 442.609375 506.785156 443.714844 505.695312 C 444.824219 504.605469 445.886719 503.472656 446.90625 502.300781 C 447.925781 501.125 448.894531 499.914062 449.816406 498.660156 C 450.738281 497.410156 451.609375 496.125 452.425781 494.804688 C 453.246094 493.484375 454.011719 492.132812 454.722656 490.75 C 455.433594 489.367188 456.089844 487.960938 456.6875 486.523438 C 457.285156 485.089844 457.828125 483.636719 458.308594 482.160156 C 458.792969 480.679688 459.214844 479.1875 459.582031 477.675781 C 459.945312 476.164062 460.246094 474.640625 460.488281 473.105469 C 460.730469 471.570312 460.914062 470.03125 461.03125 468.480469 C 461.152344 466.929688 461.207031 465.378906 461.203125 463.824219 C 461.199219 462.269531 461.132812 460.71875 461.007812 459.167969 C 460.878906 457.621094 460.6875 456.078125 460.4375 454.546875 C 460.1875 453.011719 459.875 451.492188 459.503906 449.980469 C 459.132812 448.472656 458.699219 446.980469 458.207031 445.507812 C 457.71875 444.03125 457.167969 442.578125 456.5625 441.148438 C 455.953125 439.71875 455.292969 438.3125 454.574219 436.9375 C 453.851562 435.558594 453.082031 434.210938 452.253906 432.894531 C 451.429688 431.578125 450.550781 430.296875 449.621094 429.050781 C 448.695312 427.804688 447.71875 426.597656 446.691406 425.429688 C 445.667969 424.261719 444.597656 423.132812 443.484375 422.050781 C 442.371094 420.96875 441.214844 419.929688 440.015625 418.941406 C 438.820312 417.949219 437.585938 417.007812 436.3125 416.113281 C 435.039062 415.222656 433.734375 414.382812 432.394531 413.59375 C 431.054688 412.804688 429.6875 412.070312 428.289062 411.390625 C 426.890625 410.710938 425.46875 410.089844 424.023438 409.523438 C 422.574219 408.957031 421.105469 408.449219 419.617188 408 C 418.132812 407.550781 416.628906 407.160156 415.109375 406.832031 Z M 415.109375 406.832031 "/><path style=" stroke:none;fill-rule:nonzero;fill:#ffffff;fill-opacity:1;" d="M 416.777344 580.027344 C 416.777344 580.957031 416.6875 581.878906 416.507812 582.789062 C 416.324219 583.699219 416.058594 584.585938 415.703125 585.441406 C 415.347656 586.300781 414.910156 587.117188 414.394531 587.890625 C 413.878906 588.660156 413.292969 589.375 412.632812 590.03125 C 411.976562 590.691406 411.261719 591.277344 410.492188 591.792969 C 409.71875 592.308594 408.902344 592.746094 408.042969 593.101562 C 407.1875 593.457031 406.300781 593.722656 405.390625 593.90625 C 404.480469 594.085938 403.558594 594.175781 402.628906 594.175781 C 401.699219 594.175781 400.78125 594.085938 399.871094 593.90625 C 398.957031 593.722656 398.074219 593.457031 397.214844 593.101562 C 396.355469 592.746094 395.542969 592.308594 394.769531 591.792969 C 393.996094 591.277344 393.28125 590.691406 392.625 590.03125 C 391.96875 589.375 391.382812 588.660156 390.867188 587.890625 C 390.351562 587.117188 389.914062 586.300781 389.558594 585.441406 C 389.203125 584.585938 388.933594 583.699219 388.753906 582.789062 C 388.570312 581.878906 388.480469 580.957031 388.480469 580.027344 C 388.480469 579.097656 388.570312 578.179688 388.753906 577.269531 C 388.933594 576.355469 389.203125 575.472656 389.558594 574.613281 C 389.914062 573.753906 390.351562 572.941406 390.867188 572.167969 C 391.382812 571.394531 391.96875 570.679688 392.625 570.023438 C 393.28125 569.367188 393.996094 568.78125 394.769531 568.265625 C 395.542969 567.75 396.355469 567.3125 397.214844 566.957031 C 398.074219 566.601562 398.957031 566.332031 399.871094 566.152344 C 400.78125 565.96875 401.699219 565.878906 402.628906 565.878906 C 403.558594 565.878906 404.480469 565.96875 405.390625 566.152344 C 406.300781 566.332031 407.1875 566.601562 408.042969 566.957031 C 408.902344 567.3125 409.71875 567.75 410.492188 568.265625 C 411.261719 568.78125 411.976562 569.367188 412.632812 570.023438 C 413.292969 570.679688 413.878906 571.394531 414.394531 572.167969 C 414.910156 572.941406 415.347656 573.753906 415.703125 574.613281 C 416.058594 575.472656 416.324219 576.355469 416.507812 577.269531 C 416.6875 578.179688 416.777344 579.097656 416.777344 580.027344 Z M 416.777344 580.027344 "/></g></svg>