<?xml version="1.0" encoding="utf-8"?>
<!-- Generator: Adobe Illustrator 26.0.0, SVG Export Plug-In . SVG Version: 6.00 Build 0)  -->
<svg version="1.1" id="Layer_1" xmlns="http://www.w3.org/2000/svg" xmlns:xlink="http://www.w3.org/1999/xlink" x="0px" y="0px"
	 viewBox="0 0 70.4 64.7" style="enable-background:new 0 0 70.4 64.7;" xml:space="preserve">
<style type="text/css">
	.st0{fill:#ffffff;}
</style>
<path class="st0" d="M37.1,38c4.4,0,8-3.6,8-8c0-4-6.5-16.2-7.2-17.5c-0.2-0.5-0.8-0.6-1.3-0.4c-0.2,0.1-0.3,0.2-0.4,0.4
	C35.6,13.8,29.1,26,29.1,30C29.1,34.4,32.7,38,37.1,38z M37.1,14.9c2.3,4.3,6.2,12.4,6.2,15.1c0,3.4-2.8,6.2-6.2,6.2
	c-3.4,0-6.2-2.8-6.2-6.2C30.9,27.3,34.9,19.2,37.1,14.9z"/>
<path class="st0" d="M37.1,34.7c2.6,0,4.7-2.1,4.7-4.7c0-0.5-0.4-0.9-0.9-0.9S40,29.5,40,30c0,1.6-1.3,2.9-2.9,2.9
	c-0.5,0-0.9,0.4-0.9,0.9S36.6,34.7,37.1,34.7z"/>
<path class="st0" d="M37.1,42.2c4.6,0,9.3-1.3,9.3-3.9c0-0.5-0.2-1.2-1.1-1.9c-0.4-0.3-1-0.2-1.3,0.2c-0.3,0.4-0.2,1,0.2,1.3
	c0.3,0.2,0.4,0.4,0.4,0.5c0,0.6-2.6,2-7.4,2s-7.4-1.5-7.4-2c0-0.1,0.1-0.3,0.4-0.5c0.4-0.3,0.5-0.9,0.1-1.3
	c-0.3-0.4-0.9-0.5-1.3-0.1c-0.9,0.7-1.1,1.4-1.1,1.9C27.8,40.9,32.5,42.2,37.1,42.2z"/>
<path class="st0" d="M19.6,38.8c0,4.4,9,6.8,17.5,6.8s17.5-2.4,17.5-6.8c0-2.3-2.4-4.2-6.8-5.5c-0.5-0.1-1,0.2-1.1,0.7
	c-0.1,0.5,0.1,1,0.6,1.1c3.3,1,5.4,2.4,5.4,3.7c0,2.4-6.7,5-15.7,5s-15.7-2.6-15.7-5c0-1.3,2.3-2.8,5.8-3.8c0.5-0.2,0.8-0.7,0.6-1.2
	c-0.1-0.5-0.6-0.7-1.1-0.6C22.1,34.5,19.6,36.4,19.6,38.8L19.6,38.8z"/>
<path class="st0" d="M48.8,28.7c-0.5-0.1-1,0.2-1.1,0.8c-0.1,0.5,0.2,1,0.8,1.1c8.4,1.5,14.1,4.7,14.1,7.8c0,4.2-10.2,8.8-25.5,8.8
	s-25.5-4.5-25.5-8.8c0-3.2,5.8-6.4,14.4-7.9c0.5-0.1,0.8-0.6,0.7-1.1c-0.1-0.5-0.6-0.8-1-0.7c-9.8,1.7-16,5.4-16,9.7
	c0,6,12,10.6,27.4,10.6s27.4-4.7,27.4-10.6C64.5,34.1,58.5,30.4,48.8,28.7L48.8,28.7z"/>
</svg>
