<?xml version="1.0" encoding="utf-8"?>
<!-- Generator: Adobe Illustrator 26.0.0, SVG Export Plug-In . SVG Version: 6.00 Build 0)  -->
<svg version="1.1" id="svg1269" xmlns="http://www.w3.org/2000/svg" xmlns:xlink="http://www.w3.org/1999/xlink" x="0px" y="0px"
	 viewBox="0 0 682.7 682.7" style="enable-background:new 0 0 682.7 682.7;" xml:space="preserve">
<style type="text/css">
	.st0{fill:#568259;}
	.st1{fill-rule:evenodd;clip-rule:evenodd;fill:#568259;}
	.st2{fill:#FFFFFF;}
</style>
<path class="st0" d="M302.1,442.5H110.5c-6.9,0-12.5-5.6-12.5-12.5s5.6-12.5,12.5-12.5h191.7c6.9,0,12.5,5.6,12.5,12.5
	S309,442.5,302.1,442.5z"/>
<path class="st0" d="M302.1,292.7H110.5c-6.9,0-12.5-5.6-12.5-12.5s5.6-12.5,12.5-12.5h191.7c6.9,0,12.5,5.6,12.5,12.5
	S309,292.7,302.1,292.7z"/>
<path class="st0" d="M285.3,367.6H35.6c-6.9,0-12.5-5.6-12.5-12.5s5.6-12.5,12.5-12.5h249.7c6.9,0,12.5,5.6,12.5,12.5
	C297.8,362,292.2,367.6,285.3,367.6z"/>
<path class="st0" d="M410.1,592.3c-6.9,0-12.5-5.6-12.5-12.5v-37.5c0-6.9,5.6-12.5,12.5-12.5s12.5,5.6,12.5,12.5v37.5
	C422.6,586.7,417,592.3,410.1,592.3z"/>
<path class="st0" d="M569,526.5c-3.2,0-6.4-1.2-8.8-3.7l-26.5-26.5c-4.9-4.9-4.9-12.8,0-17.7c4.9-4.9,12.8-4.9,17.7,0l26.5,26.5
	c4.9,4.9,4.9,12.8,0,17.7C575.4,525.2,572.2,526.5,569,526.5z"/>
<path class="st0" d="M542.5,235.2c-3.2,0-6.4-1.2-8.8-3.7c-4.9-4.9-4.9-12.8,0-17.7l26.5-26.5c4.9-4.9,12.8-4.9,17.7,0
	c4.9,4.9,4.9,12.8,0,17.7l-26.5,26.5C548.9,233.9,545.7,235.2,542.5,235.2z"/>
<path class="st0" d="M410.1,180.3c-6.9,0-12.5-5.6-12.5-12.5v-37.5c0-6.9,5.6-12.5,12.5-12.5s12.5,5.6,12.5,12.5v37.5
	C422.6,174.7,417,180.3,410.1,180.3z"/>
<path class="st0" d="M634.8,367.6h-37.5c-6.9,0-12.5-5.6-12.5-12.5s5.6-12.5,12.5-12.5h37.5c6.9,0,12.5,5.6,12.5,12.5
	C647.3,362,641.8,367.6,634.8,367.6z"/>
<path class="st0" d="M320.1,217.7H185.4c-6.9,0-12.5-5.6-12.5-12.5s5.6-12.5,12.5-12.5h134.7c6.9,0,12.5,5.6,12.5,12.5
	S327,217.7,320.1,217.7z"/>
<path class="st0" d="M320.1,517.4H185.4c-6.9,0-12.5-5.6-12.5-12.5c0-6.9,5.6-12.5,12.5-12.5h134.7c6.9,0,12.5,5.6,12.5,12.5
	C332.6,511.8,327,517.4,320.1,517.4z"/>
<path class="st0" d="M409.3,592.1c-36.6,0-73.6-8.4-107.9-26.1c-6.1-3.2-8.5-10.7-5.4-16.8s10.7-8.5,16.8-5.4
	c97.9,50.5,219.9,16.7,277.7-77c58-93.9,33.7-218.2-55.2-283.1C471,136.8,383.6,130,312.9,166.4c-6.1,3.2-13.7,0.8-16.8-5.4
	c-3.2-6.1-0.8-13.7,5.4-16.8c79.1-40.8,176.6-33.2,248.6,19.3c99.4,72.5,126.5,211.4,61.7,316.4
	C567.5,551.7,489.4,592.1,409.3,592.1L409.3,592.1z"/>
<path class="st1" d="M432.8,257.8c-60.5,0-109.7,49.2-109.7,109.7s49.2,109.7,109.7,109.7s109.7-49.2,109.7-109.7
	S493.3,257.8,432.8,257.8z"/>
<path class="st2" d="M411.7,417.8c-14-14-27.9-28.2-42-42.2c-1.5-1.5-1.5-4.1,0-5.7l16.2-16.2c1.5-1.5,4.1-1.5,5.7,0l23.1,23.1
	l59.4-59.5c1.6-1.5,4.1-1.5,5.7,0l16.2,16.2c1.6,1.6,1.6,4.1,0,5.7l-78.6,78.5C415.8,419.4,413.2,419.4,411.7,417.8L411.7,417.8z"/>
</svg>
