<svg xmlns="http://www.w3.org/2000/svg" xmlns:xlink="http://www.w3.org/1999/xlink" width="1080" zoomAndPan="magnify" viewBox="0 0 810 1012.49997" height="1350" preserveAspectRatio="xMidYMid meet" version="1.0"><defs><clipPath id="44f31dcf93"><path d="M 238.539062 261.203125 L 571 261.203125 L 571 659 L 238.539062 659 Z M 238.539062 261.203125 " clip-rule="nonzero"/></clipPath><clipPath id="9576310bd5"><path d="M 328 715 L 480 715 L 480 750.710938 L 328 750.710938 Z M 328 715 " clip-rule="nonzero"/></clipPath></defs><g clip-path="url(#44f31dcf93)"><path fill="#422b1c" d="M 529.089844 535.78125 L 536.453125 523.941406 C 544.246094 511.886719 570.140625 468.515625 570.140625 426.941406 C 570.140625 335.605469 495.804688 261.261719 404.46875 261.261719 C 313.125 261.261719 238.828125 335.605469 238.828125 426.941406 C 238.828125 468.476562 264.742188 511.847656 272.691406 524.226562 C 272.484375 523.941406 284.433594 542.890625 284.433594 542.890625 C 305.285156 575.554688 324.933594 606.449219 329.578125 644.164062 C 330.574219 652.222656 337.390625 658.265625 345.484375 658.265625 L 465.980469 658.265625 C 474.046875 658.265625 480.890625 652.222656 481.898438 644.203125 C 486.898438 603.542969 507.402344 570.601562 529.089844 535.78125 Z M 529.089844 535.78125 " fill-opacity="1" fill-rule="nonzero"/></g><path fill="#422b1c" d="M 468.144531 676.40625 L 339.566406 676.40625 C 333.5 676.40625 328.582031 681.34375 328.582031 687.410156 C 328.582031 693.484375 333.5 698.378906 339.566406 698.378906 L 468.144531 698.378906 C 474.191406 698.378906 479.117188 693.484375 479.117188 687.410156 C 479.117188 681.351562 474.191406 676.40625 468.144531 676.40625 Z M 468.144531 676.40625 " fill-opacity="1" fill-rule="nonzero"/><g clip-path="url(#9576310bd5)"><path fill="#422b1c" d="M 468.144531 715.105469 L 339.566406 715.105469 C 333.5 715.105469 328.582031 720.050781 328.582031 726.109375 C 328.582031 732.183594 333.5 737.078125 339.566406 737.078125 L 366.171875 737.078125 C 367.261719 744.589844 373.601562 750.371094 381.414062 750.371094 L 427.515625 750.371094 C 435.335938 750.371094 441.695312 744.589844 442.769531 737.078125 L 468.144531 737.078125 C 474.191406 737.078125 479.117188 732.183594 479.117188 726.109375 C 479.117188 720.050781 474.191406 715.105469 468.144531 715.105469 Z M 468.144531 715.105469 " fill-opacity="1" fill-rule="nonzero"/></g></svg>