<?xml version="1.0" encoding="utf-8"?>
<!-- Generator: Adobe Illustrator 26.0.0, SVG Export Plug-In . SVG Version: 6.00 Build 0)  -->
<svg version="1.1" id="Layer_1" xmlns="http://www.w3.org/2000/svg" xmlns:xlink="http://www.w3.org/1999/xlink" x="0px" y="0px"
	 viewBox="0 0 46 55" style="enable-background:new 0 0 46 55;" xml:space="preserve">
<style type="text/css">
	.st0{clip-path:url(#SVGID_00000103222819073233322990000000209276971184155275_);}
	.st1{fill:#568259;}
</style>
<g>
	<g>
		<defs>
			<rect id="SVGID_1_" x="6.1" y="10.6" width="33.8" height="33.8"/>
		</defs>
		<clipPath id="SVGID_00000002344564540206235880000002453636027743813813_">
			<use xlink:href="#SVGID_1_"  style="overflow:visible;"/>
		</clipPath>
		<g style="clip-path:url(#SVGID_00000002344564540206235880000002453636027743813813_);">
			<path class="st1" d="M23,10.6c-3.4,0-6.6,1-9.4,2.8S8.7,17.9,7.4,21s-1.6,6.5-1,9.7C7.1,34,8.7,37,11,39.4
				c2.3,2.3,5.4,3.9,8.7,4.6c3.3,0.6,6.7,0.3,9.7-1s5.7-3.5,7.6-6.2c1.8-2.8,2.8-6,2.8-9.4c0-4.5-1.8-8.8-5-11.9
				C31.8,12.4,27.5,10.6,23,10.6z M23,43.1c-3.1,0-6.1-0.9-8.7-2.7c-2.6-1.7-4.6-4.2-5.7-7c-1.2-2.8-1.5-6-0.9-9
				c0.6-3.1,2.1-5.8,4.3-8s5-3.7,8-4.3c3.1-0.6,6.2-0.3,9,0.9s5.3,3.2,7,5.7c1.7,2.6,2.7,5.5,2.7,8.7c0,4.1-1.6,8.1-4.6,11
				S27.1,43.1,23,43.1z"/>
			<path class="st1" d="M31,20.6L21,31.8L15,27c-0.2-0.1-0.3-0.2-0.5-0.1c-0.2,0-0.3,0.1-0.4,0.2c-0.1,0.2-0.2,0.3-0.2,0.5
				s0.1,0.3,0.2,0.4l6.5,5.2c0.1,0.1,0.2,0.2,0.4,0.2c0.1,0,0.2,0,0.2-0.1c0.1,0,0.2-0.1,0.2-0.2l10.4-11.7c0.1-0.2,0.2-0.3,0.2-0.5
				s-0.1-0.3-0.2-0.5c-0.1-0.1-0.2-0.1-0.2-0.2c-0.1,0-0.2,0-0.2,0c-0.1,0-0.2,0-0.2,0.1C31,20.4,31,20.5,31,20.6z"/>
		</g>
	</g>
</g>
</svg>
