<svg xmlns="http://www.w3.org/2000/svg" xmlns:xlink="http://www.w3.org/1999/xlink" width="1080" zoomAndPan="magnify" viewBox="0 0 810 1012.49997" height="1350" preserveAspectRatio="xMidYMid meet" version="1.2"><defs><clipPath id="fe1d94b4b8"><path d="M 0.199219 0 L 108 0 L 108 17 L 0.199219 17 Z M 0.199219 0 "/></clipPath><clipPath id="5844b3de31"><path d="M -198.101562 16.757812 L 107.367188 16.796875 L 107.375 -29.351562 C 107.375 -50.816406 89.980469 -68.226562 68.507812 -68.226562 L -198.089844 -68.257812 Z M -198.101562 16.757812 "/></clipPath><linearGradient x1="330.012643" gradientTransform="matrix(0.626876,0,0,0.626915,-206.677149,-164.571065)" y1="221.464" x2="500.980002" gradientUnits="userSpaceOnUse" y2="221.464" id="e1e875f87a"><stop style="stop-color:#587f26;stop-opacity:1;" offset="0"/><stop style="stop-color:#577e26;stop-opacity:1;" offset="0.03125"/><stop style="stop-color:#577d26;stop-opacity:1;" offset="0.0625"/><stop style="stop-color:#567c26;stop-opacity:1;" offset="0.09375"/><stop style="stop-color:#557b26;stop-opacity:1;" offset="0.125"/><stop style="stop-color:#557a26;stop-opacity:1;" offset="0.15625"/><stop style="stop-color:#547926;stop-opacity:1;" offset="0.1875"/><stop style="stop-color:#537826;stop-opacity:1;" offset="0.21875"/><stop style="stop-color:#537726;stop-opacity:1;" offset="0.25"/><stop style="stop-color:#527726;stop-opacity:1;" offset="0.28125"/><stop style="stop-color:#517626;stop-opacity:1;" offset="0.3125"/><stop style="stop-color:#517526;stop-opacity:1;" offset="0.34375"/><stop style="stop-color:#507426;stop-opacity:1;" offset="0.375"/><stop style="stop-color:#4f7326;stop-opacity:1;" offset="0.40625"/><stop style="stop-color:#4f7226;stop-opacity:1;" offset="0.4375"/><stop style="stop-color:#4e7126;stop-opacity:1;" offset="0.46875"/><stop style="stop-color:#4d7026;stop-opacity:1;" offset="0.5"/><stop style="stop-color:#4d6f26;stop-opacity:1;" offset="0.53125"/><stop style="stop-color:#4c6e26;stop-opacity:1;" offset="0.5625"/><stop style="stop-color:#4b6d26;stop-opacity:1;" offset="0.59375"/><stop style="stop-color:#4b6c26;stop-opacity:1;" offset="0.625"/><stop style="stop-color:#4a6b26;stop-opacity:1;" offset="0.65625"/><stop style="stop-color:#496a26;stop-opacity:1;" offset="0.6875"/><stop style="stop-color:#486926;stop-opacity:1;" offset="0.71875"/><stop style="stop-color:#486826;stop-opacity:1;" offset="0.75"/><stop style="stop-color:#476726;stop-opacity:1;" offset="0.78125"/><stop style="stop-color:#466626;stop-opacity:1;" offset="0.8125"/><stop style="stop-color:#466526;stop-opacity:1;" offset="0.84375"/><stop style="stop-color:#456426;stop-opacity:1;" offset="0.875"/><stop style="stop-color:#446326;stop-opacity:1;" offset="0.90625"/><stop style="stop-color:#446226;stop-opacity:1;" offset="0.9375"/><stop style="stop-color:#436126;stop-opacity:1;" offset="0.96875"/><stop style="stop-color:#426026;stop-opacity:1;" offset="1"/></linearGradient><clipPath id="4f95c6033b"><path d="M 265.890625 366.890625 L 544 366.890625 L 544 645 L 265.890625 645 Z M 265.890625 366.890625 "/></clipPath></defs><g id="ac4b5d5474"><g clip-rule="nonzero" clip-path="url(#fe1d94b4b8)"><g clip-rule="nonzero" clip-path="url(#5844b3de31)"><path style=" stroke:none;fill-rule:nonzero;fill:url(#e1e875f87a);" d="M 0.199219 0 L 0.199219 16.796875 L 107.375 16.796875 L 107.375 0 Z M 0.199219 0 "/></g></g><path style=" stroke:none;fill-rule:nonzero;fill:#353f2a;fill-opacity:1;" d="M 465.585938 530.546875 L 412.519531 501.449219 L 412.53125 403.425781 C 412.53125 399.238281 409.136719 395.84375 404.945312 395.839844 C 400.757812 395.839844 397.359375 399.238281 397.359375 403.425781 L 397.351562 505.9375 C 397.351562 508.710938 398.859375 511.257812 401.289062 512.589844 L 458.292969 543.847656 C 459.449219 544.484375 460.699219 544.78125 461.929688 544.78125 C 464.613281 544.78125 467.210938 543.359375 468.589844 540.84375 C 470.601562 537.167969 469.257812 532.558594 465.585938 530.546875 "/><g clip-rule="nonzero" clip-path="url(#4f95c6033b)"><path style=" stroke:none;fill-rule:nonzero;fill:#353f2a;fill-opacity:1;" d="M 404.945312 629.828125 C 336.636719 629.828125 281.066406 574.253906 281.066406 505.945312 C 281.066406 437.636719 336.636719 382.066406 404.945312 382.066406 C 473.253906 382.066406 528.828125 437.636719 528.828125 505.945312 C 528.828125 574.253906 473.253906 629.828125 404.945312 629.828125 Z M 503.269531 407.621094 C 477.007812 381.359375 442.085938 366.894531 404.945312 366.894531 C 367.804688 366.894531 332.882812 381.359375 306.621094 407.621094 C 280.359375 433.886719 265.894531 468.804688 265.894531 505.945312 C 265.894531 543.089844 280.359375 578.007812 306.621094 604.269531 C 332.882812 630.535156 367.804688 644.996094 404.945312 644.996094 C 442.085938 644.996094 477.007812 630.535156 503.269531 604.269531 C 529.535156 578.007812 543.996094 543.089844 543.996094 505.945312 C 543.996094 468.804688 529.535156 433.886719 503.269531 407.621094 "/></g></g></svg>