<svg xmlns="http://www.w3.org/2000/svg" xmlns:xlink="http://www.w3.org/1999/xlink" width="1080" zoomAndPan="magnify" viewBox="0 0 810 1012.49997" height="1350" preserveAspectRatio="xMidYMid meet" version="1.2"><defs><clipPath id="ddf8c6e7e8"><path d="M 247.367188 348.367188 L 562.960938 348.367188 L 562.960938 663.960938 L 247.367188 663.960938 Z M 247.367188 348.367188 "/></clipPath><clipPath id="9535c6e14a"><path d="M 401.488281 431.519531 L 408.511719 431.519531 L 408.511719 438.542969 L 401.488281 438.542969 Z M 401.488281 431.519531 "/></clipPath><clipPath id="e8a9810c62"><path d="M 0.488281 0.519531 L 7.511719 0.519531 L 7.511719 7.542969 L 0.488281 7.542969 Z M 0.488281 0.519531 "/></clipPath><clipPath id="2c8d446edf"><rect x="0" width="8" y="0" height="8"/></clipPath></defs><g id="552dc3f2dd"><path style=" stroke:none;fill-rule:nonzero;fill:#4c583f;fill-opacity:1;" d="M 473.738281 533.886719 L 413.585938 500.902344 L 413.597656 389.785156 C 413.597656 385.035156 409.75 381.1875 405 381.183594 C 400.25 381.183594 396.402344 385.035156 396.402344 389.78125 L 396.390625 505.992188 C 396.390625 509.132812 398.101562 512.023438 400.855469 513.53125 L 465.472656 548.964844 C 466.785156 549.683594 468.199219 550.023438 469.597656 550.023438 C 472.636719 550.023438 475.582031 548.410156 477.144531 545.558594 C 479.425781 541.394531 477.90625 536.167969 473.738281 533.886719 "/><g clip-rule="nonzero" clip-path="url(#ddf8c6e7e8)"><path style=" stroke:none;fill-rule:nonzero;fill:#4c583f;fill-opacity:1;" d="M 405 646.429688 C 327.566406 646.429688 264.566406 583.433594 264.566406 506 C 264.566406 428.566406 327.566406 365.566406 405 365.566406 C 482.433594 365.566406 545.429688 428.566406 545.429688 506 C 545.429688 583.433594 482.433594 646.429688 405 646.429688 Z M 516.460938 394.539062 C 486.6875 364.769531 447.101562 348.371094 405 348.371094 C 362.894531 348.371094 323.3125 364.769531 293.539062 394.539062 C 263.769531 424.3125 247.371094 463.894531 247.371094 506 C 247.371094 548.101562 263.769531 587.6875 293.539062 617.460938 C 323.3125 647.230469 362.894531 663.625 405 663.625 C 447.101562 663.625 486.6875 647.230469 516.460938 617.460938 C 546.230469 587.6875 562.625 548.101562 562.625 506 C 562.625 463.894531 546.230469 424.3125 516.460938 394.539062 "/></g><g clip-rule="nonzero" clip-path="url(#9535c6e14a)"><g transform="matrix(1,0,0,1,401,431)"><g clip-path="url(#2c8d446edf)"><g clip-rule="nonzero" clip-path="url(#e8a9810c62)"><path style=" stroke:none;fill-rule:nonzero;fill:#4c583f;fill-opacity:1;" d="M 0.488281 0.519531 L 7.511719 0.519531 L 7.511719 7.542969 L 0.488281 7.542969 Z M 0.488281 0.519531 "/></g></g></g></g></g></svg>