<svg xmlns="http://www.w3.org/2000/svg" xmlns:xlink="http://www.w3.org/1999/xlink" width="1080" zoomAndPan="magnify" viewBox="0 0 810 1012.49997" height="1350" preserveAspectRatio="xMidYMid meet" version="1.0"><path fill="#422b1c" d="M 555.199219 473.703125 L 518.546875 473.703125 L 518.546875 525.632812 L 530.359375 525.632812 C 533.816406 525.632812 536.617188 528.433594 536.617188 531.890625 L 536.617188 546.75 C 536.617188 558.378906 527.128906 567.867188 515.5 567.867188 L 514.214844 567.867188 L 532.375 586.027344 C 555.722656 569.71875 588.21875 586.394531 588.21875 615.1875 C 588.21875 634.808594 572.308594 650.71875 552.6875 650.71875 C 523.898438 650.71875 507.222656 618.222656 523.527344 594.875 L 496.523438 567.867188 L 411.207031 567.867188 L 411.207031 641.398438 C 439.238281 646.378906 450.441406 681.140625 430.074219 701.507812 C 416.195312 715.382812 393.703125 715.382812 379.824219 701.507812 C 359.457031 681.140625 370.664062 646.378906 398.691406 641.398438 L 398.691406 567.867188 L 313.375 567.867188 L 286.371094 594.875 C 302.675781 618.222656 286 650.71875 257.210938 650.71875 C 237.589844 650.71875 221.679688 634.808594 221.679688 615.1875 C 221.679688 586.394531 254.175781 569.71875 277.523438 586.027344 L 295.683594 567.867188 L 294.398438 567.867188 C 282.769531 567.867188 273.28125 558.378906 273.28125 546.75 L 273.28125 531.890625 C 273.28125 528.433594 276.082031 525.632812 279.535156 525.632812 L 291.351562 525.632812 L 291.351562 473.703125 L 254.699219 473.703125 C 249.71875 501.734375 214.960938 512.9375 194.59375 492.570312 C 180.71875 478.695312 180.71875 456.199219 194.59375 442.324219 C 214.960938 421.957031 249.71875 433.164062 254.699219 461.191406 L 291.351562 461.191406 L 291.351562 434.859375 L 262.046875 402.816406 C 255.59375 395.757812 254.683594 385.40625 259.425781 377.398438 L 221.925781 336.394531 C 219.605469 333.859375 219.78125 329.917969 222.316406 327.597656 C 224.855469 325.277344 228.792969 325.449219 231.117188 327.988281 L 268.617188 368.996094 C 277.015625 364.980469 287.253906 366.820312 293.695312 373.871094 L 307.433594 388.894531 C 309.046875 388.507812 310.660156 388.304688 312.242188 388.304688 L 371.828125 388.304688 C 373.820312 387.363281 375.847656 386.527344 377.914062 385.789062 C 385.917969 382.929688 393.816406 381.734375 402.847656 381.734375 C 374.070312 371.582031 365.398438 334.621094 387.214844 312.804688 C 403.523438 296.496094 429.964844 296.496094 446.277344 312.804688 C 468.089844 334.621094 459.417969 371.582031 430.640625 381.734375 L 431.960938 381.734375 C 441.710938 381.734375 450.929688 384.105469 459.070312 388.304688 L 497.65625 388.304688 C 509.160156 388.304688 518.546875 397.691406 518.546875 409.195312 L 518.546875 461.1875 L 555.199219 461.1875 C 560.179688 433.160156 594.9375 421.953125 615.304688 442.320312 C 629.183594 456.199219 629.183594 478.691406 615.304688 492.570312 C 594.9375 512.9375 560.179688 501.734375 555.199219 473.703125 Z M 398.691406 506.390625 C 398.007812 504.304688 397.632812 502.078125 397.632812 499.769531 C 397.632812 487.390625 407.121094 483.597656 416.167969 479.132812 L 448.890625 462.984375 L 448.890625 443.90625 C 448.890625 440.453125 451.691406 437.652344 455.148438 437.652344 C 458.605469 437.652344 461.40625 440.449219 461.40625 443.90625 L 461.40625 466.855469 L 461.390625 466.855469 C 461.390625 469.152344 460.113281 471.367188 457.910156 472.453125 L 420.140625 491.097656 C 416.476562 492.886719 412.917969 494.621094 411.207031 496.863281 L 411.207031 503.921875 C 411.617188 504.675781 412.132812 505.363281 412.730469 505.964844 C 414.328125 507.558594 416.519531 508.546875 418.929688 508.546875 L 424.160156 508.546875 L 478.96875 480.601562 L 478.96875 441.25 C 478.96875 415.410156 457.804688 394.246094 431.964844 394.246094 L 402.242188 394.246094 C 387.824219 394.246094 375.59375 398.609375 364.441406 407.734375 L 341.058594 426.867188 C 335.992188 431.011719 328.59375 430.480469 324.152344 425.625 L 284.507812 382.273438 C 279.25 376.523438 269.285156 379.796875 268.917969 387.929688 C 268.816406 390.25 269.578125 392.59375 271.238281 394.40625 L 314.320312 441.515625 C 323.710938 451.785156 337.925781 454.636719 350.574219 448.785156 L 376.085938 436.980469 C 380.246094 435.058594 384.949219 438.199219 384.945312 442.652344 L 384.957031 442.652344 L 384.957031 508.546875 L 398.695312 508.546875 L 398.695312 506.390625 Z M 303.863281 448.539062 L 303.863281 525.632812 L 369.84375 525.632812 C 371.890625 525.632812 373.707031 526.617188 374.851562 528.136719 L 380.832031 534.679688 L 428.949219 534.679688 L 434.886719 527.808594 C 436.121094 526.382812 437.855469 525.652344 439.605469 525.652344 L 439.605469 525.632812 L 506.035156 525.632812 L 506.035156 409.199219 C 506.035156 404.601562 502.25 400.816406 497.652344 400.816406 L 475.542969 400.816406 C 485.421875 411.449219 491.480469 425.675781 491.480469 441.253906 L 491.480469 484.429688 L 491.476562 484.429688 C 491.472656 486.703125 490.226562 488.898438 488.058594 490 L 428.71875 520.257812 C 427.8125 520.769531 426.765625 521.0625 425.648438 521.0625 L 384.789062 521.0625 C 378.011719 521.0625 372.441406 515.519531 372.441406 508.714844 L 372.441406 452.425781 L 355.804688 460.125 C 338.265625 468.242188 318.175781 464.191406 305.128906 449.925781 Z M 318.339844 400.816406 L 333.238281 417.109375 L 353.152344 400.816406 Z M 437.429688 321.652344 C 426.007812 310.230469 407.480469 310.230469 396.058594 321.652344 C 384.636719 333.074219 384.636719 351.601562 396.058594 363.023438 C 407.480469 374.445312 426.007812 374.445312 437.429688 363.023438 C 448.851562 351.601562 448.851562 333.074219 437.429688 321.652344 Z M 367.125 538.144531 L 285.792969 538.144531 L 285.792969 546.75 C 285.792969 551.46875 289.675781 555.355469 294.394531 555.355469 L 515.5 555.355469 C 520.222656 555.355469 524.105469 551.46875 524.105469 546.75 L 524.105469 538.144531 L 442.441406 538.144531 L 436.824219 544.648438 C 435.683594 546.191406 433.851562 547.195312 431.785156 547.195312 L 378.113281 547.195312 L 378.113281 547.164062 C 376.425781 547.164062 374.746094 546.480469 373.519531 545.140625 Z M 203.441406 483.722656 C 217.902344 498.183594 242.738281 487.894531 242.738281 467.445312 C 242.738281 447 217.902344 436.707031 203.441406 451.167969 C 194.453125 460.15625 194.449219 474.734375 203.441406 483.722656 Z M 606.457031 451.167969 C 591.996094 436.707031 567.160156 447 567.160156 467.445312 C 567.160156 487.894531 591.996094 498.183594 606.457031 483.722656 C 615.445312 474.734375 615.449219 460.15625 606.457031 451.167969 Z M 273.488281 631.460938 C 287.941406 617.007812 277.671875 592.164062 257.210938 592.164062 C 236.746094 592.164062 226.484375 617.011719 240.933594 631.460938 C 249.921875 640.453125 264.5 640.453125 273.488281 631.460938 Z M 421.226562 692.65625 C 435.6875 678.195312 425.398438 653.359375 404.949219 653.359375 C 384.5 653.359375 374.210938 678.195312 388.671875 692.65625 C 397.660156 701.644531 412.238281 701.644531 421.226562 692.65625 Z M 575.707031 615.183594 C 575.707031 594.722656 550.859375 584.457031 536.410156 598.90625 C 521.957031 613.359375 532.226562 638.203125 552.6875 638.203125 C 565.402344 638.203125 575.707031 627.898438 575.707031 615.183594 Z M 575.707031 615.183594 " fill-opacity="1" fill-rule="evenodd"/></svg>