<svg xmlns="http://www.w3.org/2000/svg" xmlns:xlink="http://www.w3.org/1999/xlink" width="1080" zoomAndPan="magnify" viewBox="0 0 810 1012.49997" height="1350" preserveAspectRatio="xMidYMid meet" version="1.2"><defs><clipPath id="3bcf801697"><path d="M 227.371094 250.878906 L 582.695312 250.878906 L 582.695312 761.378906 L 227.371094 761.378906 Z M 227.371094 250.878906 "/></clipPath><clipPath id="9fd3ebabe0"><path d="M 276.066406 421.75 L 284.910156 421.75 L 284.910156 428.671875 L 276.066406 428.671875 Z M 276.066406 421.75 "/></clipPath></defs><g id="5f8bec2448"><g clip-rule="nonzero" clip-path="url(#3bcf801697)"><path style=" stroke:none;fill-rule:nonzero;fill:#353f2a;fill-opacity:1;" d="M 582.597656 428.476562 C 582.597656 330.546875 502.925781 250.875 405 250.875 C 307.074219 250.875 227.402344 330.546875 227.402344 428.476562 C 227.402344 513.414062 289.191406 587.199219 372.03125 602.835938 L 372.03125 638.417969 L 320.195312 638.417969 C 319.191406 638.417969 318.199219 638.515625 317.21875 638.710938 C 316.234375 638.910156 315.28125 639.199219 314.355469 639.582031 C 313.429688 639.964844 312.546875 640.4375 311.714844 640.992188 C 310.882812 641.550781 310.109375 642.183594 309.402344 642.894531 C 308.695312 643.601562 308.0625 644.371094 307.503906 645.207031 C 306.945312 646.039062 306.476562 646.917969 306.09375 647.84375 C 305.707031 648.769531 305.417969 649.726562 305.222656 650.707031 C 305.023438 651.691406 304.925781 652.683594 304.925781 653.6875 L 304.925781 689.078125 C 304.925781 690.082031 305.023438 691.074219 305.222656 692.058594 C 305.417969 693.039062 305.707031 693.996094 306.09375 694.921875 C 306.476562 695.847656 306.945312 696.726562 307.503906 697.558594 C 308.0625 698.390625 308.695312 699.164062 309.402344 699.871094 C 310.109375 700.582031 310.882812 701.214844 311.714844 701.769531 C 312.546875 702.328125 313.429688 702.796875 314.355469 703.183594 C 315.28125 703.566406 316.234375 703.855469 317.21875 704.054688 C 318.199219 704.25 319.191406 704.347656 320.195312 704.347656 L 372.03125 704.347656 L 372.03125 745.855469 C 372.035156 746.855469 372.132812 747.847656 372.328125 748.832031 C 372.523438 749.816406 372.816406 750.769531 373.199219 751.695312 C 373.582031 752.621094 374.054688 753.5 374.609375 754.332031 C 375.167969 755.167969 375.800781 755.9375 376.511719 756.648438 C 377.21875 757.355469 377.988281 757.988281 378.824219 758.546875 C 379.65625 759.101562 380.535156 759.574219 381.460938 759.957031 C 382.386719 760.339844 383.34375 760.632812 384.324219 760.828125 C 385.308594 761.023438 386.300781 761.121094 387.304688 761.125 L 422.695312 761.125 C 423.699219 761.121094 424.691406 761.023438 425.675781 760.828125 C 426.65625 760.632812 427.613281 760.339844 428.539062 759.957031 C 429.464844 759.574219 430.34375 759.101562 431.175781 758.546875 C 432.007812 757.988281 432.78125 757.355469 433.488281 756.648438 C 434.199219 755.9375 434.832031 755.167969 435.386719 754.332031 C 435.945312 753.5 436.414062 752.621094 436.800781 751.695312 C 437.183594 750.769531 437.472656 749.816406 437.671875 748.832031 C 437.867188 747.847656 437.964844 746.855469 437.964844 745.855469 L 437.964844 704.347656 L 489.804688 704.347656 C 490.804688 704.347656 491.796875 704.25 492.78125 704.054688 C 493.765625 703.855469 494.71875 703.566406 495.644531 703.183594 C 496.570312 702.796875 497.449219 702.328125 498.285156 701.769531 C 499.117188 701.214844 499.886719 700.582031 500.597656 699.871094 C 501.304688 699.164062 501.9375 698.390625 502.496094 697.558594 C 503.050781 696.726562 503.523438 695.847656 503.90625 694.921875 C 504.292969 693.996094 504.582031 693.039062 504.777344 692.058594 C 504.972656 691.074219 505.074219 690.082031 505.074219 689.078125 L 505.074219 653.6875 C 505.074219 652.683594 504.972656 651.691406 504.777344 650.707031 C 504.582031 649.726562 504.292969 648.769531 503.90625 647.84375 C 503.523438 646.917969 503.050781 646.039062 502.496094 645.207031 C 501.9375 644.371094 501.304688 643.601562 500.597656 642.894531 C 499.886719 642.183594 499.117188 641.550781 498.285156 640.992188 C 497.449219 640.4375 496.570312 639.964844 495.644531 639.582031 C 494.71875 639.199219 493.765625 638.90625 492.78125 638.710938 C 491.796875 638.515625 490.804688 638.417969 489.804688 638.417969 L 437.964844 638.417969 L 437.964844 602.835938 C 520.808594 587.207031 582.597656 513.421875 582.597656 428.476562 Z M 489.804688 652.511719 C 489.960938 652.511719 490.109375 652.539062 490.253906 652.601562 C 490.398438 652.660156 490.523438 652.746094 490.632812 652.855469 C 490.746094 652.964844 490.828125 653.09375 490.890625 653.234375 C 490.949219 653.378906 490.976562 653.53125 490.976562 653.6875 L 490.976562 689.078125 C 490.976562 689.234375 490.949219 689.386719 490.890625 689.527344 C 490.828125 689.671875 490.746094 689.800781 490.632812 689.910156 C 490.523438 690.019531 490.398438 690.105469 490.253906 690.164062 C 490.109375 690.222656 489.960938 690.253906 489.804688 690.253906 L 430.917969 690.253906 C 430.457031 690.253906 429.996094 690.300781 429.542969 690.390625 C 429.089844 690.480469 428.648438 690.613281 428.222656 690.789062 C 427.792969 690.96875 427.386719 691.183594 427.003906 691.441406 C 426.617188 691.699219 426.261719 691.992188 425.9375 692.320312 C 425.609375 692.644531 425.316406 693 425.058594 693.386719 C 424.800781 693.769531 424.585938 694.175781 424.40625 694.605469 C 424.230469 695.03125 424.097656 695.472656 424.007812 695.925781 C 423.917969 696.378906 423.871094 696.839844 423.871094 697.300781 L 423.871094 745.855469 C 423.871094 746.011719 423.839844 746.160156 423.78125 746.304688 C 423.722656 746.449219 423.636719 746.574219 423.527344 746.683594 C 423.417969 746.796875 423.289062 746.878906 423.144531 746.9375 C 423.003906 747 422.851562 747.027344 422.695312 747.027344 L 387.304688 747.027344 C 387.148438 747.027344 386.996094 747 386.851562 746.9375 C 386.710938 746.878906 386.582031 746.796875 386.472656 746.683594 C 386.363281 746.574219 386.277344 746.449219 386.21875 746.304688 C 386.15625 746.160156 386.128906 746.011719 386.128906 745.855469 L 386.128906 697.300781 C 386.128906 696.839844 386.082031 696.378906 385.992188 695.925781 C 385.902344 695.472656 385.769531 695.03125 385.589844 694.605469 C 385.414062 694.175781 385.195312 693.769531 384.941406 693.386719 C 384.683594 693 384.390625 692.644531 384.0625 692.320312 C 383.738281 691.992188 383.378906 691.699219 382.996094 691.441406 C 382.609375 691.183594 382.203125 690.96875 381.777344 690.789062 C 381.351562 690.613281 380.910156 690.480469 380.457031 690.390625 C 380 690.300781 379.542969 690.253906 379.082031 690.253906 L 320.195312 690.253906 C 320.039062 690.253906 319.890625 690.222656 319.746094 690.164062 C 319.601562 690.105469 319.476562 690.019531 319.363281 689.910156 C 319.253906 689.800781 319.167969 689.671875 319.109375 689.527344 C 319.050781 689.386719 319.019531 689.234375 319.019531 689.078125 L 319.019531 653.6875 C 319.019531 653.53125 319.050781 653.378906 319.109375 653.234375 C 319.167969 653.09375 319.253906 652.964844 319.363281 652.855469 C 319.476562 652.746094 319.601562 652.660156 319.746094 652.601562 C 319.890625 652.539062 320.039062 652.511719 320.195312 652.511719 L 379.082031 652.511719 C 379.542969 652.511719 380 652.464844 380.457031 652.375 C 380.910156 652.285156 381.351562 652.152344 381.777344 651.972656 C 382.203125 651.796875 382.609375 651.578125 382.996094 651.324219 C 383.378906 651.066406 383.738281 650.773438 384.0625 650.445312 C 384.390625 650.121094 384.683594 649.761719 384.941406 649.378906 C 385.195312 648.992188 385.414062 648.585938 385.589844 648.160156 C 385.769531 647.734375 385.902344 647.292969 385.992188 646.839844 C 386.082031 646.382812 386.128906 645.925781 386.128906 645.464844 L 386.128906 597.066406 C 386.09375 596.835938 386.046875 596.605469 385.988281 596.378906 C 385.945312 595.824219 385.835938 595.28125 385.660156 594.753906 C 385.53125 594.40625 385.371094 594.066406 385.183594 593.746094 C 384.949219 593.292969 384.664062 592.875 384.335938 592.488281 C 383.433594 591.425781 382.304688 590.730469 380.953125 590.398438 C 380.695312 590.285156 380.4375 590.191406 380.167969 590.113281 C 301.113281 578.0625 241.5 508.578125 241.5 428.476562 C 241.5 338.320312 314.84375 264.972656 405 264.972656 C 495.152344 264.972656 568.5 338.320312 568.5 428.476562 C 568.5 508.570312 508.894531 578.054688 429.859375 590.101562 C 429.582031 590.183594 429.316406 590.28125 429.054688 590.394531 C 428.589844 590.511719 428.140625 590.675781 427.714844 590.886719 C 427.324219 591.09375 426.960938 591.339844 426.621094 591.621094 C 425.886719 592.152344 425.308594 592.824219 424.890625 593.628906 C 424.398438 594.417969 424.117188 595.273438 424.046875 596.203125 C 423.96875 596.488281 423.910156 596.773438 423.871094 597.066406 L 423.871094 645.464844 C 423.871094 645.925781 423.917969 646.382812 424.007812 646.839844 C 424.097656 647.292969 424.230469 647.734375 424.40625 648.160156 C 424.585938 648.585938 424.800781 648.992188 425.058594 649.378906 C 425.316406 649.761719 425.609375 650.121094 425.9375 650.445312 C 426.261719 650.773438 426.617188 651.066406 427.003906 651.324219 C 427.386719 651.578125 427.792969 651.796875 428.222656 651.972656 C 428.648438 652.152344 429.089844 652.285156 429.542969 652.375 C 429.996094 652.464844 430.457031 652.511719 430.917969 652.511719 Z M 489.804688 652.511719 "/></g><path style=" stroke:none;fill-rule:nonzero;fill:#353f2a;fill-opacity:1;" d="M 535.613281 428.476562 C 535.613281 426.339844 535.558594 424.203125 535.453125 422.070312 C 535.351562 419.933594 535.191406 417.800781 534.984375 415.675781 C 534.773438 413.546875 534.511719 411.425781 534.199219 409.3125 C 533.882812 407.199219 533.519531 405.09375 533.101562 402.996094 C 532.683594 400.898438 532.214844 398.816406 531.699219 396.742188 C 531.179688 394.667969 530.609375 392.609375 529.988281 390.5625 C 529.367188 388.515625 528.695312 386.488281 527.976562 384.476562 C 527.257812 382.464844 526.488281 380.46875 525.667969 378.496094 C 524.851562 376.519531 523.984375 374.566406 523.070312 372.632812 C 522.15625 370.703125 521.195312 368.792969 520.1875 366.90625 C 519.179688 365.023438 518.128906 363.164062 517.027344 361.328125 C 515.929688 359.496094 514.785156 357.691406 513.597656 355.914062 C 512.410156 354.136719 511.179688 352.390625 509.90625 350.671875 C 508.632812 348.957031 507.320312 347.269531 505.960938 345.617188 C 504.605469 343.964844 503.210938 342.347656 501.773438 340.765625 C 500.339844 339.179688 498.867188 337.632812 497.355469 336.121094 C 495.84375 334.609375 494.296875 333.136719 492.710938 331.703125 C 491.128906 330.265625 489.507812 328.871094 487.855469 327.515625 C 486.203125 326.15625 484.519531 324.84375 482.804688 323.570312 C 481.085938 322.296875 479.339844 321.066406 477.5625 319.878906 C 475.785156 318.691406 473.980469 317.546875 472.144531 316.449219 C 470.3125 315.351562 468.453125 314.296875 466.566406 313.289062 C 464.683594 312.28125 462.773438 311.320312 460.839844 310.40625 C 458.910156 309.492188 456.953125 308.628906 454.980469 307.808594 C 453.003906 306.992188 451.011719 306.222656 449 305.503906 C 446.984375 304.78125 444.957031 304.113281 442.910156 303.492188 C 440.867188 302.871094 438.804688 302.300781 436.734375 301.78125 C 434.660156 301.261719 432.574219 300.792969 430.476562 300.378906 C 428.382812 299.960938 426.277344 299.59375 424.160156 299.28125 C 422.046875 298.96875 419.925781 298.707031 417.796875 298.496094 C 415.671875 298.289062 413.539062 298.128906 411.40625 298.027344 C 409.269531 297.921875 407.132812 297.867188 404.996094 297.867188 C 402.859375 297.867188 400.722656 297.921875 398.585938 298.027344 C 396.453125 298.132812 394.320312 298.289062 392.195312 298.496094 C 390.066406 298.707031 387.945312 298.96875 385.832031 299.28125 C 383.71875 299.597656 381.613281 299.960938 379.515625 300.378906 C 377.417969 300.796875 375.335938 301.265625 373.261719 301.785156 C 371.1875 302.304688 369.128906 302.871094 367.082031 303.492188 C 365.035156 304.113281 363.007812 304.785156 360.996094 305.503906 C 358.984375 306.222656 356.988281 306.992188 355.015625 307.8125 C 353.039062 308.628906 351.085938 309.496094 349.152344 310.410156 C 347.222656 311.324219 345.3125 312.285156 343.425781 313.292969 C 341.542969 314.300781 339.683594 315.351562 337.847656 316.453125 C 336.015625 317.550781 334.210938 318.695312 332.433594 319.882812 C 330.65625 321.070312 328.910156 322.300781 327.191406 323.574219 C 325.476562 324.847656 323.789062 326.160156 322.136719 327.515625 C 320.484375 328.875 318.867188 330.269531 317.285156 331.703125 C 315.699219 333.140625 314.152344 334.613281 312.640625 336.125 C 311.128906 337.636719 309.65625 339.183594 308.222656 340.769531 C 306.785156 342.351562 305.390625 343.96875 304.035156 345.621094 C 302.675781 347.273438 301.363281 348.960938 300.089844 350.675781 C 298.816406 352.394531 297.585938 354.140625 296.398438 355.917969 C 295.210938 357.695312 294.066406 359.5 292.96875 361.332031 C 291.871094 363.167969 290.816406 365.027344 289.808594 366.910156 C 288.800781 368.796875 287.839844 370.707031 286.925781 372.636719 C 286.011719 374.570312 285.148438 376.523438 284.328125 378.5 C 283.511719 380.472656 282.742188 382.46875 282.019531 384.480469 C 281.300781 386.492188 280.632812 388.523438 280.011719 390.566406 C 279.390625 392.613281 278.820312 394.671875 278.300781 396.746094 C 277.78125 398.820312 277.3125 400.902344 276.894531 403 C 276.480469 405.097656 276.113281 407.203125 275.800781 409.316406 C 275.488281 411.429688 275.226562 413.550781 275.015625 415.679688 C 274.804688 417.808594 274.648438 419.9375 274.542969 422.074219 C 274.4375 424.207031 274.386719 426.34375 274.386719 428.480469 C 274.386719 430.621094 274.4375 432.753906 274.542969 434.890625 C 274.648438 437.027344 274.804688 439.15625 275.015625 441.285156 C 275.226562 443.410156 275.488281 445.53125 275.800781 447.648438 C 276.113281 449.761719 276.480469 451.867188 276.898438 453.964844 C 277.3125 456.058594 277.78125 458.144531 278.300781 460.21875 C 278.820312 462.292969 279.390625 464.351562 280.011719 466.398438 C 280.632812 468.441406 281.300781 470.472656 282.023438 472.484375 C 282.742188 474.496094 283.511719 476.492188 284.328125 478.464844 C 285.148438 480.441406 286.011719 482.394531 286.925781 484.324219 C 287.839844 486.257812 288.800781 488.167969 289.808594 490.050781 C 290.816406 491.9375 291.871094 493.796875 292.96875 495.628906 C 294.070312 497.464844 295.210938 499.269531 296.398438 501.046875 C 297.585938 502.824219 298.816406 504.570312 300.089844 506.289062 C 301.363281 508.003906 302.679688 509.691406 304.035156 511.34375 C 305.390625 512.996094 306.785156 514.613281 308.222656 516.195312 C 309.65625 517.78125 311.132812 519.328125 312.644531 520.839844 C 314.152344 522.351562 315.703125 523.824219 317.285156 525.261719 C 318.871094 526.695312 320.488281 528.089844 322.140625 529.445312 C 323.792969 530.804688 325.476562 532.117188 327.195312 533.390625 C 328.910156 534.664062 330.65625 535.894531 332.433594 537.082031 C 334.210938 538.269531 336.019531 539.414062 337.851562 540.511719 C 339.683594 541.609375 341.542969 542.664062 343.429688 543.671875 C 345.316406 544.679688 347.222656 545.640625 349.15625 546.554688 C 351.089844 547.46875 353.042969 548.335938 355.015625 549.152344 C 356.992188 549.96875 358.984375 550.738281 360.996094 551.460938 C 363.011719 552.179688 365.039062 552.851562 367.085938 553.472656 C 369.128906 554.089844 371.191406 554.660156 373.261719 555.179688 C 375.335938 555.699219 377.421875 556.167969 379.519531 556.585938 C 381.613281 557.003906 383.71875 557.367188 385.835938 557.679688 C 387.949219 557.996094 390.070312 558.257812 392.199219 558.464844 C 394.324219 558.675781 396.457031 558.832031 398.589844 558.9375 C 400.726562 559.042969 402.863281 559.09375 405 559.09375 C 407.136719 559.09375 409.273438 559.039062 411.40625 558.929688 C 413.539062 558.824219 415.671875 558.664062 417.796875 558.453125 C 419.925781 558.242188 422.042969 557.976562 424.15625 557.660156 C 426.269531 557.347656 428.375 556.980469 430.472656 556.5625 C 432.566406 556.140625 434.652344 555.671875 436.722656 555.152344 C 438.796875 554.628906 440.855469 554.058594 442.898438 553.4375 C 444.945312 552.816406 446.972656 552.144531 448.984375 551.421875 C 450.996094 550.703125 452.988281 549.933594 454.960938 549.113281 C 456.933594 548.292969 458.886719 547.425781 460.820312 546.511719 C 462.75 545.597656 464.65625 544.636719 466.542969 543.628906 C 468.425781 542.621094 470.285156 541.566406 472.117188 540.46875 C 473.949219 539.367188 475.753906 538.222656 477.53125 537.035156 C 479.308594 535.847656 481.054688 534.617188 482.769531 533.34375 C 484.484375 532.070312 486.167969 530.757812 487.820312 529.402344 C 489.472656 528.042969 491.089844 526.648438 492.675781 525.214844 C 494.257812 523.777344 495.804688 522.304688 497.316406 520.792969 C 498.828125 519.285156 500.300781 517.734375 501.734375 516.152344 C 503.171875 514.570312 504.566406 512.953125 505.921875 511.300781 C 507.277344 509.648438 508.59375 507.964844 509.863281 506.25 C 511.136719 504.53125 512.367188 502.785156 513.558594 501.007812 C 514.746094 499.234375 515.886719 497.429688 516.988281 495.59375 C 518.085938 493.761719 519.140625 491.90625 520.148438 490.019531 C 521.15625 488.136719 522.117188 486.226562 523.03125 484.296875 C 523.945312 482.367188 524.8125 480.414062 525.632812 478.4375 C 526.453125 476.464844 527.222656 474.472656 527.941406 472.460938 C 528.664062 470.449219 529.335938 468.421875 529.957031 466.375 C 530.578125 464.332031 531.148438 462.273438 531.671875 460.199219 C 532.191406 458.128906 532.660156 456.042969 533.078125 453.949219 C 533.496094 451.851562 533.863281 449.75 534.179688 447.636719 C 534.496094 445.523438 534.757812 443.402344 534.972656 441.273438 C 535.183594 439.148438 535.339844 437.019531 535.449219 434.882812 C 535.554688 432.75 535.609375 430.613281 535.613281 428.476562 Z M 405 545 C 403.09375 545 401.1875 544.953125 399.28125 544.859375 C 397.378906 544.765625 395.476562 544.625 393.578125 544.4375 C 391.679688 544.253906 389.789062 544.019531 387.902344 543.738281 C 386.015625 543.460938 384.136719 543.132812 382.265625 542.761719 C 380.398438 542.390625 378.535156 541.972656 376.6875 541.507812 C 374.835938 541.046875 373 540.535156 371.175781 539.984375 C 369.347656 539.429688 367.539062 538.832031 365.742188 538.191406 C 363.949219 537.546875 362.167969 536.859375 360.40625 536.132812 C 358.644531 535.402344 356.902344 534.628906 355.179688 533.8125 C 353.453125 533 351.753906 532.140625 350.070312 531.242188 C 348.386719 530.34375 346.730469 529.40625 345.09375 528.425781 C 343.457031 527.445312 341.847656 526.425781 340.261719 525.363281 C 338.675781 524.304688 337.117188 523.207031 335.585938 522.070312 C 334.054688 520.933594 332.550781 519.761719 331.078125 518.554688 C 329.601562 517.34375 328.160156 516.097656 326.746094 514.816406 C 325.332031 513.535156 323.953125 512.222656 322.605469 510.875 C 321.253906 509.527344 319.941406 508.144531 318.660156 506.730469 C 317.378906 505.320312 316.132812 503.875 314.925781 502.402344 C 313.714844 500.925781 312.542969 499.425781 311.40625 497.890625 C 310.269531 496.359375 309.171875 494.800781 308.113281 493.214844 C 307.050781 491.632812 306.03125 490.019531 305.050781 488.386719 C 304.070312 486.75 303.132812 485.089844 302.234375 483.410156 C 301.332031 481.726562 300.476562 480.023438 299.660156 478.300781 C 298.847656 476.578125 298.074219 474.832031 297.34375 473.070312 C 296.613281 471.308594 295.925781 469.53125 295.285156 467.734375 C 294.640625 465.941406 294.042969 464.128906 293.492188 462.304688 C 292.9375 460.480469 292.429688 458.644531 291.964844 456.792969 C 291.5 454.941406 291.085938 453.082031 290.710938 451.210938 C 290.339844 449.34375 290.015625 447.464844 289.734375 445.578125 C 289.453125 443.691406 289.222656 441.800781 289.035156 439.902344 C 288.847656 438.003906 288.707031 436.101562 288.613281 434.199219 C 288.519531 432.292969 288.472656 430.386719 288.472656 428.480469 C 288.472656 426.574219 288.519531 424.667969 288.613281 422.761719 C 288.707031 420.859375 288.847656 418.957031 289.035156 417.058594 C 289.21875 415.160156 289.453125 413.269531 289.734375 411.382812 C 290.011719 409.496094 290.339844 407.617188 290.710938 405.746094 C 291.082031 403.875 291.5 402.015625 291.964844 400.167969 C 292.425781 398.316406 292.9375 396.480469 293.488281 394.65625 C 294.042969 392.828125 294.640625 391.019531 295.285156 389.222656 C 295.925781 387.429688 296.613281 385.648438 297.339844 383.886719 C 298.070312 382.125 298.84375 380.382812 299.660156 378.660156 C 300.476562 376.933594 301.332031 375.230469 302.230469 373.550781 C 303.128906 371.867188 304.070312 370.210938 305.050781 368.574219 C 306.03125 366.9375 307.050781 365.328125 308.109375 363.742188 C 309.167969 362.15625 310.265625 360.597656 311.402344 359.066406 C 312.539062 357.535156 313.710938 356.03125 314.921875 354.558594 C 316.132812 353.082031 317.375 351.640625 318.65625 350.226562 C 319.9375 348.8125 321.253906 347.433594 322.601562 346.085938 C 323.949219 344.734375 325.328125 343.421875 326.742188 342.140625 C 328.15625 340.859375 329.597656 339.613281 331.074219 338.40625 C 332.546875 337.195312 334.050781 336.023438 335.582031 334.886719 C 337.113281 333.75 338.671875 332.652344 340.257812 331.59375 C 341.84375 330.535156 343.453125 329.511719 345.089844 328.53125 C 346.726562 327.550781 348.382812 326.613281 350.066406 325.714844 C 351.75 324.816406 353.449219 323.957031 355.175781 323.140625 C 356.898438 322.328125 358.640625 321.554688 360.402344 320.824219 C 362.164062 320.09375 363.945312 319.410156 365.738281 318.765625 C 367.535156 318.125 369.34375 317.527344 371.171875 316.972656 C 372.996094 316.417969 374.832031 315.910156 376.683594 315.445312 C 378.53125 314.984375 380.390625 314.566406 382.261719 314.195312 C 384.132812 313.820312 386.011719 313.496094 387.898438 313.214844 C 389.785156 312.9375 391.675781 312.703125 393.574219 312.515625 C 395.472656 312.328125 397.371094 312.1875 399.277344 312.09375 C 401.183594 312 403.089844 311.953125 404.996094 311.953125 C 406.902344 311.953125 408.808594 312 410.710938 312.09375 C 412.617188 312.1875 414.519531 312.328125 416.417969 312.515625 C 418.3125 312.703125 420.207031 312.9375 422.09375 313.214844 C 423.980469 313.496094 425.855469 313.820312 427.726562 314.191406 C 429.597656 314.566406 431.457031 314.984375 433.308594 315.445312 C 435.15625 315.910156 436.996094 316.417969 438.820312 316.972656 C 440.644531 317.523438 442.453125 318.125 444.25 318.765625 C 446.046875 319.40625 447.824219 320.09375 449.585938 320.824219 C 451.347656 321.554688 453.089844 322.328125 454.816406 323.140625 C 456.539062 323.957031 458.242188 324.8125 459.921875 325.714844 C 461.605469 326.613281 463.265625 327.550781 464.898438 328.53125 C 466.535156 329.511719 468.144531 330.53125 469.730469 331.589844 C 471.316406 332.652344 472.875 333.75 474.40625 334.886719 C 475.9375 336.019531 477.441406 337.195312 478.917969 338.402344 C 480.390625 339.613281 481.832031 340.859375 483.246094 342.140625 C 484.660156 343.417969 486.039062 344.734375 487.390625 346.082031 C 488.738281 347.429688 490.050781 348.8125 491.332031 350.226562 C 492.613281 351.636719 493.859375 353.082031 495.066406 354.554688 C 496.277344 356.03125 497.449219 357.53125 498.585938 359.0625 C 499.722656 360.597656 500.820312 362.15625 501.878906 363.742188 C 502.9375 365.324219 503.960938 366.9375 504.941406 368.570312 C 505.921875 370.207031 506.859375 371.867188 507.757812 373.546875 C 508.65625 375.230469 509.515625 376.933594 510.332031 378.65625 C 511.144531 380.382812 511.917969 382.125 512.648438 383.886719 C 513.378906 385.648438 514.0625 387.425781 514.707031 389.222656 C 515.347656 391.015625 515.945312 392.828125 516.5 394.652344 C 517.054688 396.476562 517.5625 398.3125 518.027344 400.164062 C 518.488281 402.015625 518.90625 403.875 519.277344 405.746094 C 519.652344 407.613281 519.976562 409.492188 520.257812 411.378906 C 520.535156 413.265625 520.769531 415.15625 520.957031 417.054688 C 521.144531 418.953125 521.285156 420.855469 521.378906 422.757812 C 521.472656 424.664062 521.519531 426.570312 521.519531 428.476562 C 521.515625 430.382812 521.464844 432.289062 521.371094 434.191406 C 521.277344 436.097656 521.132812 437.996094 520.945312 439.894531 C 520.757812 441.792969 520.519531 443.683594 520.238281 445.566406 C 519.957031 447.453125 519.632812 449.332031 519.257812 451.199219 C 518.882812 453.070312 518.464844 454.929688 518 456.777344 C 517.535156 458.625 517.027344 460.464844 516.472656 462.285156 C 515.917969 464.109375 515.316406 465.921875 514.675781 467.714844 C 514.03125 469.507812 513.34375 471.285156 512.613281 473.046875 C 511.882812 474.808594 511.109375 476.550781 510.292969 478.273438 C 509.480469 479.996094 508.621094 481.699219 507.722656 483.378906 C 506.824219 485.058594 505.882812 486.71875 504.902344 488.351562 C 503.921875 489.988281 502.902344 491.597656 501.84375 493.183594 C 500.78125 494.765625 499.683594 496.324219 498.546875 497.855469 C 497.414062 499.386719 496.238281 500.890625 495.03125 502.363281 C 493.820312 503.835938 492.574219 505.277344 491.296875 506.691406 C 490.015625 508.105469 488.703125 509.484375 487.351562 510.832031 C 486.003906 512.179688 484.625 513.496094 483.210938 514.773438 C 481.800781 516.054688 480.355469 517.300781 478.882812 518.507812 C 477.410156 519.71875 475.910156 520.890625 474.378906 522.027344 C 472.847656 523.164062 471.289062 524.261719 469.703125 525.320312 C 468.117188 526.382812 466.507812 527.402344 464.875 528.382812 C 463.238281 529.363281 461.582031 530.300781 459.902344 531.203125 C 458.21875 532.101562 456.519531 532.957031 454.796875 533.773438 C 453.074219 534.589844 451.332031 535.363281 449.570312 536.09375 C 447.808594 536.824219 446.03125 537.511719 444.238281 538.15625 C 442.441406 538.800781 440.632812 539.398438 438.808594 539.953125 C 436.984375 540.507812 435.148438 541.015625 433.300781 541.480469 C 431.449219 541.945312 429.59375 542.367188 427.722656 542.738281 C 425.851562 543.113281 423.976562 543.441406 422.089844 543.722656 C 420.203125 544.003906 418.3125 544.238281 416.417969 544.425781 C 414.519531 544.617188 412.617188 544.757812 410.714844 544.851562 C 408.8125 544.949219 406.90625 544.996094 405 545 Z M 405 545 "/><path style=" stroke:none;fill-rule:nonzero;fill:#353f2a;fill-opacity:1;" d="M 470.441406 395.507812 L 437.964844 395.507812 L 437.964844 363.03125 C 437.964844 362.042969 437.867188 361.066406 437.675781 360.097656 C 437.480469 359.128906 437.195312 358.191406 436.816406 357.277344 C 436.4375 356.367188 435.976562 355.5 435.425781 354.679688 C 434.878906 353.859375 434.253906 353.097656 433.554688 352.402344 C 432.859375 351.703125 432.097656 351.078125 431.277344 350.53125 C 430.457031 349.980469 429.589844 349.519531 428.679688 349.140625 C 427.765625 348.761719 426.828125 348.476562 425.859375 348.28125 C 424.890625 348.089844 423.914062 347.992188 422.925781 347.992188 L 387.074219 347.992188 C 386.085938 347.992188 385.109375 348.089844 384.140625 348.28125 C 383.171875 348.476562 382.230469 348.761719 381.320312 349.140625 C 380.410156 349.519531 379.542969 349.980469 378.722656 350.53125 C 377.902344 351.078125 377.140625 351.703125 376.441406 352.402344 C 375.746094 353.097656 375.121094 353.859375 374.574219 354.679688 C 374.023438 355.5 373.5625 356.367188 373.183594 357.277344 C 372.804688 358.191406 372.519531 359.128906 372.324219 360.097656 C 372.132812 361.066406 372.035156 362.042969 372.03125 363.03125 L 372.03125 395.507812 L 339.558594 395.507812 C 338.570312 395.507812 337.59375 395.605469 336.625 395.800781 C 335.65625 395.992188 334.714844 396.277344 333.800781 396.65625 C 332.890625 397.035156 332.023438 397.5 331.203125 398.050781 C 330.382812 398.597656 329.621094 399.222656 328.925781 399.921875 C 328.226562 400.621094 327.601562 401.378906 327.054688 402.199219 C 326.503906 403.019531 326.039062 403.886719 325.664062 404.800781 C 325.285156 405.710938 325 406.652344 324.804688 407.621094 C 324.613281 408.589844 324.515625 409.566406 324.511719 410.554688 L 324.511719 446.398438 C 324.515625 447.386719 324.613281 448.363281 324.804688 449.332031 C 325 450.300781 325.285156 451.242188 325.664062 452.15625 C 326.042969 453.066406 326.503906 453.933594 327.054688 454.753906 C 327.601562 455.574219 328.226562 456.335938 328.925781 457.035156 C 329.621094 457.730469 330.382812 458.355469 331.203125 458.90625 C 332.023438 459.453125 332.890625 459.917969 333.804688 460.296875 C 334.714844 460.675781 335.65625 460.960938 336.625 461.15625 C 337.59375 461.347656 338.570312 461.445312 339.558594 461.449219 L 372.03125 461.449219 L 372.03125 493.921875 C 372.035156 494.910156 372.132812 495.886719 372.324219 496.855469 C 372.519531 497.824219 372.804688 498.765625 373.183594 499.675781 C 373.5625 500.589844 374.023438 501.453125 374.574219 502.273438 C 375.121094 503.097656 375.746094 503.855469 376.441406 504.554688 C 377.140625 505.25 377.902344 505.875 378.722656 506.421875 C 379.542969 506.972656 380.410156 507.4375 381.320312 507.8125 C 382.230469 508.191406 383.171875 508.476562 384.140625 508.671875 C 385.109375 508.863281 386.085938 508.960938 387.074219 508.964844 L 422.925781 508.964844 C 423.914062 508.960938 424.890625 508.863281 425.859375 508.671875 C 426.828125 508.476562 427.765625 508.191406 428.679688 507.8125 C 429.589844 507.4375 430.457031 506.972656 431.277344 506.421875 C 432.097656 505.875 432.859375 505.25 433.554688 504.554688 C 434.253906 503.855469 434.878906 503.097656 435.425781 502.273438 C 435.976562 501.453125 436.4375 500.589844 436.816406 499.675781 C 437.195312 498.765625 437.480469 497.824219 437.675781 496.855469 C 437.867188 495.886719 437.964844 494.910156 437.964844 493.921875 L 437.964844 461.449219 L 470.441406 461.449219 C 471.429688 461.445312 472.40625 461.347656 473.375 461.15625 C 474.34375 460.960938 475.285156 460.675781 476.195312 460.296875 C 477.109375 459.917969 477.976562 459.453125 478.796875 458.90625 C 479.617188 458.355469 480.375 457.730469 481.074219 457.035156 C 481.773438 456.335938 482.398438 455.574219 482.945312 454.753906 C 483.496094 453.933594 483.957031 453.066406 484.335938 452.152344 C 484.714844 451.242188 485 450.300781 485.195312 449.332031 C 485.386719 448.363281 485.484375 447.386719 485.484375 446.398438 L 485.484375 410.554688 C 485.484375 409.566406 485.386719 408.589844 485.195312 407.621094 C 485 406.652344 484.714844 405.710938 484.335938 404.800781 C 483.957031 403.886719 483.496094 403.019531 482.945312 402.199219 C 482.398438 401.378906 481.773438 400.621094 481.074219 399.921875 C 480.375 399.222656 479.617188 398.597656 478.796875 398.050781 C 477.976562 397.5 477.109375 397.035156 476.195312 396.65625 C 475.285156 396.277344 474.34375 395.992188 473.375 395.800781 C 472.40625 395.605469 471.429688 395.507812 470.441406 395.507812 Z M 471.390625 446.398438 C 471.390625 446.660156 471.296875 446.886719 471.113281 447.070312 C 470.929688 447.257812 470.703125 447.351562 470.441406 447.351562 L 430.917969 447.351562 C 430.457031 447.355469 429.996094 447.398438 429.542969 447.488281 C 429.089844 447.578125 428.648438 447.714844 428.222656 447.890625 C 427.792969 448.066406 427.386719 448.285156 427.003906 448.542969 C 426.617188 448.800781 426.261719 449.089844 425.9375 449.417969 C 425.609375 449.746094 425.316406 450.101562 425.058594 450.484375 C 424.800781 450.871094 424.585938 451.277344 424.40625 451.703125 C 424.230469 452.132812 424.097656 452.574219 424.007812 453.027344 C 423.917969 453.480469 423.871094 453.9375 423.871094 454.402344 L 423.871094 493.925781 C 423.871094 494.183594 423.777344 494.40625 423.59375 494.59375 C 423.410156 494.777344 423.1875 494.871094 422.925781 494.867188 L 387.074219 494.867188 C 386.8125 494.871094 386.589844 494.777344 386.40625 494.59375 C 386.21875 494.40625 386.128906 494.183594 386.128906 493.925781 L 386.128906 454.398438 C 386.128906 453.9375 386.082031 453.480469 385.992188 453.027344 C 385.902344 452.570312 385.769531 452.132812 385.589844 451.703125 C 385.414062 451.277344 385.195312 450.871094 384.941406 450.484375 C 384.683594 450.101562 384.390625 449.746094 384.0625 449.417969 C 383.738281 449.089844 383.378906 448.796875 382.996094 448.542969 C 382.609375 448.285156 382.203125 448.066406 381.777344 447.890625 C 381.351562 447.710938 380.910156 447.578125 380.457031 447.488281 C 380 447.398438 379.542969 447.351562 379.082031 447.351562 L 339.558594 447.351562 C 339.296875 447.351562 339.070312 447.257812 338.886719 447.070312 C 338.699219 446.886719 338.609375 446.660156 338.609375 446.398438 L 338.609375 410.554688 C 338.609375 410.292969 338.699219 410.070312 338.886719 409.882812 C 339.070312 409.695312 339.296875 409.601562 339.558594 409.601562 L 379.082031 409.601562 C 379.542969 409.601562 380 409.554688 380.457031 409.464844 C 380.910156 409.375 381.351562 409.242188 381.777344 409.0625 C 382.203125 408.886719 382.609375 408.671875 382.996094 408.414062 C 383.378906 408.15625 383.738281 407.863281 384.0625 407.535156 C 384.390625 407.210938 384.683594 406.851562 384.941406 406.46875 C 385.195312 406.085938 385.414062 405.679688 385.589844 405.25 C 385.769531 404.824219 385.902344 404.382812 385.992188 403.929688 C 386.082031 403.476562 386.128906 403.015625 386.128906 402.554688 L 386.128906 363.03125 C 386.128906 362.769531 386.21875 362.546875 386.40625 362.363281 C 386.589844 362.175781 386.8125 362.085938 387.074219 362.085938 L 422.925781 362.085938 C 423.1875 362.085938 423.410156 362.175781 423.59375 362.363281 C 423.777344 362.546875 423.871094 362.769531 423.871094 363.03125 L 423.871094 402.554688 C 423.871094 403.015625 423.917969 403.476562 424.007812 403.929688 C 424.097656 404.382812 424.230469 404.824219 424.40625 405.25 C 424.585938 405.679688 424.800781 406.085938 425.058594 406.46875 C 425.316406 406.855469 425.609375 407.210938 425.9375 407.535156 C 426.261719 407.863281 426.617188 408.15625 427.003906 408.414062 C 427.386719 408.671875 427.792969 408.886719 428.222656 409.066406 C 428.648438 409.242188 429.089844 409.375 429.542969 409.464844 C 429.996094 409.554688 430.457031 409.601562 430.917969 409.601562 L 470.441406 409.601562 C 470.703125 409.601562 470.925781 409.695312 471.113281 409.882812 C 471.296875 410.070312 471.390625 410.292969 471.390625 410.554688 Z M 471.390625 446.398438 "/><g clip-rule="nonzero" clip-path="url(#9fd3ebabe0)"><path style=" stroke:none;fill-rule:nonzero;fill:#353f2a;fill-opacity:1;" d="M 276.066406 421.75 L 284.90625 421.75 L 284.90625 428.671875 L 276.066406 428.671875 Z M 276.066406 421.75 "/></g></g></svg>