<svg xmlns="http://www.w3.org/2000/svg" width="35.906" height="11" viewBox="0 0 35.906 11">
  <defs>
    <style>
      .cls-1 {
        fill: #cdcdcd;
        fill-rule: evenodd;
      }
    </style>
  </defs>
  <path class="cls-1" d="M944.081,335.355v0.693h3.591v-0.693h-3.591Zm4.954,0v0.693h3.591v-0.693h-3.591Zm4.974,0v0.693H957.6v-0.693h-3.591Zm4.933,0v0.693h3.591v-0.693h-3.591Zm4.965,0v0.693H967.5v-0.693h-3.591Zm4.967,0v0.693h3.591v-0.693h-3.591Zm4.958,0v0.693h3.591v-0.693h-3.591Zm1.2-5.166a0.571,0.571,0,0,0-.418-0.192,0.811,0.811,0,0,0-.418,1.36l3.87,4.14-3.87,4.14a0.811,0.811,0,0,0,.418,1.36,0.571,0.571,0,0,0,.418-0.192l4.962-5.308Z" transform="translate(-944.094 -330)"/>
</svg>
