<svg width="56" height="56" viewBox="0 0 56 56" fill="none" xmlns="http://www.w3.org/2000/svg">
<g clip-path="url(#clip0_205_102)">
<mask id="mask0_205_102" style="mask-type:luminance" maskUnits="userSpaceOnUse" x="0" y="0" width="56" height="56">
<path d="M56 0H0V56H56V0Z" fill="white"/>
</mask>
<g mask="url(#mask0_205_102)">
<path d="M48.4277 15.1447C52.478 15.1447 56 11.7987 56 7.57233C56 3.52201 52.6541 0 48.4277 0C44.3774 0 40.8553 3.34591 40.8553 7.57233C41.0314 11.7987 44.3774 15.1447 48.4277 15.1447ZM48.4277 2.11321C51.5975 2.11321 54.0629 4.57862 54.0629 7.74843C54.0629 10.9182 51.5975 13.3836 48.4277 13.3836C45.2579 13.3836 42.7925 10.9182 42.7925 7.74843C42.7925 4.57862 45.434 2.11321 48.4277 2.11321Z" fill="#568259"/>
</g>
<mask id="mask1_205_102" style="mask-type:luminance" maskUnits="userSpaceOnUse" x="0" y="0" width="56" height="56">
<path d="M56 0H0V56H56V0Z" fill="white"/>
</mask>
<g mask="url(#mask1_205_102)">
<path d="M16.5535 22.0125C17.6101 22.0125 18.6667 21.6603 19.5472 20.7798L28 12.327L33.6352 17.9622C35.2201 19.5471 37.8616 19.5471 39.4465 17.9622C41.0314 16.3773 41.0314 13.7358 39.4465 12.1509L31.3459 4.05025C29.5849 2.28924 26.5912 2.28924 24.6541 4.05025L13.7359 14.9685C12.5031 16.2012 12.1509 17.9622 12.8553 19.5471C13.3837 21.132 14.7925 22.0125 16.5535 22.0125ZM14.9686 16.3773L25.8868 5.45905C26.9434 4.22635 28.7044 4.22635 29.9371 5.45905L38.0377 13.5597C38.9182 14.4402 38.9182 15.849 38.0377 16.7295C37.1572 17.61 35.7484 17.61 34.8679 16.7295L28.5283 10.3899C28.1761 10.0377 27.6478 10.0377 27.1195 10.3899L17.9623 19.5471C17.0818 20.4276 15.673 20.4276 14.7925 19.5471C14.0881 18.6666 14.0881 17.2578 14.9686 16.3773Z" fill="#568259"/>
</g>
<mask id="mask2_205_102" style="mask-type:luminance" maskUnits="userSpaceOnUse" x="0" y="0" width="56" height="56">
<path d="M56 0H0V56H56V0Z" fill="white"/>
</mask>
<g mask="url(#mask2_205_102)">
<path d="M52.1258 24.4779H42.7925V19.7232C42.7925 19.371 42.6164 19.0188 42.2642 18.8427C41.912 18.6666 41.5598 18.8427 41.2076 19.0188L35.5724 24.654C35.3963 24.8301 35.2202 25.0062 35.2202 25.3584V29.0566C35.2202 30.6415 36.4529 31.8742 38.0378 31.8742H52.1258C54.239 31.8742 55.8239 30.1132 55.8239 28.1761C56 26.2389 54.239 24.4779 52.1258 24.4779ZM52.1258 30.1132H38.0378C37.5095 30.1132 37.1573 29.761 37.1573 29.2327V25.8867L40.8554 22.1886V25.5345C40.8554 26.0628 41.2076 26.415 41.7359 26.415H51.9497C53.0063 26.415 53.8868 27.2956 53.8868 28.3522C54.0629 29.2327 53.1824 30.1132 52.1258 30.1132Z" fill="#568259"/>
</g>
<mask id="mask3_205_102" style="mask-type:luminance" maskUnits="userSpaceOnUse" x="0" y="0" width="56" height="56">
<path d="M56 0H0V56H56V0Z" fill="white"/>
</mask>
<g mask="url(#mask3_205_102)">
<path d="M23.9497 36.8049L19.3711 32.2263C19.0188 31.8741 18.4905 31.8741 17.9622 32.2263L1.23269 48.9559C-0.35222 50.5408 -0.35222 53.1823 1.23269 54.7672C2.81759 56.3521 5.4591 56.3521 7.04401 54.7672L23.7736 38.0376C24.3019 37.6854 24.3019 37.1571 23.9497 36.8049ZM5.8113 53.5345C4.9308 54.415 3.52199 54.415 2.64149 53.5345C1.76099 52.654 1.76099 51.2452 2.64149 50.3647L18.6666 34.3395L21.8365 37.5093L5.8113 53.5345Z" fill="#568259"/>
</g>
<mask id="mask4_205_102" style="mask-type:luminance" maskUnits="userSpaceOnUse" x="0" y="0" width="56" height="56">
<path d="M56 0H0V56H56V0Z" fill="white"/>
</mask>
<g mask="url(#mask4_205_102)">
<path d="M28.7044 26.9433C27.6478 25.8867 26.0629 25.3584 24.6541 25.8867C23.2453 26.2389 22.0126 27.4716 21.6604 28.8804C21.3082 30.2892 21.6604 31.8741 22.717 32.9307L30.1132 40.3269L21.3082 45.0817C19.3711 46.1383 18.6667 48.7798 19.7233 50.7169L19.8994 50.893C20.6038 52.1257 22.0126 53.0062 23.4214 53.0062C24.1258 53.0062 24.8302 52.8301 25.3585 52.4779L36.9811 46.3144L38.566 45.4339C39.7988 44.7295 40.6793 43.4968 40.8554 41.9119C41.0315 40.503 40.5032 39.0942 39.4465 38.0376L28.7044 26.9433ZM39.0944 41.5597C38.9182 42.4402 38.3899 43.1446 37.6855 43.6729L24.6541 50.7169C23.5975 51.2452 22.1887 50.893 21.6604 49.8364L21.4843 49.6603C20.956 48.6037 21.3082 47.1949 22.3648 46.6666L32.4025 41.3836C32.5786 41.2075 32.9308 41.0314 32.9308 40.6792C32.9308 40.327 32.9308 40.1509 32.5786 39.7986L24.3019 31.5219C23.4214 30.6414 23.4214 29.2326 24.3019 28.3521C25.1824 27.4716 26.5912 27.4716 27.4717 28.3521L38.3899 39.2703C38.9182 39.7986 39.0944 40.6792 39.0944 41.5597Z" fill="#568259"/>
</g>
</g>
<defs>
<clipPath id="clip0_205_102">
<rect width="56" height="56" fill="white"/>
</clipPath>
</defs>
</svg>
