<svg width="55" height="55" viewBox="0 0 55 55" fill="none" xmlns="http://www.w3.org/2000/svg">
<g clip-path="url(#clip0_205_134)">
<mask id="mask0_205_134" style="mask-type:luminance" maskUnits="userSpaceOnUse" x="0" y="0" width="55" height="55">
<path d="M55 0H0V55H55V0Z" fill="white"/>
</mask>
<g mask="url(#mask0_205_134)">
<path d="M6.14443 54.0983C5.69484 54.0983 5.39511 53.7978 5.24524 53.4972C5.24524 53.4972 4.04633 48.989 0.599468 47.9371C0.149877 47.7869 -0.149851 47.336 1.305e-05 46.8852C0.149877 46.5847 0.299741 46.4344 0.599468 46.2841C4.04633 45.0819 5.24524 40.5737 5.24524 40.5737C5.39511 40.1229 5.69484 39.9727 6.14443 39.9727C6.59402 39.9727 6.89375 40.2732 7.04361 40.5737C7.04361 40.5737 8.24252 45.0819 11.6894 46.1339C12.139 46.2841 12.4387 46.735 12.2888 47.1858C12.139 47.4863 11.9891 47.6366 11.6894 47.7869C8.24252 48.989 7.04361 53.347 7.04361 53.4972C6.89375 53.7978 6.59402 54.0983 6.14443 54.0983ZM2.84742 47.0355C4.1962 48.0874 5.39511 49.2896 6.14443 50.9426C6.89375 49.4399 7.94279 48.0874 9.44143 47.0355C8.09266 45.9836 6.89375 44.7814 6.14443 43.1284C5.39511 44.6311 4.34606 45.9836 2.84742 47.0355Z" fill="#568259"/>
</g>
<mask id="mask1_205_134" style="mask-type:luminance" maskUnits="userSpaceOnUse" x="0" y="0" width="55" height="55">
<path d="M55 0H0V55H55V0Z" fill="white"/>
</mask>
<g mask="url(#mask1_205_134)">
<path d="M50.3542 47.0356C49.9046 47.0356 49.6049 46.7351 49.455 46.4345C49.455 46.4345 48.7057 43.2788 46.4578 42.6777C46.0082 42.5274 45.7085 42.0766 45.8583 41.6258C46.0082 41.3252 46.158 41.1749 46.4578 41.0247C48.5559 40.2733 49.455 37.2678 49.455 37.2678C49.6049 36.817 49.9046 36.6667 50.3542 36.6667C50.8038 36.6667 51.1036 36.9673 51.2534 37.2678C51.2534 37.2678 52.0027 40.4236 54.2507 41.0247C54.7003 41.1749 55 41.6258 54.8501 42.0766C54.7003 42.3771 54.5504 42.5274 54.2507 42.6777C52.1526 43.429 51.2534 46.4345 51.2534 46.4345C51.1036 46.7351 50.8038 47.0356 50.3542 47.0356ZM48.7057 41.6258C49.455 42.2269 50.0545 42.9782 50.5041 43.7296C50.9537 42.9782 51.5531 42.2269 52.3025 41.6258C51.5531 41.0247 50.9537 40.2733 50.5041 39.5219C49.9046 40.4236 49.3052 41.0247 48.7057 41.6258Z" fill="#568259"/>
</g>
<mask id="mask2_205_134" style="mask-type:luminance" maskUnits="userSpaceOnUse" x="0" y="0" width="55" height="55">
<path d="M55 0H0V55H55V0Z" fill="white"/>
</mask>
<g mask="url(#mask2_205_134)">
<path d="M9.74113 13.224C9.29154 13.224 8.99182 12.9234 8.84195 12.6229C8.84195 12.6229 8.09263 9.46713 5.84468 8.86604C5.39509 8.56549 5.09536 8.11467 5.24522 7.66385C5.39509 7.3633 5.54495 7.21303 5.84468 7.06276C7.94277 6.31139 8.84195 3.30593 8.84195 3.30593C8.99182 2.85511 9.29154 2.70483 9.74113 2.70483C10.1907 2.70483 10.4905 3.00538 10.6403 3.30593C10.6403 3.30593 11.3896 6.46166 13.6376 7.06276C14.0872 7.21303 14.3869 7.66385 14.237 8.11467C14.0872 8.41522 13.9373 8.56549 13.6376 8.71576C11.5395 9.46713 10.6403 12.4726 10.6403 12.4726C10.4905 12.9234 10.0409 13.224 9.74113 13.224ZM7.94277 7.9644C8.69209 8.56549 9.29154 9.31686 9.74113 10.0682C10.1907 9.31686 10.7902 8.56549 11.5395 7.9644C10.6403 7.3633 10.0409 6.61194 9.74113 5.86057C9.29154 6.61194 8.69209 7.3633 7.94277 7.9644Z" fill="#568259"/>
</g>
<mask id="mask3_205_134" style="mask-type:luminance" maskUnits="userSpaceOnUse" x="0" y="0" width="55" height="55">
<path d="M55 0H0V55H55V0Z" fill="white"/>
</mask>
<g mask="url(#mask3_205_134)">
<path d="M50.3542 10.6695C49.9046 10.6695 49.6049 10.3689 49.455 9.9181C49.455 9.31701 48.7057 7.51373 47.5068 7.06291C47.0572 6.91264 46.7575 6.46182 46.9074 5.86073C47.0572 5.56018 47.2071 5.40991 47.5068 5.25963C48.7057 4.80881 49.455 3.00554 49.6049 2.40444C49.7548 1.95362 50.0545 1.65308 50.5041 1.65308C50.9537 1.65308 51.2534 1.95362 51.4033 2.40444C51.5531 3.00554 52.3025 4.80881 53.5014 5.25963C53.951 5.40991 54.2507 5.86073 54.1008 6.46182C53.951 6.76237 53.8011 6.91264 53.5014 7.06291C52.3025 7.51373 51.5531 9.31701 51.4033 9.9181C51.1035 10.3689 50.8038 10.6695 50.3542 10.6695ZM49.455 6.16127C49.9046 6.46182 50.2044 6.91264 50.5041 7.36346C50.8038 6.91264 51.1036 6.46182 51.5531 6.16127C51.1036 5.86073 50.8038 5.40991 50.5041 4.95909C50.0545 5.40991 49.7548 5.86073 49.455 6.16127Z" fill="#568259"/>
</g>
<mask id="mask4_205_134" style="mask-type:luminance" maskUnits="userSpaceOnUse" x="0" y="0" width="55" height="55">
<path d="M55 0H0V55H55V0Z" fill="white"/>
</mask>
<g mask="url(#mask4_205_134)">
<path d="M27.4251 55C19.3324 55 12.2888 47.336 10.4905 36.8169C9.74115 36.5164 8.99183 35.9153 8.39237 35.3142C7.0436 34.112 6.29428 32.459 6.29428 30.6557C6.29428 29.4535 6.74387 28.2513 7.64305 27.3497C7.79292 27.1994 7.94278 27.0492 8.09265 27.0492C8.84197 26.5983 9.59128 26.1475 10.4905 26.1475C11.5395 14.2759 17.0845 8.41528 27.4251 8.41528C37.7657 8.41528 43.3106 14.2759 44.5095 26.1475C45.4087 26.2978 46.158 26.5983 46.9074 27.0492C47.0572 27.1994 47.2071 27.1994 47.357 27.3497C48.2561 28.2513 48.7057 29.4535 48.7057 30.6557C48.7057 32.459 47.8065 34.112 46.6076 35.3142C46.0082 35.9153 45.2589 36.3661 44.5095 36.8169C42.5613 47.336 35.5177 55 27.4251 55ZM10.9401 27.8005C10.1907 27.8005 9.59128 27.9508 8.99183 28.4016C8.84197 28.4016 8.84197 28.5519 8.6921 28.5519C8.09265 29.153 7.79292 29.9044 7.94278 30.6557C7.94278 32.0082 8.54224 33.2104 9.59128 34.112C10.1907 34.7131 10.7902 35.1639 11.5395 35.3142C11.8392 35.4645 12.139 35.765 12.139 36.0656C13.6376 45.9836 20.0817 53.1967 27.4251 53.1967C34.7684 53.1967 41.2125 45.9836 42.7112 36.0656C42.7112 35.765 43.0109 35.4645 43.3106 35.3142C44.0599 35.0136 44.8093 34.5628 45.4087 34.112C46.3079 33.2104 46.9074 32.0082 47.0572 30.6557C47.0572 29.9044 46.7575 29.153 46.3079 28.5519L46.158 28.4016C45.5586 27.9508 44.8093 27.8005 43.9101 27.8005C43.4605 27.8005 43.0109 27.5 43.0109 27.0492C42.1117 15.6284 37.1662 10.3688 27.5749 10.3688C17.9837 10.3688 12.8883 15.6284 11.9891 27.0492C11.9891 27.5 11.5395 27.9508 10.9401 27.8005Z" fill="#568259"/>
</g>
<mask id="mask5_205_134" style="mask-type:luminance" maskUnits="userSpaceOnUse" x="0" y="0" width="55" height="55">
<path d="M55 0H0V55H55V0Z" fill="white"/>
</mask>
<g mask="url(#mask5_205_134)">
<path d="M46.3079 28.5519H46.0082C45.5586 28.4016 45.2589 27.9508 45.4087 27.5C45.8583 25.847 46.158 24.0437 46.158 22.2404C46.158 10.2186 38.3651 1.80328 27.2752 1.80328C22.9292 1.65301 18.733 3.15574 15.436 5.86066C14.9864 6.1612 14.5368 6.1612 14.2371 5.71038C13.9373 5.25956 13.9373 4.80874 14.3869 4.5082C17.9837 1.50273 22.6294 0 27.2752 0C39.2643 0 47.9564 9.31694 47.9564 22.2404C47.9564 24.194 47.6567 26.1475 47.0572 28.1011C47.0572 28.2514 46.7575 28.5519 46.3079 28.5519Z" fill="#568259"/>
</g>
<mask id="mask6_205_134" style="mask-type:luminance" maskUnits="userSpaceOnUse" x="0" y="0" width="55" height="55">
<path d="M55 0H0V55H55V0Z" fill="white"/>
</mask>
<g mask="url(#mask6_205_134)">
<path d="M8.39237 28.552C7.94278 28.552 7.64305 28.2514 7.49318 27.9509C7.04359 25.9973 6.74387 24.0438 6.74387 22.0902C6.74387 19.5356 7.04359 17.1312 7.79291 14.7269C7.94278 14.276 8.39237 13.9755 8.84196 14.1258C9.29155 14.276 9.59128 14.7269 9.44141 15.1777C8.84196 17.4318 8.54223 19.6859 8.54223 22.0902C8.54223 23.8935 8.84196 25.6968 9.29155 27.3498C9.44141 27.8006 9.14169 28.2514 8.6921 28.4017C8.54223 28.552 8.54223 28.552 8.39237 28.552Z" fill="#568259"/>
</g>
<mask id="mask7_205_134" style="mask-type:luminance" maskUnits="userSpaceOnUse" x="0" y="0" width="55" height="55">
<path d="M55 0H0V55H55V0Z" fill="white"/>
</mask>
<g mask="url(#mask7_205_134)">
<path d="M20.8311 32.6094C19.4823 32.6094 17.9837 32.1586 16.9346 31.2569C16.6349 30.9564 16.6349 30.3553 16.9346 30.0548C17.2343 29.7542 17.8338 29.7542 18.1335 30.0548C18.8828 30.6558 19.782 30.9564 20.8311 30.8061C21.7302 30.8061 22.7793 30.5056 23.5286 30.0548C23.8283 29.7542 24.4278 29.7542 24.7275 30.0548C25.0272 30.3553 25.0272 30.9564 24.7275 31.2569C23.6785 32.1586 22.1798 32.6094 20.8311 32.6094Z" fill="#568259"/>
</g>
<mask id="mask8_205_134" style="mask-type:luminance" maskUnits="userSpaceOnUse" x="0" y="0" width="55" height="55">
<path d="M55 0H0V55H55V0Z" fill="white"/>
</mask>
<g mask="url(#mask8_205_134)">
<path d="M34.0191 32.6094C32.6703 32.6094 31.1717 32.1586 30.1226 31.2569C29.8229 30.9564 29.8229 30.3553 30.1226 30.0548C30.4224 29.7542 31.0218 29.7542 31.3215 30.0548C32.0709 30.6558 32.97 30.9564 34.0191 30.8061C34.9183 30.8061 35.9673 30.5056 36.7166 30.0548C37.0164 29.7542 37.6158 29.7542 37.9155 30.0548C38.2153 30.3553 38.2153 30.9564 37.9155 31.2569C36.7166 32.1586 35.3679 32.6094 34.0191 32.6094Z" fill="#568259"/>
</g>
<mask id="mask9_205_134" style="mask-type:luminance" maskUnits="userSpaceOnUse" x="0" y="0" width="55" height="55">
<path d="M55 0H0V55H55V0Z" fill="white"/>
</mask>
<g mask="url(#mask9_205_134)">
<path d="M24.1281 26.448C23.8283 26.448 23.5286 26.2977 23.3788 25.9972C22.7793 25.0955 21.8801 24.4944 20.8311 24.4944C19.782 24.4944 18.8828 25.0955 18.2834 25.9972C17.9837 26.448 17.5341 26.5983 17.0845 26.2977C16.6349 25.9972 16.485 25.5464 16.7848 25.0955C17.6839 23.5928 19.1826 22.6912 20.8311 22.6912C22.4796 22.6912 23.9782 23.5928 24.8774 25.0955C25.1771 25.5464 25.0273 25.9972 24.5777 26.2977C24.4278 26.2977 24.2779 26.448 24.1281 26.448Z" fill="#568259"/>
</g>
<mask id="mask10_205_134" style="mask-type:luminance" maskUnits="userSpaceOnUse" x="0" y="0" width="55" height="55">
<path d="M55 0H0V55H55V0Z" fill="white"/>
</mask>
<g mask="url(#mask10_205_134)">
<path d="M37.3161 26.4481C37.0163 26.4481 36.7166 26.2978 36.5667 25.9973C35.8174 24.6448 34.0191 24.0437 32.6703 24.7951C32.2207 25.0957 31.7711 25.3962 31.4714 25.9973C31.1716 26.4481 30.7221 26.5984 30.2725 26.2978C29.8229 25.9973 29.673 25.5465 29.9727 25.0957C31.1716 22.8416 34.0191 22.0902 36.267 23.2924C37.0163 23.7432 37.6158 24.3443 38.0654 25.0957C38.3651 25.5465 38.2152 25.9973 37.7657 26.2978C37.6158 26.2978 37.4659 26.4481 37.3161 26.4481Z" fill="#568259"/>
</g>
<mask id="mask11_205_134" style="mask-type:luminance" maskUnits="userSpaceOnUse" x="0" y="0" width="55" height="55">
<path d="M55 0H0V55H55V0Z" fill="white"/>
</mask>
<g mask="url(#mask11_205_134)">
<path d="M27.4251 44.6311C25.0272 44.6311 22.7793 43.5792 21.2807 41.7759C20.9809 41.3251 21.1308 40.8743 21.4305 40.5737C21.8801 40.2732 22.3297 40.4234 22.6294 40.724C25.0273 43.4289 29.0736 43.5792 31.7711 41.1748L32.2207 40.724C32.5204 40.2732 33.1199 40.2732 33.4196 40.5737C33.8692 40.8743 33.8692 41.4754 33.5695 41.7759C32.0708 43.7295 29.8229 44.7814 27.4251 44.6311Z" fill="#568259"/>
</g>
<mask id="mask12_205_134" style="mask-type:luminance" maskUnits="userSpaceOnUse" x="0" y="0" width="55" height="55">
<path d="M55 0H0V55H55V0Z" fill="white"/>
</mask>
<g mask="url(#mask12_205_134)">
<path d="M23.8283 10.0684L22.1798 9.31699C25.9264 1.80333 38.515 3.45633 38.9646 3.45633L38.6649 5.25961C38.6649 5.25961 26.9755 3.60661 23.8283 10.0684Z" fill="#568259"/>
</g>
<mask id="mask13_205_134" style="mask-type:luminance" maskUnits="userSpaceOnUse" x="0" y="0" width="55" height="55">
<path d="M55 0H0V55H55V0Z" fill="white"/>
</mask>
<g mask="url(#mask13_205_134)">
<path d="M41.5123 18.634C41.3624 18.634 41.2125 18.634 41.0627 18.4837C41.0627 18.4837 35.8174 15.0274 26.5259 15.0274C18.1335 15.0274 13.7875 18.3334 13.7875 18.3334C13.3379 18.634 12.8883 18.634 12.5886 18.1831C12.2888 17.7323 12.2888 17.2815 12.7384 16.981C12.8883 16.8307 17.5341 13.2241 26.5259 13.2241C36.4169 13.2241 41.812 16.8307 42.1117 16.981C42.5613 17.2815 42.5613 17.7323 42.4114 18.1831C42.1117 18.4837 41.812 18.634 41.5123 18.634Z" fill="#568259"/>
</g>
</g>
<defs>
<clipPath id="clip0_205_134">
<rect width="55" height="55" fill="white"/>
</clipPath>
</defs>
</svg>
