<svg width="53" height="64" viewBox="0 0 53 64" fill="none" xmlns="http://www.w3.org/2000/svg">
<g clip-path="url(#clip0_205_28)">
<mask id="mask0_205_28" style="mask-type:luminance" maskUnits="userSpaceOnUse" x="0" y="0" width="53" height="64">
<path d="M53 0H0V64H53V0Z" fill="white"/>
</mask>
<g mask="url(#mask0_205_28)">
<path d="M2.70926 39.1767C3.04791 40.1899 3.38657 40.8654 3.5559 41.5408C3.5559 43.7361 5.41852 45.2559 5.24919 47.62C5.07986 50.8284 7.45047 52.5171 10.6677 52.1793C11.6837 52.0105 12.5303 51.8416 13.5463 51.8416C16.4249 51.6728 18.4569 53.3614 18.7955 56.2321C18.9648 58.2585 18.9648 60.4538 19.3035 62.4801C19.3035 62.8179 19.8115 63.1556 19.9808 63.6622C20.1502 63.3245 20.6581 62.8179 20.6581 62.4801C20.4888 60.116 20.4888 57.7519 19.9808 55.5567C19.3035 52.0105 16.4249 50.153 12.869 50.4907C11.6837 50.6596 10.4984 50.8284 9.31309 50.8284C7.6198 50.8284 6.60382 49.9841 6.43449 48.2954C6.26517 47.4511 6.43449 46.4379 6.43449 45.5936C6.43449 44.9181 6.43449 44.0738 5.92651 43.9049C4.57187 42.8917 5.07986 41.2031 4.57187 39.8522C4.23322 39.1767 3.89456 38.3324 3.21724 37.9947C0.846635 36.9815 0.677306 36.9815 2.3706 34.9551C5.41852 31.24 6.60382 27.1873 5.92651 22.1213C5.07986 14.6912 7.95846 8.78093 14.5623 4.89703C21.3355 0.844258 28.2779 1.01312 35.5591 3.03951C40.9776 4.72816 45.5495 7.76774 48.2588 12.8337C52.6613 20.6015 52.1533 28.5382 47.2428 35.9683C45.0415 39.1767 43.0096 42.554 42.8402 46.4379C42.6709 51.6728 42.6709 57.0764 42.6709 62.3113C42.6709 62.8179 43.0096 63.3245 43.3482 63.8311C43.5176 63.8311 43.6869 63.8311 43.8562 63.6622C43.8562 62.9867 44.0255 62.3113 44.0255 61.6358C44.0255 58.4274 44.1949 55.3878 44.0255 52.1793C43.6869 46.1002 45.2108 40.8654 48.9361 35.6305C54.1853 28.2005 54.8626 14.3535 44.7029 6.24795C39.4537 1.51972 32.8498 -0.168935 25.738 -6.97296e-05C11.5144 -6.97296e-05 2.53993 10.6385 4.7412 24.4854C5.07986 26.6807 4.7412 28.7071 3.38657 30.5646C2.70926 31.7466 1.86261 32.7598 1.01596 33.9419C-0.846655 36.8126 -0.338668 37.9947 2.70926 39.1767ZM42.1629 34.7862C42.3323 34.6173 42.6709 34.4485 42.6709 34.2796C42.6709 33.9419 42.5016 33.4353 42.1629 33.0976C40.131 31.4089 37.9297 29.8891 35.7284 28.2005C35.3898 28.0316 34.8818 28.0316 34.3738 28.0316C34.5431 28.5382 34.5431 29.0448 34.8818 29.3825C36.9137 31.0712 38.9457 32.591 41.147 34.1107C41.4856 34.4485 41.8243 34.6173 42.1629 34.7862ZM25.0607 23.6411C24.8914 21.1081 23.5367 20.7704 22.0128 20.4326C21.5048 20.2638 20.8275 20.6015 20.3195 20.7704C20.6581 21.1081 21.1661 21.4458 21.6741 21.7836C22.1821 22.1213 22.8594 22.459 23.3674 22.7968C23.0287 23.3034 22.5208 23.9788 22.1821 24.4854C22.0128 24.6543 21.6741 24.8231 21.5048 25.1609C21.3355 25.4986 21.3355 25.8363 21.3355 26.1741C21.3355 26.3429 22.0128 26.5118 22.1821 26.3429C23.3674 25.3297 24.3834 24.3166 25.0607 23.6411ZM30.6486 29.8891C30.8179 29.3825 31.1565 29.0448 30.9872 28.8759C30.4792 27.6939 29.9712 26.3429 29.1246 25.4986C28.7859 25.1609 27.262 24.992 26.9233 25.3297C26.0767 26.1741 25.5687 27.3561 24.8914 28.5382C24.8914 28.7071 25.23 29.2136 25.3994 29.2136C25.738 29.0448 26.0767 28.8759 26.246 28.7071C26.754 27.8627 27.262 27.1873 27.9393 26.0052C28.7859 27.3561 29.4632 28.3693 30.6486 29.8891ZM29.1246 15.7044C28.6166 15.029 28.2779 14.6912 28.1086 14.3535C27.77 14.6912 27.4313 15.029 27.262 15.3667C27.0926 15.7044 27.0926 16.0421 27.0926 16.5487C26.9233 17.8997 26.246 18.0685 25.23 17.2242C24.8914 17.0553 24.722 16.5487 24.3834 16.5487C24.0447 16.3799 23.5367 16.3799 23.1981 16.211C23.3674 16.7176 23.1981 17.3931 23.5367 17.5619C24.722 18.2374 26.0767 19.2506 27.262 19.0817C27.9393 18.744 28.4473 16.8865 29.1246 15.7044ZM33.3578 16.211C32.8498 16.211 32.5112 15.8733 32.1725 16.0421C30.9872 16.5487 29.9712 19.0817 30.6486 20.2638C31.1565 21.277 34.0351 21.9524 35.0511 21.277C35.2204 21.1081 35.3898 20.7704 35.5591 20.6015C35.2204 20.4326 34.8818 20.0949 34.5431 20.0949C33.6965 19.9261 32.8498 19.9261 31.4952 19.7572C32.1725 18.2374 32.6805 17.3931 33.3578 16.211ZM12.361 11.9894C12.0224 12.1582 11.6837 12.3271 11.5144 12.496C11.5144 12.6648 11.5144 13.1714 11.6837 13.3403C13.377 14.3535 15.0703 15.3667 16.9329 16.3799C17.1022 16.5487 17.6102 16.3799 17.7795 16.211C17.9489 16.0421 17.9489 15.5356 17.7795 15.3667C16.2556 14.1846 14.393 13.1714 12.361 11.9894ZM42.8402 27.1873C42.5016 26.8495 42.3323 26.5118 42.1629 26.5118C40.4696 26.0052 38.7763 25.6675 37.0831 25.1609C36.9137 25.1609 36.5751 25.4986 36.4057 25.6675C36.5751 26.0052 36.7444 26.5118 36.9137 26.5118C38.4377 27.0184 39.9617 27.3561 41.6549 27.6939C41.9936 27.6939 42.3323 27.3561 42.8402 27.1873ZM34.5431 40.021C35.5591 38.6701 34.5431 33.9419 33.6965 33.4353C33.5271 33.2664 32.6805 33.9419 32.6805 33.9419C33.1885 35.9683 33.8658 37.8258 34.5431 40.021ZM27.77 7.93661C27.77 8.61207 27.6006 9.28753 27.77 9.79413C27.77 10.1319 28.1086 10.3007 28.2779 10.6385C28.6166 10.4696 29.1246 10.3007 29.1246 9.96299V5.57249C29.1246 5.40362 28.6166 5.06589 28.4473 5.06589C28.1086 5.23476 27.77 5.40362 27.77 5.74136C27.6006 6.58568 27.77 7.26114 27.77 7.93661ZM42.6709 13.5092C41.8243 13.5092 41.3163 13.3403 41.147 13.5092C39.9616 14.1846 38.7763 15.029 37.591 15.8733C37.4217 16.0421 37.4217 16.5487 37.2524 16.8865C37.591 16.8865 38.099 17.0553 38.4377 16.8865C39.623 16.211 40.8083 15.3667 41.8243 14.6912C41.9936 14.3535 42.1629 14.1846 42.6709 13.5092ZM22.3514 12.496C21.3355 11.145 20.3195 9.79413 19.3035 8.4432C19.1342 8.27434 18.6262 8.4432 18.6262 8.4432C18.4569 8.78093 18.2875 9.28753 18.4569 9.45639C19.3035 10.6385 19.9808 11.8205 20.9968 13.0026C21.1661 13.1714 21.6741 13.1714 22.0128 13.1714C22.0128 13.1714 22.1821 12.8337 22.3514 12.496ZM37.2524 20.7704V21.4458C38.099 22.1213 41.8243 22.459 42.3323 21.9524C42.5016 21.7836 42.1629 20.7704 42.1629 20.7704C40.4696 20.6015 38.9457 20.7704 37.2524 20.7704ZM26.9233 33.4353C27.262 34.4485 27.6006 35.4617 27.9393 36.4749C29.4632 35.7994 28.6166 34.4485 28.7859 33.4353C28.7859 32.7598 28.2779 31.9155 27.9393 31.0712C27.6006 31.9155 27.262 32.591 26.9233 33.4353ZM38.2684 9.62526C37.4217 9.45639 36.7444 9.28753 36.5751 9.45639C35.7284 10.4696 35.0511 11.6516 34.3738 12.8337C34.3738 13.0026 34.8818 13.3403 35.2204 13.678C36.0671 12.496 37.0831 11.3139 38.2684 9.62526ZM21.5048 28.0316C20.6581 27.6939 20.1501 27.3561 19.8115 27.525C18.7955 28.3693 17.7795 29.2136 16.9329 30.058C16.9329 30.058 17.2716 30.7334 17.6102 31.0712C18.7955 30.2268 19.9808 29.3825 21.5048 28.0316ZM18.1182 20.7704H14.5623V21.9524H18.1182V20.7704Z" fill="#568259"/>
</g>
<mask id="mask1_205_28" style="mask-type:luminance" maskUnits="userSpaceOnUse" x="0" y="0" width="53" height="64">
<path d="M53 0H0V64H53V0Z" fill="white"/>
</mask>
<g mask="url(#mask1_205_28)">
<path d="M2.70926 39.1769C-0.507996 37.9948 -0.846654 36.9816 1.1853 34.1109C2.03194 32.9288 2.70926 31.9156 3.5559 30.7336C4.74121 28.8761 5.24919 26.8497 4.91054 24.6544C2.53993 10.8075 11.6837 0.168945 25.738 0.168945C32.8498 0.168945 39.4537 1.68873 45.0415 6.41697C55.0319 14.6914 54.3546 28.3695 49.2748 35.7996C45.7188 40.8655 44.0256 46.2692 44.3642 52.3484C44.5335 55.3879 44.3642 58.5964 44.3642 61.8048C44.3642 62.4803 44.1949 63.1558 44.1949 63.8312C44.0256 63.8312 43.8562 63.8312 43.6869 64.0001C43.5176 63.4935 43.0096 62.9869 43.0096 62.4803C43.0096 57.2455 42.8402 51.8418 43.1789 46.6069C43.3482 42.723 45.3802 39.3457 47.5815 36.1373C52.492 28.7072 53 20.7705 48.5974 13.0027C45.8882 7.93675 41.3163 4.89718 35.8978 3.20852C28.6166 1.01327 21.6741 1.01327 14.901 5.06604C8.29712 8.94995 5.24919 15.0291 6.26517 22.2903C6.94248 27.3563 5.75718 31.409 2.70926 35.1241C1.1853 37.1505 1.1853 37.1505 3.5559 38.1637C4.06389 38.3325 4.57188 39.3457 4.91054 40.0212C5.41852 41.3721 4.91054 43.0608 6.26517 44.074C6.60383 44.4117 6.60383 45.256 6.77315 45.7626V48.4645C6.94248 50.1531 7.95846 50.9974 9.65175 50.9974C10.8371 50.9974 12.0224 50.8286 13.2077 50.6597C16.7636 50.322 19.6422 52.1795 20.3195 55.7257C20.8275 58.0898 20.8275 60.4539 20.9968 62.6492C20.9968 62.9869 20.4888 63.4935 20.3195 63.8312C19.9808 63.4935 19.6422 63.1558 19.6422 62.6492C19.4728 60.6228 19.4728 58.4275 19.1342 56.4011C18.7955 53.5304 16.9329 51.8418 13.885 52.0106C12.869 52.0106 12.0224 52.1795 11.0064 52.3484C7.78913 52.6861 5.41852 50.9974 5.58785 47.789C5.24919 45.0871 3.5559 43.5674 3.5559 41.541C3.38657 40.6966 3.04792 40.0212 2.70926 39.1769Z" fill="#568259"/>
</g>
<mask id="mask2_205_28" style="mask-type:luminance" maskUnits="userSpaceOnUse" x="0" y="0" width="53" height="64">
<path d="M53 0H0V64H53V0Z" fill="white"/>
</mask>
<g mask="url(#mask2_205_28)">
<path d="M42.163 34.7862C41.8243 34.6173 41.4856 34.4485 41.3163 34.2796C39.2844 32.7598 37.0831 31.24 35.0511 29.5514C34.7125 29.2136 34.7125 28.707 34.5432 28.2004C35.0511 28.2004 35.5591 28.2004 35.8978 28.3693C38.0991 29.8891 40.131 31.5777 42.3323 33.2664C42.6709 33.4353 42.6709 33.9419 42.8403 34.4485C42.6709 34.4485 42.3323 34.6173 42.163 34.7862Z" fill="#568259"/>
</g>
<mask id="mask3_205_28" style="mask-type:luminance" maskUnits="userSpaceOnUse" x="0" y="0" width="53" height="64">
<path d="M53 0H0V64H53V0Z" fill="white"/>
</mask>
<g mask="url(#mask3_205_28)">
<path d="M25.0607 23.6412C24.214 24.3167 23.1981 25.3299 22.1821 26.1742C22.0127 26.3431 21.5048 26.1742 21.3354 26.0053C21.1661 25.6676 21.3354 25.3299 21.5048 24.9921C21.6741 24.6544 22.0127 24.6544 22.1821 24.3167C22.6901 23.8101 23.0287 23.3035 23.3674 22.628C22.8594 22.2903 22.1821 21.9526 21.6741 21.6148C21.1661 21.2771 20.8274 20.9394 20.3195 20.6016C20.8274 20.4328 21.5048 20.2639 22.0127 20.2639C23.5367 20.6016 24.8913 21.1082 25.0607 23.6412Z" fill="#568259"/>
</g>
<mask id="mask4_205_28" style="mask-type:luminance" maskUnits="userSpaceOnUse" x="0" y="0" width="53" height="64">
<path d="M53 0H0V64H53V0Z" fill="white"/>
</mask>
<g mask="url(#mask4_205_28)">
<path d="M30.6485 29.8891C29.6326 28.3694 28.9553 27.3562 27.9393 25.8364C27.262 27.0184 26.754 27.8628 26.246 28.5382C26.0767 28.876 25.738 29.0448 25.3993 29.0448C25.23 29.0448 24.8914 28.5382 24.8914 28.3694C25.5687 27.1873 26.0767 26.0052 26.9233 25.1609C27.262 24.8232 28.7859 24.8232 29.1246 25.3298C29.9712 26.343 30.3099 27.525 30.9872 28.7071C30.9872 29.0448 30.8179 29.3826 30.6485 29.8891Z" fill="#568259"/>
</g>
<mask id="mask5_205_28" style="mask-type:luminance" maskUnits="userSpaceOnUse" x="0" y="0" width="53" height="64">
<path d="M53 0H0V64H53V0Z" fill="white"/>
</mask>
<g mask="url(#mask5_205_28)">
<path d="M29.1246 15.7046C28.4473 16.8867 27.9393 18.7442 26.9233 18.913C25.9074 19.0819 24.3834 18.0687 23.1981 17.3933C23.0288 17.2244 23.0288 16.5489 22.8594 16.0423C23.1981 16.0423 23.7061 16.2112 24.0447 16.3801C24.3834 16.5489 24.5527 16.8867 24.8914 17.0555C25.9074 17.8999 26.5847 17.731 26.754 16.3801C26.754 16.0423 26.754 15.5357 26.9233 15.198C27.0927 14.8603 27.4313 14.5225 27.77 14.1848C28.278 14.6914 28.6166 15.0291 29.1246 15.7046Z" fill="#568259"/>
</g>
<mask id="mask6_205_28" style="mask-type:luminance" maskUnits="userSpaceOnUse" x="0" y="0" width="53" height="64">
<path d="M53 0H0V64H53V0Z" fill="white"/>
</mask>
<g mask="url(#mask6_205_28)">
<path d="M33.3578 16.211C32.6805 17.3931 32.1725 18.2374 31.4952 19.5883C32.6805 19.7572 33.5272 19.7572 34.5431 19.9261C34.8818 19.9261 35.2204 20.2638 35.5591 20.4327C35.3898 20.7704 35.2204 21.1081 35.0511 21.1081C33.8658 21.7836 31.1566 21.1081 30.6486 20.0949C30.1406 18.9129 30.9872 16.3799 32.1725 15.8733C32.3419 16.0422 32.8498 16.211 33.3578 16.211Z" fill="#568259"/>
</g>
<mask id="mask7_205_28" style="mask-type:luminance" maskUnits="userSpaceOnUse" x="0" y="0" width="53" height="64">
<path d="M53 0H0V64H53V0Z" fill="white"/>
</mask>
<g mask="url(#mask7_205_28)">
<path d="M12.361 11.9895C14.2237 13.1716 16.0863 14.1848 17.9489 15.3668C18.1182 15.3668 18.1182 16.0423 17.9489 16.2111C17.7796 16.38 17.2716 16.5489 17.1023 16.38C15.409 15.3668 13.5463 14.5225 11.8531 13.3404C11.6837 13.1716 11.5144 12.665 11.6837 12.4961C11.6837 12.3272 12.1917 12.1584 12.361 11.9895Z" fill="#568259"/>
</g>
<mask id="mask8_205_28" style="mask-type:luminance" maskUnits="userSpaceOnUse" x="0" y="0" width="53" height="64">
<path d="M53 0H0V64H53V0Z" fill="white"/>
</mask>
<g mask="url(#mask8_205_28)">
<path d="M42.8403 27.1873C42.3323 27.3561 41.9936 27.6939 41.655 27.6939C40.131 27.3561 38.4377 27.0184 36.9137 26.5118C36.5751 26.5118 36.5751 26.0052 36.4058 25.6675C36.5751 25.4986 36.9137 25.1609 37.0831 25.1609C38.7764 25.4986 40.4697 26.0052 42.1629 26.5118C42.5016 26.5118 42.5016 26.6807 42.8403 27.1873Z" fill="#568259"/>
</g>
<mask id="mask9_205_28" style="mask-type:luminance" maskUnits="userSpaceOnUse" x="0" y="0" width="53" height="64">
<path d="M53 0H0V64H53V0Z" fill="white"/>
</mask>
<g mask="url(#mask9_205_28)">
<path d="M34.5432 40.0212C33.8658 37.8259 33.1885 35.9684 32.6805 34.1109C32.6805 33.942 33.5272 33.4354 33.6965 33.6043C34.5432 33.942 35.5591 38.6703 34.5432 40.0212Z" fill="#568259"/>
</g>
<mask id="mask10_205_28" style="mask-type:luminance" maskUnits="userSpaceOnUse" x="0" y="0" width="53" height="64">
<path d="M53 0H0V64H53V0Z" fill="white"/>
</mask>
<g mask="url(#mask10_205_28)">
<path d="M27.77 7.93663V5.74138C27.77 5.40365 28.2779 5.23478 28.4473 5.06592C28.6166 5.06592 29.1246 5.40365 29.1246 5.57251V9.96302C29.1246 10.1319 28.6166 10.4696 28.2779 10.6385C28.1086 10.3007 27.77 10.1319 27.77 9.79415C27.6006 9.28755 27.77 8.61209 27.77 7.93663Z" fill="#568259"/>
</g>
<mask id="mask11_205_28" style="mask-type:luminance" maskUnits="userSpaceOnUse" x="0" y="0" width="53" height="64">
<path d="M53 0H0V64H53V0Z" fill="white"/>
</mask>
<g mask="url(#mask11_205_28)">
<path d="M42.6709 13.5092C42.1629 14.1847 41.9936 14.5224 41.8243 14.6913C40.639 15.5356 39.623 16.211 38.4377 16.8865C38.099 17.0554 37.591 16.8865 37.2524 16.8865C37.4217 16.5488 37.2524 16.0422 37.591 15.8733C38.7763 15.029 39.9616 14.1847 41.1469 13.5092C41.3163 13.1715 41.8243 13.3403 42.6709 13.5092Z" fill="#568259"/>
</g>
<mask id="mask12_205_28" style="mask-type:luminance" maskUnits="userSpaceOnUse" x="0" y="0" width="53" height="64">
<path d="M53 0H0V64H53V0Z" fill="white"/>
</mask>
<g mask="url(#mask12_205_28)">
<path d="M22.3514 12.4961C22.1821 12.8338 22.0128 13.1715 22.0128 13.1715C21.6741 13.1715 21.1661 13.1715 20.9968 13.0027C20.1501 11.8206 19.3035 10.8074 18.4569 9.45649C18.2875 9.28763 18.4569 8.78103 18.6262 8.4433C18.6262 8.27443 19.1342 8.27443 19.3035 8.4433C20.3195 9.79422 21.3355 11.1451 22.3514 12.4961Z" fill="#568259"/>
</g>
<mask id="mask13_205_28" style="mask-type:luminance" maskUnits="userSpaceOnUse" x="0" y="0" width="53" height="64">
<path d="M53 0H0V64H53V0Z" fill="white"/>
</mask>
<g mask="url(#mask13_205_28)">
<path d="M37.2524 20.7705H42.1629C42.3323 20.7705 42.5016 21.7837 42.3323 21.9526C41.8243 22.628 38.099 22.1214 37.2524 21.446V20.7705Z" fill="#568259"/>
</g>
<mask id="mask14_205_28" style="mask-type:luminance" maskUnits="userSpaceOnUse" x="0" y="0" width="53" height="64">
<path d="M53 0H0V64H53V0Z" fill="white"/>
</mask>
<g mask="url(#mask14_205_28)">
<path d="M26.9233 33.4354C27.262 32.5911 27.6007 31.9156 27.9393 31.0713C28.278 31.9156 28.786 32.5911 28.786 33.4354C28.786 34.4486 29.6326 35.7995 27.9393 36.475C27.6007 35.4618 27.262 34.6175 26.9233 33.4354Z" fill="#568259"/>
</g>
<mask id="mask15_205_28" style="mask-type:luminance" maskUnits="userSpaceOnUse" x="0" y="0" width="53" height="64">
<path d="M53 0H0V64H53V0Z" fill="white"/>
</mask>
<g mask="url(#mask15_205_28)">
<path d="M38.2684 9.62533C37.083 11.314 36.0671 12.496 35.2204 13.6781C34.8818 13.3404 34.3738 13.0026 34.3738 12.8338C35.0511 11.6517 35.7284 10.4697 36.5751 9.45646C36.7444 9.2876 37.4217 9.62533 38.2684 9.62533Z" fill="#568259"/>
</g>
<mask id="mask16_205_28" style="mask-type:luminance" maskUnits="userSpaceOnUse" x="0" y="0" width="53" height="64">
<path d="M53 0H0V64H53V0Z" fill="white"/>
</mask>
<g mask="url(#mask16_205_28)">
<path d="M21.5048 28.0317C19.9808 29.3827 18.7955 30.227 17.6102 31.0713C17.4409 30.7336 16.9329 30.227 16.9329 30.0581C17.7796 29.2138 18.7955 28.2006 19.8115 27.5251C19.9808 27.5251 20.6582 27.8629 21.5048 28.0317Z" fill="#568259"/>
</g>
<mask id="mask17_205_28" style="mask-type:luminance" maskUnits="userSpaceOnUse" x="0" y="0" width="53" height="64">
<path d="M53 0H0V64H53V0Z" fill="white"/>
</mask>
<g mask="url(#mask17_205_28)">
<path d="M18.1182 20.7705H14.5623V21.9526H18.1182V20.7705Z" fill="#568259"/>
</g>
</g>
<defs>
<clipPath id="clip0_205_28">
<rect width="53" height="64" fill="white"/>
</clipPath>
</defs>
</svg>
