<svg width="48" height="53" viewBox="0 0 48 53" fill="none" xmlns="http://www.w3.org/2000/svg">
<g clip-path="url(#clip0_246_795)">
<path d="M18.7786 19.9731C17.1493 19.9729 15.5567 20.4559 14.202 21.361C12.8473 22.266 11.7914 23.5525 11.1679 25.0577C10.5444 26.5629 10.3813 28.2191 10.6992 29.817C11.0171 31.4149 11.8017 32.8826 12.9538 34.0346L23.3967 44.4786C23.557 44.6381 23.7739 44.7277 24 44.7277C24.2261 44.7277 24.443 44.6381 24.6033 44.4786L35.0473 34.0346C36.5532 32.5419 37.4255 30.526 37.4828 28.4064C37.54 26.2868 36.7778 24.2268 35.3546 22.655C33.9315 21.0832 31.9571 20.1206 29.8423 19.9676C27.7275 19.8146 25.6351 20.483 24.0006 21.8336C22.5301 20.6229 20.6833 19.9633 18.7786 19.9686V19.9731ZM29.2214 21.6789C30.5133 21.679 31.776 22.0621 32.8502 22.7798C33.9243 23.4974 34.7615 24.5175 35.2559 25.7109C35.7503 26.9044 35.8797 28.2176 35.6279 29.4847C35.376 30.7517 34.7541 31.9156 33.8407 32.8292L24.0006 42.6693L14.1604 32.8292C13.5539 32.2227 13.0727 31.5027 12.7444 30.7103C12.4161 29.9179 12.2471 29.0685 12.2471 28.2108C12.247 26.4786 12.935 24.8172 14.1598 23.5923C15.3846 22.3673 17.0459 21.6791 18.7782 21.679C20.5104 21.6789 22.1718 22.3669 23.3967 23.5917C23.4759 23.671 23.57 23.7338 23.6735 23.7767C23.777 23.8196 23.8879 23.8417 24 23.8417C24.112 23.8417 24.223 23.8196 24.3265 23.7767C24.43 23.7338 24.5241 23.671 24.6033 23.5917C25.2087 22.9825 25.9291 22.4997 26.7227 22.1714C27.5162 21.843 28.3672 21.6756 29.226 21.6789H29.2214ZM37.357 11.1292L24.5532 0.204095C24.3992 0.0719087 24.203 -0.000762939 24 -0.000762939C23.797 -0.000762939 23.6008 0.0719087 23.4468 0.204095L0.299083 19.9572C0.205302 20.0372 0.129993 20.1366 0.0783569 20.2485C0.0267205 20.3604 -1.37078e-05 20.4822 5.27282e-09 20.6054L5.27282e-09 52.0262C5.27282e-09 52.2524 0.0898587 52.4693 0.249808 52.6293C0.409758 52.7892 0.626696 52.8791 0.852899 52.8791H47.1471C47.3733 52.8791 47.5902 52.7892 47.7502 52.6293C47.9101 52.4693 48 52.2524 48 52.0262V20.6054M46.2942 51.1733H1.7058V20.9989L24.0006 1.97357L46.2896 20.9989L46.2942 51.1733Z" fill="#58815B"/>
</g>
<defs>
<clipPath id="clip0_246_795">
<rect width="48" height="52.8797" fill="white"/>
</clipPath>
</defs>
</svg>
