<svg width="146" height="165" viewBox="0 0 146 165" fill="none" xmlns="http://www.w3.org/2000/svg">
<path d="M58.194 1.92064C28.0122 8.72855 6 36.414 6 67.7304C6 87.0195 12.4675 102.451 26.3103 115.953C39.8126 129.342 54.4496 135.242 73.5117 135.242C91.2123 135.242 107.211 129.002 120.032 116.974C141.137 97.1179 147.151 63.7591 134.216 38.0026C126.386 22.4578 111.069 9.06895 95.0701 3.73608C84.8583 0.445595 68.5193 -0.462126 58.194 1.92064ZM80.66 8.95548C73.5117 18.9404 61.371 25.181 44.5781 27.4503C33.4586 28.9253 25.6295 31.762 19.9562 36.0737L15.8715 39.1372L18.5946 34.2582C22.6794 26.883 34.1393 15.9903 42.4223 11.5652C52.9746 6.00539 61.5979 3.84955 73.8521 3.73608L84.5179 3.62262L80.66 8.95548ZM102.445 10.544C120.259 19.9616 132.627 36.1871 136.939 56.0435C137.506 58.5397 136.598 57.9724 130.471 51.9588C126.613 48.101 120.146 42.8816 116.061 40.4988C105.509 34.2582 97.3394 27.9042 93.9355 23.3656C90.645 19.1673 87.6949 11.5652 87.6949 7.5939C87.6949 5.09767 87.9218 4.9842 92.0066 6.11885C94.2759 6.68618 99.0414 8.72855 102.445 10.544ZM94.8432 29.4927C96.999 31.535 105.055 37.4352 112.771 42.5412C123.89 49.9164 127.975 53.3204 132.173 58.9936C137.166 65.4611 137.62 66.7092 137.506 72.0421C137.393 75.3326 136.939 79.4173 136.485 81.3462L135.577 84.7502L135.464 81.1193C135.237 75.1057 130.812 64.7803 126.16 59.7879C123.777 57.2916 116.628 51.8453 110.274 47.874C91.8931 36.1871 86.6737 30.8543 85.0852 22.1174C83.8371 15.423 85.4256 14.5153 88.3757 20.4155C89.8507 23.3656 92.8008 27.4503 94.8432 29.4927ZM76.2349 21.777C72.9444 27.5638 65.5692 35.0525 60.3498 37.6622C58.194 38.7968 53.2015 40.6123 49.2302 41.6334C34.8201 45.3778 23.7006 51.051 14.056 59.9013L9.40395 63.9861V60.6956C9.40395 56.0435 15.6445 44.0162 19.9562 40.3853C25.6295 35.6198 34.2528 32.1024 43.8973 30.7408C56.3785 29.0388 66.1365 25.8618 72.604 21.2097C75.5541 19.1673 78.1638 17.3519 78.3907 17.3519C78.6177 17.2384 77.5965 19.2808 76.2349 21.777ZM91.8931 42.995C98.701 51.051 101.538 58.0859 101.651 66.4823C101.765 76.5807 98.4741 82.8213 88.3757 92.3524C82.0216 98.2526 78.9581 102.224 75.8945 108.464C71.9232 116.52 71.4694 116.974 65.2288 119.471C61.7114 120.832 57.1728 123.442 55.2439 125.257C51.8399 128.434 51.4995 128.548 47.8686 127.073L44.1243 125.484L54.2227 119.357C66.7038 111.755 79.7523 99.6141 83.7236 91.785C87.241 84.7502 87.241 80.6655 84.2909 60.3552C83.0428 51.9588 82.0216 41.1796 82.0216 36.5275L82.1351 28.0176L84.5179 32.5562C85.766 35.0525 89.0565 39.7045 91.8931 42.995ZM64.4345 42.3142C57.5132 49.3491 47.6417 55.9301 32.4374 63.7591C24.041 67.9574 19.3889 71.1344 15.758 75.1057C13.0348 78.1692 10.5386 80.3251 10.0847 79.9847C9.74435 79.6443 9.40395 77.148 9.40395 74.4249C9.40395 70.2267 10.0847 68.9785 15.5311 63.6457C25.4025 53.7742 36.4087 48.2144 55.4708 43.3354C58.0805 42.7681 61.8248 40.9527 63.9807 39.4776C70.2213 35.0525 70.4482 36.0737 64.4345 42.3142ZM70.4482 42.8816C69.2001 45.0374 64.3211 50.4837 59.669 55.0223C49.911 64.4399 42.5358 75.1057 39.0183 84.7502C35.6144 94.0543 31.6431 100.635 27.6718 103.358C23.0198 106.649 20.9774 106.309 18.935 101.997C17.46 98.8199 17.3465 97.4583 18.4812 93.2601C19.8427 88.2676 20.5235 87.4734 35.1605 73.971C38.2241 71.1344 41.4011 67.2766 42.4223 65.2342C43.557 62.9649 47.1878 59.5609 52.6342 56.0435C57.2862 52.98 63.5268 47.7606 66.7038 44.5835C69.7674 41.4065 72.3771 38.7968 72.604 38.7968C72.7175 38.7968 71.8098 40.6123 70.4482 42.8816ZM73.6252 47.4202C70.2213 57.2916 64.7749 66.1419 57.2862 74.3114C52.9746 78.85 48.0956 84.9771 46.3936 87.8138C42.7627 93.9409 38.9049 108.691 38.9049 116.18C38.9049 121.74 37.9972 122.874 35.5009 119.924C34.4797 118.676 35.0471 114.705 38.3376 100.749C43.557 79.0769 46.3936 73.7441 61.7114 58.1994C67.725 52.0722 73.0579 45.8317 73.5117 44.4701C73.9656 43.1085 74.5329 42.2008 74.7599 42.5412C74.9868 42.7681 74.5329 45.0374 73.6252 47.4202ZM112.544 55.1358C122.756 64.8938 125.592 72.0421 124.004 85.2041C123.436 89.9696 123.323 96.7775 123.89 100.408C124.685 106.762 124.685 106.989 120.94 111.188C117.196 115.386 117.196 115.386 118.557 111.982C119.238 110.053 119.919 102.678 119.919 95.5294C120.032 84.7502 119.579 81.2328 117.423 74.9922C114.586 66.5958 108.799 56.4974 103.58 50.5972C101.765 48.4414 100.176 46.399 100.176 46.0586C100.176 45.0374 107.324 50.2568 112.544 55.1358ZM82.0216 66.8227C84.8583 84.0694 83.6101 89.0619 73.8521 99.6141C66.8173 107.216 44.3512 122.988 42.7627 121.399C42.0819 120.719 44.8051 113.116 47.9821 106.762C50.7053 101.316 56.3785 93.8274 62.3922 87.7003C64.4345 85.5445 67.725 81.3462 69.6539 78.2827C73.2848 72.6094 78.6177 58.4263 78.6177 54.3415C78.6177 49.2356 79.8658 53.8877 82.0216 66.8227ZM73.5117 61.7168C70.2213 71.7017 66.7038 77.7154 59.3286 85.8848C55.3573 90.0831 50.2514 96.7775 47.7552 100.522C43.4435 106.989 43.2166 107.216 43.8973 103.472C45.2589 95.8698 51.0457 85.6579 57.5132 79.3039C63.6403 73.1768 72.1502 61.2629 73.6252 56.7243C73.9656 55.4762 74.5329 54.7954 74.8733 55.1358C75.2137 55.3627 74.5329 58.4263 73.5117 61.7168ZM110.388 67.1631C115.04 76.4672 117.196 85.3175 117.196 95.6429C117.196 106.989 113.792 118.563 109.594 121.286C106.757 123.215 106.644 123.101 104.034 120.151C102.445 118.222 101.197 114.932 100.743 110.961C99.9491 105.287 100.29 103.926 103.467 97.7987C108.232 88.608 109.707 80.7789 108.119 71.2478C107.438 67.2766 106.644 63.0784 106.303 62.1706C105.963 61.1494 105.963 60.3552 106.303 60.3552C106.644 60.3552 108.459 63.4188 110.388 67.1631ZM126.84 66.0284C130.131 71.2478 133.081 81.5732 133.081 88.0407C133.081 93.3735 128.656 103.132 127.181 100.976C126.613 100.181 126.5 93.2601 126.84 85.7714C127.521 73.4037 127.408 71.3613 125.365 66.7092C122.415 60.2417 123.096 60.0148 126.84 66.0284ZM27.8988 76.0134C20.5235 83.1617 17.233 87.133 16.2119 90.31L14.7368 94.8486L13.1483 90.6504C11.5598 86.6791 11.5598 86.4522 14.9637 81.5732C16.8927 78.7365 20.9774 74.6518 24.041 72.3825C29.8277 68.0708 36.749 64.6669 37.7702 65.6881C38.1106 65.915 33.6855 70.5671 27.8988 76.0134ZM105.622 79.3039C105.169 85.7714 104.147 88.8349 99.4953 97.6852C94.0489 108.237 93.9355 108.464 93.9355 118.903C93.9355 127.98 93.7085 129.569 92.0066 130.023C90.1911 130.477 89.9642 129.569 89.9642 123.782C89.9642 120.038 89.1699 115.159 88.2622 112.89C87.3545 110.734 86.5602 106.536 86.5602 103.812C86.5602 99.1603 87.0141 98.2526 93.2547 92.3524C100.176 85.5445 102.786 81.5732 104.147 75.3326C105.395 69.2055 106.19 71.2478 105.622 79.3039ZM33.1182 108.691C32.4374 111.755 31.4162 114.592 31.0758 115.159C30.6219 115.613 28.8065 114.478 27.1045 112.663L23.9275 109.372L27.218 107.557C29.0334 106.649 31.1893 105.06 32.097 104.039C34.3663 101.316 34.5932 102.564 33.1182 108.691ZM86.4468 118.79C87.9218 124.69 86.2198 131.838 83.2697 131.838C80.5466 131.838 77.483 124.917 77.483 118.449C77.483 115.499 78.6177 110.847 79.8658 108.011L82.2486 102.905L83.7236 108.578C84.6313 111.641 85.766 116.294 86.4468 118.79ZM100.97 122.307C102.559 124.803 102.559 125.371 101.197 126.278C98.2471 128.207 97.3394 126.505 97.1125 118.676C96.999 111.868 97.1125 111.415 98.0202 115.159C98.5875 117.428 99.8357 120.719 100.97 122.307ZM76.9157 130.931C77.5965 132.519 77.1426 132.973 75.1003 132.973C70.902 132.859 56.7189 130.704 56.0381 130.023C54.9035 128.888 61.4844 124.009 65.9096 122.761C68.1789 122.194 70.902 121.173 71.8098 120.605C73.0579 119.697 73.7387 120.492 74.7599 124.236C75.4407 126.846 76.3484 129.909 76.9157 130.931Z" fill="white"/>
<path d="M75.8318 148.596C73.6788 148.965 71.9974 150.298 70.9721 152.471C70.48 153.538 70.439 153.825 70.439 156.49C70.439 159.341 70.439 159.382 71.1156 160.735C72.3665 163.298 74.4785 164.487 77.4107 164.344C78.518 164.282 79.3997 164.098 80.1379 163.77L81.2042 163.319V161.576C81.2042 159.443 80.9376 159.402 80.1584 161.412C79.4818 163.196 78.9076 163.667 77.4312 163.667C74.7245 163.667 73.4737 161.063 73.6583 155.773C73.8223 151.344 75.0526 149.211 77.4517 149.211C78.518 149.211 79.0101 149.601 79.8919 151.159C80.2815 151.897 80.7121 152.492 80.8146 152.492C80.9171 152.492 80.9991 151.836 80.9991 151.036V149.601L79.9329 149.129C78.6615 148.555 77.1852 148.37 75.8318 148.596Z" fill="white"/>
<path d="M0 149.111C0 149.275 0.0820208 149.418 0.184547 149.418C0.287073 149.418 0.533135 149.562 0.697177 149.746C0.984249 150.013 1.02526 150.915 1.02526 156.492V162.952L0.51263 163.28C0.225557 163.464 0 163.69 0 163.792C0 163.895 1.14829 163.977 2.56315 163.977C3.97801 163.977 5.1263 163.915 5.1263 163.854C5.1263 163.772 4.90074 163.505 4.61367 163.239C4.10104 162.767 4.10104 162.705 4.10104 159.671V156.595H6.37711H8.63269L8.57117 159.794C8.50965 162.87 8.48915 163.013 8.05854 163.321C7.79197 163.485 7.58692 163.69 7.58692 163.792C7.58692 163.895 8.73521 163.977 10.1501 163.977C11.5649 163.977 12.7132 163.895 12.7132 163.792C12.7132 163.69 12.4877 163.464 12.2006 163.28L11.688 162.952V156.39V149.828L12.2006 149.582C12.4877 149.459 12.7132 149.234 12.7132 149.07C12.7132 148.864 12.1596 148.803 10.1501 148.803C8.65319 148.803 7.58692 148.885 7.58692 149.008C7.58692 149.111 7.81248 149.418 8.09955 149.705C8.59168 150.197 8.61218 150.3 8.61218 153.109V155.98H6.35661H4.10104V153.027C4.10104 150.607 4.16255 150.013 4.42912 149.746C4.59316 149.562 4.83923 149.418 4.94175 149.418C5.04428 149.418 5.1263 149.275 5.1263 149.111C5.1263 148.844 4.69569 148.803 2.56315 148.803C0.430609 148.803 0 148.844 0 149.111Z" fill="white"/>
<path d="M13.3247 149.111C13.3247 149.275 13.4067 149.418 13.5093 149.418C13.6118 149.418 13.8578 149.562 14.0219 149.746C14.309 150.013 14.35 150.915 14.35 156.41V162.767L13.8373 163.239C13.5503 163.505 13.3247 163.772 13.3247 163.854C13.3247 163.915 15.5393 163.977 18.246 163.977H23.1672V162.131C23.1672 161.106 23.0852 160.286 22.9826 160.286C22.9006 160.286 22.6136 160.86 22.347 161.578C22.1009 162.275 21.7933 162.972 21.6908 163.095C21.5473 163.28 20.8296 163.362 19.4558 163.362H17.4257V159.978V156.574L18.615 156.636C19.7633 156.697 19.7838 156.718 20.1939 157.559C20.4195 158.03 20.6656 158.42 20.7681 158.44C20.8501 158.44 20.9116 157.477 20.9116 156.287C20.9116 155.098 20.8296 154.134 20.7476 154.134C20.6451 154.134 20.399 154.503 20.1939 154.955L19.8249 155.775H18.615H17.4257V152.699V149.623H19.2507C20.4605 149.623 21.1372 149.705 21.2807 149.89C21.4037 150.033 21.6908 150.669 21.9369 151.325C22.1829 151.961 22.47 152.494 22.5725 152.494C22.6751 152.494 22.7571 151.653 22.7571 150.648V148.803H18.0409C13.9809 148.803 13.3247 148.844 13.3247 149.111Z" fill="white"/>
<path d="M29.015 149.049C28.9739 149.193 28.0512 152.309 26.9644 155.98C25.2215 161.926 24.9344 162.705 24.4013 163.177C24.0527 163.464 23.7861 163.772 23.7861 163.833C23.7861 163.915 24.4423 163.977 25.2215 163.977C26.5953 163.977 27.0875 163.731 26.2673 163.464C25.6316 163.28 25.6316 162.87 26.1852 160.922L26.7184 159.056H28.7279C30.4503 159.056 30.7374 159.097 30.8399 159.404C30.8809 159.609 31.127 160.429 31.3525 161.229C31.8037 162.726 31.7626 163.239 31.25 163.444C31.086 163.505 30.9629 163.649 30.9629 163.772C30.9629 163.895 31.9062 163.977 33.5261 163.977C35.8432 163.977 36.6224 163.813 35.8022 163.505C35.6381 163.444 35.3511 163.177 35.187 162.911C34.9615 162.562 30.9629 149.295 30.9629 148.864C30.9629 148.659 29.097 148.844 29.015 149.049ZM29.7326 155.344C30.1837 156.985 30.5118 158.338 30.4708 158.379C30.4298 158.42 29.6301 158.44 28.6664 158.399L26.9439 158.338L27.8667 155.18C28.3793 153.437 28.8099 152.104 28.8509 152.207C28.8919 152.309 29.2815 153.724 29.7326 155.344Z" fill="white"/>
<path d="M36.499 149.07C36.499 149.213 36.6836 149.439 36.9091 149.582C37.2987 149.828 37.3192 150.054 37.3192 156.492C37.3192 162.931 37.2987 163.157 36.9091 163.362C35.9454 163.874 36.6221 163.977 41.1947 163.977H45.8699L45.9929 162.582C46.3005 159.425 46.0544 159.117 45.0907 161.414C44.7626 162.213 44.332 162.972 44.1475 163.095C43.9424 163.259 43.1632 163.362 42.1995 163.362H40.6001V156.595C40.6001 150.054 40.6206 149.828 41.0102 149.623C41.2357 149.5 41.4203 149.275 41.4203 149.111C41.4203 148.864 40.9897 148.803 38.9596 148.803C37.1142 148.803 36.499 148.864 36.499 149.07Z" fill="white"/>
<path d="M45.2729 150.751C45.2319 151.961 45.2934 152.699 45.4164 152.699C45.5395 152.699 45.9496 152.022 46.3392 151.202L47.0569 149.726L48.2462 149.664L49.415 149.603V156.062C49.415 159.609 49.3534 162.644 49.2919 162.829C49.2304 162.993 48.8613 163.239 48.4717 163.362C47.1184 163.813 47.7745 163.977 50.9528 163.977C54.1311 163.977 54.7873 163.813 53.434 163.362C53.0444 163.239 52.6753 162.993 52.6138 162.829C52.5522 162.644 52.4907 159.609 52.4907 156.062V149.603L53.68 149.664L54.8488 149.726L55.5665 151.202C55.9561 152.022 56.3457 152.699 56.4277 152.699C56.5303 152.699 56.5918 151.817 56.5918 150.751V148.803H50.9733H45.3344L45.2729 150.751Z" fill="white"/>
<path d="M57.4165 149.07C57.4165 149.213 57.6011 149.439 57.8266 149.582C58.2162 149.828 58.2367 150.054 58.2367 156.492C58.2367 162.931 58.2162 163.157 57.8266 163.362C56.9654 163.833 57.4575 163.977 59.8771 163.977C61.2305 163.977 62.3377 163.915 62.3377 163.813C62.3377 163.731 62.1532 163.505 61.9276 163.3C61.5586 162.993 61.5175 162.705 61.5175 159.773V156.595H63.6706H65.8236V159.753C65.8236 162.89 65.8236 162.931 65.311 163.321C65.0239 163.546 64.7984 163.792 64.7984 163.854C64.7984 163.915 65.9467 163.977 67.3615 163.977C68.7764 163.977 69.9247 163.915 69.9247 163.854C69.9247 163.772 69.6991 163.505 69.412 163.239L68.8994 162.767V156.492V150.218L69.412 149.705C69.6991 149.418 69.9247 149.111 69.9247 149.008C69.9247 148.885 68.8584 148.803 67.3615 148.803C65.352 148.803 64.7984 148.864 64.7984 149.07C64.7984 149.234 65.0239 149.459 65.311 149.582L65.8236 149.828V152.904V155.98H63.6706H61.5175V152.904C61.5175 150.054 61.538 149.808 61.9276 149.582C62.1532 149.439 62.3377 149.213 62.3377 149.07C62.3377 148.864 61.7226 148.803 59.8771 148.803C58.0317 148.803 57.4165 148.864 57.4165 149.07Z" fill="white"/>
<path d="M86.8391 149.049C86.7776 149.193 85.8344 152.35 84.7271 156.082C82.7996 162.562 82.6971 162.87 82.0819 163.259C81.7129 163.485 81.4258 163.731 81.4053 163.813C81.4053 163.915 82.0614 163.977 82.8406 163.977C84.3375 163.977 84.5836 163.813 83.8249 163.321C83.4148 163.034 83.3943 162.952 83.5993 162.213C83.7429 161.783 83.9889 160.881 84.1735 160.224L84.5016 159.056H86.5111H88.5206L88.9717 160.635C89.2177 161.516 89.4638 162.398 89.5253 162.583C89.5868 162.788 89.4433 163.095 89.2177 163.3C88.9717 163.505 88.7871 163.731 88.7871 163.813C88.7871 163.915 89.8944 163.977 91.2478 163.977C92.6011 163.977 93.7084 163.915 93.7084 163.854C93.7084 163.772 93.5033 163.526 93.2368 163.28C92.8882 162.952 92.2935 161.188 90.7556 155.816L88.7256 148.803H87.8234C87.2903 148.803 86.8802 148.906 86.8391 149.049ZM88.377 158.379C88.377 158.42 87.5363 158.441 86.5111 158.441C85.0347 158.441 84.6656 158.379 84.7476 158.153C84.8296 157.948 85.8139 154.627 86.4701 152.392C86.5521 152.145 86.9212 153.171 87.4748 155.16C87.9669 156.903 88.3565 158.359 88.377 158.379Z" fill="white"/>
<path d="M94.1191 149.049C94.1191 149.213 94.3447 149.459 94.6318 149.582L95.1444 149.828V156.492V163.157L94.6318 163.403C94.3447 163.526 94.1191 163.71 94.1191 163.813C94.1191 163.895 95.2674 163.977 96.6823 163.977C98.0971 163.977 99.2454 163.915 99.2454 163.854C99.2454 163.772 99.0199 163.505 98.7328 163.239C98.2407 162.767 98.2202 162.705 98.2202 159.773V156.8H98.7943C99.3275 156.8 99.4095 156.964 100.763 160.388L102.178 163.977H104.003C104.987 163.977 105.807 163.915 105.807 163.833C105.807 163.751 105.582 163.505 105.294 163.259C104.987 163.013 104.29 161.639 103.449 159.712C102.711 157.969 102.116 156.533 102.116 156.492C102.116 156.472 102.465 156.205 102.916 155.918C104.823 154.667 105.13 151.571 103.531 150.095C102.465 149.111 101.624 148.947 97.7691 148.844C94.6728 148.762 94.1191 148.803 94.1191 149.049ZM100.353 149.849C101.111 150.197 101.501 151.223 101.501 152.904C101.501 155.18 100.763 156.185 99.1019 156.185H98.2202V152.904V149.623H99.0404C99.471 149.623 100.066 149.726 100.353 149.849Z" fill="white"/>
<path d="M106.215 149.07C106.215 149.234 106.441 149.459 106.728 149.582L107.241 149.828V156.39V162.952L106.728 163.28C106.441 163.464 106.215 163.69 106.215 163.792C106.215 163.895 108.409 163.977 111.137 163.977H116.058V163.075C116.058 162.583 116.119 161.742 116.201 161.209C116.386 159.855 115.894 160.04 115.34 161.557C114.684 163.341 114.663 163.362 112.346 163.362H110.316V159.978V156.595H111.567H112.797L113.208 157.518C113.433 158.03 113.7 158.441 113.802 158.441C113.925 158.441 114.007 157.518 114.007 156.287C114.007 155.016 113.925 154.134 113.802 154.134C113.7 154.134 113.413 154.504 113.187 154.955C112.777 155.775 112.756 155.775 111.547 155.775H110.316V152.699V149.623H112.244H114.171L114.581 150.526C114.828 151.018 115.074 151.674 115.156 151.961C115.32 152.617 115.853 152.679 115.853 152.022C115.853 151.776 115.791 150.956 115.709 150.177L115.586 148.803H110.911C107.118 148.803 106.215 148.865 106.215 149.07Z" fill="white"/>
<path d="M116.876 149.045C116.876 149.209 117.102 149.455 117.389 149.578L117.902 149.824V156.365V162.927L117.389 163.316C117.102 163.542 116.876 163.788 116.876 163.87C116.876 163.952 118.558 163.973 120.629 163.932C124.34 163.87 124.402 163.87 125.591 163.255C126.534 162.783 126.903 162.435 127.273 161.738C127.826 160.671 127.908 158.949 127.437 158.047C127.047 157.267 126.083 156.468 125.181 156.181L124.463 155.935L125.325 155.484C126.329 154.95 127.129 153.638 127.129 152.51C127.129 151.3 126.35 150.009 125.284 149.414C124.422 148.942 124.135 148.922 120.629 148.84C117.43 148.758 116.876 148.799 116.876 149.045ZM123.172 149.927C123.725 150.316 124.053 151.403 124.053 152.818C124.053 154.868 123.336 155.771 121.695 155.771H120.978V152.695V149.619H121.859C122.331 149.619 122.925 149.763 123.172 149.927ZM123.459 156.898C124.197 157.288 124.566 158.293 124.566 159.872C124.545 162.168 123.582 163.357 121.716 163.357H120.978V159.851V156.345L121.941 156.488C122.474 156.57 123.172 156.755 123.459 156.898Z" fill="white"/>
<path d="M128.155 149.111C128.155 149.275 128.237 149.418 128.34 149.418C128.442 149.418 128.688 149.562 128.852 149.746C129.14 150.013 129.181 150.915 129.181 156.411V162.767L128.668 163.239C128.381 163.505 128.155 163.772 128.155 163.854C128.155 163.915 129.304 163.977 130.718 163.977C132.133 163.977 133.282 163.895 133.282 163.792C133.282 163.69 133.056 163.464 132.769 163.28L132.256 162.952V156.493C132.256 150.915 132.297 150.013 132.584 149.746C132.748 149.562 132.994 149.418 133.097 149.418C133.2 149.418 133.282 149.275 133.282 149.111C133.282 148.844 132.851 148.803 130.718 148.803C128.586 148.803 128.155 148.844 128.155 149.111Z" fill="white"/>
<path d="M138.598 150.279C134.968 162.603 134.968 162.623 134.312 163.177C133.984 163.464 133.697 163.772 133.697 163.833C133.697 163.915 134.353 163.977 135.132 163.977C135.932 163.977 136.568 163.915 136.568 163.833C136.568 163.751 136.342 163.505 136.075 163.259L135.583 162.849L136.096 160.942L136.629 159.035L138.68 159.097L140.73 159.158L141.263 161.086L141.776 163.013L141.325 163.321C141.079 163.485 140.874 163.69 140.874 163.792C140.874 163.895 142.022 163.977 143.437 163.977C144.852 163.977 146 163.936 146 163.874C146 163.813 145.774 163.546 145.467 163.3C145.036 162.931 144.647 161.803 143.211 156.903C142.268 153.622 141.345 150.464 141.181 149.869L140.853 148.803H139.951H139.049L138.598 150.279ZM139.623 155.18C140.094 156.82 140.463 158.235 140.463 158.297C140.463 158.502 136.978 158.481 136.978 158.276C136.957 158.092 138.7 152.104 138.762 152.145C138.782 152.166 139.172 153.54 139.623 155.18Z" fill="white"/>
</svg>
