<svg width="513" height="276" viewBox="0 0 513 276" fill="none" xmlns="http://www.w3.org/2000/svg">
<g clip-path="url(#clip0_211_277)">
<mask id="mask0_211_277" style="mask-type:luminance" maskUnits="userSpaceOnUse" x="0" y="0" width="513" height="276">
<path d="M512.1 0H0V275.3H512.1V0Z" fill="white"/>
</mask>
<g mask="url(#mask0_211_277)">
<path d="M138.1 96.1C138.1 70.1 117 49 91 49C65 49 44 70 44 96C44 122 65.1 143.1 91.1 143.1C117 143.1 138.1 122 138.1 96.1ZM56 96.1C56 76.7 71.7 61 91 61C110.4 61 126.1 76.7 126.1 96.1C126.1 115.5 110.4 131.2 91 131.2C71.7 131.1 56 115.4 56 96.1ZM486.1 26.7999C450.1 -9.00005 392 -9.00005 356 26.7999C321.4 61.3999 321.3 117.1 355.7 156.6L376 179.8C348.1 188.5 330.9 204.5 330.1 222.9H182C181.2 204.5 164 188.5 136.1 179.8L156.4 156.6C190.8 117.2 190.7 61.3999 156.1 26.7999C120.1 -8.90005 62 -8.90005 26 26.7999C-8.6 61.3999 -8.7 117.1 25.7 156.6L46 179.8C17.4 188.7 1.86265e-06 205.3 1.86265e-06 224.3C1.86265e-06 252.9 40 275.3 91 275.3C135.5 275.3 171.6 258.3 180.1 234.9H331.9C340.4 258.2 376.5 275.3 421 275.3C472 275.3 512 252.9 512 224.3C512 205.3 494.6 188.7 466.1 179.8L486.4 156.6C520.8 117.2 520.6 61.3999 486.1 26.7999ZM34.5 35.2999C65.8 4.19995 116.3 4.19995 147.6 35.2999C177.6 65.2999 177.5 114.1 147.3 148.7L91 213.2L34.7 148.7C4.6 114.1 4.4 65.4 34.5 35.2999ZM91 263.3C48.2 263.3 12 245.4 12 224.3C12 210.3 29 196.6 54.7 189.8L86.5 226.3C88.7 228.8 92.5 229.1 95 226.9C95.2 226.7 95.4 226.5 95.6 226.3L127.4 189.8C153 196.6 170.1 210.3 170.1 224.3C170 245.5 133.9 263.3 91 263.3ZM500 224.3C500 245.4 463.8 263.3 421 263.3C378.2 263.3 342 245.4 342 224.3C342 210.3 359 196.6 384.7 189.8L416.5 226.3C418.7 228.8 422.5 229.1 425 226.9C425.2 226.7 425.4 226.5 425.6 226.3L457.4 189.8C483 196.6 500 210.3 500 224.3ZM421 213.2L364.7 148.7C334.5 114.1 334.4 65.2999 364.4 35.2999C395.7 4.19995 446.2 4.19995 477.5 35.2999C507.5 65.2999 507.4 114.1 477.2 148.7L421 213.2ZM421 49C395 49 374 70 374 96C374 122 395.1 143.1 421.1 143.1C447.1 143.1 468.2 122 468.2 96C468.1 70.1 447 49 421 49ZM421 131.1C401.6 131.1 385.9 115.4 385.9 96C386 76.7 401.7 61 421 61C440.4 61 456.1 76.7 456.1 96.1C456.1 115.4 440.4 131.1 421 131.1Z" fill="#568259"/>
</g>
</g>
<defs>
<clipPath id="clip0_211_277">
<rect width="512.1" height="275.3" fill="white"/>
</clipPath>
</defs>
</svg>
