<svg width="512" height="512" viewBox="0 0 512 512" fill="none" xmlns="http://www.w3.org/2000/svg">
<g clip-path="url(#clip0_211_283)">
<mask id="mask0_211_283" style="mask-type:luminance" maskUnits="userSpaceOnUse" x="0" y="0" width="512" height="512">
<path d="M512 0H0V512H512V0Z" fill="white"/>
</mask>
<g mask="url(#mask0_211_283)">
<path d="M109.2 298.7H92.3C88.7 288.5 79.1 281.7 68.3 281.6H25.6C11.5 281.6 0 293.1 0 307.2V486.4C0 500.5 11.5 512 25.6 512H68.3C75.5 512 82.4 508.9 87.2 503.5H301.2C313.7 503.5 326 500.1 336.7 493.5L496.6 396.1C510.5 387.6 515.8 370.1 509 355.4C502.2 340.7 485.3 333.4 469.9 338.5C292 397.8 311.9 392.5 299 392.5C309.3 363.8 283.5 332.8 251.2 332.8H206.6C190.9 332.8 175.6 327.4 163.3 317.6C147.9 305.4 128.8 298.7 109.2 298.7ZM68.3 494.9H25.6C20.9 494.9 17.1 491.1 17.1 486.4V307.2C17.1 302.5 20.9 298.7 25.6 298.7H68.3C73 298.7 76.8 302.5 76.8 307.2V486.4C76.8 491.1 73 494.9 68.3 494.9ZM251.2 349.9C273.8 349.9 293.5 374.4 280 392.6H228.1C211.2 392.6 194.8 397.6 180.8 406.9L174.5 411.1C170.6 413.7 169.5 419 172.1 422.9C174.7 426.8 180 427.9 183.9 425.3C196.5 415.3 212 409.8 228 409.7C309.1 409.7 308.4 410.5 317.3 407.5L475.3 354.8C482.5 352.4 490.3 355.8 493.4 362.7C496.6 369.5 494.1 377.7 487.7 381.6L327.7 479C319.7 483.9 310.5 486.5 301.1 486.5H93.9V315.7C113.3 315.7 131.7 314.2 152.6 330.9C167.9 343.1 187 349.8 206.6 349.8H251.2V349.9Z" fill="#568259"/>
</g>
<mask id="mask1_211_283" style="mask-type:luminance" maskUnits="userSpaceOnUse" x="0" y="0" width="512" height="512">
<path d="M512 0H0V512H512V0Z" fill="white"/>
</mask>
<g mask="url(#mask1_211_283)">
<path d="M324.3 324.3C399.6 324.3 460.8 267.2 460.8 197.1C460.8 128.7 335.5 7.6 330.2 2.4C326.9 -0.8 321.7 -0.8 318.4 2.4C313 7.5 187.7 128.6 187.7 197C187.7 267.2 249 324.3 324.3 324.3ZM324.3 20.5C362.5 58.3 443.7 149 443.7 197.1C443.7 257.8 390.1 307.2 324.2 307.2C258.3 307.2 204.8 257.8 204.8 197C204.8 148.9 286.1 58.3 324.3 20.5Z" fill="#568259"/>
</g>
<mask id="mask2_211_283" style="mask-type:luminance" maskUnits="userSpaceOnUse" x="0" y="0" width="512" height="512">
<path d="M512 0H0V512H512V0Z" fill="white"/>
</mask>
<g mask="url(#mask2_211_283)">
<path d="M264.5 221.9H298.6V256C298.6 265.4 306.2 273.1 315.7 273.1H332.8C342.2 273.1 349.9 265.5 349.9 256V221.9H384C393.4 221.9 401.1 214.3 401.1 204.8V187.7C401.1 178.3 393.5 170.6 384 170.6H349.9V136.5C349.9 127.1 342.3 119.4 332.8 119.4H315.7C306.3 119.4 298.6 127 298.6 136.5V170.6H264.5C255.1 170.6 247.4 178.2 247.4 187.7V204.8C247.5 214.2 255.1 221.9 264.5 221.9ZM264.5 187.7H298.6C308 187.7 315.7 180.1 315.7 170.6V136.5H332.8V170.6C332.8 180 340.4 187.7 349.9 187.7H384V204.8H349.9C340.5 204.8 332.8 212.4 332.8 221.9V256H315.7V221.9C315.7 212.5 308.1 204.8 298.6 204.8H264.5V187.7Z" fill="#568259"/>
</g>
</g>
<defs>
<clipPath id="clip0_211_283">
<rect width="512" height="512" fill="white"/>
</clipPath>
</defs>
</svg>
